<svg version="1.1" xmlns="http://www.w3.org/2000/svg" style="display: block;" viewBox="0 0 2048 2048" width="1024" height="1024" preserveAspectRatio="none">
<path transform="translate(0,0)" fill="rgb(101,216,209)" d="M 895.355 528.09 C 945.259 527.744 995.164 527.661 1045.07 527.841 C 1061.11 527.784 1142.13 525.638 1152.69 528.973 C 1155.29 527.153 1201.85 528.034 1209.52 527.65 C 1210.86 555.013 1209.96 588.876 1209.96 616.661 L 1209.99 778.433 L 1210.19 1286.23 L 1210.02 1608.74 L 1210.13 1704.75 C 1210.15 1720.43 1210.9 1741.41 1209.38 1756.48 C 1207.28 1777.45 1191.39 1810.21 1176.9 1825.07 C 1098.68 1905.32 961.853 1908.88 879.373 1832.91 C 853.565 1809.14 837.996 1772.42 837.166 1737.24 C 836.928 1695.58 837.166 1653.23 837.108 1611.33 L 837.019 1339.72 L 837.095 529.451 L 836.921 528.251 C 856.398 528.059 875.877 528.005 895.355 528.09 z"/>
<path transform="translate(0,0)" fill="rgb(71,184,179)" d="M 836.921 528.251 C 856.398 528.059 875.877 528.005 895.355 528.09 L 909.361 595.601 C 910.8 602.68 912.398 610.261 913.757 617.317 C 918.451 641.704 920.495 653.73 947.752 659.506 C 945.503 661.918 945.956 664.492 945.94 668.483 C 945.626 748.701 945.704 828.944 945.834 909.157 C 945.16 1029.77 945.188 1150.39 945.916 1271 C 945.384 1354.52 945.368 1438.05 945.868 1521.57 C 945.797 1561.45 945.324 1601.61 945.362 1641.42 C 945.4 1680.82 963.157 1723.62 991.479 1750.92 C 1012.91 1771.59 1033.66 1776.5 1061.2 1783.7 C 1063.56 1784.32 1061.73 1784.12 1064.19 1784.21 C 1084.55 1784.34 1087.56 1783.77 1106.31 1776.24 C 1117.95 1775.66 1143.13 1762.91 1148.7 1763.92 C 1126.08 1800.12 1070.86 1828.57 1028.64 1829.51 C 988.318 1830.37 946.666 1812.5 917.102 1785.48 C 882.17 1753.55 880.817 1711.71 880.651 1668.21 L 880.409 1599.81 L 878.963 1361.59 C 878.349 1090.53 875.319 819.475 869.875 548.467 C 871.022 544.355 870.522 533.274 870.381 528.707 C 861.054 528.77 845.95 528.424 837.095 529.451 L 836.921 528.251 z"/>
<path transform="translate(0,0)" fill="rgb(181,252,247)" d="M 1148.7 1763.92 C 1167.91 1735.84 1167.13 1694.48 1167.35 1662.11 L 1167.79 1594.25 L 1169.08 1380.81 L 1173.62 769.957 C 1173.63 711.569 1174.47 653.185 1176.12 594.821 C 1176.56 578.075 1176 541.54 1179.24 526.917 C 1185.76 638.329 1185.07 760.161 1185.59 872.007 L 1187.04 1341.68 L 1187.23 1567.85 L 1187.5 1646.25 C 1187.78 1685.68 1190.62 1716.93 1178.72 1754.93 C 1167.34 1791.24 1140.69 1818.12 1107.08 1834.99 C 1062.18 1857.53 1022.81 1865.49 974.597 1849.19 C 934.591 1836.58 895.696 1811.91 876.368 1773.24 C 855.435 1731.35 860.398 1679.29 860.436 1633.43 L 860.531 1492.37 L 861.81 1039.76 C 861.858 913.477 862.742 787.198 864.463 660.929 C 864.886 626.229 864.99 591.297 867.143 556.684 C 867.546 550.194 866.728 537.983 868.511 532.483 C 868.513 536.453 867.795 545.99 869.875 548.467 C 875.319 819.475 878.349 1090.53 878.963 1361.59 L 880.409 1599.81 L 880.651 1668.21 C 880.817 1711.71 882.17 1753.55 917.102 1785.48 C 946.666 1812.5 988.318 1830.37 1028.64 1829.51 C 1070.86 1828.57 1126.08 1800.12 1148.7 1763.92 z"/>
<path transform="translate(0,0)" fill="rgb(97,58,1)" d="M 895.355 528.09 C 945.259 527.744 995.164 527.661 1045.07 527.841 C 1061.11 527.784 1142.13 525.638 1152.69 528.973 L 1138.24 597.093 C 1135.5 610.263 1132.21 630.155 1127.48 642.141 C 1121.01 658.559 1093.38 660.46 1078.59 661.75 C 1034.65 666.838 991.495 664.856 947.752 659.506 C 920.495 653.73 918.451 641.704 913.757 617.317 C 912.398 610.261 910.8 602.68 909.361 595.601 L 895.355 528.09 z"/>
<path transform="translate(0,0)" fill="rgb(251,199,92)" d="M 1093.91 546.119 L 1122.24 545.834 C 1116.53 576.097 1110.16 606.23 1103.12 636.211 C 1102.38 638.171 1101.72 639.43 1100.77 641.302 C 1096.08 644.411 1088.35 644.109 1082.54 644.4 L 1093.91 546.119 z"/>
<path transform="translate(0,0)" fill="rgb(181,252,247)" d="M 1064.19 1784.21 C 1066.77 1782.51 1069.29 1780.74 1071.76 1778.91 C 1115.39 1746.53 1108.73 1691.48 1108.88 1642.77 C 1109.08 1612.83 1109.48 1582.88 1110.08 1552.94 C 1112.45 1404.68 1115.72 1256.44 1119.89 1108.22 C 1121.08 1065.35 1122.54 1022.48 1124.25 979.629 C 1125.12 959.577 1126.03 928.034 1128.92 908.72 C 1133.34 951.723 1134.22 1007.73 1135.87 1051.28 L 1144.61 1351.44 L 1150 1559.06 C 1151.01 1598.75 1152.29 1638.31 1151.06 1678.01 C 1149.8 1718.59 1140.1 1751.39 1106.31 1776.24 C 1087.56 1783.77 1084.55 1784.34 1064.19 1784.21 z"/>
<path transform="translate(0,0)" fill="rgb(181,252,247)" d="M 1089.94 1003.21 C 1092.57 1005.88 1094.73 1008.34 1097.2 1011.17 C 1093.36 1015.29 1091.25 1017.03 1086.96 1020.53 C 1087.92 1021.59 1088.87 1022.64 1089.81 1023.71 C 1093.46 1027.86 1094.69 1028.63 1094.33 1034.36 C 1089.85 1038.97 1083.92 1030.93 1080.94 1027.69 L 1073.04 1035.41 C 1095.11 1063.48 1099.88 1093.22 1078.83 1123.56 C 1078.38 1124.11 1077.93 1124.65 1077.47 1125.18 C 1064.33 1140.38 1049.03 1148.71 1029.03 1150.21 L 1029.28 1172.32 C 1033.64 1172.45 1037.46 1172.15 1041.39 1173.84 L 1042.35 1176.38 C 1039.43 1186.48 1006.83 1182.98 1004.6 1180.12 C 1004.12 1175.75 1003.64 1176.94 1005.27 1173.44 C 1008.51 1171.54 1013.14 1172.12 1017.08 1172.15 L 1017.54 1150.43 C 1002.42 1149.16 989.515 1143.73 977.945 1133.93 C 964.363 1122.46 955.949 1106.02 954.589 1088.3 C 953.058 1068.01 960.422 1051.03 973.419 1035.84 C 970.537 1033.38 967.827 1030.36 965.201 1027.6 C 961.415 1032.54 959.691 1036.7 952.969 1036.68 C 947.593 1031.44 956.038 1025.22 959.771 1021.77 L 948.734 1011.32 L 955.45 1003.56 C 958.093 1005.2 964.243 1011.13 966.86 1013.51 C 967.078 1013.29 967.297 1013.07 967.515 1012.85 L 968.627 1011.77 C 972.697 1007.78 973.955 1005.39 980.007 1006.87 C 982.176 1009.49 981.562 1007.98 981.559 1011.67 C 980.031 1015.49 976.852 1017.11 973.37 1019.64 C 975.737 1022.34 978.278 1025.66 980.564 1028.5 C 1008.57 1010.02 1036.73 1007.79 1064.93 1027.63 C 1067.83 1024.67 1070.25 1022.79 1073.48 1020.17 C 1069.37 1016.95 1062.36 1012.68 1066 1006.82 C 1072.39 1005.26 1074.98 1009.16 1079.59 1013.16 C 1082.45 1009.99 1086.74 1006.21 1089.94 1003.21 z"/>
<path transform="translate(0,0)" fill="rgb(101,216,209)" d="M 982.911 1089.57 L 983.858 1090.12 C 989.416 1108.48 998.553 1119.32 1017.69 1123.72 C 1017.8 1129.75 1017.77 1134.15 1017.39 1140.17 L 1005.32 1137.2 C 981.839 1129.32 970.049 1113.16 965.696 1089.79 L 982.911 1089.57 z"/>
<path transform="translate(0,0)" fill="rgb(101,216,209)" d="M 1062.39 1089.4 C 1068.04 1089.21 1072.74 1088.98 1078.43 1089.39 L 1080.2 1091.86 C 1080.89 1095.35 1080.7 1096.84 1079.32 1100.27 C 1072.99 1116.52 1060.27 1129.46 1044.13 1136.08 C 1038.48 1138.18 1034.78 1138.69 1028.93 1139.73 L 1028.99 1124.21 C 1047.57 1118.49 1059.17 1109.49 1062.39 1089.4 z"/>
<path transform="translate(0,0)" fill="rgb(101,216,209)" d="M 1013.89 1025.19 C 1034.48 1024.03 1039.83 1025.28 1057.93 1035.52 L 1044.99 1049.79 C 1039.79 1045.61 1038.6 1045.1 1032.7 1042.45 C 1031.25 1042.07 1029.78 1041.74 1028.3 1041.45 C 1016.87 1039.35 1008.58 1043.16 999.544 1049.25 C 996.219 1044.49 992.688 1040.5 988.92 1036.11 C 997.652 1030.57 1003.61 1027.32 1013.89 1025.19 z"/>
<path transform="translate(0,0)" fill="rgb(101,216,209)" d="M 1065.31 1043.85 C 1074.05 1048.49 1079.08 1069.47 1081.24 1078.46 C 1077.45 1078.74 1072.63 1078.61 1068.75 1078.61 C 1059.95 1079.08 1059.06 1065.78 1054.2 1057.45 L 1053.42 1056.14 C 1057.47 1052.12 1061.43 1048.03 1065.31 1043.85 z"/>
<path transform="translate(0,0)" fill="rgb(101,216,209)" d="M 980.248 1043.7 C 984.342 1047.24 989.267 1052.67 993.14 1056.7 C 987.145 1064.88 986.63 1068.9 983.404 1078.24 L 981.25 1078.93 L 965.441 1078.88 C 966.741 1065.85 972.072 1053.85 980.248 1043.7 z"/>
<path transform="translate(0,0)" fill="rgb(101,216,209)" d="M 1016.69 1052.83 C 1017.63 1061.36 1017.58 1069.44 1017.67 1077.98 L 997.302 1078.77 L 996.426 1078 C 993.451 1067.65 1008.7 1056.77 1016.69 1052.83 z"/>
<path transform="translate(0,0)" fill="rgb(101,216,209)" d="M 1028.53 1052.68 C 1040.79 1056.04 1047.6 1066.35 1050.83 1078.05 C 1043.34 1078.4 1036.25 1078.21 1028.75 1078.07 L 1028.53 1052.68 z"/>
<path transform="translate(0,0)" fill="rgb(101,216,209)" d="M 1028.91 1088.97 L 1051.75 1089.35 C 1048.55 1096.71 1047.56 1099.48 1042.46 1105.78 C 1036.47 1110.45 1035.77 1110.79 1028.95 1113.84 L 1028.91 1088.97 z"/>
<path transform="translate(0,0)" fill="rgb(101,216,209)" d="M 998.455 1089.5 L 1017.78 1089.21 C 1017.74 1094.05 1018.17 1110.34 1016.03 1113.01 C 1009.19 1109.79 994.748 1099.14 996.518 1090.64 L 998.455 1089.5 z"/>
<path transform="translate(0,0)" fill="rgb(181,252,247)" d="M 1006.45 1278.45 C 1017.88 1278.17 1030.01 1278.31 1041.5 1278.27 L 1041.5 1288.53 C 1037.3 1288.52 1032.89 1288.34 1028.67 1288.25 L 1028.87 1313.67 C 1056.65 1317.09 1079.31 1333.22 1088.12 1360.32 C 1093.49 1376.91 1092.02 1394.96 1084.04 1410.46 C 1074.17 1429.84 1059.43 1439.85 1039.35 1446.5 C 1022.91 1450.1 1006.38 1448.05 991.565 1440.01 C 975.077 1431.16 962.895 1415.98 957.815 1397.97 C 948.902 1366.99 965.847 1334.71 993.746 1319.5 C 997.368 1317.52 1010.58 1314.55 1015.36 1313.22 C 1018.33 1309.65 1017.47 1293.92 1017.42 1288.32 C 1011.97 1288.51 1010.44 1288.93 1005.52 1286.73 C 1003.72 1284.68 1003.85 1284.84 1003.48 1282.13 C 1004.72 1280.02 1004.64 1280.05 1006.45 1278.45 z"/>
<path transform="translate(0,0)" fill="rgb(101,216,209)" d="M 980.701 1342.99 C 981.949 1344.08 981.003 1345.62 980.591 1348.38 C 979.25 1357.35 978.406 1365.15 980.424 1374.16 C 983.251 1386.63 990.99 1397.44 1001.89 1404.13 C 1011.99 1410.18 1024.12 1411.86 1035.49 1408.79 C 1067.2 1400.26 1072.41 1367.98 1064.47 1340.48 C 1074.93 1354.56 1077.96 1361.83 1079.77 1379.35 C 1079.36 1391.67 1077.61 1400.72 1070.78 1411.27 C 1062.71 1424.01 1049.76 1432.89 1034.97 1435.84 C 1019.79 1439.02 1003.98 1435.85 991.2 1427.07 C 978.825 1418.76 970.379 1405.77 967.815 1391.09 C 964.7 1372.75 970.513 1357.7 980.701 1342.99 z"/>
<path transform="translate(0,0)" fill="rgb(101,216,209)" d="M 1007.26 1324.3 C 1007.99 1324.23 1008.72 1324.16 1009.45 1324.1 C 1014.24 1323.69 1014.54 1323.69 1017.67 1326.32 C 1018.78 1333.75 1011.04 1336.85 1007.17 1345.22 L 1007.81 1346.78 C 1014.32 1348.21 1025.83 1342.29 1034.25 1346.39 C 1035.86 1347.18 1038.58 1347.65 1040.4 1347.91 C 1043.87 1346.53 1042.73 1347.67 1044.37 1344.88 C 1042.79 1339.85 1034.37 1336.3 1029.61 1333.78 C 1028.91 1329.86 1028.32 1327.62 1031.43 1324.77 C 1035.76 1324.25 1041.15 1326.38 1045.55 1327.68 C 1053.3 1340.29 1059.84 1351.62 1058.19 1367.12 C 1055.37 1378.86 1050.62 1389.07 1039.72 1395.42 C 1032.05 1399.85 1022.88 1400.85 1014.44 1398.17 C 981.312 1387.84 982.17 1336.21 1007.26 1324.3 z"/>
<path transform="translate(0,0)" fill="rgb(181,252,247)" d="M 1021.5 695.504 C 1023.91 696.211 1024.24 696.53 1026.44 697.824 C 1030.46 704.633 1028.95 719.641 1028.95 728.369 C 1041.5 729.943 1047.13 732.858 1058.35 738.553 C 1063.92 732.585 1080.28 710.177 1086.62 709.252 C 1090.07 710.421 1088.96 709.353 1090.54 712.008 C 1090.23 720.795 1072.2 737.752 1065.7 744.722 C 1103.65 787.137 1083.28 840.402 1028.8 850.418 C 1028.82 858.214 1030.47 883.046 1022.48 885.515 C 1016.08 880.258 1017.89 858.58 1017.98 850.391 C 1005.37 848.141 1001.71 846.678 990.37 840.62 C 988.265 839.256 989.113 839.679 986.533 839.207 C 983.013 841.25 981.996 842.505 979.039 845.405 C 983.69 849.924 986.501 851.075 986.234 857.89 C 981.231 862.246 976.053 856.21 972.453 852.804 C 969.385 856.764 966.181 860.099 962.788 863.765 C 958.856 861.272 956.86 860.37 955.81 856.068 C 957.12 852.061 961.833 848.4 965.082 845.336 L 962.491 842.966 C 958.149 839.047 956.534 838.523 957.357 832.25 C 959.519 829.917 958.185 830.677 961.701 830.302 C 965.55 831.359 967.748 834.964 970.397 838.167 L 977.522 830.13 C 954.097 801.078 958.113 772.194 981.431 744.87 C 974.989 738.534 954.984 720 957.113 711.346 L 958.996 710.777 C 969.055 713.294 982.127 730.693 988.783 739.289 C 998.061 733.018 1007.66 730.182 1018.47 728.046 C 1018.42 719.653 1016.87 701.695 1021.5 695.504 z"/>
<path transform="translate(0,0)" fill="rgb(101,216,209)" d="M 1029.07 739.177 C 1033.72 740.069 1038.16 741.138 1042.58 742.89 C 1055.29 748.035 1065.36 758.115 1070.5 770.823 C 1075.53 783.579 1075.04 797.846 1069.16 810.229 C 1062.55 824.333 1051.37 832.693 1037.17 837.751 C 1032.95 839.022 1032.43 839.564 1029.35 837.125 C 1027.63 833.353 1027.97 832.729 1028.45 828.408 C 1029.47 828.107 1030.48 827.79 1031.49 827.455 C 1053.48 820.188 1069.82 800.698 1061.64 776.07 C 1056.22 759.755 1043.93 755.814 1029.72 749.002 C 1028.12 746.018 1028.84 742.722 1029.07 739.177 z"/>
<path transform="translate(0,0)" fill="rgb(101,216,209)" d="M 1013.26 739.98 C 1015.45 739.913 1014.91 739.913 1017.06 740.364 C 1018.38 743.614 1018.91 744.257 1018.38 747.773 C 1015.86 751.428 1009.27 752.272 1003.95 755.102 C 994.687 760.053 987.892 768.632 985.196 778.787 C 981.472 792.719 985.376 801.683 992.009 813.199 C 989.663 815.692 987.893 818.179 985.846 820.905 L 984.757 820.749 C 971.149 809.79 970.506 781.255 978.456 766.942 C 987.06 751.453 997.188 745.118 1013.26 739.98 z"/>
<path transform="translate(0,0)" fill="rgb(101,216,209)" d="M 1029.06 760.763 C 1036.72 763.449 1041.8 765.414 1047.05 772.204 C 1051.37 777.802 1053.21 784.924 1052.14 791.914 C 1050.58 802.638 1044.6 808.546 1036.46 814.489 C 1033.54 815.773 1033.33 816.082 1030.08 816.196 C 1028.18 813.255 1028.75 810.882 1028.6 806.94 C 1049.99 791.765 1041.09 784.16 1029.08 768.046 C 1029.08 768.046 1029.06 761.404 1029.06 760.763 z"/>
<path transform="translate(0,0)" fill="rgb(101,216,209)" d="M 1013.69 761.826 C 1014.42 761.836 1016.19 762.186 1016.98 762.318 C 1021.08 770.742 1007.44 774.938 1003.52 787.935 C 1004.11 794.657 1012.8 803.119 1017.48 808.669 C 1018.22 811.957 1018.26 811.72 1017.43 814.973 L 1015.28 816.229 C 1007.04 813.359 1000.92 808.837 997.018 800.707 C 993.953 794.407 993.534 787.143 995.856 780.532 C 999.027 771.575 1005.39 765.927 1013.69 761.826 z"/>
<path transform="translate(0,0)" fill="rgb(101,216,209)" d="M 999.668 820.533 C 1007.16 823.413 1023.26 827.688 1017.03 838.715 L 1013.77 838.779 C 1004.66 837.005 1000.36 833.996 992.795 829.089 C 994.704 826.404 997.532 823.15 999.668 820.533 z"/>
<path transform="translate(0,0)" fill="rgb(101,216,209)" d="M 1020.41 780.288 C 1024.7 778.912 1029.31 781.113 1030.94 785.309 C 1032.57 789.505 1030.64 794.243 1026.55 796.115 C 1023.68 797.428 1020.31 797.042 1017.82 795.113 C 1015.32 793.183 1014.09 790.027 1014.64 786.917 C 1015.18 783.807 1017.4 781.254 1020.41 780.288 z"/>
<path transform="translate(0,0)" fill="rgb(181,252,247)" d="M 1004.03 1593.09 C 1007.72 1592.79 1009.09 1592.45 1012.72 1593.41 C 1011.96 1595.12 1012.22 1595.12 1010.77 1596.08 C 1000.19 1603.3 988.824 1616.42 986.854 1629.43 C 983.641 1651.8 995.472 1676.1 1019.53 1679.72 C 1049.91 1684.28 1075.07 1650.1 1064.51 1622.18 C 1061.88 1615.22 1056.06 1607.61 1056.63 1600.02 L 1057.93 1599.38 C 1067.5 1602.37 1075.61 1613.63 1081.73 1621.14 C 1090.86 1632.34 1094.24 1646.13 1095.22 1660.25 C 1094.97 1670.72 1092.38 1681 1087.65 1690.34 C 1078.98 1707.29 1064 1720.16 1045.95 1726.2 C 1027.98 1732.07 1008.4 1730.49 991.606 1721.81 C 974.731 1713.15 962.016 1698.1 956.291 1680.01 C 949.059 1657.36 955.478 1629.96 971.268 1612.26 C 980.652 1601.74 990.808 1597.16 1004.03 1593.09 z"/>
<path transform="translate(0,0)" fill="rgb(101,216,209)" d="M 979.579 1617.78 C 979.745 1618.99 977.403 1632.67 977.155 1637 C 976.353 1650.98 980.91 1663.83 990.555 1674.09 C 999.325 1683.51 1011.57 1688.93 1024.44 1689.08 C 1046.7 1689.2 1066.56 1673.56 1072.6 1652.63 C 1075.33 1643.16 1075.15 1637.42 1075.04 1627.68 C 1082.68 1644.83 1086.18 1652.74 1082.4 1671.75 C 1079.99 1680.67 1076.86 1688.02 1071.35 1695.5 C 1062.23 1707.92 1048.53 1716.18 1033.29 1718.43 C 1017.17 1720.87 999.894 1716.66 986.979 1706.65 C 974.562 1696.91 966.472 1682.67 964.456 1667.02 C 961.8 1647.38 967.911 1632.83 979.579 1617.78 z"/>
<path transform="translate(0,0)" fill="rgb(181,252,247)" d="M 1021.03 1594.63 C 1025.36 1594.64 1026.71 1594.01 1028.95 1597.86 C 1026.08 1615.58 1044.62 1607.37 1044.41 1625.23 C 1044.37 1628.76 1045.29 1629.67 1043.03 1632.38 C 1039.22 1632.52 1036.43 1632.59 1034.05 1629.69 C 1034.36 1621.17 1035.15 1622.15 1028.76 1617.46 C 1014.15 1615.5 1017.61 1623.4 1013.44 1632.89 L 1011.54 1633.2 C 997.341 1624.34 1011.2 1611.42 1020.85 1606.16 L 1021.03 1594.63 z"/>
<path transform="translate(0,0)" fill="rgb(181,252,247)" d="M 1012.32 1639.5 C 1015.93 1642.33 1015.06 1645.63 1016.27 1651.78 C 1018.38 1654.36 1018.33 1654.75 1022.13 1655.67 C 1035.75 1658.97 1032.96 1644.1 1038.91 1640.64 C 1042.12 1640.82 1040.77 1640.26 1043.14 1642.25 C 1044.95 1647.38 1044.09 1650.62 1042.45 1655.64 C 1037.68 1662.5 1034.12 1663.85 1026.95 1668.63 C 1015.54 1665.56 997.651 1651.39 1012.32 1639.5 z"/>
<path transform="translate(0,0)" fill="rgb(181,252,247)" d="M 1021.15 1624.67 C 1033.53 1624.94 1030.65 1637.97 1029.4 1646.93 C 1016.32 1644.13 1018.68 1635.71 1021.15 1624.67 z"/>
<path transform="translate(0,0)" fill="rgb(113,70,2)" d="M 977.571 180.859 C 987.132 168.082 996.333 161.804 1012.6 159.255 C 1033.52 155.977 1062.55 159.89 1071.38 182.419 C 1077.12 183.463 1089.15 185.338 1094.02 188.302 C 1131.85 202.482 1174.49 236.02 1195.81 270.017 C 1229.65 323.973 1228.47 391.32 1172.25 429.085 C 1194.84 428.903 1226.7 425.092 1243.29 443.101 C 1272.74 475.075 1253.2 523.645 1209.52 527.65 C 1201.85 528.034 1155.29 527.153 1152.69 528.973 C 1142.13 525.638 1061.11 527.784 1045.07 527.841 C 995.164 527.661 945.259 527.744 895.355 528.09 C 875.877 528.005 856.398 528.059 836.921 528.251 C 793.641 522.798 775.218 474.757 804.049 442.828 C 820.213 424.926 853.826 428.837 876.167 429.056 C 814.908 392.23 819.682 311.635 858.687 259.635 C 883.184 226.976 916.497 203.041 954.24 187.823 C 961.266 184.919 970.137 182.765 977.571 180.859 z"/>
<path transform="translate(0,0)" fill="rgb(223,161,45)" d="M 1009.09 192.842 C 1011.89 195.623 1021.79 202.966 1025.26 203.776 C 1029.83 218.602 1035.43 221.793 1051.66 221.493 L 1051.24 222.707 C 1057.7 229.273 1061.4 233.679 1067.15 240.81 C 1027.78 266.544 1005.99 296.087 980.94 334.837 C 961.065 305.936 922.8 294.159 900.483 327.177 C 894.975 310.15 896.893 289.015 899.57 271.748 C 920.128 252.891 965.828 271.641 981.933 290.261 C 998.71 268.042 1006.85 257.876 1027.54 239.104 C 1010.79 228.068 997.74 213.35 1009.09 192.842 z"/>
<path transform="translate(0,0)" fill="rgb(187,127,23)" d="M 937.597 400.345 C 892.346 413.021 861.439 377.888 867.571 334.784 C 870.744 312.48 881.553 286.018 899.57 271.748 C 896.893 289.015 894.975 310.15 900.483 327.177 C 894.644 345.912 896.562 359.889 914.844 370.377 C 917.242 378.727 931.876 389.422 937.597 400.345 z"/>
<path transform="translate(0,0)" fill="rgb(223,161,45)" d="M 935.503 370.359 C 929.051 367.81 924.482 365.941 920.059 360.089 C 915.218 353.868 915.586 347.917 918.637 341.023 C 923.639 329.722 936.602 328.795 946.187 334.894 C 962.259 345.121 965.714 371.786 955.368 387.104 C 950.751 393.94 945.119 397.498 937.597 400.345 C 931.876 389.422 917.242 378.727 914.844 370.377 C 923.315 372.33 926.889 371.582 935.503 370.359 z"/>
<path transform="translate(0,0)" fill="rgb(251,199,92)" d="M 1071.38 182.419 C 1077.12 183.463 1089.15 185.338 1094.02 188.302 C 1100.03 198.025 1113.46 203.694 1117.87 216.968 C 1119.34 219.845 1120.76 222.746 1122.13 225.67 C 1102.26 228.024 1085.18 231.094 1067.15 240.81 C 1061.4 233.679 1057.7 229.273 1051.24 222.707 L 1051.66 221.493 C 1064.13 218.213 1069.92 211.07 1073.21 199.091 C 1072.99 192.028 1073.46 189.397 1071.38 182.419 z"/>
<path transform="translate(0,0)" fill="rgb(223,161,45)" d="M 1071.38 182.419 C 1077.12 183.463 1089.15 185.338 1094.02 188.302 C 1100.03 198.025 1113.46 203.694 1117.87 216.968 C 1110.26 211.879 1082.26 189.672 1074.6 191.665 L 1073.21 199.091 C 1072.99 192.028 1073.46 189.397 1071.38 182.419 z"/>
<path transform="translate(0,0)" fill="rgb(223,161,45)" d="M 977.571 180.859 C 965.56 206.479 969.897 220.986 984.054 243.555 C 960.383 231.542 950.757 228.061 924.208 226.506 C 929.978 213.022 933.762 207.858 944.53 197.557 C 946.555 195.619 952.698 189.802 954.24 187.823 C 961.266 184.919 970.137 182.765 977.571 180.859 z"/>
<path transform="translate(0,0)" fill="rgb(251,199,92)" d="M 1009.09 192.842 C 1015.54 186.037 1022.51 182.665 1032.02 182.187 C 1039.97 181.862 1050.61 185.95 1052.86 194.302 C 1054.38 199.944 1048.45 211.329 1041.94 210.46 C 1036.53 209.739 1030.95 203.681 1029.45 198.582 C 1026.59 199.713 1027.16 200.224 1025.26 203.776 C 1021.79 202.966 1011.89 195.623 1009.09 192.842 z"/>
<path transform="translate(0,0)" fill="rgb(223,161,45)" d="M 958.825 428.153 C 976.884 414.052 976.844 408.983 989.409 391.51 C 1014.28 356.931 1044.32 301.895 1079.97 278.587 C 1086.88 288.268 1092.88 298.617 1096.15 310.163 C 1069.64 324.048 1057.29 344.054 1058.75 374.521 C 1059.61 392.547 1065.49 405.691 1077.41 419.146 C 1081.84 422.62 1085 425.054 1089.81 428.134 C 1083.22 429.267 1051.68 428.573 1042.56 428.434 C 1015.04 428.016 986.106 429.199 958.825 428.153 z"/>
<path transform="translate(0,0)" fill="rgb(251,199,92)" d="M 1077.41 419.146 C 1081.84 422.62 1085 425.054 1089.81 428.134 C 1085.01 427.574 1080.83 428.882 1076.82 427.002 C 1075.48 423.433 1076.23 423.713 1077.41 419.146 z"/>
<path transform="translate(0,0)" fill="rgb(251,199,92)" d="M 1079.97 278.587 C 1095.64 268.164 1117.55 260.831 1134.55 265.074 C 1180.82 276.616 1199.84 370.661 1155.28 395.969 C 1139.37 405 1120.88 406.392 1105.49 399.671 C 1106.52 393.237 1108.35 376.254 1109.78 371.426 L 1112.38 370.357 C 1135.26 378.025 1154.97 357.711 1148.89 334.687 C 1146.37 325.342 1140.22 317.394 1131.8 312.62 C 1120.14 305.952 1108.49 306.612 1096.15 310.163 C 1092.88 298.617 1086.88 288.268 1079.97 278.587 z"/>
<path transform="translate(0,0)" fill="rgb(223,161,45)" d="M 1106.65 331.857 C 1135.98 328.029 1140.31 361.222 1111.81 369.547 L 1112.38 370.357 L 1109.78 371.426 C 1108.35 376.254 1106.52 393.237 1105.49 399.671 C 1079.45 383.603 1079.53 346.272 1106.65 331.857 z"/>
<path transform="translate(0,0)" fill="rgb(251,199,92)" d="M 1106.65 331.857 C 1135.98 328.029 1140.31 361.222 1111.81 369.547 L 1110.19 368.773 C 1108.89 366.424 1107.2 337.198 1106.65 331.857 z"/>
</svg>