<svg version="1.1" xmlns="http://www.w3.org/2000/svg" style="display: block;" viewBox="0 0 2048 2048" width="1024" height="1024" preserveAspectRatio="none">
<path transform="translate(0,0)" fill="rgb(77,78,78)" d="M 185.084 613.252 C 185.904 610.808 187.189 600.428 187.669 597.071 C 193.904 553.433 219.923 513.69 264.959 503.013 C 316.653 490.759 344.306 530.034 383.493 554.707 C 386.607 557.01 390.088 559.762 393.349 561.744 C 419.322 551.072 434.535 543.901 458.795 563.161 C 459.974 563.642 471.496 556.511 473.748 555.246 C 483.704 549.653 489.181 546.274 500.812 545.858 C 513.661 547.473 550.812 552.567 558.993 561.347 C 568.433 570.91 567.11 573.133 572.651 583.725 C 671.309 603.724 733.425 635.479 823.537 677.347 C 1082.05 797.46 1366.17 825.669 1647.5 797.07 C 1684.69 793.584 1721.76 788.915 1758.66 783.071 C 1775.78 780.257 1792.86 777.275 1809.91 774.126 C 1815.01 773.192 1830.82 769.724 1835.1 769.944 C 1834.46 771.821 1835.04 770.975 1833.07 772.262 C 1821.9 781.186 1808.45 788.721 1796.25 796.296 C 1739.58 831.489 1675.73 857.699 1613.54 881.403 C 1573.05 896.833 1531.67 908.013 1494.55 931.103 C 1482.86 938.375 1477.51 943.215 1467.23 950.686 C 1511.43 954.211 1552.86 957.89 1597.31 959.403 C 1689.04 962.524 1775.77 953.704 1866.63 944.784 L 1865.44 945.488 C 1848.06 955.867 1831.53 970.145 1814.25 981.124 C 1748.16 1023.11 1679.5 1061.83 1603.27 1082.06 C 1557.84 1094.12 1502.65 1115.62 1478.22 1158.6 C 1540.53 1170.42 1603.21 1180.26 1666.15 1188.08 C 1683.14 1190.2 1706.86 1194.05 1723.2 1195.35 C 1657.07 1232.45 1602.87 1254.21 1527.8 1268.15 C 1493.07 1274.67 1457.88 1278.39 1422.56 1279.28 C 1364.35 1280.67 1263.88 1263.2 1229.58 1323.26 C 1255.28 1332.71 1294.94 1343.02 1322.06 1349.8 C 1372.82 1362.07 1423.75 1373.63 1474.83 1384.48 C 1404.67 1405.21 1330.69 1414.65 1257.5 1412.56 C 1240.33 1412.02 1223.18 1411.19 1206.04 1410.07 C 1183.34 1408.65 1082.98 1398.85 1071.62 1418.18 C 1070.74 1419.68 1070.81 1420.76 1071.63 1422.34 C 1081.61 1441.64 1239.32 1489 1266.31 1496.7 C 1301.94 1506.85 1338.53 1514.61 1373.77 1525.93 C 1239.46 1557.61 1098.82 1549.35 969.148 1502.16 C 896.848 1475.36 813.001 1428.65 746.411 1388.28 L 743.955 1386.79 C 750.368 1392.95 756.904 1399.18 763.034 1405.61 C 790.594 1434.55 822.639 1460.01 854.345 1484.23 C 867.364 1494.16 880.631 1503.77 894.134 1513.04 C 902.179 1518.54 929.107 1536.16 934.021 1541.55 C 936.813 1543.36 936.429 1542.32 937.084 1544.55 C 931.558 1544.09 918.811 1539.26 913.046 1537.4 C 878.616 1526.29 845.111 1511.46 812.67 1495.53 C 618.737 1399.32 457.555 1247.95 349.363 1060.44 C 321.706 1012.11 296.97 962.175 275.288 910.891 C 250.847 854.537 222.4 790.305 255.228 730.41 C 256.996 727.183 262.661 719.993 262.869 716.967 C 259.838 713.557 257.327 710.077 254.596 706.434 C 225.368 677.417 206.221 661.68 196.952 620.946 C 193.898 617.241 192.152 622.667 186.125 621.662 C 184.305 618.782 184.866 616.711 185.084 613.252 z"/>
<path transform="translate(0,0)" fill="rgb(204,203,203)" d="M 1448.34 950.018 C 1452.66 945.568 1457.07 941.071 1461.73 936.977 C 1508.12 896.202 1591.09 876.755 1649.66 855.168 C 1686.25 841.685 1722.72 825.795 1758.04 809.274 C 1769.21 804.052 1825.51 771.784 1833.07 772.262 C 1821.9 781.186 1808.45 788.721 1796.25 796.296 C 1739.58 831.489 1675.73 857.699 1613.54 881.403 C 1573.05 896.833 1531.67 908.013 1494.55 931.103 C 1482.86 938.375 1477.51 943.215 1467.23 950.686 C 1511.43 954.211 1552.86 957.89 1597.31 959.403 C 1689.04 962.524 1775.77 953.704 1866.63 944.784 L 1865.44 945.488 C 1848.06 955.867 1831.53 970.145 1814.25 981.124 C 1748.16 1023.11 1679.5 1061.83 1603.27 1082.06 C 1557.84 1094.12 1502.65 1115.62 1478.22 1158.6 C 1540.53 1170.42 1603.21 1180.26 1666.15 1188.08 C 1683.14 1190.2 1706.86 1194.05 1723.2 1195.35 C 1657.07 1232.45 1602.87 1254.21 1527.8 1268.15 C 1493.07 1274.67 1457.88 1278.39 1422.56 1279.28 C 1364.35 1280.67 1263.88 1263.2 1229.58 1323.26 C 1255.28 1332.71 1294.94 1343.02 1322.06 1349.8 C 1372.82 1362.07 1423.75 1373.63 1474.83 1384.48 C 1404.67 1405.21 1330.69 1414.65 1257.5 1412.56 C 1240.33 1412.02 1223.18 1411.19 1206.04 1410.07 C 1183.34 1408.65 1082.98 1398.85 1071.62 1418.18 C 1070.74 1419.68 1070.81 1420.76 1071.63 1422.34 C 1081.61 1441.64 1239.32 1489 1266.31 1496.7 C 1301.94 1506.85 1338.53 1514.61 1373.77 1525.93 C 1239.46 1557.61 1098.82 1549.35 969.148 1502.16 C 896.848 1475.36 813.001 1428.65 746.411 1388.28 L 743.955 1386.79 C 750.368 1392.95 756.904 1399.18 763.034 1405.61 C 790.594 1434.55 822.639 1460.01 854.345 1484.23 C 867.364 1494.16 880.631 1503.77 894.134 1513.04 C 902.179 1518.54 929.107 1536.16 934.021 1541.55 C 924.143 1539.77 902.802 1525.57 893.339 1519.57 C 816.582 1470.9 729.669 1408.11 681.792 1329.21 C 694.488 1334.39 721.581 1352.69 734.114 1360.61 C 756.069 1374.26 778.271 1387.51 800.708 1400.36 C 965.653 1492.96 1114.82 1548.42 1307.32 1520.38 C 1288.59 1514.48 1266.81 1509.33 1247.63 1503.72 C 1208.16 1491.99 1169.05 1479.07 1130.36 1464.98 C 1111.79 1458.07 1038.85 1433.77 1060.13 1409.29 C 1086.25 1379.23 1180.76 1395.17 1217.56 1396.02 C 1242.22 1396.59 1260.46 1398.35 1282.04 1398.03 C 1319.85 1397.6 1357.53 1393.37 1394.5 1385.41 C 1347.82 1375.58 1301.47 1364.2 1255.55 1351.28 C 1093.1 1306.38 943.57 1246.66 808.56 1143.52 C 790.774 1129.94 747.054 1096.92 734.571 1080.93 C 761.198 1099.65 783.89 1117.15 811.84 1135.52 C 934.099 1217.09 1068.21 1279.29 1209.44 1319.95 C 1243.59 1250.21 1339.56 1261.27 1402.44 1261.89 C 1427.5 1262.1 1452.56 1260.72 1477.45 1257.77 C 1544.45 1249.41 1609.82 1231.06 1671.38 1203.33 C 1612.07 1195.18 1551.38 1187.96 1492.49 1178.12 C 1393.57 1162.57 1296.65 1136.21 1203.47 1099.53 C 1189.26 1093.78 1151.28 1079.56 1139.94 1072.47 C 1157.8 1077.24 1176.77 1083.89 1194.55 1089.47 C 1215.01 1095.73 1235.54 1101.76 1256.13 1107.55 C 1322.3 1126.32 1389.21 1142.4 1456.69 1155.73 C 1510.31 1079.3 1562.32 1079.82 1641.69 1052.51 C 1683.64 1038.07 1778.62 992.095 1812.29 963.852 C 1748.48 968.877 1685.96 974.056 1621.84 974.709 C 1474.32 975.678 1327.41 955.662 1185.53 915.264 C 1147.5 903.954 1109.79 891.584 1072.45 878.168 C 1049.42 869.654 1026 859.409 1003.12 851.249 L 1003.36 849.055 C 1154 903.9 1290.35 931.592 1448.34 950.018 z"/>
<path transform="translate(0,0)" fill="rgb(77,78,78)" d="M 185.084 613.252 C 185.904 610.808 187.189 600.428 187.669 597.071 C 193.904 553.433 219.923 513.69 264.959 503.013 C 316.653 490.759 344.306 530.034 383.493 554.707 C 386.607 557.01 390.088 559.762 393.349 561.744 C 338.805 590.348 305.789 622.183 278.135 678.598 C 272.083 690.946 267.91 706.54 262.869 716.967 C 259.838 713.557 257.327 710.077 254.596 706.434 C 225.368 677.417 206.221 661.68 196.952 620.946 C 193.898 617.241 192.152 622.667 186.125 621.662 C 184.305 618.782 184.866 616.711 185.084 613.252 z"/>
<path transform="translate(0,0)" fill="rgb(204,203,203)" d="M 383.493 554.707 C 386.607 557.01 390.088 559.762 393.349 561.744 C 338.805 590.348 305.789 622.183 278.135 678.598 C 272.083 690.946 267.91 706.54 262.869 716.967 C 259.838 713.557 257.327 710.077 254.596 706.434 C 225.368 677.417 206.221 661.68 196.952 620.946 C 193.898 617.241 192.152 622.667 186.125 621.662 C 184.305 618.782 184.866 616.711 185.084 613.252 C 204.936 608.364 224.583 608.361 241.719 621.54 C 261.019 636.382 262.883 661.608 265.565 683.944 C 292.09 622.706 321.885 583.304 383.493 554.707 z"/>
<path transform="translate(0,0)" fill="rgb(77,78,78)" d="M 196.952 620.946 C 248.798 622.302 257.476 658.625 254.913 702.356 C 254.836 703.717 254.73 705.077 254.596 706.434 C 225.368 677.417 206.221 661.68 196.952 620.946 z"/>
<path transform="translate(0,0)" fill="rgb(204,203,203)" d="M 558.993 561.347 C 568.433 570.91 567.11 573.133 572.651 583.725 C 570.005 627.274 500.946 631.398 467.891 635.752 C 444.239 638.867 419.083 640.628 395.307 642.318 C 431.989 629.91 526.399 620.54 550.929 596.519 C 560.54 587.108 559.081 573.654 558.993 561.347 z"/>
<path transform="translate(0,0)" fill="rgb(204,203,203)" d="M 458.795 563.161 C 459.974 563.642 471.496 556.511 473.748 555.246 C 483.704 549.653 489.181 546.274 500.812 545.858 C 459.539 588.39 406.859 596.873 355.32 616.989 C 372.386 605.289 398.746 594.47 417.966 584.956 C 431.886 578.065 445.524 569.699 458.795 563.161 z"/>
<path transform="translate(0,0)" fill="rgb(131,130,132)" d="M 1003.12 851.249 C 999.743 850.046 994.863 848.66 993.063 845.834 C 997.246 845.874 999.42 847.297 1003.36 849.055 L 1003.12 851.249 z"/>
<path transform="translate(0,0)" fill="rgb(204,203,203)" d="M 369.992 671.414 C 380.849 669.916 410.297 671.429 420.49 672.535 C 508.284 682.065 593.281 724.619 665.159 774.041 C 674.522 780.478 700.378 797.894 707.038 806.17 C 688.558 794.926 669.825 784.103 650.853 773.71 C 613.353 753.182 574.632 734.968 534.907 719.169 C 464.214 691.259 366.078 666.201 293.352 697.863 C 315.381 680.594 342.471 673.826 369.992 671.414 z"/>
<path transform="translate(0,0)" fill="rgb(204,203,203)" d="M 386.035 855.835 C 388.041 858.677 399.877 884.945 402.412 890.133 C 413.316 912.773 425.536 934.755 439.011 955.966 C 473.075 1009.67 511.434 1060.53 553.712 1108.05 C 567.424 1123.57 584.547 1138.75 597.112 1153.34 L 597.862 1154.22 C 588.877 1150.38 562.074 1126.73 553.751 1119.45 C 484.784 1059.87 431.787 984.012 399.569 898.757 C 395.426 887.64 386.75 866.564 386.035 855.835 z"/>
</svg>