<svg version="1.1" xmlns="http://www.w3.org/2000/svg" style="display: block;" viewBox="0 0 2048 2048" width="1024" height="1024" preserveAspectRatio="none">
<defs>
	<linearGradient id="Gradient1" gradientUnits="userSpaceOnUse" x1="459.531" y1="1183.15" x2="456.31" y2="1166">
		<stop class="stop0" offset="0" stop-opacity="1" stop-color="rgb(66,55,46)"/>
		<stop class="stop1" offset="1" stop-opacity="1" stop-color="rgb(97,83,79)"/>
	</linearGradient>
	<linearGradient id="Gradient2" gradientUnits="userSpaceOnUse" x1="271.368" y1="712.461" x2="265.773" y2="659">
		<stop class="stop0" offset="0" stop-opacity="1" stop-color="rgb(79,79,80)"/>
		<stop class="stop1" offset="1" stop-opacity="1" stop-color="rgb(105,104,104)"/>
	</linearGradient>
</defs>
<path transform="translate(0,0)" fill="rgb(0,0,0)" d="M 1144.17 372.42 C 1170.29 370.087 1217.99 371.616 1238.12 391.088 C 1247.01 399.689 1245.52 415.003 1245.09 426.448 C 1256.26 430.916 1267.83 435.922 1267.68 449.814 C 1267.49 466.604 1264.24 483.023 1262.21 499.671 L 1253.16 579.983 C 1260.58 586.399 1267.64 592.373 1268.57 602.783 C 1270.97 629.853 1267.75 657.415 1266.71 684.515 C 1266.2 697.654 1265.37 710.764 1263.17 723.699 C 1261.43 733.965 1256.22 736.183 1248.21 741.534 C 1250.85 764.327 1249.23 771.161 1249.44 792.949 C 1252.01 796.059 1259.31 804.428 1260.63 807.888 C 1268.38 828.237 1269.19 845.142 1278.4 865.842 C 1281.78 866.815 1290.65 869.538 1293.4 872.348 C 1320.82 900.346 1350.84 930.039 1376.15 959.627 C 1380.48 964.685 1381.95 980.25 1382.57 986.222 C 1394.71 997.603 1442.73 1036.85 1454.64 1042.68 C 1489.84 1059.92 1542.01 1074.34 1580.77 1078.91 C 1643.93 1086.35 1736.09 1086.92 1784.69 1133.24 C 1821.5 1168.31 1842.34 1232.56 1844.19 1282.78 C 1852.34 1286.98 1863.51 1293.89 1868.64 1301.51 C 1870.65 1304.5 1873.04 1313.21 1873.15 1316.57 C 1873.92 1340.83 1880.58 1414.21 1876.58 1434.08 C 1865.73 1443.46 1839.08 1457.87 1824.21 1460.4 C 1820.45 1461.04 1812.58 1460.92 1808.52 1460.86 L 1803.87 1467.89 C 1779.82 1476.88 1745.03 1489.74 1719.59 1492.36 C 1715.18 1492.81 1701.04 1490.59 1695.82 1489.81 C 1694.28 1493.58 1692.7 1497.34 1691.11 1501.08 C 1678.4 1506.84 1608.46 1522.36 1596.62 1520.25 C 1590.14 1516.06 1587.07 1506.13 1583.93 1498.73 C 1572.81 1507.88 1562.76 1519.74 1551.51 1529.69 C 1536.67 1532.95 1486.88 1535.91 1471.1 1536.48 C 1471.1 1537.41 1471.1 1545.65 1470.81 1546.42 C 1469.81 1555.74 1419.97 1583.47 1412.39 1582.51 C 1378.96 1578.29 1394.33 1588.92 1385.33 1592.61 C 1362.22 1602.09 1325.73 1614.07 1300.3 1619.16 C 1295.64 1620.09 1282.38 1616.55 1277 1615.22 C 1276.33 1617.46 1274.45 1624.06 1272.79 1624.96 C 1253.19 1635.58 1183.79 1647.79 1165.02 1649.24 C 1159.29 1644.06 1156.96 1640.24 1152.79 1633.9 C 1134.95 1649.84 1132.82 1657.71 1107.49 1659.63 C 1085.61 1661.29 1063.4 1665.37 1041.15 1664.99 C 1037.08 1659.37 1035.05 1654.64 1032.07 1648.4 C 1011.98 1659.75 999.975 1673.21 975.414 1673.11 C 955.409 1673.02 933.801 1676.42 913.815 1674.1 C 911.336 1670.15 908.048 1662.89 905.883 1658.42 L 885.645 1666.91 C 882.325 1668.39 869.881 1674.15 867.344 1674.3 C 850.555 1675.27 801.491 1671.21 787.611 1666.65 C 785.518 1661.91 783.102 1654.93 781.152 1649.89 C 773.37 1648.8 751.454 1659.63 742.933 1658.93 C 723.633 1657.36 701.758 1647.24 683.985 1639.61 C 682.086 1633.2 680.956 1626.32 679.702 1619.72 C 670.322 1621.59 661.782 1624.08 652.604 1626.67 C 637.867 1621.29 606.898 1605.96 596.58 1595.09 C 593.265 1584.55 591.417 1566.9 587.846 1553.94 C 576.778 1546.55 565.322 1539.89 553.886 1533.08 C 532.752 1537.88 511.662 1542.87 490.621 1548.05 C 478.836 1550.94 448.069 1559.34 436.917 1558.83 C 422.958 1558.19 394.38 1549.33 381.826 1543.87 C 380.391 1539.72 378.986 1535.56 377.611 1531.38 C 372.443 1532.51 357.853 1535.83 353.654 1535.33 C 341.228 1533.82 303.825 1519.62 294.07 1513.71 L 291.209 1504.43 C 287.817 1504.39 282.245 1505.25 278.708 1505.68 C 268.264 1501.13 254.351 1491.57 247.172 1482.48 C 245.135 1479.9 244.425 1476.78 244.168 1473.53 C 242.578 1453.48 242.836 1432.57 242.471 1412.44 C 241.972 1388.88 241.775 1365.31 241.879 1341.75 C 241.937 1311.02 237.524 1295.98 266.184 1276.61 C 264.96 1273.08 263.63 1267.7 262.994 1264.02 C 249.269 1184.7 266.195 1103.84 285.549 1026.99 C 291.196 1004.57 281.704 1001.92 297.994 977.447 C 297.607 933.352 298.995 889.465 295.831 845.492 C 295.014 834.128 294.518 818.752 292.771 807.753 C 279.036 804.941 252.968 801.229 242.548 791.109 C 224.721 773.797 187.738 667.886 208.135 649.991 C 216.471 647.061 249.744 652.661 261.223 653.976 C 262.47 636.27 262.712 632.446 278.581 623.812 C 271.595 586.789 270.029 543.642 264.406 505.84 C 263.112 497.136 264.178 480.565 271.293 474.269 C 297.792 450.818 341.004 451.796 374.374 446.502 C 429.775 439.539 485.935 437.046 541.432 434.281 C 546.643 430.475 551.848 427.136 557.705 424.397 C 603.342 403.055 731.596 390.58 778.118 408.733 C 787.521 412.403 793.66 417.371 797.623 426.69 C 852.041 410.184 922.911 413.664 979.515 408.786 C 993.947 407.542 1008.78 408.196 1023.52 406.83 C 1047.75 384.475 1111.25 374.368 1144.17 372.42 z"/>
<path transform="translate(0,0)" fill="rgb(70,61,54)" d="M 891.512 1363 C 892.608 1360.68 895.323 1355.87 896.694 1353.76 C 910.681 1332.17 936.826 1300.77 957.324 1284.65 C 1007.21 1245.41 1069.91 1209.31 1132.04 1194.28 C 1139.98 1192.36 1154.29 1189.97 1162.47 1190.08 C 1213.37 1190.74 1294.8 1199.7 1338.89 1225.29 C 1377.86 1247.9 1401 1310.56 1410.7 1352.18 C 1412.27 1359.42 1413.72 1365.35 1414.3 1372.75 C 1416.38 1379.99 1416.76 1400.09 1413.62 1406.9 C 1409.45 1415.98 1384.14 1425.57 1374.37 1429.08 C 1318.77 1449.07 1261.43 1462.01 1203.47 1472.64 C 1163.12 1480.04 1123.33 1490.05 1082.44 1496.9 C 1035.59 1504.48 988.402 1509.78 941.039 1512.77 C 925.218 1513.9 892.306 1516.59 876.928 1511.49 C 873.484 1510.35 870.438 1504.19 869.728 1500.57 C 861.274 1457.49 870.274 1400.4 891.512 1363 z"/>
<path transform="translate(0,0)" fill="rgb(119,104,96)" d="M 891.512 1363 C 892.608 1360.68 895.323 1355.87 896.694 1353.76 C 910.681 1332.17 936.826 1300.77 957.324 1284.65 C 1007.21 1245.41 1069.91 1209.31 1132.04 1194.28 C 1139.98 1192.36 1154.29 1189.97 1162.47 1190.08 C 1213.37 1190.74 1294.8 1199.7 1338.89 1225.29 C 1377.86 1247.9 1401 1310.56 1410.7 1352.18 L 1404.72 1351.47 C 1387.7 1312.82 1365.41 1250.17 1324.65 1231.16 C 1323.67 1235.7 1322.04 1243.85 1317.65 1246.28 C 1298.98 1256.62 1267.61 1253.13 1249.14 1255.15 C 1224.11 1257.88 1208.77 1261.65 1183.11 1258.89 C 1185.38 1251.61 1187.74 1244.3 1189.66 1236.93 C 1162.62 1254.61 1146.8 1270.35 1127.26 1295.92 C 1110.43 1289.79 1090.48 1283.19 1074.22 1276.39 C 1080.15 1273.38 1108.61 1281.55 1118.96 1282.54 C 1129.58 1277.65 1143.12 1265.46 1149.3 1255.92 C 1103.61 1232.6 1160.87 1213.16 1179.85 1202.44 C 1147.38 1198.24 1144.26 1205.41 1112.95 1213.84 C 1037.55 1234.12 963.336 1280.62 912.107 1339.34 C 908.561 1343.41 895.609 1362.38 893.247 1363.46 L 891.512 1363 z"/>
<path transform="translate(0,0)" fill="rgb(0,0,0)" d="M 1127.26 1295.92 C 1146.8 1270.35 1162.62 1254.61 1189.66 1236.93 C 1187.74 1244.3 1185.38 1251.61 1183.11 1258.89 C 1179.16 1283.39 1175.34 1303.25 1168.67 1327.28 C 1176.38 1338.45 1183.13 1352.75 1189.84 1362.19 C 1200.36 1381.47 1203.71 1399.21 1211.45 1413.84 L 1209.43 1414.39 C 1185.26 1398.94 1160.46 1374.97 1137.1 1360.19 C 1125.96 1371.4 1118.39 1379.24 1108.39 1391.39 C 1095.32 1407.27 1076.82 1435.54 1061.12 1447.62 L 1064.55 1433.81 C 1069.96 1411.02 1076.76 1388.57 1084.89 1366.61 C 1092.47 1353.45 1099.31 1339.34 1107.21 1325.62 C 1094.43 1309.83 1080.8 1295.81 1067.75 1280.41 C 1065.78 1278.07 1065.75 1277.57 1066.15 1275.35 C 1068.97 1274.28 1071.19 1275.46 1074.22 1276.39 C 1090.48 1283.19 1110.43 1289.79 1127.26 1295.92 z"/>
<path transform="translate(0,0)" fill="rgb(95,93,92)" d="M 1171.73 1260.85 L 1172.24 1261.34 C 1174.28 1266.13 1161.06 1318.53 1158.77 1327.96 C 1160.9 1332.86 1166.77 1342.03 1169.7 1346.93 C 1179.01 1362.52 1187.11 1375 1194.07 1391.97 C 1182.79 1384.5 1172.16 1375.54 1161.65 1367.39 C 1156.45 1363.73 1144 1350.8 1137.38 1352.02 C 1124.95 1354.29 1106.79 1379.01 1099.22 1388.48 C 1092.54 1396.56 1087.25 1404.52 1080.09 1412.86 C 1085.3 1394.8 1090.14 1377.84 1098.65 1360.96 C 1104.54 1349.27 1112.66 1337.69 1118.12 1326.17 L 1118.6 1325.13 C 1112.18 1315.24 1100.51 1302.47 1092.6 1293.44 C 1102.93 1296.61 1118.99 1304.35 1127.58 1305.6 C 1136.58 1301.84 1159.9 1270.13 1171.73 1260.85 z"/>
<path transform="translate(0,0)" fill="rgb(119,104,96)" d="M 1189.84 1362.19 L 1192.24 1357.74 C 1200.56 1362.41 1214.97 1406.4 1211.45 1413.84 C 1203.71 1399.21 1200.36 1381.47 1189.84 1362.19 z"/>
<path transform="translate(0,0)" fill="rgb(119,104,96)" d="M 1064.55 1433.81 C 1060.63 1426.1 1068.45 1404.28 1070.35 1395.45 C 1071.4 1390.58 1081.72 1367.9 1084.89 1366.61 C 1076.76 1388.57 1069.96 1411.02 1064.55 1433.81 z"/>
<path transform="translate(0,0)" fill="rgb(95,93,92)" d="M 1404.72 1351.47 L 1410.7 1352.18 C 1412.27 1359.42 1413.72 1365.35 1414.3 1372.75 C 1407.19 1370.48 1403.3 1357.81 1404.72 1351.47 z"/>
<path transform="translate(0,0)" fill="rgb(0,0,0)" d="M 905.62 1383.39 L 907.108 1383.97 C 909.472 1388.7 895.068 1418.15 893.176 1426.65 C 891.312 1435.03 888.984 1449.41 886.539 1456.85 C 884.692 1455.55 883.26 1455.09 883.104 1452.56 C 881.954 1434.04 895.485 1397.19 905.62 1383.39 z"/>
<path transform="translate(0,0)" fill="rgb(0,0,0)" d="M 1339.17 1307.81 C 1352.99 1315.39 1377.63 1359.84 1376.95 1374.83 C 1373.76 1372.16 1339.51 1310.73 1339.17 1307.81 z"/>
<path transform="translate(0,0)" fill="rgb(0,0,0)" d="M 913.51 1408.48 C 914.025 1408.92 914.9 1410.09 915.368 1410.66 C 915.652 1417.54 913.859 1420.27 910.284 1426.22 L 909.194 1424.88 C 907.472 1417.37 909.649 1415.21 913.51 1408.48 z"/>
<path transform="translate(0,0)" fill="rgb(0,0,0)" d="M 1380.04 1336.42 C 1386.41 1339.21 1387.73 1343.16 1387.39 1349.7 L 1384.4 1348.57 C 1380.99 1344.63 1380.07 1341.61 1380.04 1336.42 z"/>
<path transform="translate(0,0)" fill="rgb(70,61,54)" d="M 749.459 1122.88 C 791.032 1095.62 873.454 1062.09 923.354 1068.85 C 930.117 1069.51 944.277 1084.29 949.521 1089.69 C 976.515 1117.5 998.941 1133.29 1032.4 1152.7 L 1020.58 1157.47 C 1006.38 1162.82 958.993 1187.34 953.16 1199.61 C 969.188 1191.85 1035.94 1153.49 1053.17 1159.86 C 1075.9 1168.27 1100.69 1176.42 1125.01 1182.96 C 1118.08 1185 1111.12 1186.93 1104.14 1188.77 C 1012.36 1223.57 918.653 1277.15 874.363 1370.24 C 853.969 1413.11 848.269 1463.73 858.194 1510.36 C 767.938 1511.52 707.645 1494.57 630.687 1447.68 C 617.896 1439.89 591.895 1426.44 581.203 1418.35 C 579.9 1369.69 592.09 1322.52 613.444 1279 C 618.193 1281.35 623.957 1284.69 629.008 1285.54 L 630.568 1284.83 L 631.756 1281.61 C 629.955 1277.98 621.399 1275.37 616.924 1272.12 L 625.648 1256.09 C 626.451 1254.9 627.559 1253.54 628.447 1252.38 C 637.729 1250.54 661.736 1272.27 675.341 1262.82 C 689.539 1252.58 702.293 1238.41 712.545 1224.18 C 739.94 1186.16 757.751 1182.13 729.407 1138.95 C 728.657 1137.99 729.046 1138.65 728.675 1136.79 C 732.551 1132.73 739.25 1129.38 744.324 1126.86 C 749.332 1134.68 751.349 1139.1 758.93 1144.42 L 760.23 1144.17 C 760.633 1137.08 753.53 1128.6 749.459 1122.88 z"/>
<path transform="translate(0,0)" fill="rgb(119,104,96)" d="M 953.16 1199.61 C 969.188 1191.85 1035.94 1153.49 1053.17 1159.86 C 1075.9 1168.27 1100.69 1176.42 1125.01 1182.96 C 1118.08 1185 1111.12 1186.93 1104.14 1188.77 C 1080.68 1184.69 1067.08 1174.37 1046.2 1171.64 C 1030.51 1169.59 958.933 1206.06 950.024 1204.38 L 949.768 1202.58 C 951.513 1200.26 950.659 1200.91 953.16 1199.61 z"/>
<path transform="translate(0,0)" fill="rgb(119,104,96)" d="M 729.407 1138.95 C 731 1138.52 732.064 1137.83 732.942 1138.65 C 740.719 1145.91 748.208 1157.89 750.585 1167.81 C 752.998 1178.49 742.496 1196.23 735.603 1204.32 C 716.849 1226.32 695.144 1262.55 667.322 1272.88 C 658.845 1276.03 632.41 1262.37 625.648 1256.09 C 626.451 1254.9 627.559 1253.54 628.447 1252.38 C 637.729 1250.54 661.736 1272.27 675.341 1262.82 C 689.539 1252.58 702.293 1238.41 712.545 1224.18 C 739.94 1186.16 757.751 1182.13 729.407 1138.95 z"/>
<path transform="translate(0,0)" fill="rgb(119,104,96)" d="M 923.354 1068.85 C 930.117 1069.51 944.277 1084.29 949.521 1089.69 C 976.515 1117.5 998.941 1133.29 1032.4 1152.7 L 1020.58 1157.47 C 1011.85 1148.43 998.964 1141.32 989.652 1133.84 C 970.284 1118.28 928.01 1088.07 912.796 1069.96 C 914.088 1068.85 920.997 1068.97 923.354 1068.85 z"/>
<path transform="translate(0,0)" fill="rgb(0,0,0)" d="M 798.802 1300.17 C 799.187 1304.85 798.432 1312.13 799.079 1315.35 C 801.429 1314.95 800.579 1314.8 802.696 1315.42 C 801.47 1320.28 795.3 1324.99 794.007 1328.79 C 790.354 1339.53 786.895 1351.46 783.584 1362.31 C 791.971 1356.69 798.366 1351.04 807.47 1345.31 L 810.781 1344.54 C 811.101 1345.09 810.988 1345.79 811.049 1346.41 C 807.113 1351.19 788.047 1366.21 781.922 1371.3 C 777.289 1389.96 773.786 1408.71 768.899 1427.75 C 768.024 1410.5 770.851 1396.49 773.711 1379.61 C 766.366 1383.85 758.811 1390.53 751.669 1395.32 C 745.213 1399.65 739.087 1402.37 732.032 1405.63 C 746.469 1393.98 762.987 1380.13 776.443 1367.39 C 778.824 1357.08 781.87 1348.17 783.87 1337.58 C 775.581 1345.85 752.489 1377.94 747.42 1380.33 C 746.109 1368.94 775.145 1338.15 783.892 1329.56 C 793.955 1319.67 792.712 1312.22 798.802 1300.17 z"/>
<path transform="translate(0,0)" fill="rgb(0,0,0)" d="M 763.646 1192.48 C 764.259 1192.7 765.521 1193.59 766.137 1193.98 L 766.499 1196.39 C 763.901 1205.82 732.589 1240.72 723.628 1248.74 L 722.995 1248.71 C 720.042 1246.68 720.961 1243.25 722.929 1241.01 C 736.958 1225.05 750.531 1209.22 763.646 1192.48 z"/>
<path transform="translate(0,0)" fill="rgb(0,0,0)" d="M 974.328 1166.05 C 977.095 1165.77 977.246 1165.47 979.697 1166.59 L 980.171 1168.29 C 977.792 1171.19 932.32 1188.88 923.947 1192.59 C 921.424 1193.64 921.59 1193.61 918.864 1193.69 L 918.707 1192.37 C 928.654 1181.62 960.312 1170.2 974.328 1166.05 z"/>
<path transform="translate(0,0)" fill="rgb(0,0,0)" d="M 713.429 1250.66 C 715.571 1250.93 715.507 1251 717.586 1251.66 L 718.263 1253.89 C 716.056 1260.87 701.984 1273.62 696.211 1279.37 C 694.605 1279.96 695.281 1279.7 693.202 1279.32 L 692.283 1277.2 C 693.966 1270.69 708.201 1255.97 713.429 1250.66 z"/>
<path transform="translate(0,0)" fill="rgb(0,0,0)" d="M 641.743 1286.11 C 648.309 1287.37 658.7 1294.52 664.697 1293.16 C 667.992 1292.41 672.943 1290.14 677.335 1289.18 L 679.052 1290.54 L 679.463 1294.16 C 679.217 1294.29 678.972 1294.43 678.726 1294.56 L 677.483 1295.2 C 667.485 1300.42 638.978 1299.7 641.743 1286.11 z"/>
<path transform="translate(0,0)" fill="rgb(0,0,0)" d="M 765.488 1150.45 C 774.029 1156.1 775.439 1172.59 771.479 1181.69 C 768.754 1180.19 767.934 1179.72 767.397 1176.51 C 766.099 1168.76 764.756 1161.01 763.597 1153.23 C 764.228 1152.3 764.858 1151.38 765.488 1150.45 z"/>
<path transform="translate(0,0)" fill="rgb(0,0,0)" d="M 865.99 1236.03 L 866.564 1237.22 C 865.076 1241.65 844.066 1259.55 839.595 1263.1 C 834.253 1255.6 859.859 1238.9 865.99 1236.03 z"/>
<path transform="translate(0,0)" fill="rgb(95,93,92)" d="M 807.47 1345.31 C 810.692 1338.4 824.192 1329.79 831.23 1327.21 C 832.556 1326.74 833.899 1326.32 835.257 1325.95 C 829.021 1332.24 819.251 1341.58 810.781 1344.54 L 807.47 1345.31 z"/>
<path transform="translate(0,0)" fill="rgb(70,61,54)" d="M 1386.4 1234.93 C 1415.76 1174.16 1494.71 1125.53 1557.28 1104.45 C 1563.68 1102.3 1580.36 1097.6 1587.33 1097.9 C 1639.1 1100.17 1697.26 1105.13 1745.15 1126.03 C 1787.8 1146.25 1807.28 1192.13 1820.58 1234.01 C 1824.37 1244.86 1831.27 1285.58 1826.53 1294.8 C 1815.14 1316.93 1656.29 1353.86 1625.59 1360.17 C 1590.72 1367.34 1462.02 1396.16 1436.47 1380.01 C 1429.26 1375.45 1423.82 1335.83 1420.61 1325.7 C 1411.18 1295.87 1398.4 1269.57 1381.59 1243.17 C 1382.53 1241.55 1385.44 1236.24 1386.4 1234.93 z"/>
<path transform="translate(0,0)" fill="rgb(0,0,0)" d="M 1584.92 1184.89 C 1591.07 1184.73 1604.87 1166.78 1610.2 1160.98 C 1619.82 1150.62 1629.78 1140.59 1640.07 1130.9 C 1639.38 1143.13 1637.97 1154.89 1636.61 1167.05 C 1635.24 1181.8 1633.59 1198.13 1632.64 1212.87 C 1637.07 1218.15 1644.98 1227.78 1648.57 1233.08 C 1655.87 1243.86 1676.39 1280.77 1677.41 1292.12 L 1676.79 1293.73 C 1674.92 1293.89 1672.6 1294.04 1670.9 1293.18 C 1648.19 1281.69 1625.03 1269.19 1603.17 1256.41 C 1596.43 1263.23 1574.01 1290.52 1566.05 1290.64 L 1564.78 1292.18 C 1558.48 1299.92 1544.14 1323.32 1537.29 1326.98 L 1535.58 1326.48 L 1534.61 1322.78 C 1533.33 1323.33 1533.1 1323.24 1531.69 1323.45 C 1530.34 1319.87 1531.82 1313.72 1532.15 1309.65 C 1534.42 1281.16 1543.56 1255 1552.39 1228.1 C 1554.15 1222.77 1551.57 1214.49 1554.25 1208.9 C 1543.95 1195.8 1534.36 1191.69 1523.79 1173.69 C 1540.94 1174.46 1568.14 1180.38 1584.92 1184.89 z"/>
<path transform="translate(0,0)" fill="rgb(119,104,96)" d="M 1602.55 1245.63 C 1621.64 1257.38 1660.12 1280.61 1676.79 1293.73 C 1674.92 1293.89 1672.6 1294.04 1670.9 1293.18 C 1648.19 1281.69 1625.03 1269.19 1603.17 1256.41 C 1596.43 1263.23 1574.01 1290.52 1566.05 1290.64 C 1572.22 1281.48 1594.95 1253.64 1602.55 1245.63 z"/>
<path transform="translate(0,0)" fill="rgb(119,104,96)" d="M 1534.61 1322.78 C 1533.33 1323.33 1533.1 1323.24 1531.69 1323.45 C 1530.34 1319.87 1531.82 1313.72 1532.15 1309.65 C 1534.42 1281.16 1543.56 1255 1552.39 1228.1 C 1554.15 1222.77 1551.57 1214.49 1554.25 1208.9 C 1557.56 1212.29 1560.35 1214.96 1563.14 1218.82 C 1548.57 1251.53 1541.27 1287.81 1534.61 1322.78 z"/>
<path transform="translate(0,0)" fill="rgb(95,93,92)" d="M 1628.88 1154.98 C 1629.96 1157.97 1622.9 1206.82 1622.31 1215.68 C 1626.82 1222.95 1632.38 1228.88 1637.29 1235.67 C 1645.19 1246.58 1653.34 1259.17 1659.49 1271.15 C 1641.18 1260.52 1619.82 1245.07 1601.04 1233.53 C 1593.04 1239.89 1571.76 1268 1564.25 1277.49 C 1559.23 1283.93 1554.04 1291.42 1549.2 1298.09 C 1553.41 1269.93 1563.41 1243.99 1574.27 1217.98 C 1568.94 1209.49 1552.22 1193.42 1544.33 1185.39 C 1560.6 1188.9 1574.26 1192.41 1590.07 1197.58 C 1599.58 1189.09 1617.14 1166.72 1628.88 1154.98 z"/>
<path transform="translate(0,0)" fill="rgb(119,104,96)" d="M 1386.4 1234.93 C 1415.76 1174.16 1494.71 1125.53 1557.28 1104.45 C 1563.68 1102.3 1580.36 1097.6 1587.33 1097.9 C 1639.1 1100.17 1697.26 1105.13 1745.15 1126.03 C 1787.8 1146.25 1807.28 1192.13 1820.58 1234.01 C 1811.01 1234.8 1802.25 1212.15 1798 1204.1 C 1793.47 1195.47 1788.51 1187.07 1783.15 1178.93 C 1775.92 1168.02 1770.42 1161.21 1760.71 1152.69 C 1741.66 1165.41 1719.28 1162.96 1697.51 1164.42 C 1677.07 1165.8 1657.11 1167.03 1636.61 1167.05 C 1637.97 1154.89 1639.38 1143.13 1640.07 1130.9 C 1629.78 1140.59 1619.82 1150.62 1610.2 1160.98 C 1604.87 1166.78 1591.07 1184.73 1584.92 1184.89 C 1585.71 1176.84 1598.6 1167.55 1603.98 1159.19 C 1571.24 1131.91 1635.62 1115.1 1652.57 1110.18 C 1640.87 1108.31 1609.43 1103.5 1598.7 1105.12 C 1550.86 1112.35 1503.54 1134.91 1464.46 1162.99 C 1436.47 1183.1 1414.7 1208.18 1391.27 1233.13 C 1389.61 1234.89 1388.85 1235.62 1386.4 1234.93 z"/>
<path transform="translate(0,0)" fill="rgb(0,0,0)" d="M 1772.87 1209.99 C 1783.1 1212.88 1800.77 1252.58 1798.19 1263.33 C 1796.59 1261.99 1789.61 1248.11 1788.66 1245.55 C 1785.89 1238.09 1772.41 1216.73 1772.87 1209.99 z"/>
<path transform="translate(0,0)" fill="rgb(0,0,0)" d="M 1795.51 1223.45 C 1802.81 1225.1 1806.2 1234.35 1806.28 1241.11 C 1799.56 1238.95 1794.27 1230.04 1795.51 1223.45 z"/>
<path transform="translate(0,0)" fill="rgb(95,93,92)" d="M 489.707 1415.72 L 488.471 1415 C 445.901 1390.56 274.111 1353.17 261.527 1310.81 C 260.583 1307.63 260.827 1304.38 262.447 1301.46 C 264.125 1298.44 267.24 1295.24 270.49 1294.03 C 274.343 1296.15 279.885 1310.76 284.599 1315.26 C 331.515 1360.12 441.59 1375.09 503.973 1402.94 C 531 1415.01 558.991 1426.85 585.031 1440.9 C 632.497 1466.51 677.034 1497.2 729.541 1512.18 C 783.674 1527.63 853.81 1530.76 909.999 1529.99 C 949.835 1529.38 989.606 1526.57 1029.13 1521.58 C 1103.92 1512.17 1380.57 1464.34 1423.03 1419.85 C 1425.3 1417.47 1426.75 1414.64 1428.21 1411.72 C 1434.38 1416 1437.26 1418.12 1442.75 1423.19 C 1413.07 1466.34 1236.05 1498.4 1234.48 1504.56 C 1237.66 1507.8 1243.32 1506.82 1247.52 1505.86 C 1269.9 1500.76 1295.05 1496.9 1316.87 1489.76 C 1318.61 1489.05 1337.92 1484.08 1341.62 1483 C 1358.92 1478.07 1375.98 1472.33 1392.75 1465.8 C 1398.14 1490.77 1396.22 1514.3 1399.98 1536.42 C 1385.15 1538.26 1382.09 1541.68 1380.99 1557.34 C 1380.39 1565.78 1379.86 1573.85 1377.21 1581.96 C 1361.5 1586.84 1342.27 1592.26 1327.05 1597.64 C 1323.65 1598.47 1320.45 1599.16 1317.17 1600.38 C 1312.86 1601.64 1307.53 1602.94 1303.61 1604.92 C 1294.06 1599.94 1296.46 1562.46 1276.41 1571.75 C 1261.26 1578.78 1273.78 1609.12 1256.14 1616.09 C 1227.41 1621.53 1199.99 1628.52 1170.36 1633.6 C 1159.45 1611.59 1158.27 1587.71 1127.97 1603.76 C 1124.94 1616.28 1123.05 1632.19 1120.08 1643.2 C 1106.3 1645.84 1063.65 1650.8 1049.3 1651.36 C 1046.37 1644.87 1036.98 1614.64 1031.78 1614.01 C 984.076 1608.25 992.288 1630.54 986.521 1657.94 C 968.147 1658.99 940.519 1659.89 921.972 1659.71 C 918.745 1650.52 913.704 1624.65 904.792 1622.17 C 860.462 1609.81 867.466 1633.34 862.969 1659.86 C 852.266 1659.4 841.581 1658.58 830.934 1657.39 L 822.142 1655.97 L 814.407 1655.18 C 809.031 1654.36 803.529 1654.14 798.091 1653.79 C 794.884 1645.12 793.197 1636.52 791.171 1627.54 C 787.918 1613.13 780.135 1611.78 767.493 1609.07 C 764.06 1607.96 757.046 1606.82 753.257 1606.09 C 746.048 1612.72 745.556 1631.39 740.314 1642.94 C 738.366 1639.09 739.271 1633.45 739.405 1628.88 C 740.151 1603.45 740.709 1573.27 737.066 1548.18 C 732.287 1544.97 725.211 1541.85 723.829 1537.47 C 702.433 1528.82 685.709 1525.74 663.485 1513.67 C 633.173 1497.35 603.556 1479.15 573.935 1461.61 C 565.008 1456.33 520.066 1433.06 518.077 1426.69 L 517.925 1426.66 C 512.63 1428.6 495.361 1418.62 489.707 1415.72 z"/>
<path transform="translate(0,0)" fill="rgb(70,61,54)" d="M 1170.04 1518.03 C 1175.97 1522.53 1227.21 1506.42 1242.6 1512.07 C 1248.35 1520.11 1251.7 1578.73 1253.24 1592.23 C 1253.9 1597.99 1254.09 1610.94 1256.14 1616.09 C 1227.41 1621.53 1199.99 1628.52 1170.36 1633.6 C 1159.45 1611.59 1158.27 1587.71 1127.97 1603.76 C 1124.94 1616.28 1123.05 1632.19 1120.08 1643.2 C 1106.3 1645.84 1063.65 1650.8 1049.3 1651.36 C 1046.37 1644.87 1036.98 1614.64 1031.78 1614.01 C 984.076 1608.25 992.288 1630.54 986.521 1657.94 C 968.147 1658.99 940.519 1659.89 921.972 1659.71 C 918.745 1650.52 913.704 1624.65 904.792 1622.17 C 860.462 1609.81 867.466 1633.34 862.969 1659.86 C 852.266 1659.4 841.581 1658.58 830.934 1657.39 C 830.889 1631.39 824.337 1590.76 825.666 1563.47 C 826.109 1554.36 848.787 1558.99 855.059 1555.88 L 855.08 1554.18 C 931.976 1560.38 1019.11 1545.6 1095.49 1534.64 C 1109.11 1532.69 1164.09 1527.3 1170.04 1518.03 z"/>
<path transform="translate(0,0)" fill="rgb(70,61,54)" d="M 1316.87 1489.76 C 1318.61 1489.05 1337.92 1484.08 1341.62 1483 C 1358.92 1478.07 1375.98 1472.33 1392.75 1465.8 C 1398.14 1490.77 1396.22 1514.3 1399.98 1536.42 C 1385.15 1538.26 1382.09 1541.68 1380.99 1557.34 C 1380.39 1565.78 1379.86 1573.85 1377.21 1581.96 C 1361.5 1586.84 1342.27 1592.26 1327.05 1597.64 C 1327.04 1587.98 1325.11 1575.5 1324.15 1565.72 C 1321.7 1540.66 1317.31 1514.92 1316.87 1489.76 z"/>
<path transform="translate(0,0)" fill="rgb(95,93,92)" d="M 723.829 1537.47 C 769.621 1548.7 807.723 1551.8 855.08 1554.18 L 855.059 1555.88 C 848.787 1558.99 826.109 1554.36 825.666 1563.47 C 824.337 1590.76 830.889 1631.39 830.934 1657.39 L 822.142 1655.97 L 814.407 1655.18 C 809.031 1654.36 803.529 1654.14 798.091 1653.79 C 794.884 1645.12 793.197 1636.52 791.171 1627.54 C 787.918 1613.13 780.135 1611.78 767.493 1609.07 C 764.06 1607.96 757.046 1606.82 753.257 1606.09 C 746.048 1612.72 745.556 1631.39 740.314 1642.94 C 738.366 1639.09 739.271 1633.45 739.405 1628.88 C 740.151 1603.45 740.709 1573.27 737.066 1548.18 C 732.287 1544.97 725.211 1541.85 723.829 1537.47 z"/>
<path transform="translate(0,0)" fill="rgb(70,61,54)" d="M 749.851 1548.01 L 763.597 1550.52 C 765.817 1565.55 766.902 1593.36 767.493 1609.07 C 764.06 1607.96 757.046 1606.82 753.257 1606.09 C 753.984 1590.79 749.646 1566.64 749.851 1548.01 z"/>
<path transform="translate(0,0)" fill="rgb(70,61,54)" d="M 814.407 1655.18 C 814.07 1643.16 808.718 1564.36 810.572 1560.21 C 812.997 1558.06 811.654 1558.45 814.403 1558.16 C 817.218 1560.58 817.106 1561.59 817.543 1565.82 C 820.524 1594.74 819.465 1627.66 822.142 1655.97 L 814.407 1655.18 z"/>
<path transform="translate(0,0)" fill="rgb(0,0,0)" d="M 518.077 1426.69 C 518.52 1426.78 518.963 1426.88 519.407 1426.97 C 574.542 1445.55 623.454 1482.38 674.941 1508.71 C 733.887 1539.49 798.729 1541.19 863.502 1544.94 C 882.179 1546.02 917.273 1543.84 932.727 1544.8 C 964.013 1546.74 1161.4 1513.37 1170.04 1518.03 C 1164.09 1527.3 1109.11 1532.69 1095.49 1534.64 C 1019.11 1545.6 931.976 1560.38 855.08 1554.18 C 807.723 1551.8 769.621 1548.7 723.829 1537.47 C 702.433 1528.82 685.709 1525.74 663.485 1513.67 C 633.173 1497.35 603.556 1479.15 573.935 1461.61 C 565.008 1456.33 520.066 1433.06 518.077 1426.69 z"/>
<path transform="translate(0,0)" fill="rgb(70,61,54)" d="M 1303.61 1604.92 C 1304.93 1592 1302.95 1581.32 1301.98 1568.79 C 1300.27 1546.73 1295.83 1520.05 1296.23 1498.33 L 1297.66 1497.09 C 1302.51 1496.71 1300.38 1496.19 1304.38 1498.17 C 1305.92 1500.31 1307.3 1502.68 1307.52 1505.39 C 1310.13 1537.07 1314.54 1568.7 1317.17 1600.38 C 1312.86 1601.64 1307.53 1602.94 1303.61 1604.92 z"/>
<path transform="translate(0,0)" fill="rgb(70,61,54)" d="M 509.888 1123.31 C 504.968 1129.96 480.926 1160.69 471.867 1163.14 C 470.25 1163.58 461.532 1156.24 459.109 1155.5 C 437.119 1148.82 441.92 1122.46 433.427 1105.3 C 417.661 1064.96 379.499 1036.1 347.23 1009.23 C 332.696 997.127 315.815 987.571 315.243 966.515 C 314.585 942.312 314.809 918.146 314.836 893.931 C 314.859 873.322 311.555 852.335 313.71 831.972 C 313.964 829.68 316.803 827.514 319.139 826.521 C 323.8 827.755 329.555 835.378 334.52 838.015 C 352.143 847.374 441.478 858.504 459.93 852.166 C 470.792 848.436 475.106 839.489 480.027 829.99 C 513.207 829.505 546.735 829.826 579.988 829.602 C 579.969 836.105 578.641 860.746 584.322 863.571 C 588.505 857.83 585.617 837.669 584.816 829.74 C 589.802 829.679 596.75 829.136 601.129 830.918 C 604.392 837.323 603.871 873.335 603.902 882.51 C 604.64 895.614 605.119 904.424 608.506 917.008 C 621.95 945.675 643.047 971.888 661.916 997.461 C 656.964 1000.17 650.021 1004.95 645.109 1008.14 C 641.144 1002.37 613.795 965.11 610.231 962.811 L 608.156 963.379 C 606.605 970.765 624.372 989.906 629.737 998.611 L 630.532 999.914 C 598.908 994.842 597.001 1004.75 573.13 1023.75 C 553.801 1039.14 534.914 1056.44 517.385 1073.89 C 500.389 1090.8 502.218 1102.46 509.888 1123.31 z"/>
<path transform="translate(0,0)" fill="rgb(119,104,96)" d="M 608.506 917.008 C 607.795 916.835 606.642 916.204 605.924 915.858 C 601.962 907.229 599.376 885.832 601.72 876.995 L 602.482 876.901 L 603.902 882.51 C 604.64 895.614 605.119 904.424 608.506 917.008 z"/>
<path transform="translate(0,0)" fill="rgb(0,0,0)" d="M 476.817 973.835 L 477.848 975.39 C 474.783 982.942 437.898 1007.11 430.32 1015.7 C 438.265 1019 452.324 1024.31 458.551 1029.38 L 458.561 1030.7 C 449.327 1031.88 439.552 1026.93 431.54 1022.81 C 419.358 1015.23 418.894 1026.31 407.511 1031.5 C 407.561 1025.52 413.092 1021.33 417.49 1016.79 C 417.845 1014.09 416.498 1013.59 414.234 1010.59 L 414.673 1009.04 C 418.109 1008.17 421.008 1009.67 424.525 1010.83 C 442.271 997.241 457.629 985.699 476.817 973.835 z"/>
<path transform="translate(0,0)" fill="rgb(0,0,0)" d="M 509.467 928.648 L 511.111 928.841 L 511.496 929.814 C 500.666 939.209 486.249 949.342 474.683 958.27 C 461.667 968.318 447.877 979.787 434.624 989.235 L 433.07 988.641 L 432.522 987.169 C 444.333 970.038 489.747 938.072 509.467 928.648 z"/>
<path transform="translate(0,0)" fill="rgb(0,0,0)" d="M 583.664 894.367 C 585.227 894.846 586.928 895.294 587.347 896.877 C 589.171 903.779 592.448 924.972 589.812 931.149 C 582.71 924.868 580.061 902.634 583.664 894.367 z"/>
<path transform="translate(0,0)" fill="rgb(0,0,0)" d="M 591.491 937.316 C 598.596 939.111 601.279 946.434 601.344 953.143 C 593.031 951.348 591.135 945.026 591.491 937.316 z"/>
<path transform="translate(0,0)" fill="rgb(0,0,0)" d="M 582.756 874.167 C 586.272 875.237 584.983 874.235 586.989 876.941 C 587.706 880.925 587.343 881.591 586.479 885.675 C 583.907 884.772 584.72 885.141 582.486 883.526 C 580.986 880.2 581.989 877.84 582.756 874.167 z"/>
<path transform="translate(0,0)" fill="rgb(70,61,54)" d="M 1210.85 1033.77 C 1256.04 1007.74 1294.6 986.405 1347.83 983.833 C 1350.25 984.119 1356.83 984.755 1358.32 986.101 C 1379.81 1005.56 1401.05 1024.8 1424.35 1042.24 C 1430.19 1046.62 1436.31 1051.27 1441.94 1055.87 C 1438.54 1056.44 1432.3 1057.27 1429.31 1058.41 C 1395.24 1069.62 1349.62 1095.72 1327.37 1124.2 C 1337.86 1119.77 1344.96 1112.37 1352.06 1109.27 L 1354.45 1107.64 C 1378.98 1091.11 1405.48 1076.36 1433.6 1067.01 C 1439.08 1065.19 1447.22 1061.26 1452.85 1062.52 C 1468.17 1065.94 1482.5 1073.27 1497.52 1077.83 C 1515.86 1083.85 1534.25 1087.82 1553.02 1092.13 C 1546.28 1094.91 1539.62 1097.19 1532.75 1099.6 C 1468.89 1126.45 1404.84 1170.36 1373.04 1233.54 C 1328.67 1187.56 1277.91 1188.45 1219.15 1175.44 C 1207.1 1172.77 1192.15 1167.22 1180.47 1162.62 C 1183.41 1158.67 1187.71 1154.67 1186 1149.55 L 1183.41 1149.66 C 1178.95 1151.82 1176.67 1155.7 1173.57 1159.75 L 1159.86 1152.14 C 1176.77 1132.58 1184.09 1118.5 1198.54 1099.67 C 1217.91 1061.45 1191.32 1061.4 1191.65 1047.18 C 1196.18 1044.25 1200.75 1041.36 1205.35 1038.54 C 1210.06 1045.77 1212.25 1052.56 1221.73 1051.15 C 1219.41 1046.6 1213.8 1038.36 1210.85 1033.77 z"/>
<path transform="translate(0,0)" fill="rgb(119,104,96)" d="M 1352.06 1109.27 L 1354.45 1107.64 C 1378.98 1091.11 1405.48 1076.36 1433.6 1067.01 C 1439.08 1065.19 1447.22 1061.26 1452.85 1062.52 C 1468.17 1065.94 1482.5 1073.27 1497.52 1077.83 C 1515.86 1083.85 1534.25 1087.82 1553.02 1092.13 C 1546.28 1094.91 1539.62 1097.19 1532.75 1099.6 C 1518.47 1093.84 1503.49 1089.74 1489.12 1084.24 C 1481.98 1081.38 1475.14 1078.02 1467.97 1075.2 C 1457.98 1071.27 1448.84 1073.62 1439.1 1076.9 C 1416.64 1084.46 1394.77 1093.57 1372.84 1102.52 C 1366.87 1104.96 1358.4 1110.31 1352.06 1109.27 z"/>
<path transform="translate(0,0)" fill="rgb(119,104,96)" d="M 1347.83 983.833 C 1350.25 984.119 1356.83 984.755 1358.32 986.101 C 1379.81 1005.56 1401.05 1024.8 1424.35 1042.24 C 1430.19 1046.62 1436.31 1051.27 1441.94 1055.87 C 1438.54 1056.44 1432.3 1057.27 1429.31 1058.41 C 1425.59 1048.86 1384.94 1019.71 1374.93 1009.15 C 1367.38 1001.19 1355.8 993.738 1347.83 983.833 z"/>
<path transform="translate(0,0)" fill="rgb(119,104,96)" d="M 1191.65 1047.18 C 1209.27 1052.61 1217.9 1089.91 1205.21 1096.64 C 1204.38 1094.56 1204.78 1095.68 1204.06 1093.29 C 1201.82 1095.54 1201.75 1096.13 1200.36 1098.94 L 1198.54 1099.67 C 1217.91 1061.45 1191.32 1061.4 1191.65 1047.18 z"/>
<path transform="translate(0,0)" fill="rgb(0,0,0)" d="M 1221.73 1051.15 C 1225.87 1057.35 1231.92 1064.78 1227.32 1072.17 C 1221.12 1066.67 1216.19 1058.61 1221.73 1051.15 z"/>
<path transform="translate(0,0)" fill="rgb(0,0,0)" d="M 1226.18 1087.52 L 1227.63 1087.97 C 1234.01 1094.79 1220.01 1112.45 1214.7 1117.89 L 1212.61 1115.01 C 1211.79 1109.74 1222.87 1092.96 1226.18 1087.52 z"/>
<path transform="translate(0,0)" fill="rgb(0,0,0)" d="M 1201.52 1124.52 C 1204.73 1125.92 1203.68 1124.79 1204.91 1127.9 C 1204.29 1133.84 1200.34 1136.76 1196.03 1140.56 C 1193.03 1138.89 1194.07 1140.06 1192.7 1137.03 C 1193.48 1131.63 1197.66 1128.22 1201.52 1124.52 z"/>
<path transform="translate(0,0)" fill="rgb(70,61,54)" d="M 279.345 491.244 C 280.764 488.527 282.174 485.796 284.287 483.541 C 304.872 461.574 488.94 451.531 528.871 449.857 L 524.268 461.998 C 499.436 460.698 471.76 463.113 446.933 465.058 C 405.041 468.34 362.301 470.444 321.314 480.101 C 316.229 481.298 311.608 481.035 306.44 480.964 C 303.635 482.666 304.403 482.607 302.879 486.465 C 303.242 486.653 303.603 486.846 303.968 487.03 C 337.705 503.986 465.602 501.56 507.479 499.98 C 525.791 499.29 559.109 496.112 575.87 497.973 C 578.826 498.301 581.641 499.847 582.66 502.8 C 586.394 513.622 585.643 548.755 586.562 561.807 C 588.371 585.564 590.05 609.331 591.599 633.106 C 592.41 644.118 594.204 656.099 594.449 666.997 C 591.203 668.442 588.653 668.091 585.077 668.082 C 549.822 668.741 520.577 668.216 485.289 666.933 C 476.799 643.334 468.297 640.592 444.556 638.772 C 415.267 636.526 385.874 633.618 356.49 632.518 C 342.648 632 338.809 635.413 329.387 644.753 C 319.777 642.475 305.499 638.732 296.635 634.915 C 293.143 612.859 290.967 587.019 287.899 564.505 C 284.878 542.335 280.202 512.994 279.345 491.244 z"/>
<path transform="translate(0,0)" fill="rgb(119,104,96)" d="M 302.879 486.465 C 303.242 486.653 303.603 486.846 303.968 487.03 C 337.705 503.986 465.602 501.56 507.479 499.98 C 525.791 499.29 559.109 496.112 575.87 497.973 C 578.826 498.301 581.641 499.847 582.66 502.8 C 586.394 513.622 585.643 548.755 586.562 561.807 C 588.371 585.564 590.05 609.331 591.599 633.106 C 592.41 644.118 594.204 656.099 594.449 666.997 C 591.203 668.442 588.653 668.091 585.077 668.082 C 584.454 646.28 579.918 618.208 578.769 595.607 C 576.832 573.893 576.667 552.027 574.948 530.307 C 574.215 521.047 572.776 510.78 561.1 510.918 C 490.009 511.76 419.744 516.237 348.835 506.409 C 338.569 504.986 303.984 500.802 299.249 491.456 C 300.172 487.606 299.252 489.366 302.879 486.465 z"/>
<path transform="translate(0,0)" fill="rgb(70,61,54)" d="M 257.234 1325.62 C 262.053 1330.63 267.704 1334.85 273.15 1339.19 L 285.877 1347.27 C 298.025 1353.38 316.381 1362.59 329.155 1366.41 C 349.473 1374.63 478.9 1419.98 489.707 1415.72 C 495.361 1418.62 512.63 1428.6 517.925 1426.66 L 518.077 1426.69 C 520.066 1433.06 565.008 1456.33 573.935 1461.61 C 603.556 1479.15 633.173 1497.35 663.485 1513.67 C 685.709 1525.74 702.433 1528.82 723.829 1537.47 C 725.211 1541.85 732.287 1544.97 737.066 1548.18 C 740.709 1573.27 740.151 1603.45 739.405 1628.88 C 739.271 1633.45 738.366 1639.09 740.314 1642.94 L 739.604 1643.51 C 723.097 1638.64 711.355 1634.86 695.481 1627.52 C 693.682 1617.61 692.778 1608.17 691.607 1598.25 C 690.515 1589.01 671.389 1576.45 662.992 1578.8 C 657.724 1583.37 653.382 1600.69 650.195 1608.84 C 639.64 1604.4 620.304 1593.99 610.779 1587.82 C 608.109 1576.56 606.836 1554.02 600.183 1545.28 C 588.641 1530.12 470.579 1469.2 450.328 1465.89 C 447.369 1465.41 445.428 1465.43 442.998 1467.21 C 438.416 1476.56 435.493 1531.09 434.395 1544.52 C 420.195 1540.69 405.754 1536.08 391.657 1531.75 C 388.752 1519.68 387.157 1506.15 383.251 1494.53 C 354.78 1474.11 356.063 1500.8 351.328 1520.4 C 340.029 1515.9 328.17 1512.48 317.084 1507.65 L 307.25 1502.87 C 305.126 1490.67 305.439 1477.72 302.628 1465.34 C 297.248 1461.85 295.32 1460.5 289.163 1458.14 C 277.066 1461.53 282.333 1476.83 276.974 1486.66 C 274.284 1487.01 275.667 1487.06 272.589 1484.95 C 266.764 1480.36 264.254 1478.23 259.179 1472.88 C 259.073 1424.23 256.715 1373.57 257.234 1325.62 z"/>
<path transform="translate(0,0)" fill="rgb(95,93,92)" d="M 257.234 1325.62 C 262.053 1330.63 267.704 1334.85 273.15 1339.19 L 285.877 1347.27 C 298.025 1353.38 316.381 1362.59 329.155 1366.41 C 326.126 1379.94 328.213 1422.57 326.338 1442.36 C 321.97 1423.78 320.871 1396.44 319.342 1376.66 C 314.062 1400.94 318.469 1454.68 317.472 1481.18 C 317.269 1486.6 318.419 1503.22 317.084 1507.65 L 307.25 1502.87 C 305.126 1490.67 305.439 1477.72 302.628 1465.34 C 297.248 1461.85 295.32 1460.5 289.163 1458.14 C 277.066 1461.53 282.333 1476.83 276.974 1486.66 C 274.284 1487.01 275.667 1487.06 272.589 1484.95 C 266.764 1480.36 264.254 1478.23 259.179 1472.88 C 259.073 1424.23 256.715 1373.57 257.234 1325.62 z"/>
<path transform="translate(0,0)" fill="rgb(95,93,92)" d="M 257.234 1325.62 C 262.053 1330.63 267.704 1334.85 273.15 1339.19 L 285.877 1347.27 C 286.065 1359.94 286.654 1456.05 287.945 1457.8 L 289.163 1458.14 C 277.066 1461.53 282.333 1476.83 276.974 1486.66 C 274.284 1487.01 275.667 1487.06 272.589 1484.95 C 266.764 1480.36 264.254 1478.23 259.179 1472.88 C 259.073 1424.23 256.715 1373.57 257.234 1325.62 z"/>
<path transform="translate(0,0)" fill="rgb(70,61,54)" d="M 273.15 1339.19 L 285.877 1347.27 C 286.065 1359.94 286.654 1456.05 287.945 1457.8 L 289.163 1458.14 C 277.066 1461.53 282.333 1476.83 276.974 1486.66 C 274.284 1487.01 275.667 1487.06 272.589 1484.95 C 275.104 1438.21 271.409 1386.57 273.15 1339.19 z"/>
<path transform="translate(0,0)" fill="rgb(70,61,54)" d="M 537.266 473.42 C 543.527 452.231 551.028 441.934 572.96 435.334 C 623.964 419.988 732.997 404.012 781.256 427.383 C 784.36 432.102 785.295 433.452 787.253 438.691 C 787.608 464.603 783.25 485.351 781.483 510.817 C 778.315 556.486 778.028 601.42 777.819 647.169 C 719.657 663.438 666.363 665.082 606.107 667.62 C 604.94 620.752 600.662 573.878 598.638 527.198 C 597.159 493.091 597.004 481.158 557.438 483.947 C 551.239 484.384 542.645 484.991 536.462 485.036 L 537.266 473.42 z"/>
<path transform="translate(0,0)" fill="rgb(119,104,96)" d="M 537.266 473.42 C 543.527 452.231 551.028 441.934 572.96 435.334 C 623.964 419.988 732.997 404.012 781.256 427.383 C 784.36 432.102 785.295 433.452 787.253 438.691 C 780.824 437.628 775.49 433.543 769.087 432.037 C 753.596 428.391 737.705 426.24 721.914 424.31 C 672.393 422.965 599.006 431.655 555.467 456.248 C 549.855 459.418 542.928 471.64 539.478 476.991 C 537.492 475.851 538.397 476.442 537.266 473.42 z"/>
<path transform="translate(0,0)" fill="rgb(0,0,0)" d="M 760.664 539.691 C 763.808 551.46 728.611 623.82 718.795 634.043 C 718.666 633.66 718.484 633.291 718.41 632.894 C 716.787 624.183 753.717 550.452 760.664 539.691 z"/>
<path transform="translate(0,0)" fill="rgb(0,0,0)" d="M 738.08 629.609 C 739.81 630.89 739.186 630.284 740.144 632.453 C 740.08 638.724 737.982 641.483 733.753 646.021 L 732.624 644.249 C 732.737 637.535 734.203 635.088 738.08 629.609 z"/>
<path transform="translate(0,0)" fill="rgb(70,61,54)" d="M 306.92 1008.06 C 303.973 1003.29 304.577 996.693 309.457 993.588 L 311.229 995.273 C 345.855 1028.66 393.331 1059.79 416.502 1101.95 C 430.528 1127.47 437.457 1173.17 440.836 1201.96 C 441.265 1205.61 439.048 1212.33 437.917 1216.04 C 438.136 1232.31 444.309 1231.82 445.795 1245.08 C 447.293 1258.45 448.216 1272.9 449.569 1286.42 C 452.261 1314.13 455.704 1341.76 459.897 1369.27 C 456.745 1368.31 453.127 1367.45 449.905 1366.6 C 448.346 1360.7 446.107 1349.01 441.289 1345.37 L 440.142 1346.56 C 438.928 1352.46 439.963 1357.13 440.711 1363.14 C 405.367 1352.4 313.693 1327.01 294.44 1299.82 C 263.596 1256.27 275.547 1142.36 288.218 1090.69 C 294.706 1064.24 301.032 1041.88 304.233 1016.37 C 310.355 1021.06 322.039 1033.22 329.748 1032.49 L 329.944 1030.52 C 325.292 1021.88 314.735 1014.46 306.92 1008.06 z"/>
<path transform="translate(0,0)" fill="rgb(119,104,96)" d="M 306.92 1008.06 C 303.973 1003.29 304.577 996.693 309.457 993.588 L 311.229 995.273 C 345.855 1028.66 393.331 1059.79 416.502 1101.95 C 430.528 1127.47 437.457 1173.17 440.836 1201.96 C 441.265 1205.61 439.048 1212.33 437.917 1216.04 C 435.961 1211.72 433.519 1188.72 432.4 1182.07 C 430.265 1169.71 427.632 1157.45 424.507 1145.3 C 411.543 1096.2 388.745 1069.7 350.428 1037.66 C 341.563 1030.25 325.489 1017.62 318.165 1009.55 L 317.052 1008.31 L 306.92 1008.06 z"/>
<path transform="translate(0,0)" fill="rgb(95,93,92)" d="M 306.92 1008.06 C 303.973 1003.29 304.577 996.693 309.457 993.588 L 311.229 995.273 C 307.765 1000.74 312.969 1003.86 317.052 1008.31 L 306.92 1008.06 z"/>
<path transform="translate(0,0)" fill="rgb(0,0,0)" d="M 311.661 1148.69 C 317.707 1156.92 332.5 1192.53 338.645 1205.02 L 346.113 1186.75 C 344.011 1183.07 334.477 1166.6 335.931 1163.44 C 340.709 1167.98 346.481 1177.79 349.875 1178.95 L 351.131 1176.81 C 354.371 1170 355.252 1168.15 360.001 1162.2 C 359.767 1171.17 355.999 1178.55 352.508 1186.77 C 359.839 1199.13 366.523 1211.14 372.374 1224.31 C 361.075 1213.18 358.454 1207.74 350.221 1194.24 L 342.778 1214.16 C 345.998 1222.45 359.212 1255.26 358.662 1262 C 358.893 1263.77 361.542 1270.92 362.278 1273.04 C 352.84 1264.14 348.027 1252.11 341.183 1240.63 C 338.002 1243.55 334.745 1247.39 331.822 1250.64 L 329.381 1250.23 C 328.521 1253.04 329.388 1252.18 327.3 1253.41 C 324.499 1247.09 331.843 1220.6 334.948 1213.92 C 325.79 1192.38 315.778 1171.76 311.661 1148.69 z"/>
<path transform="translate(0,0)" fill="rgb(119,104,96)" d="M 329.381 1250.23 C 332.117 1241.13 334.704 1232 338.626 1223.32 C 343.781 1231.99 354.966 1252.94 358.662 1262 C 358.893 1263.77 361.542 1270.92 362.278 1273.04 C 352.84 1264.14 348.027 1252.11 341.183 1240.63 C 338.002 1243.55 334.745 1247.39 331.822 1250.64 L 329.381 1250.23 z"/>
<path transform="translate(0,0)" fill="rgb(0,0,0)" d="M 342.238 1040.47 C 350.173 1043.89 386.657 1079.58 390.938 1090.25 C 392.982 1095.35 393.258 1093.88 391.825 1098.77 C 380.488 1093.14 359.447 1057.81 346.617 1050.74 C 340.853 1047.56 340.776 1046.18 342.238 1040.47 z"/>
<path transform="translate(0,0)" fill="rgb(0,0,0)" d="M 408.685 1134.44 C 410.494 1134.63 412.908 1134.85 413.845 1136.2 C 420.613 1145.97 425.678 1178.02 424.834 1188.68 L 422.422 1188.19 C 419.17 1185.19 409.147 1140.54 408.685 1134.44 z"/>
<path transform="translate(0,0)" fill="rgb(0,0,0)" d="M 434.073 1288.35 C 436.537 1289.96 437.686 1292.02 437.958 1294.93 C 438.867 1304.62 444.793 1326.58 439.706 1334.35 C 433.803 1327.01 428.486 1296.7 434.073 1288.35 z"/>
<path transform="translate(0,0)" fill="rgb(119,104,96)" d="M 351.131 1176.81 L 349.817 1174.73 C 348.782 1166.88 358.58 1150.15 366.767 1148.8 L 367.178 1150.22 C 365.491 1155.61 364.378 1158.54 360.001 1162.2 C 355.252 1168.15 354.371 1170 351.131 1176.81 z"/>
<path transform="translate(0,0)" fill="rgb(0,0,0)" d="M 429.902 1249.58 L 432.886 1251.06 C 435.739 1255.9 437.098 1269.2 434.035 1274.17 L 431.575 1273.48 C 426.963 1269.59 426.368 1254.32 429.902 1249.58 z"/>
<path transform="translate(0,0)" fill="rgb(0,0,0)" d="M 424.89 1204.55 C 431.672 1208.27 432.846 1219.28 428.951 1225.42 C 422.021 1222.63 421.601 1210.28 424.89 1204.55 z"/>
<path transform="translate(0,0)" fill="rgb(0,0,0)" d="M 399.679 1105.3 C 406.872 1107.83 408.663 1112.71 407.531 1119.78 C 400.39 1117.64 398.561 1111.9 399.679 1105.3 z"/>
<path transform="translate(0,0)" fill="rgb(70,61,54)" d="M 485.686 686.71 C 485.691 684.801 485.564 680.054 486.478 679.675 C 497.538 677.331 514.888 679.866 526.349 679.822 C 612.341 679.494 702.949 679.123 786.499 657.587 C 797.085 654.859 807.101 650.742 811.991 640.971 L 812.45 640.038 C 817.982 641.293 819.187 646.026 819.666 650.938 C 818.617 673.851 817.713 696.77 816.954 719.694 C 816.298 736.917 815.918 758.96 812.136 775.479 C 791.873 793.832 739.994 803.006 712.761 806.235 C 653.36 813.277 592.739 816.393 532.925 814.692 C 516.081 814.213 498.979 812.918 482.143 812.886 C 483.534 785.2 484.648 757.5 485.485 729.791 C 485.811 717.157 486.513 699.142 485.686 686.71 z"/>
<path transform="translate(0,0)" fill="rgb(95,93,92)" d="M 485.686 686.71 C 485.691 684.801 485.564 680.054 486.478 679.675 C 497.538 677.331 514.888 679.866 526.349 679.822 C 612.341 679.494 702.949 679.123 786.499 657.587 C 797.085 654.859 807.101 650.742 811.991 640.971 L 812.45 640.038 C 817.982 641.293 819.187 646.026 819.666 650.938 C 731.366 694.879 583.045 690.044 485.686 686.71 z"/>
<path transform="translate(0,0)" fill="rgb(0,0,0)" d="M 561.931 736.93 C 580.743 736.703 587.947 756.664 569.648 767.513 C 563.299 767.554 558.273 767.027 554.35 761.413 C 551.816 757.815 550.969 753.294 552.03 749.023 C 553.628 742.48 556.469 740.15 561.931 736.93 z"/>
<path transform="translate(0,0)" fill="rgb(38,37,37)" d="M 564.25 747.669 C 566.883 746.922 569.624 748.448 570.377 751.079 C 571.13 753.711 569.611 756.456 566.981 757.214 C 564.342 757.975 561.588 756.45 560.832 753.81 C 560.077 751.17 561.608 748.419 564.25 747.669 z"/>
<path transform="translate(0,0)" fill="rgb(0,0,0)" d="M 503.885 737.979 C 508.71 735.79 514.342 736.38 518.608 739.522 C 522.875 742.663 525.111 747.866 524.453 753.123 C 523.796 758.381 520.348 762.872 515.439 764.867 C 508.056 767.865 499.631 764.407 496.485 757.085 C 493.339 749.764 496.628 741.271 503.885 737.979 z"/>
<path transform="translate(0,0)" fill="rgb(70,61,54)" d="M 508.048 746.446 C 510.56 745.34 513.496 746.433 514.673 748.913 C 515.85 751.393 514.839 754.359 512.393 755.605 C 510.748 756.443 508.779 756.321 507.25 755.286 C 505.722 754.252 504.876 752.469 505.042 750.631 C 505.208 748.793 506.359 747.19 508.048 746.446 z"/>
<path transform="translate(0,0)" fill="rgb(70,61,54)" d="M 877.753 617.531 C 867.661 614.623 824.742 605.637 819.178 602.147 C 821.495 600.888 824.84 600.832 827.407 601.434 C 863.995 610.015 903.501 615.974 940.837 619.458 C 987.168 622.325 1033.8 628.635 1080.5 626.048 C 1130.72 623.265 1188.48 623.358 1236.94 608.986 C 1244.22 606.827 1247.08 603.065 1249.77 596.609 L 1250.34 595.208 C 1254.94 594.463 1255.07 605.231 1254.99 608.093 C 1253.65 636.93 1253.66 665.882 1251.28 694.616 C 1250.67 701.974 1249.87 715.001 1248.49 721.974 C 1208.74 756.474 1056.29 751.738 1004.5 748.415 C 990.369 747.508 918.105 743.742 911.605 733.438 C 894.68 706.603 904.046 655.73 887.994 627.084 C 886.39 624.202 880.531 619.698 877.753 617.531 z"/>
<path transform="translate(0,0)" fill="rgb(95,93,92)" d="M 877.753 617.531 C 867.661 614.623 824.742 605.637 819.178 602.147 C 821.495 600.888 824.84 600.832 827.407 601.434 C 863.995 610.015 903.501 615.974 940.837 619.458 C 987.168 622.325 1033.8 628.635 1080.5 626.048 C 1130.72 623.265 1188.48 623.358 1236.94 608.986 C 1244.22 606.827 1247.08 603.065 1249.77 596.609 L 1250.34 595.208 C 1254.94 594.463 1255.07 605.231 1254.99 608.093 C 1246.4 611.146 1236.6 615.98 1228 618.091 C 1141.54 639.308 1047.11 636.231 959.351 627.229 C 942.388 625.431 925.455 623.363 908.558 621.025 C 901.297 620.037 883.994 617.225 877.753 617.531 z"/>
<path transform="translate(0,0)" fill="rgb(70,61,54)" d="M 1193.63 896.802 C 1213.44 889.193 1260.22 872.394 1280.27 881.877 C 1286.82 884.974 1356.46 959.393 1363.43 969.68 C 1363.55 969.859 1363.68 970.034 1363.8 970.21 C 1330.53 959.228 1292.06 975.476 1261.34 989.225 C 1195.38 1019.57 1146.61 1058.58 1094.65 1107.91 C 1072.57 1094.4 1052.09 1073.18 1034.06 1054.45 C 1025.59 1045.65 1019.29 1037.32 1010.03 1028.52 C 1061.34 972.25 1123.89 927.376 1193.63 896.802 z"/>
<path transform="translate(0,0)" fill="rgb(95,93,92)" d="M 1193.63 896.802 C 1213.44 889.193 1260.22 872.394 1280.27 881.877 C 1286.82 884.974 1356.46 959.393 1363.43 969.68 C 1363.55 969.859 1363.68 970.034 1363.8 970.21 C 1330.53 959.228 1292.06 975.476 1261.34 989.225 L 1217.19 929.061 C 1210.2 919.585 1199.36 906.229 1193.63 896.802 z"/>
<path transform="translate(0,0)" fill="rgb(70,61,54)" d="M 1024.86 445.118 C 1024.99 442.144 1025.13 439.103 1025.78 436.193 C 1027.95 426.193 1034.05 417.483 1042.69 412.01 C 1072.71 393.076 1208.71 373.429 1228.77 405.86 C 1230.1 414.964 1227.79 437.616 1227 447.487 C 1225.8 462.819 1224.69 478.158 1223.66 493.503 C 1222.13 515.303 1220.74 537.112 1219.49 558.93 C 1218.84 572.719 1218.85 586.621 1217.8 600.328 C 1181.21 610.55 1124.83 613.637 1086.2 612.647 C 1084.73 562.665 1086.34 511.632 1080.46 462.115 C 1077.64 438.318 1036.03 450.685 1024.77 446.417 L 1024.86 445.118 z"/>
<path transform="translate(0,0)" fill="rgb(119,104,96)" d="M 1024.86 445.118 C 1024.99 442.144 1025.13 439.103 1025.78 436.193 C 1027.95 426.193 1034.05 417.483 1042.69 412.01 C 1072.71 393.076 1208.71 373.429 1228.77 405.86 C 1222.96 407.093 1206.59 398.248 1196.41 397.631 C 1149.62 394.795 1087.53 401.106 1045.11 421.991 C 1037.05 425.961 1030.4 440.594 1024.86 445.118 z"/>
<path transform="translate(0,0)" fill="rgb(0,0,0)" d="M 1211.1 498.671 C 1214.68 509.47 1180.61 560.354 1171.81 569.227 C 1171.43 567.449 1171.1 565.806 1171.95 564.12 C 1182.6 543.099 1198.69 518.455 1211.1 498.671 z"/>
<path transform="translate(0,0)" fill="rgb(0,0,0)" d="M 1197.52 551.656 C 1197.93 552.051 1198.79 553.456 1199.15 554.004 C 1199.43 563.839 1191.73 582.45 1185.95 590.404 C 1184.5 588.786 1183.94 588.875 1184.12 586.993 C 1184.93 578.565 1192.48 557.339 1197.52 551.656 z"/>
<path transform="translate(0,0)" fill="rgb(70,61,54)" d="M 825.361 455.991 C 904.995 465.628 981.466 464.788 1061.19 462.089 C 1067.71 461.868 1067.88 476.198 1068.42 480.471 C 1069.39 495.867 1069.42 511.394 1070.09 526.829 C 1071.22 555.528 1073.31 584.182 1076.34 612.743 C 1070.46 613.469 1049.87 613.136 1043.23 612.996 C 989.384 611.867 935.991 606.712 882.733 599.125 C 876.34 573.421 871.371 552.576 848.691 536.305 C 846.227 534.094 826.152 522.152 825.714 520.623 C 819.377 498.47 838.185 477.367 815.039 460.956 L 821.717 460.606 C 819.826 458.812 818.75 459.151 816.77 456.845 L 825.361 455.991 z"/>
<path transform="translate(0,0)" fill="rgb(119,104,96)" d="M 825.361 455.991 C 904.995 465.628 981.466 464.788 1061.19 462.089 C 1067.71 461.868 1067.88 476.198 1068.42 480.471 C 1069.39 495.867 1069.42 511.394 1070.09 526.829 C 1071.22 555.528 1073.31 584.182 1076.34 612.743 C 1073.65 612.644 1070.42 612.865 1067.92 611.804 C 1060.97 608.863 1061.72 492.642 1053.75 476.986 C 1053 475.513 1051.11 472.589 1049.57 471.886 C 1047.08 470.752 959.912 474.653 949.083 474.551 C 915.531 474.236 853.83 471.625 822.924 461.03 L 821.717 460.606 C 819.826 458.812 818.75 459.151 816.77 456.845 L 825.361 455.991 z"/>
<path transform="translate(0,0)" fill="rgb(70,61,54)" d="M 988.181 768.39 C 1004.45 766.66 1038.11 768.27 1054.56 768.844 C 1054.84 776.071 1050.73 803.921 1059.59 803.74 C 1063.78 797.156 1058.84 774.051 1061.31 769.549 C 1065.15 768.374 1064.94 768.432 1068.93 769.061 C 1069.54 769.544 1070.15 770.028 1070.77 770.512 C 1072.31 792.017 1068.66 817.105 1072.02 838.203 C 1076.61 866.977 1101.79 897.436 1118.03 921.175 L 1105.62 928.219 C 1101.33 922.047 1098.8 916.658 1091.86 914.13 L 1090.5 914.953 C 1090.79 922.113 1096.26 926.618 1101.14 932.104 C 1087.08 941.604 1073.53 951.835 1060.54 962.756 C 1049.22 972.592 1009.42 1008.87 1000.28 1014.57 C 974.996 991.317 942.107 938.636 930.023 905.969 C 923.577 887.351 921.137 867.366 918.839 848.13 C 911.274 784.806 928.008 773.792 988.181 768.39 z"/>
<path transform="translate(0,0)" fill="rgb(0,0,0)" d="M 1061.61 868.331 C 1067.78 869.803 1087.93 903.279 1087.53 908.356 C 1078.29 907.448 1060.39 876.536 1061.61 868.331 z"/>
<path transform="translate(0,0)" fill="rgb(0,0,0)" d="M 1057.03 822.267 C 1064.16 825.804 1064.05 844.9 1060.47 850.767 C 1051.3 847.852 1053.44 828.896 1057.03 822.267 z"/>
<path transform="translate(0,0)" fill="rgb(70,61,54)" d="M 613.124 828.15 C 657.667 826.887 705.602 823.199 749.02 813.614 C 764.338 810.233 779.692 805.037 794.853 800.729 C 796.934 818.186 793.199 838.035 799.006 854.246 C 801.067 859.998 808.551 869.399 811.578 875.943 C 817.839 886.858 818.651 903.9 822.439 916.686 C 824.218 922.691 828.849 935.205 829.896 940.135 C 827.721 941.484 827.381 941.275 824.772 941.584 C 765.573 942.882 720.644 964.84 669.842 992.472 C 611.878 911.99 616.507 924.952 613.124 828.15 z"/>
<path transform="translate(0,0)" fill="rgb(119,104,96)" d="M 811.578 875.943 C 817.839 886.858 818.651 903.9 822.439 916.686 C 824.218 922.691 828.849 935.205 829.896 940.135 C 827.721 941.484 827.381 941.275 824.772 941.584 C 822.896 941.253 820.916 940.794 819.041 940.398 C 816.538 935.673 809.273 881.088 811.578 875.943 z"/>
<path transform="translate(0,0)" fill="rgb(0,0,0)" d="M 725.947 845.405 C 735.178 844.238 766.26 844.068 774.335 848.563 L 774.48 849.979 C 766.384 852.895 756.255 852.477 747.504 855.068 C 724.125 861.991 701.29 871.314 678.629 880.305 C 674.297 882.141 666.241 885.959 662.003 885.643 L 662.189 884.375 C 673.175 873.719 706.808 860.062 721.996 853.896 C 714.385 853.935 696.475 856.352 691.148 852.727 C 696.484 848.169 718.809 846.071 725.947 845.405 z"/>
<path transform="translate(0,0)" fill="rgb(0,0,0)" d="M 753.618 891.427 C 760.644 890.874 766.211 891.594 773.207 892.243 C 757.051 896.777 737.564 899.243 720.5 902.97 C 715.664 904.02 714.176 904.387 709.309 904.543 L 707.784 903.024 L 708.262 904.45 L 706.287 904.077 L 706.098 903.069 C 718.131 895.156 739.595 892.407 753.618 891.427 z"/>
<path transform="translate(0,0)" fill="rgb(0,0,0)" d="M 777.519 899.071 C 780.281 898.828 780.15 898.889 782.855 899.618 L 783.355 900.97 C 779.653 905.285 766.794 907.238 761.236 908.307 C 758.471 909.108 758.383 908.946 755.463 909.179 L 755.978 908.226 L 755.292 907.938 C 759.63 903.171 771.377 900.559 777.519 899.071 z"/>
<path transform="translate(0,0)" fill="rgb(119,104,96)" d="M 348.614 643.898 C 366.658 643.633 392.684 646.811 411.392 648.177 C 424.684 649.148 450.874 650.756 462.533 653.223 C 468.923 659.005 474.27 665.577 473.886 674.428 C 472.956 695.895 472.746 817.125 465.275 830.954 C 463.861 833.84 461.367 836.459 458.749 838.313 C 446.248 847.163 379.5 836.197 363.164 833.699 C 353.828 832.271 339.886 830.132 334.166 821.793 C 330.994 817.167 329.682 811.652 328.896 806.178 C 326.201 787.416 327.491 712.568 330.682 693.324 C 331.849 672.823 329.763 656.69 348.614 643.898 z"/>
<path transform="translate(0,0)" fill="rgb(0,0,0)" d="M 442.244 768.018 C 441.859 780.131 445.765 819.553 431.386 822.744 C 418.109 825.69 349.025 823.446 346.733 806.263 C 343.361 780.99 342.333 687.21 352.436 668.316 C 356.042 665.334 361.857 663.304 366.404 663.451 C 380.334 663.902 430.096 665.53 438.939 673.832 C 446.403 680.84 443.617 721.325 443.391 732.904 C 455.135 733.237 456.694 733.871 464.78 741.956 C 466.79 749.285 466.644 754.192 464.041 761.455 C 457.45 767.82 450.76 767.67 442.244 768.018 z"/>
<path transform="translate(0,0)" fill="rgb(70,61,54)" d="M 359.695 680.476 C 360.9 678.491 362.438 674.918 364.6 675.066 C 374.261 675.731 423.368 678.654 429.128 680.677 L 432.234 684.758 C 432.205 700.295 431.695 716.339 431.397 731.913 C 418.39 731.318 385.368 727.905 401.288 758.815 C 404.593 765.231 421.727 765.273 429.381 765.679 C 429.213 779.794 428.732 793.903 427.938 807.997 C 400.779 809.842 383.302 810.337 357.425 801.426 C 354.484 774.618 356.647 742.883 357.343 715.808 C 357.598 705.905 360.569 690.151 359.695 680.476 z"/>
<path transform="translate(0,0)" fill="rgb(95,93,92)" d="M 359.695 680.476 C 360.9 678.491 362.438 674.918 364.6 675.066 C 374.261 675.731 423.368 678.654 429.128 680.677 L 432.234 684.758 C 425.882 689.062 367.373 685.11 359.695 680.476 z"/>
<path transform="translate(0,0)" fill="rgb(119,104,96)" d="M 455.47 747.31 C 454.735 752.337 455.484 752.454 452.579 755.864 C 447.087 757.442 417.636 754.316 411.251 752.542 C 408.872 750.572 407.658 749.997 406.877 747.031 C 409.104 740.298 414.385 741.063 420.017 742.026 C 428.975 742.215 449.892 740.989 455.47 747.31 z"/>
<path transform="translate(0,0)" fill="rgb(175,174,175)" d="M 420.017 742.026 C 428.975 742.215 449.892 740.989 455.47 747.31 C 454.33 749.414 454.347 749.256 452.384 750.676 C 444.632 750.044 434.246 747.27 426.465 745.837 C 421.998 745.015 421.694 744.795 420.017 742.026 z"/>
<path transform="translate(0,0)" fill="rgb(175,174,175)" d="M 348.614 643.898 C 366.658 643.633 392.684 646.811 411.392 648.177 C 424.684 649.148 450.874 650.756 462.533 653.223 C 468.923 659.005 474.27 665.577 473.886 674.428 C 472.956 695.895 472.746 817.125 465.275 830.954 C 465.024 830.686 464.757 830.431 464.52 830.15 C 461.097 826.081 463.717 770.04 464.041 761.455 C 466.644 754.192 466.79 749.285 464.78 741.956 C 464.443 728.113 465.089 714.084 465.067 700.24 C 465.043 684.266 467.241 670.261 452.5 660.348 C 435.12 658.438 358.937 647.219 347.852 654.28 C 336.976 661.208 337.36 680.86 334.03 692.034 C 333.493 693.836 333.54 694.803 331.776 695.682 L 330.682 693.324 C 331.849 672.823 329.763 656.69 348.614 643.898 z"/>
<path transform="translate(0,0)" fill="rgb(70,61,54)" d="M 1763.08 1365.3 L 1795.14 1354.6 C 1797.7 1366.3 1798.26 1413.91 1800.98 1418.68 C 1797.85 1426.24 1796.71 1445.76 1795.17 1455.05 C 1786.98 1457.94 1778.53 1461.07 1770.26 1463.65 C 1759.83 1466.95 1747.53 1470.15 1737.54 1473.54 L 1727 1476.31 C 1723.9 1466.76 1720.57 1454.42 1715.15 1446.33 C 1704.37 1446.96 1700.82 1447.47 1690.74 1451.81 C 1686.86 1461.7 1685.08 1476.2 1681.22 1487.81 C 1662.53 1494.98 1622.06 1501.94 1601.05 1505.92 C 1596.15 1495.55 1593.52 1484.23 1587.29 1475.1 C 1546.04 1473.51 1555.3 1483.27 1544.03 1515.46 C 1535.63 1516.92 1530.09 1517.61 1521.58 1518.25 C 1517 1496.15 1509.17 1440.01 1499.21 1424.04 C 1520.81 1421.41 1640.83 1404.49 1649.69 1389.68 C 1654.45 1387.74 1665.09 1388.52 1668.87 1385.36 C 1676.94 1390.55 1718.92 1377.15 1730.08 1374.3 C 1741.75 1371.53 1751.59 1368.75 1763.08 1365.3 z"/>
<path transform="translate(0,0)" fill="rgb(95,93,92)" d="M 1763.08 1365.3 L 1795.14 1354.6 C 1797.7 1366.3 1798.26 1413.91 1800.98 1418.68 C 1797.85 1426.24 1796.71 1445.76 1795.17 1455.05 C 1786.98 1457.94 1778.53 1461.07 1770.26 1463.65 C 1759.83 1466.95 1747.53 1470.15 1737.54 1473.54 C 1736.82 1448.85 1734.5 1397.29 1730.08 1374.3 C 1741.75 1371.53 1751.59 1368.75 1763.08 1365.3 z"/>
<path transform="translate(0,0)" fill="rgb(70,61,54)" d="M 1763.08 1365.3 L 1795.14 1354.6 C 1797.7 1366.3 1798.26 1413.91 1800.98 1418.68 C 1797.85 1426.24 1796.71 1445.76 1795.17 1455.05 C 1786.98 1457.94 1778.53 1461.07 1770.26 1463.65 C 1769.65 1444.46 1766.44 1422.24 1765.81 1402.54 C 1765.65 1397.68 1763.87 1368.26 1763.08 1365.3 z"/>
<path transform="translate(0,0)" fill="rgb(119,104,96)" d="M 518.151 1110.02 C 516.308 1103.14 516.022 1096.14 519.867 1089.84 C 528.105 1076.33 588.493 1025.8 602.899 1015.99 C 606.281 1013.68 610.766 1010.94 614.871 1010.24 C 619.33 1009.48 625.855 1012.33 629.377 1014.98 C 640.05 1023.02 692.093 1107.27 700.836 1123.74 C 703.239 1128.27 706.241 1133.72 706.663 1138.87 C 707.063 1143.75 705.667 1148.83 703.696 1153.24 C 703.44 1153.77 703.199 1154.31 702.927 1154.84 C 699.138 1162.15 632.44 1215.23 622.216 1222.3 C 618.423 1224.93 614.274 1227.33 609.861 1228.73 C 603.902 1230.61 597.33 1229.74 591.848 1226.78 C 578.072 1219.35 523.319 1125.47 518.151 1110.02 z"/>
<path transform="translate(0,0)" fill="rgb(0,0,0)" d="M 531.661 1100.14 C 538.543 1087.05 564.188 1060.28 576.505 1051.18 C 611.459 1025.35 616.347 1041.07 635.891 1070.43 C 642.457 1066.29 644.2 1065.53 651.881 1064.08 C 660.187 1067.03 662.684 1070.57 665.721 1078.76 C 664.82 1089.58 664.091 1091.51 655.34 1098.85 L 654.355 1099.67 C 679.693 1146.12 695.46 1140.57 648.146 1180.72 C 610.696 1212.5 601.595 1226.37 571.596 1175.06 C 569.545 1171.55 564.791 1163.55 562.421 1160.48 C 553.77 1147.43 534.578 1114.65 531.661 1100.14 z"/>
<path transform="translate(0,0)" fill="rgb(70,61,54)" d="M 604.839 1051.03 L 607.317 1051.1 C 611.518 1055.69 622.708 1073.3 626.963 1079.65 C 623.186 1083.23 616.943 1088.84 612.604 1092.36 C 600.68 1102.02 600.969 1120.15 618.226 1122.54 C 628.022 1123.9 636.501 1115.81 643.688 1109.58 C 651.831 1123.75 660.06 1130.88 665.739 1147.26 C 645.232 1159.44 639.735 1159.63 621.492 1177.55 C 614.445 1184.86 610.609 1190.21 604.651 1198.33 C 589.865 1184.02 555.092 1124.32 544.03 1104.23 C 561.164 1080.53 577.22 1061.14 604.839 1051.03 z"/>
<path transform="translate(0,0)" fill="rgb(119,104,96)" d="M 631.28 1088.67 C 637.62 1082.41 641.36 1078.54 649.908 1075.78 C 653.9 1076.54 652.53 1075.53 654.678 1078.08 C 654.976 1081.74 655.11 1081.7 654.079 1085.42 C 645.275 1092.36 627.901 1110.21 619.586 1112.34 C 616.196 1111.4 617.719 1112.33 615.448 1108.61 C 615.53 1103.18 626.776 1091.66 631.28 1088.67 z"/>
<path transform="translate(0,0)" fill="rgb(175,174,175)" d="M 631.28 1088.67 C 637.62 1082.41 641.36 1078.54 649.908 1075.78 C 653.9 1076.54 652.53 1075.53 654.678 1078.08 C 654.976 1081.74 655.11 1081.7 654.079 1085.42 C 642.585 1083.61 637.354 1091.21 631.28 1088.67 z"/>
<path transform="translate(0,0)" fill="rgb(175,174,175)" d="M 518.151 1110.02 C 516.308 1103.14 516.022 1096.14 519.867 1089.84 C 528.105 1076.33 588.493 1025.8 602.899 1015.99 C 606.281 1013.68 610.766 1010.94 614.871 1010.24 C 619.33 1009.48 625.855 1012.33 629.377 1014.98 C 640.05 1023.02 692.093 1107.27 700.836 1123.74 C 703.239 1128.27 706.241 1133.72 706.663 1138.87 C 707.063 1143.75 705.667 1148.83 703.696 1153.24 C 702.738 1151.84 696.593 1137.97 695.437 1135.33 C 689.435 1121.61 666.958 1094.98 665.993 1082.22 L 665.721 1078.76 C 662.684 1070.57 660.187 1067.03 651.881 1064.08 C 645.41 1051.23 631.803 1028.68 618.433 1022.53 C 609.661 1018.5 598.723 1024.92 592.183 1030.68 C 570.528 1049.76 547.191 1067.29 527.241 1088.2 C 520.719 1095.04 522.61 1103.72 518.151 1110.02 z"/>
<path transform="translate(0,0)" fill="rgb(175,174,175)" d="M 531.661 1100.14 C 534.578 1114.65 553.77 1147.43 562.421 1160.48 C 561.601 1163.79 562.508 1162.75 560.445 1164.62 C 553.562 1159.25 529.959 1118.71 527.139 1109.6 C 527.31 1105.83 529.517 1103.35 531.661 1100.14 z"/>
<path transform="translate(0,0)" fill="rgb(95,93,92)" d="M 739.697 972.846 C 773.631 960.5 812.213 949.543 848.551 955.569 C 854.365 959.716 858.576 964.852 863.142 970.28 C 882.93 993.8 903.893 1016.1 924.864 1038.53 C 929.181 1043.14 933.858 1051.27 936.639 1056.95 C 897.414 1032.91 820.18 1064.16 781.824 1081.71 C 761.572 1091.01 732.498 1109.12 713.391 1121.16 C 693.508 1086.42 672.21 1052.51 649.548 1019.51 C 678.724 1003.69 707.492 983.48 739.697 972.846 z"/>
<path transform="translate(0,0)" fill="rgb(70,61,54)" d="M 649.548 1019.51 C 678.724 1003.69 707.492 983.48 739.697 972.846 C 740.3 987.454 745.941 1005.23 751.938 1018.55 C 764.944 1022.67 769.413 1032.7 759.71 1043.24 C 765.44 1055.42 772.793 1072.02 781.824 1081.71 C 761.572 1091.01 732.498 1109.12 713.391 1121.16 C 693.508 1086.42 672.21 1052.51 649.548 1019.51 z"/>
<path transform="translate(0,0)" fill="rgb(0,0,0)" d="M 751.938 1018.55 C 764.944 1022.67 769.413 1032.7 759.71 1043.24 C 749.354 1047.46 736.759 1045.34 735.559 1032.52 C 735.267 1029.12 736.36 1025.75 738.588 1023.17 C 742.478 1018.65 746.383 1018.78 751.938 1018.55 z"/>
<path transform="translate(0,0)" fill="rgb(38,37,37)" d="M 748.231 1028.43 C 750.6 1027.4 753.362 1028.4 754.514 1030.72 C 755.665 1033.03 754.801 1035.84 752.548 1037.11 C 750.986 1037.98 749.068 1037.93 747.558 1036.96 C 746.049 1036 745.194 1034.28 745.334 1032.5 C 745.475 1030.71 746.589 1029.15 748.231 1028.43 z"/>
<path transform="translate(0,0)" fill="rgb(0,0,0)" d="M 696.946 1045.08 C 718.018 1044.26 723.135 1063.21 708.269 1072.83 C 701.172 1073.58 695.382 1074.12 691.038 1067.59 C 684.749 1058.14 689.083 1050.61 696.946 1045.08 z"/>
<path transform="translate(0,0)" fill="rgb(38,37,37)" d="M 700.478 1055.72 C 702.712 1054.34 705.637 1055.05 706.998 1057.29 C 708.359 1059.53 707.636 1062.46 705.386 1063.8 C 703.155 1065.14 700.263 1064.42 698.913 1062.2 C 697.563 1059.98 698.262 1057.08 700.478 1055.72 z"/>
<path transform="translate(0,0)" fill="rgb(70,61,54)" d="M 1081.06 768 C 1124.26 764.637 1168.51 763.889 1210.76 753.318 C 1216.83 751.8 1225.08 749.38 1231.24 749.611 C 1237.44 755.645 1233.38 782.964 1234.3 791.839 C 1235.53 803.675 1245.64 811.713 1249.89 822.475 C 1252.86 830.01 1253.53 838.62 1254.57 846.651 C 1256.42 852.674 1259.55 859.299 1259.98 864.756 L 1259.09 866.188 L 1255.06 867.056 C 1251.48 866.423 1241.32 868.143 1237.57 868.98 C 1199.14 877.567 1161.82 895.036 1128.34 915.311 C 1079.24 856.718 1081.33 841.571 1081.06 768 z"/>
<path transform="translate(0,0)" fill="rgb(95,93,92)" d="M 1255.06 867.056 C 1250.45 863.029 1251.59 851.508 1254.57 846.651 C 1256.42 852.674 1259.55 859.299 1259.98 864.756 L 1259.09 866.188 L 1255.06 867.056 z"/>
<path transform="translate(0,0)" fill="rgb(0,0,0)" d="M 1138.13 783.503 C 1151.47 781.529 1218.52 787.254 1223.19 799.984 C 1219.81 803.844 1211.88 802.538 1206.49 803.162 C 1188.33 805.263 1171.65 811.198 1154.73 817.429 C 1150.21 819.404 1133.31 827.913 1129.29 824.773 C 1136.13 812.026 1176.52 798.764 1190.6 795.84 C 1176.81 791.922 1151.87 790.588 1139.49 786.318 L 1138.13 783.503 z"/>
<path transform="translate(0,0)" fill="rgb(0,0,0)" d="M 1191.31 819.429 C 1198.57 819.061 1220.41 820.316 1225.74 824.712 C 1222 827.619 1209.26 826.7 1204.2 826.643 C 1196.68 826.718 1175.74 828.711 1170.26 825.896 L 1170.42 824.514 C 1177.19 819.688 1182.86 820.174 1191.31 819.429 z"/>
<path transform="translate(0,0)" fill="rgb(70,61,54)" d="M 217.087 661.892 C 250.706 666.316 284.483 669.433 318.343 671.238 C 320.067 673.689 319.271 674.6 319.04 678.45 C 314.857 720.343 313.84 754.297 314.791 796.278 C 298.447 793.719 266.819 790.649 254.658 779.363 C 242.922 768.474 232.523 740.124 228.458 724.842 C 221.471 706.083 216.266 682.047 217.087 661.892 z"/>
<path transform="translate(0,0)" fill="url(#Gradient2)" d="M 217.087 661.892 C 250.706 666.316 284.483 669.433 318.343 671.238 C 320.067 673.689 319.271 674.6 319.04 678.45 C 288.867 675.683 258.758 673.762 229.017 668.141 C 226.43 667.652 223.386 667.954 220.856 668.724 C 217.153 676.576 233.868 711.88 228.458 724.842 C 221.471 706.083 216.266 682.047 217.087 661.892 z"/>
<path transform="translate(0,0)" fill="rgb(70,61,54)" d="M 498.893 1285.19 C 542.36 1302.75 547.662 1298.3 577.519 1263.81 C 581.563 1265.49 586.049 1267.78 590.049 1269.69 C 595.01 1270.79 593.899 1271 598.206 1275.19 C 575.007 1321.42 566.838 1362.19 564.928 1413.31 C 543.128 1405.66 506.376 1387.29 483.652 1377.11 C 483.358 1341.67 488.968 1318.58 498.893 1285.19 z"/>
<path transform="translate(0,0)" fill="rgb(70,61,54)" d="M 459.81 1205.01 C 478.132 1180.52 497.411 1159.99 516.071 1136.41 C 530.152 1162.52 557.482 1211.09 576.327 1233.12 C 570.626 1238.79 550.229 1262.07 546.276 1264.64 C 524.565 1280.53 484.56 1257.11 467.477 1241.92 C 458.443 1233.89 455.163 1227.77 453.18 1216.14 C 455.464 1211.43 456.833 1209.36 459.81 1205.01 z"/>
<path transform="translate(0,0)" fill="rgb(95,93,92)" d="M 459.81 1205.01 C 463.856 1210.4 459.901 1217.09 462.509 1223.43 C 472.223 1247.05 509.489 1259.59 532.343 1262.79 L 546.276 1264.64 C 524.565 1280.53 484.56 1257.11 467.477 1241.92 C 458.443 1233.89 455.163 1227.77 453.18 1216.14 C 455.464 1211.43 456.833 1209.36 459.81 1205.01 z"/>
<path transform="translate(0,0)" fill="rgb(95,93,92)" d="M 1448.98 1409.39 C 1460.29 1408.79 1473.3 1408.52 1484.4 1406.38 C 1488.98 1405.49 1494.53 1400.91 1498.86 1400.43 C 1515.84 1398.54 1532.44 1396.24 1549.25 1393.15 C 1605.5 1382.51 1661.27 1369.45 1716.39 1354 C 1749.8 1344.84 1787.53 1333.99 1819.11 1319.2 C 1833.09 1312.65 1832.96 1309.25 1842.04 1300.02 C 1843.5 1300.09 1843.89 1300.06 1845.43 1300.36 C 1847.85 1300.83 1850.32 1302.37 1851.44 1304.61 C 1852.47 1306.68 1852.47 1309.09 1851.92 1311.29 C 1845.32 1337.44 1731.64 1365.66 1706.1 1372.95 C 1694.69 1376.2 1679.43 1378.27 1669.59 1384.85 C 1669.35 1385.02 1669.11 1385.19 1668.87 1385.36 C 1665.09 1388.52 1654.45 1387.74 1649.69 1389.68 C 1635.63 1392.76 1618.89 1394.02 1604.13 1396.87 C 1554.95 1406.37 1507.5 1413.15 1457.75 1418.31 L 1448.98 1409.39 z"/>
<path transform="translate(0,0)" fill="rgb(70,61,54)" d="M 1428.3 1448.8 C 1436.13 1443.74 1440.8 1439.63 1447.61 1433.18 C 1450.35 1464.19 1454.18 1513.62 1454.53 1544.38 C 1449.71 1548.72 1445.31 1551.36 1439.52 1554.28 C 1433.39 1558.1 1428.53 1560.31 1422 1563.37 L 1412.85 1567.68 C 1409.22 1556.76 1407.9 1544.44 1399.98 1536.42 C 1396.22 1514.3 1398.14 1490.77 1392.75 1465.8 C 1397.34 1464.34 1406.19 1460.24 1410.96 1458.2 C 1412.94 1456.74 1425.4 1450.35 1428.3 1448.8 z"/>
<path transform="translate(0,0)" fill="rgb(95,93,92)" d="M 1428.3 1448.8 C 1436.13 1443.74 1440.8 1439.63 1447.61 1433.18 C 1450.35 1464.19 1454.18 1513.62 1454.53 1544.38 C 1449.71 1548.72 1445.31 1551.36 1439.52 1554.28 C 1437.69 1530.3 1434.84 1506.21 1432.92 1482.22 C 1432.03 1471.04 1430.69 1459.76 1428.3 1448.8 z"/>
<path transform="translate(0,0)" fill="rgb(95,93,92)" d="M 1410.96 1458.2 C 1414.55 1468.42 1421.32 1547.08 1422 1563.37 L 1412.85 1567.68 C 1409.22 1556.76 1407.9 1544.44 1399.98 1536.42 C 1396.22 1514.3 1398.14 1490.77 1392.75 1465.8 C 1397.34 1464.34 1406.19 1460.24 1410.96 1458.2 z"/>
<path transform="translate(0,0)" fill="rgb(95,93,92)" d="M 1858.85 1323.31 C 1860.8 1351.52 1862.63 1399.35 1861.96 1427.41 L 1850.27 1433.55 C 1845.92 1435.75 1841.34 1438.2 1836.95 1440.24 C 1834.52 1441.86 1833.96 1442.57 1831.09 1442.91 C 1820.13 1436.24 1832.75 1402.45 1800.98 1418.68 C 1798.26 1413.91 1797.7 1366.3 1795.14 1354.6 C 1807.83 1350.82 1819.17 1345.85 1831.11 1340.35 C 1833.35 1338.74 1841.27 1335.06 1844.16 1333.63 C 1849.92 1329.95 1853.52 1327.57 1858.85 1323.31 z"/>
<path transform="translate(0,0)" fill="rgb(95,93,92)" d="M 1858.85 1323.31 C 1860.8 1351.52 1862.63 1399.35 1861.96 1427.41 L 1850.27 1433.55 C 1847.42 1400.88 1847.68 1365.56 1844.16 1333.63 C 1849.92 1329.95 1853.52 1327.57 1858.85 1323.31 z"/>
<path transform="translate(0,0)" fill="rgb(70,61,54)" d="M 1831.11 1340.35 C 1833.35 1338.74 1841.27 1335.06 1844.16 1333.63 C 1847.68 1365.56 1847.42 1400.88 1850.27 1433.55 C 1845.92 1435.75 1841.34 1438.2 1836.95 1440.24 L 1834.03 1378.98 C 1833.66 1371.09 1832.91 1346.66 1831.11 1340.35 z"/>
<path transform="translate(0,0)" fill="rgb(70,61,54)" d="M 1179.58 1056.77 L 1181.65 1057.01 C 1209.54 1075.53 1176.72 1110.42 1164.34 1127.51 C 1153.52 1142.46 1150.13 1146.56 1133.44 1138.04 C 1124.49 1132.76 1119.72 1129.35 1112.54 1121.92 C 1123.98 1098.58 1158.65 1071.41 1179.58 1056.77 z"/>
<path transform="translate(0,0)" fill="rgb(70,61,54)" d="M 719.694 1146.43 C 744.975 1168.8 722.213 1192.04 707.599 1211.32 C 704.32 1215.64 699.226 1222.81 695.472 1226.5 C 679.834 1241.89 678.597 1255.61 654.955 1248.44 C 649.131 1245.85 646.133 1244.23 640.662 1240.98 C 656.953 1216.47 678.323 1191.18 702.601 1174.67 C 714.46 1166.61 716.681 1159.75 719.694 1146.43 z"/>
<path transform="translate(0,0)" fill="rgb(70,61,54)" d="M 811.955 486.399 L 812.353 486.872 C 812.507 494.768 810.832 507.907 810.016 516.113 L 805.261 564.602 C 802.95 589.084 802.421 615.338 799.74 639.189 L 789.485 644.05 C 789.377 643.938 789.247 643.844 789.159 643.715 C 786.569 639.95 794.131 507.046 796.26 491.773 C 801.906 490.059 806.437 488.47 811.955 486.399 z"/>
<path transform="translate(0,0)" fill="rgb(70,61,54)" d="M 801.048 442.917 C 817.286 433.497 991.127 419.808 1012.36 423.419 C 1013.14 426.311 1012.89 426.212 1011.84 429.099 C 1011.17 429.583 1010.49 430.067 1009.81 430.552 C 997.874 430.262 981.993 430.335 970.495 430.877 C 922.819 433.126 875.642 434.954 828.466 442.547 C 824.889 443.123 816.837 443.984 813.074 444.464 C 811.657 444.644 811.233 448.182 810.907 449.855 L 810.48 447.983 C 807.496 446.174 804.3 444.016 801.048 442.917 z"/>
<path transform="translate(0,0)" fill="rgb(70,61,54)" d="M 1252.05 450.515 L 1252.5 451.046 C 1253.57 455.79 1251.25 468.773 1250.45 474.026 C 1246.17 500.702 1242.77 527.513 1240.27 554.414 C 1239.08 566.555 1238.33 581.168 1237.11 593.514 C 1236.9 595.581 1233.27 596.86 1231.11 598.015 C 1230.25 596.93 1230 594.929 1230.13 593.563 C 1234.44 548.911 1237 503.841 1241.22 459.225 C 1246.33 455.863 1247.66 455.016 1252.05 450.515 z"/>
<path transform="translate(0,0)" fill="rgb(70,61,54)" d="M 459.724 1256.33 C 466.666 1260.35 479.404 1270.32 488.344 1275.84 C 482.27 1294.83 478.436 1308.71 473.921 1328.21 L 470.45 1346.83 C 466.644 1318.86 461.934 1284.3 459.724 1256.33 z"/>
<path transform="translate(0,0)" fill="rgb(95,93,92)" d="M 276.406 644.614 C 277.579 642.052 278.308 639.461 280.576 638.053 C 295.076 652.409 307.832 651.197 325.969 658.338 C 316.252 658.114 308.726 657.176 299.135 656.014 C 291.399 655.928 283.685 657.344 277.399 653.725 C 275.235 649.766 276.086 649.996 276.406 644.614 z"/>
<path transform="translate(0,0)" fill="rgb(70,61,54)" d="M 276.406 644.614 C 283.512 649.222 295.235 652.813 299.135 656.014 C 291.399 655.928 283.685 657.344 277.399 653.725 C 275.235 649.766 276.086 649.996 276.406 644.614 z"/>
<path transform="translate(0,0)" fill="url(#Gradient1)" d="M 448.549 1162.96 C 455.737 1167.51 459.531 1169.85 467.903 1171.25 L 460.303 1182.25 L 454.893 1188.27 C 454.712 1187.91 454.531 1187.54 454.351 1187.18 L 453.5 1185.35 C 449.692 1177.24 449.609 1171.72 448.549 1162.96 z"/>
<path transform="translate(0,0)" fill="rgb(70,61,54)" d="M 801.048 442.917 C 804.3 444.016 807.496 446.174 810.48 447.983 L 810.907 449.855 C 814.894 454.741 818.827 454.679 825.361 455.991 L 816.77 456.845 C 818.75 459.151 819.826 458.812 821.717 460.606 L 815.039 460.956 C 810.165 458.697 806.074 457.498 800.996 455.896 L 801.048 442.917 z"/>
<path transform="translate(0,0)" fill="rgb(38,37,37)" d="M 590.049 1269.69 C 597.552 1266.43 601.647 1262.58 607.818 1257.25 C 605.051 1262.48 601.197 1270.34 598.206 1275.19 C 593.899 1271 595.01 1270.79 590.049 1269.69 z"/>
<path transform="translate(0,0)" fill="rgb(70,61,54)" d="M 799.142 471.954 C 803.076 473.028 806.226 473.708 808.702 476.56 L 807.519 478.319 C 804.137 479.365 803.434 479.68 799.778 479.855 C 797.805 477.253 798.756 476.33 799.142 471.954 z"/>
</svg>