<svg version="1.1" xmlns="http://www.w3.org/2000/svg" style="display: block;" viewBox="0 0 2048 2048" width="1024" height="1024" preserveAspectRatio="none">
<path transform="translate(0,0)" fill="rgb(14,16,17)" d="M 1001.65 88.4366 C 1016.31 82.8047 1031.69 82.0542 1046.31 88.3847 L 1051.9 91.1809 C 1059.2 94.6826 1082.45 105.077 1086.54 110.602 C 1099.35 127.885 1108.81 130.902 1126.05 142.631 C 1129.21 144.241 1132.78 145.455 1134.17 148.507 C 1133.12 151.697 1133.28 150.747 1129.43 152.987 C 1130.69 155.797 1130.83 155.429 1133.23 157.72 C 1146.14 172.076 1155.28 194.665 1165.55 211.807 C 1172.18 222.876 1182.57 237.749 1187.93 248.423 L 1187.34 249.703 C 1183.83 249.47 1182.26 247.782 1179.38 245.662 C 1179.47 249.934 1179.35 251.173 1180.46 255.211 C 1186.81 270.954 1191.48 282.678 1199.16 297.765 C 1205.16 309.548 1216.03 326.596 1220.67 337.884 L 1221.42 341.468 C 1218.48 344.372 1213.37 341.579 1209.72 340.333 C 1216.58 358.951 1221.95 387.34 1220.85 407.269 C 1221 417.071 1219.12 423.837 1217.2 433.38 C 1215.69 440.882 1213.69 446.791 1221.13 450.735 C 1232.53 452.701 1262.9 468.233 1274.7 474.389 L 1262.71 481.993 C 1273.46 481.733 1325.18 487.516 1324.07 499.745 C 1320.81 501.92 1317.54 504.067 1314.24 506.186 C 1327.48 510.666 1366.9 545.276 1362.97 559.508 L 1361.4 560.507 L 1337.14 552.483 C 1356.98 572.412 1363.6 580.373 1376.15 605.42 C 1373.65 613.273 1369.78 611.637 1361.88 611.916 C 1373.66 629.515 1377.28 637.54 1383.68 658.001 L 1364.36 650.011 L 1365.46 651.449 C 1372.58 660.606 1379.29 666.332 1386.84 674.504 C 1401.52 690.403 1405.76 717.78 1409.63 738.712 C 1409.17 743.541 1409.99 743.559 1407.44 746.525 C 1405.41 746.915 1404.13 747.192 1402.09 747.419 C 1413.58 765.262 1424.94 804.891 1429.97 825.875 C 1417.22 822.333 1406.06 817.845 1396.56 808.125 L 1399.84 816.72 C 1415.1 855.232 1422.39 889.67 1426.82 931.017 C 1428.62 947.82 1429 965.006 1430.87 981.731 C 1433.9 1008.76 1438.25 1031.95 1438.58 1059.3 C 1426.73 1051.97 1417.99 1042.22 1408.68 1031.92 C 1413.37 1082.01 1415.1 1149.9 1412.8 1199.65 C 1412.14 1209.14 1411.57 1216.44 1409.68 1225.87 C 1408.9 1229.81 1406.89 1236.36 1406.43 1239.66 C 1414.82 1299.35 1415.74 1329.65 1414.84 1390.21 C 1414 1403.86 1413.48 1426.71 1408.68 1439.19 C 1411.33 1449.75 1412.38 1470.22 1413.6 1481.91 C 1415.51 1500.27 1417.9 1514.12 1422.19 1532.32 C 1412.4 1526.27 1402.38 1518.84 1393.23 1511.79 C 1412.71 1545.78 1419.5 1567.18 1421.76 1606.72 C 1422.77 1624.42 1426.11 1643.02 1426.69 1660.87 C 1428.24 1683.08 1428.75 1705.39 1431.83 1727.45 C 1436.12 1759.39 1447.56 1791.18 1452.28 1822.59 C 1429.25 1802.63 1423.95 1781.07 1408.26 1758.35 C 1414.31 1785.18 1418.67 1814.37 1425.87 1841.27 C 1431.23 1861.32 1464.87 1947.66 1461.14 1961.31 C 1455.8 1963.33 1451.45 1960.87 1446.01 1958.72 C 1421.11 1948.88 1399.1 1917.52 1387.95 1894.4 C 1383.91 1886.02 1389.11 1866.48 1391.55 1856.73 C 1387.91 1862.56 1382.83 1871.36 1378.35 1876.12 L 1376.89 1876.07 C 1371.11 1867.22 1364.57 1845.43 1360.35 1835.07 C 1358.93 1831.57 1357.3 1825.1 1355.39 1822.17 C 1353.12 1847.3 1353.88 1863.37 1356.04 1888.71 C 1357.47 1905.48 1359.12 1924.43 1357.9 1941.02 C 1342.49 1918.11 1323.13 1863.82 1317.5 1835.51 C 1316.81 1832.06 1319.57 1814.66 1320.41 1810.01 C 1317.56 1813.12 1311.7 1821.6 1308.95 1825.36 C 1301.75 1815.05 1297.18 1805.62 1292.22 1794.11 C 1281.94 1828.64 1282.12 1867.17 1272.89 1896.82 C 1259.5 1868.06 1256.88 1819.8 1255.17 1787.79 C 1254.41 1773.56 1255.71 1758.95 1253.32 1744.54 C 1247.55 1766.4 1246.05 1780.24 1229.82 1796.75 C 1208.8 1781.89 1208.3 1743.5 1206.59 1719.98 C 1202.54 1734.91 1200.55 1742.88 1192.14 1755.73 C 1181.66 1739.41 1179.01 1713.79 1177.55 1694.94 C 1176.07 1703.61 1172.26 1725.3 1165.04 1730.41 C 1158 1729.19 1158.98 1715.29 1154.06 1712.12 C 1150.05 1717.12 1147.38 1745.34 1142.96 1757.91 C 1130.15 1736.99 1127.41 1705.3 1125.31 1681.37 L 1120.85 1680.52 C 1118.05 1677.18 1116.97 1673.05 1115.45 1668.88 C 1114.98 1689.14 1114.37 1703.89 1106.55 1722.62 C 1100.08 1708.8 1098.16 1698.52 1096.46 1683.22 C 1091.63 1701.81 1091.1 1716.63 1087.41 1734.74 C 1084.26 1731.54 1081.33 1729.58 1077.73 1726.95 C 1079.02 1749.33 1076.28 1767.07 1072.21 1788.83 C 1047.72 1764.16 1051.06 1725.78 1056.49 1694.55 C 1053.29 1699.46 1044.92 1713.36 1040.6 1716.58 L 1038.84 1716.02 C 1029.53 1700.44 1035.65 1672.64 1035.85 1654.94 C 1035.94 1646.66 1035.57 1641.77 1034.7 1633.41 C 1032.64 1644.88 1030.46 1653.26 1026.41 1664.11 L 1019.86 1654.68 C 1020.37 1662.97 1020.66 1671.28 1020.72 1679.59 C 1020.76 1694.21 1018.95 1751.82 1010.5 1760.32 C 1008.67 1760.42 1008.66 1760.78 1007.52 1759.7 C 992.6 1745.72 990.961 1720.67 988.567 1702.86 C 984.897 1709.98 981.677 1717.75 978.467 1725.13 C 975.131 1710.92 973.553 1698.69 971.573 1684.25 C 964.649 1723.15 970.666 1739.23 936.852 1769.05 C 929.686 1745.97 939.483 1694 936.586 1685.87 C 933.43 1687.49 933.276 1688.11 930.048 1687.99 C 926.34 1684.58 924.492 1680.1 922.119 1675.55 C 920.395 1689.37 921.083 1718.08 916.023 1730.12 C 912.386 1730.44 913.763 1728.47 908.836 1725.74 C 906.677 1730.47 908.765 1741.25 903.696 1754.06 C 899.693 1764.17 882.837 1798.53 874.547 1802.08 L 873.116 1801.38 C 865.782 1788.11 874.345 1751.26 875.079 1737.03 C 875.617 1726.6 874.585 1715.95 872.929 1705.68 C 867.444 1713.7 863.322 1722.58 860.728 1731.94 C 859.397 1736.6 858.733 1741.99 856.51 1746.02 L 855.054 1746.32 C 847.833 1738.26 842.742 1710.74 840.013 1699.86 C 839.033 1720.44 839.801 1741.95 836.598 1762.17 C 835.284 1770.47 827.285 1792.37 818.986 1794.75 C 805.002 1792.73 797.328 1753.08 794.796 1750.06 C 792.298 1754.71 791.608 1798.37 791.134 1806.67 C 789.279 1839.15 785.606 1865.91 774.415 1896.82 C 764.42 1864.26 766.961 1829.22 754.878 1793.9 C 749.674 1805.36 745.234 1814.02 739.377 1825.2 C 736.284 1820.74 731.506 1813.34 727.829 1809.74 L 726.763 1810.06 C 727.764 1815.9 730.767 1832.25 729.609 1836.81 C 722.466 1864.97 706.427 1917.06 691.396 1939.72 L 690.622 1940.9 L 690.149 1941.6 C 688.833 1900.63 695.646 1862.38 692.706 1821.9 C 690.12 1826.18 686.669 1836.69 684.762 1841.76 C 680.322 1853.55 676.446 1864.2 670.885 1875.6 C 664.525 1869.21 658.583 1858.93 653.679 1851.08 C 666.13 1890.42 661.423 1899.38 635.428 1932.14 C 622.033 1949.02 607.605 1959.75 585.748 1961.76 C 590.351 1922.58 612.686 1875.59 623.37 1836.61 C 630.711 1809.83 632.973 1781.97 639.775 1755.95 C 627.566 1778.29 614.519 1804.84 595.674 1821.76 C 599.762 1790.29 611.889 1758.08 616.029 1726.84 C 620.637 1686.77 622.033 1646.53 625.976 1606.31 C 629.916 1566.13 633.831 1547.04 653.784 1512.05 C 644.02 1520.48 637.667 1525.28 626.367 1531.43 C 633.648 1494.25 635.394 1475.91 638.682 1438.54 C 634.425 1421.74 633.104 1408.47 632.798 1391.19 C 632.083 1388.12 632.02 1368.97 631.99 1365.19 C 631.663 1323.8 633.456 1280.88 640.964 1240.1 C 637.158 1226.41 635.593 1214.93 635.043 1200.86 C 631.881 1140.03 635.089 1091.19 640.004 1031.49 C 629.551 1041.98 621.852 1050.93 609.033 1058.41 C 608.996 1053.5 609.265 1047.17 609.892 1042.27 C 618.645 973.735 618.006 903.775 640.386 837.643 C 643.64 828.025 647.376 819.17 650.128 809.399 C 637.938 820.033 633.454 821.737 618.234 825.938 C 623.307 801.46 632.633 766.766 647.176 746.469 C 643.607 746.229 643.22 746.312 639.692 745.218 C 637.747 742.087 638.397 742.826 638.511 738.43 C 639.923 721.604 647.73 688.524 659.167 675.656 C 665.772 668.225 676.176 658.92 683.593 651.176 C 679.595 652.309 672.7 653.93 669.276 655.899 C 667.29 657.041 669.193 656.468 665.959 657.595 L 665.026 656.473 C 664.152 646.207 680.629 619.871 686.447 611.208 C 682.161 611.249 678.893 611.575 674.763 610.367 C 672.27 607.592 673.128 609.277 673.088 604.701 C 677.496 587.762 697.295 566.334 708.958 552.991 C 700.582 555.509 692.696 558.181 684.173 560.596 C 684.499 558.92 684.887 557.256 685.335 555.608 C 691.174 534.476 714.9 516.532 732.895 506.072 C 730.364 504.262 728.108 502.365 725.694 500.408 L 724.123 498.349 L 724.567 496.096 C 733.919 487.493 771.634 481.874 785.203 481.929 C 781.392 479.25 776.923 476.554 772.954 474.035 C 791.945 467.347 804.71 456.917 825.996 450.781 C 828.036 449.557 828.628 449.036 830.462 447.493 C 832.616 440.551 825.982 419.599 826.233 404.876 C 825.918 383.973 829.219 358.988 838.002 339.856 C 834.264 341.047 829.676 343.086 826.196 341.005 L 826.583 338.226 C 832.71 323.669 845.361 304.031 852.523 289.057 C 857.981 277.646 861.856 265.882 867.294 255.056 C 868.358 251.646 869.421 250.478 868.577 247.689 L 865.924 248.14 C 862.021 249.66 863.796 249.717 860.39 249.037 L 860.098 246.76 C 862.114 241.551 876.699 221.414 881.057 214 C 890.636 197.704 901.713 171.312 914.606 158.448 C 916.642 155.339 916.239 156.934 916.479 153.674 C 914.704 151.615 913.868 150.856 912.599 148.44 L 914.185 146.588 C 931.843 137.145 941.291 130.383 955.856 116.593 C 965.55 104.556 980.709 97.5425 994.371 91.4732 L 1001.65 88.4366 z"/>
<path transform="translate(0,0)" fill="rgb(69,80,85)" d="M 1377.11 1434.36 C 1387.64 1441.41 1397.27 1447.94 1408.68 1439.19 C 1411.33 1449.75 1412.38 1470.22 1413.6 1481.91 C 1415.51 1500.27 1417.9 1514.12 1422.19 1532.32 C 1412.4 1526.27 1402.38 1518.84 1393.23 1511.79 C 1412.71 1545.78 1419.5 1567.18 1421.76 1606.72 C 1422.77 1624.42 1426.11 1643.02 1426.69 1660.87 C 1428.24 1683.08 1428.75 1705.39 1431.83 1727.45 C 1436.12 1759.39 1447.56 1791.18 1452.28 1822.59 C 1429.25 1802.63 1423.95 1781.07 1408.26 1758.35 C 1414.31 1785.18 1418.67 1814.37 1425.87 1841.27 C 1431.23 1861.32 1464.87 1947.66 1461.14 1961.31 C 1455.8 1963.33 1451.45 1960.87 1446.01 1958.72 C 1421.11 1948.88 1399.1 1917.52 1387.95 1894.4 C 1383.91 1886.02 1389.11 1866.48 1391.55 1856.73 C 1387.91 1862.56 1382.83 1871.36 1378.35 1876.12 L 1376.89 1876.07 C 1371.11 1867.22 1364.57 1845.43 1360.35 1835.07 C 1358.93 1831.57 1357.3 1825.1 1355.39 1822.17 C 1353.12 1847.3 1353.88 1863.37 1356.04 1888.71 C 1357.47 1905.48 1359.12 1924.43 1357.9 1941.02 C 1342.49 1918.11 1323.13 1863.82 1317.5 1835.51 C 1316.81 1832.06 1319.57 1814.66 1320.41 1810.01 C 1317.56 1813.12 1311.7 1821.6 1308.95 1825.36 C 1301.75 1815.05 1297.18 1805.62 1292.22 1794.11 C 1291.43 1787.71 1287.42 1780.52 1286.98 1772.01 C 1285.67 1746.08 1290.09 1724 1288.76 1697.79 C 1278.76 1716.14 1276.56 1732.14 1272.42 1752.58 C 1245.7 1716.7 1242.16 1673.5 1236.29 1630.91 C 1243.56 1638.02 1257.69 1652.9 1268.81 1649.37 C 1276.11 1647.05 1279.08 1639.78 1282.36 1633.48 C 1287.58 1678.56 1295.82 1723.9 1313.31 1765.99 C 1305.88 1731.66 1299.94 1699.55 1295.23 1664.64 C 1290.77 1631.62 1288.95 1611.96 1293.44 1578.86 C 1304.96 1603.86 1319.48 1631.11 1342.89 1646.94 C 1356.19 1655.95 1369.81 1659.99 1379.58 1644.49 C 1388.34 1664.35 1393.5 1681.32 1403.93 1701.57 C 1397.68 1674.57 1388.73 1645.97 1383.06 1619.18 C 1380.92 1609.05 1380.06 1577.71 1379.58 1566.18 C 1377.75 1522.54 1377.74 1478.16 1377.11 1434.36 z"/>
<path transform="translate(0,0)" fill="rgb(14,16,17)" d="M 1334.88 1656.03 C 1343.66 1669.04 1352.53 1682.68 1360.94 1695.98 C 1375.54 1719.08 1395.89 1740.14 1409.94 1763.13 C 1395.21 1752.03 1388.04 1747.09 1375.37 1733.76 C 1386.22 1789.63 1406.18 1840.98 1421.84 1894.36 C 1397.16 1854.27 1383.86 1804.32 1369.53 1759.69 C 1360.73 1732.29 1363.98 1719.22 1345.55 1695.04 C 1343.89 1722.29 1341.68 1751.64 1343.45 1778.97 C 1343.99 1787.22 1350.74 1816.26 1355.39 1822.17 C 1353.12 1847.3 1353.88 1863.37 1356.04 1888.71 C 1357.47 1905.48 1359.12 1924.43 1357.9 1941.02 C 1342.49 1918.11 1323.13 1863.82 1317.5 1835.51 C 1316.81 1832.06 1319.57 1814.66 1320.41 1810.01 C 1334.09 1795.7 1331.11 1783.51 1331.28 1764.99 C 1331.61 1729.16 1328.69 1691.53 1334.88 1656.03 z"/>
<path transform="translate(0,0)" fill="rgb(69,80,85)" d="M 638.682 1438.54 C 650.371 1448.53 659.231 1441.7 670.424 1434.54 C 670.736 1477.28 670.118 1520.03 668.571 1562.75 C 667.681 1583.79 667.882 1607.23 662.719 1627.62 C 656.634 1651.64 650.843 1675.9 644.224 1699.77 C 652.317 1689.13 662.819 1657.23 667.272 1643.64 C 686.138 1672.83 717.433 1637.63 730.488 1620.87 C 740.636 1607.83 747.433 1594 754.563 1579.21 C 762.349 1636.97 748.027 1695 737.243 1751.64 C 736.9 1753.45 736.054 1758.33 736.814 1759.76 L 736.663 1758.18 L 737.965 1757.37 C 752.794 1713.36 760.84 1677.45 765.423 1630.79 C 778.207 1662.09 791.987 1649.56 811.656 1631.51 C 804.609 1674.07 801.475 1718.16 774.501 1755 C 773.086 1745.71 767.922 1707.84 760.49 1702.98 C 755.272 1706.07 760.118 1736.65 760.656 1743.02 C 762.185 1761.11 760.474 1776.62 754.878 1793.9 C 749.674 1805.36 745.234 1814.02 739.377 1825.2 C 736.284 1820.74 731.506 1813.34 727.829 1809.74 L 726.763 1810.06 C 727.764 1815.9 730.767 1832.25 729.609 1836.81 C 722.466 1864.97 706.427 1917.06 691.396 1939.72 L 690.622 1940.9 L 690.149 1941.6 C 688.833 1900.63 695.646 1862.38 692.706 1821.9 C 690.12 1826.18 686.669 1836.69 684.762 1841.76 C 680.322 1853.55 676.446 1864.2 670.885 1875.6 C 664.525 1869.21 658.583 1858.93 653.679 1851.08 C 666.13 1890.42 661.423 1899.38 635.428 1932.14 C 622.033 1949.02 607.605 1959.75 585.748 1961.76 C 590.351 1922.58 612.686 1875.59 623.37 1836.61 C 630.711 1809.83 632.973 1781.97 639.775 1755.95 C 627.566 1778.29 614.519 1804.84 595.674 1821.76 C 599.762 1790.29 611.889 1758.08 616.029 1726.84 C 620.637 1686.77 622.033 1646.53 625.976 1606.31 C 629.916 1566.13 633.831 1547.04 653.784 1512.05 C 644.02 1520.48 637.667 1525.28 626.367 1531.43 C 633.648 1494.25 635.394 1475.91 638.682 1438.54 z"/>
<path transform="translate(0,0)" fill="rgb(14,16,17)" d="M 712.305 1655.25 C 720.906 1698.24 715.525 1753.62 715.7 1797.63 C 718.774 1802.64 722.13 1806.48 726.763 1810.06 C 727.764 1815.9 730.767 1832.25 729.609 1836.81 C 722.466 1864.97 706.427 1917.06 691.396 1939.72 L 690.622 1940.9 L 690.149 1941.6 C 688.833 1900.63 695.646 1862.38 692.706 1821.9 C 694.847 1814.28 702.803 1793.15 703.537 1786.94 C 706.318 1763.43 704.827 1718.02 701.964 1694.97 C 683.44 1718.47 686.627 1736.22 677.461 1762.04 C 666.13 1793.94 647.829 1865.16 627.208 1890.86 C 628.941 1884.77 630.95 1878.73 632.915 1872.71 C 647.661 1827.56 661.982 1780.73 672.357 1734.35 C 660.504 1745.36 652.788 1752.74 639.763 1762.12 C 643.008 1756.12 647.147 1750.11 651.327 1744.73 C 673.837 1715.77 693.089 1686.43 712.305 1655.25 z"/>
<path transform="translate(0,0)" fill="rgb(69,80,85)" d="M 1001.65 88.4366 C 1016.31 82.8047 1031.69 82.0542 1046.31 88.3847 L 1051.9 91.1809 C 1059.2 94.6826 1082.45 105.077 1086.54 110.602 C 1099.35 127.885 1108.81 130.902 1126.05 142.631 C 1129.21 144.241 1132.78 145.455 1134.17 148.507 C 1133.12 151.697 1133.28 150.747 1129.43 152.987 C 1130.69 155.797 1130.83 155.429 1133.23 157.72 C 1146.14 172.076 1155.28 194.665 1165.55 211.807 C 1172.18 222.876 1182.57 237.749 1187.93 248.423 L 1187.34 249.703 C 1183.83 249.47 1182.26 247.782 1179.38 245.662 C 1179.47 249.934 1179.35 251.173 1180.46 255.211 C 1186.81 270.954 1191.48 282.678 1199.16 297.765 C 1205.16 309.548 1216.03 326.596 1220.67 337.884 C 1210.03 333.703 1198.43 323.811 1188.52 317.701 C 1196.79 333.487 1198.76 343.621 1193.26 361.454 C 1192.62 363.502 1191.95 365.538 1191.23 367.56 C 1177.51 347.998 1179.29 332.502 1171.36 315.826 C 1171.05 330.949 1171.3 340.223 1164.53 354.336 C 1159.78 346.844 1159.55 345.429 1156.27 337.935 C 1153.36 331.294 1148.77 305.85 1145.28 303.52 C 1143.14 316.766 1150.72 341.445 1141.83 351.688 C 1138.31 348.272 1137.24 336.387 1136.46 330.848 C 1133.58 310.47 1126.67 293.474 1120.62 274.159 C 1118.82 283.745 1116.68 298.637 1114.04 307.513 C 1111.63 293.663 1110.35 280.145 1108.06 266.636 C 1106.22 255.78 1101.14 239.284 1097.93 228.426 C 1095.82 232.387 1093.67 236.919 1090.89 240.363 C 1088.99 214.871 1087.76 207.138 1071.74 186.915 C 1072.9 193.409 1074.28 200.003 1074.66 206.576 C 1068.08 198.236 1062.55 189.736 1054.97 182.369 C 1055.65 190.826 1055.54 192.585 1054.73 200.894 C 1049.53 189.144 1042.81 173.176 1029.75 168.927 C 1009.88 162.459 997.452 186.071 991.902 200.553 C 991.592 194.619 991.193 188.507 990.994 182.586 C 985.14 189.72 977.221 198.835 972.009 206.194 C 973.009 199.85 973.977 192.768 975.291 186.544 C 958.389 205.631 957.187 216.542 955.662 241.695 C 953.267 237.374 950.429 232.601 948.515 228.102 C 944.317 241.909 940.336 257.074 937.918 271.275 C 935.885 283.219 935.364 296.156 933.115 307.99 C 929.259 295.958 927.957 287.346 926.438 274.754 C 920.719 289.179 916.853 300.128 913.639 315.266 C 912.434 320.943 909.62 341.822 908.122 345.942 L 907.346 343.69 C 906.26 346.188 905.536 348.246 904.043 350.515 L 904.246 351.466 C 905.154 356.068 905.512 355.965 904.357 360.351 L 902.974 360.631 C 899.346 356.662 897.333 351.521 894.968 346.598 C 891.683 352.921 889.471 360.185 881.945 361.361 C 876.397 359.278 875.093 355.662 872.374 350.519 C 868.75 358.36 863.73 373.752 854.544 374.886 C 846.46 370.524 845.283 348.285 844.706 340 L 843.54 339.101 L 838.002 339.856 C 834.264 341.047 829.676 343.086 826.196 341.005 L 826.583 338.226 C 832.71 323.669 845.361 304.031 852.523 289.057 C 857.981 277.646 861.856 265.882 867.294 255.056 C 868.358 251.646 869.421 250.478 868.577 247.689 L 865.924 248.14 C 862.021 249.66 863.796 249.717 860.39 249.037 L 860.098 246.76 C 862.114 241.551 876.699 221.414 881.057 214 C 890.636 197.704 901.713 171.312 914.606 158.448 C 916.642 155.339 916.239 156.934 916.479 153.674 C 914.704 151.615 913.868 150.856 912.599 148.44 L 914.185 146.588 C 931.843 137.145 941.291 130.383 955.856 116.593 C 965.55 104.556 980.709 97.5425 994.371 91.4732 L 1001.65 88.4366 z"/>
<path transform="translate(0,0)" fill="rgb(14,16,17)" d="M 1001.65 88.4366 C 1016.31 82.8047 1031.69 82.0542 1046.31 88.3847 L 1051.9 91.1809 C 1059.2 94.6826 1082.45 105.077 1086.54 110.602 C 1099.35 127.885 1108.81 130.902 1126.05 142.631 C 1129.21 144.241 1132.78 145.455 1134.17 148.507 C 1133.12 151.697 1133.28 150.747 1129.43 152.987 C 1130.69 155.797 1130.83 155.429 1133.23 157.72 C 1128.21 162.091 1123.55 160.771 1116.28 160.688 C 1118.33 165.982 1122.31 172.481 1114.88 175.817 C 1111.58 175.12 1110.88 174.853 1107.45 174.863 L 1106.1 176.333 C 1107.06 183.046 1125.09 198.755 1131.92 198.684 C 1134.58 190.993 1122.94 178.913 1123.55 173.767 C 1134.83 175.421 1151.47 221.677 1151.29 233.249 C 1151.17 240.298 1143.6 238.842 1139.33 241.833 C 1136.02 248.677 1145.66 263.904 1136.21 270.828 C 1128.33 272.185 1125.15 265.705 1121.11 259.791 C 1110.36 244.048 1105.39 230.053 1103.52 211.21 C 1114.64 232.757 1114.87 243.894 1132.95 264.157 C 1135.59 232.827 1122.69 233.34 1115.61 207.592 C 1120.97 213.254 1135.74 235.217 1144.11 232.486 C 1146.68 227.352 1142.4 217.742 1140.48 212.69 C 1136.34 201.831 1132.61 208.309 1129.66 206.537 C 1123.35 202.743 1118.13 197.576 1111 194.657 C 1091.53 203.45 1089.31 179.71 1076.84 178.87 C 1075.83 178.801 1074.81 178.754 1073.8 178.671 C 1059.89 177.54 1054.58 166.18 1045.58 157.542 C 1037.05 149.351 1032.77 148.809 1023.25 137.567 C 1018.08 143.666 1014.27 148.81 1007.65 153.283 C 994.072 162.461 985.366 180.666 967.152 178.575 C 964.563 178.278 953.325 198.294 941.186 197.531 C 938.678 195.874 938.474 195.638 935.69 194.63 C 913.07 214.899 906.46 194.241 902.754 235.43 C 916.07 228.606 920.949 220.175 931.092 209.414 C 929.508 219.712 923.064 227.489 918.937 237.088 C 914.674 247.006 913.982 253.286 913.412 263.832 C 930.53 244.548 931.303 234.751 943.042 213.831 C 942.063 222.803 941.172 228.199 937.848 236.789 C 935.069 243.971 917.89 276.373 909.043 271.485 C 902.565 260.049 910.805 250.547 910.175 239.745 C 905.516 240.021 905.409 241.411 900.324 240.291 C 888.807 231.49 902.42 212.023 907.085 202.959 C 906.258 187.285 914.691 178.138 926.655 169.303 C 923.118 179.189 914.403 187.504 914.727 198.167 C 924.221 201.599 938.885 182.167 943.157 174.937 C 936.943 176.007 931.901 177.653 928.907 170.878 C 928.924 166.05 930.177 163.958 931.997 159.544 C 926.566 159.402 918.742 160.481 914.606 158.448 C 916.642 155.339 916.239 156.934 916.479 153.674 C 914.704 151.615 913.868 150.856 912.599 148.44 L 914.185 146.588 C 931.843 137.145 941.291 130.383 955.856 116.593 C 965.55 104.556 980.709 97.5425 994.371 91.4732 L 1001.65 88.4366 z"/>
<path transform="translate(0,0)" fill="rgb(69,80,85)" d="M 1051.9 91.1809 C 1059.2 94.6826 1082.45 105.077 1086.54 110.602 C 1099.35 127.885 1108.81 130.902 1126.05 142.631 C 1129.21 144.241 1132.78 145.455 1134.17 148.507 C 1133.12 151.697 1133.28 150.747 1129.43 152.987 L 1124.83 152.571 C 1111 155.013 1105.4 147.033 1091.22 142.282 L 1089.8 141.812 C 1101.28 153.955 1104.21 150.452 1113.47 169.543 C 1097.22 165.824 1080.93 158.935 1068.65 147.521 C 1072.87 147.32 1081.63 147.603 1084.56 145.798 C 1084.72 140.765 1084.65 139.818 1086.64 135.248 C 1089.04 134.101 1089.88 133.681 1092.08 132.216 C 1092.82 126.066 1087.02 120.434 1082.99 115.173 C 1076.29 112.111 1070.69 110.369 1063.67 108.084 C 1069.8 114.408 1079.32 119.496 1084.11 127.314 L 1083.73 128.815 C 1074.61 130.337 1059.83 118.904 1052 117.512 L 1051.79 118.213 C 1056.39 124.079 1078.78 133.021 1078.67 140.091 C 1071.36 144.255 1054.84 135.287 1047.6 132.074 C 1049.22 137.816 1051.44 143.733 1047.25 148.554 L 1044.51 148.712 C 1036.43 145.116 1033.16 139.928 1027.45 133.12 C 1033.34 133.385 1042.61 134.202 1047.09 129.998 C 1048.54 125.61 1044.53 121.809 1045.48 119.568 C 1047.56 114.684 1057.87 116.024 1058.15 108.65 C 1055.08 103.327 1048.85 101.488 1043.21 99.0812 C 1047.91 96.0931 1048.68 95.666 1051.9 91.1809 z"/>
<path transform="translate(0,0)" fill="rgb(28,32,36)" d="M 1126.05 142.631 C 1129.21 144.241 1132.78 145.455 1134.17 148.507 C 1133.12 151.697 1133.28 150.747 1129.43 152.987 L 1124.83 152.571 C 1123.23 149.988 1122.97 149.802 1122.1 146.943 C 1123.52 144.381 1123.7 144.492 1126.05 142.631 z"/>
<path transform="translate(0,0)" fill="rgb(69,80,85)" d="M 994.371 91.4732 C 997.723 95.7354 999.317 96.2792 1004.03 98.9993 C 997.365 102.005 994.836 102.303 989.926 107.498 C 989.161 114.297 997.159 112.161 1000.46 117.855 C 999.975 121.696 998.297 125.662 999.427 129.106 C 1004.58 133.963 1013.09 133.109 1019.95 133.136 C 1015.79 138.293 1005.46 152.841 998.293 147.313 C 996.287 142.161 997.881 138.063 999.24 132.656 C 993.41 135.108 976.543 142.817 970.627 140.632 C 969.832 134.874 986.131 124.902 990.591 121.764 C 980.968 124.444 968.284 129.194 959.665 131.207 C 969.467 117.141 975.105 115.83 988.36 106.735 C 981.311 109.26 971.128 112.297 964.274 115.431 C 963.91 115.597 960.907 120.212 960.426 120.953 L 961.185 116.859 L 959.879 115.394 L 961.03 114.372 C 958.957 115.834 958.339 116.071 955.856 116.593 C 965.55 104.556 980.709 97.5425 994.371 91.4732 z"/>
<path transform="translate(0,0)" fill="rgb(69,80,85)" d="M 1001.65 88.4366 C 1016.31 82.8047 1031.69 82.0542 1046.31 88.3847 C 1042.67 91.8814 1035.05 94.6122 1030.17 96.6076 C 1034.74 99.808 1048.39 106.354 1048.22 111.276 C 1041.61 114.288 1031.23 112.879 1024.08 112.238 C 1029.68 115.374 1039.9 117.994 1040.86 124.583 C 1036.22 130.401 1008.54 129.676 1005.19 123.134 C 1007.75 116.358 1014.42 118.544 1020.57 113.539 C 1017.47 111.801 1004.67 112.554 995.425 109.66 C 1002.51 103.922 1010.53 100.098 1018.65 96.0836 C 1013.88 94.4197 1004.73 91.7369 1001.65 88.4366 z"/>
<path transform="translate(0,0)" fill="rgb(69,80,85)" d="M 955.856 116.593 C 958.339 116.071 958.957 115.834 961.03 114.372 L 959.879 115.394 L 961.185 116.859 L 960.426 120.953 C 957.662 124.111 955.327 126.263 953.81 130.171 L 954.245 132.345 C 958.675 134.425 961.074 134.197 964.043 137.444 C 964.092 140.24 963.69 140.938 962.884 143.6 C 965.819 148.213 973.495 146.366 978.415 145.763 C 967.707 156.842 949.596 166.307 934.749 170.532 C 939.814 154.54 947.032 151.399 958.851 140.412 L 957.308 140.933 C 946.654 144.589 934.545 156.124 925.353 151 C 921.612 148.915 916.882 147.919 914.185 146.588 C 931.843 137.145 941.291 130.383 955.856 116.593 z"/>
<path transform="translate(0,0)" fill="rgb(69,80,85)" d="M 991.069 142.025 L 991.991 143.117 C 991.432 151.555 990.474 150.622 996.839 155.095 L 996.716 156.42 C 992.333 161.743 982.925 168.956 976.707 172.029 C 974.499 173.161 975.274 172.783 972.581 172.969 L 971.552 171.509 C 971.178 158.793 979.889 147.365 991.069 142.025 z"/>
<path transform="translate(0,0)" fill="rgb(69,80,85)" d="M 1056.26 142.402 C 1057.95 143.479 1059.56 144.686 1061.07 146.012 C 1065.66 150.004 1078.85 166.721 1073.53 172.514 L 1069.68 171.974 C 1037.56 152.486 1056.05 161.316 1056.26 143.651 L 1056.26 142.402 z"/>
<path transform="translate(0,0)" fill="rgb(69,80,85)" d="M 1079.01 161.241 C 1092.18 166.472 1103.33 176.666 1104.61 191.484 C 1097.76 189.188 1087.79 180.268 1081.55 175.45 C 1080.99 168.863 1080.81 167.55 1079.01 161.241 z"/>
<path transform="translate(0,0)" fill="rgb(69,80,85)" d="M 965.894 162.214 C 967.055 165.049 965.756 169.626 965.246 173.183 C 958.49 180.33 952.472 185.856 943.869 190.712 L 943.165 190.195 C 941.965 179.41 957.273 166.699 965.894 162.214 z"/>
<path transform="translate(0,0)" fill="rgb(14,16,17)" d="M 883.087 353.777 C 886.172 347.898 887.81 344.096 890.274 338.368 C 893.196 331.579 896.94 309.003 901.131 306.097 C 904.525 315.032 897.404 331.427 904.043 350.515 L 904.246 351.466 C 905.154 356.068 905.512 355.965 904.357 360.351 L 902.974 360.631 C 899.346 356.662 897.333 351.521 894.968 346.598 C 891.683 352.921 889.471 360.185 881.945 361.361 C 876.397 359.278 875.093 355.662 872.374 350.519 C 868.75 358.36 863.73 373.752 854.544 374.886 C 846.46 370.524 845.283 348.285 844.706 340 L 843.54 339.101 L 838.002 339.856 C 834.264 341.047 829.676 343.086 826.196 341.005 L 826.583 338.226 C 841.154 332.791 846.322 325.109 858.59 316.866 C 849.594 336.522 849.318 347.186 855.506 367.632 L 856.458 366.303 C 863.872 355.849 868.5 343.889 870.766 331.372 C 871.356 328.114 871.582 324.962 873.527 322.872 C 877.878 329.487 874.492 340.469 883.087 353.777 z"/>
<path transform="translate(0,0)" fill="rgb(14,16,17)" d="M 1157 218.749 C 1158.09 219.623 1159.15 220.536 1160.17 221.486 C 1163.53 224.564 1179.24 241.612 1179.38 245.662 C 1179.47 249.934 1179.35 251.173 1180.46 255.211 C 1178.23 260.005 1179.86 262.731 1176.07 268.141 C 1174.27 268.397 1173.42 268.532 1171.62 268.936 C 1175.19 277.622 1183.95 311.913 1172.67 316.357 C 1159.28 314.087 1137.52 281.286 1143.87 270.449 C 1148.24 273.24 1158.37 303.86 1169.46 305.585 L 1171.1 304.047 C 1177.26 279.956 1155.48 261.532 1148.1 243.179 C 1156.23 247.92 1163.82 257.422 1170.51 259.628 L 1171.81 258.691 C 1173.46 247.725 1160.83 230.322 1157 218.749 z"/>
<path transform="translate(0,0)" fill="rgb(14,16,17)" d="M 891.64 217.524 C 887.482 233.567 878.085 235.047 875.235 261.481 C 881.371 256.92 892.749 247.482 898.69 244.369 C 894.014 253.416 887.897 261.608 883.224 270.296 C 879.52 277.18 872.523 297.495 874.219 304.505 L 875.994 306.459 C 887.491 306.509 898.654 273.125 903.72 269.696 C 910.919 278.112 882.295 326.339 870.021 312.086 C 862.799 303.699 876.344 274.172 875.768 267.848 C 865.379 263.728 871.41 263.053 867.294 255.056 C 868.358 251.646 869.421 250.478 868.577 247.689 L 865.924 248.14 L 863.16 247.004 L 863.749 245.337 C 874.144 240.479 881.607 226.276 891.64 217.524 z"/>
<path transform="translate(0,0)" fill="rgb(69,80,85)" d="M 838.002 339.856 L 843.54 339.101 L 844.706 340 C 845.283 348.285 846.46 370.524 854.544 374.886 C 863.73 373.752 868.75 358.36 872.374 350.519 C 875.093 355.662 876.397 359.278 881.945 361.361 C 889.471 360.185 891.683 352.921 894.968 346.598 C 897.333 351.521 899.346 356.662 902.974 360.631 L 904.357 360.351 C 905.512 355.965 905.154 356.068 904.246 351.466 L 904.043 350.515 C 905.536 348.246 906.26 346.188 907.346 343.69 L 908.122 345.942 C 910.454 350.802 912.337 358.294 914.221 363.803 L 928.53 405.017 C 914.878 395.217 911.188 390.484 900.628 377.217 C 902.806 384.093 910.07 408.671 913.795 412.261 C 933.113 430.883 965.399 453.402 985.612 470.154 C 967.797 465.721 952.884 461.274 939.077 448.435 C 934.507 444.185 927.562 436.747 922.758 433.308 C 932.189 458.768 946.561 466.682 971.442 473.096 C 987.015 490.463 1004.97 499.047 1016.88 518.837 C 998.864 509.332 983.346 500.244 965.833 489.957 L 966.491 491.289 C 982.799 523.655 1034.91 517.25 1016.56 572.372 C 1013.78 580.73 1003.44 604.882 992.817 600.715 C 987.597 594.539 988.465 584.695 989.085 576.963 C 989.479 572.448 989.937 567.939 990.461 563.438 C 979.057 585.058 977.492 595.268 958.082 611.89 C 927.607 637.987 927.612 600.78 928.161 577.166 C 932.523 570.352 936.171 567.383 941.939 561.804 L 929.777 564.442 C 936.09 552.367 940.098 544.859 950.145 535.509 L 948.416 535.922 C 938.783 538.267 886.126 560.616 884.244 542.365 C 883.088 531.147 900.685 515.62 907.508 507.319 L 906.087 507.92 C 894.957 512.676 860.497 547.01 849.924 533.093 C 848.187 520.545 863.766 506.384 870.006 497.038 L 868.49 497.72 C 854.031 504.311 848.444 517.117 830.152 516.196 C 824.791 515.926 818.684 517.222 815.021 512.375 C 812.816 499.752 841.667 482.92 849.912 476.42 C 880.709 498.458 923.96 511.162 961.021 517.012 C 942.877 505.176 920.828 505.587 906.442 489.469 C 900.624 482.951 896.819 474.988 891.68 468.037 L 898.78 488.384 C 878.572 473.379 877.842 471.746 864.869 450.53 C 865.856 455.337 868.568 467.194 868.856 471.507 C 864.978 463.468 853.75 433.821 859.7 426.131 C 867.207 424.207 869.169 436.439 876.105 439.026 C 875.88 438.942 879.211 441.024 879.05 440.921 C 871.172 424.188 864.688 420.77 868.399 401.999 C 872.409 407.929 881.641 423.29 889.663 420.022 C 893.5 414.6 892.595 408.999 895.177 407.037 C 898.961 408.132 900.054 409.044 903.538 408.274 C 903.343 404.823 898.503 400.826 895.779 398.231 C 894.016 391.834 889.529 373.285 885.635 369.297 C 882.88 375.794 889.178 402.504 886.803 409.999 C 876.509 412.866 867.838 379.989 863.068 374.78 C 859.555 379.257 864.626 402.27 858.062 418.714 C 844.883 405.583 842.806 390.507 839.041 372.706 L 838.575 373.892 C 835.79 381.171 831.401 401.803 827.38 405.334 L 826.233 404.876 C 825.918 383.973 829.219 358.988 838.002 339.856 z"/>
<path transform="translate(0,0)" fill="rgb(14,16,17)" d="M 899.84 419.419 C 909.332 421.941 931.933 466.953 915.877 470.81 C 904.678 468.578 893.061 455.55 886.858 446.331 C 884.235 441.831 883.855 441.435 882.778 436.462 L 883.626 435.183 C 894.639 441.61 897.167 454.481 915.03 462.753 C 912.257 442.883 906.569 438.12 900.244 420.568 L 899.84 419.419 z"/>
<path transform="translate(0,0)" fill="rgb(14,16,17)" d="M 980.855 529.998 L 981.468 530.994 C 980.08 535.293 972.547 547.732 970.012 552.311 C 964.022 563.338 958.097 574.4 952.236 585.496 L 951.25 584.996 C 950.732 569.971 968.856 539.553 980.855 529.998 z"/>
<path transform="translate(0,0)" fill="rgb(14,16,17)" d="M 933.12 464.525 C 939.179 468.58 954.153 488.222 961.092 493.668 C 962.316 494.629 962.28 496.959 962.292 498.43 C 954.069 493.022 938.345 482.111 933.155 473.746 C 933.752 469.79 933.775 469.491 933.25 465.463 L 933.12 464.525 z"/>
<path transform="translate(0,0)" fill="rgb(69,80,85)" d="M 647.176 746.469 C 660.387 742.65 664.075 740.649 675.652 732.979 C 659.353 765.636 653.462 779.462 650.858 815.91 C 649.103 840.472 639.12 850.161 656.922 875.16 C 652.227 893.941 649.571 913.068 645.7 931.984 C 642.046 949.841 637.267 967.967 632.724 985.656 C 648.803 956.066 658.607 914.348 664.525 881.37 C 680.257 887.348 682.844 886.132 697.763 878.283 C 688.886 916.203 679.307 950.765 663.655 986.633 C 657.578 1000.56 644.732 1019.59 640.129 1031.42 L 651.077 1024.75 C 660.755 1037.52 664.54 1038.49 680.327 1036.88 C 679.699 1055.51 679.325 1073.53 680.728 1092.13 C 681.04 1096.27 681.121 1100.8 680.813 1104.95 C 677.225 1129.25 671.052 1153.16 666.572 1177.36 C 674.436 1159.7 680.809 1141.41 685.622 1122.69 C 690.299 1137.27 694.229 1148.3 700.571 1162.48 C 691.912 1185.29 671.897 1220.21 649.499 1231.81 C 642.693 1221.31 637.311 1203.81 635.043 1200.86 C 631.881 1140.03 635.089 1091.19 640.004 1031.49 C 629.551 1041.98 621.852 1050.93 609.033 1058.41 C 608.996 1053.5 609.265 1047.17 609.892 1042.27 C 618.645 973.735 618.006 903.775 640.386 837.643 C 643.64 828.025 647.376 819.17 650.128 809.399 C 637.938 820.033 633.454 821.737 618.234 825.938 C 623.307 801.46 632.633 766.766 647.176 746.469 z"/>
<path transform="translate(0,0)" fill="rgb(69,80,85)" d="M 1399.84 816.72 C 1415.1 855.232 1422.39 889.67 1426.82 931.017 C 1428.62 947.82 1429 965.006 1430.87 981.731 C 1433.9 1008.76 1438.25 1031.95 1438.58 1059.3 C 1426.73 1051.97 1417.99 1042.22 1408.68 1031.92 C 1413.37 1082.01 1415.1 1149.9 1412.8 1199.65 C 1407.61 1206.58 1409.08 1217.5 1397.88 1231.33 C 1374.9 1219.14 1355.18 1186.2 1347.04 1162.18 C 1352.85 1149.78 1357.85 1137.02 1362.01 1123.98 C 1364.59 1133.35 1375.52 1167.05 1380.45 1174.51 C 1378.11 1161.5 1375.64 1148.52 1373.03 1135.58 C 1371.44 1127.95 1366.87 1110.37 1367.08 1103.29 C 1367.73 1080.53 1367.79 1059.11 1366.79 1036.29 C 1383.56 1038.81 1388.41 1036.38 1398.42 1023.7 C 1402.14 1026.89 1406.26 1030.08 1410.09 1033.16 C 1405.07 1021.27 1393.5 1006.5 1386.97 992.699 C 1370.17 957.214 1358.66 916.424 1350.03 878.195 C 1363.49 884.895 1369.1 888.459 1382.89 880.56 C 1389.66 913.591 1398.95 957.103 1415.73 986.707 C 1412.31 971.119 1407.28 955.334 1403.93 939.574 C 1399.38 918.151 1395.95 896.608 1390.88 875.305 C 1401.16 861.556 1402.67 849.147 1400.83 832.606 C 1400.21 826.971 1399.15 822.456 1399.84 816.72 z"/>
<path transform="translate(0,0)" fill="rgb(69,80,85)" d="M 707.493 1177.56 C 715.85 1185.14 719.426 1187.92 729.88 1182.52 C 730.429 1212.86 728.044 1237.22 726.183 1267.32 C 722.62 1324.97 706.287 1398.67 651.523 1429.84 C 641.598 1418.45 639.38 1409.26 635.309 1394.95 C 634.602 1392.46 635.013 1391.59 632.798 1391.19 C 632.083 1388.12 632.02 1368.97 631.99 1365.19 C 631.663 1323.8 633.456 1280.88 640.964 1240.1 C 657.627 1253.31 674.719 1227.68 683.148 1215.72 C 681.188 1267.97 674.139 1313.45 664.323 1364.66 C 684.667 1327.56 694.875 1242.7 695.036 1199.96 C 699.354 1192.59 703.507 1185.12 707.493 1177.56 z"/>
<path transform="translate(0,0)" fill="rgb(69,80,85)" d="M 1395.96 1429.2 C 1372.62 1416.48 1355.62 1393.04 1344.34 1369.5 C 1337.79 1355.88 1332.9 1341.52 1329.77 1326.74 C 1325.06 1304.93 1313.35 1197.68 1318.58 1182.7 C 1320.92 1183.54 1323.24 1184.43 1325.55 1185.37 C 1332.4 1184.43 1334.95 1181.44 1339.91 1176.84 C 1344.02 1185.18 1348.42 1192.91 1352.97 1201 C 1352.92 1240.96 1363.61 1330.22 1383.95 1364.04 C 1375.11 1318.91 1365.4 1263.46 1364.81 1217.67 C 1368.32 1221.85 1371.88 1226 1375.48 1230.1 C 1383.53 1239.17 1395.07 1249.79 1406.43 1239.66 C 1414.82 1299.35 1415.74 1329.65 1414.84 1390.21 C 1407.04 1402.73 1411.16 1412.91 1395.96 1429.2 z"/>
<path transform="translate(0,0)" fill="rgb(69,80,85)" d="M 705.854 607.856 C 703.318 621.299 701.162 633.351 709.26 645.45 C 702.861 655.804 693.791 669.762 689.425 680.768 C 679.384 706.084 671.792 735.617 638.511 738.43 C 639.923 721.604 647.73 688.524 659.167 675.656 C 665.772 668.225 676.176 658.92 683.593 651.176 C 679.595 652.309 672.7 653.93 669.276 655.899 C 667.29 657.041 669.193 656.468 665.959 657.595 L 665.026 656.473 C 664.152 646.207 680.629 619.871 686.447 611.208 C 694.464 610.792 698.022 609.875 705.854 607.856 z"/>
<path transform="translate(0,0)" fill="rgb(69,80,85)" d="M 1342.17 607.31 C 1349.53 609.505 1354.29 610.518 1361.88 611.916 C 1373.66 629.515 1377.28 637.54 1383.68 658.001 L 1364.36 650.011 L 1365.46 651.449 C 1372.58 660.606 1379.29 666.332 1386.84 674.504 C 1401.52 690.403 1405.76 717.78 1409.63 738.712 C 1401.06 738.231 1394.38 735.542 1387.35 730.617 C 1381.52 726.583 1376.6 721.378 1372.9 715.335 C 1365.87 703.893 1358.72 681.549 1352.41 668.864 C 1351.19 665.22 1339.83 649.671 1340.87 646.389 C 1345.56 631.682 1345.02 622.401 1342.17 607.31 z"/>
<path transform="translate(0,0)" fill="rgb(69,80,85)" d="M 1314.24 506.186 C 1327.48 510.666 1366.9 545.276 1362.97 559.508 L 1361.4 560.507 L 1337.14 552.483 C 1356.98 572.412 1363.6 580.373 1376.15 605.42 C 1344.75 600.327 1338.29 595.749 1313.39 574.697 C 1304.58 567.251 1298.19 563.066 1290.96 553.323 C 1300.68 555.928 1318.81 561.301 1327.51 555.109 C 1336.84 540.479 1301.57 515.833 1291.86 509.287 C 1299.91 508.432 1306.3 507.646 1314.24 506.186 z"/>
<path transform="translate(0,0)" fill="rgb(69,80,85)" d="M 732.895 506.072 C 740.557 507.847 748.358 508.962 756.21 509.404 C 745.817 516.775 711.303 539.377 719.284 555.641 C 726.12 559.825 741.051 557.11 748.671 555.235 C 750.69 554.728 752.694 554.162 754.68 553.538 L 755.282 554.358 C 750.639 563.459 708.199 597.537 695.393 600.439 C 687.234 602.288 681.949 603.602 673.088 604.701 C 677.496 587.762 697.295 566.334 708.958 552.991 C 700.582 555.509 692.696 558.181 684.173 560.596 C 684.499 558.92 684.887 557.256 685.335 555.608 C 691.174 534.476 714.9 516.532 732.895 506.072 z"/>
<path transform="translate(0,0)" fill="rgb(69,80,85)" d="M 1221.13 450.735 C 1232.53 452.701 1262.9 468.233 1274.7 474.389 L 1262.71 481.993 C 1273.46 481.733 1325.18 487.516 1324.07 499.745 C 1294.84 499.769 1262.96 502.392 1234.27 491.255 C 1223.58 487.107 1213.75 480.106 1201.05 475.379 L 1199.22 474.711 C 1206.4 466.979 1214.36 458.741 1221.13 450.735 z"/>
<path transform="translate(0,0)" fill="rgb(69,80,85)" d="M 825.996 450.781 C 828.922 456.613 842.835 469.65 848.133 474.814 C 833.465 479.67 823.332 487.099 809.532 492.411 C 781.684 503.132 752.583 498.327 725.694 500.408 L 724.123 498.349 L 724.567 496.096 C 733.919 487.493 771.634 481.874 785.203 481.929 C 781.392 479.25 776.923 476.554 772.954 474.035 C 791.945 467.347 804.71 456.917 825.996 450.781 z"/>
<path transform="translate(0,0)" fill="rgb(69,80,85)" d="M 1372.62 733.551 C 1386.19 742.372 1387.71 742.063 1402.09 747.419 C 1413.58 765.262 1424.94 804.891 1429.97 825.875 C 1417.22 822.333 1406.06 817.845 1396.56 808.125 C 1394.19 776.305 1386.24 761.746 1372.62 733.551 z"/>
<path transform="translate(0,0)" fill="rgb(69,80,85)" d="M 1189.13 419.806 C 1185.79 410.06 1183.45 382.773 1185.44 372.809 C 1187.84 373.12 1189.73 373.916 1192.04 374.684 C 1203.81 369.615 1200.06 343.861 1205 339.127 L 1209.72 340.333 C 1216.58 358.951 1221.95 387.34 1220.85 407.269 C 1215.37 404.015 1209.61 378.644 1207.23 371.17 C 1202.91 392.205 1205.86 401.858 1189.13 419.806 z"/>
<path transform="translate(0,0)" fill="rgb(69,80,85)" d="M 1054.77 1301.08 C 1056.14 1271.16 1067.14 1232.99 1070.43 1199.48 C 1080.69 1220.73 1085.97 1233.66 1104.2 1248.91 C 1103.8 1311.18 1107.13 1376.07 1124.84 1436.21 C 1124.77 1423.79 1122.07 1408.73 1120.55 1396.21 C 1114.38 1345.36 1112.63 1296.62 1114.99 1245.37 C 1119.92 1240.16 1122.79 1236.53 1127.16 1230.83 C 1133.19 1252.84 1157.8 1339.74 1188.89 1290.73 C 1189.6 1371.03 1203.79 1450.63 1230.87 1526.23 C 1235.24 1538.42 1240.38 1553.58 1245.73 1565.12 C 1219.88 1466.96 1202.3 1392.64 1202 1290.48 C 1209.21 1300.91 1216.6 1312.48 1225.45 1321.52 C 1235.14 1331.43 1244.04 1340.96 1256.86 1330.65 C 1266.27 1354.55 1277.9 1383.36 1303.61 1393.58 C 1309.98 1447.28 1320.34 1500.43 1334.61 1552.59 C 1338.35 1566.27 1343.12 1584.29 1348.03 1597.5 C 1337.08 1530.44 1319.72 1458.17 1316.37 1389.79 C 1316.11 1384.47 1322.76 1366.35 1324.21 1358.84 C 1330.81 1373.42 1335.17 1383.95 1343.78 1397.76 C 1350.51 1408.56 1358.1 1417.42 1364.95 1427.54 C 1365.62 1490.52 1366.14 1552.16 1370.81 1615.05 C 1371.17 1619.93 1370.22 1634.02 1368.32 1638.39 C 1349.5 1652.41 1320.47 1606.65 1312.69 1590.61 C 1288.81 1541.4 1272.28 1486.31 1265.29 1431.84 C 1264.35 1424.47 1261.71 1382.4 1261.14 1380.64 L 1260.37 1381.18 C 1254.89 1426.96 1259.09 1469.49 1270.7 1514.12 C 1271.7 1523.98 1282.62 1546.17 1282.13 1554.97 C 1280.75 1580.02 1276.92 1612.8 1266.15 1635.36 C 1264.53 1638.76 1254.52 1630.76 1252.67 1629.07 C 1228.66 1607.17 1211 1577.6 1196.48 1548.76 C 1172.29 1498.61 1163.79 1425.78 1161.86 1370.38 C 1160.49 1363 1161.55 1352.39 1160.45 1343.98 L 1159.4 1343.48 C 1150.05 1418.86 1149.63 1489 1159.33 1564.51 C 1162.14 1586.31 1164.5 1608.31 1166.16 1630.23 C 1139.08 1587.2 1138.06 1553.69 1123.94 1507.81 C 1116.49 1483.6 1108.73 1472.34 1102.03 1443.8 C 1098.6 1454.67 1096.41 1466.1 1093.09 1476.23 C 1083.94 1450.07 1080.95 1420.86 1087.74 1394.03 C 1090.71 1382.27 1094.6 1365.26 1095.75 1353.55 C 1088.46 1365.54 1080.64 1383 1074.47 1396.03 C 1069.13 1375.85 1064.11 1357.46 1061.66 1336.65 C 1058.59 1310.66 1073.97 1290.57 1083.78 1267.66 C 1073.89 1278.61 1064.22 1289.75 1054.77 1301.08 z"/>
<path transform="translate(0,0)" fill="rgb(28,32,36)" d="M 1159.4 1343.48 C 1159.77 1340.41 1159.5 1337.63 1161.14 1335.73 C 1162.33 1341.34 1162.16 1363.51 1161.86 1370.38 C 1160.49 1363 1161.55 1352.39 1160.45 1343.98 L 1159.4 1343.48 z"/>
<path transform="translate(0,0)" fill="rgb(69,80,85)" d="M 943.382 1248.84 C 962.374 1235.02 967.307 1220.44 977.145 1199.37 C 981.254 1234.22 989.446 1265.34 992.833 1300.46 C 983.512 1291.24 972.44 1278.1 963.542 1268.08 C 968.724 1281 976.437 1294.6 982.169 1307.47 C 992.781 1331.28 979.224 1370.78 972.935 1396.76 C 967.205 1382.03 960.361 1367.77 952.462 1354.08 C 953.093 1364.57 956.636 1381.1 959.142 1391.72 C 966.694 1423.72 963.894 1446.99 954.122 1477.9 C 951.917 1466.87 948.554 1453.81 944.719 1443.29 C 939.998 1472 931.565 1482.25 922.395 1508.89 C 918.197 1521.09 914.183 1542.95 910.883 1556.48 C 904.555 1582.4 894.735 1607.33 881.693 1630.6 C 882.67 1599.88 889.224 1562.47 891.843 1531.35 C 897.452 1464.68 897.774 1394.94 886.146 1328.87 C 883.945 1407.33 883.319 1489.29 844.8 1560.64 C 832.407 1583.59 808.31 1623.43 785.234 1635.11 C 774.419 1640.58 764.719 1561.87 765.642 1553.6 C 767.715 1542.27 773.813 1525.23 777.075 1513.35 C 788.688 1471.06 791.038 1432.2 787.657 1388.75 L 786.595 1388.09 C 785.919 1391.95 785.518 1395.21 785.101 1399.11 C 784.037 1420.35 781.543 1441.5 777.635 1462.41 C 767.662 1514.12 745.92 1582.05 712.235 1623.69 C 706.152 1631.21 688.318 1646.49 679.05 1637.96 C 673.918 1624.15 681.848 1542.1 681.901 1521.78 C 681.976 1493.21 681.383 1455.94 683.065 1427.45 C 703.473 1400.67 709.482 1390.67 723.345 1360.23 C 724.863 1366.97 731.45 1384.6 731.293 1389.06 C 728.936 1456.1 710.409 1527.15 701.2 1593.01 C 722.353 1534.64 735.86 1455.13 744.123 1393.55 C 770.17 1380.99 781.289 1355.87 790.845 1329.79 C 805.37 1341.73 815.395 1328.79 825.495 1317.71 C 832.582 1309.93 838.85 1299.8 844.735 1290.99 C 847.219 1387.8 826.593 1469.27 802.715 1562.39 C 808.322 1552.87 815.134 1532.35 818.867 1521.34 C 843.468 1448.84 859.276 1369.72 858.675 1293.02 C 879.081 1315.61 886.118 1307.97 900.822 1283.72 C 910.383 1267.96 916.071 1248.89 919.926 1230.95 C 924.366 1236.31 928.126 1240.39 932.95 1245.42 C 934.69 1291.34 933.99 1330.81 929.351 1376.85 C 927.295 1397.26 924.158 1418.15 922.445 1438.34 C 940.156 1378.25 944.548 1311.11 943.382 1248.84 z"/>
<path transform="translate(0,0)" fill="rgb(28,32,36)" d="M 785.101 1399.11 C 784.949 1394.09 784.777 1384.87 785.994 1380.13 C 787.404 1382.59 787.373 1385.82 787.657 1388.75 L 786.595 1388.09 C 785.919 1391.95 785.518 1395.21 785.101 1399.11 z"/>
<path transform="translate(0,0)" fill="rgb(69,80,85)" d="M 1151.56 345.723 C 1156.21 350.291 1155.04 354.636 1163.14 360.686 C 1170.67 362.03 1172.21 355.204 1174.29 349.251 C 1177.03 357.157 1179.38 361.521 1183.3 369.016 C 1178.62 387.867 1175.77 398.658 1161.22 411.989 C 1158.87 396.815 1163.82 380.063 1162.14 370.4 L 1160.99 370.316 C 1159.39 372.67 1145.8 407.671 1145.78 408.562 C 1148.19 408.405 1149.61 406.437 1151.95 404.491 L 1153.02 405.122 C 1154.1 410.802 1153.59 417.387 1159.15 419.678 C 1167.18 418.524 1175.01 406.948 1179.77 400.705 C 1180.31 419.727 1178.11 422.691 1170.61 440.052 C 1178.71 434.416 1181.15 427.238 1186.98 425.941 C 1193.73 429.996 1186.49 454.6 1185 461.44 C 1184.18 465.164 1180.91 470.563 1178.84 473.99 L 1180.25 453.882 C 1171.87 471.522 1166.91 475.134 1150.72 485.537 L 1154.87 470.208 C 1149.96 476.214 1146.69 482.661 1140.97 488.771 C 1127.14 503.531 1106.12 506.22 1088.46 516.047 L 1087.23 516.74 C 1124.71 513.417 1164.39 495.663 1197.2 477.713 C 1206.22 482.706 1236.69 500.333 1231.78 513.399 C 1224.75 519.054 1205.9 517.038 1198.6 511.757 C 1193.41 507.998 1186.21 498.513 1179.7 499.871 C 1181.53 505.392 1203.51 523.881 1196.38 536.115 C 1181.39 542.196 1151.08 511.579 1144.36 509.592 L 1143.24 510.529 C 1147.33 519.411 1165.89 531.555 1164.07 545.103 C 1158.87 554.973 1131.62 545.993 1123.5 543.576 C 1112.42 539.364 1106.29 537.182 1094.64 535.035 C 1106.57 545.588 1110.61 550.66 1117.41 565.025 C 1113.84 563.292 1109.34 561.622 1105.6 560.121 C 1109.4 565.762 1114.58 572.177 1118.79 577.669 C 1120.14 594.381 1120.62 610.264 1108.07 623.228 C 1078.8 610.483 1069.29 589.683 1058.2 562.289 C 1057.25 574.733 1062.37 590.78 1055.37 600.495 C 1043.74 606.278 1032.86 578.063 1030.34 569.296 C 1015.3 516.923 1062.79 524.675 1083.13 489.031 C 1076.4 492.322 1068.12 497.988 1061.5 502.012 C 1051.54 508.016 1041.4 513.709 1031.08 519.082 C 1040.55 501.884 1063.9 484.984 1079.19 472.441 C 1080.65 471.246 1093.19 466.92 1095.88 465.679 C 1109.75 459.294 1117.94 446.453 1124.31 433.463 C 1099.3 451.455 1098.97 463.46 1062.79 469.415 C 1077.31 458.588 1127.12 421.093 1135 408.556 C 1140.4 399.967 1142.32 389.701 1144.66 379.964 C 1134.41 389.906 1132.27 394.596 1119.54 404.119 C 1123.54 387.92 1132.43 363.703 1137.71 346.803 C 1140.02 352.399 1141.38 356.79 1143.16 362.556 C 1147.47 356.24 1148.91 352.643 1151.56 345.723 z"/>
<path transform="translate(0,0)" fill="rgb(14,16,17)" d="M 1144.26 420.832 C 1144.74 424.209 1135.92 444.664 1134.81 450.407 C 1133.88 455.261 1133.39 458.147 1132.91 463.436 C 1145.81 455.943 1151.4 446.605 1159.86 434.624 L 1161.04 434.571 C 1161.52 438.028 1160.6 440.311 1159.71 443.695 C 1155.11 454.081 1144.2 468.7 1132.47 470.78 C 1114.65 465.877 1136.26 429.25 1144.26 420.832 z"/>
<path transform="translate(0,0)" fill="rgb(14,16,17)" d="M 1064.55 530.639 C 1081.85 534.49 1094.86 573.246 1098.3 588.367 C 1094.79 584.461 1085.06 565.288 1081.76 559.66 C 1076.56 550.791 1069.14 539.557 1064.55 530.639 z"/>
<path transform="translate(0,0)" fill="rgb(14,16,17)" d="M 1112.63 466.795 C 1112.85 468.169 1113.57 472.673 1113.14 473.693 C 1109.08 483.469 1092.68 494.077 1084.34 499.041 L 1083.67 498.281 C 1083.83 493.835 1107.59 471.891 1112.63 466.795 z"/>
<path transform="translate(0,0)" fill="rgb(69,80,85)" d="M 893.637 1137.77 C 895.093 1145.85 885.793 1207.57 884.743 1220.34 C 891.814 1201.47 895.296 1184.66 899.094 1165.14 C 904.742 1185.63 905.23 1194.84 913.319 1216.99 C 907.871 1243.86 899 1271.01 877.725 1289.52 C 851.267 1262.37 864.672 1225.4 860.328 1193.79 C 851.544 1239.59 847.605 1269.09 816.216 1306.33 C 812.525 1310.2 810.128 1313.25 805.466 1315.88 C 795.234 1315.74 791.644 1299.08 789.25 1290.94 C 777.177 1249.92 777.263 1210.02 779.562 1167.81 C 784.939 1175.7 792.649 1190.3 802.88 1191.04 C 809.379 1191.51 814.238 1186.06 818.726 1182.03 C 819.56 1206.44 816.222 1238.72 813.742 1263.08 C 823.542 1232.88 827.107 1201.91 827.851 1170.31 C 834.414 1160.52 838.645 1154.1 843.016 1143.21 C 863.712 1172.4 873.24 1161.39 893.637 1137.77 z"/>
<path transform="translate(0,0)" fill="rgb(69,80,85)" d="M 1153.91 1135.95 C 1168.91 1155.83 1186.12 1175.49 1203.46 1144.26 C 1208.56 1154.35 1213.14 1161.53 1219.38 1171.02 C 1217.87 1193.4 1224.53 1226.26 1229.5 1247.93 C 1231.16 1246.04 1230.61 1246.77 1231.48 1244.25 C 1229.79 1222.56 1228.8 1204.15 1228.56 1182.44 C 1233.65 1186.64 1238.5 1191.77 1245.58 1191.17 C 1255.8 1190.31 1264.2 1174.77 1268.6 1166.58 C 1269.19 1208.63 1270.86 1250.27 1258.38 1291.13 C 1255.86 1298.31 1253.03 1314.7 1243.15 1314.72 C 1237.84 1314.1 1234.33 1309.25 1230.99 1305.69 C 1208.32 1281.51 1198.08 1249.89 1192.05 1217.96 C 1190.8 1211.33 1189.39 1198.53 1187.06 1192.78 C 1186.09 1225.03 1194.42 1264.77 1169.28 1289.38 C 1148.07 1269.67 1140.75 1244.93 1134.66 1217.65 C 1142.21 1196.53 1143.55 1186.52 1148.93 1166.2 C 1152.37 1186.34 1155.93 1201.07 1162.39 1220.7 C 1159.81 1192.11 1156.04 1164.65 1153.91 1135.95 z"/>
<path transform="translate(0,0)" fill="rgb(28,32,36)" d="M 1231.48 1244.25 C 1232.45 1249.72 1233.11 1255.34 1233.83 1260.86 C 1231.65 1256.64 1230.36 1252.61 1229.5 1247.93 C 1231.16 1246.04 1230.61 1246.77 1231.48 1244.25 z"/>
<path transform="translate(0,0)" fill="rgb(69,80,85)" d="M 772.482 968.707 C 773.388 973.369 774.106 988.776 774.597 994.477 C 775.94 1010.1 777.77 1019.8 781.36 1034.74 C 770.835 1072.41 748.638 1140.52 719.706 1166.66 C 719.09 1166.13 718.487 1165.58 717.896 1165.02 C 696.066 1144.23 691.352 1094.37 690.425 1066.03 C 690.688 1054.03 690.775 1041.88 691.779 1029.93 C 706.021 1015.69 708.782 1010.7 717.229 992.241 C 721.756 998.913 723.61 1001.44 730.425 1005.7 C 725.116 1036.04 725.767 1073.35 729.027 1103.94 C 729.88 1098.12 730.279 1092.28 730.735 1086.42 C 732.94 1058.04 736.279 1029.41 741.318 1001.36 C 757.683 990.274 761.138 985.001 772.482 968.707 z"/>
<path transform="translate(0,0)" fill="rgb(69,80,85)" d="M 1276.04 969.654 C 1287.47 985.011 1290.29 990.991 1306.94 1001.15 C 1311.15 1027.53 1314.37 1054.46 1316.04 1081.12 C 1316.53 1088.94 1316.86 1097.24 1318.36 1104.87 C 1322.04 1066.78 1321.11 1042.74 1318.13 1004.82 C 1325.25 1001.11 1326.15 999.431 1330.87 993.108 C 1339.45 1009.97 1342.94 1015.49 1355.64 1029.18 C 1356.37 1041.48 1356.8 1053.8 1356.93 1066.12 C 1355.7 1100.33 1352 1140.55 1327.43 1166.53 C 1301.37 1142.92 1285.05 1092.6 1274.58 1059.24 C 1273.47 1054.12 1267.15 1037.51 1268.05 1033.09 C 1272.21 1012.64 1273.15 989.738 1276.04 969.654 z"/>
<path transform="translate(0,0)" fill="rgb(69,80,85)" d="M 1287.59 1132.78 C 1291.53 1137.06 1306.98 1167.29 1312.1 1175.11 C 1311.98 1204.15 1310.6 1233.71 1310.99 1262.85 C 1311.29 1284.97 1322.16 1363.97 1303.26 1375.28 C 1299.76 1375.88 1299.67 1375.52 1296.5 1374.08 C 1279.69 1358.05 1271.3 1339.23 1264.26 1317.57 C 1273.85 1288.16 1280.99 1253.46 1279.82 1222.44 C 1278.54 1188.67 1280.51 1165.9 1287.59 1132.78 z"/>
<path transform="translate(0,0)" fill="rgb(69,80,85)" d="M 759.894 1132.97 C 763.296 1137.17 768.388 1174.36 768.386 1181.21 C 768.381 1217.27 766.581 1253.23 775.14 1288.68 C 777.553 1298.67 780.555 1307.86 783.841 1317.62 C 777.428 1338.16 767.8 1356.94 752.437 1372.12 C 749.739 1373.76 748.915 1373.92 745.974 1374.95 C 743.749 1374.57 743.219 1374.86 741.479 1372.89 C 735.008 1365.57 733.31 1339.22 733.1 1330.14 C 732.669 1311.5 736.387 1290.62 736.826 1272.04 C 737.579 1240.15 736.49 1207.79 735.301 1175.94 C 744.186 1161.23 751.91 1148.16 759.894 1132.97 z"/>
<path transform="translate(0,0)" fill="rgb(69,80,85)" d="M 1050.45 1038.46 C 1055.66 1042.08 1060.1 1045.04 1065.51 1048.33 C 1069.43 1066.43 1073.92 1082.06 1082.49 1098.67 C 1085.87 1105.23 1093.95 1114.26 1095.6 1120.99 C 1100.3 1140.19 1102.68 1177.43 1109.1 1194.75 C 1109.51 1172.55 1107.41 1153.9 1106.69 1132.02 C 1121.48 1141.74 1130.27 1129.98 1138.35 1118.82 C 1144.03 1148.74 1134.62 1179.98 1124.51 1208.25 C 1119.93 1219.6 1117.08 1225.56 1107.64 1233.65 C 1077.09 1206.14 1080.63 1165.48 1077.11 1130.96 C 1067.95 1146.55 1062.58 1157.28 1050.9 1171.4 C 1051.34 1158.78 1052.44 1146.19 1054.19 1133.68 C 1057.26 1112.93 1060.97 1100.02 1059.96 1078.59 C 1055.82 1087.38 1053.29 1097.23 1050.81 1106.58 C 1042.72 1083 1046.66 1062.13 1050.45 1038.46 z"/>
<path transform="translate(0,0)" fill="rgb(69,80,85)" d="M 894.177 897.05 C 894.83 897.719 903.187 924.158 905 928.51 C 903.748 934.28 902.911 941.167 902.315 947.077 C 899.913 970.913 896.09 994.789 894.034 1018.64 C 900.642 1001.9 908.957 959.57 913.723 940.209 C 913.706 940.28 920.13 939.492 922.52 938.182 C 928.677 934.806 933.827 930.289 939.212 925.847 C 942.117 936.954 944.094 942.724 948.51 953.372 C 946.985 958.414 945.232 963.273 943.485 968.238 C 939.704 977.933 905.567 1058.53 886.847 1039.84 C 867.754 1020.78 862.304 973.414 859.724 946.442 C 869.16 929.855 870.586 925.012 876.103 906.847 L 876.956 906.477 L 878.368 905.843 C 885.418 902.725 887.678 901.237 894.177 897.05 z"/>
<path transform="translate(0,0)" fill="rgb(69,80,85)" d="M 996.495 1038.76 C 999.544 1043.77 1001.36 1062.95 1001.83 1069.06 C 1002.78 1081.43 999.626 1094.45 996.926 1106.48 C 994.156 1095.81 992.785 1088.97 988.341 1078.77 C 986.506 1098.07 990.403 1111.64 993.089 1130.56 C 995.101 1144.73 995.849 1156.31 995.969 1170.46 C 985.09 1155.78 978.639 1145.98 970 1129.92 C 967.476 1148.68 970.475 1168.99 964.432 1187.54 C 960.872 1198.47 952.813 1229.48 939.543 1231.36 C 931.666 1228.12 927.037 1215.83 923.661 1208.25 C 913.47 1181.45 902.763 1146.93 909.771 1118.43 C 919.457 1132.03 923.757 1140.61 941.262 1132.06 C 940.031 1150.6 937.102 1177.42 938.383 1195.47 C 944.739 1170.73 947.278 1143.74 953.141 1118.96 C 954.381 1113.72 965.848 1097.09 969.048 1090.44 C 975.958 1076.07 978.972 1063.23 983.015 1047.89 C 989.357 1044.58 990.988 1043.21 996.495 1038.76 z"/>
<path transform="translate(0,0)" fill="rgb(69,80,85)" d="M 1152.63 896.81 C 1160.13 901.857 1163.45 904.369 1172.01 906.686 C 1176.46 924.95 1179.71 931.803 1189.08 948.327 C 1187.1 966.849 1177.65 1030.3 1159.14 1040.22 C 1139.38 1050.81 1112.91 988.345 1106.88 973.224 C 1103.97 965.541 1102.26 960.278 1100.07 952.36 C 1104.31 942.135 1106.2 936.266 1108.76 925.549 C 1117.2 933.176 1122.41 938.851 1134.11 939.38 C 1139.02 966.556 1145.47 993.431 1153.43 1019.87 C 1151.56 992.384 1144.65 956.587 1144.55 928.547 C 1144.53 923.444 1151.31 905.254 1152.63 896.81 z"/>
<path transform="translate(0,0)" fill="rgb(69,80,85)" d="M 1214.49 778.869 C 1226.3 791.611 1230.23 809.875 1236.53 825.505 C 1244.48 845.242 1254 864.562 1268.43 880.343 C 1257.51 857.674 1247.94 834.383 1239.75 810.59 C 1252 821.282 1260.96 830.191 1277.93 831.172 C 1281.84 839.683 1284.09 845.111 1287.06 853.975 L 1287.32 854.947 C 1291.11 869.644 1294.12 895.138 1287.43 909.017 C 1281.16 922.018 1255.68 901.391 1249.54 895.981 C 1228.59 877.533 1205.96 850.292 1194.85 824.703 C 1193.06 820.564 1191.43 790.979 1190.79 783.942 C 1197.45 785.542 1202.58 786.513 1209.35 787.602 C 1210.85 785.403 1213.06 781.303 1214.49 778.869 z"/>
<path transform="translate(0,0)" fill="rgb(69,80,85)" d="M 832.682 778.711 C 832.961 779.038 833.24 779.366 833.52 779.693 L 834.797 781.128 C 842.551 789.913 847.269 786.644 857.625 783.682 C 856.627 789.879 854.206 816.852 853.605 819.598 C 844.401 849.047 815.771 880.282 792.424 899.825 C 746.281 938.449 754.75 877.907 761.702 851.419 C 764.198 843.694 766.452 837.749 769.525 830.217 C 787.199 829.996 796.899 820.487 808.822 808.767 C 798.635 835.69 789.334 858.66 777.249 884.715 C 788.876 868.78 800.633 850.916 808.597 832.93 C 818.167 811.32 818.351 798.337 832.682 778.711 z"/>
<path transform="translate(0,0)" fill="rgb(69,80,85)" d="M 805.659 905.935 C 807.641 909.128 807.357 916.563 807.965 920.963 C 810.666 940.507 814.081 950.39 826.139 965.695 C 822.936 984.766 821.26 1006.35 819.574 1025.63 C 825.744 1005.1 829.809 989.736 834.096 968.744 C 842.08 964.4 844.197 962.809 850.825 957.027 C 850.962 964.646 854.59 1000.51 853.079 1003.71 C 842.184 1022.95 828.393 1044.65 807.91 1054.77 C 785.807 1033.9 782.262 990.404 783.25 961.731 C 783.692 948.916 787.474 933.972 788.213 920.384 L 788.293 918.773 C 792.228 915.263 801.057 909.252 805.659 905.935 z"/>
<path transform="translate(0,0)" fill="rgb(69,80,85)" d="M 1241.5 906.595 C 1247.69 910.685 1252.84 914.465 1258.78 918.941 C 1259.61 936.917 1265.63 956.147 1264.55 975.581 C 1263.02 1003.26 1260.04 1034.77 1239.33 1055.02 C 1219.31 1043.76 1206.39 1025.29 1195.54 1005.62 C 1191.53 997.681 1195.66 967.901 1196.51 956.579 C 1199.45 959.377 1212.9 969.483 1213.32 970.94 C 1218.25 988.361 1221.32 1007.47 1227.82 1024.46 L 1228.41 1025.99 C 1225.84 1006.4 1224.16 985.715 1221.91 965.938 C 1237.85 945.837 1239.5 931.845 1241.5 906.595 z"/>
<path transform="translate(0,0)" fill="rgb(69,80,85)" d="M 1091.1 964.027 C 1092.59 965.586 1100.03 988.076 1100.31 990.061 C 1101.51 998.69 1114.55 1017.81 1115.46 1022.39 C 1119.03 1040.3 1117.77 1064.79 1119.76 1083.94 C 1122.86 1066.78 1123.12 1053.17 1125.68 1036.64 C 1130.48 1042.44 1136.52 1048.12 1141.94 1053.45 C 1141.85 1068.54 1141.14 1075.72 1137.4 1090.32 C 1132.88 1103.38 1129.52 1113.18 1118.7 1122.29 C 1117.04 1121.29 1115.44 1120.21 1113.89 1119.04 C 1095.44 1104.87 1076.71 1061.83 1077 1038.12 C 1077.05 1033.75 1081.73 1021.37 1082.62 1016.19 C 1085.14 1001.47 1082.42 986.367 1080.29 971.771 C 1084.87 969.021 1086.94 967.412 1091.1 964.027 z"/>
<path transform="translate(0,0)" fill="rgb(69,80,85)" d="M 956.423 963.615 C 960.362 966.988 962.933 968.739 967.188 971.61 C 964.697 985.176 963.163 1003.26 965.381 1016.92 C 967.287 1028.66 972.713 1033.09 970.505 1045.95 C 965.989 1072.27 951.023 1106.49 929.309 1122.75 C 918.087 1112.65 915.817 1104.58 910.752 1090.69 C 907.199 1077.29 906.16 1068.01 905.802 1054.3 C 911.558 1047.99 917.427 1042.06 923.215 1035.6 C 924.15 1051.79 925.445 1067.96 927.098 1084.09 C 930.174 1071.82 929.163 1030.33 931.822 1024.71 C 942.124 1002.92 949.421 987.641 956.423 963.615 z"/>
<path transform="translate(0,0)" fill="rgb(69,80,85)" d="M 1263.62 1043.76 C 1265.44 1045.69 1275.31 1093.35 1276.21 1099.31 C 1279.52 1121.16 1261.12 1164.28 1243.95 1177.81 C 1226.38 1165.19 1218.18 1150.81 1210.29 1131.22 C 1211.56 1125.33 1213.37 1118.82 1214.88 1112.92 C 1217.37 1103.1 1219.27 1089.29 1220.91 1078.93 C 1222.66 1097.43 1231.29 1136.61 1238.59 1153.62 C 1237.82 1142 1235.56 1128.71 1234.12 1116.99 C 1232.13 1099.79 1230.28 1082.57 1228.56 1065.34 L 1230.23 1066.14 C 1248.91 1074.91 1257 1058.32 1263.62 1043.76 z"/>
<path transform="translate(0,0)" fill="rgb(69,80,85)" d="M 783.704 1043.89 C 786.9 1047.56 793.483 1064.85 802.19 1067.78 C 809.395 1070.2 811.686 1069.06 818.43 1066.35 C 815.302 1095.34 813.044 1122.84 809.398 1152.1 C 817.903 1133.97 824.499 1096.77 826.948 1076.17 C 827.478 1088.12 829.456 1099.53 831.879 1111.21 C 833.584 1117.98 835.39 1124.73 837.294 1131.45 C 829.632 1149.73 820.182 1166.2 803.19 1177.17 C 789.687 1165.11 770.259 1127.03 770.548 1109.1 C 770.829 1091.6 779.354 1061.93 783.704 1043.89 z"/>
<path transform="translate(0,0)" fill="rgb(69,80,85)" d="M 750.784 799.293 C 753.375 799.529 752.497 799.298 754.953 800.374 C 757.261 807.838 756.713 815.472 759.295 823.788 C 746.917 851.655 738.765 879.28 746.028 909.801 C 733.085 933.631 720.025 951.507 695.878 964.488 C 692.45 965.499 690.455 966.435 686.928 965.863 C 685.174 962.762 687.494 955.581 688.76 952.12 C 698.091 926.615 700.097 901.112 703.959 874.459 C 722.972 857.858 732.058 845.394 741.909 821.585 C 744.685 814.876 747.361 806.397 750.402 800.07 L 750.784 799.293 z"/>
<path transform="translate(0,0)" fill="rgb(69,80,85)" d="M 859.353 1015.71 C 860.344 1016.92 860.131 1016.41 860.54 1017.72 C 864.215 1029.22 869.692 1040.07 876.769 1049.86 C 874.171 1063.37 870.815 1090.73 870.069 1104.12 C 875.306 1088.56 879.17 1072.61 884.164 1056.89 C 887.325 1058.09 891.379 1059.15 894.677 1060.12 C 895.531 1072.51 897.981 1085.67 899.975 1097.99 C 897.768 1103.27 895.579 1107.44 892.954 1112.47 C 884.977 1126.52 877.948 1137.76 864.154 1146.53 C 842.281 1128.52 835.858 1075.49 837.811 1049.11 C 847.073 1036.87 852.169 1028.99 859.353 1015.71 z"/>
<path transform="translate(0,0)" fill="rgb(69,80,85)" d="M 1293.07 798.501 C 1294.45 799.291 1297.62 801.132 1298.31 802.55 C 1305.07 816.401 1308.73 831.536 1317.11 844.771 C 1324.94 857.134 1334.21 865.47 1344.84 875.147 C 1345.86 898.989 1349.87 924.59 1357.42 947.351 C 1358.93 951.929 1363.1 962.278 1361.17 966.278 L 1358.36 967.05 C 1357.23 966.619 1356.17 966.19 1355.05 965.747 L 1353.53 965.157 C 1330.1 955.826 1312.39 930.754 1302.67 908.359 C 1308.33 874.736 1302.43 855.306 1288.79 824.619 L 1289.13 823.299 C 1291.54 814.279 1292.07 807.708 1293.07 798.501 z"/>
<path transform="translate(0,0)" fill="rgb(69,80,85)" d="M 1188.09 1015.58 C 1189.45 1017.18 1195.79 1028.2 1197.34 1030.7 C 1201.6 1037.56 1205.68 1043.17 1210.46 1049.69 C 1210.16 1076.59 1207.49 1102.26 1196.77 1127.24 C 1193.73 1134.32 1190.92 1143.23 1182.38 1144.47 C 1172 1142.06 1159.58 1121.59 1154.13 1112.93 C 1151.32 1108.49 1149.33 1104.05 1147.06 1099.32 C 1150.6 1084.22 1152.21 1075.14 1153.27 1059.53 L 1163.14 1056.44 C 1168.05 1072.91 1172.17 1087.37 1177.58 1103.95 C 1176.52 1087.21 1173.16 1067.16 1170.43 1050.52 C 1179.64 1038.23 1183.17 1030.09 1188.09 1015.58 z"/>
<path transform="translate(0,0)" fill="rgb(69,80,85)" d="M 1063.07 611.261 C 1066.11 615.273 1075.19 637.795 1077.6 643.44 C 1085.06 660.907 1092.74 678.28 1100.64 695.554 C 1093.14 660.47 1087.79 648.152 1076.16 615.33 C 1085.69 625.067 1089.35 627.739 1101.17 634.665 C 1104.29 642.781 1106.85 648.484 1111.11 655.967 C 1123.58 676.387 1122.57 706.781 1106.06 724.674 C 1078.4 708.365 1053.46 665.214 1044.39 634.912 C 1043.57 632.166 1045.04 615.995 1045.3 611.853 C 1053.54 616.132 1055.51 617.552 1063.07 611.261 z"/>
<path transform="translate(0,0)" fill="rgb(69,80,85)" d="M 982.682 611.649 C 991.042 617.381 992.778 616.824 1001.67 612.324 C 1002.51 621.16 1004.03 628.9 1001.8 641.236 C 999.591 653.474 956.081 729.432 940.972 722.94 C 929.027 717.807 926.716 676.245 935.058 659.543 C 939.441 650.198 942.408 642.482 946.006 632.893 C 957.014 628.631 962.053 624.427 970.439 616.435 C 960.065 647.091 953.86 662.536 947.887 695.15 C 956.481 675.162 976.844 630.74 982.682 611.649 z"/>
<path transform="translate(0,0)" fill="rgb(69,80,85)" d="M 732.773 714.893 C 736.347 724.902 738.681 729.123 746.566 735.957 C 733.567 767.637 725.646 789.856 695.039 810.385 C 688.482 814.784 676.515 821.337 668.711 819.514 C 654.911 810.366 672.327 764.517 677.596 752.676 C 679.816 748.11 682.414 743.586 684.874 739.132 C 699.977 739.959 703.809 736.691 714.721 727.261 C 706.384 746.059 687.561 776.476 676.779 794.766 C 698.651 773.344 719.206 742.228 732.773 714.893 z"/>
<path transform="translate(0,0)" fill="rgb(69,80,85)" d="M 1314.34 716.635 C 1316.28 718.455 1323.63 731.093 1325.48 734.292 C 1333.43 748.043 1358.44 786.04 1370.91 793.445 C 1357.94 773.22 1343.99 748.887 1332.34 727.763 C 1343.08 736.236 1348.65 740.747 1362.75 740.286 L 1367.96 749.402 C 1374.57 761.085 1393.64 809.167 1381.37 819.417 C 1375.75 821.122 1371.5 818.793 1366.24 816.843 C 1331.23 803.845 1313.35 767.468 1300.32 735.125 C 1303.04 733.467 1306.03 731.391 1308.72 729.615 C 1310.65 725.386 1312.5 720.921 1314.34 716.635 z"/>
<path transform="translate(0,0)" fill="rgb(69,80,85)" d="M 1130 680.189 C 1134.95 682.42 1141.27 688.604 1147.48 689.144 C 1148.11 689.198 1152.99 689.493 1153.17 689.705 C 1164.45 702.802 1174.58 726.153 1186.48 738.242 C 1179.73 719.918 1167.48 698.143 1158.82 680.191 C 1173.24 691.403 1175.95 697.433 1194.46 709.408 L 1202.07 714.708 C 1207.93 735.866 1210.08 754.267 1202.84 775.383 C 1170.67 762.273 1147.39 734.94 1128.8 706.735 C 1129.41 697.897 1129.81 689.046 1130 680.189 z"/>
<path transform="translate(0,0)" fill="rgb(69,80,85)" d="M 917.144 681.035 C 919.074 683.545 918.981 700.439 919.132 704.82 C 908.885 724.826 872.783 768.828 846.479 773.43 C 839.822 774.595 840.723 747.231 840.755 742.53 C 840.818 733.328 842.945 723.485 845.767 714.26 L 852.548 710.159 C 869.776 699.474 874.95 694.347 888.759 678.799 C 886.918 683.513 884.636 687.995 882.249 692.45 C 874.071 707.711 867.27 723.491 860.545 739.443 C 872.514 725.172 883.335 705.489 892.973 689.115 C 904.544 689.364 907.948 687.379 917.144 681.035 z"/>
<path transform="translate(0,0)" fill="rgb(69,80,85)" d="M 775.186 631.929 C 776.557 632.478 776.01 631.914 776.229 633.502 C 777.598 643.445 775.568 646.101 781.887 654.269 C 774.033 671.048 766.854 686.835 760.895 704.402 C 771.495 689.983 781.172 672.817 790.324 657.253 C 801.348 656.988 807.586 656.204 818.191 653.428 C 815.174 662.011 813.169 668.456 810.878 677.255 C 806.98 694.277 783.672 711.674 768.352 718.489 C 740.128 731.044 740.851 704.518 742.472 685.251 C 743.767 669.869 748.363 657.299 755.216 643.686 C 762.775 639.671 768.021 636.603 775.186 631.929 z"/>
<path transform="translate(0,0)" fill="rgb(69,80,85)" d="M 1272.34 633.267 C 1279.02 636.958 1285.73 640.609 1292.45 644.222 C 1303.67 664.085 1309.21 690.187 1304.36 712.727 C 1303.74 715.598 1300.62 720.189 1297.7 720.835 C 1279.25 724.908 1243.72 699.497 1238.82 682.731 C 1236.8 672.618 1233.36 662.873 1229.86 653.199 C 1239.55 655.456 1247.11 656.845 1257.04 656.828 C 1264.15 667.221 1279.97 695.333 1286.95 702.698 C 1282.38 687.006 1273.44 669.117 1266.15 654.265 C 1273.19 646.9 1272.23 643.509 1272.34 633.267 z"/>
<path transform="translate(0,0)" fill="rgb(69,80,85)" d="M 1123.7 720.621 C 1126.92 723.52 1133.23 732.586 1134.96 736.326 C 1145.17 758.421 1153.78 780.673 1167.56 800.99 C 1162.42 784.77 1155.44 768.684 1150.85 752.44 C 1159.87 760.266 1169.06 767.844 1178.01 775.755 C 1179.29 783.465 1179.98 795.241 1180.69 803.296 C 1180.68 809.073 1181.15 818.953 1178.35 823.728 C 1175.93 824.67 1173.7 824.102 1171.4 823.03 C 1136.94 806.995 1103.6 762.679 1090.21 728.659 C 1108.79 741.001 1111.75 738.802 1123.7 720.621 z"/>
<path transform="translate(0,0)" fill="rgb(69,80,85)" d="M 922.831 719.703 C 929.364 725.65 927.872 729.898 940.549 738.153 C 946.507 735.717 951.344 732.677 956.878 729.419 C 943.663 762.593 905.48 815.479 869.375 825.693 C 867.938 818.945 867.886 814.14 867.587 807.262 C 867.846 796.842 868.505 786.104 870.367 775.845 C 877.038 769.33 889.175 759.587 896.613 753.141 C 891.203 769.45 885.215 785.847 879.662 802.183 C 893.24 782.876 901.57 759.243 911.636 738.13 C 913.927 733.324 919.826 724.394 922.831 719.703 z"/>
<path transform="translate(0,0)" fill="rgb(69,80,85)" d="M 1058.99 691.79 C 1063.3 698.072 1071.01 709.535 1072.94 716.494 C 1079.65 740.578 1080.71 776 1091.63 798.489 C 1090.1 780.548 1088.05 762.656 1085.46 744.837 C 1093.97 761.354 1097.94 768.536 1109.31 783.082 C 1112.23 787.062 1113.39 788.971 1112.79 793.908 C 1111.41 805.316 1104.75 821.136 1095.84 828.497 C 1090.7 825.444 1086.05 821.633 1082.05 817.194 C 1065.53 798.985 1054.26 764.921 1053.38 740.306 C 1053.21 735.666 1056.47 720.536 1057.19 714.89 C 1058.23 706.72 1058.57 700.037 1058.99 691.79 z"/>
<path transform="translate(0,0)" fill="rgb(69,80,85)" d="M 988.528 693.71 C 990.094 705.82 995.164 734.1 994.574 744.721 C 993.142 770.486 975.182 816.285 951.279 828.39 C 942.157 817.799 934.943 804.299 933.895 790.169 C 944.802 775.004 951.849 765.619 960.417 748.651 C 959.119 764.217 956.909 783.364 956.929 798.616 C 961.209 782.245 965.026 765.756 968.374 749.169 C 974.322 719.477 971.665 720.274 988.528 693.71 z"/>
<path transform="translate(0,0)" fill="rgb(69,80,85)" d="M 1039.05 650.77 C 1046.77 665.792 1048.1 668.926 1048.78 685.681 C 1047.84 701.163 1043.7 740.789 1026.71 750.123 C 1016.43 753.596 1008.57 735.302 1006.57 729.06 C 997.302 700.132 995.472 679.378 1008.28 651.795 C 1012.26 656.2 1013.09 661.029 1019.32 666.185 C 1020.2 682.779 1021.22 714.839 1023.95 730.278 C 1025.84 709.118 1027.06 688.006 1028.95 666.961 C 1033.73 661.477 1035.63 657.214 1039.05 650.77 z"/>
<path transform="translate(0,0)" fill="rgb(69,80,85)" d="M 1293.52 574.262 C 1297.23 574.501 1317.78 592.414 1321.11 595.658 C 1329.24 603.496 1333.66 615.776 1333.66 626.991 C 1333.67 641.918 1317.45 638.954 1307.93 635.774 C 1293.85 631.073 1279.11 623.251 1267.51 614.044 C 1266.23 613.027 1260.96 603.059 1259.89 601.081 C 1255.59 593.331 1250.65 585.222 1246.16 577.521 L 1262.46 581.597 C 1273.57 594.241 1289.27 608.2 1302.16 618.939 C 1295.31 607.564 1283.73 593.691 1275.29 582.716 C 1283.3 580.973 1288.23 580.466 1293.52 574.262 z"/>
<path transform="translate(0,0)" fill="rgb(69,80,85)" d="M 753.5 573.661 C 762.57 577.021 758.514 580.427 773.311 581.488 C 764.226 593.329 755.219 605.23 746.291 617.191 C 757.044 609.569 775.683 591.771 784.798 581.98 L 801.67 577.914 C 796.996 585.432 792.426 593.015 787.962 600.661 C 786.211 603.739 781.544 612.204 778.956 614.413 C 768.403 623.419 710.841 657.615 715.438 621.131 C 716.811 610.228 719.693 600.661 728.8 593.628 C 737.09 587.226 745.351 580.296 753.5 573.661 z"/>
<path transform="translate(0,0)" fill="rgb(69,80,85)" d="M 1000.73 850.922 L 1001.57 852.096 C 1004.94 878.251 1001.8 905.724 990.905 929.811 C 975.277 964.374 961.477 962.273 951.9 926.797 C 950.966 923.529 950.135 916.4 949.606 912.769 C 953.237 907.149 957.078 900.272 960.529 894.433 C 962.195 906.002 963.552 917.325 966.549 928.631 C 967.705 914.789 967.262 901.404 967.035 887.534 C 982.76 878.413 990.975 865.584 1000.73 850.922 z"/>
<path transform="translate(0,0)" fill="rgb(69,80,85)" d="M 1046.23 852.487 C 1049.4 854.595 1057.34 866.443 1060.55 870.251 C 1067.55 878.564 1070.89 881.108 1079.94 886.911 C 1079.9 902.522 1079.97 913.901 1081.63 929.346 C 1084 917.776 1085.73 906.084 1086.82 894.323 C 1090.8 900.464 1095.06 908.212 1098.81 914.624 L 1097.27 924.159 C 1093.35 937.67 1089.2 947.842 1078.83 957.591 C 1046.78 934.849 1043.88 888.14 1046.23 852.487 z"/>
<path transform="translate(0,0)" fill="rgb(69,80,85)" d="M 1189.96 628.648 C 1191.27 629.265 1209.48 641.087 1211.96 643.857 C 1221.98 654.286 1235.08 693.999 1225.39 706.24 C 1216.72 717.195 1177.74 683.158 1171.71 677.277 C 1161.64 667.037 1162.3 663.797 1160.41 649.538 C 1173.7 653.104 1177.85 654.215 1187.3 643.969 C 1195.88 657.19 1205.09 669.997 1214.89 682.347 C 1209.97 669.598 1190.63 635.704 1189.96 628.648 z"/>
<path transform="translate(0,0)" fill="rgb(69,80,85)" d="M 855.797 628.944 C 856.999 630.188 856.901 632.469 856.192 633.936 C 848.352 650.154 839.805 665.26 833.133 682.076 C 842.13 671.702 852.971 655.141 861.08 643.39 C 869.593 653.233 874.713 653.772 887.008 649.841 C 885.827 656.642 885.238 660.097 884.97 667.038 L 877.885 675.515 C 869.482 684.462 835.218 713.891 822.966 707.631 C 813.226 695.932 825.477 660.857 831.857 648.805 C 835.027 642.816 848.502 635.318 854.661 629.944 L 855.797 628.944 z"/>
<path transform="translate(0,0)" fill="rgb(69,80,85)" d="M 822.772 567.83 C 825.008 579.092 817.938 585.886 827.7 597.509 C 819.879 605.863 807.413 617.379 801.414 626.362 C 813.79 617.765 825.143 608.092 836.644 598.385 C 841.546 598.168 845.676 596.869 850.439 596.226 C 854.68 595.652 858.831 601.278 862.401 603.877 L 863.258 604.494 C 859.212 611.254 857.667 612.709 852.255 618.117 C 845.558 624.34 837.327 631.561 829.148 635.768 C 822.388 640.019 790.347 652.664 787.545 639.46 C 783.781 621.72 805.975 591.035 812.434 576.211 L 812.989 574.917 L 822.772 567.83 z"/>
<path transform="translate(0,0)" fill="rgb(69,80,85)" d="M 1009.84 908.452 C 1010.6 909.564 1011 910.081 1011.5 911.349 C 1022.64 939.725 1022.23 971.332 1010.36 999.411 C 1007.14 987.142 1003.99 976.782 999.057 965.117 C 998.775 974.699 1002.16 1010.11 1000.98 1013.53 C 996.839 1021.74 992.666 1027.21 985.422 1032.97 C 972.041 1011.93 975.457 992.219 978.732 968.759 C 999.007 947.209 1003.08 937.425 1009.84 908.452 z"/>
<path transform="translate(0,0)" fill="rgb(69,80,85)" d="M 1215 721.306 C 1216.94 721.545 1226.54 721.85 1227.25 722.585 C 1231.03 726.504 1235.61 737.45 1238.64 742.046 C 1252.08 762.414 1264.04 775.719 1282.16 791.626 C 1282.16 801.159 1282.28 806.254 1279.25 815.318 C 1261.68 824.269 1226.28 776.511 1219.03 763.588 C 1219.16 747.009 1218.96 737.214 1215 721.306 z"/>
<path transform="translate(0,0)" fill="rgb(69,80,85)" d="M 830.947 721.45 L 831.926 721.43 C 832.863 723.305 830.302 732.259 829.922 735.587 C 828.893 744.591 829.073 753.871 829.029 762.935 C 817.733 780.241 793.031 816.817 770.481 816.867 C 765.455 807.244 766.486 801.289 766.45 790.27 C 794.716 766.058 802.219 754.132 819.503 722.251 C 823.49 722.396 827.003 721.881 830.947 721.45 z"/>
<path transform="translate(0,0)" fill="rgb(69,80,85)" d="M 1223.58 567.312 C 1228.6 569.903 1240.38 575.123 1238.72 581.943 C 1238.51 582.78 1238.22 586.396 1238.55 586.917 C 1245.61 597.946 1267.78 630.403 1259.06 642.721 C 1244.68 652.576 1209.24 629.811 1197.65 619.976 C 1193.75 616.294 1187.36 610.889 1185.43 606.122 C 1186.59 603.986 1190.72 597.522 1192.99 597.305 C 1212.93 595.397 1229.44 617.731 1247.3 624.961 C 1238.04 616.873 1227.4 605.846 1218.51 597.021 C 1220.74 594.901 1223.04 591.626 1224.95 589.095 C 1225.27 579.924 1224.86 576.57 1223.58 567.312 z"/>
<path transform="translate(0,0)" fill="rgb(69,80,85)" d="M 1037.28 908.739 C 1045.16 937.019 1048.56 947.616 1069.03 968.765 C 1070.9 980.158 1077.24 1026.23 1061.63 1030.23 C 1055.22 1028.4 1052.45 1022.3 1048.82 1016.65 C 1044.59 1008.2 1049.33 979.22 1048.85 965.739 C 1042.02 979.932 1041.09 985.048 1037.91 1000.55 C 1024.52 966.699 1027.6 943.333 1037.28 908.739 z"/>
<path transform="translate(0,0)" fill="rgb(69,80,85)" d="M 1043.55 752.973 C 1045.41 759.457 1046.62 766.87 1048.38 773.523 C 1055.82 801.608 1067.99 828.308 1095.44 841.165 C 1093.79 853.98 1092.19 862.464 1085.19 873.534 C 1079.61 875.666 1075.58 870.467 1071.83 866.805 C 1043.61 839.251 1035.13 801.824 1034.9 763.491 C 1038.25 759.937 1040.61 756.811 1043.55 752.973 z"/>
<path transform="translate(0,0)" fill="rgb(69,80,85)" d="M 1195.14 848.447 C 1202.89 862.787 1204.44 898.049 1207.34 915.986 L 1210 915.245 C 1210.04 900.46 1209.41 884.955 1209.01 870.123 C 1217 880.027 1223.31 887.789 1232.11 896.989 C 1230.85 912.255 1228.12 945.458 1214.67 954.82 C 1200.2 955.901 1185.54 912.621 1183.08 900.406 C 1192.45 879.635 1194.88 871.115 1195.14 848.447 z"/>
<path transform="translate(0,0)" fill="rgb(28,32,36)" d="M 1207.34 915.986 L 1210 915.245 C 1210.22 921.252 1209.82 925.411 1209.32 931.391 L 1207.34 915.986 z"/>
<path transform="translate(0,0)" fill="rgb(69,80,85)" d="M 1003.55 753.509 C 1004.77 754.349 1011.42 761.95 1013.08 763.72 C 1012.02 781.495 1010.41 799.461 1005.11 816.619 C 998.998 836.391 983.279 865.567 964.253 875.532 C 955.678 865.195 953.583 853.325 952.476 840.433 C 985.731 826.919 997.313 785.318 1003.55 753.509 z"/>
<path transform="translate(0,0)" fill="rgb(69,80,85)" d="M 732.059 791.808 C 732.983 792.366 738.326 799.798 739.823 801.507 C 739.261 802.966 738.678 804.416 738.076 805.859 C 726.494 833.533 706.151 860.456 677.67 872.043 C 667.003 866.892 663.281 863.891 659.302 852.943 C 657.469 845.085 657.911 838.73 657.983 830.675 C 668.219 831.724 670.923 831.436 680.91 830.246 C 678.501 837.311 676.603 844.692 674.641 851.906 C 679.476 846.148 688.142 829.324 691.587 826.89 C 709.227 814.425 718.113 808.603 732.059 791.808 z"/>
<path transform="translate(0,0)" fill="rgb(69,80,85)" d="M 851.633 849.866 C 853.86 852.576 852.615 869.676 854.812 876.303 C 858.083 886.174 860.821 891.16 865.633 900.312 C 860.279 920.789 851.827 943.54 832.856 955.1 C 821.179 941.277 819.561 928.535 817.221 911.161 L 815.935 896.515 C 823.874 888.739 831.997 877.902 838.827 868.994 C 838.64 888.376 836.848 911.06 838.729 930.311 C 841.184 913.557 845.689 861.268 851.633 849.866 z"/>
<path transform="translate(0,0)" fill="rgb(69,80,85)" d="M 1315.37 791.07 C 1316.57 792.135 1323.52 800.249 1325.05 801.969 C 1335.42 813.603 1342.82 818.218 1356.25 825.699 C 1362.11 835.657 1367.71 845.372 1374.18 854.959 L 1367.23 830.719 C 1376.62 832.017 1380.72 832.589 1390.05 830.665 C 1390.11 837.461 1390 841.696 1389.36 848.449 C 1386.3 861.471 1383.18 866.204 1370.74 871.313 C 1368.27 870.51 1365.83 869.58 1363.45 868.528 C 1335.95 856.164 1318.42 827.796 1308.27 800.64 C 1312.13 796.871 1313.36 796.001 1315.37 791.07 z"/>
<path transform="translate(0,0)" fill="rgb(69,80,85)" d="M 1125.71 806.647 C 1145.84 822.435 1154.13 838.404 1183.61 837.656 C 1185.56 856.816 1185.68 866.62 1178.41 884.418 C 1173.43 894.198 1167.5 892.833 1159.89 886.253 C 1137.47 866.864 1127.75 835.323 1125.71 806.647 z"/>
<path transform="translate(0,0)" fill="rgb(69,80,85)" d="M 921.847 806.83 C 921.936 807.476 922.157 808.587 922.073 809.371 C 919.142 836.879 909.767 865.723 889.427 885.394 C 885.34 889.347 881.984 891.769 876.575 891.757 C 873.18 890.493 872.969 889.664 870.979 886.663 C 862.146 871.224 862.483 855.303 864.245 838.246 C 865.247 838.268 866.248 838.28 867.249 838.281 C 889.568 838.223 907.095 821.436 921.847 806.83 z"/>
<path transform="translate(0,0)" fill="rgb(69,80,85)" d="M 801.816 513.717 C 806.792 517.286 804.729 520.521 814.86 525.281 C 804.978 532.787 792.841 541.351 785.32 551.015 C 797.764 544.909 808.168 536.707 819.442 531.222 L 821.176 530.391 C 828.023 527.064 833.346 526.517 840.877 525.166 C 838.928 538.175 844.459 538.989 833.102 548.299 C 817.85 561.203 795.007 570.772 774.805 570.515 C 768.649 570.437 763.992 565.277 765.803 559.071 C 771.399 539.884 785.604 524.723 801.816 513.717 z"/>
<path transform="translate(0,0)" fill="rgb(69,80,85)" d="M 1244.25 513.528 C 1257.95 518.206 1288.92 552.632 1280.05 567.862 C 1266.83 578.513 1226.4 556.928 1214.39 548.886 L 1206.89 541.709 C 1207.42 534.687 1207.33 531.21 1205.83 524.406 C 1236.56 530.008 1238.28 541.263 1263.7 551.941 C 1258.16 545.917 1251.57 539.79 1245.35 534.453 C 1241.55 531.191 1237.15 529.31 1233.95 525.574 L 1236.68 523.091 C 1240.83 519.352 1241.79 518.621 1244.25 513.528 z"/>
<path transform="translate(0,0)" fill="rgb(69,80,85)" d="M 809.478 703.907 C 810.767 707.017 812.146 709.86 813.6 712.895 C 798.89 741.594 774.939 774.83 745.743 789.845 C 736.914 777.455 750.126 749.412 755.03 735.855 C 783.708 726.617 786.997 724.173 809.478 703.907 z"/>
<path transform="translate(0,0)" fill="rgb(69,80,85)" d="M 1238.42 704.507 C 1257.73 723.036 1266.79 728.314 1292.22 735.223 C 1296.7 744.968 1305.24 769.456 1306.28 780.61 C 1306.45 782.548 1304.73 787.587 1304.03 789.639 C 1277.22 783.461 1247.88 736.452 1234.3 714.164 L 1238.42 704.507 z"/>
<path transform="translate(0,0)" fill="rgb(69,80,85)" d="M 1116.35 818.647 C 1117.27 821.424 1120.02 836.202 1120.85 839.788 C 1125.4 859.5 1131.64 869.917 1142.42 886.196 C 1141.44 901.77 1138.93 914.975 1129 927.427 C 1117.58 920.546 1095.52 893.988 1094.66 880.705 C 1104.44 859.575 1104.4 856.602 1106.01 833.56 C 1113.54 857.79 1116.2 879.116 1126.23 904.304 C 1122.34 879.958 1116.72 849.69 1113.82 824.923 C 1113.61 823.125 1115.34 820.305 1116.35 818.647 z"/>
<path transform="translate(0,0)" fill="rgb(69,80,85)" d="M 930.727 819.503 C 932.952 821.502 934.034 823.729 933.675 826.728 C 930.655 851.983 925.167 877.414 922.976 902.758 C 931.292 879.123 935.096 859.293 941.357 835.465 C 942.142 854.522 944.529 863.73 953.731 880.606 C 953.038 893.092 929.687 920.09 918.548 926.886 C 908.518 913.959 907.278 902.214 905.771 886.582 C 922.418 860.761 926.134 850.247 930.727 819.503 z"/>
<path transform="translate(0,0)" fill="rgb(69,80,85)" d="M 1305.58 647.686 C 1315 649.702 1321.83 650.177 1331.36 650.316 C 1341.9 666.061 1363.48 703.45 1358.81 722.133 C 1347.35 729.716 1321.42 701.614 1318.79 692.484 C 1313.96 675.702 1312.73 664.319 1305.58 647.686 z"/>
<path transform="translate(0,0)" fill="rgb(69,80,85)" d="M 739.533 648.343 L 740.602 648.154 L 741.635 648.927 C 735.161 664.055 733.333 678.457 727.978 692.681 C 723.009 705.878 705.352 719.541 691.896 724.581 C 678.779 707.874 707.315 664.112 717.623 650.101 C 726.644 650.323 730.786 649.92 739.533 648.343 z"/>
<path transform="translate(0,0)" fill="rgb(69,80,85)" d="M 751.859 921.846 C 759.055 928.492 763.968 927.364 773.048 926.818 C 767.961 951.096 759.57 971.146 739.179 986.282 C 735.24 988.476 733.872 988.937 729.949 987.967 C 723.642 982.709 722.305 973.064 719.978 964.715 C 735.928 948.891 740.522 940.932 751.859 921.846 z"/>
<path transform="translate(0,0)" fill="rgb(69,80,85)" d="M 1295.91 922.289 C 1296.95 923.416 1303.32 933.955 1304.68 936.108 C 1312.1 947.881 1317.75 955.114 1327.48 965.097 C 1325.18 973.654 1324.34 983.313 1317.76 988.542 C 1313.83 989.223 1314.96 988.961 1310.69 987.425 C 1288.33 973.047 1281.78 951.971 1275.47 927.979 C 1286.2 928.198 1288.28 929.154 1295.91 922.289 z"/>
<path transform="translate(0,0)" fill="rgb(69,80,85)" d="M 916.265 586.962 C 918.308 589.487 918.256 604.443 918.404 608.49 C 909.306 625.027 892.341 639.14 873.428 642.176 C 865.605 631.36 869.496 616.152 875.926 605.592 C 894.119 601.725 901.337 597.892 916.265 586.962 z"/>
<path transform="translate(0,0)" fill="rgb(69,80,85)" d="M 1130.27 587.365 C 1146.97 597.725 1153.72 602.875 1172.79 605.947 C 1178.16 616.559 1181.01 628.329 1177.2 639.979 C 1160.21 645.126 1137.25 621.586 1128.68 608.597 C 1129.43 601.538 1129.96 594.457 1130.27 587.365 z"/>
<path transform="translate(0,0)" fill="rgb(69,80,85)" d="M 706.272 973.937 C 707.652 974.006 706.956 973.775 708.217 974.97 C 708.529 991.697 684.828 1028.33 666.502 1022.55 C 661.204 1015.88 661.222 1012.61 665.151 1004.92 C 669.51 996.386 674.07 988.517 678.144 979.766 C 690.703 981.729 695.078 979.608 706.272 973.937 z"/>
<path transform="translate(0,0)" fill="rgb(69,80,85)" d="M 1339.04 972.676 C 1351.62 978.98 1355.89 982.016 1369.95 980.35 C 1375.21 991.106 1381.15 1001.69 1386.47 1012.42 C 1388.07 1015.63 1386.98 1016.57 1385.71 1019.26 C 1365.03 1037.03 1341.44 990.229 1339.04 972.676 z"/>
<path transform="translate(0,0)" fill="rgb(69,80,85)" d="M 923.325 555.007 L 924.58 555.639 C 924.051 559.385 920.77 566.811 919.239 570.641 C 910.924 577.132 854.233 617.108 868.903 578.086 C 873.037 569.65 876.328 565.562 882.54 558.828 C 890.722 560.216 895.267 560.247 903.33 559.236 C 898.328 565.326 896.65 567.207 892.867 574.102 C 906.441 564.964 907.46 559.848 923.325 555.007 z"/>
<path transform="translate(0,0)" fill="rgb(69,80,85)" d="M 1122.07 554.674 C 1139.37 558.817 1141.34 564.773 1155.63 574.14 C 1152.67 568.921 1149.28 564.592 1145.71 559.792 C 1152.95 560 1158.23 560.228 1165.44 559.531 C 1171.19 565.594 1174.9 571.146 1178.84 578.405 C 1180.71 582.573 1182.68 586.521 1181.44 590.996 C 1171.13 602.269 1136.49 577.939 1127.54 570.52 L 1122.07 554.674 z"/>
<path transform="translate(0,0)" fill="rgb(69,80,85)" d="M 1023.24 582.622 C 1027.65 588.716 1030.7 596.917 1036.92 605.19 C 1035.75 622.721 1034.74 640.586 1024.48 655.516 C 1012.86 648.013 1011.11 617.139 1010.94 604.6 C 1015.73 596.725 1019.45 591.003 1023.24 582.622 z"/>
<path transform="translate(0,0)" fill="rgb(69,80,85)" d="M 921.748 624.66 C 928.061 629.254 923.822 631.976 935.477 635.694 C 926.896 654.032 922.312 661.504 906.941 674.35 C 903.188 676.86 902.624 677.109 898.896 675.233 C 893.823 667.862 896.517 654.319 897.579 645.61 C 907.839 637.84 912.718 633.956 921.748 624.66 z"/>
<path transform="translate(0,0)" fill="rgb(69,80,85)" d="M 1173.47 542.64 C 1181.83 544.74 1190.31 546.308 1198.86 547.333 L 1199.48 548.098 C 1209.97 561.213 1215.12 569.553 1213.18 586.985 C 1204.16 587.267 1200.72 587.461 1192.14 584.042 C 1184.81 568.814 1183.33 564.714 1171.94 552.209 C 1172.48 549.024 1172.99 545.834 1173.47 542.64 z"/>
<path transform="translate(0,0)" fill="rgb(69,80,85)" d="M 1125.19 623.897 C 1133.81 632.481 1139.71 638.133 1149.82 644.817 C 1150.75 653.045 1153.58 671.519 1145.54 676.507 L 1142.21 675.333 C 1127.64 663.343 1120.6 653.678 1112.15 636.825 C 1120.61 632.966 1120.86 631.865 1125.19 623.897 z"/>
<path transform="translate(0,0)" fill="rgb(69,80,85)" d="M 873.297 543.19 L 874.739 543.994 L 875.646 551.584 C 865.306 562.058 861.851 569.959 856.119 583.393 C 848.435 585.972 844.016 586.887 836.057 587.404 C 827.247 578.831 842.472 554.68 849.007 547.082 C 857.874 547.191 864.881 545.555 873.297 543.19 z"/>
<path transform="translate(0,0)" fill="rgb(69,80,85)" d="M 1256.55 506.388 C 1277.47 509.483 1308.73 528.3 1317.46 547.689 C 1307.02 547.174 1296.55 544.097 1286.5 541.313 C 1280.56 531.909 1276.9 526.434 1268.83 518.532 C 1264.83 514.611 1259.71 510.659 1256.55 506.388 z"/>
<path transform="translate(0,0)" fill="rgb(69,80,85)" d="M 788.668 507.283 L 792.408 507.469 C 777.959 517.686 771.207 525.723 762.093 540.384 C 752.839 543.903 745.007 545.452 735.249 546.53 L 732.82 546.638 L 731.769 545.514 C 736.593 529.926 772.373 509.524 788.668 507.283 z"/>
<path transform="translate(0,0)" fill="rgb(69,80,85)" d="M 1208.23 402.681 C 1218.78 421.714 1207.87 437.004 1195.71 450.993 L 1194.88 450.979 C 1193.38 448.495 1194.03 434.165 1193.12 428.155 C 1200.28 418.535 1203.42 413.63 1208.23 402.681 z"/>
<path transform="translate(0,0)" fill="rgb(69,80,85)" d="M 838.806 403.437 C 840.184 404.703 849.049 420.119 851.418 423.717 C 851.901 431.936 852.24 440.162 852.435 448.393 L 851.237 448.909 C 836.568 434.231 831.394 423.912 838.806 403.437 z"/>
</svg>