<svg version="1.1" xmlns="http://www.w3.org/2000/svg" style="display: block;" viewBox="0 0 2048 2048" width="1024" height="1024" preserveAspectRatio="none">
<defs>
	<linearGradient id="Gradient1" gradientUnits="userSpaceOnUse" x1="1044.87" y1="805.217" x2="1051.13" y2="811.783">
		<stop class="stop0" offset="0" stop-opacity="1" stop-color="rgb(184,182,184)"/>
		<stop class="stop1" offset="1" stop-opacity="1" stop-color="rgb(146,146,147)"/>
	</linearGradient>
	<linearGradient id="Gradient2" gradientUnits="userSpaceOnUse" x1="807.171" y1="692.261" x2="798.704" y2="691.731">
		<stop class="stop0" offset="0" stop-opacity="1" stop-color="rgb(154,156,161)"/>
		<stop class="stop1" offset="1" stop-opacity="1" stop-color="rgb(196,195,191)"/>
	</linearGradient>
	<linearGradient id="Gradient3" gradientUnits="userSpaceOnUse" x1="1291.99" y1="699.437" x2="1288.03" y2="699.52">
		<stop class="stop0" offset="0" stop-opacity="1" stop-color="rgb(131,134,135)"/>
		<stop class="stop1" offset="1" stop-opacity="1" stop-color="rgb(165,166,167)"/>
	</linearGradient>
	<linearGradient id="Gradient4" gradientUnits="userSpaceOnUse" x1="1417.38" y1="668.262" x2="1425.22" y2="669.99">
		<stop class="stop0" offset="0" stop-opacity="1" stop-color="rgb(139,141,141)"/>
		<stop class="stop1" offset="1" stop-opacity="1" stop-color="rgb(180,180,180)"/>
	</linearGradient>
	<linearGradient id="Gradient5" gradientUnits="userSpaceOnUse" x1="1292.28" y1="1367.04" x2="1294.31" y2="1353.65">
		<stop class="stop0" offset="0" stop-opacity="1" stop-color="rgb(134,135,136)"/>
		<stop class="stop1" offset="1" stop-opacity="1" stop-color="rgb(160,158,159)"/>
	</linearGradient>
	<linearGradient id="Gradient6" gradientUnits="userSpaceOnUse" x1="430.386" y1="1266.87" x2="451.862" y2="1272.77">
		<stop class="stop0" offset="0" stop-opacity="1" stop-color="rgb(147,146,147)"/>
		<stop class="stop1" offset="1" stop-opacity="1" stop-color="rgb(173,172,173)"/>
	</linearGradient>
	<linearGradient id="Gradient7" gradientUnits="userSpaceOnUse" x1="443.36" y1="1329.76" x2="439.518" y2="1329.34">
		<stop class="stop0" offset="0" stop-opacity="1" stop-color="rgb(130,129,133)"/>
		<stop class="stop1" offset="1" stop-opacity="1" stop-color="rgb(168,166,167)"/>
	</linearGradient>
	<linearGradient id="Gradient8" gradientUnits="userSpaceOnUse" x1="521.813" y1="685.753" x2="518.46" y2="688.285">
		<stop class="stop0" offset="0" stop-opacity="1" stop-color="rgb(133,134,136)"/>
		<stop class="stop1" offset="1" stop-opacity="1" stop-color="rgb(174,175,174)"/>
	</linearGradient>
	<linearGradient id="Gradient9" gradientUnits="userSpaceOnUse" x1="1083.83" y1="679.295" x2="1085.72" y2="673.969">
		<stop class="stop0" offset="0" stop-opacity="1" stop-color="rgb(138,141,145)"/>
		<stop class="stop1" offset="1" stop-opacity="1" stop-color="rgb(174,173,174)"/>
	</linearGradient>
	<linearGradient id="Gradient10" gradientUnits="userSpaceOnUse" x1="1006.51" y1="647.93" x2="1006.49" y2="635.97">
		<stop class="stop0" offset="0" stop-opacity="1" stop-color="rgb(138,142,145)"/>
		<stop class="stop1" offset="1" stop-opacity="1" stop-color="rgb(173,174,175)"/>
	</linearGradient>
	<linearGradient id="Gradient11" gradientUnits="userSpaceOnUse" x1="1119.11" y1="1320.91" x2="1113.79" y2="1314.16">
		<stop class="stop0" offset="0" stop-opacity="1" stop-color="rgb(131,131,133)"/>
		<stop class="stop1" offset="1" stop-opacity="1" stop-color="rgb(163,162,162)"/>
	</linearGradient>
	<linearGradient id="Gradient12" gradientUnits="userSpaceOnUse" x1="1014.21" y1="1385.95" x2="1015.78" y2="1410.53">
		<stop class="stop0" offset="0" stop-opacity="1" stop-color="rgb(124,125,125)"/>
		<stop class="stop1" offset="1" stop-opacity="1" stop-color="rgb(149,149,149)"/>
	</linearGradient>
</defs>
<path transform="translate(0,0)" fill="rgb(58,61,63)" d="M 363.046 540.299 C 374.586 539.308 386.207 539.886 397.592 542.02 C 415.287 545.406 443.947 555.624 462.092 561.249 C 490.821 570.008 519.723 578.191 548.78 585.792 C 588.905 596.564 627.465 605.434 668.893 610.078 C 694.83 612.986 721.719 612.811 747.998 614.163 C 775.069 614.981 803.611 620.378 830.498 620.814 C 956.689 622.864 1083.22 622.836 1209.41 620.669 C 1240.39 620.136 1272.15 615.41 1303.24 614.407 C 1329.15 613.57 1355.23 614.822 1381.1 612.843 C 1447.74 605.037 1513.9 580.174 1578.96 563.556 C 1602.34 557.583 1624.04 547.489 1647.76 542.903 C 1660.76 540.388 1677.11 537.412 1689.67 542.906 C 1705.86 549.536 1701.53 582.489 1698.88 595.75 C 1690.68 636.698 1675.94 676.194 1666.08 716.824 C 1652.79 771.622 1636.88 828.062 1632.48 884.475 C 1629.54 922.231 1631.5 962.54 1631.24 1000.64 C 1630.88 1053.74 1629.82 1107.17 1632.46 1160.14 C 1637.2 1228.09 1657.71 1298.79 1675.24 1365.03 C 1683.64 1396.77 1710.6 1467.57 1697.77 1496.82 C 1695.01 1503.12 1687.05 1505.36 1680.87 1506.91 C 1661.49 1508.34 1643.96 1504.47 1625.6 1498.62 C 1583.67 1485.25 1541.31 1473.47 1498.82 1462.04 C 1467.78 1453.7 1437.55 1443.22 1405.78 1437.83 C 1368.08 1431.43 1330.1 1434.54 1292.1 1432.3 C 1263.73 1430.7 1235.58 1428.19 1207.21 1426.89 C 1088.71 1425.41 970.071 1426.02 851.558 1426.65 C 836.733 1427.29 821.716 1427.7 806.925 1428.93 C 753.296 1433.42 698.379 1432.39 645.169 1440.16 C 588.262 1448.48 533.157 1466.95 477.725 1481.32 C 445.647 1489.63 384.115 1518.95 353.879 1501.81 C 337.58 1476.17 352.224 1435.01 360.003 1408.18 L 376.507 1350.92 C 393.149 1292.88 405.612 1231.5 414.605 1171.74 C 417.077 1155.32 416.219 1136.18 416.283 1119.44 C 416.362 1098.89 416.235 1078.26 416.226 1057.69 L 416.046 958.378 C 416.11 933.708 416.981 908.87 414.988 884.265 C 413.056 860.4 408.745 836.875 404.027 813.429 C 398.273 784.835 392.49 756.16 385.105 727.939 C 375.527 691.338 335.134 581.573 349.177 551.602 C 352.176 545.204 356.694 542.743 363.046 540.299 z"/>
<path transform="translate(0,0)" fill="rgb(58,61,63)" d="M 999.774 1210.49 C 1012.15 1208.7 1017.16 1209.15 1024.99 1219.84 L 1025.08 1246.88 C 1025.1 1251.33 1025.34 1258.3 1024.94 1262.54 C 1026.06 1265.22 1025.89 1265.15 1027.97 1267.12 C 1026.86 1257 1026.71 1239.05 1033.15 1230.59 C 1036.73 1227.94 1045.96 1224.75 1050.18 1225.68 C 1067.17 1229.39 1063.06 1261.7 1062.95 1274 C 1063.02 1292.22 1062.35 1320.59 1064.05 1338.07 C 1069.97 1331.9 1076 1325.23 1083.2 1320.6 C 1096.31 1311.63 1105.57 1308.88 1120.36 1315 L 1122.83 1317.02 L 1125.2 1324.33 C 1124.05 1328.94 1123.49 1329.58 1119.71 1332.39 C 1106.6 1342.14 1097.8 1352.07 1091.37 1367.36 C 1088.6 1373.95 1086.28 1381.01 1082.7 1387.34 C 1066.79 1407.12 1044.05 1411.8 1019.8 1412.06 C 993.79 1412.35 969.458 1413.73 948.511 1395.98 C 947.173 1394.83 945.895 1393.62 944.683 1392.34 C 919.033 1365.44 927.046 1342.27 924.817 1308.69 C 924.344 1301.56 924.286 1293.54 924.368 1286.42 C 923.614 1278.76 924.119 1270.69 924.652 1263.05 C 931.885 1255.57 932.652 1255.23 942.865 1254.34 C 948.722 1255.41 950.928 1258.24 955.018 1262.31 C 955.05 1251.65 954.896 1242.86 956.331 1232.23 C 958.749 1229.86 962.356 1227.09 965.034 1224.89 C 969.68 1224.65 974.151 1224.97 978.795 1225.18 C 983.507 1228.07 984.92 1229.56 988.812 1233.36 C 988.82 1221.94 988.011 1219.94 996.865 1212.02 L 999.774 1210.49 z"/>
<path transform="translate(0,0)" fill="rgb(143,143,144)" d="M 996.865 1212.02 L 999.774 1210.49 C 1003.25 1213.27 1003.13 1213.06 1004.46 1217.28 C 1006.05 1217.67 1006.86 1217.89 1008.49 1218.12 L 1001.29 1219.42 C 992.882 1231.35 999.805 1294.9 994.171 1312.02 C 993.683 1313.5 988.591 1315.07 987.469 1315.37 C 976.925 1312.67 981.338 1264.57 980.551 1253.09 C 980.758 1247.68 980.597 1242.28 980.508 1236.87 C 960.147 1219.17 964.29 1253.86 963.318 1262.87 C 954.953 1266.83 960.416 1268.01 954.804 1270.54 C 953.18 1267.4 956.408 1267.7 954.585 1263.82 L 952.295 1264.36 C 951.55 1267.11 951.723 1266.02 952.223 1269.03 C 949.968 1270.76 951.241 1270.32 948.198 1270.16 C 946.82 1264.56 945.819 1264.2 940.924 1261.72 L 941.981 1261.51 C 941.928 1259.11 941.981 1258.58 942.452 1256.29 L 942.865 1254.34 C 948.722 1255.41 950.928 1258.24 955.018 1262.31 C 955.05 1251.65 954.896 1242.86 956.331 1232.23 C 958.749 1229.86 962.356 1227.09 965.034 1224.89 C 969.68 1224.65 974.151 1224.97 978.795 1225.18 C 983.507 1228.07 984.92 1229.56 988.812 1233.36 C 988.82 1221.94 988.011 1219.94 996.865 1212.02 z"/>
<path transform="translate(0,0)" fill="rgb(157,157,158)" d="M 980.508 1236.87 C 987.184 1238.83 986.631 1237.76 987.385 1245.14 C 986.786 1248.46 986.499 1249.36 986.785 1252.82 C 984.957 1253.29 982.534 1253.1 980.551 1253.09 C 980.758 1247.68 980.597 1242.28 980.508 1236.87 z"/>
<path transform="translate(0,0)" fill="rgb(132,133,134)" d="M 987.385 1245.14 L 989.408 1245.78 C 990.442 1253.16 992.371 1258.75 988.339 1265.78 L 987.175 1265.37 C 985.857 1258.88 987.118 1258.04 986.785 1252.82 C 986.499 1249.36 986.786 1248.46 987.385 1245.14 z"/>
<path transform="translate(0,0)" fill="rgb(143,143,144)" d="M 1033.15 1230.59 C 1035.64 1233.78 1035.66 1233.94 1038.81 1236.35 C 1035.18 1253.36 1036.58 1303.35 1031.54 1311.95 C 1021.18 1318.05 1017.06 1309.3 1017.82 1299.67 C 1016.65 1297.38 1016.93 1287 1016.89 1283.7 L 1016.76 1269.77 C 1019.57 1271.14 1020.17 1271.83 1023.22 1271.4 C 1025.3 1268.19 1024.64 1267 1024.94 1262.54 C 1026.06 1265.22 1025.89 1265.15 1027.97 1267.12 C 1026.86 1257 1026.71 1239.05 1033.15 1230.59 z"/>
<path transform="translate(0,0)" fill="rgb(132,133,134)" d="M 1024.94 1262.54 C 1026.06 1265.22 1025.89 1265.15 1027.97 1267.12 C 1027.27 1273.48 1029.14 1279.71 1024.78 1284.95 C 1022.79 1285.68 1021.58 1286.09 1019.54 1286.62 L 1018.19 1287.96 L 1018.36 1286.34 L 1016.96 1285.02 L 1016.89 1283.7 L 1016.76 1269.77 C 1019.57 1271.14 1020.17 1271.83 1023.22 1271.4 C 1025.3 1268.19 1024.64 1267 1024.94 1262.54 z"/>
<path transform="translate(0,0)" fill="rgb(132,133,134)" d="M 1017.82 1299.67 L 1021.23 1301.76 L 1020.72 1305.47 L 1021.72 1306.79 L 1023.59 1306.4 C 1027.21 1299.26 1020.73 1293.99 1026.25 1290.73 C 1031.68 1300.09 1022.48 1307.79 1031.54 1311.95 C 1021.18 1318.05 1017.06 1309.3 1017.82 1299.67 z"/>
<path transform="translate(0,0)" fill="url(#Gradient12)" d="M 1073.75 1384.84 L 1082.7 1387.34 C 1066.79 1407.12 1044.05 1411.8 1019.8 1412.06 C 993.79 1412.35 969.458 1413.73 948.511 1395.98 C 947.173 1394.83 945.895 1393.62 944.683 1392.34 C 946.765 1389.16 946.017 1389.1 948.843 1388.3 C 950.438 1389.68 951.041 1390.11 952.815 1391.26 L 954.128 1390.42 C 972.07 1404.57 986.667 1405.15 1008.98 1405.3 C 1033.6 1405.46 1056.31 1404.23 1073.75 1384.84 z"/>
<path transform="translate(0,0)" fill="rgb(132,133,134)" d="M 1053.93 1265.99 L 1057.81 1265.56 L 1058.74 1266.56 C 1057.32 1270.19 1056.68 1269.9 1057.72 1272.64 L 1062.95 1274 C 1063.02 1292.22 1062.35 1320.59 1064.05 1338.07 C 1069.97 1331.9 1076 1325.23 1083.2 1320.6 C 1086.45 1321.79 1092.06 1322.76 1094.42 1324.22 C 1084.74 1330.73 1080.64 1334.17 1072.7 1342.79 C 1063.64 1336.68 1066.34 1348.41 1055.29 1341.59 C 1054.52 1335.29 1054.62 1322.57 1054.5 1315.8 C 1054.18 1299.2 1053.99 1282.59 1053.93 1265.99 z"/>
<path transform="translate(0,0)" fill="rgb(143,143,144)" d="M 924.368 1286.42 C 929.951 1286.28 930.596 1288.47 932.864 1288.57 C 932.955 1294.82 932.887 1301.17 933.143 1307.42 C 934.541 1341.6 927.833 1363.73 954.128 1390.42 L 952.815 1391.26 C 951.041 1390.11 950.438 1389.68 948.843 1388.3 C 946.017 1389.1 946.765 1389.16 944.683 1392.34 C 919.033 1365.44 927.046 1342.27 924.817 1308.69 C 924.344 1301.56 924.286 1293.54 924.368 1286.42 z"/>
<path transform="translate(0,0)" fill="rgb(157,157,158)" d="M 948.198 1270.16 C 951.241 1270.32 949.968 1270.76 952.223 1269.03 C 951.723 1266.02 951.55 1267.11 952.295 1264.36 L 954.585 1263.82 C 956.408 1267.7 953.18 1267.4 954.804 1270.54 C 960.416 1268.01 954.953 1266.83 963.318 1262.87 C 962.175 1278.67 963.135 1294.61 962.173 1310.4 C 961.785 1316.76 960.706 1319.01 954.6 1320.77 C 952.152 1320 951.212 1320.05 949.791 1317.19 C 946.541 1310.66 947.186 1276.16 948.198 1270.16 z"/>
<path transform="translate(0,0)" fill="rgb(143,143,144)" d="M 1122.83 1317.02 L 1125.2 1324.33 C 1124.05 1328.94 1123.49 1329.58 1119.71 1332.39 C 1106.6 1342.14 1097.8 1352.07 1091.37 1367.36 C 1088.6 1373.95 1086.28 1381.01 1082.7 1387.34 L 1073.75 1384.84 C 1081.37 1372.31 1083.22 1360.01 1091.68 1347.14 C 1098.27 1337.1 1110.07 1331.45 1115.18 1324.07 L 1114.89 1323.07 C 1120.61 1322.2 1120.13 1321.48 1122.83 1317.02 z"/>
<path transform="translate(0,0)" fill="rgb(157,157,158)" d="M 1122.83 1317.02 L 1125.2 1324.33 C 1121.76 1325.01 1120.15 1325.23 1116.66 1325.55 L 1115.18 1324.07 L 1114.89 1323.07 C 1120.61 1322.2 1120.13 1321.48 1122.83 1317.02 z"/>
<path transform="translate(0,0)" fill="rgb(157,158,158)" d="M 1033.15 1230.59 C 1036.73 1227.94 1045.96 1224.75 1050.18 1225.68 C 1067.17 1229.39 1063.06 1261.7 1062.95 1274 L 1057.72 1272.64 C 1056.68 1269.9 1057.32 1270.19 1058.74 1266.56 L 1057.81 1265.56 L 1053.93 1265.99 C 1053.95 1259.98 1054.19 1253.8 1054.03 1247.81 C 1053.7 1235.6 1050.18 1232.94 1038.81 1236.35 C 1035.66 1233.94 1035.64 1233.78 1033.15 1230.59 z"/>
<path transform="translate(0,0)" fill="rgb(157,157,158)" d="M 999.774 1210.49 C 1012.15 1208.7 1017.16 1209.15 1024.99 1219.84 L 1025.08 1246.88 C 1021.21 1246.6 1020.14 1245.4 1016.97 1243.17 C 1017.09 1232.63 1020.05 1222.01 1008.49 1218.12 C 1006.86 1217.89 1006.05 1217.67 1004.46 1217.28 C 1003.13 1213.06 1003.25 1213.27 999.774 1210.49 z"/>
<path transform="translate(0,0)" fill="rgb(157,157,158)" d="M 924.652 1263.05 C 931.885 1255.57 932.652 1255.23 942.865 1254.34 L 942.452 1256.29 C 941.981 1258.58 941.928 1259.11 941.981 1261.51 L 940.924 1261.72 C 928.879 1266.19 932.539 1277.1 932.864 1288.57 C 930.596 1288.47 929.951 1286.28 924.368 1286.42 C 923.614 1278.76 924.119 1270.69 924.652 1263.05 z"/>
<path transform="translate(0,0)" fill="rgb(157,158,158)" d="M 1083.2 1320.6 C 1096.31 1311.63 1105.57 1308.88 1120.36 1315 L 1122.83 1317.02 C 1120.13 1321.48 1120.61 1322.2 1114.89 1323.07 C 1111.42 1320.33 1111.06 1320.41 1106.57 1319.56 C 1103.23 1320.79 1097.41 1322.73 1094.42 1324.22 C 1092.06 1322.76 1086.45 1321.79 1083.2 1320.6 z"/>
<path transform="translate(0,0)" fill="url(#Gradient11)" d="M 1106.57 1319.56 C 1114.81 1317.62 1111.15 1314.72 1120.36 1315 L 1122.83 1317.02 C 1120.13 1321.48 1120.61 1322.2 1114.89 1323.07 C 1111.42 1320.33 1111.06 1320.41 1106.57 1319.56 z"/>
<path transform="translate(0,0)" fill="rgb(143,143,144)" d="M 1016.97 1243.17 C 1020.14 1245.4 1021.21 1246.6 1025.08 1246.88 C 1025.1 1251.33 1025.34 1258.3 1024.94 1262.54 C 1024.64 1267 1025.3 1268.19 1023.22 1271.4 C 1020.17 1271.83 1019.57 1271.14 1016.76 1269.77 C 1016.7 1260.91 1016.77 1252.04 1016.97 1243.17 z"/>
<path transform="translate(0,0)" fill="rgb(157,158,158)" d="M 1055.29 1341.59 C 1066.34 1348.41 1063.64 1336.68 1072.7 1342.79 C 1068.67 1348.07 1063.37 1357.94 1057.74 1360.08 L 1056.38 1359.43 C 1054.66 1356.64 1053.93 1353.35 1054.31 1350.1 C 1054.7 1347.01 1055.01 1344.84 1055.29 1341.59 z"/>
<path transform="translate(0,0)" fill="rgb(58,61,63)" d="M 1588.95 581.933 C 1626.84 575.254 1646.6 608.38 1651.68 640.793 C 1654.02 655.668 1650.24 683.416 1646.34 698.534 C 1644.24 712.39 1638.34 767.973 1628.86 775.777 C 1627.24 777.115 1626.24 777.032 1624.33 776.918 C 1621.13 774.914 1618.43 770.382 1617.52 766.826 L 1616.14 766.316 C 1614.54 771.14 1614.39 779.965 1613.19 786.085 C 1613.16 786.879 1613.12 787.672 1613.07 788.464 C 1612.06 803.562 1602.03 811.242 1591.37 795.798 C 1590.28 804.706 1584.85 829.246 1570.14 815.342 C 1562.15 807.789 1563.45 794.227 1564.06 783.953 L 1561.56 781.986 C 1557.47 802.551 1543.37 802.423 1533.19 785.335 C 1532.73 769.528 1533 752.317 1533.09 736.419 C 1534.01 723.198 1533.81 709.417 1534.93 696.507 C 1534.95 689.254 1535.4 676.576 1534.15 669.895 C 1532.42 672.091 1530.59 674.283 1529.06 676.605 C 1521.82 687.256 1507.64 698.598 1494.67 700.238 C 1487.45 701.152 1474.54 699.78 1475.27 689.864 C 1475.88 681.652 1483.29 677.106 1488.77 671.438 L 1496.47 660.972 C 1506.86 639.625 1504.29 624.084 1515.52 608.587 L 1518.12 605.299 C 1523.58 599.63 1527.86 597.44 1534.68 594.119 C 1547.6 588.471 1574.57 582.141 1588.95 581.933 z"/>
<path transform="translate(0,0)" fill="rgb(143,143,144)" d="M 1556.86 751.284 C 1557.69 739.459 1558.65 711.004 1565.58 702.805 C 1580.14 696.772 1574.57 725.7 1574.32 732.506 C 1573.48 755.108 1570.53 778.154 1571.05 800.71 C 1571.17 805.938 1573.85 809.742 1579.2 810.093 C 1589.02 803.133 1587.35 713.238 1596.7 703.524 C 1600.81 703.013 1599.01 702.593 1602.38 704.446 C 1607.12 712.103 1600.54 748.596 1599.19 758.535 C 1602.88 758.457 1606.72 757.862 1609.66 759.82 L 1610.56 761.818 L 1611.42 756.232 C 1614.47 759.44 1616.83 759.32 1618.44 762.91 C 1618.17 764.311 1618.05 765.553 1617.52 766.826 L 1616.14 766.316 C 1614.54 771.14 1614.39 779.965 1613.19 786.085 C 1613.16 786.879 1613.12 787.672 1613.07 788.464 C 1612.06 803.562 1602.03 811.242 1591.37 795.798 C 1590.28 804.706 1584.85 829.246 1570.14 815.342 C 1562.15 807.789 1563.45 794.227 1564.06 783.953 L 1561.56 781.986 L 1561.93 771.103 C 1556.29 767.727 1556.88 768.37 1555.76 762.258 C 1556 758.514 1556.43 755.01 1556.86 751.284 z"/>
<path transform="translate(0,0)" fill="rgb(58,61,63)" d="M 1610.56 761.818 L 1611.42 756.232 C 1614.47 759.44 1616.83 759.32 1618.44 762.91 C 1618.17 764.311 1618.05 765.553 1617.52 766.826 L 1616.14 766.316 C 1614.54 771.14 1614.39 779.965 1613.19 786.085 L 1607.53 786.915 C 1606.61 791.802 1606.16 795.736 1600.99 797.09 L 1599.36 795.558 C 1595.85 786.151 1598.29 769.035 1599.19 758.535 C 1602.88 758.457 1606.72 757.862 1609.66 759.82 L 1610.56 761.818 z"/>
<path transform="translate(0,0)" fill="rgb(132,133,134)" d="M 1610.56 761.818 L 1611.42 756.232 C 1614.47 759.44 1616.83 759.32 1618.44 762.91 C 1618.17 764.311 1618.05 765.553 1617.52 766.826 L 1616.14 766.316 C 1614.54 771.14 1614.39 779.965 1613.19 786.085 L 1607.53 786.915 C 1607.89 779.355 1609.51 769.495 1610.56 761.818 z"/>
<path transform="translate(0,0)" fill="rgb(87,89,88)" d="M 1564.49 753.008 C 1563.04 745.372 1564.25 734.346 1565.75 726.716 L 1566.55 725.806 C 1568.49 735.867 1564.19 771.21 1564.06 783.953 L 1561.56 781.986 L 1561.93 771.103 C 1556.29 767.727 1556.88 768.37 1555.76 762.258 C 1556 758.514 1556.43 755.01 1556.86 751.284 C 1560.91 751.555 1560.82 751.443 1564.49 753.008 z"/>
<path transform="translate(0,0)" fill="rgb(157,157,158)" d="M 1556.86 751.284 C 1560.91 751.555 1560.82 751.443 1564.49 753.008 C 1562.68 758.598 1562.06 765.209 1561.93 771.103 C 1556.29 767.727 1556.88 768.37 1555.76 762.258 C 1556 758.514 1556.43 755.01 1556.86 751.284 z"/>
<path transform="translate(0,0)" fill="rgb(143,143,144)" d="M 1640.59 699.272 L 1642.02 700.98 C 1644.92 700.029 1643.9 700.508 1646.34 698.534 C 1644.24 712.39 1638.34 767.973 1628.86 775.777 C 1627.24 777.115 1626.24 777.032 1624.33 776.918 C 1621.13 774.914 1618.43 770.382 1617.52 766.826 C 1618.05 765.553 1618.17 764.311 1618.44 762.91 C 1616.83 759.32 1614.47 759.44 1611.42 756.232 C 1613.79 742.751 1614.68 709.583 1621.41 700.373 C 1624.73 698.843 1623.08 698.936 1626.52 700.028 C 1632.73 708.661 1618.97 749.728 1622.67 762.381 C 1623.4 764.846 1623.97 765.291 1625.96 766.584 L 1627.84 765.493 C 1634.53 753.76 1635.9 715.982 1640.03 701.221 L 1640.59 699.272 z"/>
<path transform="translate(0,0)" fill="rgb(157,158,158)" d="M 1588.95 581.933 C 1626.84 575.254 1646.6 608.38 1651.68 640.793 C 1654.02 655.668 1650.24 683.416 1646.34 698.534 C 1643.9 700.508 1644.92 700.029 1642.02 700.98 L 1640.59 699.272 C 1642.02 668.78 1653.76 647.354 1637.24 617.668 C 1625.62 596.778 1618.57 591.453 1594.95 588.643 C 1595.8 585.16 1597.03 585.411 1596.47 582.486 L 1588.95 581.933 z"/>
<path transform="translate(0,0)" fill="rgb(157,158,158)" d="M 1488.77 671.438 L 1496.47 660.972 C 1496.99 663.312 1497.17 664.426 1497.05 666.814 L 1498.06 668.137 C 1499.48 670.007 1498.94 669.238 1500.17 671.174 L 1499.07 672.207 C 1495.67 677.233 1486.89 684.738 1485.36 688.033 C 1492.19 701.955 1514.7 679.986 1520.08 673.275 C 1524.25 674.409 1525.32 674.59 1529.06 676.605 C 1521.82 687.256 1507.64 698.598 1494.67 700.238 C 1487.45 701.152 1474.54 699.78 1475.27 689.864 C 1475.88 681.652 1483.29 677.106 1488.77 671.438 z"/>
<path transform="translate(0,0)" fill="rgb(143,143,144)" d="M 1488.77 671.438 L 1496.47 660.972 C 1496.99 663.312 1497.17 664.426 1497.05 666.814 L 1498.06 668.137 C 1499.48 670.007 1498.94 669.238 1500.17 671.174 L 1499.07 672.207 C 1494.9 670.603 1496.6 670.313 1493.46 671.502 L 1491.46 676.477 C 1489.3 675.276 1489.79 674.646 1488.77 671.438 z"/>
<path transform="translate(0,0)" fill="rgb(157,158,158)" d="M 1533.09 736.419 C 1534.74 734.497 1534.67 734.297 1536.89 733.194 L 1539.08 733.678 C 1541.09 737.609 1540.79 741.854 1541.11 746.444 C 1541.04 757.708 1538.11 781.199 1544.96 788.654 C 1548.49 789.73 1546.72 789.681 1550.45 788.525 C 1555.47 783.35 1555.03 770.312 1555.76 762.258 C 1556.88 768.37 1556.29 767.727 1561.93 771.103 L 1561.56 781.986 C 1557.47 802.551 1543.37 802.423 1533.19 785.335 C 1532.73 769.528 1533 752.317 1533.09 736.419 z"/>
<path transform="translate(0,0)" fill="rgb(157,157,158)" d="M 1515.52 608.587 L 1518.12 605.299 L 1525.82 609.385 L 1519.84 617.292 C 1513.98 629.558 1514.91 635.376 1511.52 648.075 C 1509.7 654.86 1502.27 665.565 1500.17 671.174 C 1498.94 669.238 1499.48 670.007 1498.06 668.137 L 1497.05 666.814 C 1497.17 664.426 1496.99 663.312 1496.47 660.972 C 1506.86 639.625 1504.29 624.084 1515.52 608.587 z"/>
<path transform="translate(0,0)" fill="rgb(143,143,144)" d="M 1515.52 608.587 L 1518.12 605.299 L 1525.82 609.385 L 1519.84 617.292 C 1518.71 613.267 1518.61 611.423 1515.52 608.587 z"/>
<path transform="translate(0,0)" fill="rgb(157,157,158)" d="M 1532.49 654.41 C 1535.49 650.049 1538.68 648.501 1543.67 651.365 C 1543.93 652.149 1542.84 689.391 1542.79 693.593 C 1540.16 694.48 1537.41 695.305 1534.93 696.507 C 1534.95 689.254 1535.4 676.576 1534.15 669.895 C 1532.42 672.091 1530.59 674.283 1529.06 676.605 C 1525.32 674.59 1524.25 674.409 1520.08 673.275 C 1525.09 666.664 1528.63 661.736 1532.49 654.41 z"/>
<path transform="translate(0,0)" fill="rgb(163,163,164)" d="M 1532.49 654.41 C 1536.33 661.104 1538.34 656.183 1540.51 660.909 C 1538.57 661.996 1539.43 661.746 1538.07 662.022 L 1537.45 664.499 C 1539.61 665.105 1538.77 664.982 1541.07 664.705 C 1541.85 666.924 1541.85 665.885 1541.41 667.804 C 1539.12 667.761 1538.57 667.677 1536.6 668.875 L 1533.38 668.77 L 1534.15 669.895 C 1532.42 672.091 1530.59 674.283 1529.06 676.605 C 1525.32 674.59 1524.25 674.409 1520.08 673.275 C 1525.09 666.664 1528.63 661.736 1532.49 654.41 z"/>
<path transform="translate(0,0)" fill="rgb(157,158,158)" d="M 1533.38 668.77 L 1531.12 668.269 C 1529.19 665.228 1529.38 666.777 1529.62 663.678 L 1532.41 664.661 C 1536.13 662.878 1532.1 662.367 1536.25 658.082 L 1538.38 659.437 L 1538.07 662.022 L 1537.45 664.499 C 1539.61 665.105 1538.77 664.982 1541.07 664.705 C 1541.85 666.924 1541.85 665.885 1541.41 667.804 C 1539.12 667.761 1538.57 667.677 1536.6 668.875 L 1533.38 668.77 z"/>
<path transform="translate(0,0)" fill="rgb(157,157,158)" d="M 1534.68 594.119 C 1547.6 588.471 1574.57 582.141 1588.95 581.933 L 1596.47 582.486 C 1597.03 585.411 1595.8 585.16 1594.95 588.643 C 1576.76 591.065 1559.7 593.157 1541.95 598.267 C 1538.19 595.557 1541.34 600.003 1535.82 597.388 L 1534.68 594.119 z"/>
<path transform="translate(0,0)" fill="rgb(143,143,144)" d="M 1534.93 696.507 C 1537.41 695.305 1540.16 694.48 1542.79 693.593 C 1542.53 707.056 1542.71 734.174 1541.11 746.444 C 1540.79 741.854 1541.09 737.609 1539.08 733.678 L 1536.89 733.194 C 1534.67 734.297 1534.74 734.497 1533.09 736.419 C 1534.01 723.198 1533.81 709.417 1534.93 696.507 z"/>
<path transform="translate(0,0)" fill="rgb(157,158,158)" d="M 1518.12 605.299 C 1523.58 599.63 1527.86 597.44 1534.68 594.119 L 1535.82 597.388 C 1541.34 600.003 1538.19 595.557 1541.95 598.267 C 1536.11 601.662 1530.64 604.636 1525.82 609.385 L 1518.12 605.299 z"/>
<path transform="translate(0,0)" fill="rgb(58,61,63)" d="M 1564.99 1255.94 C 1564.36 1244.75 1568.9 1228.21 1584.57 1236.21 C 1590.63 1239.3 1591.81 1248.17 1593.1 1254.5 C 1615.1 1233.59 1615.46 1270.77 1618.01 1283.45 C 1621.5 1279.14 1626.07 1274.32 1631.49 1279.36 C 1636.77 1284.27 1638.89 1299.26 1639.63 1306.25 C 1644.77 1354.56 1673.03 1414.34 1633.45 1455.13 C 1617.65 1471.22 1592.61 1468.99 1573.01 1464.87 C 1553.74 1461.13 1535.04 1457.61 1521.1 1442.6 C 1519.93 1441.35 1518.81 1440.04 1517.76 1438.68 C 1505.69 1418.98 1510.65 1401.58 1497.24 1383.25 C 1491.11 1374.86 1467.35 1357.78 1482.34 1349.31 C 1505.41 1336.27 1526.4 1362.83 1536.65 1378.29 C 1537.01 1348.15 1536.45 1318.85 1534.9 1288.77 C 1535.28 1281.87 1533.85 1273.42 1535.03 1266.62 C 1537.59 1251.96 1551.04 1248.69 1561.03 1258.38 C 1563.37 1257.46 1562.91 1257.54 1564.99 1255.94 z"/>
<path transform="translate(0,0)" fill="rgb(143,143,144)" d="M 1593.1 1254.5 C 1615.1 1233.59 1615.46 1270.77 1618.01 1283.45 C 1621.5 1279.14 1626.07 1274.32 1631.49 1279.36 C 1636.77 1284.27 1638.89 1299.26 1639.63 1306.25 C 1644.77 1354.56 1673.03 1414.34 1633.45 1455.13 C 1617.65 1471.22 1592.61 1468.99 1573.01 1464.87 C 1553.74 1461.13 1535.04 1457.61 1521.1 1442.6 C 1519.93 1441.35 1518.81 1440.04 1517.76 1438.68 C 1520.66 1436.95 1522 1436.23 1524.63 1433.98 C 1543.3 1455.29 1585.3 1463.54 1611.69 1457.52 C 1644.93 1447.82 1651.84 1404.12 1644.83 1375.33 C 1641.68 1362.39 1634.55 1290.38 1626.6 1286.15 C 1617.3 1297.4 1638.63 1344.04 1624.81 1352.28 C 1618.33 1349.88 1619.28 1336.64 1617.84 1330.74 C 1613.41 1312.62 1613.61 1273.88 1605.99 1258.45 C 1603.42 1257.1 1604.7 1257.14 1602.11 1257.87 C 1591.99 1271.48 1615.13 1338.69 1601.55 1348.48 L 1599.49 1347.86 C 1591.88 1338.46 1588.37 1278.93 1586.77 1262.87 C 1586.3 1260.31 1586 1255.91 1585.73 1253.17 C 1588.73 1253.2 1590.62 1252.88 1593.1 1254.5 z"/>
<path transform="translate(0,0)" fill="rgb(157,158,158)" d="M 1585.73 1253.17 C 1588.73 1253.2 1590.62 1252.88 1593.1 1254.5 C 1593.34 1256.82 1593.45 1258.25 1593.46 1260.58 C 1591.53 1262.45 1589.5 1262.41 1586.77 1262.87 C 1586.3 1260.31 1586 1255.91 1585.73 1253.17 z"/>
<path transform="translate(0,0)" fill="rgb(143,143,144)" d="M 1536.65 1378.29 C 1537.01 1348.15 1536.45 1318.85 1534.9 1288.77 C 1535.28 1281.87 1533.85 1273.42 1535.03 1266.62 C 1537.59 1251.96 1551.04 1248.69 1561.03 1258.38 C 1562.16 1264.3 1563.36 1269.91 1563.82 1275.92 C 1561.25 1274.7 1559.47 1274.39 1556.74 1273.73 C 1555.96 1269.34 1555.77 1265.92 1553.37 1262.22 C 1547.29 1258.92 1544.86 1264.53 1543.8 1269.46 C 1539.81 1287.85 1550.41 1386.66 1543.83 1397.62 C 1542.28 1398.14 1541.57 1398.79 1540.51 1397.78 C 1528.01 1385.93 1527.16 1373.93 1511.76 1361.95 C 1508.37 1360.05 1506.07 1358.9 1503.06 1356.48 C 1498.87 1355.49 1489.87 1352.58 1488.3 1358.39 C 1494.27 1367.04 1504.86 1377.5 1509.06 1385.77 C 1518.26 1403.89 1514.23 1415.21 1524.63 1433.98 C 1522 1436.23 1520.66 1436.95 1517.76 1438.68 C 1505.69 1418.98 1510.65 1401.58 1497.24 1383.25 C 1491.11 1374.86 1467.35 1357.78 1482.34 1349.31 C 1505.41 1336.27 1526.4 1362.83 1536.65 1378.29 z"/>
<path transform="translate(0,0)" fill="rgb(132,133,134)" d="M 1503.06 1356.48 C 1500.05 1353.02 1500.22 1354.28 1500.1 1350.62 L 1501.28 1349.99 C 1502.96 1352.23 1502.82 1352.23 1503.63 1354.97 C 1507.94 1355.12 1505.75 1351.27 1510.26 1352.32 C 1511.71 1354.72 1511.06 1356.56 1510.68 1359.44 L 1511.76 1361.95 C 1508.37 1360.05 1506.07 1358.9 1503.06 1356.48 z"/>
<path transform="translate(0,0)" fill="rgb(143,143,144)" d="M 1564.99 1255.94 C 1564.36 1244.75 1568.9 1228.21 1584.57 1236.21 C 1590.63 1239.3 1591.81 1248.17 1593.1 1254.5 C 1590.62 1252.88 1588.73 1253.2 1585.73 1253.17 C 1584.65 1247.81 1583.88 1241.4 1576.75 1242.65 C 1569.46 1250.47 1575.07 1298.6 1576.08 1311.73 C 1571.73 1310.77 1573.5 1310.32 1570.35 1311.99 C 1569.6 1314.54 1569.51 1314.82 1569.3 1317.46 L 1568.01 1318.36 L 1565.99 1317.85 C 1565.07 1315.52 1565.27 1314.79 1565.19 1312.24 L 1563.56 1311.53 L 1560.67 1312.82 C 1559.4 1303.29 1558.28 1293.74 1557.31 1284.17 L 1564.26 1282.93 L 1563.82 1275.92 C 1563.36 1269.91 1562.16 1264.3 1561.03 1258.38 C 1563.37 1257.46 1562.91 1257.54 1564.99 1255.94 z"/>
<path transform="translate(0,0)" fill="rgb(87,89,88)" d="M 1564.99 1255.94 C 1565.37 1261.66 1568.28 1303.95 1567.24 1305.98 C 1565.71 1304.03 1564.48 1286.69 1564.26 1282.93 L 1563.82 1275.92 C 1563.36 1269.91 1562.16 1264.3 1561.03 1258.38 C 1563.37 1257.46 1562.91 1257.54 1564.99 1255.94 z"/>
<path transform="translate(0,0)" fill="rgb(143,143,144)" d="M 1560.67 1312.82 L 1563.56 1311.53 L 1565.19 1312.24 C 1565.27 1314.79 1565.07 1315.52 1565.99 1317.85 L 1568.01 1318.36 L 1569.3 1317.46 C 1569.51 1314.82 1569.6 1314.54 1570.35 1311.99 C 1573.5 1310.32 1571.73 1310.77 1576.08 1311.73 C 1576.44 1319.86 1578.88 1339.7 1576 1346.03 C 1573.46 1348.23 1573.7 1348.24 1570.42 1348.84 C 1561.58 1344.84 1561.41 1321.9 1560.67 1312.82 z"/>
<path transform="translate(0,0)" fill="rgb(157,158,158)" d="M 1556.74 1273.73 C 1559.47 1274.39 1561.25 1274.7 1563.82 1275.92 L 1564.26 1282.93 L 1557.31 1284.17 L 1556.74 1273.73 z"/>
<path transform="translate(0,0)" fill="rgb(58,61,63)" d="M 952.408 645.672 C 977.93 630.518 1037.2 630.488 1063.77 642.135 C 1071.82 646.096 1074.28 647.934 1080.38 654.984 C 1084.94 661.798 1086.48 665.389 1088.55 673.543 L 1090.43 679.254 C 1093.99 687.207 1097.91 692.976 1103.31 699.854 C 1109.1 705.837 1125.35 714.015 1123.43 721.725 C 1120.15 734.881 1098.49 731.532 1089.19 726.451 C 1082.98 723.121 1080.95 722.134 1075.59 717.494 C 1071.25 714.084 1065.63 708.081 1062.1 703.71 C 1062.16 708.896 1062.32 714.456 1062.16 719.609 C 1062.58 731.222 1063.16 754.299 1062.26 765.343 C 1062.98 771.333 1063.37 791.486 1062.11 797.212 C 1061.92 802.281 1061.43 805.08 1058.31 809.314 C 1053.4 806.778 1052.07 808.227 1049.03 806.742 L 1041.94 805.187 C 1039.63 803.901 1039.83 803.585 1038.64 801.106 C 1035.43 800.22 1031.72 798.864 1028.52 797.788 C 1028.87 791.27 1026.77 762.045 1023.99 756.023 C 1023.08 768.554 1025.47 785.119 1025.05 798.253 C 1024.42 817.923 1029.17 826.805 1006.19 832.437 C 997.488 829.804 995.142 828.179 988.399 822.017 C 988.484 818.509 988.384 814.009 989.193 810.687 L 987.461 807.658 C 980.981 815.338 973.321 818.509 963.369 815.553 C 950.299 803.508 955.938 798.798 954.419 779.942 C 945.406 785.291 947.76 787.073 936.396 787.021 L 934.861 787.002 C 927.783 783.25 923.115 780.116 923.484 771.582 C 923.254 762.867 923.153 712.115 924.854 707.246 C 924.431 696.854 924.09 685.325 927.553 675.504 C 933.16 662.934 941.287 653.617 952.408 645.672 z"/>
<path transform="translate(0,0)" fill="rgb(157,158,158)" d="M 997.079 786.315 C 997.197 795.033 995.911 816.764 1001.18 822.171 C 1004.14 823.403 1008.49 824.371 1011.5 822.676 C 1014.98 820.715 1015.94 814.982 1016.29 811.432 C 1017.7 796.775 1010.79 738.22 1020.13 730.104 C 1021.4 728.999 1022.52 728.677 1024.21 728.642 C 1026.55 728.592 1028.89 730.045 1030.47 731.591 C 1033.21 738.969 1032 742.62 1033.17 749.485 C 1035.55 763.52 1035.63 787.928 1038.64 801.106 C 1035.43 800.22 1031.72 798.864 1028.52 797.788 C 1028.87 791.27 1026.77 762.045 1023.99 756.023 C 1023.08 768.554 1025.47 785.119 1025.05 798.253 C 1024.42 817.923 1029.17 826.805 1006.19 832.437 C 997.488 829.804 995.142 828.179 988.399 822.017 C 988.484 818.509 988.384 814.009 989.193 810.687 C 989.514 803.821 988.625 788.155 991.082 783.939 L 992.996 783.458 L 997.079 786.315 z"/>
<path transform="translate(0,0)" fill="rgb(87,89,88)" d="M 1023.24 736.366 L 1024.35 736.867 C 1024.52 742.455 1025.21 747.738 1025.84 753.283 C 1023.74 752.276 1024.66 753.021 1023.21 750.91 C 1023 746.791 1022.02 739.832 1023.24 736.366 z"/>
<path transform="translate(0,0)" fill="rgb(157,158,158)" d="M 938.296 779.644 C 941.586 778.788 943.018 778.726 945.467 776.138 C 952.611 759.959 939.637 729.432 955.429 722.095 C 957.339 722.303 959.555 722.3 960.504 724.774 C 965.446 737.651 960.812 798.441 965.709 806.785 C 965.002 809.391 963.912 813.003 963.369 815.553 C 950.299 803.508 955.938 798.798 954.419 779.942 C 945.406 785.291 947.76 787.073 936.396 787.021 L 934.861 787.002 C 936.641 785.231 937.456 782.09 938.296 779.644 z"/>
<path transform="translate(0,0)" fill="rgb(143,143,144)" d="M 980.377 751.025 C 989.996 749.943 985.008 746.877 996.137 750.898 C 996.462 761.576 997.296 775.936 997.079 786.315 L 992.996 783.458 L 991.082 783.939 C 988.625 788.155 989.514 803.821 989.193 810.687 L 987.461 807.658 C 980.981 815.338 973.321 818.509 963.369 815.553 C 963.912 813.003 965.002 809.391 965.709 806.785 C 970.809 808.312 973.237 809.362 977.75 805.788 C 980.34 801.673 980.067 800.636 980.438 795.57 C 979.631 785.708 979.758 761.21 980.377 751.025 z"/>
<path transform="translate(0,0)" fill="rgb(157,158,158)" d="M 980.438 795.57 C 980.883 791.623 980.662 790.061 983.229 787.045 L 984.863 787.352 C 988.69 796.559 985.907 801.623 987.461 807.658 C 980.981 815.338 973.321 818.509 963.369 815.553 C 963.912 813.003 965.002 809.391 965.709 806.785 C 970.809 808.312 973.237 809.362 977.75 805.788 C 980.34 801.673 980.067 800.636 980.438 795.57 z"/>
<path transform="translate(0,0)" fill="url(#Gradient10)" d="M 952.408 645.672 C 977.93 630.518 1037.2 630.488 1063.77 642.135 C 1061.21 644.511 1062.05 644.395 1061.55 649.016 C 1037.39 638.195 980.677 635.778 958.476 650.646 C 956.357 649.42 954.298 647.348 952.408 645.672 z"/>
<path transform="translate(0,0)" fill="rgb(157,158,158)" d="M 923.484 771.582 C 923.254 762.867 923.153 712.115 924.854 707.246 C 925.706 712.286 924.731 714.118 927.593 716.265 L 932.882 716.738 C 932.74 732.831 933.111 751.598 932.412 767.488 C 931.831 774.487 932.331 775.815 938.296 779.644 C 937.456 782.09 936.641 785.231 934.861 787.002 C 927.783 783.25 923.115 780.116 923.484 771.582 z"/>
<path transform="translate(0,0)" fill="rgb(163,163,164)" d="M 923.484 771.582 C 924.822 765.417 922.55 764.154 927.912 759.187 L 929.654 759.533 C 932.124 762.245 931.937 763.827 932.412 767.488 C 931.831 774.487 932.331 775.815 938.296 779.644 C 937.456 782.09 936.641 785.231 934.861 787.002 C 927.783 783.25 923.115 780.116 923.484 771.582 z"/>
<path transform="translate(0,0)" fill="rgb(157,158,158)" d="M 1053.6 714.475 C 1053.89 708.286 1051.49 690.135 1054.01 686.942 L 1056.37 686.666 C 1064.79 690.2 1073.79 705.252 1082.95 713.003 L 1083.87 713.768 L 1088.96 717.241 L 1089.19 726.451 C 1082.98 723.121 1080.95 722.134 1075.59 717.494 C 1071.25 714.084 1065.63 708.081 1062.1 703.71 C 1062.16 708.896 1062.32 714.456 1062.16 719.609 L 1061.22 716.457 C 1057.99 714.082 1058.34 714.851 1053.6 714.475 z"/>
<path transform="translate(0,0)" fill="rgb(157,157,158)" d="M 1083.87 713.768 L 1088.96 717.241 L 1089.19 726.451 C 1082.98 723.121 1080.95 722.134 1075.59 717.494 C 1077.76 716.698 1079.92 716.374 1082.21 716.233 L 1083.87 713.768 z"/>
<path transform="translate(0,0)" fill="rgb(157,158,158)" d="M 1103.31 699.854 C 1109.1 705.837 1125.35 714.015 1123.43 721.725 C 1120.15 734.881 1098.49 731.532 1089.19 726.451 L 1088.96 717.241 C 1090.55 718.031 1092.15 718.793 1093.77 719.527 C 1098.77 721.805 1110.08 726.83 1113.08 719.614 C 1111.58 716.952 1104.74 712.501 1101.29 709.063 L 1100.48 708.241 C 1101.19 706.719 1102.65 701.811 1103.31 699.854 z"/>
<path transform="translate(0,0)" fill="rgb(157,158,158)" d="M 1053.6 714.475 C 1058.34 714.851 1057.99 714.082 1061.22 716.457 L 1062.16 719.609 C 1062.58 731.222 1063.16 754.299 1062.26 765.343 C 1058 763.439 1057.41 762.435 1054.03 758.998 L 1053.6 714.475 z"/>
<path transform="translate(0,0)" fill="rgb(157,158,158)" d="M 1054.03 758.998 C 1057.41 762.435 1058 763.439 1062.26 765.343 C 1062.98 771.333 1063.37 791.486 1062.11 797.212 C 1061.92 802.281 1061.43 805.08 1058.31 809.314 C 1053.4 806.778 1052.07 808.227 1049.03 806.742 C 1055.83 798.861 1054.2 793.606 1053.87 783.007 L 1054.03 758.998 z"/>
<path transform="translate(0,0)" fill="rgb(157,157,158)" d="M 1054.03 758.998 C 1057.41 762.435 1058 763.439 1062.26 765.343 C 1062.98 771.333 1063.37 791.486 1062.11 797.212 C 1061.5 792.088 1062.48 783.495 1061.34 780.952 L 1059.52 780.417 C 1057.93 781.245 1056.93 781.737 1055.26 782.439 L 1053.87 783.007 L 1054.03 758.998 z"/>
<path transform="translate(0,0)" fill="rgb(163,163,164)" d="M 927.553 675.504 C 930.872 675.491 933.16 675.018 935.715 676.956 C 932.667 688.796 932.794 704.316 932.882 716.738 L 927.593 716.265 C 924.731 714.118 925.706 712.286 924.854 707.246 C 924.431 696.854 924.09 685.325 927.553 675.504 z"/>
<path transform="translate(0,0)" fill="rgb(163,163,164)" d="M 980.377 751.025 C 980.006 743.994 978.262 727.659 988.246 726.625 C 996.992 731.598 995.08 742.35 996.137 750.898 C 985.008 746.877 989.996 749.943 980.377 751.025 z"/>
<path transform="translate(0,0)" fill="rgb(157,157,158)" d="M 1088.55 673.543 L 1090.43 679.254 C 1093.99 687.207 1097.91 692.976 1103.31 699.854 C 1102.65 701.811 1101.19 706.719 1100.48 708.241 C 1091.16 699.375 1083.96 688.761 1080.61 676.284 L 1079.35 673.54 L 1088.55 673.543 z"/>
<path transform="translate(0,0)" fill="url(#Gradient9)" d="M 1088.55 673.543 L 1090.43 679.254 L 1085.42 679.796 L 1083.95 678.469 L 1086.43 678.62 C 1083.46 676.823 1083.29 676.003 1080.61 676.284 L 1079.35 673.54 L 1088.55 673.543 z"/>
<path transform="translate(0,0)" fill="rgb(157,157,158)" d="M 927.553 675.504 C 933.16 662.934 941.287 653.617 952.408 645.672 C 954.298 647.348 956.357 649.42 958.476 650.646 C 948.594 658.649 942.054 665.658 935.715 676.956 C 933.16 675.018 930.872 675.491 927.553 675.504 z"/>
<path transform="translate(0,0)" fill="rgb(157,157,158)" d="M 1061.55 649.016 C 1062.05 644.395 1061.21 644.511 1063.77 642.135 C 1071.82 646.096 1074.28 647.934 1080.38 654.984 C 1078.06 656.575 1075.91 658.133 1073.48 659.554 C 1068.84 653.925 1067.36 653.042 1061.55 649.016 z"/>
<path transform="translate(0,0)" fill="rgb(157,158,158)" d="M 1073.48 659.554 C 1075.91 658.133 1078.06 656.575 1080.38 654.984 C 1084.94 661.798 1086.48 665.389 1088.55 673.543 L 1079.35 673.54 C 1078.66 667.711 1076.37 664.521 1073.48 659.554 z"/>
<path transform="translate(0,0)" fill="rgb(58,61,63)" d="M 428.358 770.413 C 426.924 772.748 424.224 777.77 421.84 778.8 C 417.023 780.88 412.078 771.178 411.381 767.655 C 408.356 752.371 405.439 736.338 402.898 721.03 C 396.647 681.925 381.325 646.877 401.975 609.188 C 416.048 580.566 443.148 579.874 471.092 584.541 C 497.032 588.874 523.775 596.034 530.98 625.535 C 533.216 645.314 537.846 666.423 554.707 679.846 C 559.569 683.717 566.273 689.764 560.115 696.867 C 554.77 703.03 545.526 703.828 537.825 702.644 C 532.552 701.538 522.732 694.317 519.123 690.259 L 518.421 689.353 C 512.545 684.517 509.609 676.792 505.621 674.513 L 504.56 675.277 L 504.571 680.383 C 505.184 701.852 506.411 732.762 506.13 753.594 C 506.28 757.724 506.239 775.374 507.012 777.907 C 505.202 791.49 499.78 805.236 483.839 796.026 C 477.38 798.287 478.401 797.345 477.49 804.657 C 475.221 811.832 469.5 824.218 459.712 817.962 C 452.988 813.665 452.381 805.755 451.026 798.514 C 433.021 824.194 430.057 780.747 428.358 770.413 z"/>
<path transform="translate(0,0)" fill="rgb(163,163,164)" d="M 428.358 770.413 C 426.924 772.748 424.224 777.77 421.84 778.8 C 417.023 780.88 412.078 771.178 411.381 767.655 C 408.356 752.371 405.439 736.338 402.898 721.03 C 396.647 681.925 381.325 646.877 401.975 609.188 C 416.048 580.566 443.148 579.874 471.092 584.541 C 497.032 588.874 523.775 596.034 530.98 625.535 C 526.668 626.483 526.136 625.766 524.123 628.411 L 523.856 633.152 C 520.402 620.168 516.453 608.843 503.479 602.14 C 484.942 592.564 450.901 587.43 431.134 592.734 C 409.523 598.532 397.951 629.941 397.47 650.057 C 397.423 661.556 401.203 679.605 403.311 691.386 L 415.442 758.577 C 415.766 762.678 415.502 764.74 417.66 768.046 L 419.789 769.274 C 422.856 767.702 421.495 768.821 423.334 765.09 C 423.178 762.784 423.071 760.474 423.015 758.163 C 426.36 757.148 426.882 753.984 431.82 750.688 C 433.146 761.266 435.008 787.994 439.165 795.249 L 441.186 796.623 C 444.676 795.907 443.107 796.664 445.835 793.87 L 446.948 789.324 C 445.701 785.785 445.566 778.339 445.284 774.227 C 444.014 763.728 436.073 713.815 439.879 708.37 C 441.399 706.195 442.421 706.17 444.814 705.886 C 454.549 712.084 454.758 794.79 460.274 808.724 C 460.7 809.801 462.505 809.937 463.412 810.186 C 465.641 809.689 466.775 809.495 468.615 808.015 C 474.785 803.051 464.292 727.792 465.756 713.677 C 466.151 709.87 466.929 706.508 470.055 704.071 C 473.713 703.759 471.912 703.556 475.584 705.168 C 478.347 708.224 478.755 711.998 479.786 716.138 L 476.463 719.239 C 474.337 719.072 474.491 719.102 472.329 718.606 C 472.567 726.049 472.591 733.375 473.907 740.709 C 474.576 741.557 476.418 743.862 476.418 744.955 C 476.416 754.96 480.99 776.007 479.657 784.962 C 480.698 788.446 481.764 793.215 483.839 796.026 C 477.38 798.287 478.401 797.345 477.49 804.657 C 475.221 811.832 469.5 824.218 459.712 817.962 C 452.988 813.665 452.381 805.755 451.026 798.514 C 433.021 824.194 430.057 780.747 428.358 770.413 z"/>
<path transform="translate(0,0)" fill="rgb(87,89,88)" d="M 473.907 740.709 C 474.576 741.557 476.418 743.862 476.418 744.955 C 476.416 754.96 480.99 776.007 479.657 784.962 L 477.019 785.86 C 476.352 782.952 476.326 771.48 476.145 767.411 C 475.731 758.057 474.958 750.006 473.907 740.709 z"/>
<path transform="translate(0,0)" fill="rgb(143,143,144)" d="M 445.284 774.227 C 449.697 776.256 450.403 776.275 453.074 780.074 C 453.294 783.514 453.026 782.76 451.339 786.326 C 449.277 787.257 448.585 787.761 446.948 789.324 C 445.701 785.785 445.566 778.339 445.284 774.227 z"/>
<path transform="translate(0,0)" fill="rgb(87,89,88)" d="M 477.019 785.86 L 479.657 784.962 C 480.698 788.446 481.764 793.215 483.839 796.026 C 477.38 798.287 478.401 797.345 477.49 804.657 C 476.714 799.346 476.965 791.351 477.019 785.86 z"/>
<path transform="translate(0,0)" fill="rgb(157,157,158)" d="M 479.786 716.138 C 481.759 737.515 484.121 759.931 487.026 781.225 C 487.586 785.329 489.796 790.314 494.644 789.635 C 500.577 784.68 498.831 780.755 499.189 773.343 C 498.65 766.388 498.679 760.844 498.743 753.856 C 501.452 752.839 503.023 753.373 506.13 753.594 C 506.28 757.724 506.239 775.374 507.012 777.907 C 505.202 791.49 499.78 805.236 483.839 796.026 C 481.764 793.215 480.698 788.446 479.657 784.962 C 480.99 776.007 476.416 754.96 476.418 744.955 C 476.418 743.862 474.576 741.557 473.907 740.709 C 472.591 733.375 472.567 726.049 472.329 718.606 C 474.491 719.102 474.337 719.072 476.463 719.239 L 479.786 716.138 z"/>
<path transform="translate(0,0)" fill="rgb(157,158,158)" d="M 498.743 753.856 C 501.452 752.839 503.023 753.373 506.13 753.594 C 506.28 757.724 506.239 775.374 507.012 777.907 C 503.589 778.595 505.074 778.916 502.339 777.334 L 502.206 778.762 L 504.634 778.681 L 500.397 780.211 C 501.373 776.835 501.059 776.255 499.189 773.343 C 498.65 766.388 498.679 760.844 498.743 753.856 z"/>
<path transform="translate(0,0)" fill="rgb(157,158,158)" d="M 523.856 633.152 L 524.123 628.411 C 526.136 625.766 526.668 626.483 530.98 625.535 C 533.216 645.314 537.846 666.423 554.707 679.846 C 559.569 683.717 566.273 689.764 560.115 696.867 C 554.77 703.03 545.526 703.828 537.825 702.644 C 538.094 699.957 538.168 696.565 538.299 693.808 C 542.691 695.059 547.868 696.038 551.796 693.109 C 552.054 691.642 552.448 690.369 551.217 689.069 C 533.924 670.8 525.64 659.307 523.856 633.152 z"/>
<path transform="translate(0,0)" fill="rgb(157,158,158)" d="M 496.904 696.299 C 496.838 682.474 495.701 668.667 495.71 655.356 C 497.845 652.397 496.504 653.552 500.079 652.019 C 501.479 652.217 502.972 652.027 503.753 653.17 C 512.867 666.495 516.861 676.743 529.226 687.705 L 538.299 693.808 C 538.168 696.565 538.094 699.957 537.825 702.644 C 532.552 701.538 522.732 694.317 519.123 690.259 L 518.421 689.353 C 512.545 684.517 509.609 676.792 505.621 674.513 L 504.56 675.277 L 504.571 680.383 C 502.266 689.725 507.027 693.228 496.904 696.299 z"/>
<path transform="translate(0,0)" fill="rgb(157,157,158)" d="M 529.226 687.705 L 538.299 693.808 C 538.168 696.565 538.094 699.957 537.825 702.644 C 532.552 701.538 522.732 694.317 519.123 690.259 C 521.411 690.839 520.601 690.776 523.078 690.409 L 523.837 688.008 C 524.373 690.103 523.869 689.093 525.561 690.922 C 528.416 689.84 527.076 690.559 529.226 687.705 z"/>
<path transform="translate(0,0)" fill="url(#Gradient8)" d="M 518.421 689.353 L 516.873 685.396 L 517.383 684.397 L 517.582 686.63 L 520.831 685.072 C 520.978 685.117 521.126 685.163 521.273 685.208 L 522.844 685.667 L 523.837 688.008 L 523.078 690.409 C 520.601 690.776 521.411 690.839 519.123 690.259 L 518.421 689.353 z"/>
<path transform="translate(0,0)" fill="rgb(157,158,158)" d="M 422.401 757.451 C 420.525 743.901 414.406 713.033 418.821 701.192 L 420.178 700.784 C 427.558 708.15 430.22 739.166 431.82 750.688 C 426.882 753.984 426.36 757.148 423.015 758.163 L 422.401 757.451 z"/>
<path transform="translate(0,0)" fill="rgb(157,157,158)" d="M 496.904 696.299 C 507.027 693.228 502.266 689.725 504.571 680.383 C 505.184 701.852 506.411 732.762 506.13 753.594 C 503.023 753.373 501.452 752.839 498.743 753.856 C 496.566 739.567 496.991 711.721 496.904 696.299 z"/>
<path transform="translate(0,0)" fill="rgb(58,61,63)" d="M 450.954 1254.82 C 452.744 1248.29 453.129 1238.41 460.276 1235.78 C 480.336 1228.42 477.051 1256.99 476.398 1266.08 C 476.197 1269.13 476.031 1272.19 475.9 1275.25 L 477.814 1276.16 C 478.226 1266.33 480.789 1252.23 494.078 1253.99 C 501.831 1255.01 505.383 1263.83 505.694 1270.78 C 506.396 1286.47 505.491 1302.32 505.064 1318.04 C 504.533 1338.41 504.571 1358.78 505.179 1379.14 C 510.695 1370.56 517.221 1360.51 526.477 1355.38 C 537.535 1346.79 564.286 1341.2 560.786 1362.22 C 559.487 1370.02 540.615 1388.34 537.749 1398.14 C 531.376 1419.95 532.943 1440.94 509.842 1453.36 C 488.571 1465.29 432.905 1476.83 413.211 1458.17 C 412.958 1458 412.695 1457.85 412.453 1457.66 C 400.805 1448.9 394.456 1430.62 391.887 1416.89 C 391.019 1412.26 390.269 1407.28 390.533 1402.56 C 391.436 1386.45 407.332 1288.35 415.087 1279.25 C 416.719 1277.34 418.121 1277.19 420.518 1276.96 C 424.226 1278.33 424.972 1279.86 427.45 1282.94 C 429.924 1274.19 432.17 1229.99 450.954 1254.82 z"/>
<path transform="translate(0,0)" fill="rgb(157,157,158)" d="M 477.814 1276.16 C 478.226 1266.33 480.789 1252.23 494.078 1253.99 C 501.831 1255.01 505.383 1263.83 505.694 1270.78 C 506.396 1286.47 505.491 1302.32 505.064 1318.04 C 504.533 1338.41 504.571 1358.78 505.179 1379.14 C 510.695 1370.56 517.221 1360.51 526.477 1355.38 C 525.812 1359.84 524.888 1363.2 525.962 1367.52 L 523.221 1369.73 L 516.888 1377.49 C 514.215 1381.78 505.556 1398.54 502.659 1399.77 C 499.212 1399.29 499.314 1399.52 496.709 1397.3 C 495.139 1393.03 497.79 1390.32 497.641 1386.41 C 496.189 1348.32 496.866 1310.12 497.966 1272.03 C 498.033 1269.71 497.203 1266.07 495.385 1264.41 C 492.937 1262.5 492.806 1262.57 490.052 1262.64 C 477.866 1271.01 485.446 1341.86 472.08 1349.23 C 461.798 1347.31 464.779 1333.82 465.268 1325.7 C 466.071 1312.36 466.818 1298.3 468.489 1285.05 L 467.502 1280.04 C 468.68 1276.33 468.819 1271.32 469.13 1267.34 C 472.235 1267.15 473.451 1266.8 476.398 1266.08 C 476.197 1269.13 476.031 1272.19 475.9 1275.25 L 477.814 1276.16 z"/>
<path transform="translate(0,0)" fill="rgb(132,133,134)" d="M 469.13 1267.34 C 472.235 1267.15 473.451 1266.8 476.398 1266.08 C 476.197 1269.13 476.031 1272.19 475.9 1275.25 L 477.814 1276.16 C 477.152 1284.53 476.473 1308.52 473.627 1313.82 L 472.412 1314.18 C 471.968 1307.56 473.783 1295.02 474.143 1287.21 C 471.534 1286.79 470.901 1286.21 468.489 1285.05 L 467.502 1280.04 C 468.68 1276.33 468.819 1271.32 469.13 1267.34 z"/>
<path transform="translate(0,0)" fill="rgb(163,163,164)" d="M 467.502 1280.04 C 471.877 1279.54 471.067 1278.96 474.328 1280.65 C 475.222 1283.76 474.867 1284.09 474.143 1287.21 C 471.534 1286.79 470.901 1286.21 468.489 1285.05 L 467.502 1280.04 z"/>
<path transform="translate(0,0)" fill="rgb(143,143,144)" d="M 516.888 1377.49 C 516.996 1372.96 516.565 1367.43 519.467 1364.15 C 522.486 1365.77 521.59 1365.55 523.221 1369.73 L 516.888 1377.49 z"/>
<path transform="translate(0,0)" fill="rgb(143,143,144)" d="M 526.477 1355.38 C 537.535 1346.79 564.286 1341.2 560.786 1362.22 C 559.487 1370.02 540.615 1388.34 537.749 1398.14 C 531.376 1419.95 532.943 1440.94 509.842 1453.36 C 488.571 1465.29 432.905 1476.83 413.211 1458.17 C 419.968 1459.88 428.041 1466.74 434.506 1463.59 C 431.113 1457.12 428.385 1459.9 421.465 1455.62 L 420.765 1453.83 C 428.414 1456.53 435.435 1460.38 443.925 1460.18 C 466.676 1459.64 494.783 1456.96 512.345 1440.98 C 525.919 1428.63 523.99 1413.56 528.824 1397.55 C 530.958 1390.47 534.212 1384.7 537.996 1378.45 C 540.844 1372.18 552.431 1363.89 552.589 1359.39 C 546.371 1350.93 532.441 1361.65 526.862 1366.69 L 525.962 1367.52 C 524.888 1363.2 525.812 1359.84 526.477 1355.38 z"/>
<path transform="translate(0,0)" fill="rgb(157,158,158)" d="M 413.211 1458.17 C 412.958 1458 412.695 1457.85 412.453 1457.66 C 400.805 1448.9 394.456 1430.62 391.887 1416.89 C 391.019 1412.26 390.269 1407.28 390.533 1402.56 C 391.436 1386.45 407.332 1288.35 415.087 1279.25 C 416.719 1277.34 418.121 1277.19 420.518 1276.96 C 424.226 1278.33 424.972 1279.86 427.45 1282.94 C 426.654 1288.47 427.263 1288.99 428.702 1294.64 L 430.987 1296.57 C 430.657 1301.32 430.16 1303.39 429.103 1308.09 C 423.643 1299.54 422.691 1300.87 422.886 1290.9 L 422.927 1289.37 L 422.331 1289.84 L 419.812 1287.01 L 417.735 1287.02 C 413.991 1291.09 409.557 1320.81 408.444 1329.01 C 402.634 1371.81 381.64 1420.89 420.765 1453.83 L 421.465 1455.62 C 428.385 1459.9 431.113 1457.12 434.506 1463.59 C 428.041 1466.74 419.968 1459.88 413.211 1458.17 z"/>
<path transform="translate(0,0)" fill="rgb(157,157,158)" d="M 450.954 1254.82 C 452.744 1248.29 453.129 1238.41 460.276 1235.78 C 480.336 1228.42 477.051 1256.99 476.398 1266.08 C 473.451 1266.8 472.235 1267.15 469.13 1267.34 C 469.973 1259.84 472.83 1247.24 464.267 1243.54 C 454.804 1247.08 457.592 1264.23 455.913 1272.5 C 452.787 1287.92 452.285 1338.41 443.75 1348.43 L 441.933 1348.45 C 434.898 1340.66 440.487 1312.09 441.302 1301.31 C 441.653 1296.67 444.258 1271.7 445.552 1269.17 L 448.586 1270.09 C 450.229 1269.2 451.172 1268.68 452.724 1267.59 L 455.732 1265.46 L 455.66 1264.07 C 452.806 1263.65 451.891 1264 449.901 1262.49 C 450.903 1259.07 453.338 1257.76 456.179 1255.56 C 453.734 1253.9 454.938 1254.61 450.954 1254.82 z"/>
<path transform="translate(0,0)" fill="url(#Gradient7)" d="M 440.877 1323.56 C 444.792 1328.45 444.75 1328.94 444.085 1335.15 C 441.528 1335.04 442.382 1335.32 440.216 1333.86 C 438.964 1330.65 440.167 1327.08 440.877 1323.56 z"/>
<path transform="translate(0,0)" fill="url(#Gradient6)" d="M 427.45 1282.94 C 429.924 1274.19 432.17 1229.99 450.954 1254.82 C 454.938 1254.61 453.734 1253.9 456.179 1255.56 C 453.338 1257.76 450.903 1259.07 449.901 1262.49 C 451.891 1264 452.806 1263.65 455.66 1264.07 L 455.732 1265.46 L 452.724 1267.59 C 451.172 1268.68 450.229 1269.2 448.586 1270.09 L 445.552 1269.17 C 445.384 1265.23 445.729 1261.32 443.526 1258.2 L 441.238 1256.97 C 433.457 1261.1 433.674 1287.42 430.987 1296.57 L 428.702 1294.64 C 427.263 1288.99 426.654 1288.47 427.45 1282.94 z"/>
<path transform="translate(0,0)" fill="rgb(157,158,158)" d="M 418.752 1315.67 C 422.629 1319.94 421.787 1319.92 427.803 1318.79 C 426.929 1325.83 425.567 1350.01 418.968 1351.94 C 411.702 1346.79 417.65 1324.08 418.752 1315.67 z"/>
<path transform="translate(0,0)" fill="rgb(163,163,164)" d="M 422.331 1289.84 L 422.927 1289.37 L 422.886 1290.9 C 422.691 1300.87 423.643 1299.54 429.103 1308.09 C 428.757 1312 428.485 1314.94 427.803 1318.79 C 421.787 1319.92 422.629 1319.94 418.752 1315.67 C 420.202 1307.2 420.852 1298.53 422.331 1289.84 z"/>
<path transform="translate(0,0)" fill="rgb(157,158,158)" d="M 707.116 1308.72 C 737.981 1303.66 781.486 1320.19 806.724 1338.34 C 810.378 1340.98 814.009 1343.65 817.616 1346.35 C 813.079 1352.41 810.455 1355.26 805.143 1360.71 C 794.351 1370.49 786.895 1376.41 773.895 1383.18 C 760.456 1388.98 751.588 1391.95 737.401 1395.56 C 726.113 1397.55 711.674 1399.93 700.267 1400.46 C 697.324 1401.18 686.157 1400.77 682.74 1400.61 C 680.04 1401.15 670.514 1399.88 667.146 1399.61 C 667.34 1399.67 654.096 1397.14 652.209 1396.67 C 632.879 1392.19 612.365 1383.7 598.268 1369.3 L 591.732 1362.34 C 596.535 1357.28 600.73 1353.03 605.825 1348.27 C 624.186 1327.7 654.542 1315.73 681.184 1311.01 C 684.357 1310.31 687.144 1310.11 690.368 1309.76 C 692.654 1308.61 704.012 1308.76 707.116 1308.72 z"/>
<path transform="translate(0,0)" fill="rgb(58,61,63)" d="M 681.184 1311.01 C 684.357 1310.31 687.144 1310.11 690.368 1309.76 C 688.334 1313.31 685.773 1317.5 683.299 1320.72 L 683.163 1321.64 L 684.7 1323.56 C 682.612 1325.73 682.212 1325.74 680.935 1328.42 C 683.408 1329.68 683.209 1329.69 685.972 1329.57 C 677.939 1333.57 675.552 1334.81 669.592 1341.99 C 664.054 1350.96 661.771 1359.29 666.727 1369.21 L 669.689 1373.67 C 674.683 1378.51 676.409 1379.42 682.314 1382.96 C 677.278 1390.43 676.809 1394.23 682.74 1400.61 C 680.04 1401.15 670.514 1399.88 667.146 1399.61 C 667.34 1399.67 654.096 1397.14 652.209 1396.67 C 632.879 1392.19 612.365 1383.7 598.268 1369.3 L 591.732 1362.34 C 596.535 1357.28 600.73 1353.03 605.825 1348.27 C 624.186 1327.7 654.542 1315.73 681.184 1311.01 z"/>
<path transform="translate(0,0)" fill="rgb(143,143,144)" d="M 681.184 1311.01 C 684.357 1310.31 687.144 1310.11 690.368 1309.76 C 688.334 1313.31 685.773 1317.5 683.299 1320.72 L 683.163 1321.64 L 684.7 1323.56 C 682.612 1325.73 682.212 1325.74 680.935 1328.42 C 683.408 1329.68 683.209 1329.69 685.972 1329.57 C 677.939 1333.57 675.552 1334.81 669.592 1341.99 L 667.105 1339.86 C 666.219 1333.74 666.357 1334.75 661.064 1333.12 C 664.462 1329.92 667.795 1326.65 671.061 1323.31 C 642.626 1329.78 624.63 1341.71 605.034 1362.84 C 621.03 1376.78 635.055 1383.48 655.714 1388.87 C 654.959 1391.43 654.233 1395.26 652.209 1396.67 C 632.879 1392.19 612.365 1383.7 598.268 1369.3 L 591.732 1362.34 C 596.535 1357.28 600.73 1353.03 605.825 1348.27 C 624.186 1327.7 654.542 1315.73 681.184 1311.01 z"/>
<path transform="translate(0,0)" fill="rgb(157,158,158)" d="M 681.184 1311.01 C 684.357 1310.31 687.144 1310.11 690.368 1309.76 C 688.334 1313.31 685.773 1317.5 683.299 1320.72 L 683.163 1321.64 C 674.937 1324.27 680.036 1326.89 675.223 1329.25 C 673.277 1321.31 678.142 1319.67 681.184 1311.01 z"/>
<path transform="translate(0,0)" fill="rgb(157,157,158)" d="M 605.825 1348.27 C 606.752 1351.72 607.465 1351.7 604.509 1354.24 C 600.993 1357.26 598.96 1364.75 598.268 1369.3 L 591.732 1362.34 C 596.535 1357.28 600.73 1353.03 605.825 1348.27 z"/>
<path transform="translate(0,0)" fill="rgb(157,158,158)" d="M 661.064 1333.12 C 666.357 1334.75 666.219 1333.74 667.105 1339.86 L 669.592 1341.99 C 664.054 1350.96 661.771 1359.29 666.727 1369.21 C 664.276 1371.46 660.413 1373.68 657.453 1376.19 C 655.073 1372.21 653.482 1367.81 652.766 1363.23 C 650.807 1350.79 654.108 1342.75 661.064 1333.12 z"/>
<path transform="translate(0,0)" fill="rgb(143,143,144)" d="M 666.727 1369.21 L 669.689 1373.67 C 674.683 1378.51 676.409 1379.42 682.314 1382.96 C 677.278 1390.43 676.809 1394.23 682.74 1400.61 C 680.04 1401.15 670.514 1399.88 667.146 1399.61 C 665.908 1396.83 665.581 1396.86 666.098 1393.96 C 669.171 1391.39 670.132 1392.41 673.685 1391.25 L 672.409 1390.5 C 669.173 1387.74 665.098 1384.75 661.687 1382.1 L 657.453 1376.19 C 660.413 1373.68 664.276 1371.46 666.727 1369.21 z"/>
<path transform="translate(0,0)" fill="rgb(132,133,134)" d="M 666.727 1369.21 L 669.689 1373.67 C 663.558 1375.95 663.465 1375.85 661.687 1382.1 L 657.453 1376.19 C 660.413 1373.68 664.276 1371.46 666.727 1369.21 z"/>
<path transform="translate(0,0)" fill="rgb(132,133,134)" d="M 655.714 1388.87 C 660.762 1389.7 667.637 1391.28 672.409 1390.5 L 673.685 1391.25 C 670.132 1392.41 669.171 1391.39 666.098 1393.96 C 665.581 1396.86 665.908 1396.83 667.146 1399.61 C 667.34 1399.67 654.096 1397.14 652.209 1396.67 C 654.233 1395.26 654.959 1391.43 655.714 1388.87 z"/>
<path transform="translate(0,0)" fill="rgb(58,61,63)" d="M 685.972 1329.57 C 694.3 1326.57 703.025 1326.57 711.677 1327.66 C 715.951 1329.02 720.736 1330.31 724.666 1332.63 C 744.424 1344.29 744.63 1371.6 722.608 1380.78 C 718.654 1382.42 714.825 1384.27 710.353 1384.37 C 710.794 1388.36 711.873 1392.55 709.969 1395.86 C 706.674 1397.59 706.588 1398.34 703.422 1398.15 L 701.855 1397.1 L 700.267 1400.46 C 697.324 1401.18 686.157 1400.77 682.74 1400.61 C 676.809 1394.23 677.278 1390.43 682.314 1382.96 C 676.409 1379.42 674.683 1378.51 669.689 1373.67 L 666.727 1369.21 C 661.771 1359.29 664.054 1350.96 669.592 1341.99 C 675.552 1334.81 677.939 1333.57 685.972 1329.57 z"/>
<path transform="translate(0,0)" fill="rgb(157,158,158)" d="M 682.314 1382.96 C 692.724 1385.97 695.739 1386.35 706.803 1385.63 L 710.353 1384.37 C 710.794 1388.36 711.873 1392.55 709.969 1395.86 C 706.674 1397.59 706.588 1398.34 703.422 1398.15 L 701.855 1397.1 L 700.267 1400.46 C 697.324 1401.18 686.157 1400.77 682.74 1400.61 C 676.809 1394.23 677.278 1390.43 682.314 1382.96 z"/>
<path transform="translate(0,0)" fill="rgb(157,157,158)" d="M 706.803 1385.63 L 710.353 1384.37 C 710.794 1388.36 711.873 1392.55 709.969 1395.86 C 706.674 1397.59 706.588 1398.34 703.422 1398.15 L 701.855 1397.1 L 702.344 1395.57 C 706.966 1391.93 706.393 1390.99 706.803 1385.63 z"/>
<path transform="translate(0,0)" fill="rgb(58,61,63)" d="M 721.148 1317.84 C 746.723 1319.05 772.079 1326.9 794.017 1340.48 C 797.36 1342.55 801.632 1345.63 802.441 1349.64 L 800.196 1352.63 C 805.483 1357.32 801.613 1356.61 805.143 1360.71 C 794.351 1370.49 786.895 1376.41 773.895 1383.18 C 774.205 1378.31 774.099 1378.03 772.844 1373.24 C 762.595 1378.13 746.251 1385.99 734.837 1387.3 L 733.15 1386.67 C 744.213 1379.68 749.745 1373.85 751.405 1360.38 C 750.478 1355.5 751.368 1352.57 749.306 1346.1 C 744.038 1329.58 735.081 1325.34 721.148 1317.84 z"/>
<path transform="translate(0,0)" fill="rgb(143,143,144)" d="M 800.196 1352.63 C 805.483 1357.32 801.613 1356.61 805.143 1360.71 C 794.351 1370.49 786.895 1376.41 773.895 1383.18 C 774.205 1378.31 774.099 1378.03 772.844 1373.24 C 783.686 1366.69 790.909 1361.11 800.196 1352.63 z"/>
<path transform="translate(0,0)" fill="rgb(163,163,164)" d="M 690.368 1309.76 C 692.654 1308.61 704.012 1308.76 707.116 1308.72 L 706.418 1312.87 L 707.371 1314.13 L 708.682 1313.46 C 710.307 1312.65 711.625 1312.06 713.284 1311.35 C 715.912 1312.65 716.845 1313.57 718.957 1315.6 L 717.28 1316.91 C 713.506 1316.43 712.548 1315.56 710.09 1317.13 L 709.775 1320.04 L 711.246 1321.68 C 714.508 1321.63 717.014 1320.87 718.771 1322.49 C 711.618 1328.65 715.278 1320.79 711.677 1327.66 C 703.025 1326.57 694.3 1326.57 685.972 1329.57 C 683.209 1329.69 683.408 1329.68 680.935 1328.42 C 682.212 1325.74 682.612 1325.73 684.7 1323.56 L 683.163 1321.64 L 683.299 1320.72 C 685.773 1317.5 688.334 1313.31 690.368 1309.76 z"/>
<path transform="translate(0,0)" fill="rgb(143,143,144)" d="M 709.969 1395.86 C 714.548 1395.31 714.888 1396.09 717.506 1393.59 C 718.044 1388.77 717.186 1390.08 720.063 1387.18 L 721.422 1386.96 L 723.985 1389.48 C 729.519 1388.08 724.038 1386.74 729.481 1386.72 C 730.808 1390.11 730.612 1392.73 732.494 1394.53 C 734.175 1393.13 735.311 1392.05 736.876 1390.51 C 738.271 1392.96 737.658 1391.91 737.401 1395.56 C 726.113 1397.55 711.674 1399.93 700.267 1400.46 L 701.855 1397.1 L 703.422 1398.15 C 706.588 1398.34 706.674 1397.59 709.969 1395.86 z"/>
<path transform="translate(0,0)" fill="rgb(132,133,134)" d="M 733.15 1386.67 C 733.396 1383.67 734.496 1382.1 734.946 1379.19 L 735.181 1377.58 C 737.191 1374.75 738.201 1374.76 741.334 1373.81 C 742.284 1370.08 741.432 1369.68 739.635 1365.45 L 739.624 1366.57 L 739.363 1365.7 C 743.713 1364.28 747.3 1362.38 751.405 1360.38 C 749.745 1373.85 744.213 1379.68 733.15 1386.67 z"/>
<path transform="translate(0,0)" fill="rgb(58,61,63)" d="M 1285.35 1310.39 C 1302.47 1305.46 1323.96 1304.98 1341.54 1307.55 C 1347.1 1308.2 1352.48 1308.81 1358.02 1309.7 L 1359.89 1310.26 C 1382.69 1317.03 1400.4 1320.66 1420.8 1336.2 C 1430.91 1343.83 1440.47 1352.17 1449.4 1361.16 C 1423 1386.18 1399.45 1395.51 1362.66 1397.9 C 1317.68 1400.81 1256.88 1389.15 1226.72 1351.84 C 1224.57 1349.32 1224.47 1349.27 1223 1346.33 C 1225.3 1339.79 1250.71 1323.94 1258.01 1320.27 C 1267.99 1315.63 1274.66 1312.82 1285.35 1310.39 z"/>
<path transform="translate(0,0)" fill="rgb(58,61,63)" d="M 1285.35 1310.39 C 1302.47 1305.46 1323.96 1304.98 1341.54 1307.55 C 1347.1 1308.2 1352.48 1308.81 1358.02 1309.7 C 1355.43 1312.18 1355.22 1312.23 1353.28 1315.43 L 1350.42 1315.37 L 1350.22 1316.92 L 1353.94 1320.83 L 1353.51 1322.48 C 1348.85 1324.34 1347.98 1322.22 1343.98 1324.86 C 1338.84 1323.73 1334.22 1324.16 1328.99 1324.34 C 1325.47 1325.32 1320.16 1326.59 1317.06 1328.18 C 1315.75 1324.19 1316.63 1324.92 1313.83 1322.67 C 1309.87 1323.56 1308.95 1325.64 1306.65 1329.21 C 1303.65 1330.6 1297.08 1334.2 1294.2 1334.38 L 1293.35 1333.07 C 1290.68 1336.75 1286.68 1348.45 1287.62 1352.81 C 1291.39 1352.32 1292.66 1353.35 1296.1 1354.99 L 1297.41 1354.19 L 1298.52 1354.93 C 1299.36 1358.42 1300.07 1362.34 1301.48 1365.56 C 1305.19 1370.56 1305.51 1371.1 1310.24 1374.81 L 1311.44 1375.76 C 1311.68 1375.95 1311.92 1376.13 1312.16 1376.32 C 1309.7 1378.54 1309.92 1378.62 1306.73 1379.29 C 1305.73 1380.57 1304.7 1381.82 1303.65 1383.07 L 1303.8 1385.3 C 1283.85 1380.84 1246.88 1365.06 1235.62 1347.35 C 1233.23 1349.55 1232.59 1349.28 1229.35 1349.72 L 1226.72 1351.84 C 1224.57 1349.32 1224.47 1349.27 1223 1346.33 C 1225.3 1339.79 1250.71 1323.94 1258.01 1320.27 C 1267.99 1315.63 1274.66 1312.82 1285.35 1310.39 z"/>
<path transform="translate(0,0)" fill="rgb(157,158,158)" d="M 1285.35 1310.39 C 1302.47 1305.46 1323.96 1304.98 1341.54 1307.55 C 1347.1 1308.2 1352.48 1308.81 1358.02 1309.7 C 1355.43 1312.18 1355.22 1312.23 1353.28 1315.43 L 1350.42 1315.37 L 1350.22 1316.92 L 1353.94 1320.83 L 1353.51 1322.48 C 1348.85 1324.34 1347.98 1322.22 1343.98 1324.86 C 1338.84 1323.73 1334.22 1324.16 1328.99 1324.34 C 1325.47 1325.32 1320.16 1326.59 1317.06 1328.18 C 1315.75 1324.19 1316.63 1324.92 1313.83 1322.67 C 1309.87 1323.56 1308.95 1325.64 1306.65 1329.21 C 1303.65 1330.6 1297.08 1334.2 1294.2 1334.38 L 1293.35 1333.07 C 1298.45 1324.76 1304.98 1321.2 1312.98 1315.65 C 1308.57 1315.91 1304.12 1316.47 1299.72 1316.95 L 1296.3 1313.62 C 1297.81 1312.21 1297.33 1313.04 1297.83 1311.17 C 1291.4 1307.57 1291.02 1313.02 1285.35 1310.39 z"/>
<path transform="translate(0,0)" fill="rgb(157,157,158)" d="M 1341.54 1307.55 C 1347.1 1308.2 1352.48 1308.81 1358.02 1309.7 C 1355.43 1312.18 1355.22 1312.23 1353.28 1315.43 L 1350.42 1315.37 L 1350.22 1316.92 L 1353.94 1320.83 L 1353.51 1322.48 C 1348.85 1324.34 1347.98 1322.22 1343.98 1324.86 C 1338.84 1323.73 1334.22 1324.16 1328.99 1324.34 C 1327.84 1321.56 1327.41 1321.45 1328.04 1318.63 C 1329.84 1318.8 1331.64 1318.95 1333.45 1319.08 L 1334.53 1317.9 L 1333.25 1314.44 C 1336.14 1312.71 1335.53 1313.3 1339.57 1313.5 C 1341.97 1311.37 1341.19 1311.91 1341.54 1307.55 z"/>
<path transform="translate(0,0)" fill="rgb(143,143,144)" d="M 1285.35 1310.39 C 1291.02 1313.02 1291.4 1307.57 1297.83 1311.17 C 1297.33 1313.04 1297.81 1312.21 1296.3 1313.62 L 1299.72 1316.95 C 1274.84 1321.16 1256.61 1330.01 1237.19 1345.92 L 1235.62 1347.35 C 1233.23 1349.55 1232.59 1349.28 1229.35 1349.72 L 1226.72 1351.84 C 1224.57 1349.32 1224.47 1349.27 1223 1346.33 C 1225.3 1339.79 1250.71 1323.94 1258.01 1320.27 C 1267.99 1315.63 1274.66 1312.82 1285.35 1310.39 z"/>
<path transform="translate(0,0)" fill="rgb(157,157,158)" d="M 1258.01 1320.27 L 1258.98 1324.08 C 1255.91 1327.78 1243.96 1332.07 1241.99 1334.8 L 1241.89 1337.54 C 1239.68 1337.79 1237.6 1338.25 1235.45 1338.85 C 1234.64 1342.24 1234.49 1342.96 1237.19 1345.92 L 1235.62 1347.35 C 1233.23 1349.55 1232.59 1349.28 1229.35 1349.72 L 1226.72 1351.84 C 1224.57 1349.32 1224.47 1349.27 1223 1346.33 C 1225.3 1339.79 1250.71 1323.94 1258.01 1320.27 z"/>
<path transform="translate(0,0)" fill="rgb(157,158,158)" d="M 1291.15 1369.17 C 1295.78 1366.93 1296.52 1366.37 1301.48 1365.56 C 1305.19 1370.56 1305.51 1371.1 1310.24 1374.81 L 1311.44 1375.76 C 1311.68 1375.95 1311.92 1376.13 1312.16 1376.32 C 1309.7 1378.54 1309.92 1378.62 1306.73 1379.29 C 1305.73 1380.57 1304.7 1381.82 1303.65 1383.07 C 1298.26 1378.32 1294.5 1375.54 1291.15 1369.17 z"/>
<path transform="translate(0,0)" fill="url(#Gradient5)" d="M 1287.62 1352.81 C 1291.39 1352.32 1292.66 1353.35 1296.1 1354.99 L 1297.41 1354.19 L 1298.52 1354.93 C 1299.36 1358.42 1300.07 1362.34 1301.48 1365.56 C 1296.52 1366.37 1295.78 1366.93 1291.15 1369.17 C 1287.95 1364.5 1288.09 1358.51 1287.62 1352.81 z"/>
<path transform="translate(0,0)" fill="rgb(58,61,63)" d="M 1293.35 1333.07 L 1294.2 1334.38 C 1297.08 1334.2 1303.65 1330.6 1306.65 1329.21 C 1308.95 1325.64 1309.87 1323.56 1313.83 1322.67 C 1316.63 1324.92 1315.75 1324.19 1317.06 1328.18 C 1320.16 1326.59 1325.47 1325.32 1328.99 1324.34 C 1334.22 1324.16 1338.84 1323.73 1343.98 1324.86 C 1364.99 1331.89 1377.2 1340.48 1373.59 1365.15 L 1370.06 1371.05 C 1354.66 1385.99 1332.73 1386.54 1314.34 1376.99 L 1312.16 1376.32 C 1311.92 1376.13 1311.68 1375.95 1311.44 1375.76 L 1310.24 1374.81 C 1305.51 1371.1 1305.19 1370.56 1301.48 1365.56 C 1300.07 1362.34 1299.36 1358.42 1298.52 1354.93 L 1297.41 1354.19 L 1296.1 1354.99 C 1292.66 1353.35 1291.39 1352.32 1287.62 1352.81 C 1286.68 1348.45 1290.68 1336.75 1293.35 1333.07 z"/>
<path transform="translate(0,0)" fill="rgb(143,143,144)" d="M 1293.35 1333.07 L 1294.2 1334.38 C 1297.08 1334.2 1303.65 1330.6 1306.65 1329.21 C 1308.95 1325.64 1309.87 1323.56 1313.83 1322.67 C 1316.63 1324.92 1315.75 1324.19 1317.06 1328.18 C 1303.76 1336.19 1300.76 1339.64 1298.52 1354.93 L 1297.41 1354.19 L 1296.1 1354.99 C 1292.66 1353.35 1291.39 1352.32 1287.62 1352.81 C 1286.68 1348.45 1290.68 1336.75 1293.35 1333.07 z"/>
<path transform="translate(0,0)" fill="rgb(143,143,144)" d="M 1420.8 1336.2 C 1430.91 1343.83 1440.47 1352.17 1449.4 1361.16 C 1423 1386.18 1399.45 1395.51 1362.66 1397.9 C 1317.68 1400.81 1256.88 1389.15 1226.72 1351.84 L 1229.35 1349.72 C 1232.59 1349.28 1233.23 1349.55 1235.62 1347.35 C 1246.88 1365.06 1283.85 1380.84 1303.8 1385.3 L 1303.65 1383.07 C 1304.7 1381.82 1305.73 1380.57 1306.73 1379.29 C 1309.92 1378.62 1309.7 1378.54 1312.16 1376.32 L 1314.34 1376.99 C 1332.73 1386.54 1354.66 1385.99 1370.06 1371.05 L 1373.59 1365.15 L 1376.7 1366.01 C 1378.95 1366.39 1379.34 1366.39 1381.63 1366.35 C 1382.02 1363.85 1381.55 1364.55 1382.87 1362.71 L 1385.92 1362.84 C 1383.72 1376.95 1375.92 1382.47 1364.88 1389.7 C 1395 1385.36 1411.37 1380.3 1435.43 1360.97 C 1428.28 1354.2 1423.29 1349.64 1415.51 1343.54 C 1416.57 1339.92 1418.13 1338.87 1420.8 1336.2 z"/>
<path transform="translate(0,0)" fill="rgb(132,133,134)" d="M 1312.16 1376.32 L 1314.34 1376.99 C 1308.48 1382.79 1311.61 1379.88 1312.37 1386.66 C 1309.94 1387.94 1306.31 1386.47 1303.8 1385.3 L 1303.65 1383.07 C 1304.7 1381.82 1305.73 1380.57 1306.73 1379.29 C 1309.92 1378.62 1309.7 1378.54 1312.16 1376.32 z"/>
<path transform="translate(0,0)" fill="rgb(143,143,144)" d="M 1370.06 1371.05 L 1373.59 1365.15 L 1376.7 1366.01 C 1374.71 1370.1 1376.19 1372.39 1375.58 1376.98 C 1373.35 1376.74 1371.73 1372.94 1370.06 1371.05 z"/>
<path transform="translate(0,0)" fill="rgb(157,158,158)" d="M 1358.02 1309.7 L 1359.89 1310.26 C 1382.69 1317.03 1400.4 1320.66 1420.8 1336.2 C 1418.13 1338.87 1416.57 1339.92 1415.51 1343.54 C 1397.84 1331.34 1384.02 1326.56 1364.14 1319.17 C 1375.6 1329.17 1385.78 1336.53 1386.52 1353.15 C 1386.67 1356.58 1387.05 1359.51 1385.92 1362.84 L 1382.87 1362.71 C 1381.55 1364.55 1382.02 1363.85 1381.63 1366.35 C 1379.34 1366.39 1378.95 1366.39 1376.7 1366.01 L 1373.59 1365.15 C 1377.2 1340.48 1364.99 1331.89 1343.98 1324.86 C 1347.98 1322.22 1348.85 1324.34 1353.51 1322.48 L 1353.94 1320.83 L 1350.22 1316.92 L 1350.42 1315.37 L 1353.28 1315.43 C 1355.22 1312.23 1355.43 1312.18 1358.02 1309.7 z"/>
<path transform="translate(0,0)" fill="rgb(157,157,158)" d="M 1322.43 646.797 C 1323.18 646.926 1346.12 645.985 1348.39 645.905 C 1375.59 646.648 1398.66 650.445 1422.63 664.248 L 1425.48 666.295 C 1431.5 670.551 1443.69 677.787 1445.39 684.405 C 1444.42 687.545 1444.5 687.324 1442.19 689.69 C 1426.83 702.817 1419.92 709.199 1401.46 717.884 C 1391.89 721.942 1362.06 732.966 1352.07 731.471 C 1330.19 736.232 1302.38 733.968 1280.84 728.459 C 1276.78 727.418 1272.87 726.066 1268.89 724.763 C 1248.96 716.713 1235.32 708.997 1218.89 694.798 C 1248.38 662.787 1280.19 651.426 1322.43 646.797 z"/>
<path transform="translate(0,0)" fill="rgb(58,61,63)" d="M 1348.39 645.905 C 1375.59 646.648 1398.66 650.445 1422.63 664.248 L 1425.48 666.295 C 1431.5 670.551 1443.69 677.787 1445.39 684.405 C 1444.42 687.545 1444.5 687.324 1442.19 689.69 C 1426.83 702.817 1419.92 709.199 1401.46 717.884 C 1391.89 721.942 1362.06 732.966 1352.07 731.471 C 1352.29 729.889 1352.09 728.149 1352.01 726.526 C 1354.76 724.904 1353.34 725.112 1356.38 725.765 L 1357.54 724.908 L 1357.84 721.03 C 1353.44 721.928 1353.6 721.938 1349.15 721.395 C 1344.96 719.105 1346.34 723.002 1342.93 719.157 L 1343.27 715.507 C 1355.19 712.844 1365.66 705.788 1370.44 694.278 C 1374.65 674.847 1366.55 668.436 1350.33 661.501 C 1352.94 659.937 1352.64 650.404 1352.51 647.518 L 1348.39 645.905 z"/>
<path transform="translate(0,0)" fill="rgb(163,163,164)" d="M 1348.39 645.905 C 1375.59 646.648 1398.66 650.445 1422.63 664.248 C 1418.36 666.794 1419.11 666.538 1416.93 670.768 C 1402.05 661.853 1379.98 654.967 1362.73 654.568 L 1362.89 655.513 C 1372.38 662.157 1380.52 667.27 1383.23 679.661 C 1384.41 685.022 1383.22 694.939 1380.75 699.843 C 1378.06 700.482 1377.06 701.555 1374.43 701.783 L 1373.23 700.155 L 1373.56 699.615 C 1376.47 698.201 1376.92 698.418 1378.85 696.046 L 1377.48 694.717 L 1372.04 695.678 L 1370.44 694.278 C 1374.65 674.847 1366.55 668.436 1350.33 661.501 C 1352.94 659.937 1352.64 650.404 1352.51 647.518 L 1348.39 645.905 z"/>
<path transform="translate(0,0)" fill="rgb(157,158,158)" d="M 1370.44 694.278 L 1372.04 695.678 L 1377.48 694.717 L 1378.85 696.046 C 1376.92 698.418 1376.47 698.201 1373.56 699.615 L 1373.23 700.155 L 1374.43 701.783 C 1377.06 701.555 1378.06 700.482 1380.75 699.843 L 1380.34 700.943 C 1376.04 712.07 1369.05 713.879 1367.78 718.581 C 1376.21 719.744 1392.44 711.633 1400.06 708.14 C 1401.09 710.898 1402.63 715.228 1401.46 717.884 C 1391.89 721.942 1362.06 732.966 1352.07 731.471 C 1352.29 729.889 1352.09 728.149 1352.01 726.526 C 1354.76 724.904 1353.34 725.112 1356.38 725.765 L 1357.54 724.908 L 1357.84 721.03 C 1353.44 721.928 1353.6 721.938 1349.15 721.395 C 1344.96 719.105 1346.34 723.002 1342.93 719.157 L 1343.27 715.507 C 1355.19 712.844 1365.66 705.788 1370.44 694.278 z"/>
<path transform="translate(0,0)" fill="rgb(143,143,144)" d="M 1349.15 721.395 C 1350.5 718.299 1349.39 719.331 1352.01 717.738 C 1354.63 719.172 1353.73 719.173 1356.36 719.243 C 1358.42 715.362 1357.98 717.467 1357 712.58 C 1358.74 710.292 1357.69 711.118 1360.39 710.328 C 1360.46 713.371 1360.38 715.973 1360.27 719.015 L 1357.84 721.03 C 1353.44 721.928 1353.6 721.938 1349.15 721.395 z"/>
<path transform="translate(0,0)" fill="rgb(143,143,144)" d="M 1428.39 689.385 L 1433.09 690.695 C 1434.83 689.693 1436.55 688.672 1438.27 687.633 L 1442.19 689.69 C 1426.83 702.817 1419.92 709.199 1401.46 717.884 C 1402.63 715.228 1401.09 710.898 1400.06 708.14 C 1411.28 701.852 1418.23 697.247 1428.39 689.385 z"/>
<path transform="translate(0,0)" fill="rgb(157,158,158)" d="M 1422.63 664.248 L 1425.48 666.295 C 1431.5 670.551 1443.69 677.787 1445.39 684.405 C 1444.42 687.545 1444.5 687.324 1442.19 689.69 L 1438.27 687.633 C 1436.55 688.672 1434.83 689.693 1433.09 690.695 L 1428.39 689.385 C 1430.83 687.557 1430.75 687.677 1432.48 685.179 C 1431.63 681.043 1427.66 678.857 1423.88 675.617 L 1416.93 670.768 C 1419.11 666.538 1418.36 666.794 1422.63 664.248 z"/>
<path transform="translate(0,0)" fill="url(#Gradient4)" d="M 1422.63 664.248 L 1425.48 666.295 C 1425.54 671.042 1425.66 671.343 1423.88 675.617 L 1416.93 670.768 C 1419.11 666.538 1418.36 666.794 1422.63 664.248 z"/>
<path transform="translate(0,0)" fill="rgb(58,61,63)" d="M 1332.27 660.076 C 1339.29 659.484 1343.38 660.398 1350.33 661.501 C 1366.55 668.436 1374.65 674.847 1370.44 694.278 C 1365.66 705.788 1355.19 712.844 1343.27 715.507 C 1315.76 722.024 1282.23 698.08 1303.02 671.243 C 1305.34 670.04 1311.23 666.003 1313.72 664.411 C 1319.3 661.648 1326.14 660.748 1332.27 660.076 z"/>
<path transform="translate(0,0)" fill="rgb(58,61,63)" d="M 1303.7 656.696 C 1302.31 659.649 1296.92 663.392 1294.11 665.64 C 1283.6 677.555 1282.82 687.011 1288.29 702.113 L 1289.14 704.25 C 1293.82 714.303 1304.3 719.518 1313.49 725.345 C 1281 719.577 1258.23 715.356 1231.61 693.771 C 1253.19 672.582 1275.39 664.189 1303.7 656.696 z"/>
<path transform="translate(0,0)" fill="rgb(157,158,158)" d="M 1322.43 646.797 C 1323.18 646.926 1346.12 645.985 1348.39 645.905 L 1352.51 647.518 C 1352.64 650.404 1352.94 659.937 1350.33 661.501 C 1343.38 660.398 1339.29 659.484 1332.27 660.076 L 1331.79 657.793 C 1328.92 654.64 1330.69 655.788 1325.87 654.95 C 1325.71 653.659 1325.79 652.737 1325.93 651.459 L 1323.49 650.323 C 1316.73 651.036 1319.89 652.245 1313.03 655.815 L 1311.49 654.781 L 1311.94 652.215 C 1314.72 649.531 1318.76 648.686 1322.43 646.797 z"/>
<path transform="translate(0,0)" fill="rgb(143,143,144)" d="M 1303.7 656.696 C 1306.8 656.726 1306.26 656.921 1309.27 658.521 L 1310.19 659.916 C 1310.84 660.892 1312.96 663.86 1313.72 664.411 C 1311.23 666.003 1305.34 670.04 1303.02 671.243 C 1299.29 667.235 1299.24 667.476 1294.11 665.64 C 1296.92 663.392 1302.31 659.649 1303.7 656.696 z"/>
<path transform="translate(0,0)" fill="rgb(143,143,144)" d="M 1268.89 724.763 L 1270.5 719.334 L 1272.1 719.261 L 1275.99 723.183 C 1277.76 721.945 1278.74 721.218 1280.38 719.808 L 1280.5 719.873 L 1279.83 720.255 C 1282.01 723.147 1281.08 723.678 1280.84 728.459 C 1276.78 727.418 1272.87 726.066 1268.89 724.763 z"/>
<path transform="translate(0,0)" fill="url(#Gradient3)" d="M 1288.29 702.113 L 1288.12 696.263 L 1288.88 695.589 L 1288.96 695.957 L 1290.17 695.17 C 1292.5 697.461 1291.79 698.11 1293.07 701.228 C 1292.09 703.714 1292.68 702.553 1289.14 704.25 L 1288.29 702.113 z"/>
<path transform="translate(0,0)" fill="rgb(163,163,164)" d="M 1315.52 721.416 C 1317.57 721.824 1317.85 722.221 1319.65 723.31 C 1322.94 723.22 1327.36 722.713 1329.98 724.488 C 1328.51 727.23 1328.5 726.472 1324.72 727.913 C 1322.72 730.997 1323.85 730.485 1321.22 731.711 C 1319.07 729.335 1316.04 726.445 1314.24 724.058 L 1315.52 721.416 z"/>
<path transform="translate(0,0)" fill="rgb(58,61,63)" d="M 689.567 647.152 C 692.2 647.004 694.379 646.838 697.035 646.98 C 695.112 652.917 697.332 654.604 700.463 660.14 L 710.126 661.294 C 712.19 661.839 714.258 662.411 716.335 662.895 L 717.304 663.084 L 719.254 659.854 C 722.926 660.289 729.964 659.678 733.406 658.632 L 732.689 650.512 C 760.112 653.49 785.874 665.123 806.243 683.723 L 807.738 685.06 C 810.864 688.232 814.256 691.546 817.285 694.77 C 795.017 712.452 776.488 724.728 747.827 730.698 C 729.392 734.652 715.079 736.084 696.084 734.318 C 689.72 733.726 681.759 732.245 675.538 732.022 C 642.466 725.723 619.967 713.268 594.889 690.562 C 592.442 688.346 592.407 687.751 592.293 684.71 C 594.039 681.627 594.038 682.117 596.502 679.659 C 620.678 655.554 655.596 645.83 689.567 647.152 z"/>
<path transform="translate(0,0)" fill="rgb(163,163,164)" d="M 689.567 647.152 C 692.2 647.004 694.379 646.838 697.035 646.98 C 695.112 652.917 697.332 654.604 700.463 660.14 C 697.311 660.435 694.979 660.511 691.922 661.446 C 685.493 663.159 682.192 663.661 676.387 666.975 C 670.539 671.612 667.616 673.722 664.752 680.81 C 664.017 689.96 663.716 697.034 670.452 704.62 C 673.498 708.042 676.937 711.094 680.697 713.714 C 678.449 716.556 678.631 716.363 678.469 720.017 C 675.087 721.933 673.934 721.824 670.135 722.262 L 668.472 723.98 L 668.656 725.305 C 672.249 725.312 673.847 724.878 676.81 727.197 C 676.433 729.307 676.224 729.982 675.538 732.022 C 642.466 725.723 619.967 713.268 594.889 690.562 C 592.442 688.346 592.407 687.751 592.293 684.71 C 594.039 681.627 594.038 682.117 596.502 679.659 C 620.678 655.554 655.596 645.83 689.567 647.152 z"/>
<path transform="translate(0,0)" fill="rgb(58,61,63)" d="M 603.055 685.151 C 623.453 668.906 634.537 662.615 660.208 657.303 C 659.325 662.06 659.248 662.338 659.892 667.062 L 657.523 669.805 C 645.542 693.181 654.1 706.298 671.972 721.464 C 643.091 716.444 624.566 704.53 603.055 685.151 z"/>
<path transform="translate(0,0)" fill="rgb(157,158,158)" d="M 689.567 647.152 C 692.2 647.004 694.379 646.838 697.035 646.98 C 695.112 652.917 697.332 654.604 700.463 660.14 C 697.311 660.435 694.979 660.511 691.922 661.446 L 689.938 659.126 C 683.344 657.905 684.431 658.199 679.604 653.493 L 679.658 651.537 C 682.949 647.761 684.5 648.057 689.567 647.152 z"/>
<path transform="translate(0,0)" fill="rgb(143,143,144)" d="M 666.376 661.301 C 670.554 665.918 670.384 665.267 676.387 666.975 C 670.539 671.612 667.616 673.722 664.752 680.81 C 663.009 677.619 663.943 676.909 660.875 673.488 L 657.523 669.805 L 659.892 667.062 C 661.747 665.271 664.393 663.056 666.376 661.301 z"/>
<path transform="translate(0,0)" fill="rgb(87,89,88)" d="M 660.208 657.303 C 665.175 656.19 667.436 655.371 672.551 655.851 L 673.051 656.953 C 670.447 659.505 669.574 659.746 666.376 661.301 C 664.393 663.056 661.747 665.271 659.892 667.062 C 659.248 662.338 659.325 662.06 660.208 657.303 z"/>
<path transform="translate(0,0)" fill="rgb(58,61,63)" d="M 700.463 660.14 L 710.126 661.294 C 712.19 661.839 714.258 662.411 716.335 662.895 L 717.304 663.084 C 749.673 676.302 745.281 701.253 716.348 715.517 C 703.374 718.65 693.165 718.825 680.697 713.714 C 676.937 711.094 673.498 708.042 670.452 704.62 C 663.716 697.034 664.017 689.96 664.752 680.81 C 667.616 673.722 670.539 671.612 676.387 666.975 C 682.192 663.661 685.493 663.159 691.922 661.446 C 694.979 660.511 697.311 660.435 700.463 660.14 z"/>
<path transform="translate(0,0)" fill="rgb(157,158,158)" d="M 680.697 713.714 C 693.165 718.825 703.374 718.65 716.348 715.517 L 718.498 716.724 C 719.713 723.002 714.93 717.053 718.066 723.366 C 721.064 723.804 721.71 723.458 724.659 722.856 L 725.174 723.609 C 730.228 726.49 743.129 722.624 749.034 721.304 C 750.327 724.955 749.106 726.956 747.827 730.698 C 729.392 734.652 715.079 736.084 696.084 734.318 C 689.72 733.726 681.759 732.245 675.538 732.022 C 676.224 729.982 676.433 729.307 676.81 727.197 C 673.847 724.878 672.249 725.312 668.656 725.305 L 668.472 723.98 L 670.135 722.262 C 673.934 721.824 675.087 721.933 678.469 720.017 C 678.631 716.363 678.449 716.556 680.697 713.714 z"/>
<path transform="translate(0,0)" fill="rgb(157,157,158)" d="M 717.304 663.084 L 719.254 659.854 C 722.926 660.289 729.964 659.678 733.406 658.632 C 736.174 662.975 742.77 665.546 745.678 670.273 C 759.27 692.368 745.813 713.761 725.174 723.609 L 724.659 722.856 C 721.71 723.458 721.064 723.804 718.066 723.366 C 714.93 717.053 719.713 723.002 718.498 716.724 L 716.348 715.517 C 745.281 701.253 749.673 676.302 717.304 663.084 z"/>
<path transform="translate(0,0)" fill="rgb(157,157,158)" d="M 806.243 683.723 L 807.738 685.06 C 810.864 688.232 814.256 691.546 817.285 694.77 C 795.017 712.452 776.488 724.728 747.827 730.698 C 749.106 726.956 750.327 724.955 749.034 721.304 C 761.255 717.576 767.832 715.3 779.306 709.563 C 784.194 707.119 797.547 698.427 800.727 697.622 L 802.485 694.945 C 802.164 691.501 801.087 691.532 798.09 688.27 L 799.93 685.921 C 801.654 685.383 803.047 684.924 804.752 684.288 L 806.243 683.723 z"/>
<path transform="translate(0,0)" fill="url(#Gradient2)" d="M 806.243 683.723 L 807.738 685.06 C 805.078 691.109 807.505 691.025 806.637 697.644 L 805.266 699.624 C 802.11 699.807 803.657 700.176 800.727 697.622 L 802.485 694.945 C 802.164 691.501 801.087 691.532 798.09 688.27 L 799.93 685.921 C 801.654 685.383 803.047 684.924 804.752 684.288 L 806.243 683.723 z"/>
<path transform="translate(0,0)" fill="rgb(157,157,158)" d="M 732.689 650.512 C 760.112 653.49 785.874 665.123 806.243 683.723 L 804.752 684.288 C 803.047 684.924 801.654 685.383 799.93 685.921 L 798.09 688.27 C 782.517 675.459 753.566 658.928 733.406 658.632 L 732.689 650.512 z"/>
<path transform="translate(0,0)" fill="rgb(157,158,158)" d="M 697.035 646.98 L 708.118 647.255 C 712.606 648.006 719.435 648.04 722.417 648.796 C 726.768 649.215 728.567 649.271 732.689 650.512 L 733.406 658.632 C 729.964 659.678 722.926 660.289 719.254 659.854 L 717.304 663.084 L 716.335 662.895 C 714.258 662.411 712.19 661.839 710.126 661.294 L 700.463 660.14 C 697.332 654.604 695.112 652.917 697.035 646.98 z"/>
<path transform="translate(0,0)" fill="rgb(157,158,158)" d="M 697.035 646.98 L 708.118 647.255 C 709.426 649.709 710.594 659.306 710.126 661.294 L 700.463 660.14 C 697.332 654.604 695.112 652.917 697.035 646.98 z"/>
<path transform="translate(0,0)" fill="rgb(157,157,158)" d="M 708.118 647.255 C 712.606 648.006 719.435 648.04 722.417 648.796 C 717.632 649.254 717.857 648.426 714.988 650.981 C 713.254 656.287 714.012 658.2 716.335 662.895 C 714.258 662.411 712.19 661.839 710.126 661.294 C 710.594 659.306 709.426 649.709 708.118 647.255 z"/>
<path transform="translate(0,0)" fill="rgb(157,157,158)" d="M 1028.52 797.788 C 1031.72 798.864 1035.43 800.22 1038.64 801.106 C 1039.83 803.585 1039.63 803.901 1041.94 805.187 L 1049.03 806.742 C 1052.07 808.227 1053.4 806.778 1058.31 809.314 C 1052.13 813.709 1051.58 814.548 1044.17 814.517 C 1033.83 811.29 1029.66 808.842 1028.52 797.788 z"/>
<path transform="translate(0,0)" fill="url(#Gradient1)" d="M 1041.94 805.187 L 1049.03 806.742 C 1052.07 808.227 1053.4 806.778 1058.31 809.314 C 1052.13 813.709 1051.58 814.548 1044.17 814.517 C 1043.67 810.777 1043.06 810.141 1040.77 807.124 L 1041.94 805.187 z"/>
</svg>