<svg version="1.1" xmlns="http://www.w3.org/2000/svg" style="display: block;" viewBox="0 0 2048 2048" width="1024" height="1024" preserveAspectRatio="none">
<defs>
	<linearGradient id="Gradient1" gradientUnits="userSpaceOnUse" x1="538.057" y1="1465.98" x2="511.12" y2="1405.25">
		<stop class="stop0" offset="0" stop-opacity="1" stop-color="rgb(60,31,23)"/>
		<stop class="stop1" offset="1" stop-opacity="1" stop-color="rgb(98,57,44)"/>
	</linearGradient>
	<linearGradient id="Gradient2" gradientUnits="userSpaceOnUse" x1="359.309" y1="1618.41" x2="365.066" y2="1543.77">
		<stop class="stop0" offset="0" stop-opacity="1" stop-color="rgb(57,29,20)"/>
		<stop class="stop1" offset="1" stop-opacity="1" stop-color="rgb(107,63,49)"/>
	</linearGradient>
	<linearGradient id="Gradient3" gradientUnits="userSpaceOnUse" x1="278.66" y1="1816.95" x2="244.579" y2="1804.78">
		<stop class="stop0" offset="0" stop-opacity="1" stop-color="rgb(125,93,50)"/>
		<stop class="stop1" offset="1" stop-opacity="1" stop-color="rgb(91,60,16)"/>
	</linearGradient>
</defs>
<path transform="translate(0,0)" fill="rgb(0,0,0)" d="M 1670.98 159.279 C 1676.51 162.522 1689.52 176.822 1694.16 182.126 C 1760.68 258.12 1810.52 372.885 1773.23 472.945 C 1762.63 501.4 1738.93 526.972 1736.91 560.422 C 1736.48 563.846 1737.29 572.778 1740.74 574.818 C 1762.54 587.356 1762.71 542.751 1766.67 530.244 C 1777.53 495.934 1797.42 484.448 1832.17 479.387 C 1769.99 549.275 1831.12 583.985 1795.87 654.476 C 1769.67 698.137 1719.36 713.462 1682.2 746.189 C 1662.99 763.111 1655.68 805.518 1691.78 794.6 C 1703.97 790.911 1708.45 767.971 1712.11 755.54 C 1726.58 777.107 1730.5 798.567 1722.46 823.697 C 1718.25 837.295 1710.69 849.619 1700.48 859.538 C 1662.47 896.44 1617.18 875.645 1574.23 897.136 C 1561.18 903.842 1554.46 911.563 1549.51 925.143 C 1545.74 935.487 1549.39 952.018 1561.17 954.492 C 1578.05 958.037 1595.49 934.611 1609.85 926.282 C 1626.57 916.592 1641.72 912.933 1661.04 917.391 C 1688.51 923.942 1704.52 945.128 1718.43 967.663 C 1704.16 962.035 1691.53 957.942 1675.82 957.872 C 1614.72 957.601 1623.74 1023.17 1587.88 1055.41 C 1579.1 1063.3 1571.46 1068.11 1559.87 1070.88 C 1518.86 1080.7 1500.35 1036.45 1459.11 1036.73 C 1435.58 1036.91 1417.22 1048.81 1400.39 1064.67 C 1383.92 1080.2 1366.2 1113.64 1386.36 1133.19 C 1394.68 1140.66 1403.21 1142.91 1414.13 1142.12 C 1443.33 1140.03 1464.38 1108.7 1482.15 1087.86 C 1481.02 1120.94 1478.41 1145.77 1458.63 1173.24 C 1446.67 1189.87 1430.77 1203.29 1412.37 1212.3 C 1335.7 1250.22 1272.94 1189.06 1196.72 1198.7 C 1147.86 1204.88 1142.35 1250.44 1200.87 1232.57 C 1198.46 1238.26 1195.29 1245.45 1191.92 1250.03 C 1168.87 1284.66 1134.76 1261.11 1105.05 1263.83 C 1081.77 1270.54 1090.41 1292.8 1107.11 1299.92 C 1163.6 1323.99 1198.44 1270.11 1248.29 1254.6 C 1287.94 1242.27 1304.36 1256.17 1338.32 1274.16 C 1286.65 1273.07 1259.43 1283.15 1221.4 1318.34 C 1209.96 1328.92 1194.96 1341.5 1182.01 1350 C 1127.5 1385.79 1076.75 1382.79 1018.55 1358.42 C 997.62 1349.61 980.468 1340.79 957.868 1335.69 C 929.793 1329.36 886.997 1340.03 878.299 1371.1 C 875.625 1380.66 884.589 1390.04 894.51 1390.7 C 908.929 1391.66 920.661 1382.79 931.185 1373.93 C 930.289 1393.17 926.811 1409.69 912.226 1422.66 C 876.315 1454.58 831.139 1430.22 791.181 1426.18 C 768.931 1423.93 744.463 1437.73 728.157 1453.39 C 738.969 1460.49 749.234 1467.02 761.808 1470.71 C 769.486 1472.97 785.736 1471.97 791.4 1475.55 C 798.511 1486.61 770.983 1500.24 762.63 1503.52 C 717.231 1515.62 679.126 1487.41 646.195 1460.01 C 634.948 1473.06 627.93 1474.99 611.622 1470.84 C 603.567 1477.76 587.633 1487.9 578.515 1494.14 C 563.22 1504.75 548.101 1515.62 533.166 1526.74 C 472.751 1571.92 400.43 1643.52 358.635 1706.55 C 363.399 1725.89 356.058 1737.48 335.713 1739.59 C 335.953 1763.83 337.213 1772.47 355.353 1790.85 C 358.34 1793.88 362.37 1798.79 361.74 1803.39 C 359.452 1820.11 354.118 1839.95 340.178 1850.73 C 334.153 1855.39 321.172 1861.03 313.753 1859.93 C 307.942 1854.93 320.101 1843.03 319.857 1835.02 C 319.567 1825.54 308.072 1826.53 305.074 1819.52 C 302.273 1812.96 305.52 1804.24 302.45 1796.92 C 298.874 1788.41 290.394 1783.19 282.184 1780 L 280.823 1779.48 C 276.213 1787.29 272.023 1797.63 268.629 1806.14 C 262.85 1820.64 265.394 1826.46 271.24 1839.4 C 252.921 1862.59 280.155 1868.85 298.158 1878.04 C 290.531 1881.05 282.699 1884.17 274.847 1886.42 C 248.261 1896 193.631 1871.18 201.289 1838.9 C 205.197 1822.42 216.214 1823.29 209.855 1796.59 L 209.526 1795.25 C 191.413 1777.91 191.438 1781.17 197.161 1754.97 C 200.897 1737.86 198.346 1716.53 193.13 1699.97 C 191.426 1694.56 187.679 1686.74 187.259 1681.42 C 193.246 1678.97 208.472 1684.86 214.455 1687.23 C 215.398 1665.17 210.019 1649.05 203.707 1628.44 C 234.554 1636.91 234.894 1649.44 247.515 1671.31 C 247.435 1651.42 249.393 1641.88 271.555 1639.34 C 278.912 1631.18 288.685 1617.83 295.816 1608.91 C 308.149 1593.46 320.859 1578.32 333.934 1563.5 C 389.959 1499.44 473.922 1421.32 545.736 1374.62 C 546.599 1357.65 549.723 1355.66 563.893 1346.37 C 558.781 1334.85 547.277 1310.05 548.652 1298.48 C 553.579 1292.01 579.311 1274.29 587.145 1276.06 C 590.184 1278.99 594.992 1288.45 597.593 1292.89 C 655.168 1262.15 715.753 1226.95 757.272 1174.94 C 758.353 1180.23 760.166 1184.82 761.975 1189.9 C 795.233 1165.23 809.58 1149.09 837.004 1118.71 C 839.692 1123.51 840.893 1127.68 842.654 1132.86 C 874.1 1111.58 900.113 1078.08 922.905 1048.29 L 927.739 1066.16 C 947.468 1053.19 980.715 1018.08 995.633 999.078 C 1003.94 988.49 1012.33 975.495 1021.31 964.569 C 1023.77 969.179 1026.51 975.464 1028.78 980.304 C 1061.49 951.474 1079.42 922.248 1103.66 888.034 C 1105.89 892.62 1108.18 897.178 1110.53 901.708 C 1134.76 874.388 1155.9 845.473 1171.94 812.583 C 1174.77 806.777 1177.39 800.98 1180.59 795.358 L 1181.14 794.394 L 1188.47 808.912 C 1211.28 777.616 1233.85 734.477 1244.13 697.488 C 1250.54 700.25 1252.19 700.798 1257.22 705.623 C 1277.87 664.142 1294.65 619.944 1301.34 573.851 C 1313.2 568.956 1325.23 565.003 1337.36 559.669 C 1380.05 540.899 1398.61 519.352 1428.48 487.223 C 1431.35 491.168 1434.41 495.912 1437.17 500.002 C 1469.3 476.023 1484.94 445.255 1499.54 409.261 C 1503.66 416.135 1505.91 423.343 1510.05 430.585 C 1522.46 415.414 1540.53 398.366 1554.4 381.633 C 1611.62 312.606 1649.59 246.167 1670.98 159.279 z"/>
<path transform="translate(0,0)" fill="rgb(230,100,22)" d="M 892.01 1308.94 C 937.445 1278.43 1014.5 1238.26 1064.16 1211.91 C 1248.21 1114.24 1415.92 1015.61 1543.01 844.962 C 1659.43 688.62 1716.01 505.084 1701.56 309.761 C 1699.32 280.436 1695.45 251.258 1689.96 222.365 C 1688 211.744 1683.84 195.761 1682.41 186.114 C 1684.05 186.191 1685.27 188.25 1686.79 189.897 C 1751.08 262.652 1800.71 372.873 1764.28 468.764 C 1755.82 491.031 1693.41 584.987 1748.48 587.345 C 1784.49 588.887 1757.67 521.241 1806.81 495.66 C 1800.26 509.502 1795.31 520.745 1793.54 536.205 C 1789.58 570.764 1806 601.401 1793.45 635.597 C 1781.4 668.416 1757.39 682.325 1730.34 701.175 C 1703.68 719.762 1665.74 734.504 1657.39 768.964 C 1650.84 794.093 1669.26 813.602 1694.77 804.409 C 1703.45 801.282 1710.04 790.726 1714.26 782.687 C 1722.3 827.429 1696.35 866.048 1650.68 872.916 C 1612.78 878.615 1571.08 873.765 1546.04 909.586 C 1528.81 933.454 1541.4 970.716 1574.38 964.274 C 1584.22 962.352 1597.24 949.081 1605.13 942.604 C 1637.16 916.298 1665.56 921.605 1693.34 949.361 C 1599.16 940.606 1626.68 1009.61 1573.79 1053.88 C 1549.71 1074.03 1521.51 1055.13 1501.84 1040.41 C 1468.89 1018.84 1431.3 1024.53 1402.32 1049.55 C 1378.42 1068.8 1353.06 1108.89 1377.56 1138.29 C 1398.22 1163.08 1437.74 1152.44 1457.06 1131.46 C 1461.84 1126.61 1465.74 1122.22 1470.09 1117.18 C 1460.98 1183.9 1402.25 1223.01 1336.74 1213.48 C 1285.51 1206.03 1235.37 1175.8 1183.27 1192.33 C 1165.32 1198.03 1136.23 1212.77 1152.59 1238.03 C 1157.51 1245.63 1173.67 1246.26 1182.61 1246.98 C 1171.85 1256.7 1164.58 1260.21 1149.56 1259.66 C 1129.32 1258.89 1106.72 1245.38 1089.01 1261.43 C 1077.77 1271.61 1079.46 1291.25 1090.7 1300.51 C 1132.16 1334.65 1180.38 1306.74 1217.26 1281.08 C 1241.86 1263.97 1273.83 1253.78 1302.37 1265.67 C 1285.17 1268.63 1265.98 1273.47 1250.8 1283.58 C 1198.07 1318.7 1169.13 1364.22 1099.37 1367.32 C 1028.45 1370.47 972.165 1301.2 902.573 1332.09 C 884.792 1339.99 864.432 1359.7 868.825 1380.74 C 873.287 1399.37 892.392 1403.67 908.481 1399.16 C 911.947 1398.19 915.385 1397.11 918.792 1395.94 C 912.735 1408.97 901.579 1422.11 887.866 1425.64 C 831.527 1440.18 806.153 1397.72 744.091 1427.82 C 749.388 1421.08 765.112 1402.91 772.189 1397.75 C 795.517 1373.89 832.365 1348.31 859.643 1329.79 C 870.183 1322.46 880.979 1315.5 892.01 1308.94 z"/>
<path transform="translate(0,0)" fill="rgb(253,152,11)" d="M 892.01 1308.94 C 937.445 1278.43 1014.5 1238.26 1064.16 1211.91 C 1248.21 1114.24 1415.92 1015.61 1543.01 844.962 C 1659.43 688.62 1716.01 505.084 1701.56 309.761 C 1699.32 280.436 1695.45 251.258 1689.96 222.365 C 1688 211.744 1683.84 195.761 1682.41 186.114 C 1684.05 186.191 1685.27 188.25 1686.79 189.897 L 1687.18 191.282 C 1691.13 205.227 1704.38 221.374 1711.24 234.539 C 1748.85 306.646 1770.23 391.241 1737.29 469.337 C 1721.11 507.682 1689.33 556.179 1705.58 598.411 C 1708.06 604.854 1714.96 613.326 1721.23 616.012 C 1747.16 627.105 1759.67 615.517 1773.06 596.507 C 1772.77 617.452 1768.22 636.893 1751.2 651.999 C 1708.77 689.651 1632.21 710.221 1629.23 778.448 C 1627.89 809.256 1647.19 832.89 1681.08 827.865 C 1677.24 832.725 1674.61 836.173 1668.94 839.152 C 1650.63 848.765 1627.04 847.367 1606.65 849.636 C 1556.07 855.264 1505.31 894.534 1511.37 949.836 C 1514.2 977.134 1535.32 999.098 1564.15 996.008 C 1571.95 995.212 1578.7 991.61 1585.52 987.814 C 1582.71 1008.07 1570.34 1035.95 1545.01 1032.62 C 1532.72 1030.51 1522.74 1021.05 1512.3 1015.15 C 1474.75 993.456 1431.64 998.159 1396.45 1022.52 C 1359.45 1048.13 1318.88 1103.67 1346.36 1149.34 C 1360.47 1172.78 1389.67 1172.86 1413.29 1173.08 C 1389.13 1190.08 1366.83 1194.77 1337.68 1190.01 C 1313.67 1186.51 1292.32 1175.93 1269.41 1168.92 C 1228.87 1156.51 1180.21 1162.25 1145.09 1186.68 C 1126.85 1199.38 1120.45 1211.08 1119.77 1233.13 C 1104.35 1229.29 1091.03 1227.34 1076.41 1236.2 C 1065.2 1242.91 1057.18 1253.88 1054.19 1266.6 C 1050.85 1280.17 1053.27 1294.51 1060.87 1306.23 C 1072.4 1324.12 1091.59 1331.38 1110.99 1337.23 C 1048.86 1351.72 1023.11 1313.34 968.134 1301.4 C 952.781 1298.06 926.813 1300.96 911.601 1304.86 C 905.465 1306.43 897.365 1311.09 893.374 1310.63 L 892.01 1308.94 z"/>
<path transform="translate(0,0)" fill="rgb(253,152,11)" d="M 772.189 1397.75 C 795.517 1373.89 832.365 1348.31 859.643 1329.79 L 862.682 1330.94 C 859.963 1336.86 853.058 1342.99 849.327 1348.58 C 836.753 1367.42 840.728 1383.27 850.164 1401.6 C 833.852 1398.83 817.386 1395.69 800.706 1395 C 792.814 1394.67 776.742 1400.06 772.189 1397.75 z"/>
<path transform="translate(0,0)" fill="rgb(172,33,5)" d="M 1675.15 213.971 C 1680.27 229.958 1684.58 264.879 1686.4 281.873 C 1698.61 387.598 1688.51 494.707 1656.76 596.287 C 1645.75 631.26 1640.85 654.433 1608.43 675.885 C 1595.21 690.173 1548.29 702.526 1528.64 708.985 C 1516.78 712.884 1506.85 717.522 1495.56 722.743 C 1507.16 700.621 1519.78 680.322 1527.08 656.025 C 1531.28 642.068 1535.93 626.885 1538.34 612.509 C 1541.49 593.659 1539.14 580.973 1551.46 564.605 C 1569.48 532.065 1586.09 502.204 1601.82 468.335 C 1640.5 385.055 1662.38 304.494 1675.15 213.971 z"/>
<path transform="translate(0,0)" fill="rgb(230,100,22)" d="M 1675.15 213.971 C 1680.27 229.958 1684.58 264.879 1686.4 281.873 C 1698.61 387.598 1688.51 494.707 1656.76 596.287 C 1645.75 631.26 1640.85 654.433 1608.43 675.885 C 1610.77 667.664 1616.45 654.267 1619.66 645.933 C 1625.92 630.043 1631.55 613.912 1636.54 597.578 C 1662.6 509.5 1673.08 417.546 1667.5 325.863 C 1664.06 334.734 1660.46 347.86 1657.42 357.307 C 1652.34 372.839 1646.78 388.211 1640.75 403.399 C 1620.96 452.988 1595.72 503.919 1564.87 547.439 C 1561.17 552.655 1556.61 562.392 1551.46 564.605 C 1569.48 532.065 1586.09 502.204 1601.82 468.335 C 1640.5 385.055 1662.38 304.494 1675.15 213.971 z"/>
<path transform="translate(0,0)" fill="rgb(139,23,11)" d="M 1349.99 896.533 C 1359.82 887.211 1374.87 872.379 1386.2 865.936 C 1412.29 851.095 1446.08 852.795 1474.57 847.124 C 1501.71 841.721 1524.3 830.963 1547.46 816.523 C 1540.89 827.614 1533.32 836.973 1525.53 847.205 C 1499.74 881.001 1471.5 912.858 1441.04 942.519 C 1417.22 966.173 1411.7 974.613 1376.72 978.193 C 1336.22 985.459 1306.8 963.016 1263.91 970.295 C 1285.99 950.671 1310.46 932.998 1332.02 912.578 C 1336.58 908.258 1345.23 899.621 1349.99 896.533 z"/>
<path transform="translate(0,0)" fill="rgb(230,100,22)" d="M 1349.99 896.533 C 1359.82 887.211 1374.87 872.379 1386.2 865.936 C 1412.29 851.095 1446.08 852.795 1474.57 847.124 C 1501.71 841.721 1524.3 830.963 1547.46 816.523 C 1540.89 827.614 1533.32 836.973 1525.53 847.205 C 1499.74 881.001 1471.5 912.858 1441.04 942.519 C 1417.22 966.173 1411.7 974.613 1376.72 978.193 C 1420.86 935.809 1464.8 903.452 1500.64 850.811 C 1454.64 864.554 1408.6 858.33 1368.24 886.322 C 1363.63 889.52 1355.2 894.587 1349.99 896.533 z"/>
<path transform="translate(0,0)" fill="rgb(172,33,5)" d="M 1511.09 445.36 C 1561.45 399.441 1606.99 338.446 1639.14 278.453 C 1644.55 268.314 1649.52 257.945 1654.04 247.377 C 1657.16 239.938 1661.2 228.166 1665.45 221.67 C 1662.1 242.612 1656.57 279.025 1650.21 298.727 C 1648.4 313.073 1642.49 330.831 1638.49 344.952 C 1619.33 412.475 1589.53 477.16 1555.78 538.547 C 1551.81 545.781 1540.01 567.55 1535.66 572.561 C 1522.58 577.408 1512.64 581.481 1499.84 587.197 C 1512.24 554.34 1518.1 529.478 1516.92 493.558 C 1516.62 484.16 1515.22 474.099 1514.88 465.405 C 1513.92 458.882 1512.39 451.873 1511.09 445.36 z"/>
<path transform="translate(0,0)" fill="rgb(230,100,22)" d="M 1511.09 445.36 C 1561.45 399.441 1606.99 338.446 1639.14 278.453 C 1644.55 268.314 1649.52 257.945 1654.04 247.377 C 1657.16 239.938 1661.2 228.166 1665.45 221.67 C 1662.1 242.612 1656.57 279.025 1650.21 298.727 C 1616.53 349.268 1585.47 398.45 1540.8 440.298 C 1532.09 448.462 1523.35 457 1514.88 465.405 C 1513.92 458.882 1512.39 451.873 1511.09 445.36 z"/>
<path transform="translate(0,0)" fill="rgb(104,74,32)" d="M 559.583 1302.96 C 566.615 1298.42 574.741 1293.44 581.445 1288.59 C 585.934 1298.23 591.045 1306.44 598.951 1313.7 C 606.811 1320.93 615.773 1326.05 625.789 1329.66 C 636.787 1333.63 648.407 1335.36 660.05 1335.82 C 671.412 1336.43 692.325 1334.75 704.544 1333.79 C 704.888 1334.18 705.231 1334.57 705.575 1334.97 L 705.602 1335.29 C 693.785 1372.98 685.179 1403.1 704.863 1440.57 C 706.122 1442.96 707.422 1445.33 708.761 1447.67 C 709.756 1448.43 717.051 1458.36 719.857 1460.74 C 737.234 1475.51 753.595 1480.85 775.271 1484.01 C 772.732 1485.65 768.531 1488.67 765.995 1489.84 C 706.874 1517.13 627.398 1433.08 603.369 1389.95 C 589.653 1376.12 570.096 1333.01 563.729 1313.86 L 559.583 1302.96 z"/>
<path transform="translate(0,0)" fill="rgb(149,112,46)" d="M 559.583 1302.96 C 566.615 1298.42 574.741 1293.44 581.445 1288.59 C 585.934 1298.23 591.045 1306.44 598.951 1313.7 C 606.811 1320.93 615.773 1326.05 625.789 1329.66 C 636.787 1333.63 648.407 1335.36 660.05 1335.82 C 671.412 1336.43 692.325 1334.75 704.544 1333.79 C 704.888 1334.18 705.231 1334.57 705.575 1334.97 L 705.602 1335.29 C 693.785 1372.98 685.179 1403.1 704.863 1440.57 C 706.122 1442.96 707.422 1445.33 708.761 1447.67 C 687.085 1435.63 679.032 1376.93 685.598 1355.42 C 686.162 1353.57 686.05 1352.68 685.543 1350.87 L 683.885 1351.68 C 659.894 1361.79 638.965 1380.98 617.371 1394.37 C 611.788 1393.4 608.613 1391.96 603.369 1389.95 C 589.653 1376.12 570.096 1333.01 563.729 1313.86 L 559.583 1302.96 z"/>
<path transform="translate(0,0)" fill="rgb(201,168,103)" d="M 559.583 1302.96 C 566.615 1298.42 574.741 1293.44 581.445 1288.59 C 585.934 1298.23 591.045 1306.44 598.951 1313.7 C 606.811 1320.93 615.773 1326.05 625.789 1329.66 C 636.787 1333.63 648.407 1335.36 660.05 1335.82 C 671.412 1336.43 692.325 1334.75 704.544 1333.79 C 704.888 1334.18 705.231 1334.57 705.575 1334.97 L 705.602 1335.29 C 693.071 1340.04 687.584 1345.13 673.23 1346.25 C 631.505 1349.52 603.191 1333.09 578.623 1301.78 C 573.452 1305.21 568.473 1309.78 563.729 1313.86 L 559.583 1302.96 z"/>
<path transform="translate(0,0)" fill="rgb(0,0,0)" d="M 683.885 1351.68 L 684.183 1353.22 C 665.949 1365.31 646.379 1382.08 626.185 1395.78 C 662.314 1441.75 683.523 1460.04 736.061 1486.6 C 685.696 1475.66 647.292 1434.27 617.371 1394.37 C 638.965 1380.98 659.894 1361.79 683.885 1351.68 z"/>
<path transform="translate(0,0)" fill="rgb(139,23,11)" d="M 1462.42 772.601 C 1469.02 762.767 1477.18 749.682 1485.71 741.805 C 1510.01 719.365 1543.27 715.54 1572.4 704.716 C 1594.16 696.713 1614.13 684.506 1631.18 668.789 C 1618.61 693.964 1607.99 718.993 1593.75 743.466 C 1574.38 776.751 1565.72 801.267 1528.41 817.647 C 1526.29 819.261 1517.47 823.013 1514.37 824.516 C 1475.43 843.445 1439.14 840.113 1396.38 851.295 C 1403.98 841.225 1420.01 825.528 1429.28 814.575 C 1440.43 801.396 1451.68 784.793 1462.42 772.601 z"/>
<path transform="translate(0,0)" fill="rgb(230,100,22)" d="M 1462.42 772.601 C 1469.02 762.767 1477.18 749.682 1485.71 741.805 C 1510.01 719.365 1543.27 715.54 1572.4 704.716 C 1594.16 696.713 1614.13 684.506 1631.18 668.789 C 1618.61 693.964 1607.99 718.993 1593.75 743.466 C 1574.38 776.751 1565.72 801.267 1528.41 817.647 C 1529.31 814.104 1543.14 794.89 1546.07 790.002 C 1561.87 763.686 1577.04 737.254 1590.08 709.473 C 1550.77 728.252 1508.8 727.763 1476.3 761.17 C 1473.73 763.807 1465.58 771.645 1462.42 772.601 z"/>
<path transform="translate(0,0)" fill="rgb(139,23,11)" d="M 1217.31 1004.46 C 1257.12 975.181 1280.47 970.76 1327.52 984.892 C 1346.27 990.523 1376.96 987.809 1396.05 983.403 C 1362.38 1013.69 1326.43 1040.72 1289.08 1066.28 C 1269.86 1079.44 1262.04 1079.81 1238.9 1079.92 C 1197.18 1081.28 1176.69 1061.6 1136.82 1060.91 C 1153 1049.18 1170.77 1038.02 1187.24 1026.14 C 1195.53 1020.17 1209.51 1009.28 1217.31 1004.46 z"/>
<path transform="translate(0,0)" fill="rgb(230,100,22)" d="M 1217.31 1004.46 C 1257.12 975.181 1280.47 970.76 1327.52 984.892 C 1346.27 990.523 1376.96 987.809 1396.05 983.403 C 1362.38 1013.69 1326.43 1040.72 1289.08 1066.28 C 1269.86 1079.44 1262.04 1079.81 1238.9 1079.92 C 1283.53 1052.31 1312.42 1029.08 1353.07 997.118 C 1323.35 997.662 1304.83 987.17 1276.91 987.605 C 1267.05 987.758 1249.3 993.031 1239.81 996.256 C 1234.37 998.103 1221.98 1004.3 1217.31 1004.46 z"/>
<path transform="translate(0,0)" fill="rgb(139,23,11)" d="M 781.051 1286.89 C 833.283 1251.32 851.382 1285.69 904.794 1287.26 C 845.533 1320.88 758.692 1380.88 721.488 1438.72 L 720.539 1440.74 L 719.094 1441.07 C 697.93 1420.79 705.046 1354.55 719.593 1332.72 C 726.622 1322.17 768.707 1295.52 781.051 1286.89 z"/>
<path transform="translate(0,0)" fill="rgb(230,100,22)" d="M 781.051 1286.89 C 833.283 1251.32 851.382 1285.69 904.794 1287.26 C 845.533 1320.88 758.692 1380.88 721.488 1438.72 C 720.557 1436.97 720.961 1435.74 721.691 1433.81 C 739.039 1387.91 829.605 1309.84 871.287 1291.73 C 851.058 1283.44 825.977 1275.52 803.992 1280.08 C 796.489 1281.63 788.681 1286.09 781.051 1286.89 z"/>
<path transform="translate(0,0)" fill="rgb(172,33,5)" d="M 1181.25 820.439 C 1193.63 846.088 1200.2 882.464 1197.7 910.938 C 1196.72 922.48 1189.32 938.24 1186.4 950.198 C 1181 972.273 1182.35 1017.84 1163.08 1031.4 C 1147.08 1042.66 1120.07 1062.24 1102.86 1071.59 C 1106.53 1062.68 1111.97 1050.41 1114.68 1041.46 C 1125.59 1005.38 1125.9 965.809 1117.16 929.299 L 1113.57 915.222 C 1140.93 887.351 1163.77 855.37 1181.25 820.439 z"/>
<path transform="translate(0,0)" fill="rgb(230,100,22)" d="M 1181.25 820.439 C 1193.63 846.088 1200.2 882.464 1197.7 910.938 C 1196.34 908.105 1193.52 891.315 1192.33 886.456 C 1189.24 874.355 1185.41 862.457 1180.86 850.831 C 1161.79 878.671 1140.49 904.914 1117.16 929.299 L 1113.57 915.222 C 1140.93 887.351 1163.77 855.37 1181.25 820.439 z"/>
<path transform="translate(0,0)" fill="rgb(172,33,5)" d="M 1028.82 995.107 C 1059.07 968.5 1080.16 945.273 1101.94 910.764 C 1116.93 950.544 1119.21 1007.25 1103.42 1047.18 C 1103.11 1048.21 1102.82 1049.24 1102.47 1050.26 C 1098.75 1060.92 1093.04 1073.88 1085.11 1082.15 C 1076.21 1091.44 1011.45 1131.68 997.106 1138.9 C 1024.18 1091.07 1028.86 1064.78 1029.88 1011.27 C 1029.53 1006 1029.06 1000.36 1028.82 995.107 z"/>
<path transform="translate(0,0)" fill="rgb(230,100,22)" d="M 1028.82 995.107 C 1059.07 968.5 1080.16 945.273 1101.94 910.764 C 1116.93 950.544 1119.21 1007.25 1103.42 1047.18 C 1102.62 1042.46 1106.38 1027.13 1106.65 1020.83 C 1107.9 991.707 1105.38 969.418 1097.17 941.907 C 1073.63 970.226 1057.1 985.795 1029.88 1011.27 C 1029.53 1006 1029.06 1000.36 1028.82 995.107 z"/>
<path transform="translate(0,0)" fill="rgb(172,33,5)" d="M 1314.52 581.333 C 1358.85 565.513 1396.47 543.986 1426.52 506.725 C 1431.85 546.059 1428.74 586.077 1417.41 624.117 C 1415.2 634.854 1407.06 658.393 1399.12 665.15 C 1384.63 677.461 1372.47 689.375 1359.35 703.217 C 1355.23 673.306 1349.26 648.003 1337.24 620.098 C 1333.93 612.392 1328.41 603.692 1324.55 595.591 L 1314.52 581.333 z"/>
<path transform="translate(0,0)" fill="rgb(230,100,22)" d="M 1314.52 581.333 C 1358.85 565.513 1396.47 543.986 1426.52 506.725 C 1431.85 546.059 1428.74 586.077 1417.41 624.117 C 1416.26 616.617 1420.17 606.119 1420.65 598.258 C 1421.89 578.127 1422.17 557.656 1418.68 537.808 C 1387.72 568.431 1363.08 579.253 1324.55 595.591 L 1314.52 581.333 z"/>
<path transform="translate(0,0)" fill="rgb(139,23,11)" d="M 1103.02 1082.78 C 1135.15 1061.06 1159.2 1071.61 1192.89 1082.31 C 1211.47 1088.21 1235.17 1089.2 1254.65 1088.89 C 1231.35 1103.66 1207.8 1118.03 1184.01 1131.99 C 1152.94 1150.07 1153.54 1151.01 1117.7 1153.08 C 1084.35 1161.03 1046.87 1140.98 1013.94 1139.42 C 1043.4 1122.98 1073.89 1099.74 1103.02 1082.78 z"/>
<path transform="translate(0,0)" fill="rgb(230,100,22)" d="M 1103.02 1082.78 C 1135.15 1061.06 1159.2 1071.61 1192.89 1082.31 C 1211.47 1088.21 1235.17 1089.2 1254.65 1088.89 C 1231.35 1103.66 1207.8 1118.03 1184.01 1131.99 C 1152.94 1150.07 1153.54 1151.01 1117.7 1153.08 C 1128.15 1145.59 1145.41 1137.21 1156.68 1130.59 C 1175.74 1119.38 1195 1108.31 1214.16 1097.25 C 1184.83 1092.74 1163.24 1079.76 1133.39 1078.93 C 1122.22 1078.62 1114 1082 1104.63 1082.68 L 1103.02 1082.78 z"/>
<path transform="translate(0,0)" fill="rgb(172,33,5)" d="M 1329.61 773.195 C 1341.46 734.715 1381.38 685.706 1416.16 665.176 C 1428.72 705.32 1431.89 753.479 1420.54 794.27 C 1413.97 828.04 1376.15 859.638 1351.13 882.851 C 1364.35 854.158 1370.91 797.288 1354.13 769.076 C 1348.63 770.485 1332.63 777.956 1328.77 776.188 L 1329.61 773.195 z"/>
<path transform="translate(0,0)" fill="rgb(230,100,22)" d="M 1329.61 773.195 C 1341.46 734.715 1381.38 685.706 1416.16 665.176 C 1428.72 705.32 1431.89 753.479 1420.54 794.27 C 1419.49 788.973 1421.56 775.197 1421.58 768.497 C 1421.64 739.047 1418.28 714.252 1408.24 686.451 C 1380.27 705.831 1362.08 724.888 1342.2 752.177 C 1337.01 759.308 1334.99 767.362 1329.61 773.195 z"/>
<path transform="translate(0,0)" fill="rgb(149,112,46)" d="M 209.954 1720.16 C 221.924 1715.73 233.49 1708.37 243.065 1699.88 C 247.409 1696.03 255.944 1683.9 258.078 1683.57 L 261.406 1686.99 C 265.493 1690.67 278.522 1701.91 281.538 1705.29 C 281.396 1706.54 280.942 1709.77 280.957 1710.85 C 282.536 1739.18 297.994 1743.98 323.829 1738.01 C 324.939 1753.49 325.399 1765.85 331.286 1780.5 C 324.098 1773.52 321.133 1768.91 315.382 1760.74 C 320.031 1777.1 325.765 1785.3 340.645 1794.06 C 345.877 1797.14 355.588 1803.75 349.193 1810.59 C 340.286 1808.08 336.711 1805.74 328.271 1809.35 C 324.904 1813.29 324.021 1815.57 319.542 1816.28 C 315.826 1814.55 316.828 1815.86 315.216 1812.98 C 320.266 1778.87 286.314 1771.49 284.196 1766.63 L 285.422 1764.23 C 291.09 1759.91 296.039 1759.2 302.919 1758.56 C 297.987 1755.51 295.797 1755.25 290.255 1753.82 C 274.253 1760.2 268.87 1776.08 262.561 1790.98 C 257.032 1804.05 249.908 1817.91 255.479 1832.01 C 256.41 1834.32 257.394 1836.61 258.43 1838.88 C 247.434 1856.65 255.381 1865.54 270.151 1876.67 C 265.322 1877.31 259.868 1878.5 255.262 1877.48 C 233.772 1875.31 217.605 1864.11 210.563 1843.33 C 219.583 1829.73 223.481 1819.6 222.034 1802.93 C 221.284 1794.29 217.06 1794.63 224.817 1789.85 C 227.908 1789.1 232.162 1780.09 238.939 1775.99 C 258.012 1764.44 249.767 1750.86 238.66 1737 L 245.312 1721.43 L 244.438 1722.15 C 219.743 1742.83 227.454 1754.54 225.105 1777.33 L 224.879 1779.34 C 215.635 1789.82 210.755 1781.95 204.166 1774.06 C 210.264 1750.44 210.356 1744.04 209.954 1720.16 z"/>
<path transform="translate(0,0)" fill="url(#Gradient3)" d="M 254.168 1874.83 C 253.18 1868.94 250.655 1863.86 249.425 1857.93 C 242.121 1822.69 240.191 1781.59 271.065 1756.53 C 276.288 1752.29 284.071 1752.6 290.255 1753.82 C 274.253 1760.2 268.87 1776.08 262.561 1790.98 C 257.032 1804.05 249.908 1817.91 255.479 1832.01 C 256.41 1834.32 257.394 1836.61 258.43 1838.88 C 247.434 1856.65 255.381 1865.54 270.151 1876.67 C 265.322 1877.31 259.868 1878.5 255.262 1877.48 C 256.205 1876.99 255.672 1877.36 256.647 1876.11 L 254.168 1874.83 z"/>
<path transform="translate(0,0)" fill="rgb(201,168,103)" d="M 209.954 1720.16 C 221.924 1715.73 233.49 1708.37 243.065 1699.88 C 247.409 1696.03 255.944 1683.9 258.078 1683.57 L 261.406 1686.99 C 251.756 1710.03 234.468 1713.25 218.448 1726.33 C 216.9 1740.62 214.859 1755.83 214.598 1770.22 C 214.487 1776.39 219.92 1777.91 224.879 1779.34 C 215.635 1789.82 210.755 1781.95 204.166 1774.06 C 210.264 1750.44 210.356 1744.04 209.954 1720.16 z"/>
<path transform="translate(0,0)" fill="rgb(201,168,103)" d="M 224.817 1789.85 C 233.951 1797.65 225.796 1828.14 223.216 1838.27 C 222.536 1845.3 224.612 1850 229.224 1855.45 C 230.297 1856.69 231.4 1857.92 232.534 1859.11 C 233.998 1864.18 249.243 1872.48 254.168 1874.83 L 256.647 1876.11 C 255.672 1877.36 256.205 1876.99 255.262 1877.48 C 233.772 1875.31 217.605 1864.11 210.563 1843.33 C 219.583 1829.73 223.481 1819.6 222.034 1802.93 C 221.284 1794.29 217.06 1794.63 224.817 1789.85 z"/>
<path transform="translate(0,0)" fill="rgb(104,74,32)" d="M 302.919 1758.56 C 308.791 1767.85 311.402 1772.64 315.812 1782.57 C 319.147 1790.09 323.828 1803.03 328.271 1809.35 C 324.904 1813.29 324.021 1815.57 319.542 1816.28 C 315.826 1814.55 316.828 1815.86 315.216 1812.98 C 320.266 1778.87 286.314 1771.49 284.196 1766.63 L 285.422 1764.23 C 291.09 1759.91 296.039 1759.2 302.919 1758.56 z"/>
<path transform="translate(0,0)" fill="rgb(0,0,0)" d="M 223.216 1838.27 C 228.54 1834.12 232.753 1832.91 238.301 1837.9 C 239.834 1841.17 239.939 1840.93 239.675 1844.48 C 237.681 1843.36 236.311 1842.44 234.416 1841.14 L 232.983 1841.6 C 230.547 1847.39 233.258 1853.26 232.534 1859.11 C 231.4 1857.92 230.297 1856.69 229.224 1855.45 C 224.612 1850 222.536 1845.3 223.216 1838.27 z"/>
<path transform="translate(0,0)" fill="rgb(172,33,5)" d="M 1423.54 661.155 C 1423.2 655.361 1427.67 650.134 1431.65 645.755 C 1458.27 616.479 1495.66 596.6 1532.39 583.232 C 1530.56 608.874 1523.4 646.365 1511.6 669.51 C 1507.18 681.544 1502.43 691.217 1496.4 702.56 C 1493.58 709.263 1488.84 715.335 1484.9 721.314 C 1470.5 743.174 1459.94 751.43 1435.99 761.723 C 1436.4 735.658 1435.04 683.313 1423.54 661.155 z"/>
<path transform="translate(0,0)" fill="rgb(230,100,22)" d="M 1423.54 661.155 C 1423.2 655.361 1427.67 650.134 1431.65 645.755 C 1458.27 616.479 1495.66 596.6 1532.39 583.232 C 1530.56 608.874 1523.4 646.365 1511.6 669.51 C 1510.3 670.328 1509.45 670.368 1507.87 670.794 C 1515.62 644.689 1520.42 629.375 1521.25 601.89 C 1493.37 610.778 1467.36 624.699 1444.5 642.963 C 1437.79 648.274 1430.48 657.446 1423.54 661.155 z"/>
<path transform="translate(0,0)" fill="rgb(230,100,22)" d="M 1507.87 670.794 C 1509.45 670.368 1510.3 670.328 1511.6 669.51 C 1507.18 681.544 1502.43 691.217 1496.4 702.56 L 1495.78 701.459 C 1496.51 697.763 1505.95 675.797 1507.87 670.794 z"/>
<path transform="translate(0,0)" fill="rgb(172,33,5)" d="M 1018.63 988.251 C 1024.03 1039.62 1019.41 1071.86 998.286 1118.65 C 986.197 1148.8 972.351 1155.44 946.743 1171.1 L 907.102 1195.21 C 925.291 1156.32 929.066 1137.33 929.177 1094.45 L 927.897 1080.73 C 953.705 1060.36 979.252 1039.25 999.591 1013.07 C 1005.98 1004.84 1012.27 996.509 1018.63 988.251 z"/>
<path transform="translate(0,0)" fill="rgb(230,100,22)" d="M 1018.63 988.251 C 1024.03 1039.62 1019.41 1071.86 998.286 1118.65 C 997.265 1115.61 1000.03 1108.37 1001.04 1104.95 C 1009.12 1077.46 1010.88 1049.71 1009.79 1021.04 C 991.328 1043.92 952.674 1075.67 929.177 1094.45 L 927.897 1080.73 C 953.705 1060.36 979.252 1039.25 999.591 1013.07 C 1005.98 1004.84 1012.27 996.509 1018.63 988.251 z"/>
<path transform="translate(0,0)" fill="rgb(172,33,5)" d="M 1264.02 720.933 C 1265.81 716.144 1268.96 709.718 1271.28 705.136 C 1290.09 668.095 1300.58 631.381 1310.38 591.29 C 1330.09 618.125 1347.49 666.223 1349.18 699.157 C 1350.99 704.663 1351.11 713.466 1348.11 718.646 C 1333.61 743.69 1324.46 755.213 1316.76 783.729 C 1305.76 792.254 1296.67 800.15 1286.22 809.378 C 1284.9 779.915 1282.19 759.487 1269.73 732.018 L 1264.02 720.933 z"/>
<path transform="translate(0,0)" fill="rgb(230,100,22)" d="M 1264.02 720.933 C 1265.81 716.144 1268.96 709.718 1271.28 705.136 C 1290.09 668.095 1300.58 631.381 1310.38 591.29 C 1330.09 618.125 1347.49 666.223 1349.18 699.157 C 1345.86 693.464 1344.11 681.678 1341.39 674.734 C 1335.1 658.739 1326.45 639.922 1316.98 625.557 C 1307.14 657.351 1296.61 683.729 1280.29 712.947 C 1277.84 717.335 1272.37 728.77 1269.73 732.018 L 1264.02 720.933 z"/>
<path transform="translate(0,0)" fill="rgb(172,33,5)" d="M 1436.83 513.413 C 1469.07 490.018 1481.43 475.348 1499.91 438.645 C 1512 483.082 1511.66 526.703 1496.54 570.56 C 1494.78 577.178 1491.24 585.81 1488.36 592.032 C 1482.48 595.743 1475.31 599.044 1469.13 603.059 C 1446.87 617.507 1433.53 628.596 1418.46 649.887 C 1421.62 637.111 1426.76 623.305 1430.15 610.037 C 1437.49 581.244 1437.96 559.937 1437.87 531.004 C 1437.39 525.05 1436.87 519.393 1436.83 513.413 z"/>
<path transform="translate(0,0)" fill="rgb(230,100,22)" d="M 1436.83 513.413 C 1469.07 490.018 1481.43 475.348 1499.91 438.645 C 1512 483.082 1511.66 526.703 1496.54 570.56 C 1495.51 568.504 1497.92 549.757 1498.25 545.07 C 1499.88 521.3 1498.77 500.382 1496.1 476.76 C 1484.63 492.959 1455.73 522.753 1437.87 531.004 C 1437.39 525.05 1436.87 519.393 1436.83 513.413 z"/>
<path transform="translate(0,0)" fill="rgb(139,23,11)" d="M 976.128 1162.92 C 1014.41 1139.19 1025.62 1148.58 1066.56 1159.52 C 1079.79 1163.06 1117.41 1163.6 1132 1161.2 C 1116.98 1170.05 1101.09 1178.15 1085.79 1186.61 C 1066.88 1197.05 1047.53 1207.7 1027.8 1216.44 C 1022.92 1218.55 1017.53 1218.73 1012.23 1219.1 C 997.396 1221.88 965.824 1218.76 951.177 1214.7 C 932.309 1209.47 928.432 1206.04 908.565 1205.44 C 929.302 1191.81 954.817 1175.79 976.128 1162.92 z"/>
<path transform="translate(0,0)" fill="rgb(230,100,22)" d="M 976.128 1162.92 C 1014.41 1139.19 1025.62 1148.58 1066.56 1159.52 C 1079.79 1163.06 1117.41 1163.6 1132 1161.2 C 1116.98 1170.05 1101.09 1178.15 1085.79 1186.61 C 1066.88 1197.05 1047.53 1207.7 1027.8 1216.44 C 1022.92 1218.55 1017.53 1218.73 1012.23 1219.1 C 1007.34 1218.77 1000.62 1219.35 995.59 1219.61 C 1017.6 1205.4 1059.11 1183.82 1083.12 1170.81 C 1070.18 1169.31 1059.56 1167.52 1047.18 1163.53 C 1032.76 1158.87 1017.63 1156.09 1002.49 1157.09 C 993.741 1157.66 985.039 1161.85 976.128 1162.92 z"/>
<path transform="translate(0,0)" fill="rgb(172,33,5)" d="M 752.79 1197.18 C 755.579 1228.97 750.571 1267.87 733.611 1295.36 C 729.854 1303.29 721.679 1315.48 715.255 1321.54 C 681.921 1322.97 645 1331.43 614.93 1311.79 C 610.265 1308.64 607.569 1305.78 603.595 1301.89 C 664.527 1273.48 706.092 1244.94 752.79 1197.18 z"/>
<path transform="translate(0,0)" fill="rgb(230,100,22)" d="M 752.79 1197.18 C 755.579 1228.97 750.571 1267.87 733.611 1295.36 C 733.54 1289.25 738.453 1279.95 739.529 1273.2 C 742.308 1255.75 742.202 1239.25 741.804 1221.76 C 712.349 1248.98 687.925 1269.28 653.503 1290.62 C 643.295 1296.95 622.753 1306.41 614.93 1311.79 C 610.265 1308.64 607.569 1305.78 603.595 1301.89 C 664.527 1273.48 706.092 1244.94 752.79 1197.18 z"/>
<path transform="translate(0,0)" fill="rgb(172,33,5)" d="M 1193.51 823.218 C 1217.93 788.11 1236.04 757.035 1250.59 716.616 C 1266.9 741.328 1277.5 775.614 1276.94 805.256 C 1277.06 807.841 1277.36 816.142 1276.18 818.014 C 1269.46 828.716 1256 855.592 1247.4 864.112 C 1233.42 877.984 1220.93 884.801 1207.24 902.408 C 1206.51 884.467 1203.86 855.406 1198.26 838.294 L 1193.51 823.218 z"/>
<path transform="translate(0,0)" fill="rgb(230,100,22)" d="M 1193.51 823.218 C 1217.93 788.11 1236.04 757.035 1250.59 716.616 C 1266.9 741.328 1277.5 775.614 1276.94 805.256 C 1274.62 800.599 1274.37 795.566 1272.98 790.321 C 1268.34 772.809 1265.2 761.694 1254.83 746.713 C 1239.33 775.326 1218.29 812.682 1198.26 838.294 L 1193.51 823.218 z"/>
<path transform="translate(0,0)" fill="rgb(172,33,5)" d="M 1191.55 976.228 C 1197.78 918.178 1222.13 882.828 1277.37 861.95 C 1286.77 887.365 1285.13 913.026 1276.37 938.224 C 1270.2 955.5 1256.91 963.942 1242.84 974.662 C 1227.63 986.253 1211.91 997.229 1196.58 1008.71 L 1182.94 1018.44 L 1185.62 1007.45 C 1188.36 997.224 1189.14 986.548 1191.55 976.228 z"/>
<path transform="translate(0,0)" fill="rgb(230,100,22)" d="M 1191.55 976.228 C 1197.78 918.178 1222.13 882.828 1277.37 861.95 C 1286.77 887.365 1285.13 913.026 1276.37 938.224 C 1275.42 930.95 1277.67 925.683 1277.75 918.219 C 1277.91 903.23 1274.77 889.691 1271.05 875.305 C 1230.55 899.53 1206.49 923.05 1194.38 971.201 L 1193 976.753 L 1192.12 977.279 L 1191.55 976.228 z"/>
<path transform="translate(0,0)" fill="rgb(139,23,11)" d="M 1185.62 1007.45 C 1189.19 1007.81 1193.07 1008.1 1196.58 1008.71 L 1182.94 1018.44 L 1185.62 1007.45 z"/>
<path transform="translate(0,0)" fill="rgb(172,33,5)" d="M 1261.91 858.405 C 1275.97 833.749 1299.76 805.302 1324.28 790.721 C 1331.85 786.226 1341.71 782.323 1350 779.056 C 1357.7 812.499 1357.13 831.943 1348.39 864.745 C 1342.94 892.345 1309.46 925.353 1285.75 939.287 C 1293.29 912.512 1296.75 880.051 1282.99 853.929 C 1281.84 851.742 1279.82 852.064 1277.57 851.738 L 1261.91 858.405 z"/>
<path transform="translate(0,0)" fill="rgb(230,100,22)" d="M 1261.91 858.405 C 1275.97 833.749 1299.76 805.302 1324.28 790.721 C 1331.85 786.226 1341.71 782.323 1350 779.056 C 1357.7 812.499 1357.13 831.943 1348.39 864.745 C 1346.83 861.353 1349.52 838.233 1349.08 831.352 C 1348.17 817.386 1346.33 808.36 1342.74 794.862 C 1326.92 800.72 1279.76 835.568 1277.57 851.738 L 1261.91 858.405 z"/>
<path transform="translate(0,0)" fill="rgb(172,33,5)" d="M 845.076 1156.37 C 844.949 1153.89 844.225 1147.48 845.729 1146.14 C 855.273 1137.61 865.733 1130.33 875.417 1121.89 C 892.715 1106.82 903.609 1090.62 917.843 1073.54 C 923.977 1112.81 917.86 1159.53 897.291 1194.01 C 890.042 1210.18 876.373 1215.44 862.305 1224.18 L 823.324 1248.91 C 840.976 1212.39 845.408 1196.78 845.076 1156.37 z"/>
<path transform="translate(0,0)" fill="rgb(230,100,22)" d="M 845.076 1156.37 C 844.949 1153.89 844.225 1147.48 845.729 1146.14 C 855.273 1137.61 865.733 1130.33 875.417 1121.89 C 892.715 1106.82 903.609 1090.62 917.843 1073.54 C 923.977 1112.81 917.86 1159.53 897.291 1194.01 C 897.227 1190 903.095 1175.88 904.586 1168.85 C 909.769 1144.45 910.495 1126.75 909.441 1102.03 C 900.323 1111.91 856.949 1156.63 846.572 1159.06 L 845.076 1156.37 z"/>
<path transform="translate(0,0)" fill="rgb(172,33,5)" d="M 762.838 1216.5 C 762.69 1212.22 762.073 1208.01 763.636 1204.17 C 767.855 1199.93 772.519 1196.59 777.391 1193.15 C 799.185 1177.79 817.15 1159.12 834.369 1138.9 C 838.867 1175.28 837.353 1197.79 821.445 1232.3 C 810.539 1259.92 793.903 1268.35 770.452 1283.57 C 760.059 1290.36 749.814 1297.37 739.723 1304.6 C 742.525 1296.74 748.006 1286.36 751.314 1278.12 C 759.433 1257.9 761.253 1238.05 762.838 1216.5 z"/>
<path transform="translate(0,0)" fill="rgb(230,100,22)" d="M 762.838 1216.5 C 762.69 1212.22 762.073 1208.01 763.636 1204.17 C 767.855 1199.93 772.519 1196.59 777.391 1193.15 C 799.185 1177.79 817.15 1159.12 834.369 1138.9 C 838.867 1175.28 837.353 1197.79 821.445 1232.3 C 820.913 1229.44 825.52 1205.98 826.012 1199.66 C 827.13 1185.28 827.306 1177.84 826.027 1163.34 C 800.889 1188.57 792.054 1196.21 762.838 1216.5 z"/>
<path transform="translate(0,0)" fill="rgb(139,23,11)" d="M 873.059 1227.88 C 904.232 1206.88 917.697 1214.52 950.578 1223.46 C 966.039 1227.67 991.779 1229.93 1007.89 1228.24 C 977.243 1245.58 948.518 1260.85 917.674 1279.13 C 908.891 1279.07 898.796 1278.94 890.164 1277.01 C 864.574 1274.6 854.632 1262.44 819.788 1261.85 C 837.517 1251.44 855.43 1238.8 873.059 1227.88 z"/>
<path transform="translate(0,0)" fill="rgb(230,100,22)" d="M 873.059 1227.88 C 904.232 1206.88 917.697 1214.52 950.578 1223.46 C 966.039 1227.67 991.779 1229.93 1007.89 1228.24 C 977.243 1245.58 948.518 1260.85 917.674 1279.13 C 908.891 1279.07 898.796 1278.94 890.164 1277.01 C 903.753 1267.71 948.735 1244.77 964.314 1237.14 C 941.951 1231.66 922.092 1219.98 898.371 1222.35 C 889.544 1223.23 881.344 1227.26 873.059 1227.88 z"/>
<path transform="translate(0,0)" fill="rgb(67,36,27)" d="M 471.101 1445.79 C 467.863 1472.18 465.124 1490.61 467.392 1517.33 C 468.428 1522 468.792 1526.36 469.312 1531.09 C 471.884 1540.07 473.317 1549.39 476.109 1558.41 C 465.202 1568.69 454.191 1578.86 443.078 1588.91 C 439.579 1578.89 433.736 1563.37 432.403 1553.22 C 429.218 1534.86 426.988 1502.63 429.925 1483.78 C 432.761 1477.83 464.376 1451.15 471.101 1445.79 z"/>
<path transform="translate(0,0)" fill="rgb(48,26,20)" d="M 432.403 1553.22 C 439.002 1553.41 458.931 1526.89 465.761 1525.73 L 467.422 1530.26 L 469.312 1531.09 C 471.884 1540.07 473.317 1549.39 476.109 1558.41 C 465.202 1568.69 454.191 1578.86 443.078 1588.91 C 439.579 1578.89 433.736 1563.37 432.403 1553.22 z"/>
<path transform="translate(0,0)" fill="rgb(102,63,49)" d="M 471.101 1445.79 C 467.863 1472.18 465.124 1490.61 467.392 1517.33 L 466.205 1519.84 C 461.901 1511.51 461.498 1477.53 461.616 1466.92 C 450.786 1475.07 441.307 1484.17 430.956 1492.92 C 430.113 1491.39 430.054 1485.91 429.925 1483.78 C 432.761 1477.83 464.376 1451.15 471.101 1445.79 z"/>
<path transform="translate(0,0)" fill="rgb(67,36,27)" d="M 379.161 1541.03 C 378.603 1532.28 379.592 1531.88 386.264 1524.48 C 397.001 1512.56 410.199 1501.75 421.161 1490.02 C 421.009 1516.37 421.03 1533.75 425.403 1559.94 C 426.572 1563.67 426.935 1565.17 427.584 1569.02 C 430.465 1577.85 433.118 1586.12 436.567 1594.78 C 428.351 1603.28 420.379 1612.02 412.66 1620.98 C 408.417 1614.31 398.765 1599.78 396.216 1593.04 C 387.453 1579.11 382.279 1557.06 379.161 1541.03 z"/>
<path transform="translate(0,0)" fill="rgb(48,26,20)" d="M 396.216 1593.04 C 403.622 1585.12 414.03 1572.33 422.378 1566.05 C 424.367 1567.61 425.182 1568.26 427.584 1569.02 C 430.465 1577.85 433.118 1586.12 436.567 1594.78 C 428.351 1603.28 420.379 1612.02 412.66 1620.98 C 408.417 1614.31 398.765 1599.78 396.216 1593.04 z"/>
<path transform="translate(0,0)" fill="rgb(102,63,49)" d="M 379.161 1541.03 C 378.603 1532.28 379.592 1531.88 386.264 1524.48 C 397.001 1512.56 410.199 1501.75 421.161 1490.02 C 421.009 1516.37 421.03 1533.75 425.403 1559.94 L 423.417 1560.32 C 416.579 1551.27 414.412 1521.22 413.902 1509.58 C 404.811 1518.38 390.364 1534.11 381.416 1541.29 L 379.161 1541.03 z"/>
<path transform="translate(0,0)" fill="url(#Gradient2)" d="M 335.06 1580.86 C 339.767 1572.7 362.394 1549.53 370.326 1541.1 C 373.248 1561.54 381.362 1580.6 390.263 1598.98 C 395.46 1608.57 401.202 1617.79 406.872 1627.11 C 394.296 1627.09 381.128 1625.87 369.071 1622.08 C 356.454 1617.71 346.478 1613.06 334.729 1606.79 L 335.06 1580.86 z"/>
<path transform="translate(0,0)" fill="rgb(48,26,20)" d="M 390.263 1598.98 C 395.46 1608.57 401.202 1617.79 406.872 1627.11 C 394.296 1627.09 381.128 1625.87 369.071 1622.08 C 373.87 1618.48 385.828 1604.09 390.263 1598.98 z"/>
<path transform="translate(0,0)" fill="url(#Gradient1)" d="M 545.13 1388.95 C 540.557 1412.85 540.764 1437.42 545.74 1461.25 L 552.092 1483.32 C 542.871 1479.55 538.092 1477.56 529.566 1472.87 C 511.912 1463.2 498.25 1449.52 484.704 1434.79 C 498.787 1421.67 529.038 1400.59 545.13 1388.95 z"/>
<path transform="translate(0,0)" fill="rgb(48,26,20)" d="M 545.74 1461.25 L 552.092 1483.32 C 542.871 1479.55 538.092 1477.56 529.566 1472.87 C 535.239 1468.74 539.451 1464.27 545.74 1461.25 z"/>
<path transform="translate(0,0)" fill="rgb(67,36,27)" d="M 479.758 1441.24 C 496.651 1458.58 502.726 1463.98 522.118 1477.71 C 534.483 1484.98 543.346 1488.55 556.625 1493.95 C 549.356 1500.43 538.325 1508.5 530.251 1514.37 C 522.313 1512.32 499.882 1506.23 493.208 1501.8 C 485.373 1498.11 480.704 1494.68 473.707 1489.61 C 475.318 1473.21 477.476 1457.57 479.758 1441.24 z"/>
<path transform="translate(0,0)" fill="rgb(48,26,20)" d="M 522.118 1477.71 C 534.483 1484.98 543.346 1488.55 556.625 1493.95 C 549.356 1500.43 538.325 1508.5 530.251 1514.37 C 522.313 1512.32 499.882 1506.23 493.208 1501.8 C 500.854 1494.46 517.78 1482.96 522.118 1477.71 z"/>
<path transform="translate(0,0)" fill="rgb(67,36,27)" d="M 326.608 1589.58 C 326.559 1618.71 326.113 1637.25 333.478 1666.11 C 337.262 1675.79 338.359 1683.39 343.035 1694.06 C 322.805 1680.47 305.23 1668.27 287.699 1651.01 C 284.378 1647.57 284.07 1648.38 283.482 1644.55 C 291.563 1630.07 315.821 1604.14 326.608 1589.58 z"/>
<path transform="translate(0,0)" fill="rgb(102,63,49)" d="M 326.608 1589.58 C 326.559 1618.71 326.113 1637.25 333.478 1666.11 L 331.122 1665.3 C 324.013 1653.13 320.123 1626.25 319.726 1611.97 C 315.581 1617.89 292.292 1647.48 287.699 1651.01 C 284.378 1647.57 284.07 1648.38 283.482 1644.55 C 291.563 1630.07 315.821 1604.14 326.608 1589.58 z"/>
<path transform="translate(0,0)" fill="rgb(48,26,20)" d="M 334.83 1616.18 C 344.337 1620.87 354.08 1625.07 364.021 1628.76 C 378.341 1633.35 384.135 1634.11 399.227 1635.15 C 387.299 1648.85 361.619 1679.85 352.046 1695.03 C 346.91 1683.35 343.28 1672.31 339.768 1660.03 C 336.622 1645.62 334.967 1630.93 334.83 1616.18 z"/>
<path transform="translate(0,0)" fill="rgb(67,36,27)" d="M 334.83 1616.18 C 344.337 1620.87 354.08 1625.07 364.021 1628.76 C 356.093 1638.71 346.942 1649.72 339.768 1660.03 C 336.622 1645.62 334.967 1630.93 334.83 1616.18 z"/>
<path transform="translate(0,0)" fill="rgb(48,26,20)" d="M 580.784 1434.02 C 588.382 1444.13 596.537 1453.82 605.21 1463.02 C 594.213 1469.75 575.044 1482.76 564.619 1488.3 C 557.6 1476.06 555.171 1467.16 552.184 1453.25 C 555.005 1452.23 576.637 1436.87 580.784 1434.02 z"/>
<path transform="translate(0,0)" fill="rgb(149,112,46)" d="M 263.506 1674.02 C 255.408 1663.16 256.46 1651.5 271.302 1650.9 C 271.832 1651.11 310.118 1684.48 316.269 1689.08 L 316.938 1689.23 C 314.911 1698.53 313.434 1702.89 305.97 1709.44 C 289.781 1699.13 277.016 1687.33 263.506 1674.02 z"/>
<path transform="translate(0,0)" fill="rgb(201,168,103)" d="M 263.506 1674.02 C 255.408 1663.16 256.46 1651.5 271.302 1650.9 C 271.832 1651.11 310.118 1684.48 316.269 1689.08 C 304.738 1692.06 283.956 1664.88 272.365 1665.45 C 268.457 1667.3 266.339 1670.61 263.506 1674.02 z"/>
<path transform="translate(0,0)" fill="rgb(149,112,46)" d="M 586.671 1423 C 579.079 1413.49 555.678 1378.32 556.809 1367.14 C 559.739 1361.53 563.556 1360.11 569.232 1357.11 C 571.575 1361.35 574.928 1366.53 577.506 1370.75 C 587.296 1387.66 596.294 1400.95 607.748 1416.81 C 602.502 1423.31 597.126 1425.33 588.919 1426.46 L 586.671 1423 z"/>
<path transform="translate(0,0)" fill="rgb(201,168,103)" d="M 586.671 1423 C 579.079 1413.49 555.678 1378.32 556.809 1367.14 C 559.739 1361.53 563.556 1360.11 569.232 1357.11 C 571.575 1361.35 574.928 1366.53 577.506 1370.75 C 573.091 1373.25 570.193 1374.17 568.68 1379.15 C 564.949 1391.41 587 1413.7 586.671 1423 z"/>
<path transform="translate(0,0)" fill="rgb(48,26,20)" d="M 473.891 1499.12 L 485.233 1506.53 C 498.972 1512.7 507.252 1516.68 521.623 1521.12 C 510.215 1528.98 494.139 1543.23 483 1552.45 C 479.941 1540.25 476.623 1526.29 475.094 1513.81 L 473.891 1499.12 z"/>
<path transform="translate(0,0)" fill="rgb(67,36,27)" d="M 473.891 1499.12 L 485.233 1506.53 C 482.369 1509.31 479.06 1513.02 475.094 1513.81 L 473.891 1499.12 z"/>
<path transform="translate(0,0)" fill="rgb(104,74,32)" d="M 607.748 1416.81 C 618.223 1428.61 627.13 1440.69 638.153 1452.05 C 629.259 1461.77 622.44 1465.56 611.137 1454.21 C 603.38 1446.42 595.257 1435.58 588.919 1426.46 C 597.126 1425.33 602.502 1423.31 607.748 1416.81 z"/>
<path transform="translate(0,0)" fill="rgb(67,36,27)" d="M 552.48 1390.82 C 562.379 1404.5 568.652 1418.05 580.784 1434.02 C 576.637 1436.87 555.005 1452.23 552.184 1453.25 C 548.067 1432.23 549.518 1411.8 552.48 1390.82 z"/>
<path transform="translate(0,0)" fill="rgb(104,74,32)" d="M 316.938 1689.23 C 323.258 1693.6 347.491 1708.09 348.906 1711.95 C 348.764 1741.61 317.127 1718.59 305.97 1709.44 C 313.434 1702.89 314.911 1698.53 316.938 1689.23 z"/>
<path transform="translate(0,0)" fill="rgb(149,112,46)" d="M 224.756 1675.81 C 223.045 1667.81 223.287 1657.5 221.622 1648.5 C 234.758 1664.29 234.032 1668.33 242.175 1686.23 C 237.54 1690.09 236.608 1691.25 232.921 1696.08 C 230.228 1700.59 228.521 1701.41 224.174 1704.53 C 224.965 1695.63 224.726 1684.87 224.756 1675.81 z"/>
<path transform="translate(0,0)" fill="rgb(201,168,103)" d="M 224.756 1675.81 C 224.974 1673.51 225.233 1671.22 225.533 1668.94 L 227.06 1667.84 C 231.568 1672.83 230.626 1692.48 232.921 1696.08 C 230.228 1700.59 228.521 1701.41 224.174 1704.53 C 224.965 1695.63 224.726 1684.87 224.756 1675.81 z"/>
<path transform="translate(0,0)" fill="rgb(104,74,32)" d="M 281.538 1705.29 C 291.09 1711.72 309.188 1723.19 317.43 1730.12 C 316.217 1731.94 316.752 1731.47 314.436 1731.86 C 295.269 1735.02 286.345 1728.45 280.957 1710.85 C 280.942 1709.77 281.396 1706.54 281.538 1705.29 z"/>
<path transform="translate(0,0)" fill="rgb(139,23,11)" d="M 1458.97 760.018 C 1458.92 765.141 1434.16 793.872 1429.36 799.208 C 1428.84 795.773 1433.52 776.461 1434.52 771.032 C 1443.65 768.326 1450.7 764.585 1458.97 760.018 z"/>
<path transform="translate(0,0)" fill="rgb(104,74,32)" d="M 328.352 1846.59 C 330.056 1832.34 322.904 1815.17 342.426 1816.77 C 344.826 1819.5 345.901 1819.68 345.686 1823.43 C 345.325 1829.76 339.302 1837.98 334.597 1841.64 C 333.393 1843.16 330.078 1845.33 328.352 1846.59 z"/>
<path transform="translate(0,0)" fill="rgb(149,112,46)" d="M 342.426 1816.77 C 344.826 1819.5 345.901 1819.68 345.686 1823.43 C 345.325 1829.76 339.302 1837.98 334.597 1841.64 C 334.589 1839.96 340.999 1819.23 342.426 1816.77 z"/>
<path transform="translate(0,0)" fill="rgb(104,74,32)" d="M 234.815 1746.71 C 243.746 1752.99 242.629 1761.82 236.514 1769.57 L 233.775 1769.58 C 230.517 1764.91 233.378 1751.98 234.815 1746.71 z"/>
<path transform="translate(0,0)" fill="rgb(201,168,103)" d="M 202.922 1693.77 C 211.215 1697.57 214.306 1700.53 212.824 1709.38 L 209.804 1710.61 L 208.063 1709.86 C 204.937 1705.1 204.201 1699.44 202.922 1693.77 z"/>
</svg>