<svg version="1.1" xmlns="http://www.w3.org/2000/svg" style="display: block;" viewBox="0 0 2048 2048" width="1024" height="1024" preserveAspectRatio="none">
<path transform="translate(0,0)" fill="rgb(5,46,85)" d="M 399.549 612.376 C 415.638 610.168 471.917 622.339 490.155 626.462 C 498.998 638.204 520.922 668.533 522.158 681.786 C 540.618 690.809 566.686 698.918 581.811 712.41 C 611.414 738.815 625.647 897.287 627.188 938.045 C 644.381 960.85 650.292 988.824 625.654 1009.81 C 620.212 1014.45 618.437 1008.6 619.867 1020.59 C 620.522 1026.08 621.199 1031.86 621.8 1037.32 C 631.072 1121.05 645.537 1204.13 665.113 1286.07 C 667.455 1295.45 679.539 1336.75 676.399 1341.99 C 669.441 1353.6 639.592 1367.15 626.974 1371.83 C 628.489 1380.22 629.271 1384.86 629.652 1393.3 C 591.274 1412.63 523.734 1425.51 480.934 1424.96 C 480.211 1420.33 479.89 1413.99 479.504 1409.19 C 455.636 1413.6 438.168 1410.66 415.336 1404.56 C 410.378 1404.04 384.717 1409.91 376.747 1410.69 C 353.674 1412.94 314.122 1417.46 291.62 1415.39 C 277.008 1414.05 230.122 1397.58 216.721 1391.62 C 217.033 1386.03 218.268 1378.01 218.99 1372.26 C 199.853 1367.03 177.897 1357.79 163.367 1343.97 C 165.398 1334.86 166.995 1325.39 168.668 1316.18 C 151.8 1301.55 136.614 1286.28 125.298 1266.94 C 133.781 1233.76 145.552 1198.11 154.498 1163.65 C 170.017 1103.59 183.077 1042.91 193.644 981.776 C 168.243 960.585 166.954 924.947 190.764 902.854 C 195.049 847.815 208.834 788.837 222.965 735.635 C 226.028 724.106 232.283 713.122 242.72 707.399 C 259.751 698.061 277.999 689.731 295.329 680.972 C 299.937 668.388 319.107 639.661 326.867 627.232 C 340.514 622.477 384.712 614.437 399.549 612.376 z"/>
<path transform="translate(0,0)" fill="rgb(58,94,131)" d="M 402.343 771.651 C 408.6 777.538 406.968 810.134 407.239 819.529 L 411.244 968.943 C 411.822 989.862 412.254 1011.07 412.649 1032.01 C 412.685 1033.89 413.286 1036.4 414.592 1037.74 C 415.776 1038.96 415.839 1038.53 417.916 1038.78 C 424.54 1033.37 421.048 1007.18 421.064 998.527 C 421.191 931.178 416.096 862.776 417.014 795.518 C 424.008 808.395 438.808 827.54 442.839 839.001 C 444.518 843.774 445.87 873.725 446.356 880.953 L 452.617 978.401 L 470.139 1256.02 L 475.648 1345.29 C 476.672 1362.75 477.256 1382.44 479.138 1399.64 C 452.985 1402.59 445.282 1403.34 420.259 1396.33 C 419.64 1363.63 421.068 1327.29 421.6 1294.19 L 423.609 1127.52 C 423.81 1107.65 424.068 1087.67 424.012 1067.8 C 423.997 1062.61 425.044 1050.76 420.194 1048.24 C 413.309 1051.17 414.261 1060.62 414.297 1066.75 L 410.624 1395.53 C 372.966 1402.12 334.885 1406 296.672 1407.14 C 297.289 1378.71 302.773 1335.9 305.239 1306.17 L 327.661 1054.04 L 338.691 925.662 C 339.994 910.583 340.38 884.102 344.246 870.461 C 345.266 866.862 373.856 823.312 378.413 815.514 C 375.483 835.219 362.677 1019.55 363.503 1022.35 C 364.253 1024.89 365.387 1026.87 367.813 1028.07 C 369.335 1028.83 369.666 1028.37 371.163 1027.92 C 376.011 1021.87 385.873 833.521 388.538 808.948 C 390.833 787.79 392.228 791.24 402.343 771.651 z"/>
<path transform="translate(0,0)" fill="rgb(58,94,131)" d="M 454.831 856.475 C 457.738 859.142 472.62 881.482 476.155 886.379 C 483.938 897.163 490.748 905.34 499.477 915.539 C 501.623 948.681 505.408 970.956 509.832 1003.68 C 513.496 1031.61 517.018 1059.56 520.4 1087.52 C 525.241 1127.56 530.375 1167.56 535.802 1207.52 C 537.265 1218.52 540.951 1263.12 546.878 1269.43 C 550.09 1270.44 548.556 1270.55 551.624 1268.99 C 553.431 1266.34 553.513 1264.41 553.126 1261.23 C 549.985 1235.45 545.976 1209.68 542.614 1183.96 L 522.587 1025.37 C 518.742 993.767 514.218 960.554 511.685 929 C 543.19 961.318 575.615 979.485 609.294 1005.66 C 616.89 1105.95 641.29 1240.68 668.394 1337.24 C 662.045 1342.81 634.116 1362.86 626.382 1359.86 L 625.427 1356.75 C 616.706 1293.47 608.318 1230.14 600.266 1166.77 C 597.328 1144.06 586.479 1042.44 580.492 1030.8 L 577.603 1030.15 C 571.162 1039.81 578.051 1069.76 579.644 1082.16 L 591.646 1175.52 L 610.153 1318.49 C 613.149 1341.05 615.78 1365.11 619.575 1387.44 C 593.164 1397.86 560.809 1406.93 532.766 1411.21 C 518.709 1413.36 504.322 1414.3 490.162 1416.06 C 487.567 1392.96 486.523 1360.94 485.053 1337.25 L 475.272 1182.84 L 462.387 978.355 C 459.855 939.002 456.005 895.618 454.831 856.475 z"/>
<path transform="translate(0,0)" fill="rgb(58,94,131)" d="M 331.72 884.788 C 332.571 890.88 329.463 921.083 328.744 928.975 L 320.924 1015.95 L 286.85 1405.91 C 266.908 1399.71 247.103 1393.09 227.446 1386.04 C 228.109 1368.26 233.165 1334.71 235.432 1316.4 L 252.536 1171.8 C 255.186 1149.09 258.027 1126.39 260.577 1103.68 C 261.039 1099.56 260.844 1091.94 256.429 1090.21 C 249.62 1094.2 249.51 1114.93 248.541 1122.89 L 241.487 1183.08 L 219.778 1362.97 C 203.048 1357.8 188.215 1350.98 174.142 1340.44 L 183.21 1289.13 C 193.865 1218.73 210.976 1147.56 222.877 1077.19 C 224.349 1068.48 229.624 1049.83 224.826 1042.44 C 221.455 1041.82 218.926 1044.15 218.235 1047.38 C 216.185 1056.96 214.472 1066.64 212.665 1076.27 L 202 1133.2 C 191.188 1190.95 180.384 1246.73 170.501 1304.81 C 154.568 1291.45 147.835 1282.55 135.803 1265.82 C 164.885 1166.49 189.223 1071.88 205.511 969.341 C 221.44 962.449 235.603 955.933 250.833 947.713 C 248.635 968.305 245.16 988.764 243.224 1009.38 C 242.974 1012.05 245.091 1015.69 247.947 1016.15 C 255.947 1010.17 259.976 955.714 261.506 942.806 C 291.678 924.275 307.965 911.221 331.72 884.788 z"/>
<path transform="translate(0,0)" fill="rgb(58,94,131)" d="M 408.968 621.42 C 428.37 622.308 462.674 630.795 483.493 634.505 C 489.477 641.383 509.125 671.01 512.468 679.408 C 499.581 687.144 430.321 719.665 427.284 724.247 C 428.632 725.135 429.253 725.778 430.25 727.114 C 431.241 728.441 430.8 728.491 432.264 728.803 C 438.434 730.117 505.047 694.795 514.953 689.784 L 517.797 691.036 C 531.626 697.123 545.472 703.072 559.094 709.634 C 577.454 718.48 581.121 725.962 588.082 743.87 C 558.778 735.284 523.986 732.529 493.978 725.245 C 489.335 724.117 479.854 724.715 479.337 731.164 C 480.722 733.05 482.78 734.228 485.099 734.548 C 520.505 739.436 555.44 746.882 590.564 753.521 C 604.405 805.315 615.752 876.022 616.368 929.615 C 609.317 923.437 597.189 915.434 589.278 909.637 C 572.112 896.998 555.07 883.966 539.692 869.141 C 507.66 838.262 480.13 802.482 452.297 767.845 C 449.522 764.392 448.967 764.272 445.001 764.165 C 443.77 764.989 443.027 764.958 442.891 766.599 C 442.073 776.472 508.01 850.262 517.876 860.702 C 542.127 888.076 576.269 912.986 606.242 933.911 C 619.883 943.433 625.906 948.889 630.989 965.486 C 635.765 981.085 629.568 989.074 622.307 1002.28 C 581.865 975.251 540.153 945.992 507.579 909.551 C 497.353 898.109 487.767 886.11 478.867 873.609 C 458.701 845.236 440.432 813.868 421.95 783.872 C 414.225 767.938 391.718 743.788 396.288 725.99 C 398.605 716.968 424.059 702.605 431.76 697.377 C 447.099 686.963 463.031 676.556 476.851 664.482 L 478.183 663.308 C 476.127 654.734 474.504 649.793 471.02 641.773 C 434.979 632.709 410.91 625.643 373.98 634.687 C 363.817 637.176 354.793 638.539 344.748 642.839 C 342.896 650.148 341.093 656.243 338.787 663.431 C 350.935 675.727 386.032 695.897 401.688 704.805 C 395.787 710.479 393.487 712.448 388.764 719.141 C 363.143 705.378 332.624 694.851 306.806 679.513 C 310.427 671.274 328.053 644.062 333.777 634.456 C 354.418 630.048 389.016 622.874 408.968 621.42 z"/>
<path transform="translate(0,0)" fill="rgb(5,46,85)" d="M 426.391 729.529 C 428.011 730.97 427.038 730.287 428.717 731.17 C 469.506 752.625 509.852 774.95 550.468 796.728 C 552.615 797.88 554.457 799.163 555.36 801.457 C 554.889 804.378 553.598 805.42 551.682 807.692 C 536.964 800.663 429.631 745.231 422.502 736.999 C 422.448 733.803 424.34 732.173 426.391 729.529 z"/>
<path transform="translate(0,0)" fill="rgb(58,94,131)" d="M 302.303 689.816 C 305.068 690.5 322.472 699.338 326.059 701.067 C 340.393 707.964 354.824 714.66 369.346 721.152 C 347.861 747.449 307.58 773.85 281.92 797.085 C 274.422 803.875 251.246 814.35 252.032 824.99 C 260.366 830.045 281.495 810.416 288.141 805.172 C 313.92 785.229 338.789 764.134 362.67 741.952 C 368.21 736.863 374.507 726.618 381.773 726.015 C 385.286 731.515 386.873 741.408 389.417 747.758 C 391.48 752.908 393.932 756.487 396.956 761.051 C 386.882 783.785 378.331 796.746 365.748 817.521 C 336.714 865.455 310.726 901.335 261.375 930.399 C 249.676 937.2 237.671 943.461 225.398 949.162 C 215.064 953.979 201.224 959.735 192.107 965.899 L 190.831 966.771 C 182.929 952.408 180.729 940.767 186.79 925.087 C 193.112 908.733 211.411 903.725 226.254 897.516 C 269.882 877.879 299.144 856.692 328.689 818.919 C 335.464 810.257 372.438 765.25 372.877 757.518 C 371.484 753.554 372.691 754.983 369.456 752.828 C 366.368 753.346 365.528 753.821 363.506 756.537 C 340.28 787.725 318.777 817.963 290.782 845.169 C 263.748 871.44 234.686 882.95 200.542 897.527 C 207.176 844.917 216.112 803.282 227.969 752.261 C 242.657 750.416 311.248 735.963 321.074 727.512 C 321.975 724.056 320.795 721.067 318.182 718.88 C 315.01 719.025 307.952 721.663 304.471 722.806 C 280.552 730.663 256.551 738.054 231.572 741.844 C 232.304 738.964 233.192 736.126 234.233 733.343 C 239.534 718.899 252.372 713.457 265.23 707.223 C 277.518 701.266 289.908 695.544 302.303 689.816 z"/>
<path transform="translate(0,0)" fill="rgb(28,28,28)" d="M 1683.52 608.356 C 1703.09 606.387 1750.93 618.002 1772.7 622.413 C 1784.74 641.286 1797.6 664.493 1808.47 683.982 C 1831.12 691.067 1854.66 697.353 1877.08 704.867 C 1879.52 717.732 1881.64 744.648 1883.19 758.453 L 1895.58 864.563 C 1897.77 882.731 1899.98 906.235 1903.23 923.942 C 1898.44 936.571 1880.61 963.921 1878.83 974.063 C 1876.92 984.935 1879.59 1018.73 1880.29 1031 C 1883.52 1089.95 1889.32 1148.72 1897.66 1207.16 C 1905.25 1259.09 1915.47 1310.65 1923.49 1361.95 C 1899.39 1384.81 1883.6 1384.5 1854.71 1389.07 L 1857.08 1417.55 C 1846.43 1422.48 1791.74 1440.81 1783.4 1436.52 C 1780.29 1430.19 1782.69 1389.13 1783.08 1379.51 C 1753.4 1384.3 1707.52 1385.81 1677.42 1382.71 C 1674.76 1382.74 1674.75 1382.61 1672.3 1383.53 C 1672.26 1398.48 1676.64 1420.95 1677.07 1437.73 L 1677.1 1439.24 C 1654.26 1442.3 1553.93 1427.46 1532.17 1420.15 C 1532.14 1409.08 1533.27 1400.21 1534.55 1389.3 C 1506.32 1388.58 1466.07 1381.31 1444.67 1360.83 C 1441.29 1357.59 1438.14 1353.96 1438.86 1349.32 C 1440.36 1339.66 1442.71 1329.78 1444.69 1320.21 C 1448.6 1301.44 1452.29 1282.62 1455.76 1263.76 C 1469.49 1188.89 1482.91 1112.68 1490.39 1036.93 C 1492.4 1016.66 1496.49 982.103 1496.49 962.206 L 1496.48 961.109 C 1488.75 949.213 1481.23 937.175 1473.94 925 L 1500.89 705.347 C 1506.83 702.736 1519.9 699.23 1526.67 697.223 L 1572.65 683.61 C 1581.22 665.212 1596.65 640.203 1606.89 621.675 C 1632.26 616.315 1657.82 611.872 1683.52 608.356 z"/>
<path transform="translate(0,0)" fill="rgb(60,59,59)" d="M 1694.63 759.635 C 1697.3 761.986 1701.82 772.061 1703.77 775.684 C 1728.67 822.033 1751.81 869.727 1773.2 917.797 C 1777.27 929.741 1794.24 956.344 1795.24 967.674 C 1797.7 995.529 1794.48 1035.48 1793.62 1063.35 L 1786.76 1276.95 C 1785.87 1307.22 1784.02 1338.57 1784.01 1368.74 C 1770.44 1370.86 1754.99 1372.61 1741.27 1373.96 C 1717.94 1375.08 1694.56 1374.74 1671.26 1372.96 C 1667.29 1323.35 1662.76 1273.78 1657.68 1224.27 C 1654.91 1195.55 1652.83 1167.16 1649.9 1138.28 L 1643.22 1071 C 1640.65 1045.76 1637.02 1018.47 1639.31 993.034 C 1643.75 943.81 1657.77 893.666 1669.65 845.739 C 1673.81 828.96 1687.52 771.329 1694.63 759.635 z"/>
<path transform="translate(0,0)" fill="rgb(60,59,59)" d="M 1711.35 726.197 C 1729.8 720.046 1747.96 713.062 1765.78 705.268 C 1771.27 707.949 1780.91 713.019 1786.8 713.236 C 1783.64 715.041 1783.79 715.362 1782.14 718.526 C 1782.18 720.452 1781.76 721.212 1783.06 722.036 C 1797.72 731.348 1827.69 739.713 1841.92 747.478 C 1849.51 739.726 1860.95 727.288 1868.64 720.761 C 1873.89 763.467 1878.91 806.2 1883.7 848.959 C 1886.47 873.235 1890.19 900.43 1892.06 924.45 C 1871.4 965.609 1851.61 1007.2 1832.7 1049.19 C 1830.87 1056.88 1825.56 1064.92 1822.88 1072.49 C 1818.49 1084.88 1823.01 1098.64 1822.96 1111.02 C 1823.11 1115.4 1823.37 1119.77 1823.73 1124.13 C 1829.96 1189.97 1834.12 1256.68 1839.85 1322.58 C 1842.26 1350.32 1843.46 1383.51 1846.76 1410.64 L 1825.29 1417.63 C 1814.29 1420.62 1803.08 1423.95 1792.09 1427.1 C 1794.21 1391.16 1794.86 1352.14 1796.11 1316.05 L 1803.11 1097.42 L 1805.71 1017.11 C 1806.18 1004.9 1808.93 971.683 1805.09 961.594 C 1798.11 943.236 1787.31 922.536 1778.93 904.273 C 1783.65 880.711 1788.55 857.187 1793.64 833.701 L 1735.67 759.42 C 1729.54 751.418 1715.73 734.245 1711.35 726.197 z"/>
<path transform="translate(0,0)" fill="rgb(139,139,139)" d="M 1868.64 720.761 C 1873.89 763.467 1878.91 806.2 1883.7 848.959 C 1886.47 873.235 1890.19 900.43 1892.06 924.45 C 1871.4 965.609 1851.61 1007.2 1832.7 1049.19 C 1832.21 1045.58 1843.89 991.373 1845.85 986.3 C 1852.49 973.477 1863.79 929.793 1867.5 913.74 C 1868.14 910.959 1866.3 892.08 1865.45 888.68 C 1862.75 877.797 1865.13 863.426 1856.37 856.728 C 1854.2 847.758 1852.05 828.025 1850.72 817.705 C 1847.78 794.901 1843.93 770.28 1841.92 747.478 C 1849.51 739.726 1860.95 727.288 1868.64 720.761 z"/>
<path transform="translate(0,0)" fill="rgb(139,139,139)" d="M 1823.73 1124.13 C 1829.96 1189.97 1834.12 1256.68 1839.85 1322.58 C 1842.26 1350.32 1843.46 1383.51 1846.76 1410.64 L 1825.29 1417.63 C 1824.01 1386.99 1824.44 1355.07 1823.92 1324.31 C 1822.78 1263.38 1822.08 1202.43 1821.83 1141.49 C 1822.33 1135.91 1821.6 1128.39 1823.73 1124.13 z"/>
<path transform="translate(0,0)" fill="rgb(28,28,28)" d="M 1856.37 856.728 C 1865.13 863.426 1862.75 877.797 1865.45 888.68 C 1866.3 892.08 1868.14 910.959 1867.5 913.74 C 1863.79 929.793 1852.49 973.477 1845.85 986.3 C 1843.36 984.942 1838.55 983.826 1835.61 983.022 C 1840.44 961.106 1854.76 930.428 1856.75 907.456 C 1857.82 895.123 1852.03 877.276 1852.21 864.544 C 1852.27 859.888 1853.37 859.573 1856.37 856.728 z"/>
<path transform="translate(0,0)" fill="rgb(118,118,121)" d="M 1822.96 1111.02 C 1823.11 1115.4 1823.37 1119.77 1823.73 1124.13 C 1821.6 1128.39 1822.33 1135.91 1821.83 1141.49 C 1821.1 1134.78 1819.67 1116.12 1822.96 1111.02 z"/>
<path transform="translate(0,0)" fill="rgb(60,59,59)" d="M 1610.35 703.067 C 1631.59 711.608 1654.04 718.08 1674 726.177 C 1653.67 765.826 1632.3 803.911 1611.83 843.261 C 1622.01 867.401 1631.77 891.711 1641.13 916.18 C 1634.17 947.113 1628.05 991.034 1628.22 1022.79 C 1615.18 1031.77 1604.5 1041.05 1592.05 1050.02 C 1586.26 1054.9 1580.03 1059.76 1574.1 1064.52 C 1562.91 1049.3 1549.57 1026.84 1539.28 1010.51 L 1484.29 923.601 C 1490.56 859.417 1500.83 785.843 1509.42 721.346 C 1518.87 729.136 1527.59 736.33 1536.44 744.834 C 1541.77 744.116 1577.87 728.496 1582.63 724.639 C 1582.64 721.374 1580.84 719.671 1578.86 716.927 C 1586.7 716.357 1603.32 707.118 1610.35 703.067 z"/>
<path transform="translate(0,0)" fill="rgb(139,139,139)" d="M 1509.42 721.346 C 1518.87 729.136 1527.59 736.33 1536.44 744.834 C 1532.47 771.519 1528.53 798.201 1524.75 824.913 C 1524.27 828.308 1523.5 841.144 1520.49 841.833 C 1524.61 843.562 1524.36 842.735 1526.66 845.809 C 1527.09 859.606 1519.92 896.556 1518.65 913.724 C 1523.04 922.053 1551.29 969.234 1550.87 973.431 C 1549.81 974.869 1549.33 975.79 1548.01 976.926 C 1553.04 981.12 1584.74 1039.12 1592.05 1050.02 C 1586.26 1054.9 1580.03 1059.76 1574.1 1064.52 C 1562.91 1049.3 1549.57 1026.84 1539.28 1010.51 L 1484.29 923.601 C 1490.56 859.417 1500.83 785.843 1509.42 721.346 z"/>
<path transform="translate(0,0)" fill="rgb(28,28,28)" d="M 1520.49 841.833 C 1524.61 843.562 1524.36 842.735 1526.66 845.809 C 1527.09 859.606 1519.92 896.556 1518.65 913.724 C 1523.04 922.053 1551.29 969.234 1550.87 973.431 C 1549.81 974.869 1549.33 975.79 1548.01 976.926 C 1539.44 977.219 1512.4 923.762 1507.89 914.095 C 1509.3 901.307 1513.77 849.114 1520.49 841.833 z"/>
<path transform="translate(0,0)" fill="rgb(60,59,59)" d="M 1584.52 1070.4 C 1592.87 1063.01 1619.15 1041.09 1628.5 1035.98 C 1631.88 1047.55 1633.98 1078.96 1635.18 1092.08 L 1643.74 1184.09 L 1657.68 1339.49 C 1660.42 1368.47 1664.74 1401.61 1666.21 1430.21 C 1632.33 1427.14 1609.17 1424.86 1575.32 1419.22 C 1564.48 1417.11 1553.67 1414.83 1542.9 1412.39 C 1543.38 1391.25 1545.91 1368.31 1547.59 1347.14 L 1556.53 1232.26 C 1558.97 1197.14 1561.66 1162.04 1564.61 1126.96 C 1565.3 1117.99 1566.02 1077.96 1570.98 1073.27 L 1572.92 1074.42 C 1576.85 1080.88 1570.28 1181.11 1572.79 1196.18 C 1573.83 1202.44 1571.59 1202.7 1577.49 1208.14 C 1579.89 1206.24 1582.95 1204.84 1583.07 1201.52 C 1584.7 1157.95 1582.89 1113.95 1584.52 1070.4 z"/>
<path transform="translate(0,0)" fill="rgb(139,139,139)" d="M 1542.9 1412.39 C 1543.38 1391.25 1545.91 1368.31 1547.59 1347.14 L 1556.53 1232.26 C 1558.97 1197.14 1561.66 1162.04 1564.61 1126.96 C 1565.3 1117.99 1566.02 1077.96 1570.98 1073.27 L 1572.92 1074.42 C 1576.85 1080.88 1570.28 1181.11 1572.79 1196.18 C 1573.83 1202.44 1571.59 1202.7 1577.49 1208.14 C 1578.55 1214.24 1577.4 1270.88 1577.16 1279.86 C 1575.92 1325.24 1577.3 1374.06 1575.32 1419.22 C 1564.48 1417.11 1553.67 1414.83 1542.9 1412.39 z"/>
<path transform="translate(0,0)" fill="rgb(139,139,139)" d="M 1868.77 996.557 C 1872.03 1033.95 1872.83 1071.18 1876.32 1109.26 C 1882.11 1168.33 1890.16 1227.16 1900.42 1285.62 C 1904.41 1309.09 1908.37 1334.75 1913.11 1357.92 C 1901.31 1366.54 1894.33 1370.07 1880.86 1375.83 C 1872.16 1377.56 1863.06 1378.11 1854.19 1378.87 C 1852.82 1348 1849.33 1311.07 1846.81 1280.23 L 1838.26 1172.08 C 1835.98 1145.63 1830.99 1107.42 1831.8 1081.39 C 1832 1075.2 1849.85 1038.77 1853.94 1029.27 C 1858.52 1017.62 1863.32 1007.79 1868.77 996.557 z"/>
<path transform="translate(0,0)" fill="rgb(60,59,59)" d="M 1853.94 1029.27 C 1854.7 1046.57 1854.13 1149.5 1858.64 1156.98 C 1862.79 1159.99 1864.21 1161.61 1864.44 1167.27 C 1864.78 1175.66 1870 1197.11 1863.97 1203.2 C 1862.09 1211.17 1878.85 1360.45 1880.86 1375.83 C 1872.16 1377.56 1863.06 1378.11 1854.19 1378.87 C 1852.82 1348 1849.33 1311.07 1846.81 1280.23 L 1838.26 1172.08 C 1835.98 1145.63 1830.99 1107.42 1831.8 1081.39 C 1832 1075.2 1849.85 1038.77 1853.94 1029.27 z"/>
<path transform="translate(0,0)" fill="rgb(28,28,28)" d="M 1858.64 1156.98 C 1862.79 1159.99 1864.21 1161.61 1864.44 1167.27 C 1864.78 1175.66 1870 1197.11 1863.97 1203.2 C 1860.55 1202.08 1860.61 1202.17 1857.68 1200.13 C 1855.67 1195.38 1853.88 1169.72 1853.24 1163.29 C 1852.95 1160.35 1855.98 1159.04 1858.64 1156.98 z"/>
<path transform="translate(0,0)" fill="rgb(60,59,59)" d="M 1524.15 1006.81 C 1535.91 1024.78 1547.56 1042.83 1559.09 1060.96 C 1555.04 1135.3 1546.94 1210.63 1542.3 1285.01 C 1540.5 1313.74 1535.44 1351.81 1534.9 1379.73 C 1519.96 1378.35 1506.34 1377.19 1491.54 1374.55 C 1493.78 1357.6 1515.84 1210.13 1514.32 1204.77 C 1512.07 1203.01 1511.87 1202.75 1509.3 1201.6 C 1510.69 1198.47 1512.12 1171.18 1512.58 1165.51 L 1524.15 1006.81 z"/>
<path transform="translate(0,0)" fill="rgb(139,139,139)" d="M 1505.21 975.533 C 1509.79 982.799 1520.96 999.705 1524.15 1006.81 L 1512.58 1165.51 C 1512.12 1171.18 1510.69 1198.47 1509.3 1201.6 C 1507.86 1202.83 1505.91 1204.17 1505.58 1206.17 C 1496.54 1260.7 1491.01 1316.57 1481.5 1370.98 C 1468.76 1365.37 1458.79 1360.06 1448.31 1350.97 C 1467.06 1258.78 1484.58 1166.04 1495.99 1072.61 C 1499.93 1040.33 1503.68 1008.03 1505.21 975.533 z"/>
<path transform="translate(0,0)" fill="rgb(139,139,139)" d="M 1757.78 663.972 C 1759.93 667.316 1762.02 671.378 1763.94 674.907 C 1767.02 680.61 1769.53 685.643 1773.48 690.797 C 1761.59 695.975 1717.49 714.875 1706.92 716.513 C 1702.17 718.79 1700.21 720.714 1696.18 724.032 C 1700.72 732.25 1715.9 751.084 1722.11 759.138 L 1783.38 837.335 C 1779.1 854.052 1775.53 871.526 1771.86 888.431 C 1746.02 832.604 1718.25 777.691 1688.6 723.791 C 1707.65 703.398 1737.56 683 1757.78 663.972 z"/>
<path transform="translate(0,0)" fill="rgb(60,59,59)" d="M 1763.94 674.907 C 1767.02 680.61 1769.53 685.643 1773.48 690.797 C 1761.59 695.975 1717.49 714.875 1706.92 716.513 C 1720.64 702.385 1748.94 687.382 1763.94 674.907 z"/>
<path transform="translate(0,0)" fill="rgb(139,139,139)" d="M 1681.91 734.491 C 1684.71 735.814 1686.1 740.008 1687.48 742.932 C 1670.29 789.85 1658.17 850.251 1645.12 899.303 L 1640 885.931 C 1634.6 871.911 1628.98 857.973 1623.15 844.122 C 1635.5 819.882 1649.37 795.399 1662.2 771.324 C 1668.61 759.304 1675.11 746.092 1681.91 734.491 z"/>
<path transform="translate(0,0)" fill="rgb(139,139,139)" d="M 1685.6 618.385 C 1696.29 616.239 1750.14 628.741 1766.53 630.842 C 1777.06 647.369 1786.03 665.811 1797.01 682.961 C 1792.19 684.879 1787.63 686.22 1782.7 687.742 C 1778.8 678.606 1758.93 645.246 1753.02 636.738 C 1736.09 633.225 1710.98 627.342 1694.23 625.557 C 1681.44 624.97 1637.57 633.532 1625.07 637.461 C 1619.03 649.763 1602.03 678.229 1599.72 689.16 C 1594.5 687.273 1589.29 685.351 1584.09 683.394 C 1590.79 669.862 1606.09 643.489 1614.2 630.627 C 1638.16 626.021 1661.38 621.504 1685.6 618.385 z"/>
<path transform="translate(0,0)" fill="rgb(139,139,139)" d="M 1801.95 692.338 C 1820.64 698.121 1844.09 704.695 1862.05 711.54 L 1839.59 735.223 L 1786.8 713.236 C 1780.91 713.019 1771.27 707.949 1765.78 705.268 C 1777.57 700.947 1790.07 696.134 1801.95 692.338 z"/>
<path transform="translate(0,0)" fill="rgb(139,139,139)" d="M 1515.49 712.127 C 1536.31 705.343 1557.18 698.718 1578.11 692.255 C 1586.59 694.49 1601.57 700.083 1610.35 703.067 C 1603.32 707.118 1586.7 716.357 1578.86 716.927 C 1573.5 717.165 1546.98 730.038 1539.89 733.168 C 1532.27 726.27 1523.36 719.052 1515.49 712.127 z"/>
<path transform="translate(0,0)" fill="rgb(60,59,59)" d="M 1622.92 664.925 C 1644.84 680.233 1667.31 694.74 1690.29 708.417 C 1687.73 710.898 1683.84 714.437 1681.54 716.961 C 1678.72 717.505 1614.58 693.664 1606.86 690.857 C 1611.62 686.093 1614.24 680.95 1617.64 675.151 C 1619.35 671.798 1621.1 668.197 1622.92 664.925 z"/>
<path transform="translate(0,0)" fill="rgb(139,139,139)" d="M 1622.92 664.925 C 1644.84 680.233 1667.31 694.74 1690.29 708.417 C 1687.73 710.898 1683.84 714.437 1681.54 716.961 C 1675.5 708.752 1628.51 681.838 1617.64 675.151 C 1619.35 671.798 1621.1 668.197 1622.92 664.925 z"/>
<path transform="translate(0,0)" fill="rgb(5,46,85)" d="M 1062.88 607.32 C 1069.64 607.024 1130.24 619.184 1141.52 621.119 C 1151.05 636.811 1168.46 659.334 1170.88 676.444 C 1187.13 683.341 1206.13 690.874 1221.77 698.889 C 1236.28 706.332 1240.29 728.516 1242.75 744.125 C 1251.41 798.921 1244.22 854.033 1240.27 908.795 C 1238.22 938.955 1237.46 969.19 1238.02 999.415 C 1239.93 1094.9 1255.59 1190.96 1277.48 1283.76 C 1282.99 1307.11 1289.39 1330.64 1294.23 1354.09 C 1252.54 1392.1 1204.75 1395.25 1150.46 1388.74 C 1141.43 1388.11 1128.23 1381.42 1119.54 1381.51 C 1096.77 1381.75 1074.25 1384.46 1051.32 1383.65 C 1053.49 1394.99 1059.54 1408.86 1059.7 1420.5 C 1059.74 1423.46 1057.45 1424.24 1055.01 1425.9 C 1018.31 1439.1 950.119 1433.54 914.261 1416.5 C 898.725 1409.12 896.048 1402.38 891.091 1386.98 C 875.981 1383.84 860.402 1380.81 845.908 1375.43 C 833.026 1370.65 807.293 1358.37 803.226 1344 C 801.86 1339.17 825.926 1229.2 828.5 1215.95 C 843.287 1141.88 854.479 1067.13 862.034 991.974 C 865.576 957.71 868.014 923.341 869.344 888.921 C 871.237 837.067 866.244 769.093 883.177 719.133 C 890.13 698.619 930.639 684.801 951.672 676.926 C 956.049 662.828 972.645 635.039 980.911 621.493 C 998.817 615.383 1043.4 609.17 1062.88 607.32 z"/>
<path transform="translate(0,0)" fill="rgb(31,163,231)" d="M 1033.64 757.799 C 1041.3 750.817 1048.86 744.602 1058.14 739.807 C 1067.92 751.587 1069.24 768.023 1071.31 783.499 C 1085 885.943 1104.1 1025.67 1017.05 1102.08 C 997.855 1118.94 964.424 1128.72 940.853 1139.07 C 857.662 1175.58 830.765 1274.7 829.859 1357.16 C 822.89 1351.98 817.698 1348.16 812.113 1341.36 C 821.168 1303.35 829.334 1265.15 836.602 1226.76 C 837.869 1220.33 843.259 1187.35 844.67 1183.84 C 846.315 1170.36 849.897 1155.93 851.692 1142.61 C 855.734 1112.65 855.728 1101.87 873.431 1077.11 C 908.883 1027.52 966.931 1026.99 1007.42 982.942 C 1041.66 945.686 1038.55 901.812 1027.38 855.508 C 1019.04 821.138 1006.28 786.93 1033.64 757.799 z"/>
<path transform="translate(0,0)" fill="rgb(47,238,241)" d="M 1033.64 757.799 C 1036.23 775.37 1034.51 792.097 1038.32 810.375 C 1052.47 878.29 1077.32 957.26 1032.1 1019.22 C 1009.23 1050.75 974.907 1063.7 942.542 1082.33 C 904.501 1104.22 872.313 1136.44 851.349 1175.03 C 849.976 1177.56 847.256 1183.17 844.67 1183.84 C 846.315 1170.36 849.897 1155.93 851.692 1142.61 C 855.734 1112.65 855.728 1101.87 873.431 1077.11 C 908.883 1027.52 966.931 1026.99 1007.42 982.942 C 1041.66 945.686 1038.55 901.812 1027.38 855.508 C 1019.04 821.138 1006.28 786.93 1033.64 757.799 z"/>
<path transform="translate(0,0)" fill="rgb(47,238,241)" d="M 1119.37 826.147 C 1124.3 835.695 1130.45 853.288 1131.89 863.893 C 1142.57 904.918 1142.66 934.069 1134.54 975.214 C 1121.9 1039.21 1098.29 1096.59 1072.28 1156.05 C 1052.91 1201.28 1033.86 1250.16 1031.2 1299.79 C 1029.06 1339.71 1038.37 1379.22 1049.99 1417.31 C 1023.64 1423.97 997.97 1424.7 970.971 1421.53 C 953.938 1419.99 922.737 1413.93 910.307 1401.12 C 899.528 1390.02 900.039 1367.75 900.427 1353.29 C 902.509 1275.57 940.877 1246.59 992.841 1198.78 C 1082.94 1115.87 1110.04 992.974 1118.48 875.521 C 1119.59 860 1118.91 842.205 1119.37 826.147 z"/>
<path transform="translate(0,0)" fill="rgb(31,163,231)" d="M 1119.37 826.147 C 1124.3 835.695 1130.45 853.288 1131.89 863.893 C 1130.45 866.744 1121.98 939.852 1119.75 951.085 C 1110.06 1001.8 1096.15 1051.62 1078.18 1100.03 C 1065.58 1134.03 1049.1 1166.46 1029.06 1196.68 C 1006.54 1230.89 974.768 1262.3 963.74 1302.74 C 953.356 1340.82 959.168 1384.49 970.971 1421.53 C 953.938 1419.99 922.737 1413.93 910.307 1401.12 C 899.528 1390.02 900.039 1367.75 900.427 1353.29 C 902.509 1275.57 940.877 1246.59 992.841 1198.78 C 1082.94 1115.87 1110.04 992.974 1118.48 875.521 C 1119.59 860 1118.91 842.205 1119.37 826.147 z"/>
<path transform="translate(0,0)" fill="rgb(31,163,231)" d="M 1142 663.171 C 1145.75 668.903 1147.13 673.342 1149.51 679.747 C 1129.19 691.022 1107.2 699.877 1087.81 712.494 C 1082.62 715.872 1080.89 724.144 1084.49 729.315 C 1089.23 736.116 1095.98 740.505 1102.55 745.392 C 1126.24 762.349 1138.54 780.702 1145.02 809.067 C 1147.04 817.921 1148.73 837.599 1156.03 841.248 C 1162.08 838.921 1159.21 829.806 1158.27 824.564 C 1155.55 809.364 1152.56 794.8 1146.17 780.544 C 1135.41 756.502 1113.19 740.933 1093.05 725.313 C 1093.01 724.474 1092.97 723.634 1092.94 722.795 C 1094.99 718.402 1099.2 716.995 1103.62 714.973 C 1126.52 717.849 1149.28 724.174 1164.07 743.225 C 1184.07 769.143 1184.46 805.573 1180.28 836.559 C 1175.45 872.42 1167.82 907.845 1162.34 943.605 C 1155.12 990.72 1150.63 1038.73 1152.13 1086.43 C 1152.57 1100.64 1154.19 1114.62 1155.08 1128.77 C 1166.94 1204.74 1197.41 1264.98 1261.04 1311.31 C 1266.28 1315.12 1271.59 1318.84 1276.96 1322.46 C 1279.13 1332.01 1281.24 1341.91 1283.66 1351.37 C 1275.9 1357.45 1268.73 1362.55 1259.89 1367.05 C 1241.57 1375.94 1221.15 1379.98 1200.96 1381.34 C 1119.6 1301.29 1127.71 1230.34 1139.56 1126.87 C 1150.26 1033.41 1162.68 928.206 1134.48 836.966 C 1127.43 814.139 1108.86 786.804 1094.22 767.501 C 1083.86 754.634 1073.54 744.596 1064.37 729.899 C 1066.97 730.884 1068.3 731.766 1070.89 730.928 C 1072.9 727.125 1072.07 721.9 1072.16 716.844 C 1083.27 703.497 1096.95 697.07 1110.75 686.747 C 1121.24 678.9 1131.23 670.636 1142 663.171 z"/>
<path transform="translate(0,0)" fill="rgb(47,238,241)" d="M 1155.08 1128.77 C 1166.94 1204.74 1197.41 1264.98 1261.04 1311.31 C 1266.28 1315.12 1271.59 1318.84 1276.96 1322.46 C 1279.13 1332.01 1281.24 1341.91 1283.66 1351.37 C 1275.9 1357.45 1268.73 1362.55 1259.89 1367.05 C 1199.53 1323.29 1156.88 1267.97 1152.38 1191.15 C 1151.71 1179.62 1149.61 1138.98 1155.08 1128.77 z"/>
<path transform="translate(0,0)" fill="rgb(47,238,241)" d="M 1161.87 684.458 C 1178.95 691.05 1222.46 703.71 1227.43 720.914 C 1246.89 788.254 1232.76 862.492 1229.82 931.35 C 1228.63 958.305 1228.53 979.016 1228.93 1004.12 C 1230.32 1060.48 1235.79 1116.66 1245.3 1172.22 C 1248.73 1194.13 1252.73 1215.96 1257.27 1237.67 C 1246.24 1229.29 1233.99 1216.57 1224.51 1205.85 C 1128.42 1097.25 1207.67 952.511 1202.21 826.392 C 1199.79 770.749 1197.77 720.363 1139.58 696.942 C 1143.62 694.244 1147.89 691.852 1152.09 689.405 L 1161.87 684.458 z"/>
<path transform="translate(0,0)" fill="rgb(31,163,231)" d="M 1139.58 696.942 C 1143.62 694.244 1147.89 691.852 1152.09 689.405 C 1172.26 701.799 1188.86 713.25 1199.52 735.321 C 1216.65 770.799 1216.15 812.08 1213.52 850.532 C 1211.08 881.984 1207.85 913.369 1203.83 944.658 C 1195.49 1011.94 1185.45 1078.55 1221.81 1140.56 C 1226.67 1148.84 1237.88 1166.37 1245.3 1172.22 C 1248.73 1194.13 1252.73 1215.96 1257.27 1237.67 C 1246.24 1229.29 1233.99 1216.57 1224.51 1205.85 C 1128.42 1097.25 1207.67 952.511 1202.21 826.392 C 1199.79 770.749 1197.77 720.363 1139.58 696.942 z"/>
<path transform="translate(0,0)" fill="rgb(38,43,146)" d="M 1079.13 766.77 C 1086.87 772.377 1105.78 797.386 1107.25 807.229 C 1111.37 834.693 1109.5 868.087 1106.89 895.754 C 1096.75 1003.55 1068.97 1112.69 987.822 1189.63 C 961.305 1215.17 930.607 1237.8 912.22 1270.4 C 899.353 1293.3 892.104 1318.91 891.069 1345.15 C 890.626 1355.08 891.266 1365.46 890.523 1375.23 L 890.44 1376.23 C 881.377 1374.66 870.94 1371.75 861.907 1369.47 C 852.934 1367.5 847.78 1365.79 839.553 1361.99 C 838.665 1287.34 864.917 1189.01 936.15 1152.76 C 976.483 1132.23 1012.39 1129.71 1044.57 1089.11 C 1100.49 1018.58 1096.6 916.424 1088.64 831.494 C 1086.64 810.222 1081.23 788.457 1079.13 766.77 z"/>
<path transform="translate(0,0)" fill="rgb(38,43,146)" d="M 1139.56 999.759 L 1140.58 1000.86 C 1141.75 1006.22 1139.6 1016.34 1139.38 1022.55 C 1137.46 1075.97 1128.08 1128.55 1124.22 1181.84 C 1119.66 1244.84 1117.82 1308.21 1114.07 1371.21 C 1100.84 1373.14 1061.36 1376.52 1049.08 1373.62 L 1048.3 1371.84 C 1024.53 1265.57 1068.32 1195.55 1107.05 1100.35 C 1120.24 1067.63 1131.11 1034.02 1139.56 999.759 z"/>
<path transform="translate(0,0)" fill="rgb(47,238,241)" d="M 878.998 863.668 C 919.263 846.542 929.545 821.304 931.484 779.255 C 933.467 736.25 952.423 719.506 993.969 714.853 C 1013 712.722 1019.64 708.491 1039.02 718.284 L 1049.54 722.107 C 1027.76 727.802 1006.45 732.704 989.33 748.528 C 934.32 799.387 1009.94 871.431 974.515 928.257 C 967.038 940.251 955.562 947.864 941.886 951.454 C 909.015 958.762 897.641 958.985 872.591 982.493 C 873.983 962.199 875.991 941.267 876.99 921.05 C 878.108 901.383 879.029 883.365 878.998 863.668 z"/>
<path transform="translate(0,0)" fill="rgb(31,163,231)" d="M 878.998 863.668 C 919.263 846.542 929.545 821.304 931.484 779.255 C 933.467 736.25 952.423 719.506 993.969 714.853 C 1013 712.722 1019.64 708.491 1039.02 718.284 C 1032.08 721.584 1017.25 720.796 1009.24 721.688 C 958.726 727.316 940.846 749.087 943.198 799.502 C 945.394 846.562 942.969 895.843 893.242 916.013 C 887.959 918.098 882.526 919.782 876.99 921.05 C 878.108 901.383 879.029 883.365 878.998 863.668 z"/>
<path transform="translate(0,0)" fill="rgb(58,94,131)" d="M 1044.38 734.474 L 1044.75 734.461 L 1045.43 735.169 C 1033.1 744.561 1029.91 743.895 1019.84 758.31 C 992.013 798.143 1016.7 843.744 1023.33 886.936 C 1032.71 948.084 1004.88 984.124 951.239 1010.54 C 914.627 1027.68 891.706 1037.34 865.464 1071.5 L 863.808 1073.58 L 863.047 1072.57 C 864.619 1051.92 868.071 1019.36 871.507 999.214 C 878.53 991.46 889.971 979.272 899.001 974.694 C 924.41 961.813 961.039 965.85 979.831 939.064 C 1008.3 898.485 987.624 854.59 980.119 811.999 C 977.145 795.122 979.702 774.748 990.56 760.974 C 1001.28 747.369 1027.59 736.392 1044.38 734.474 z"/>
<path transform="translate(0,0)" fill="rgb(58,94,131)" d="M 1190.62 835.943 C 1196.01 842.233 1182.22 946.124 1180 957.725 C 1174.43 986.756 1169.89 1015.88 1166.97 1045.46 C 1165.63 1058.76 1165.52 1072.15 1166.65 1085.46 C 1171.06 1144.25 1194.06 1198.03 1240.35 1235.68 C 1246.9 1241.01 1253.42 1246.57 1259.81 1252.08 C 1261.83 1258.35 1272.06 1301.76 1271.49 1306.53 C 1192.44 1250.32 1159.81 1166.6 1162.17 1072.24 C 1162.61 1054.8 1161.12 1036.98 1162.59 1019.47 C 1167.78 957.618 1180.93 897.147 1190.62 835.943 z"/>
<path transform="translate(0,0)" fill="rgb(47,238,241)" d="M 988.164 629.54 C 1004.56 626.451 1044.79 618.026 1059.85 617.749 C 1074.78 617.475 1118.5 626.71 1135.27 630.233 C 1144.79 643.703 1152.91 658.481 1160.89 672.921 L 1149.51 679.747 C 1147.13 673.342 1145.75 668.903 1142 663.171 C 1131.23 670.636 1121.24 678.9 1110.75 686.747 C 1096.95 697.07 1083.27 703.497 1072.16 716.844 C 1072.07 721.9 1072.9 727.125 1070.89 730.928 C 1068.3 731.766 1066.97 730.884 1064.37 729.899 C 1063.54 728.019 1061.1 722.798 1061.11 720.992 C 1061.15 712.201 1075.54 703.494 1081.2 698.423 C 1096.01 685.154 1116.64 672.85 1129.78 658.376 C 1128.2 651.394 1125.92 642.952 1123 636.47 C 1075.83 623.67 1047.94 620.82 1000.36 636.436 C 996.752 644.884 995.657 649.447 993.451 658.411 C 1006.84 672.031 1043.04 692.965 1059.93 702.393 C 1056.98 706.046 1055.02 708.314 1051.71 711.638 L 1050.23 711.36 C 1027.01 704.531 994.247 689.12 971.729 678.968 C 968.684 677.791 965.477 677.037 963.546 674.604 C 966.377 666.909 983.119 638.99 988.164 629.54 z"/>
<path transform="translate(0,0)" fill="rgb(31,163,231)" d="M 981.107 665.045 C 993.557 674.318 1046.08 704.454 1050.23 711.36 C 1027.01 704.531 994.247 689.12 971.729 678.968 C 974.859 674.514 978.425 669.731 981.107 665.045 z"/>
<path transform="translate(0,0)" fill="rgb(31,163,231)" d="M 958.86 684.481 L 969.134 689.436 L 983.515 695.842 C 877.987 720.73 931.68 783.288 880.339 812.926 C 880.521 805.326 880.789 774.998 882.651 770.135 C 887.157 704.907 904.864 706.84 958.86 684.481 z"/>
<path transform="translate(0,0)" fill="rgb(47,238,241)" d="M 958.86 684.481 L 969.134 689.436 C 945.378 699.305 934.206 701.802 915.763 719.889 C 903.55 731.868 892.519 767.689 882.651 770.135 C 887.157 704.907 904.864 706.84 958.86 684.481 z"/>
<path transform="translate(0,0)" fill="rgb(58,94,131)" d="M 1128.23 1284.59 C 1129.22 1285.37 1130.49 1286.86 1130.86 1288.01 C 1136.72 1306.03 1142.34 1317.82 1150.83 1334.26 C 1161.75 1355.43 1172.97 1363.31 1185.34 1380.56 L 1184.66 1382.15 C 1167.13 1381.34 1140.64 1377.99 1124.89 1371.19 C 1124.59 1346.68 1127.2 1310.06 1128.23 1284.59 z"/>
<path transform="translate(0,0)" fill="rgb(38,43,146)" d="M 921.081 764.105 C 921.514 765.61 920.762 777.958 920.776 781.036 C 920.924 813.82 911.267 836.953 881.383 852.033 C 878.5 848.447 879.941 830.571 880.133 824.849 C 909.622 810.195 913.399 794.729 921.081 764.105 z"/>
<path transform="translate(0,0)" fill="rgb(38,43,146)" d="M 1125.24 703.954 C 1142.64 703.315 1170.3 722.514 1174.49 739.067 L 1173.33 739.19 C 1165.48 729.511 1141.86 711.927 1129.46 710.022 C 1127.05 709.652 1124.13 708.229 1123.01 706.119 L 1125.24 703.954 z"/>
</svg>