<svg version="1.1" xmlns="http://www.w3.org/2000/svg" style="display: block;" viewBox="0 0 2048 2048" width="1024" height="1024" preserveAspectRatio="none">
<defs>
	<linearGradient id="Gradient1" gradientUnits="userSpaceOnUse" x1="865.196" y1="1122.19" x2="852.76" y2="1122.66">
		<stop class="stop0" offset="0" stop-opacity="0.0627451" stop-color="rgb(249,236,210)"/>
		<stop class="stop1" offset="1" stop-opacity="0.113725" stop-color="rgb(245,226,183)"/>
	</linearGradient>
	<linearGradient id="Gradient2" gradientUnits="userSpaceOnUse" x1="1101.13" y1="546.289" x2="1072.64" y2="661.34">
		<stop class="stop0" offset="0" stop-opacity="1" stop-color="rgb(73,68,80)"/>
		<stop class="stop1" offset="1" stop-opacity="1" stop-color="rgb(129,54,123)"/>
	</linearGradient>
	<linearGradient id="Gradient3" gradientUnits="userSpaceOnUse" x1="861.605" y1="798.387" x2="757.4" y2="703.231">
		<stop class="stop0" offset="0" stop-opacity="1" stop-color="rgb(90,56,76)"/>
		<stop class="stop1" offset="1" stop-opacity="1" stop-color="rgb(74,74,103)"/>
	</linearGradient>
	<linearGradient id="Gradient4" gradientUnits="userSpaceOnUse" x1="933.942" y1="1276.04" x2="1059.98" y2="1323.98">
		<stop class="stop0" offset="0" stop-opacity="1" stop-color="rgb(40,74,46)"/>
		<stop class="stop1" offset="1" stop-opacity="1" stop-color="rgb(57,97,54)"/>
	</linearGradient>
</defs>
<path transform="translate(0,0)" fill="rgb(71,46,31)" d="M 1058.96 548.326 C 1074.58 547.228 1090.89 545.96 1106.53 545.532 C 1116.05 557.693 1125.18 570.244 1134.54 582.544 C 1125.86 598.977 1118.46 615.535 1111.07 632.581 C 1108.55 638.395 1105.99 644.574 1102.73 649.991 C 1087.99 644.742 1071.55 649.591 1062.02 661.998 C 1059.74 664.957 1057.94 668.251 1056.68 671.762 C 1038.93 664.119 1025.85 662.33 1006.9 659.745 C 995.664 661.867 971.056 677.423 961.614 684.41 C 997.667 715.433 1035.07 750.392 1072.69 779.346 C 1075.08 799.733 1077.31 820.138 1079.38 840.559 C 1080.44 850.142 1082.59 863.761 1082.85 873.057 C 1073.86 882.718 1058.97 898.042 1051.43 908.559 C 1068.22 910.978 1160.51 929.203 1169.57 926.769 C 1172.94 923.797 1180.68 919.697 1184.92 917.265 L 1181.57 907.464 C 1185.94 905.579 1189.91 902.854 1193.23 899.443 C 1196.19 902.504 1199.38 907.105 1203.83 906.584 L 1204.29 904.406 C 1209.97 902.218 1222.13 894.345 1227.73 890.929 C 1242.77 881.765 1257.29 871.938 1272.77 863.46 C 1273.64 826.013 1276.43 788.526 1277.28 750.515 L 1277.2 723.7 C 1282.24 724.255 1287.34 723.729 1292.16 722.157 C 1292.38 726.154 1292.81 738.44 1293.7 741.598 C 1294.19 750.166 1295.21 791.739 1297.51 796.231 L 1302.62 791.895 C 1301.14 796.236 1299.15 797.167 1298.16 801.723 L 1298.95 802.634 C 1301.51 801.832 1305.96 799.927 1308.12 800.289 L 1308.28 801.5 C 1303.99 803.472 1301.89 804.151 1297.34 805.481 C 1298.61 831.898 1299.45 858.335 1299.86 884.78 C 1272.54 900.154 1245.49 915.998 1218.72 932.304 C 1206.84 939.458 1178.56 957.21 1166.9 962.333 C 1138.54 960.177 1109.02 950.772 1081.47 946.355 C 1070.49 944.594 1034.26 946.226 1022.36 947.128 C 1008 963.895 989.946 981.318 976.079 998.332 C 970.804 1004.8 964.416 1028.99 962.122 1038.32 C 992.481 1057.28 1021.8 1090.12 1052.07 1109.18 C 1083.32 1128.87 1125.16 1141.41 1157.28 1159.76 C 1158.62 1165.96 1159.93 1172.52 1161.42 1178.65 C 1180.12 1181.81 1205.92 1184.68 1225.07 1186.51 C 1224.36 1153.69 1221.05 1120.8 1220.19 1087.96 C 1220.07 1083.46 1219.59 1078.18 1219.88 1073.75 C 1220.22 1068.54 1219.72 1059.88 1218.55 1054.71 C 1216.86 1041.18 1215.45 1023.16 1214.93 1009.53 C 1239.39 1007.95 1267.16 1005.88 1291.45 1005.01 C 1298.4 1004.51 1304.28 1004.24 1311.24 1004.15 C 1312.49 1010.73 1314.67 1014 1315.76 1018.74 C 1307.8 1020.14 1299.76 1020.99 1291.68 1021.29 C 1281.68 1023.58 1254.05 1023.3 1242.33 1024.15 C 1244.24 1059.4 1246.84 1094.61 1250.14 1129.77 C 1259.38 1126.86 1280.22 1119.89 1289.31 1118.7 C 1295.01 1121.31 1294.6 1121.17 1296.27 1127.67 L 1295.72 1129.64 C 1295.3 1135.13 1297.36 1136.2 1301.08 1140.14 L 1303.56 1145.02 C 1307.37 1155.24 1314.83 1170.38 1317.52 1179.4 C 1313.38 1180.59 1309.26 1181.82 1305.15 1183.1 C 1301.83 1179.93 1291.62 1159.07 1289.4 1154.12 C 1286.33 1149.85 1284.03 1145.04 1281.59 1140.36 C 1272.74 1144.53 1262.04 1148.08 1252.69 1151.14 C 1253.62 1181.52 1259.15 1217.28 1259.12 1246.65 C 1233.07 1241.72 1204.35 1236.73 1178.66 1231.03 C 1184.56 1248.72 1197.98 1285.76 1201.88 1302.3 C 1185.12 1322.71 1166.61 1341.96 1149.69 1362.23 C 1138.25 1375.94 1123.59 1386.52 1122.65 1405.15 C 1150.62 1408.83 1181.93 1409.16 1209.47 1414.05 C 1228.03 1417.35 1269.36 1427.22 1286.42 1435.37 C 1287.81 1438.07 1287.59 1436.63 1286.66 1439.89 C 1278.9 1468.09 1272.12 1494.46 1267.63 1523.42 C 1257.95 1529.16 1250.07 1532.23 1238.85 1534.33 C 1236.23 1543.32 1233.97 1550.2 1230.67 1558.95 C 1226.88 1570.3 1222.92 1581.59 1218.79 1592.82 C 1205.37 1633.55 1190.09 1674.11 1176.47 1715.01 L 1174.2 1722.56 C 1170.89 1723.99 1167.57 1725.4 1164.24 1726.78 C 1138.27 1737.57 1108.78 1740.46 1080.7 1744.12 C 1063.83 1745.31 1045.02 1742.97 1028.32 1743.71 C 989.849 1745.43 955.127 1735.46 919.768 1720.86 L 911.458 1691.05 C 899.354 1647.15 884.253 1600.33 870.364 1556.77 C 868.074 1549.31 865.87 1541.84 863.752 1534.33 C 853.08 1531.93 842.607 1527.23 832.575 1522.89 C 827.624 1494.58 821.228 1466.54 813.413 1438.88 L 813.45 1437.4 C 816.271 1434.68 830.045 1430.48 834.584 1429.07 C 897.073 1409.71 954.954 1404.52 1019.73 1404.81 C 1023.91 1397.92 1039.62 1376.53 1039.44 1371.08 C 1036.09 1360.65 1031.55 1338 1028.84 1326.46 C 1014.02 1332.19 997.07 1338.83 981.482 1341.79 C 969.862 1344 953.84 1337.42 942.782 1333.28 C 939.971 1312.03 938.254 1289.57 934.693 1268.5 C 939.741 1260.62 959.5 1239.91 967.115 1234.59 C 979.884 1241.9 992.799 1249.92 1005.41 1257.58 C 1003.89 1270.64 1001.56 1283.96 1000.72 1297.05 C 1006.34 1295.67 1017.1 1291.38 1022.21 1288.68 C 1049.44 1274.27 1046.07 1292.87 1045.62 1314.01 C 1047.44 1321.4 1058.13 1333.69 1062.58 1342.81 C 1072.88 1324.52 1093.37 1296.11 1105.61 1277.99 C 1101.01 1254.83 1097.12 1214.86 1094.09 1190.45 C 1079.75 1182.14 1064.8 1172.17 1050.77 1163.16 L 984.504 1182.97 C 973.091 1186.44 960.372 1190.1 949.403 1194.4 C 932.529 1201 910.815 1239.66 896.126 1246.32 C 875.603 1255.64 845.864 1262.77 823.618 1270.25 C 804.636 1276.64 781.256 1284.92 761.965 1289.9 C 751.508 1282.7 738.461 1271.52 728.471 1263.31 C 707.669 1246.06 686.986 1228.66 666.426 1211.12 C 677.487 1161.92 686.206 1113.04 696.936 1064.19 C 698.442 1060.48 698.687 1056.94 699.24 1052.98 C 702.987 1031.39 709.661 984.732 718.518 965.802 C 729.335 942.685 746.926 915.242 759.295 890.533 C 760.911 883.36 764.183 880.882 770.772 877.173 C 783.013 870.282 800.182 860.144 812.82 854.924 C 818.157 861.752 828.199 877.99 832.622 885.89 C 828.639 912.964 820.733 953.321 818.548 978.61 C 799.914 980.369 779.956 986.153 762.405 986.107 C 757.327 986.094 739.805 980.198 733.538 978.753 L 730.464 978.206 C 722.723 1002.63 722.217 1023.95 720.33 1049.39 L 714.185 1139 C 713.351 1150.88 712.642 1168.79 711.154 1180.24 C 734.136 1199.92 756.946 1219.81 779.581 1239.89 C 811.215 1223.28 843.286 1213.39 872.439 1192 C 877.621 1188.19 887.59 1183.04 893.569 1179.69 C 880.606 1174.27 867.611 1168.94 854.585 1163.68 L 843.878 1159.78 C 846.385 1156.36 848.945 1152.06 851.242 1148.43 L 861.068 1151.2 L 866.559 1153.18 C 871.966 1153.62 908.861 1164.64 914.561 1166.89 C 937.365 1153.76 962.112 1137.8 984.735 1123.91 C 949.283 1097.73 913.678 1071.77 877.921 1046.02 C 889.523 1033.57 901.649 1018.52 912.805 1005.47 L 968.935 940.539 C 963.83 924.198 958.864 907.814 954.036 891.389 C 918.298 881.361 886.649 873.406 850.822 862.18 C 851.035 847.868 852.048 829.895 851.54 815.931 C 843.502 806.025 834.919 797.076 826.816 787.307 C 828.152 775.823 829.773 764.374 831.679 752.971 C 813.946 760.954 796.133 768.756 778.241 776.376 C 766.921 772.434 755.567 768.59 744.181 764.844 C 743.938 749.978 742.096 732.649 740.801 717.613 C 748.651 715.983 774.478 711.164 780.02 707.371 C 776.811 704.823 774.06 702.365 771.013 699.644 C 774.212 694.269 774.332 693.471 779.809 690.768 C 784.927 693.169 789.256 695.859 794.096 698.74 C 804.112 695.783 819.638 693.744 830.509 691.466 C 839.265 689.631 855.114 685.618 863.394 685.068 C 866.77 687.429 866.691 720.562 866.915 727.175 C 867.707 750.479 869.39 773.726 870.358 797.022 C 870.95 808.87 870.921 828.425 872.691 839.196 C 886.603 844.077 902.522 849.29 916.027 854.799 C 918.782 846.631 920.977 840.028 924.541 832.154 C 928.451 834.079 932.679 835.279 937.018 835.694 C 935.156 843.29 933.014 849.573 930.513 856.998 C 945.181 861.084 960.907 863.126 976.071 867.591 L 994.798 911.758 C 1005.96 899.856 1027.52 879.43 1036.3 868.423 C 1035.6 842.607 1036.68 813.872 1035.23 788.692 C 1029.86 784.278 1024.19 778.702 1019.17 773.834 C 988.314 743.88 955.24 715.669 924.79 685.379 C 938.339 658.467 953.837 629.68 965.579 602.114 C 971.953 600.901 977.511 601.661 980.779 607.923 C 974.758 623.492 962.974 656.416 956.21 670.246 C 962.27 664.536 974.077 652.634 980.927 649.307 C 996.528 639.935 1012.53 631.246 1028.88 623.262 C 1026.7 611.751 1025.18 593.925 1024.57 582.227 C 1038.58 590.811 1048.36 598.561 1060.88 608.835 C 1060.27 589.144 1059.06 567.88 1058.96 548.326 z M 733.778 967.02 L 743.933 963.341 C 751.726 960.356 757.571 958.03 765.69 956.223 C 764.79 935.617 763.488 915.03 761.784 894.474 C 755.718 911.743 737.095 950.504 733.778 967.02 z M 855.339 728.225 C 855.686 717.095 855.624 710.261 855.002 699.159 C 848.439 700.31 841.853 701.324 835.248 702.201 C 841.671 709.086 849.942 720.394 855.339 728.225 z"/>
<path transform="translate(0,0)" fill="rgb(147,59,37)" d="M 1187.68 1542.92 C 1196.41 1542.31 1231.36 1536.69 1238.85 1534.33 C 1236.23 1543.32 1233.97 1550.2 1230.67 1558.95 C 1226.88 1570.3 1222.92 1581.59 1218.79 1592.82 C 1205.37 1633.55 1190.09 1674.11 1176.47 1715.01 L 1174.2 1722.56 C 1170.89 1723.99 1167.57 1725.4 1164.24 1726.78 C 1138.27 1737.57 1108.78 1740.46 1080.7 1744.12 C 1063.83 1745.31 1045.02 1742.97 1028.32 1743.71 C 989.849 1745.43 955.127 1735.46 919.768 1720.86 L 911.458 1691.05 C 899.354 1647.15 884.253 1600.33 870.364 1556.77 C 868.074 1549.31 865.87 1541.84 863.752 1534.33 C 918.003 1551.28 1010.65 1555.12 1068.34 1554.73 C 1087.12 1554.61 1109.86 1551.26 1128.82 1550.89 C 1141.75 1549.72 1158.6 1548.39 1171.04 1545.57 C 1177.34 1544.11 1181.28 1543.65 1187.68 1542.92 z"/>
<path transform="translate(0,0)" fill="rgb(177,77,51)" d="M 870.364 1556.77 C 877.134 1552.55 913.817 1563.44 922.994 1564.52 C 929.039 1565.24 937.18 1573.72 941.425 1572 C 943.03 1571.34 943.107 1570.13 945.583 1570.22 C 981.81 1575.95 1007.93 1585.15 1045.32 1583.29 C 1049.5 1580.83 1049.27 1580.04 1053.35 1580.1 C 1054.99 1583.98 1053.08 1587.56 1051.58 1591.77 C 1070.22 1594.21 1087.99 1595.76 1106.34 1597.99 C 1111.12 1602.96 1114.03 1604.56 1120.52 1607.02 L 1121.5 1607.92 C 1118.36 1613.84 1108.92 1622.03 1107.94 1629.36 C 1109.87 1635.41 1115.22 1637.85 1120.58 1641.22 C 1112.62 1645.22 1091.33 1657.64 1093.36 1668.14 C 1098.38 1673.41 1115.06 1670.57 1123.26 1671.53 C 1091.89 1693.38 1089.19 1664.56 1071.19 1711.96 C 1063.72 1709.7 1054.13 1706.35 1046.86 1704.45 C 1033.45 1708.8 1024.25 1716.54 1008.46 1721.45 C 1008.21 1712.75 1008.1 1704.04 1008.12 1695.33 C 989.878 1698.57 962.595 1702.74 945.325 1707.67 C 935.162 1700.43 923.934 1693.38 911.458 1691.05 C 899.354 1647.15 884.253 1600.33 870.364 1556.77 z"/>
<path transform="translate(0,0)" fill="rgb(213,121,90)" d="M 910.184 1587.05 C 923.671 1590.18 934.092 1592.48 947.935 1593.6 C 959.412 1594.54 974.18 1587.81 981.366 1592.68 C 979.857 1602.66 978.735 1616.33 975.493 1625.22 C 974.069 1627.76 972.395 1632.24 971.235 1635.05 C 952.475 1630.02 941.35 1619.19 920.981 1620.41 C 918.075 1608.12 914.875 1598.79 910.184 1587.05 z"/>
<path transform="translate(0,0)" fill="rgb(213,121,90)" d="M 981.071 1647.4 C 985.718 1646.83 987.195 1645.83 989.796 1649.83 C 990.286 1654.77 987.67 1661.22 986.114 1666.22 C 979.188 1669.17 978.806 1669.45 971.372 1670.8 L 963.853 1671.81 C 964.701 1664.33 965.485 1656.85 966.206 1649.36 C 970.688 1648.32 976.413 1647.9 981.071 1647.4 z"/>
<path transform="translate(0,0)" fill="rgb(213,121,90)" d="M 926.75 1630.89 C 928.923 1630.82 931.615 1630.84 933.713 1631.33 C 943.985 1633.73 944.367 1658.09 941.778 1665.89 C 937.753 1659.06 925.816 1637.76 926.75 1630.89 z"/>
<path transform="translate(0,0)" fill="rgb(213,121,90)" d="M 986.168 1625.96 C 989.628 1626.15 993.087 1626.38 996.543 1626.62 C 1000.33 1626.91 1002.52 1626.72 1004.9 1629.51 L 1001.64 1632.62 C 999.105 1636.72 992.522 1637.88 988.941 1634.59 C 986.021 1631.9 986.606 1629.6 986.168 1625.96 z"/>
<path transform="translate(0,0)" fill="rgb(124,43,25)" d="M 1187.68 1542.92 C 1196.41 1542.31 1231.36 1536.69 1238.85 1534.33 C 1236.23 1543.32 1233.97 1550.2 1230.67 1558.95 C 1222.5 1556.59 1202.61 1571.08 1187.09 1571.42 C 1139.2 1572.51 1091.29 1572.35 1043.41 1570.95 C 1020.93 1570.46 964.75 1564.53 945.583 1570.22 C 943.107 1570.13 943.03 1571.34 941.425 1572 C 937.18 1573.72 929.039 1565.24 922.994 1564.52 C 913.817 1563.44 877.134 1552.55 870.364 1556.77 C 868.074 1549.31 865.87 1541.84 863.752 1534.33 C 918.003 1551.28 1010.65 1555.12 1068.34 1554.73 C 1087.12 1554.61 1109.86 1551.26 1128.82 1550.89 C 1141.75 1549.72 1158.6 1548.39 1171.04 1545.57 C 1177.34 1544.11 1181.28 1543.65 1187.68 1542.92 z"/>
<path transform="translate(0,0)" fill="rgb(177,77,51)" d="M 1176.47 1715.01 C 1153.97 1690.3 1163.17 1689.74 1179.67 1672.34 C 1197.7 1649.06 1188.96 1648.96 1180.41 1627.67 C 1178.84 1623.76 1207.21 1589.38 1218.79 1592.82 C 1205.37 1633.55 1190.09 1674.11 1176.47 1715.01 z"/>
<path transform="translate(0,0)" fill="rgb(124,43,25)" d="M 1106.34 1597.99 C 1109.93 1597.66 1114.42 1596.68 1117.24 1598.44 C 1119.24 1601.63 1119.53 1603.45 1120.52 1607.02 C 1114.03 1604.56 1111.12 1602.96 1106.34 1597.99 z"/>
<path transform="translate(0,0)" fill="rgb(124,43,25)" d="M 1096.17 1703.58 C 1100.06 1704.05 1103.21 1704.23 1105.87 1706.62 C 1105.93 1710.33 1106.15 1708.47 1103.83 1712.36 C 1100.17 1711.85 1097.58 1711.93 1094.74 1709.67 C 1094.05 1705.78 1093.94 1707.79 1096.17 1703.58 z"/>
<path transform="translate(0,0)" fill="rgb(177,77,51)" d="M 813.413 1438.88 L 814.262 1439.24 C 822.089 1442.65 845.567 1457.03 851.768 1457.77 C 904.413 1464.03 956.279 1474.77 1009.43 1477.52 C 1023.38 1478.24 1037.81 1480.47 1051.74 1480.63 C 1063.57 1480.76 1076.25 1478.76 1088.17 1478.43 C 1124.59 1477.12 1157.66 1473.51 1193.66 1467.96 C 1212.4 1464.05 1231.65 1462.16 1250.28 1458.04 C 1263.02 1455.22 1275.57 1446.72 1286.66 1439.89 C 1278.9 1468.09 1272.12 1494.46 1267.63 1523.42 C 1257.95 1529.16 1250.07 1532.23 1238.85 1534.33 C 1231.36 1536.69 1196.41 1542.31 1187.68 1542.92 C 1181.28 1543.65 1177.34 1544.11 1171.04 1545.57 C 1158.6 1548.39 1141.75 1549.72 1128.82 1550.89 C 1109.86 1551.26 1087.12 1554.61 1068.34 1554.73 C 1010.65 1555.12 918.003 1551.28 863.752 1534.33 C 853.08 1531.93 842.607 1527.23 832.575 1522.89 C 827.624 1494.58 821.228 1466.54 813.413 1438.88 z"/>
<path transform="translate(0,0)" fill="rgb(147,59,37)" d="M 1193.66 1467.96 C 1212.4 1464.05 1231.65 1462.16 1250.28 1458.04 C 1263.02 1455.22 1275.57 1446.72 1286.66 1439.89 C 1278.9 1468.09 1272.12 1494.46 1267.63 1523.42 C 1257.95 1529.16 1250.07 1532.23 1238.85 1534.33 C 1231.36 1536.69 1196.41 1542.31 1187.68 1542.92 C 1181.28 1543.65 1177.34 1544.11 1171.04 1545.57 C 1158.6 1548.39 1141.75 1549.72 1128.82 1550.89 C 1130.63 1525.72 1149.96 1533.99 1167.97 1525.64 C 1169.46 1520.24 1166.25 1524.93 1167.5 1517.65 C 1173.64 1508.95 1192.02 1510.28 1195.31 1501.95 C 1190.6 1494.2 1171.83 1500.15 1161.96 1493.88 C 1157.12 1482.12 1189.75 1479.66 1193.66 1467.96 z"/>
<path transform="translate(0,0)" fill="rgb(177,77,51)" d="M 1171.04 1545.57 C 1170.99 1542.63 1170.35 1541.15 1172.57 1538.92 C 1176.7 1534.76 1186.98 1528.31 1191.66 1534.45 C 1191.8 1537.82 1189.68 1539.98 1187.68 1542.92 C 1181.28 1543.65 1177.34 1544.11 1171.04 1545.57 z"/>
<path transform="translate(0,0)" fill="rgb(213,121,90)" d="M 912.476 1486.8 C 935.412 1486.67 968.504 1496.38 991.763 1501.21 C 987.967 1503.07 984.205 1504.68 980.338 1506.37 C 962.718 1510.86 949.674 1512.66 931.695 1508.34 C 922.844 1506.22 911.162 1506.1 907.569 1496.33 C 907.654 1492.87 910.389 1489.81 912.476 1486.8 z"/>
<path transform="translate(0,0)" fill="rgb(213,121,90)" d="M 918.453 1514.6 C 929.15 1515.4 954.784 1516.15 962.81 1521.22 C 964.636 1524.67 964.067 1522.75 963.443 1527.45 C 955.976 1530.88 934.729 1528.61 925.709 1528.06 L 918.453 1514.6 z"/>
<path transform="translate(0,0)" fill="rgb(213,121,90)" d="M 866.918 1491.7 C 869.293 1492.6 876.668 1501.29 879.432 1502.64 C 884.537 1505.12 895.424 1503.63 899.952 1507.46 L 899.516 1509.19 C 896.435 1511.91 895.562 1511.69 891.262 1512.27 C 882.955 1511.59 864.683 1509.52 857.997 1505.47 C 855.846 1502.29 856.272 1503.99 856.622 1500.2 C 858.931 1496.17 862.878 1494.31 866.918 1491.7 z"/>
<path transform="translate(0,0)" fill="rgb(213,121,90)" d="M 1010.64 1518.51 C 1016.13 1518.03 1026.75 1515.44 1027.88 1522.5 C 1023.26 1529.56 1014.85 1529.04 1007.43 1529.14 C 1005.67 1529.12 1003.92 1529.09 1002.16 1529.03 C 997.345 1528.88 991.305 1529.07 987.826 1525.37 L 988.473 1523.57 C 995.84 1518.65 1001.71 1519.17 1010.64 1518.51 z"/>
<path transform="translate(0,0)" fill="rgb(213,121,90)" d="M 813.413 1438.88 L 813.45 1437.4 C 816.271 1434.68 830.045 1430.48 834.584 1429.07 C 897.073 1409.71 954.954 1404.52 1019.73 1404.81 C 1018.55 1406.5 1015.78 1410.24 1014.89 1411.86 C 1008.68 1420.67 1002.55 1429.51 995.988 1438.07 C 992.594 1437.51 982.017 1435.69 979.047 1435.88 C 952.526 1437.62 922.967 1445.55 896.935 1450.26 L 896.051 1451.37 L 896.809 1452.72 C 994.978 1466.91 1124.95 1474.12 1222.2 1449.96 C 1214.61 1444.13 1183.22 1443.01 1174.01 1439.74 C 1150.93 1431.54 1140.7 1432.77 1116.79 1436 C 1118.51 1430.2 1120.32 1419.43 1121.57 1413.17 L 1122.65 1405.15 C 1150.62 1408.83 1181.93 1409.16 1209.47 1414.05 C 1228.03 1417.35 1269.36 1427.22 1286.42 1435.37 C 1287.81 1438.07 1287.59 1436.63 1286.66 1439.89 C 1275.57 1446.72 1263.02 1455.22 1250.28 1458.04 C 1231.65 1462.16 1212.4 1464.05 1193.66 1467.96 C 1157.66 1473.51 1124.59 1477.12 1088.17 1478.43 C 1076.25 1478.76 1063.57 1480.76 1051.74 1480.63 C 1037.81 1480.47 1023.38 1478.24 1009.43 1477.52 C 956.279 1474.77 904.413 1464.03 851.768 1457.77 C 845.567 1457.03 822.089 1442.65 814.262 1439.24 L 813.413 1438.88 z"/>
<path transform="translate(0,0)" fill="rgb(147,59,37)" d="M 839.52 1436.42 C 846.649 1433.94 859.885 1429.09 866.856 1427.63 C 878.961 1424.48 891.869 1424 904.084 1421.79 C 941.217 1415.06 977.349 1414.14 1014.89 1411.86 C 1008.68 1420.67 1002.55 1429.51 995.988 1438.07 C 992.594 1437.51 982.017 1435.69 979.047 1435.88 C 952.526 1437.62 922.967 1445.55 896.935 1450.26 L 896.051 1451.37 L 896.809 1452.72 C 879.677 1452.06 855.538 1442.68 839.52 1436.42 z"/>
<path transform="translate(0,0)" fill="rgb(147,59,37)" d="M 1121.57 1413.17 C 1151.54 1416.95 1176.8 1414.24 1206.48 1422.33 C 1224.97 1427.38 1245.03 1428.09 1263.37 1436.34 C 1251.8 1443.01 1235.66 1449.67 1222.2 1449.96 C 1214.61 1444.13 1183.22 1443.01 1174.01 1439.74 C 1150.93 1431.54 1140.7 1432.77 1116.79 1436 C 1118.51 1430.2 1120.32 1419.43 1121.57 1413.17 z"/>
<path transform="translate(0,0)" fill="rgb(86,63,88)" d="M 812.82 854.924 C 818.157 861.752 828.199 877.99 832.622 885.89 C 828.639 912.964 820.733 953.321 818.548 978.61 C 799.914 980.369 779.956 986.153 762.405 986.107 C 757.327 986.094 739.805 980.198 733.538 978.753 L 730.464 978.206 C 730.993 975.24 732.802 970.012 733.778 967.02 L 743.933 963.341 C 751.726 960.356 757.571 958.03 765.69 956.223 C 764.79 935.617 763.488 915.03 761.784 894.474 L 759.295 890.533 C 760.911 883.36 764.183 880.882 770.772 877.173 C 783.013 870.282 800.182 860.144 812.82 854.924 z"/>
<path transform="translate(0,0)" fill="rgb(67,55,65)" d="M 789.173 884.226 C 804.705 883.463 812.496 882.297 813.969 900.822 C 814.491 907.39 815.698 914.955 816.789 921.517 C 811.563 928.368 806.525 930.895 800.711 936.508 C 800.086 945.354 799.687 954.214 799.513 963.08 C 787.199 966.954 776.369 969.507 763.562 971.602 C 753.592 973.233 741.441 972.564 733.538 978.753 L 730.464 978.206 C 730.993 975.24 732.802 970.012 733.778 967.02 L 743.933 963.341 C 755.809 968.403 780.164 959.2 792.412 955.013 C 791.838 932.688 788.02 905.11 789.173 884.226 z"/>
<path transform="translate(0,0)" fill="rgb(86,63,88)" d="M 802.504 890.726 C 805.075 891.023 804.174 890.739 806.375 892.095 C 810.362 898.701 810.757 908.508 809.025 916.124 C 808.384 918.943 805.1 920.028 802.414 921.526 C 801.76 921.986 800.798 922.193 799.964 922.464 C 796.38 917.879 795.523 898.199 797.926 892.652 C 798.436 891.475 801.239 891.086 802.504 890.726 z"/>
<path transform="translate(0,0)" fill="url(#Gradient4)" d="M 934.693 1268.5 C 939.741 1260.62 959.5 1239.91 967.115 1234.59 C 979.884 1241.9 992.799 1249.92 1005.41 1257.58 C 1003.89 1270.64 1001.56 1283.96 1000.72 1297.05 C 1006.34 1295.67 1017.1 1291.38 1022.21 1288.68 C 1049.44 1274.27 1046.07 1292.87 1045.62 1314.01 C 1035.99 1301.85 1036.02 1298.58 1018.84 1305.33 C 995.364 1314.55 979.103 1314.82 960.692 1295.19 C 960.372 1287.3 960.361 1269.87 968.179 1265.78 C 974.083 1266.76 974.749 1271.35 973.956 1276.88 C 973.351 1281.1 969.301 1279.57 968.536 1281.74 C 973.197 1282.11 971.071 1281.14 975.978 1283.45 C 978.877 1281.37 983.449 1258.26 969.004 1259.56 C 964.509 1259.99 960.402 1262.29 957.681 1265.9 C 953.369 1271.67 954.526 1284.71 955.396 1291.83 C 956.668 1302.25 966.158 1307.69 973.763 1313.04 C 992.294 1326.09 1010.23 1316.94 1029.56 1310.57 C 1034.54 1320.72 1046.67 1357.33 1045.43 1367.93 C 1043.24 1370.21 1042.47 1370.13 1039.44 1371.08 C 1036.09 1360.65 1031.55 1338 1028.84 1326.46 C 1014.02 1332.19 997.07 1338.83 981.482 1341.79 C 969.862 1344 953.84 1337.42 942.782 1333.28 C 939.971 1312.03 938.254 1289.57 934.693 1268.5 z"/>
<path transform="translate(0,0)" fill="url(#Gradient3)" d="M 780.02 707.371 C 790.435 711.303 821.859 700.931 835.248 702.201 C 841.671 709.086 849.942 720.394 855.339 728.225 C 855.694 732.018 855.793 746.229 854.449 749.175 C 849.91 741.508 850.789 732.748 841.374 729.216 C 827.404 723.975 810.294 720.846 795.56 719.726 C 793.617 719.578 766.583 732.945 764.307 736.136 C 754.962 771.49 789.378 760.488 802.03 743.919 C 800.162 740.359 798.369 735.661 795.06 733.807 L 793.204 734.436 C 791.142 738.953 792.793 740.383 795.028 744.678 C 792.052 751.192 779.975 751.73 773.533 752.619 L 771.101 751.397 C 770.077 748.291 770.185 747.468 769.974 744.239 C 767.565 740.601 768.008 742.465 767.808 738.674 C 770.855 732.872 776.874 731.546 782.319 729.471 C 798.932 723.139 807.055 729.153 822.833 733.867 C 828.705 735.622 833.206 735.184 839.402 738.249 C 845.632 746.222 857.736 806.79 851.54 815.931 C 843.502 806.025 834.919 797.076 826.816 787.307 C 828.152 775.823 829.773 764.374 831.679 752.971 C 813.946 760.954 796.133 768.756 778.241 776.376 C 766.921 772.434 755.567 768.59 744.181 764.844 C 743.938 749.978 742.096 732.649 740.801 717.613 C 748.651 715.983 774.478 711.164 780.02 707.371 z"/>
<path transform="translate(0,0)" fill="url(#Gradient2)" d="M 1058.96 548.326 C 1074.58 547.228 1090.89 545.96 1106.53 545.532 C 1116.05 557.693 1125.18 570.244 1134.54 582.544 C 1125.86 598.977 1118.46 615.535 1111.07 632.581 C 1108.55 638.395 1105.99 644.574 1102.73 649.991 C 1087.99 644.742 1071.55 649.591 1062.02 661.998 C 1054.85 658.419 1047.11 657.755 1042.06 654.153 C 1041.9 652.742 1041.18 647.177 1041.87 646.097 C 1054.38 626.781 1119.89 619.464 1105.63 585.212 C 1103.32 576.487 1100.01 568.832 1094.54 561.529 C 1088.43 564.475 1083.63 566.441 1080.67 573.045 C 1078.91 576.969 1080.77 583.273 1083.91 585.958 C 1082.61 600.322 1091.21 594.217 1086.91 607.873 C 1084.16 608.813 1081.89 609.635 1079.2 610.74 C 1072.84 612.618 1065.71 615.09 1060.88 608.835 C 1060.27 589.144 1059.06 567.88 1058.96 548.326 z"/>
<path transform="translate(0,0)" fill="rgb(86,63,88)" d="M 1024.57 582.227 C 1038.58 590.811 1048.36 598.561 1060.88 608.835 C 1065.71 615.09 1072.84 612.618 1079.2 610.74 C 1074.85 613.838 1046 630.482 1042.28 631.724 C 1029.76 635.908 992.045 651.031 980.927 649.307 C 996.528 639.935 1012.53 631.246 1028.88 623.262 C 1026.7 611.751 1025.18 593.925 1024.57 582.227 z"/>
<path transform="translate(0,0)" fill="rgb(86,63,88)" d="M 1105.63 585.212 C 1119.89 619.464 1054.38 626.781 1041.87 646.097 C 1041.18 647.177 1041.9 652.742 1042.06 654.153 C 1047.11 657.755 1054.85 658.419 1062.02 661.998 C 1059.74 664.957 1057.94 668.251 1056.68 671.762 C 1038.93 664.119 1025.85 662.33 1006.9 659.745 C 1015.04 648.067 1074.66 626.465 1088.39 616.52 C 1085.39 616.653 1079.72 618.899 1076.46 619.796 L 1076.07 618.981 C 1080.05 613.687 1093.53 611.459 1099.18 607.239 C 1106.36 601.886 1104.04 593.239 1105.63 585.212 z"/>
<path transform="translate(0,0)" fill="rgb(99,66,50)" d="M 1295.72 1129.64 C 1295.3 1135.13 1297.36 1136.2 1301.08 1140.14 L 1303.56 1145.02 C 1307.37 1155.24 1314.83 1170.38 1317.52 1179.4 C 1313.38 1180.59 1309.26 1181.82 1305.15 1183.1 C 1301.83 1179.93 1291.62 1159.07 1289.4 1154.12 L 1290.36 1152.95 C 1290.08 1151.04 1283.73 1139.79 1282.28 1138.44 C 1283.52 1130.09 1288.4 1130.51 1295.72 1129.64 z"/>
<path transform="translate(0,0)" fill="rgb(73,59,51)" d="M 1295.72 1129.64 C 1295.3 1135.13 1297.36 1136.2 1301.08 1140.14 C 1295.65 1140.01 1287.29 1139.88 1282.28 1138.44 C 1283.52 1130.09 1288.4 1130.51 1295.72 1129.64 z"/>
<path transform="translate(0,0)" fill="rgb(86,63,88)" d="M 1083.91 585.958 L 1086.39 590.803 L 1086.99 590.728 C 1086.67 584.88 1085.31 578.464 1088.94 574.273 C 1092.2 573.737 1092.11 574.017 1095.25 575.295 C 1103.33 583.308 1096.59 602.403 1086.91 607.873 C 1091.21 594.217 1082.61 600.322 1083.91 585.958 z"/>
<path transform="translate(0,0)" fill="rgb(133,79,27)" d="M 1291.45 1005.01 C 1298.4 1004.51 1304.28 1004.24 1311.24 1004.15 C 1312.49 1010.73 1314.67 1014 1315.76 1018.74 C 1307.8 1020.14 1299.76 1020.99 1291.68 1021.29 L 1290.47 1020.37 C 1292.99 1019.94 1294.88 1019.52 1297.35 1018.94 C 1298.85 1015.16 1296.88 1009.47 1293.3 1007.73 C 1293.04 1010.81 1293.18 1014.38 1291.49 1016.74 C 1289.85 1013.34 1290.94 1009 1291.45 1005.01 z"/>
<path transform="translate(0,0)" fill="rgb(59,103,52)" d="M 1292.16 722.157 C 1292.38 726.154 1292.81 738.44 1293.7 741.598 C 1288.28 740.658 1284.34 740.609 1279.51 743.151 C 1277.08 746.436 1277.84 745.84 1277.28 750.515 L 1277.2 723.7 C 1282.24 724.255 1287.34 723.729 1292.16 722.157 z"/>
<path transform="translate(0,0)" fill="rgb(127,46,82)" d="M 1181.57 907.464 C 1185.94 905.579 1189.91 902.854 1193.23 899.443 C 1196.19 902.504 1199.38 907.105 1203.83 906.584 L 1201.16 909.806 C 1199.02 909.465 1195.44 905.279 1193.46 903.499 C 1185.46 917.699 1185.27 920.54 1171.53 927.42 L 1169.57 926.769 C 1172.94 923.797 1180.68 919.697 1184.92 917.265 L 1181.57 907.464 z"/>
<path transform="translate(0,0)" fill="rgb(133,79,27)" d="M 851.242 1148.43 L 861.068 1151.2 L 866.559 1153.18 C 861.306 1154.51 861.111 1153.61 856.276 1156.29 C 854.184 1159.53 853.668 1159.85 854.585 1163.68 L 843.878 1159.78 C 846.385 1156.36 848.945 1152.06 851.242 1148.43 z"/>
<path transform="translate(0,0)" fill="rgb(99,66,50)" d="M 969.102 1157.96 C 970.663 1159.16 972.861 1163.25 974.042 1165.19 C 949.43 1184.34 924.354 1197.69 897.371 1212.76 C 885.261 1219.04 872.195 1229.55 859.692 1234.47 C 831.029 1245.76 803.802 1258.01 775.98 1271.34 C 770.451 1266.89 764.172 1262.5 758.394 1258.3 C 754.531 1255.5 751.21 1252.62 747.576 1249.55 C 756.563 1253.11 765.368 1257.1 773.957 1261.53 C 786.351 1256.81 797.683 1249.59 809.641 1244.67 C 841.953 1231.39 870.932 1214.45 900.999 1196.87 C 922.668 1184.2 945.657 1167.28 969.102 1157.96 z"/>
<path transform="translate(0,0)" fill="rgb(99,66,50)" d="M 1065.88 1141.85 C 1074.27 1144.34 1110.73 1165.54 1119.03 1170.92 C 1130.12 1198.04 1146.71 1256.26 1150.27 1285.63 C 1149.65 1284.77 1142.75 1262.56 1141.4 1259.24 C 1134.15 1241.4 1117.33 1189.36 1106.1 1176.61 C 1094.76 1163.73 1067.51 1154.97 1065.88 1141.85 z"/>
<path transform="translate(0,0)" fill="rgb(99,66,50)" d="M 1124.26 1305.87 C 1125.39 1306.22 1124.73 1305.88 1125.8 1307.43 C 1126.01 1316.49 1124.73 1323.47 1122.23 1332.13 C 1101.42 1352.04 1078.19 1371.6 1060.64 1394.57 C 1055.57 1401.19 1050.79 1408.22 1045.21 1414.42 L 1044.44 1415.26 L 1043.08 1415.07 C 1044.57 1406.85 1073.06 1372.88 1079.89 1364.01 C 1091.37 1349.09 1109.93 1315.29 1124.26 1305.87 z"/>
<path transform="translate(0,0)" fill="rgb(99,66,50)" d="M 962.733 986.888 L 963.423 988.403 C 955.196 1002.79 947.843 1015.91 940.546 1030.77 C 944.734 1035.52 952.914 1043.17 958.022 1047.36 C 969.556 1056.82 980.803 1071.66 992.678 1079.84 L 992.405 1081.21 C 990.078 1080.92 986.608 1077.82 984.362 1076.17 C 980.166 1073.52 975.685 1070.27 971.662 1067.33 C 956.304 1056.08 938.022 1045.85 923.595 1033.61 C 927.515 1026.01 954.898 996.706 962.733 986.888 z"/>
<path transform="translate(0,0)" fill="rgb(99,66,50)" d="M 1154.76 1316.91 C 1160.48 1325.01 1148.48 1331.97 1143.55 1338.91 C 1132.36 1354.66 1117.6 1370.43 1109.03 1387.75 C 1101.36 1403.25 1096.32 1421.15 1090.07 1437.42 L 1088.85 1436.97 C 1087.15 1429.39 1091.13 1418.16 1092.33 1411 C 1096.83 1384.08 1106.79 1371.35 1125.11 1351.99 C 1134.7 1341.85 1145.71 1328.32 1154.76 1316.91 z"/>
<path transform="translate(0,0)" fill="rgb(99,66,50)" d="M 1236.16 1160.46 C 1243.17 1166.79 1241.99 1214.79 1241.02 1225.6 C 1233.82 1220.12 1224.56 1212.45 1216.5 1208.87 C 1210.71 1206.31 1213.75 1208.81 1209.29 1210.71 C 1204.55 1210.05 1200.77 1206.86 1196.66 1204.11 C 1191.77 1201.69 1181.93 1197.68 1179.92 1192.83 C 1184.86 1191.21 1222.09 1202.33 1232.89 1204.18 C 1233.73 1189.59 1234.82 1175.02 1236.16 1160.46 z"/>
<path transform="translate(0,0)" fill="rgb(99,66,50)" d="M 918.509 1043 C 927.149 1048.16 1002.6 1100.98 1003.22 1101.84 C 998.168 1100.46 992.305 1095.97 986.545 1093.87 C 963.75 1085.59 943.844 1078.14 927.245 1059.36 C 924.241 1055.97 918.092 1047.87 918.509 1043 z"/>
<path transform="translate(0,0)" fill="rgb(99,66,50)" d="M 999.855 934.065 L 1000.46 935.128 C 997.28 943.313 939.428 1001.13 929.435 1011.28 L 928.258 1009.87 C 930.28 999.831 955.325 972.986 963.617 965.266 C 973.85 955.739 992.279 945.76 999.855 934.065 z"/>
<path transform="translate(0,0)" fill="rgb(99,66,50)" d="M 1064.51 927.299 C 1086.46 925.958 1105.37 928.964 1126.61 933.372 C 1133.89 934.883 1144.4 933.767 1146.76 941.186 C 1125.54 939.623 1088.57 935.634 1066.57 930.814 C 1065.04 930.479 1065.18 929.335 1064.51 927.299 z"/>
<path transform="translate(0,0)" fill="rgb(99,66,50)" d="M 1077.78 1401.99 L 1078.56 1403.11 C 1076.59 1413.07 1064.21 1433.53 1057.72 1441.85 C 1052.72 1448.28 1051.91 1450.73 1043.99 1451.82 C 1043.14 1449.35 1043.06 1448.63 1042.65 1446.03 C 1045.07 1437.17 1070.17 1407.79 1077.78 1401.99 z"/>
<path transform="translate(0,0)" fill="rgb(99,66,50)" d="M 695.013 1159.28 C 695.694 1160.37 694.089 1181.94 696.573 1187.6 C 702.557 1201.21 718.767 1213 724.246 1226.01 L 722.445 1226.53 C 709.428 1218.35 697.953 1203.72 688.529 1198.42 C 689.541 1187.84 691.858 1169.1 695.013 1159.28 z"/>
<path transform="translate(0,0)" fill="rgb(99,66,50)" d="M 1139.14 1179.26 C 1153.71 1184.36 1157.02 1222.03 1157.22 1235.31 C 1147.7 1221.83 1141.63 1195.62 1139.14 1179.26 z"/>
<path transform="translate(0,0)" fill="rgb(99,66,50)" d="M 1051.31 844.504 C 1058.46 848.823 1056.11 875.197 1055.42 882.903 C 1051.77 887.793 1041.43 897.754 1036.67 902.53 L 1034.9 903.317 C 1034 899.393 1043.43 890.078 1045.33 885.697 C 1050.45 873.922 1049.7 857.988 1051.31 844.504 z"/>
<path transform="translate(0,0)" fill="rgb(99,66,50)" d="M 867.605 852.973 C 874.68 853.783 917.078 868.198 919.94 872.636 C 902.729 875.144 891.308 866.376 875.858 859.721 C 871.436 857.816 868.941 856.873 867.605 852.973 z"/>
<path transform="translate(0,0)" fill="rgb(99,66,50)" d="M 1058.53 803.933 L 1059.08 804.538 C 1061.82 818.722 1068.76 851.042 1067.47 864.694 L 1065.08 864.343 C 1058.07 853.846 1057.82 816.913 1058.53 803.933 z"/>
<path transform="translate(0,0)" fill="rgb(99,66,50)" d="M 739.562 1221.64 C 745.207 1227.41 753.833 1235.61 757.358 1242.8 L 755.777 1244.27 C 748.037 1241.64 737.487 1237.15 735.611 1228.54 C 735.919 1225.11 737.239 1224.23 739.562 1221.64 z"/>
<path transform="translate(0,0)" fill="rgb(99,66,50)" d="M 972.167 901.931 C 976.036 903.701 975.851 903.75 980.037 903.933 C 982.405 909.511 987.732 918.955 980.261 922.631 C 971.542 920.546 971.743 908.869 972.167 901.931 z"/>
<path transform="translate(0,0)" fill="rgb(99,66,50)" d="M 1025.38 1123.91 C 1032.92 1125.24 1045.04 1133.65 1045.42 1141.88 C 1037.39 1141.81 1026.84 1131.83 1025.38 1123.91 z"/>
<path transform="translate(0,0)" fill="rgb(99,66,50)" d="M 1178.14 1208.89 C 1185.96 1212.04 1196.08 1217.1 1203.09 1221.73 C 1195.18 1222.08 1190.74 1221.5 1182.81 1220.6 C 1180.27 1215.92 1179.72 1214.02 1178.14 1208.89 z"/>
<path transform="translate(0,0)" fill="rgb(99,66,50)" d="M 1166.67 1284.91 C 1169.59 1284.95 1169.78 1284.73 1172.39 1285.86 L 1173.26 1288.3 C 1172.31 1294.15 1167.21 1302.59 1164.3 1308.45 L 1162.51 1310.45 L 1161.65 1309.36 C 1162.07 1301.43 1165.57 1293.26 1166.67 1284.91 z"/>
<path transform="translate(0,0)" fill="rgb(99,66,50)" d="M 972.167 901.931 C 977.091 892.89 963.747 886.968 965.017 877.788 L 966.243 876.826 C 973.113 881.708 975.714 895.798 980.037 903.933 C 975.851 903.75 976.036 903.701 972.167 901.931 z"/>
<path transform="translate(0,0)" fill="rgb(99,66,50)" d="M 1128.51 1263.69 C 1134.15 1269.61 1138.46 1276.66 1141.17 1284.38 C 1133.77 1279.96 1126.33 1272.9 1128.51 1263.69 z"/>
<path transform="translate(0,0)" fill="rgb(59,103,52)" d="M 827.925 331.77 C 865.235 386.554 905.888 440.643 944.541 494.58 C 947.795 499.121 953.342 525.408 955.364 533.182 C 959.759 549.664 964.697 565.997 970.171 582.153 L 972.465 584.262 L 974.391 583.134 C 978.894 576.09 980.1 569.302 978.879 561.15 C 969.615 511.393 959.635 461.772 948.942 412.303 C 967.578 400.576 992.177 385.608 1011.45 375.303 C 1022.58 389.269 1035.8 409.9 1046.4 425.001 C 1031.97 441.692 1016.41 457.753 1002.08 474.444 C 1010.68 496.574 1019.43 518.641 1028.34 540.644 C 1015.42 556.637 997.261 580.251 985.563 597.224 C 984.093 600.845 982.498 604.413 980.779 607.923 C 977.511 601.661 971.953 600.901 965.579 602.114 L 964.81 601.732 C 939.229 592.289 909.342 580.107 884.277 569.238 C 886.519 551.996 888.691 528.447 892.36 511.827 C 842.446 515.292 843.879 514.807 803.962 488.17 C 804.794 473.018 808.957 448.521 811.334 432.946 C 816.416 399.148 821.947 365.42 827.925 331.77 z"/>
<path transform="translate(0,0)" fill="rgb(59,103,52)" d="M 948.942 412.303 C 967.578 400.576 992.177 385.608 1011.45 375.303 C 1022.58 389.269 1035.8 409.9 1046.4 425.001 C 1031.97 441.692 1016.41 457.753 1002.08 474.444 C 1010.68 496.574 1019.43 518.641 1028.34 540.644 C 1015.42 556.637 997.261 580.251 985.563 597.224 C 982.052 589.311 1002.55 539.996 1001.69 528.63 C 999.503 499.765 984.487 470.706 977.782 442.61 C 981.451 436.019 987.745 421.569 997.137 422.159 C 1006.21 422.729 1010.01 439.16 1002.22 444.808 C 998.498 445.487 998.44 445.723 994.663 444.674 C 987.466 438.159 993.373 434.76 990.247 428.993 C 985.169 432.387 982.746 437.772 979.685 443.15 C 989.697 449.098 992.965 450.853 1004.27 453.403 C 1009.9 447.804 1014.11 443.195 1018.31 436.471 C 1015.33 428.156 1010.38 421.082 1005.6 413.706 L 983.634 411.779 C 976.549 419.569 970.644 428.356 966.11 437.859 C 967.62 448.093 972.999 464.781 976.093 474.953 C 980.967 490.974 985.84 507.851 991.163 523.693 C 988.086 533.309 984.163 554.189 978.879 561.15 C 969.615 511.393 959.635 461.772 948.942 412.303 z"/>
<path transform="translate(0,0)" fill="rgb(67,55,65)" d="M 983.634 411.779 L 1005.6 413.706 C 1010.38 421.082 1015.33 428.156 1018.31 436.471 C 1014.11 443.195 1009.9 447.804 1004.27 453.403 C 992.965 450.853 989.697 449.098 979.685 443.15 C 982.746 437.772 985.169 432.387 990.247 428.993 C 993.373 434.76 987.466 438.159 994.663 444.674 C 998.44 445.723 998.498 445.487 1002.22 444.808 C 1010.01 439.16 1006.21 422.729 997.137 422.159 C 987.745 421.569 981.451 436.019 977.782 442.61 C 984.487 470.706 999.503 499.765 1001.69 528.63 C 1002.55 539.996 982.052 589.311 985.563 597.224 C 984.093 600.845 982.498 604.413 980.779 607.923 C 977.511 601.661 971.953 600.901 965.579 602.114 L 964.81 601.732 L 965.474 600.122 C 963.91 593.58 940.855 568.48 933.993 559.072 C 919.702 539.477 906.931 491.54 893.282 475.101 C 888.24 469.029 845.04 451.091 836.766 448.352 C 835.876 457.454 835.837 476.694 844.425 481.812 C 847.433 481.518 848.497 481.808 850.663 479.821 C 852.216 472.809 845.625 469.076 843.812 461.003 C 844.987 457.797 843.968 459.181 847.708 457.317 C 859.418 458.503 856.98 480.545 856.365 488.826 C 848.337 492.522 839.77 496.939 834.571 486.622 C 826.504 470.614 827.295 452.371 831.658 435.699 C 850.617 440.523 885.963 454.424 904.495 461.869 C 922.313 496.307 930.071 537.573 956.713 568.331 C 961.154 573.457 963.897 579.197 970.171 582.153 L 972.465 584.262 L 974.391 583.134 C 978.894 576.09 980.1 569.302 978.879 561.15 C 984.163 554.189 988.086 533.309 991.163 523.693 C 985.84 507.851 980.967 490.974 976.093 474.953 C 972.999 464.781 967.62 448.093 966.11 437.859 C 970.644 428.356 976.549 419.569 983.634 411.779 z"/>
<path transform="translate(0,0)" fill="rgb(59,103,52)" d="M 1346 1123.76 C 1354.84 1110.82 1376.63 1078.67 1386.03 1068.4 C 1394.73 1058.9 1440.87 1040.6 1454.55 1036.48 C 1471.8 1077.26 1465.19 1080.58 1467.64 1122.09 C 1446.17 1122.47 1424.69 1122.64 1403.21 1122.6 C 1405.21 1132.06 1408.81 1151.15 1409.39 1160.71 C 1397.52 1162.17 1372.65 1167.3 1362.71 1167.38 C 1355.77 1167.44 1309.09 1147.25 1304.35 1143.94 L 1303.56 1145.02 L 1301.08 1140.14 C 1297.36 1136.2 1295.3 1135.13 1295.72 1129.64 L 1296.27 1127.67 C 1294.6 1121.17 1295.01 1121.31 1289.31 1118.7 C 1306.93 1120.46 1328.47 1122.83 1346 1123.76 z"/>
<path transform="translate(0,0)" fill="rgb(67,60,61)" d="M 1400.09 1083.13 C 1410.2 1082.17 1443.6 1078.79 1451.5 1081.39 C 1455.72 1088.13 1456.01 1105.98 1448.63 1111.17 C 1445.17 1112.26 1434.61 1109.95 1431.38 1108.34 C 1425.39 1105.34 1428.99 1093.16 1435.17 1091.97 C 1439.73 1095.91 1437.91 1098.89 1441.75 1101.36 C 1445.28 1098.52 1445.27 1092.65 1442.93 1089.05 C 1439.11 1088 1412.98 1092.57 1407.75 1093.47 C 1391.12 1115.66 1381.62 1141.31 1350.54 1145.76 C 1335.15 1147.96 1319.29 1142.38 1304.35 1143.94 L 1303.56 1145.02 L 1301.08 1140.14 C 1297.36 1136.2 1295.3 1135.13 1295.72 1129.64 L 1296.27 1127.67 C 1304.14 1130.95 1315.25 1131.99 1323.64 1133.79 C 1372.45 1144.27 1379.09 1114.31 1400.09 1083.13 z"/>
<path transform="translate(0,0)" fill="rgb(59,103,52)" d="M 629.019 897.568 C 641.811 909.692 662.413 934.594 674.661 948.763 C 668.659 965.203 663.476 988.7 657.935 1006.39 C 667.339 1016.07 681.165 1029.92 688.878 1040.8 C 692.938 1044.4 695.913 1048.67 699.24 1052.98 C 698.687 1056.94 698.442 1060.48 696.936 1064.19 C 691.907 1062.59 687.848 1061.81 682.716 1060.75 C 659.771 1055.05 632.308 1048.32 609.976 1041.37 C 598.682 1014.66 588.81 981.452 581.613 953.504 C 590.493 940.747 617.635 911.247 629.019 897.568 z"/>
<path transform="translate(0,0)" fill="rgb(67,55,65)" d="M 631.516 934.834 C 641.001 941.195 649.286 949.654 657.671 957.505 C 654.736 968.084 650.164 976.723 645.653 986.719 C 639.074 985.485 633.798 984.395 627.333 982.703 L 623.58 982.599 C 623.516 987.835 622.548 989.136 626.927 993.029 C 636.653 1001.67 679.181 1039.15 688.878 1040.8 C 692.938 1044.4 695.913 1048.67 699.24 1052.98 C 698.687 1056.94 698.442 1060.48 696.936 1064.19 C 691.907 1062.59 687.848 1061.81 682.716 1060.75 C 686.523 1060.01 685.262 1061 687.379 1058.65 C 685.061 1053.38 620.421 1012.58 611.528 994.697 C 611.294 985.599 627.214 946.175 631.516 934.834 z"/>
<path transform="translate(0,0)" fill="rgb(59,103,52)" d="M 631.895 955.862 L 635.02 952.052 C 640.89 952.228 642.57 956.188 647.575 960.174 C 645.665 965.416 643.615 972.768 639.199 976.033 L 637.824 976.113 C 634.241 972.696 634.798 969.123 635.413 964.673 C 634.913 964.071 634.413 963.469 633.912 962.867 C 632.142 960.845 632.246 958.628 631.895 955.862 z"/>
<path transform="translate(0,0)" fill="rgb(67,60,61)" d="M 623.58 982.599 C 625.895 973.859 626.691 962.813 631.895 955.862 C 632.246 958.628 632.142 960.845 633.912 962.867 C 630.238 966.322 627.456 977.587 627.333 982.703 L 623.58 982.599 z"/>
<path transform="translate(0,0)" fill="rgb(61,92,59)" d="M 1134.29 1028.63 C 1145.7 1025.54 1158.99 1021.8 1170.61 1020.25 C 1180.44 1027.24 1209.26 1047.89 1217.1 1055.38 L 1218.55 1054.71 C 1219.72 1059.88 1220.22 1068.54 1219.88 1073.75 C 1215.07 1071.74 1211.42 1070.27 1206.8 1067.76 C 1189.78 1061.48 1173 1052.01 1155.77 1046.91 C 1165.37 1060.16 1180.06 1072.99 1189.8 1086.79 C 1174.23 1095.87 1153.88 1105.23 1137.5 1112.88 C 1127.95 1097.02 1116.81 1078.38 1109.2 1061.61 C 1118.89 1049.76 1125.67 1041.15 1134.29 1028.63 z"/>
<path transform="translate(0,0)" fill="rgb(67,60,61)" d="M 1124.2 1061.8 C 1129.92 1054.29 1142.04 1037.97 1148.66 1032.16 C 1166.78 1016.27 1196.57 1055.37 1217.1 1055.38 L 1218.55 1054.71 C 1219.72 1059.88 1220.22 1068.54 1219.88 1073.75 C 1215.07 1071.74 1211.42 1070.27 1206.8 1067.76 C 1206.55 1066.84 1206.3 1065.91 1206.05 1064.98 C 1197.69 1058.72 1184.86 1051.51 1176.17 1046.47 C 1169.11 1042.37 1164.48 1039.68 1158.47 1036.78 C 1150.7 1045.04 1139.87 1053.47 1134.24 1062.09 C 1136.17 1066.33 1138.24 1071.17 1140.41 1075.23 L 1142.13 1073.89 C 1140.17 1069.09 1140.14 1067.96 1141.64 1063.44 C 1143.51 1061.56 1144.08 1060.47 1146.93 1060.49 C 1169.24 1060.66 1166.44 1096.22 1148.27 1093.53 C 1138.79 1092.13 1128.79 1070.67 1124.2 1061.8 z"/>
<path transform="translate(0,0)" fill="rgb(61,92,59)" d="M 1142.13 1073.89 C 1144.96 1072.21 1145.69 1071.47 1147.86 1069.13 C 1156.36 1070.09 1157.7 1080.9 1152.85 1086.23 C 1146.01 1087.57 1143.29 1080.38 1140.41 1075.23 L 1142.13 1073.89 z"/>
<path transform="translate(0,0)" fill="rgb(61,92,59)" d="M 1345.65 741.689 C 1361.16 738.608 1386.21 733.137 1401.31 731.885 C 1412.36 750.107 1423.79 768.096 1435.59 785.841 C 1423.56 792.893 1408.75 801.858 1396.54 808.142 C 1386.34 796.901 1374.8 784.917 1364.9 773.64 C 1356.91 781.268 1319.28 798.452 1308.28 801.5 L 1308.12 800.289 C 1305.96 799.927 1301.51 801.832 1298.95 802.634 L 1298.16 801.723 C 1299.15 797.167 1301.14 796.236 1302.62 791.895 C 1306.55 786.114 1319.52 772.817 1325.01 766.406 C 1329.95 760.645 1341.09 745.841 1345.65 741.689 z"/>
<path transform="translate(0,0)" fill="rgb(181,139,6)" d="M 826.925 1153.8 C 813.666 1151.04 809.782 1158.27 794.623 1146.02 C 787.07 1139.95 782.377 1131.02 781.665 1121.35 C 779.416 1094.3 806.806 1072.93 832.28 1084.37 C 837.318 1086.63 840.597 1089.8 844.597 1093.46 L 850.374 1102.24 L 850.794 1103.11 C 851.234 1104.74 853.922 1116.06 854.125 1116.56 L 852.587 1124.4 C 851.194 1132.41 847.234 1138.88 842.598 1145.47 L 851.242 1148.43 C 848.945 1152.06 846.385 1156.36 843.878 1159.78 L 828.572 1153.81 L 826.925 1153.8 z"/>
<path transform="translate(0,0)" fill="rgb(125,90,14)" d="M 828.572 1153.81 C 831.539 1149.99 838.129 1147.2 842.598 1145.47 L 851.242 1148.43 C 848.945 1152.06 846.385 1156.36 843.878 1159.78 L 828.572 1153.81 z"/>
<path transform="translate(0,0)" fill="rgb(249,223,74)" d="M 798.717 1104.17 C 805.329 1094.54 808.402 1091.27 819.259 1098.04 C 821.073 1108.86 845.926 1111.91 833.177 1129.43 C 830.143 1133.6 825.878 1137.9 820.485 1138.47 C 814.904 1139.05 808.085 1137.51 803.913 1133.6 C 799.077 1129.06 796.941 1121.02 796.815 1114.6 C 796.77 1112.35 797.282 1110.54 797.956 1108.42 C 798.407 1107.01 798.568 1105.64 798.717 1104.17 z"/>
<path transform="translate(0,0)" fill="rgb(234,250,176)" d="M 798.717 1104.17 C 805.329 1094.54 808.402 1091.27 819.259 1098.04 C 815.239 1108.43 807.153 1116.7 798.717 1104.17 z"/>
<path transform="translate(0,0)" fill="rgb(234,6,176)" d="M 1181.57 907.464 C 1166.98 913.745 1150.01 909.847 1139.62 897.832 C 1129.24 885.817 1127.84 868.458 1136.17 854.935 C 1144.5 841.413 1160.63 834.849 1176.03 838.714 C 1191.43 842.579 1202.55 855.982 1203.51 871.834 C 1204.13 882.074 1200.4 892.099 1193.23 899.443 C 1189.91 902.854 1185.94 905.579 1181.57 907.464 z"/>
<path transform="translate(0,0)" fill="rgb(250,73,246)" d="M 1149.11 870.763 C 1147.45 868.347 1147.49 868.189 1146.52 865.38 C 1147.71 854.758 1156.73 852.299 1165.11 857.901 C 1173.93 854.767 1183.21 858.405 1185.8 867.942 C 1187.55 874.574 1186.45 881.637 1182.76 887.418 C 1171.31 905.259 1147.27 891.086 1149.11 870.763 z"/>
<path transform="translate(0,0)" fill="rgb(251,190,235)" d="M 1149.11 870.763 C 1147.45 868.347 1147.49 868.189 1146.52 865.38 C 1147.71 854.758 1156.73 852.299 1165.11 857.901 C 1161.47 864.218 1157.58 872.078 1149.11 870.763 z"/>
<path transform="translate(0,0)" fill="rgb(234,6,176)" d="M 1062.02 661.998 C 1071.55 649.591 1087.99 644.742 1102.73 649.991 C 1121.52 656.682 1131.31 677.344 1124.6 696.123 C 1117.89 714.902 1097.22 724.675 1078.45 717.942 C 1059.67 711.21 1049.93 690.526 1056.68 671.762 C 1057.94 668.251 1059.74 664.957 1062.02 661.998 z"/>
<path transform="translate(0,0)" fill="rgb(250,73,246)" d="M 1072.94 679.936 C 1065.05 668.592 1074.28 656.891 1086.02 665.337 C 1097.11 664.857 1109.17 669.213 1109.82 682.016 C 1110.04 687.457 1108.05 692.757 1104.31 696.71 C 1100.66 700.62 1095.77 703.005 1090.39 703.116 C 1085.96 703.172 1081.72 701.28 1078.8 697.939 C 1074.95 693.617 1071.41 685.785 1072.94 679.936 z"/>
<path transform="translate(0,0)" fill="rgb(251,190,235)" d="M 1072.94 679.936 C 1065.05 668.592 1074.28 656.891 1086.02 665.337 C 1084.62 672.434 1079.78 677.637 1072.94 679.936 z"/>
<path transform="translate(0,0)" fill="rgb(63,220,13)" d="M 924.541 832.154 C 907.83 823.927 900.152 804.315 906.834 786.929 C 913.516 769.544 932.354 760.123 950.273 765.206 C 968.191 770.289 979.276 788.198 975.834 806.503 C 972.392 824.808 955.559 837.467 937.018 835.694 C 932.679 835.279 928.451 834.079 924.541 832.154 z"/>
<path transform="translate(0,0)" fill="rgb(89,238,23)" d="M 937.012 771.513 C 944.124 771.892 948.87 773.041 954.58 777.736 C 961.113 783.149 965.076 791.054 965.506 799.528 C 966.306 816.04 956.009 824.646 940.348 824.988 C 926.914 823.565 917.978 816.096 912.136 803.438 C 910.958 800.886 911.309 797.378 912.701 794.9 C 915.879 789.239 919.891 783.342 924.373 778.619 C 925.171 777.818 934.048 775.095 936.154 774.311 L 937.012 771.513 z"/>
<path transform="translate(0,0)" fill="rgb(164,245,54)" d="M 924.084 793.538 C 917.561 781.503 933.653 770.079 940.772 783.486 L 941.986 784.4 C 947.823 788.728 953.937 789.711 955.307 798.026 C 957.494 811.302 943.688 822.843 932.424 812.597 C 925.646 806.431 926.026 801.748 924.084 793.538 z"/>
<path transform="translate(0,0)" fill="rgb(234,250,176)" d="M 924.084 793.538 C 917.561 781.503 933.653 770.079 940.772 783.486 C 936.485 788.006 931.014 795.419 924.084 793.538 z"/>
<path transform="translate(0,0)" fill="rgb(7,146,236)" d="M 726.906 641.722 C 739.757 636.575 749.136 635.106 761.436 643.45 C 780.043 653.829 779.504 668.702 775.428 687.392 C 775.165 688.596 778.995 690.339 779.809 690.768 C 774.332 693.471 774.212 694.269 771.013 699.644 C 767.571 697.626 767.076 698.429 763.854 700.664 C 743.757 714.607 722.491 710.211 709.772 688.975 C 701.555 669.274 709.006 652.153 726.906 641.722 z"/>
<path transform="translate(0,0)" fill="rgb(0,133,220)" d="M 726.906 641.722 C 739.757 636.575 749.136 635.106 761.436 643.45 C 755.058 643.359 743.275 641.451 738.344 643.695 C 733.988 643.542 730.483 643.954 726.906 641.722 z"/>
<path transform="translate(0,0)" fill="rgb(14,250,249)" d="M 723.742 663.433 C 723.209 653.877 731.584 649.108 740.343 651.574 C 766.035 650.75 772.538 676.873 758.033 690.903 C 753.805 694.966 748.074 697.08 742.22 696.735 C 732.799 696.193 728.373 691.709 722.51 685.5 C 722.533 676.027 722.881 672.623 723.742 663.433 z"/>
<path transform="translate(0,0)" fill="rgb(131,252,253)" d="M 723.742 663.433 C 723.209 653.877 731.584 649.108 740.343 651.574 C 743.424 659.891 736.731 664.682 729.528 666.965 C 726.024 666.325 726.862 666.228 723.742 663.433 z"/>
<path transform="translate(0,0)" fill="rgb(243,119,40)" d="M 1311.24 1004.15 C 1313.02 991.106 1315.66 981.344 1326.96 972.674 C 1334.48 966.852 1344.05 964.347 1353.46 965.736 C 1362.96 967.145 1371.52 972.26 1377.25 979.961 C 1382.85 987.614 1385.09 997.218 1383.45 1006.56 C 1381.64 1017.3 1372.6 1031.6 1361.27 1033.74 C 1345.13 1040.12 1330.22 1034.8 1318.95 1022.28 L 1315.76 1018.74 C 1314.67 1014 1312.49 1010.73 1311.24 1004.15 z"/>
<path transform="translate(0,0)" fill="rgb(213,121,90)" d="M 1318.95 1022.28 C 1322.25 1021.55 1324.21 1022.33 1326.67 1024.92 C 1334.89 1033.58 1353.49 1030.54 1361.27 1033.74 C 1345.13 1040.12 1330.22 1034.8 1318.95 1022.28 z"/>
<path transform="translate(0,0)" fill="rgb(249,223,74)" d="M 1329.14 986.837 C 1334.3 980.039 1337.11 976.936 1345.96 977.951 C 1354.25 980.092 1362.2 982.524 1366.72 990.468 C 1372.93 1001.4 1370.42 1014.25 1358.75 1019.89 C 1353.34 1022.55 1347.08 1022.88 1341.42 1020.79 C 1327.31 1015.57 1324.65 999.714 1329.14 986.837 z"/>
<path transform="translate(0,0)" fill="rgb(234,250,176)" d="M 1329.14 986.837 C 1334.3 980.039 1337.11 976.936 1345.96 977.951 C 1350.25 986.975 1343.1 995.206 1334.23 994.414 C 1330.55 992.322 1330.09 990.936 1329.14 986.837 z"/>
<path transform="translate(0,0)" fill="rgb(177,77,51)" d="M 1305.15 1183.1 C 1309.26 1181.82 1313.38 1180.59 1317.52 1179.4 L 1318.64 1180.71 C 1340.75 1178.88 1362.63 1190.63 1361.2 1215.3 C 1360.97 1225.59 1358.13 1233.67 1350.41 1240.87 C 1343.28 1247.52 1333.8 1251.06 1324.07 1250.7 C 1306.91 1250 1290.56 1236.57 1290.14 1218.79 C 1288.46 1203.54 1297.23 1196.08 1305.59 1185.48 L 1305.15 1183.1 z"/>
<path transform="translate(0,0)" fill="rgb(243,119,40)" d="M 1309.31 1209.69 C 1307.29 1206.99 1307.38 1207.18 1306.45 1203.94 C 1307.86 1193.41 1315.15 1189.41 1323.83 1196.7 L 1325.43 1197.7 C 1346.16 1197.17 1354.31 1218.99 1340.6 1230.79 C 1335.97 1234.74 1329.91 1236.61 1323.86 1235.95 C 1309.84 1234.33 1307.04 1221.62 1309.31 1209.69 z"/>
<path transform="translate(0,0)" fill="rgb(250,230,194)" d="M 1309.31 1209.69 C 1307.29 1206.99 1307.38 1207.18 1306.45 1203.94 C 1307.86 1193.41 1315.15 1189.41 1323.83 1196.7 C 1321.78 1203.56 1317.18 1209.89 1309.31 1209.69 z"/>
<path transform="translate(0,0)" fill="rgb(63,220,13)" d="M 1277.2 723.7 C 1259.08 721.704 1245.39 706.364 1245.45 688.135 C 1245.52 669.907 1259.32 654.662 1277.45 652.792 C 1295.58 650.922 1312.2 663.029 1315.99 680.861 C 1319.77 698.692 1309.49 716.505 1292.16 722.157 C 1287.34 723.729 1282.24 724.255 1277.2 723.7 z"/>
<path transform="translate(0,0)" fill="rgb(164,245,54)" d="M 1263.67 681.419 C 1260.28 670.201 1268.92 659.84 1279.8 667.014 C 1302.88 668.904 1304.85 695.425 1291.04 706.001 C 1287.62 708.671 1283.19 709.693 1278.94 708.793 C 1266.45 706.192 1259.63 693.494 1263.67 681.419 z"/>
<path transform="translate(0,0)" fill="rgb(234,250,176)" d="M 1263.67 681.419 C 1260.28 670.201 1268.92 659.84 1279.8 667.014 C 1281.69 677.019 1272.44 683.671 1263.67 681.419 z"/>
<path transform="translate(0,0)" fill="url(#Gradient1)" d="M 832.537 1079.35 C 841.526 1079.24 849.423 1077.38 856.332 1084.47 C 866.037 1094.43 868.172 1122.64 866.975 1136.1 C 866.183 1132.24 865.426 1129.4 864.335 1125.59 C 863.861 1129.47 863.577 1132.07 862.01 1135.7 C 859.923 1140.53 853.466 1143.83 848.955 1140.58 C 848.938 1134.86 855.544 1130.21 856.092 1117.75 L 854.125 1116.56 C 853.922 1116.06 851.234 1104.74 850.794 1103.11 C 864.129 1109.96 854.953 1106.22 859.453 1112.16 C 865.695 1103.36 857.091 1087.56 848.812 1084.03 C 846 1087.19 850.544 1095.97 850.374 1102.24 L 844.597 1093.46 C 844.292 1089.24 835.923 1082.44 832.537 1079.35 z"/>
<path transform="translate(0,0)" fill="rgb(251,190,235)" fill-opacity="0.0235294" d="M 1203.51 871.834 C 1203.76 873.297 1203.97 874.619 1204.3 876.067 C 1204.38 869.697 1204.31 867.731 1205.94 861.354 L 1206.68 861.397 C 1207.45 866.906 1207.36 888.092 1207.68 889.042 C 1208.27 886.929 1208.54 886.403 1210.02 884.785 C 1210.25 880.034 1209.02 862.293 1209.34 861.663 C 1212.06 864.258 1212.78 865.378 1215 868.48 C 1216.02 874.316 1216.88 881.582 1217.14 887.689 C 1217.15 887.911 1220.23 891.246 1220.76 891.809 C 1218.5 895.647 1205.95 900.016 1204.29 904.406 L 1203.83 906.584 C 1199.38 907.105 1196.19 902.504 1193.23 899.443 C 1200.4 892.099 1204.13 882.074 1203.51 871.834 z"/>
<path transform="translate(0,0)" fill="rgb(250,230,194)" fill-opacity="0.0352941" d="M 854.125 1116.56 L 856.092 1117.75 C 855.544 1130.21 848.938 1134.86 848.955 1140.58 C 853.466 1143.83 859.923 1140.53 862.01 1135.7 C 863.577 1132.07 863.861 1129.47 864.335 1125.59 C 865.426 1129.4 866.183 1132.24 866.975 1136.1 C 866.322 1146.04 863.334 1144.63 861.068 1151.2 L 851.242 1148.43 L 842.598 1145.47 C 847.234 1138.88 851.194 1132.41 852.587 1124.4 L 854.125 1116.56 z"/>
<path transform="translate(0,0)" fill="rgb(250,230,194)" fill-opacity="0.0980392" d="M 850.374 1102.24 C 850.544 1095.97 846 1087.19 848.812 1084.03 C 857.091 1087.56 865.695 1103.36 859.453 1112.16 C 854.953 1106.22 864.129 1109.96 850.794 1103.11 L 850.374 1102.24 z"/>
</svg>