<svg version="1.1" xmlns="http://www.w3.org/2000/svg" style="display: block;" viewBox="0 0 2048 2048" width="1024" height="1024" preserveAspectRatio="none">
<defs>
	<linearGradient id="Gradient1" gradientUnits="userSpaceOnUse" x1="579.452" y1="1070.01" x2="533.204" y2="1047.62">
		<stop class="stop0" offset="0" stop-opacity="1" stop-color="rgb(146,120,86)"/>
		<stop class="stop1" offset="1" stop-opacity="1" stop-color="rgb(177,148,97)"/>
	</linearGradient>
	<linearGradient id="Gradient2" gradientUnits="userSpaceOnUse" x1="820.626" y1="1444.81" x2="820.223" y2="1499.73">
		<stop class="stop0" offset="0" stop-opacity="1" stop-color="rgb(144,118,88)"/>
		<stop class="stop1" offset="1" stop-opacity="1" stop-color="rgb(185,159,106)"/>
	</linearGradient>
	<linearGradient id="Gradient3" gradientUnits="userSpaceOnUse" x1="620.62" y1="1448.98" x2="783.571" y2="1384.39">
		<stop class="stop0" offset="0" stop-opacity="1" stop-color="rgb(117,95,57)"/>
		<stop class="stop1" offset="1" stop-opacity="1" stop-color="rgb(165,138,91)"/>
	</linearGradient>
	<linearGradient id="Gradient4" gradientUnits="userSpaceOnUse" x1="542.796" y1="1288.91" x2="542.351" y2="1368.02">
		<stop class="stop0" offset="0" stop-opacity="1" stop-color="rgb(146,120,76)"/>
		<stop class="stop1" offset="1" stop-opacity="1" stop-color="rgb(173,146,96)"/>
	</linearGradient>
	<linearGradient id="Gradient5" gradientUnits="userSpaceOnUse" x1="528.336" y1="1022.61" x2="719.298" y2="1265.99">
		<stop class="stop0" offset="0" stop-opacity="1" stop-color="rgb(125,99,58)"/>
		<stop class="stop1" offset="1" stop-opacity="1" stop-color="rgb(177,147,97)"/>
	</linearGradient>
</defs>
<path transform="translate(0,0)" fill="rgb(0,0,0)" d="M 1848.66 450.579 C 1862.04 444.261 1875.2 437.478 1888.11 430.242 C 1895.65 425.935 1913.44 413.249 1919.96 411.286 C 1924.92 409.795 1947.58 408.273 1954.28 407.72 C 1951.83 413.347 1935.9 451.593 1933.66 453.467 C 1910.9 472.482 1882.65 500.382 1862.61 521.855 C 1875.31 514.487 1904.29 496.463 1916.25 491.897 L 1878.97 558.886 C 1849.6 567.519 1817.92 595.041 1791.84 613.637 C 1810.95 606.129 1830.41 597.74 1850.32 593.002 C 1843.05 604.427 1823.98 635.432 1814.06 643.302 C 1793.11 659.925 1766.6 677.019 1744.33 692.454 L 1582.79 803.757 C 1572.43 811.023 1556.4 823.029 1545.25 829.435 C 1544.02 830.143 1541.67 829.752 1540.23 829.478 L 1538.04 827.936 C 1539.36 821.567 1553.54 805.678 1558.35 799.823 C 1548.48 805.367 1540.1 810.322 1530.88 816.846 C 1527.15 819.48 1513.44 830.561 1510.25 831.845 C 1492.24 839.085 1471.15 843.075 1452.16 849.191 C 1464.7 848.898 1502.72 843.868 1510.44 846.582 C 1511.22 849.99 1511.07 849.782 1509.94 853.147 C 1503.15 859.54 1482.16 873.277 1473.53 879.221 L 1400.53 929.47 L 1179.62 1082.17 C 1145.11 1105.95 1102.72 1132.6 1069.96 1157.56 C 1085.51 1152.15 1101.37 1147.72 1117.47 1144.28 C 1107.24 1152.33 1098.34 1161.47 1088.56 1169.55 C 1063.69 1190.1 1039.25 1212.9 1014.02 1232.82 C 1017.07 1223.13 1020.21 1213.48 1023.46 1203.85 C 1014.06 1204.09 1001.38 1206.42 993.677 1203.11 C 987.934 1195.44 995.646 1176.15 997.973 1167.27 C 1000.52 1157.54 1003.04 1147.84 1005.39 1138.04 C 996.817 1155.05 984.698 1180.77 975.082 1196.48 C 975.115 1209.67 975.697 1212.98 971.68 1225.3 C 963.687 1232.45 953.519 1238.34 944.718 1244.43 C 924.575 1258.38 896.046 1273.89 877.507 1289.53 C 894.693 1299.3 912.189 1301.35 929.856 1308.49 C 908.435 1314.15 886.858 1321.03 865.101 1324.53 C 854.148 1326.29 822.859 1325.14 815.631 1328.98 C 800.721 1336.9 781.231 1351.7 766.776 1361.46 C 783.74 1366.58 802.524 1372.62 820.439 1369.79 C 822.951 1366.15 825.858 1361.68 828.54 1358.25 C 848.062 1360.48 870.827 1362.41 889.955 1365.44 C 880.335 1378.22 858.166 1401.24 845.982 1411.79 C 838.712 1410.19 831.456 1408.53 824.216 1406.81 C 794.708 1417.32 769.04 1431.34 738.388 1439.41 C 746.008 1445.23 755.461 1450.03 763.899 1454.6 C 816.495 1483.06 879.064 1486.06 935.957 1469.97 C 941.058 1468.53 947.113 1466.91 952.279 1466.07 C 933.566 1491.65 915.31 1512.24 884.367 1522.96 C 873.185 1526.83 861.116 1529.25 850.788 1534.83 C 841.436 1540.27 835.326 1539.12 827.147 1532.12 C 739.988 1529 672.995 1494.61 614.112 1431.62 C 606.964 1423.84 600.063 1415.85 593.419 1407.64 C 579.441 1406.09 553.244 1403.36 540.308 1400.12 C 485.454 1434.81 430.25 1473.17 376.137 1509.31 C 350.023 1526.75 310.11 1551.53 286.211 1569.85 L 285.831 1590.82 C 272.018 1597.17 270.304 1597.85 255.3 1599.69 C 258.078 1602.37 260.416 1604.06 261.755 1607.63 C 261.522 1611.61 259.04 1614.88 256.809 1618.29 C 252.005 1625.61 250.46 1638.95 249.096 1647.83 C 181.983 1673.37 166.188 1691.56 103.415 1642.23 C 83.6228 1563.44 104.756 1558.83 157.331 1507.2 C 176.711 1511.76 185.95 1514.53 205.806 1506.42 C 213.661 1503.21 217.558 1502.97 225.686 1498.1 C 232.239 1500.68 240.709 1503.77 246.883 1506.79 C 323.7 1456.15 399.451 1403.58 475.794 1352.21 C 484.172 1346.57 491.975 1340.86 500.659 1335.56 C 500.421 1320.47 507.983 1299.89 512.73 1285.1 C 479.485 1215.9 465.901 1137.54 490.845 1063.66 C 494.751 1052.08 500.515 1041.4 505.023 1030.1 C 507.197 1024.42 506.157 1014.85 508.877 1009.21 C 512.112 1002.52 520.271 1000.7 526.847 999.141 C 553.792 967.018 582.25 955.264 622.54 948.695 C 569.941 1004.32 536.846 1064.98 549.495 1144.15 C 566.415 1127.61 585.987 1113.19 604.59 1098.54 C 621.729 1085.03 620.725 1081.85 625.051 1061.56 C 636.529 1057.13 674.631 1047.64 687.531 1045.59 C 680.966 1064.11 674.013 1082.49 666.675 1100.73 C 656.429 1103.69 651.779 1104.46 645.964 1114.82 C 639.833 1125.74 636.812 1141.2 634.319 1153.42 C 645.666 1146.97 679.222 1126.12 688.3 1117.48 C 695.808 1110.34 712.329 1076.9 719.833 1066.09 C 731.19 1049.73 744.148 1034.25 757.452 1019.36 C 755.544 1031.55 748.068 1063.09 753.714 1071.78 C 759.52 1074.29 776.674 1060.43 782.052 1056.73 L 824.847 1027.68 C 830.787 1023.67 841.945 1015.62 847.889 1012.41 C 861.492 1012.81 866.37 1013.63 878.561 1020.63 C 902.356 1016.78 920.751 1017.21 943.914 1014.57 C 932.795 1011.93 923.009 1010.52 911.737 1009.14 C 902.628 1008.03 885.415 1008.04 879.556 1000.89 C 879.113 994.353 887.859 977.935 891.03 971.229 C 882.233 969.62 870.346 969.335 861.194 968.846 C 883.669 957.369 906.153 945.76 928.678 934.4 C 947.329 924.994 966.824 916.715 985.09 906.509 C 976.889 915.303 971.488 924.841 964.235 933.311 C 960.012 938.212 955.495 943.285 951.393 948.247 L 966.14 938.733 C 1045.67 885.718 1125.61 833.323 1205.95 781.554 C 1229.97 765.429 1254.08 749.446 1278.29 733.606 C 1289.16 726.37 1308.14 712.884 1319.18 707.305 C 1308.17 723.218 1301.02 736.693 1291.65 753.547 C 1308.19 741.023 1321.29 723.902 1337.9 711.839 C 1346 705.959 1361.33 702.726 1370.53 698.324 C 1380.24 693.679 1391.46 684.079 1400.12 677.282 C 1391.48 680.255 1364.85 692.56 1358.29 689.962 C 1354.86 681.213 1361.02 678.033 1367.56 673.699 C 1431.88 631.056 1496.59 589.001 1560.67 545.989 L 1645.37 489.399 C 1653.59 483.956 1677.94 466.989 1684.76 463.609 C 1695.28 458.397 1731.57 448.11 1743.31 445.8 C 1738.12 455.938 1712.02 485.457 1703.43 495.606 C 1715.25 486.83 1727.41 478.527 1739.89 470.718 C 1765.99 454.41 1768.03 453.261 1788.29 431.262 C 1814.6 425.352 1849.77 419.33 1876.53 415.327 C 1866.2 424.821 1856.26 434.724 1846.72 445.013 C 1841.81 449.831 1837.39 454.216 1832.75 459.293 C 1837.58 456.554 1843.76 452.818 1848.66 450.579 z"/>
<path transform="translate(0,0)" fill="rgb(129,105,66)" d="M 813.171 1185.08 C 820.905 1184.29 843.379 1167.94 851.821 1164.15 C 835.25 1191.24 815.729 1213.83 798.268 1239.25 C 776.584 1227.31 769.926 1236.58 751.37 1250.03 C 722.644 1270.85 693.758 1296.07 677.928 1328.36 C 674.852 1334.77 661.478 1366.32 661.489 1372.22 C 664.213 1370.72 664.114 1370.46 666.074 1367.94 C 682.215 1383.25 690.536 1388.85 712.992 1382.58 C 706.59 1382.51 699.39 1382.74 693.556 1380.13 C 686.078 1376.79 671.211 1372.18 670.114 1363.22 C 671.798 1360.16 671.766 1359.7 674.618 1357.59 C 679.38 1360.24 681.657 1363.74 686.702 1366.61 C 701.691 1375.16 718.769 1371.96 734.758 1369.1 C 767.1 1388.73 795.14 1394.39 832.829 1385.25 L 834.473 1384.84 C 798.583 1386.61 773.974 1386.32 741.483 1367.11 L 756.041 1362 C 773.464 1370.82 800.398 1379.86 820.424 1374.89 C 825.987 1373.5 828.494 1368.86 831.275 1364.09 C 848.178 1366.74 865.219 1366.46 880.768 1368.9 C 868.61 1381.31 854.959 1392.35 844.273 1405.62 C 811.373 1397.54 811.085 1408.55 781.259 1415.02 L 785.173 1402.26 C 782.005 1404.31 779.501 1405.92 776.112 1407.6 C 772.762 1409.26 759.341 1411.64 757.906 1413.21 C 762.295 1416.79 769.921 1411.78 771.94 1417.93 C 766.909 1430.5 712.951 1437.11 699.304 1437.15 C 680.509 1422.04 656.152 1395.2 638.057 1377.33 C 637.236 1368.96 635.989 1358.91 635.726 1350.64 C 643.631 1337.22 650.657 1310.56 639.304 1297.58 L 640.496 1295.94 C 650.463 1290.18 661.176 1281.79 671.509 1275.96 C 680.88 1269.98 692.676 1265.16 701.696 1258.84 C 725.236 1242.33 753.708 1227.45 776.535 1210.52 C 779.566 1203.67 781.114 1197.12 784.754 1189.27 C 792.507 1187.46 805.358 1185.78 813.171 1185.08 z"/>
<path transform="translate(0,0)" fill="rgb(0,0,0)" d="M 813.171 1185.08 L 814.627 1187 C 813.624 1193.64 807.538 1204.17 802.088 1208.45 C 794.835 1214.13 785.098 1213.13 776.535 1210.52 C 779.566 1203.67 781.114 1197.12 784.754 1189.27 C 792.507 1187.46 805.358 1185.78 813.171 1185.08 z"/>
<path transform="translate(0,0)" fill="rgb(129,105,66)" d="M 805.33 1190.45 L 806.792 1190.39 L 807.426 1191.75 C 803.011 1204.02 798.122 1207.57 785.751 1207.07 L 783.646 1206.69 C 782.819 1202.64 787.234 1196.31 789.456 1192.65 C 794.886 1191.46 799.83 1191.03 805.33 1190.45 z"/>
<path transform="translate(0,0)" fill="rgb(0,0,0)" d="M 726.704 1376.02 C 731.691 1375.59 735.597 1376.11 740.235 1378.21 C 745.967 1380.75 750.402 1385.54 752.504 1391.45 C 754.651 1397.24 754.369 1403.65 751.723 1409.23 C 747.984 1417.03 742.235 1420.17 734.555 1423.01 C 722.573 1424.02 712.772 1419.45 708.52 1407.59 C 706.331 1401.57 706.64 1394.93 709.378 1389.14 C 713.221 1381.21 718.792 1378.53 726.704 1376.02 z"/>
<path transform="translate(0,0)" fill="rgb(42,70,175)" d="M 724.709 1383.78 C 730.477 1381.72 736.907 1382.94 741.521 1386.97 C 746.136 1390.99 748.214 1397.2 746.956 1403.19 C 745.697 1409.19 741.298 1414.03 735.454 1415.86 C 726.659 1418.62 717.276 1413.83 714.349 1405.09 C 711.422 1396.35 716.028 1386.88 724.709 1383.78 z"/>
<path transform="translate(0,0)" fill="rgb(0,0,0)" d="M 698.06 1278.12 L 698.489 1279.49 C 680.363 1300.3 666.615 1327.18 653.301 1351.17 C 652.564 1350.38 653.029 1350.98 652.517 1349.02 C 654.185 1341.68 659.762 1334.99 662.819 1328.16 C 670.253 1311.55 682.434 1288.58 698.06 1278.12 z"/>
<path transform="translate(0,0)" fill="rgb(0,0,0)" d="M 834.6 1376.29 C 843.153 1375.53 855.628 1375.97 864.478 1376.03 C 861.356 1378.97 857.938 1381.88 854.706 1384.73 C 851.743 1387.42 852.117 1387.94 848.8 1388.61 C 849.309 1385.05 852.145 1382.33 854.51 1379.44 C 845.356 1379.87 840.676 1381.66 834.6 1376.29 z"/>
<path transform="translate(0,0)" fill="url(#Gradient5)" d="M 543.135 1033.11 C 542.383 1039.2 539.643 1045.57 535.692 1050.26 C 533.381 1059.59 530.45 1070.79 529.189 1080.21 L 526.404 1079.9 C 524.258 1090.92 522.998 1099.97 521.601 1111.08 L 521.041 1116.54 C 520.433 1169.68 530.4 1205.09 547.92 1254.86 C 557.236 1261.87 566.341 1268.16 575.655 1274.98 C 601.733 1268.14 613.059 1275.51 635.578 1286.92 C 614.198 1266.17 603.786 1264.69 574.868 1266.13 C 569.689 1261.78 564.427 1257.52 559.082 1253.37 L 579.83 1242.67 C 594.232 1243.39 608.304 1245.15 622.828 1245.49 C 663.777 1246.44 703.406 1228.3 738.954 1209.54 C 756.897 1200.08 758.938 1198.97 758.998 1179.44 C 771.284 1176.56 845.043 1159.8 852.43 1162.46 L 851.821 1164.15 C 843.379 1167.94 820.905 1184.29 813.171 1185.08 C 805.358 1185.78 792.507 1187.46 784.754 1189.27 C 781.114 1197.12 779.566 1203.67 776.535 1210.52 C 753.708 1227.45 725.236 1242.33 701.696 1258.84 C 692.676 1265.16 680.88 1269.98 671.509 1275.96 C 661.176 1281.79 650.463 1290.18 640.496 1295.94 L 639.072 1295.8 L 637.033 1295.62 C 632.517 1295.19 632.588 1294.84 628.387 1296.53 C 622.423 1286.12 612.185 1278.86 600.387 1276.66 C 588.59 1274.47 576.425 1277.57 567.118 1285.15 L 565.33 1283.98 C 547.554 1285.37 537.351 1284.5 519.917 1280.68 C 515.598 1271.44 511.578 1262.07 507.862 1252.57 C 479.72 1179.25 477.659 1106.95 509.746 1034.78 L 510.532 1035.3 C 523.796 1044.11 531.261 1043.11 543.135 1033.11 z"/>
<path transform="translate(0,0)" fill="rgb(161,133,88)" d="M 521.041 1116.54 L 518.997 1118.99 C 515.847 1120.37 516.026 1120.23 512.547 1120.19 C 505.67 1116.06 509.746 1106.87 517.036 1106.08 C 520.191 1107.7 520.02 1107.98 521.601 1111.08 L 521.041 1116.54 z"/>
<path transform="translate(0,0)" fill="rgb(40,31,14)" d="M 526.404 1079.9 C 528.265 1071.53 531.109 1058.25 534.397 1050.76 L 535.692 1050.26 C 533.381 1059.59 530.45 1070.79 529.189 1080.21 L 526.404 1079.9 z"/>
<path transform="translate(0,0)" fill="rgb(0,0,0)" d="M 498.181 1182.69 C 500.939 1196.66 505.793 1209.54 508.748 1223.94 L 507.481 1221.56 C 508.721 1231.81 517.113 1248.47 521.415 1258.76 C 522.28 1261.08 522.111 1259.93 522.05 1262.18 C 519.549 1259.91 517.064 1254.64 515.479 1251.56 C 505.316 1231.82 496.305 1204.96 498.181 1182.69 z"/>
<path transform="translate(0,0)" fill="rgb(0,0,0)" d="M 715.55 1235.3 L 716.187 1235.49 C 712.088 1240.71 694.877 1242.29 684.175 1248.9 L 683.426 1248.07 C 689.577 1239.63 704.905 1238.11 715.55 1235.3 z"/>
<path transform="translate(0,0)" fill="rgb(161,133,88)" d="M 509.537 1078.51 C 513.308 1078.54 520.077 1080.64 520.75 1084.72 L 518.881 1085.74 C 514.319 1086.87 511.242 1087.98 507.424 1084.76 C 507.24 1081 507.205 1082.28 509.537 1078.51 z"/>
<path transform="translate(0,0)" fill="rgb(0,0,0)" d="M 612.659 1256.5 C 620.263 1256.1 625.085 1255.75 632.689 1257.35 L 632.965 1258.61 L 629.247 1258.91 C 623.036 1259.31 613.905 1259.98 607.998 1258.3 L 608.658 1257.22 L 612.659 1256.5 z"/>
<path transform="translate(0,0)" fill="rgb(0,0,0)" d="M 500.874 1171.66 C 504.905 1176.21 505.806 1190.56 506.364 1196.59 C 500.562 1190.01 500.823 1180.02 500.874 1171.66 z"/>
<path transform="translate(0,0)" fill="rgb(0,0,0)" d="M 633.762 1266.29 C 639.297 1266.6 648.653 1266.27 653.405 1267.33 L 652.917 1268.4 C 646.713 1269.54 638.339 1271.34 633.762 1266.29 z"/>
<path transform="translate(0,0)" fill="rgb(180,178,179)" d="M 161.359 1515.46 C 168.985 1518.41 174.754 1520.7 183.207 1520.99 C 187.96 1521.16 191.173 1519.22 195.125 1520.5 C 198.218 1527.25 189.698 1544.19 183.275 1546.36 L 181.634 1545.33 C 179.833 1540.5 181.056 1536.9 181.928 1531.7 L 162.541 1522.96 C 157.085 1527.9 150.811 1534.57 145.543 1539.88 C 158.436 1550.46 170.307 1556.67 185.529 1552.64 C 191.096 1551.17 188.927 1557.05 191.994 1559.82 C 196.297 1554.7 199.859 1550.91 204.55 1546.13 C 205.569 1557.14 204.012 1557.67 212.928 1562.75 C 214.851 1563.85 216.505 1571.13 218.518 1573.77 C 221.694 1577.93 226.659 1580.94 229.334 1585.2 C 227.235 1591.64 217.87 1589.39 212.865 1593.95 C 214.84 1596.31 218.708 1597.25 221.898 1598.47 C 214.188 1605.77 212.292 1608.27 210.279 1618.57 C 210.874 1626.72 210.347 1633.92 215.993 1639.57 C 222.266 1642.1 228.049 1638.99 234.247 1636.39 C 235.459 1635.88 236.662 1635.35 237.857 1634.8 C 236.933 1627.05 236.91 1623.38 237.08 1615.52 C 232.158 1614.4 228.103 1614.11 224.49 1610.82 L 223.825 1608.73 C 227.527 1603.63 243.298 1602.18 249.107 1604.62 C 250.448 1606.39 251.795 1608.11 251.004 1610.46 C 246.844 1622.85 243.576 1628.67 242.57 1642.07 C 215.188 1653.69 177.535 1675.55 148.219 1661.43 C 138.747 1656.87 110.267 1643.43 107.297 1633.81 C 106.576 1618.68 101.336 1606.75 103.355 1589.25 C 106.24 1564.23 119.643 1554.2 136.698 1537.82 C 144.658 1530.17 152.942 1522.43 161.359 1515.46 z"/>
<path transform="translate(0,0)" fill="rgb(131,129,130)" d="M 237.08 1615.52 C 232.158 1614.4 228.103 1614.11 224.49 1610.82 L 223.825 1608.73 C 227.527 1603.63 243.298 1602.18 249.107 1604.62 C 250.448 1606.39 251.795 1608.11 251.004 1610.46 C 246.844 1622.85 243.576 1628.67 242.57 1642.07 C 215.188 1653.69 177.535 1675.55 148.219 1661.43 C 138.747 1656.87 110.267 1643.43 107.297 1633.81 C 126.332 1637.56 136.939 1635.64 153.016 1626.28 C 163.057 1598.27 179.702 1616.02 191.129 1631.14 C 198.249 1631.35 202.736 1629.61 209.469 1627.58 C 209.535 1623.65 209.568 1622.4 210.279 1618.57 C 210.874 1626.72 210.347 1633.92 215.993 1639.57 C 222.266 1642.1 228.049 1638.99 234.247 1636.39 C 235.459 1635.88 236.662 1635.35 237.857 1634.8 C 236.933 1627.05 236.91 1623.38 237.08 1615.52 z"/>
<path transform="translate(0,0)" fill="rgb(0,0,0)" d="M 153.016 1626.28 C 163.057 1598.27 179.702 1616.02 191.129 1631.14 C 207.01 1655.21 165.786 1651.41 156.736 1640.67 C 151.903 1634.94 152.83 1633.28 153.016 1626.28 z"/>
<path transform="translate(0,0)" fill="rgb(0,0,0)" d="M 150.151 1653.36 C 156.421 1653.24 169.259 1654.05 175.207 1655.66 L 175.709 1657.55 C 169.411 1658.55 153.904 1658.79 150.151 1653.36 z"/>
<path transform="translate(0,0)" fill="rgb(0,0,0)" d="M 136.223 1552.61 C 141.627 1554.03 168.053 1590.88 140.841 1600.43 C 126.366 1598.35 118.385 1592.47 120.78 1575.58 C 122.198 1565.58 127.959 1558.34 136.223 1552.61 z"/>
<path transform="translate(0,0)" fill="rgb(0,0,0)" d="M 177.409 1567.46 C 180.477 1568.08 179.131 1567.42 181.502 1569.67 C 183.667 1576.9 182.412 1580.98 180.889 1588.19 C 187.022 1589.65 196.089 1591.1 198.153 1597.97 L 196.744 1599.75 C 192.693 1601.69 189.341 1600.98 184.75 1600.73 C 176.68 1600.95 169.209 1600.9 161.131 1600.76 C 164.67 1590.14 170.072 1575.91 177.409 1567.46 z"/>
<path transform="translate(0,0)" fill="url(#Gradient4)" d="M 567.118 1285.15 C 576.425 1277.57 588.59 1274.47 600.387 1276.66 C 612.185 1278.86 622.423 1286.12 628.387 1296.53 C 634.283 1306.83 635.416 1319.17 631.493 1330.37 C 627.571 1341.56 618.978 1350.5 607.947 1354.86 L 608.841 1356.81 C 601.011 1368.54 595.944 1386.66 591.187 1400.32 C 577.927 1398.83 561.133 1397.4 548.227 1395.24 C 542.705 1384.28 538.454 1376.75 532.259 1366.16 C 526.917 1359.96 513.126 1338.73 506.761 1330.06 C 510.43 1316 514.441 1302.02 518.788 1288.15 C 532.861 1290.12 554.38 1295.05 565.33 1283.98 L 567.118 1285.15 z"/>
<path transform="translate(0,0)" fill="rgb(0,0,0)" d="M 567.118 1285.15 C 576.425 1277.57 588.59 1274.47 600.387 1276.66 C 612.185 1278.86 622.423 1286.12 628.387 1296.53 C 634.283 1306.83 635.416 1319.17 631.493 1330.37 C 627.571 1341.56 618.978 1350.5 607.947 1354.86 C 598.655 1358.54 588.338 1358.68 578.947 1355.26 C 565.118 1350.23 555.06 1338.16 552.612 1323.65 C 550.164 1309.14 555.704 1294.43 567.118 1285.15 z"/>
<path transform="translate(0,0)" fill="rgb(194,35,34)" d="M 590.259 1284.05 C 608.326 1282.57 624.227 1295.89 625.94 1313.93 C 627.653 1331.98 614.543 1348.05 596.52 1349.99 C 584.655 1351.27 573.017 1346.07 566.058 1336.38 C 559.099 1326.68 557.894 1313.99 562.904 1303.16 C 567.914 1292.33 578.365 1285.03 590.259 1284.05 z"/>
<path transform="translate(0,0)" fill="rgb(129,105,66)" d="M 578.947 1355.26 C 588.338 1358.68 598.655 1358.54 607.947 1354.86 L 608.841 1356.81 C 601.011 1368.54 595.944 1386.66 591.187 1400.32 C 577.927 1398.83 561.133 1397.4 548.227 1395.24 C 542.705 1384.28 538.454 1376.75 532.259 1366.16 C 533.913 1366.82 536.582 1368.28 538.267 1369.13 C 542.524 1369.49 545.154 1366.88 548.926 1364.33 C 555.954 1364.62 562.211 1365.24 569.211 1365.96 C 570.205 1364.39 575.278 1360.77 578.947 1355.26 z"/>
<path transform="translate(0,0)" fill="rgb(0,0,0)" d="M 520.178 1308.69 C 523.524 1322.08 524.705 1327.79 526.573 1341.58 C 520.855 1334.36 517.427 1317.44 520.178 1308.69 z"/>
<path transform="translate(0,0)" fill="rgb(0,0,0)" d="M 526.599 1323.53 C 532.842 1324.56 534.339 1330.09 535.694 1335.37 C 533.459 1333.86 528.489 1326.16 526.599 1323.53 z"/>
<path transform="translate(0,0)" fill="url(#Gradient3)" d="M 628.387 1296.53 C 632.588 1294.84 632.517 1295.19 637.033 1295.62 L 639.072 1295.8 L 640.496 1295.94 L 639.304 1297.58 C 638.964 1309.86 640.002 1322.14 636.087 1334.02 C 634.076 1340.12 622.914 1349.39 624.318 1352.69 L 627.664 1353.65 C 629.376 1359.21 629.68 1373.34 631.413 1381.13 C 683.954 1436.54 716.212 1470.71 793.074 1490.49 L 793.553 1488.26 C 798.528 1489.58 804.368 1490.99 809.221 1492.47 C 815.89 1493.42 827.968 1496.26 836.207 1497.69 C 822.342 1505.54 820.547 1509.53 821.112 1525.2 C 816.411 1524.97 811.714 1524.68 807.021 1524.33 C 721.043 1517.67 653.304 1464.9 599.386 1401.73 C 601.171 1394.68 612.568 1360.57 612.448 1357.35 L 608.841 1356.81 L 607.947 1354.86 C 618.978 1350.5 627.571 1341.56 631.493 1330.37 C 635.416 1319.17 634.283 1306.83 628.387 1296.53 z"/>
<path transform="translate(0,0)" fill="rgb(40,31,14)" d="M 793.553 1488.26 C 798.528 1489.58 804.368 1490.99 809.221 1492.47 C 803.773 1493.87 798.342 1491.98 793.074 1490.49 L 793.553 1488.26 z"/>
<path transform="translate(0,0)" fill="rgb(0,0,0)" d="M 618.652 1409.89 C 624.877 1414.37 638.102 1429.44 643.676 1435.52 C 650.908 1435.79 653.039 1440.36 658.264 1445.76 C 665.484 1453.22 671.661 1457.99 680.222 1463.69 C 666.964 1465.68 625.546 1421.38 618.652 1409.89 z"/>
<path transform="translate(0,0)" fill="rgb(0,0,0)" d="M 669.777 1449.65 C 674.332 1451.36 686.779 1460.82 691.162 1464.28 C 681.876 1462.91 675.893 1456.32 669.777 1449.65 z"/>
<path transform="translate(0,0)" fill="rgb(147,120,76)" d="M 629.694 1065.96 C 646.884 1061.17 662.588 1055.05 680.398 1052.33 C 677.49 1058.99 674.633 1065.67 671.829 1072.38 C 668.655 1080.62 665.875 1087.87 662.072 1095.88 C 656.9 1097.57 651.092 1099.37 646.199 1101.64 C 643.039 1106.74 641.249 1109.76 638.638 1115.23 C 639.077 1105.9 644.124 1098.97 641.531 1090.78 L 639.479 1093.23 L 635.494 1097.16 C 632.751 1101.14 627.18 1107.89 625.249 1111.49 C 612.018 1136.15 610.906 1153.16 611.993 1179.72 C 602.214 1190.03 589.72 1208.59 590.24 1223.42 C 590.367 1227.05 591.909 1233.64 592.796 1237.28 C 589.592 1237.18 584.724 1237.46 582.281 1235.87 C 580.485 1228.45 578.675 1212.37 578.019 1204.36 C 573.936 1209.07 572.226 1208.86 565.974 1210.27 C 567.922 1210.62 573.951 1211.37 574.566 1212.88 C 577.567 1220.25 573.048 1235.72 578.042 1242.14 L 579.83 1242.67 L 559.082 1253.37 C 553.325 1248.46 549.651 1234.37 547.37 1226.86 L 543.408 1214.74 C 539.811 1203.42 536.632 1194.68 534.045 1182.96 C 543.528 1161.35 555.6 1143.2 575.25 1129.27 C 577.85 1127.43 582.684 1124.67 585.953 1125.31 L 586.705 1127.25 C 585.847 1131.85 585.282 1132.07 581.926 1135.65 C 582.017 1137.25 581.771 1136.44 582.931 1137.98 C 583.062 1137.88 585.385 1136.12 585.525 1135.93 C 589.471 1130.67 601.227 1126.9 604.362 1122.89 L 603.589 1121.63 C 599.484 1120.9 596.23 1120.91 594.009 1117.87 C 595.023 1113.1 617.827 1094.27 622.7 1090.79 C 626.736 1084.25 628.044 1073.66 629.694 1065.96 z"/>
<path transform="translate(0,0)" fill="rgb(161,133,88)" d="M 629.694 1065.96 C 646.884 1061.17 662.588 1055.05 680.398 1052.33 C 677.49 1058.99 674.633 1065.67 671.829 1072.38 C 668.655 1080.62 665.875 1087.87 662.072 1095.88 C 656.9 1097.57 651.092 1099.37 646.199 1101.64 C 643.039 1106.74 641.249 1109.76 638.638 1115.23 C 639.077 1105.9 644.124 1098.97 641.531 1090.78 L 639.479 1093.23 L 635.494 1097.16 L 636.586 1092.6 L 633.566 1092.92 L 633.566 1091.65 L 635.07 1090.33 L 639.334 1090.79 C 643.802 1088.51 649.801 1083.31 652.864 1079.35 C 648.149 1076.64 644.797 1080.65 639.805 1075.54 C 641.047 1067.68 658.042 1062.65 663 1063.84 C 666.175 1068.12 663.789 1067.46 665.843 1072.98 C 671.306 1071.68 672.434 1063.36 676.586 1057.99 L 676.191 1056.2 C 669.58 1054.4 642.526 1063.54 635.137 1066.72 C 627.004 1070.21 629.131 1085.76 624.506 1091.01 L 622.7 1090.79 C 626.736 1084.25 628.044 1073.66 629.694 1065.96 z"/>
<path transform="translate(0,0)" fill="rgb(129,105,66)" d="M 662.52 1074.98 C 665.781 1075.95 668.671 1073.91 671.829 1072.38 C 668.655 1080.62 665.875 1087.87 662.072 1095.88 C 656.9 1097.57 651.092 1099.37 646.199 1101.64 C 643.039 1106.74 641.249 1109.76 638.638 1115.23 C 639.077 1105.9 644.124 1098.97 641.531 1090.78 C 649.554 1086.39 650.634 1082.9 656.971 1079.41 C 656.117 1084.04 655.634 1088.35 655.076 1093.01 C 658.938 1085.9 659.968 1082.77 662.52 1074.98 z"/>
<path transform="translate(0,0)" fill="rgb(0,0,0)" d="M 660.992 1067.44 C 654.869 1070.02 650.613 1071.52 644.16 1073.13 L 643.371 1072.38 C 646.832 1068.7 658.135 1065.38 663.196 1065.78 C 664.03 1068.57 663.045 1071.86 662.52 1074.98 C 659.968 1082.77 658.938 1085.9 655.076 1093.01 C 655.634 1088.35 656.117 1084.04 656.971 1079.41 C 657.869 1075.86 659.739 1071.01 660.992 1067.44 z"/>
<path transform="translate(0,0)" fill="rgb(129,105,66)" d="M 554.734 1213.11 C 557.013 1211.59 556.919 1211.51 559.534 1210.87 C 562.994 1212.62 563.925 1213.47 567.002 1215.93 L 567.985 1214.82 C 567.326 1213.15 566.748 1211.89 565.974 1210.27 C 567.922 1210.62 573.951 1211.37 574.566 1212.88 C 577.567 1220.25 573.048 1235.72 578.042 1242.14 L 579.83 1242.67 L 559.082 1253.37 C 553.325 1248.46 549.651 1234.37 547.37 1226.86 C 552.621 1225.64 554.533 1225.86 557.149 1221.71 C 557.192 1217.57 556.609 1216.98 554.734 1213.11 z"/>
<path transform="translate(0,0)" fill="rgb(161,133,88)" d="M 543.408 1214.74 C 544.999 1212.44 545.748 1210.66 548.334 1209.9 C 550.258 1212.1 548.16 1215.55 550.544 1217.67 C 552.611 1213.91 551.614 1214.31 554.734 1213.11 C 556.609 1216.98 557.192 1217.57 557.149 1221.71 C 554.533 1225.86 552.621 1225.64 547.37 1226.86 L 543.408 1214.74 z"/>
<path transform="translate(0,0)" fill="rgb(0,0,0)" d="M 569.915 1151.11 C 579.153 1145.61 590.955 1147.09 598.538 1154.72 C 606.121 1162.35 607.538 1174.16 601.973 1183.36 C 596.409 1192.57 585.294 1196.8 575.015 1193.64 C 566.167 1190.91 559.754 1183.23 558.652 1174.03 C 557.549 1164.84 561.963 1155.86 569.915 1151.11 z"/>
<path transform="translate(0,0)" fill="rgb(194,35,34)" d="M 575.459 1155.63 C 583.973 1152.2 593.662 1156.24 597.213 1164.71 C 600.764 1173.17 596.862 1182.92 588.451 1186.59 C 582.901 1189.01 576.476 1188.26 571.637 1184.62 C 566.798 1180.98 564.294 1175.01 565.086 1169.01 C 565.878 1163 569.842 1157.89 575.459 1155.63 z"/>
<path transform="translate(0,0)" fill="url(#Gradient2)" d="M 704.834 1443.27 L 729.893 1442.99 C 789.88 1482.17 843.852 1496.12 915.611 1480.99 C 923.058 1479.42 930.461 1477.66 937.811 1475.69 C 931.101 1483.55 924.318 1490.85 916.193 1497.3 C 899.27 1510.6 883.428 1517.39 862.208 1522.01 C 861.972 1513.15 862.215 1508.92 855.789 1501.91 C 847.602 1497.24 845.446 1496.73 836.207 1497.69 C 827.968 1496.26 815.89 1493.42 809.221 1492.47 C 804.368 1490.99 798.528 1489.58 793.553 1488.26 C 752.576 1475.41 739.495 1469.61 704.834 1443.27 z"/>
<path transform="translate(0,0)" fill="rgb(129,105,66)" d="M 892.084 1501.38 C 898.503 1505.01 905.055 1498.59 909.98 1494.82 C 912.463 1496.01 913.513 1496.64 916.193 1497.3 C 899.27 1510.6 883.428 1517.39 862.208 1522.01 C 861.972 1513.15 862.215 1508.92 855.789 1501.91 C 864.824 1502.27 886.433 1500.28 892.084 1501.38 z"/>
<path transform="translate(0,0)" fill="rgb(0,0,0)" d="M 892.084 1501.38 C 897.714 1499.25 905.476 1492.86 909.18 1492.51 L 909.98 1494.82 C 905.055 1498.59 898.503 1505.01 892.084 1501.38 z"/>
<path transform="translate(0,0)" fill="url(#Gradient1)" d="M 583.835 964.387 C 592.631 960.909 598.835 958.475 608.05 955.967 C 562.034 1007.29 535.974 1058.38 540.064 1129.24 C 540.441 1136.62 541.364 1143.96 542.824 1151.2 C 539.061 1158.33 533.774 1167.85 530.519 1175.05 C 524.434 1136.53 522.997 1119.92 529.189 1080.21 C 530.45 1070.79 533.381 1059.59 535.692 1050.26 C 539.643 1045.57 542.383 1039.2 543.135 1033.11 C 544.839 1029.75 546.331 1025.54 547.711 1021.98 C 545.86 1009.34 546.395 1008.25 535.516 1000.41 C 549.948 984.079 563.508 972.174 583.835 964.387 z"/>
<path transform="translate(0,0)" fill="rgb(129,105,66)" d="M 535.516 1000.41 C 549.948 984.079 563.508 972.174 583.835 964.387 L 580.917 970.169 C 577.301 975.894 573.538 978.856 568.214 983.009 C 561.854 990.72 553.134 1004.5 548.87 1013.73 C 547.981 1015.66 548.137 1019.99 547.711 1021.98 C 545.86 1009.34 546.395 1008.25 535.516 1000.41 z"/>
<path transform="translate(0,0)" fill="rgb(0,0,0)" d="M 568.214 983.009 C 568.68 977.363 575.564 970.694 580.917 970.169 C 577.301 975.894 573.538 978.856 568.214 983.009 z"/>
<path transform="translate(0,0)" fill="rgb(161,133,88)" d="M 229.599 1517.61 C 227.464 1514.71 227.21 1513.56 226.168 1510.1 L 227.654 1507.73 C 233.492 1507.09 235.845 1508.77 241.273 1511.41 L 248.557 1525.23 C 252.556 1531.69 256.655 1538.09 260.852 1544.42 C 265.414 1551.34 279.953 1567.91 280.591 1573.07 L 278.947 1586.8 C 268.82 1588.53 257.698 1590.19 247.713 1592.21 C 242.227 1587.72 234.437 1580.86 230.234 1575.15 C 227.9 1572.35 225.329 1568.42 223.187 1565.36 C 220.801 1560.94 218.607 1557.87 215.762 1553.8 C 219.387 1547.55 226.622 1545.41 228.694 1537.96 C 232.168 1530 231.039 1526.05 229.599 1517.61 z"/>
<path transform="translate(0,0)" fill="rgb(182,157,113)" d="M 229.599 1517.61 C 227.464 1514.71 227.21 1513.56 226.168 1510.1 L 227.654 1507.73 C 233.492 1507.09 235.845 1508.77 241.273 1511.41 L 248.557 1525.23 C 252.556 1531.69 256.655 1538.09 260.852 1544.42 C 242.783 1550.1 234.12 1565.06 223.187 1565.36 C 220.801 1560.94 218.607 1557.87 215.762 1553.8 C 219.387 1547.55 226.622 1545.41 228.694 1537.96 C 232.168 1530 231.039 1526.05 229.599 1517.61 z"/>
<path transform="translate(0,0)" fill="rgb(161,133,88)" d="M 229.599 1517.61 C 227.464 1514.71 227.21 1513.56 226.168 1510.1 L 227.654 1507.73 C 233.492 1507.09 235.845 1508.77 241.273 1511.41 L 248.557 1525.23 C 244.655 1525.77 242.244 1525.64 239.331 1528.22 C 238.042 1530.91 238.262 1530.05 237.72 1532.94 C 236.926 1528.35 236.457 1521.8 232.693 1519.08 L 229.599 1517.61 z"/>
<path transform="translate(0,0)" fill="rgb(0,0,0)" d="M 232.693 1519.08 C 236.457 1521.8 236.926 1528.35 237.72 1532.94 C 237.864 1534.59 237.797 1535.88 237.776 1537.53 L 236.917 1537.56 C 234.577 1531.96 233.296 1525.11 232.693 1519.08 z"/>
<path transform="translate(0,0)" fill="rgb(129,105,66)" d="M 280.591 1573.07 L 278.947 1586.8 C 268.82 1588.53 257.698 1590.19 247.713 1592.21 C 242.227 1587.72 234.437 1580.86 230.234 1575.15 L 232.064 1575.55 C 241.842 1577.75 239.331 1580.55 252.052 1578.11 C 255.616 1578.11 256.668 1578.37 259.871 1576.7 C 262.3 1579.68 269.011 1582.15 271.951 1579.54 C 270.315 1577.63 270.305 1577.76 268.077 1576.52 C 276.401 1575.84 270.923 1581.2 280.591 1573.07 z"/>
<path transform="translate(0,0)" fill="rgb(0,0,0)" d="M 254.21 1571.94 C 250.513 1568.24 250.956 1569.67 249.691 1565.17 L 251.2 1564.69 C 257.542 1568.3 264.18 1575.85 268.077 1576.52 C 270.305 1577.76 270.315 1577.63 271.951 1579.54 C 269.011 1582.15 262.3 1579.68 259.871 1576.7 L 254.21 1571.94 z"/>
<path transform="translate(0,0)" fill="rgb(70,56,94)" d="M 433.741 1389.84 L 435.317 1390.97 C 438.554 1406.24 442.734 1431.48 444.289 1446.81 L 419.506 1431.74 C 411.072 1426.85 402.757 1421.75 394.567 1416.46 C 404.669 1407.42 421.959 1397.19 433.741 1389.84 z"/>
<path transform="translate(0,0)" fill="rgb(70,56,94)" d="M 296.119 1482.15 C 298.742 1484.73 304.852 1530.5 305.767 1537.9 C 298.041 1533.27 288.84 1528.49 280.869 1524.09 L 254.046 1509.7 C 267.525 1501.78 282.523 1490.89 296.119 1482.15 z"/>
<path transform="translate(0,0)" fill="rgb(70,56,94)" d="M 342.763 1450.89 C 345.441 1454.84 351.379 1499.96 352.514 1507.64 C 345.051 1503.7 336.585 1498.43 329.221 1494.09 C 320.338 1488.94 311.589 1483.55 302.982 1477.95 C 313.114 1469.98 331.692 1457.71 342.763 1450.89 z"/>
<path transform="translate(0,0)" fill="rgb(70,56,94)" d="M 479.419 1358.65 L 480.748 1359.01 C 483.495 1362.59 489.85 1407.11 490.529 1414.08 C 483.804 1410.91 473.538 1404.38 466.863 1400.41 C 457.997 1395.62 449.288 1390.55 440.75 1385.2 C 450.99 1376.74 468.098 1366.04 479.419 1358.65 z"/>
<path transform="translate(0,0)" fill="rgb(70,56,94)" d="M 350.231 1454.29 C 363.351 1460.24 387.388 1476.11 401.466 1484.02 C 394.897 1488.22 388.387 1492.52 381.936 1496.9 C 378.867 1492.4 376.599 1488.25 373.948 1483.53 L 372.516 1481.5 L 371.769 1482.58 C 373.026 1489.04 375.17 1494.5 377.383 1500.68 C 371.554 1504.65 365.648 1508.5 359.669 1512.24 C 355.759 1493.06 352.61 1473.73 350.231 1454.29 z"/>
<path transform="translate(0,0)" fill="rgb(70,56,94)" d="M 441.974 1392.58 C 458.662 1402.24 477.126 1412.66 493.394 1422.87 C 486.894 1427.54 480.267 1431.67 473.562 1436.58 L 464.981 1422.55 C 463.777 1421.31 464.463 1421.92 462.888 1420.77 C 462.608 1425.84 466.847 1434.61 469.08 1439.4 C 463.401 1443.4 457.278 1447.37 451.484 1451.26 C 447.942 1432.25 444.881 1411.66 441.974 1392.58 z"/>
<path transform="translate(0,0)" fill="rgb(70,56,94)" d="M 488.763 1361.65 C 497.528 1366.11 531.373 1385.56 536.954 1392 C 535.568 1396.68 525.702 1401.55 521.184 1404.21 L 510.862 1388.61 L 510.21 1388.04 L 509.265 1388.24 C 509.725 1394.64 513.862 1401.28 517.132 1406.73 C 510.044 1412.21 505.125 1415.45 497.422 1419.86 C 495.356 1400.08 491.166 1381.32 488.763 1361.65 z"/>
<path transform="translate(0,0)" fill="rgb(70,56,94)" d="M 387.092 1420.71 L 388.799 1421.62 C 391.253 1427.57 397.06 1466.89 398.382 1475.67 C 390.298 1471.4 382.496 1466.58 374.66 1461.86 C 365.911 1456.91 357.72 1452.37 349.343 1446.76 C 358.944 1439.1 376.464 1427.98 387.092 1420.71 z"/>
<path transform="translate(0,0)" fill="rgb(70,56,94)" d="M 396.225 1424.56 C 413.176 1433.6 428.824 1444.53 446.23 1453.69 C 441.692 1457.63 432.669 1463.52 427.192 1467.71 C 424.344 1463.25 422.215 1458.26 419.964 1453.44 C 419.028 1451.12 419.565 1451.86 417.751 1450.13 C 417.205 1455.71 420.778 1464.94 423.047 1470.13 C 417.593 1474.25 411.514 1477.73 405.657 1481.27 C 402.1 1464.57 398.27 1441.28 396.225 1424.56 z"/>
<path transform="translate(0,0)" fill="rgb(70,56,94)" d="M 303.69 1485.55 C 314.472 1490.57 342.521 1508.57 354.098 1515.59 C 347.456 1520.12 340.885 1524.75 334.385 1529.48 C 332.343 1525.11 330.376 1520.7 328.484 1516.25 C 327.303 1512.84 325.397 1509.95 323.562 1506.83 C 325.037 1515.49 327.181 1524.03 329.973 1532.36 L 313.014 1543.51 C 310.466 1525.27 305.284 1503.05 303.69 1485.55 z"/>
<path transform="translate(0,0)" fill="rgb(70,56,94)" d="M 254.559 1517.32 C 264.404 1520.4 299.067 1540.12 308.015 1546.45 L 298.822 1552.82 C 293.433 1556.55 289.606 1559.37 284.553 1563.53 C 275.899 1554.18 258.717 1529.07 254.559 1517.32 z"/>
<path transform="translate(0,0)" fill="rgb(161,133,88)" d="M 200.648 1514.12 L 224.213 1506.43 C 225.885 1514.09 226.383 1533.3 228.694 1537.96 C 226.622 1545.41 219.387 1547.55 215.762 1553.8 C 208.46 1542.78 204.167 1526.76 200.648 1514.12 z"/>
<path transform="translate(0,0)" fill="rgb(147,120,76)" d="M 641.531 1090.78 C 644.124 1098.97 639.077 1105.9 638.638 1115.23 C 630.882 1134.44 628.034 1146.77 626.801 1167.27 C 623.229 1169.64 620.255 1172.21 616.955 1174.93 C 613.671 1142.07 624.802 1121.38 639.479 1093.23 L 641.531 1090.78 z"/>
<path transform="translate(0,0)" fill="rgb(194,35,34)" d="M 522.119 1006.23 C 527.22 1004.75 532.722 1006.15 536.491 1009.9 C 540.259 1013.64 541.699 1019.13 540.253 1024.24 C 538.807 1029.35 534.702 1033.28 529.531 1034.49 C 521.818 1036.3 514.067 1031.64 512.057 1023.97 C 510.047 1016.31 514.51 1008.44 522.119 1006.23 z"/>
<path transform="translate(0,0)" fill="rgb(42,70,175)" d="M 836.792 1504.51 C 841.69 1502.66 847.205 1503.6 851.212 1506.97 C 855.22 1510.33 857.095 1515.6 856.116 1520.75 C 855.137 1525.89 851.456 1530.1 846.491 1531.76 C 839.016 1534.26 830.916 1530.32 828.273 1522.89 C 825.631 1515.47 829.419 1507.29 836.792 1504.51 z"/>
<path transform="translate(0,0)" fill="rgb(70,56,94)" d="M 504.401 1341.83 C 509.593 1343.37 528.514 1374.17 532.347 1380.53 L 522.74 1375.43 C 511.353 1367.85 499.263 1361.63 487.538 1353.66 C 493.288 1348.01 497.542 1345.74 504.401 1341.83 z"/>
<path transform="translate(0,0)" fill="rgb(235,234,230)" fill-opacity="0.0117647" d="M 1846.72 445.013 C 1847.56 447.113 1848.19 448.353 1848.66 450.579 C 1843.76 452.818 1837.58 456.554 1832.75 459.293 C 1837.39 454.216 1841.81 449.831 1846.72 445.013 z"/>
<path transform="translate(0,0)" fill="rgb(235,234,230)" fill-opacity="0.0156863" d="M 964.235 933.311 L 966.14 938.733 L 951.393 948.247 C 955.495 943.285 960.012 938.212 964.235 933.311 z"/>
</svg>