<svg version="1.1" xmlns="http://www.w3.org/2000/svg" style="display: block;" viewBox="0 0 2048 2048" width="1024" height="1024" preserveAspectRatio="none">
<defs>
	<linearGradient id="Gradient1" gradientUnits="userSpaceOnUse" x1="1870.94" y1="159.493" x2="1862.78" y2="133.646">
		<stop class="stop0" offset="0" stop-opacity="1" stop-color="rgb(102,68,39)"/>
		<stop class="stop1" offset="1" stop-opacity="1" stop-color="rgb(137,88,54)"/>
	</linearGradient>
	<linearGradient id="Gradient2" gradientUnits="userSpaceOnUse" x1="266.219" y1="1825.22" x2="270.474" y2="1827.94">
		<stop class="stop0" offset="0" stop-opacity="1" stop-color="rgb(112,102,88)"/>
		<stop class="stop1" offset="1" stop-opacity="1" stop-color="rgb(89,80,73)"/>
	</linearGradient>
	<linearGradient id="Gradient3" gradientUnits="userSpaceOnUse" x1="1355.22" y1="695.513" x2="1354.8" y2="714.487">
		<stop class="stop0" offset="0" stop-opacity="1" stop-color="rgb(111,92,77)"/>
		<stop class="stop1" offset="1" stop-opacity="1" stop-color="rgb(120,110,90)"/>
	</linearGradient>
	<linearGradient id="Gradient4" gradientUnits="userSpaceOnUse" x1="1218.45" y1="835.343" x2="1216.55" y2="857.741">
		<stop class="stop0" offset="0" stop-opacity="1" stop-color="rgb(120,100,92)"/>
		<stop class="stop1" offset="1" stop-opacity="1" stop-color="rgb(92,83,61)"/>
	</linearGradient>
	<linearGradient id="Gradient5" gradientUnits="userSpaceOnUse" x1="761.814" y1="1312.91" x2="761.144" y2="1305.63">
		<stop class="stop0" offset="0" stop-opacity="1" stop-color="rgb(159,139,123)"/>
		<stop class="stop1" offset="1" stop-opacity="1" stop-color="rgb(178,166,143)"/>
	</linearGradient>
	<linearGradient id="Gradient6" gradientUnits="userSpaceOnUse" x1="388.767" y1="1703.46" x2="381.174" y2="1692.85">
		<stop class="stop0" offset="0" stop-opacity="1" stop-color="rgb(117,107,84)"/>
		<stop class="stop1" offset="1" stop-opacity="1" stop-color="rgb(102,85,68)"/>
	</linearGradient>
</defs>
<path transform="translate(0,0)" fill="rgb(3,2,1)" d="M 1793.82 198.216 C 1797.85 207.802 1780.48 236.635 1784.99 254.665 L 1785.6 255.343 C 1783.17 257.649 1782.96 257.439 1782.3 260.632 C 1780.78 264.508 1778.95 270.603 1776.08 273.211 L 1776.13 273.902 C 1772.23 278.716 1770.01 283.235 1767.56 288.891 L 1771.55 291.172 L 1769.57 292.303 C 1772.97 293.167 1772.87 293.026 1775.76 294.952 C 1764.97 313.287 1757.85 311.678 1749.38 324.919 C 1745.85 328.628 1743.4 331.534 1739.15 334.449 C 1730.85 340.463 1728.28 345.784 1721.26 352.888 L 1652.39 423.914 C 1647.82 428.566 1643.92 430.102 1639.39 435.62 C 1622.72 455.929 1602.77 474.096 1584.34 492.768 C 1576.93 500.273 1569.55 506.563 1562.73 514.687 C 1557.17 521.307 1548.55 525.662 1544.49 533.447 C 1540.3 541.915 1534.87 544.003 1528.22 549.815 C 1505.64 575.069 1481.2 599.392 1455.97 622.004 C 1452.4 625.209 1450.73 630.667 1447.33 633.648 C 1439.4 639.978 1435.04 640.816 1429.35 649.811 C 1422.35 660.851 1407.81 671.565 1398.99 681.82 C 1393.4 688.32 1387.14 689.445 1383.38 698.242 C 1380.61 704.711 1371.47 710.106 1366.68 715.261 C 1354.4 728.926 1340.61 740.129 1329.46 754.838 C 1328.32 756.343 1320.74 760.794 1318.75 761.987 C 1316.99 765.798 1314.97 769.973 1311.9 772.964 C 1251.7 831.677 1194.07 893.129 1134.72 952.712 C 1132.27 955.175 1129.63 959.281 1127.23 961.452 C 1097.77 988.134 1073.07 1019.9 1042.5 1045.9 C 1039.52 1048.44 1037.61 1054.13 1034.51 1057.05 C 1010.67 1079.48 986.657 1102.17 965.658 1127.34 C 962.603 1131 956.812 1133.54 953.268 1137.28 L 896.598 1197.61 C 889.277 1205.33 880.619 1212.75 873.382 1220.7 C 870.55 1223.81 862.57 1229.31 860.69 1232.08 C 846.052 1253.59 821.988 1267.18 808.146 1289.18 C 802.631 1294.14 794.844 1297.25 791.5 1304.28 C 789.317 1309.28 785.127 1312.03 781.291 1315.6 C 753.642 1341.37 728.186 1369.56 700.994 1395.81 C 695.279 1401.33 688.426 1407.6 683.076 1413.1 L 563.828 1536.91 C 555.829 1545.14 528.086 1569.25 523.441 1577.25 C 519.167 1584.61 490.542 1610.57 483.435 1617.78 C 476.681 1624.63 469.734 1631.53 463.212 1638.6 C 459.298 1642.84 455.874 1647.67 451.801 1651.73 C 445.5 1658.02 438.435 1660.89 433.402 1668.84 C 428.875 1675.98 423.013 1680.17 417.26 1686.2 C 403.163 1700.97 388.47 1715.06 374.1 1729.55 C 348.607 1755.25 323.768 1781.65 298.412 1807.52 C 293.635 1812.4 287.758 1816.21 283.082 1821.11 C 277.769 1826.68 274.047 1832.96 268.238 1838.35 C 262.804 1864.23 249.624 1879.85 223.177 1884.19 C 196.071 1917.1 150.833 1957.32 110.838 1974.39 C 101.616 1977.89 87.7825 1980.77 78.7909 1975.96 C 54.7236 1963.08 86.7033 1939.12 98.8829 1931.31 C 105.26 1927.22 107.879 1925.56 115.459 1923.73 L 116.977 1923.38 C 120.079 1903.2 131.645 1902.04 146.371 1890.54 C 151.039 1886.89 153.961 1883.6 157.807 1879.22 C 157.017 1864.44 160.234 1864.08 173.224 1863.5 C 177.124 1856.36 186.666 1843.23 191.568 1835.69 C 201.701 1820.12 210.672 1803.82 218.408 1786.93 C 243.698 1731.87 260.482 1669 276.484 1610.67 C 292.951 1548.67 310.46 1486.94 329.003 1425.52 C 383.11 1251.29 473.786 1090.62 594.968 954.251 C 623.801 921.367 629.05 920.853 668.333 904.023 C 682.256 898.174 695.864 891.603 709.103 884.337 C 745.623 864.372 782.401 834.259 810.467 803.684 C 838.882 772.962 862.597 738.207 880.843 700.546 C 888.42 684.676 899.323 657.092 908.321 643.404 C 920.797 624.425 952.435 598.68 970.04 584.013 C 1039.18 526.415 1113.33 474.606 1192.22 431.157 C 1269.27 388.761 1350.52 354.506 1434.66 328.949 C 1476.48 316.049 1518.56 304.028 1560.88 292.895 C 1636.82 272.134 1730.16 246.75 1793.82 198.216 z M 466.113 1597.45 C 471.928 1584.57 476.389 1581.58 488.211 1574.7 C 493.941 1562.26 498.714 1561.16 507.41 1552.35 C 536.437 1522.94 564.762 1493.06 594.297 1464.13 C 605.478 1453.18 607.802 1447.71 621.995 1438.65 C 628.658 1424.92 634.226 1423.81 643.891 1413.46 C 657.132 1398.22 672.149 1384.57 686.33 1370.34 C 696.921 1359.72 697.5 1355.68 711.555 1347.15 C 719.018 1330.94 743.508 1313.86 755.669 1300.07 C 761.421 1293.55 761.507 1287.77 771.023 1283.86 C 777.515 1281.2 782.063 1270.99 787.318 1266.27 C 798.172 1256.39 808.211 1244.86 818.96 1234.77 C 822.521 1231.58 826.075 1226.04 829.605 1223.08 C 843.721 1211.25 852.16 1196.91 868.029 1187.34 C 873.067 1176.23 878.755 1172.58 887.149 1164.5 C 922.471 1130.48 955.248 1093.32 989.355 1058.38 L 1056.04 990.705 C 1064.28 982.27 1073.16 974.449 1081.05 965.223 C 1085.86 959.605 1094.5 955.343 1097.64 948.786 C 1099.23 945.466 1099.28 945.208 1102 943.011 C 1108.43 934.751 1118.31 932.631 1123.07 920.991 C 1123.5 919.956 1135.66 909.714 1137.54 907.597 C 1146.16 897.898 1152.54 891.289 1163.79 884.56 L 1164.71 882.763 C 1170.07 872.137 1174.86 868.078 1184.59 861.729 C 1188.33 858.689 1191.67 850.331 1195.28 846.782 C 1197.29 844.194 1208.6 838.258 1209.78 836.172 C 1215.99 825.194 1221.28 820.629 1231.62 813.637 C 1233.91 811.771 1236.01 805.322 1238.04 803.669 C 1252.67 791.784 1262.26 777.442 1278.01 767.075 C 1284.33 753.844 1289.21 752.68 1298.81 742.844 C 1310.35 731.021 1321.92 718.786 1333.46 706.955 L 1391.04 648.341 C 1395.28 643.966 1399.98 637.612 1404.18 633.87 C 1432.96 608.199 1457.11 577.887 1486.17 552.68 C 1495.16 536.002 1505.04 536.055 1511.35 525.982 C 1515.77 517.49 1533.54 504.025 1540.49 495.418 C 1547.2 487.104 1553.11 487.128 1559 475.472 C 1562.44 471.315 1569.33 465.029 1574.44 463.081 C 1576.64 461.116 1577.11 459.321 1578.81 457.366 C 1591.97 442.256 1606.84 425.094 1623.17 413.689 C 1628.07 402.06 1657.87 373.689 1668.32 365.888 C 1669.65 361.82 1672.09 358.816 1675.04 355.849 C 1676.6 354.409 1685.37 347.656 1685.52 347.425 C 1690.94 338.647 1712.61 323.118 1716.56 316.273 L 1716.41 315.122 C 1710.64 316.674 1694.26 325.229 1686.97 328.286 C 1662.9 338.497 1638.5 347.921 1613.81 356.543 C 1569.14 372.193 1527.17 383.756 1482.48 401.467 C 1350.62 453.771 1232.16 534.98 1135.84 639.117 C 1112.75 664.221 1091.34 690.823 1071.76 718.75 C 1060.38 735.204 1040.2 769.764 1027.5 781.818 C 1014.02 794.614 982.468 811.92 965.055 824.247 C 922.873 854.109 890.985 883.495 856.384 921.929 C 837.621 942.786 820.514 965.075 805.218 988.593 C 794.272 1005.73 781.865 1031.04 768.669 1044.95 C 757.12 1057.13 732.762 1072.27 718.375 1081.8 C 703.501 1091.63 689.021 1102.05 674.967 1113.03 C 586.478 1183.69 512.105 1270.4 455.747 1368.62 C 424.704 1422.59 398.539 1479.22 377.561 1537.83 C 349.951 1615.23 330.143 1690.93 296.121 1766.97 C 298.094 1765.31 310.703 1755.19 311.005 1754.4 C 315.674 1742.17 322.963 1739.84 332.671 1732.13 C 335.535 1729.85 337.902 1723.44 340.496 1720.59 C 344.054 1716.77 350.5 1713.18 353.908 1709.39 C 363.64 1698.56 375.592 1689.24 384.503 1677.85 C 390.005 1670.82 392.704 1669.02 400.253 1664.37 C 407.212 1648.68 410.352 1650.64 421.706 1641.32 C 429.13 1628.95 432.265 1626.92 444.132 1618.54 C 450.257 1607.11 455.519 1604.33 466.113 1597.45 z"/>
<path transform="translate(0,0)" fill="rgb(50,25,11)" d="M 715.874 889.607 C 717.766 897.551 719.467 901.444 716.56 909.484 L 717.78 909.965 C 724.604 907.15 728.048 903.672 734.229 899.871 C 772.77 876.619 807.509 847.581 837.228 813.775 C 848.395 801.15 859.523 784.663 869.668 773.612 L 870.432 772.795 C 865.754 799.504 858.221 802.589 852.245 821.291 L 852.875 821.292 L 852.387 821.674 L 852.939 821.659 L 853.124 820.404 C 853.353 818.94 853.134 819.462 853.612 818.603 L 854.633 819.935 C 869.747 800.636 870.212 795.48 881.593 777.351 L 883.521 777.131 C 885.713 780.624 882.872 793.218 882.03 797.509 C 879.661 809.586 868.497 823.145 864.038 833.595 C 854.507 855.934 848.536 874.801 833.856 894.995 C 823.429 909.338 812.023 915.763 799.111 927.691 C 774.671 950.266 758.304 984.781 744.112 1015.24 C 748.525 1012.07 752.585 1009.29 756.659 1005.66 C 745.844 1059.32 749.428 1050.7 705.271 1081.31 C 600.182 1154.15 510.771 1255.71 447.706 1366.65 C 438.924 1382.1 430.761 1398.66 421.887 1413.71 C 431.761 1372.9 453.836 1345.67 470.015 1307.04 C 473.698 1298.25 484.503 1266.76 486.734 1262.84 C 489.742 1262.23 502.615 1241.75 505.463 1237.82 C 520.187 1217.48 535.615 1197.75 551.255 1178.11 L 550.738 1176.42 L 553.929 1174.28 L 554.747 1170.57 C 561.719 1165.88 570.203 1157.61 577.043 1151.82 C 580.092 1145.73 603.227 1123.23 609.846 1116.06 L 609.618 1114.42 C 595.832 1122.05 575.134 1132.98 562.507 1141.45 L 560.508 1139.5 C 572.044 1127.44 584.309 1116.55 595.207 1103.86 C 612.342 1083.92 628.649 1063.54 644.253 1042.37 C 643.895 1041.25 643.537 1040.13 643.179 1039.01 C 650.248 1019.35 673.783 999.475 662.258 977.153 C 662.185 977.011 664.342 962.373 664.538 960.698 C 665.818 949.772 661.285 944.043 654.848 935.982 C 657.761 933.889 664.781 931.933 668.487 930.712 L 671.167 929.74 C 678.455 928.251 695.839 920.607 702.596 917.196 C 703.165 908.961 711.779 897.364 710.781 892.514 C 711.665 891.822 714.726 890.24 715.874 889.607 z"/>
<path transform="translate(0,0)" fill="rgb(3,2,1)" d="M 695.792 970.256 C 714.04 945.498 705.368 910.36 743.593 905.148 C 752.907 903.878 762.267 903.278 771.534 901.809 C 797.223 897.328 814.604 877.432 834.366 865.212 C 819.752 897.546 803.866 914.346 778.056 937.537 C 757.998 955.559 747.516 968.886 740.245 994.794 C 732.648 1021.87 719.334 1040.02 697.6 1057.86 C 705.987 1045.25 708.633 1039.58 713.211 1024.93 C 686.644 1033.91 663.949 1058.96 652.901 1083.44 C 627.364 1140.03 611.365 1151.89 553.929 1174.28 L 554.747 1170.57 C 561.719 1165.88 570.203 1157.61 577.043 1151.82 C 580.092 1145.73 603.227 1123.23 609.846 1116.06 L 609.618 1114.42 C 595.832 1122.05 575.134 1132.98 562.507 1141.45 L 560.508 1139.5 C 572.044 1127.44 584.309 1116.55 595.207 1103.86 C 612.342 1083.92 628.649 1063.54 644.253 1042.37 C 643.895 1041.25 643.537 1040.13 643.179 1039.01 C 650.248 1019.35 673.783 999.475 662.258 977.153 C 662.185 977.011 664.342 962.373 664.538 960.698 C 665.818 949.772 661.285 944.043 654.848 935.982 C 657.761 933.889 664.781 931.933 668.487 930.712 L 671.167 929.74 C 678.455 928.251 695.839 920.607 702.596 917.196 C 704.841 916.909 706.424 916.224 707.846 917.171 C 701.65 929.663 696.465 940.298 698.106 954.476 L 698.407 952.537 C 699.058 958.642 699.101 958.848 697.459 964.479 L 695.792 970.256 z"/>
<path transform="translate(0,0)" fill="rgb(50,25,11)" d="M 668.487 930.712 L 671.167 929.74 C 669.813 937.896 676.862 942.021 678.802 949.845 C 685.092 975.202 662.463 1025.69 644.253 1042.37 C 643.895 1041.25 643.537 1040.13 643.179 1039.01 C 650.248 1019.35 673.783 999.475 662.258 977.153 C 662.185 977.011 664.342 962.373 664.538 960.698 C 665.818 949.772 661.285 944.043 654.848 935.982 C 657.761 933.889 664.781 931.933 668.487 930.712 z"/>
<path transform="translate(0,0)" fill="rgb(69,38,20)" d="M 609.618 1114.42 L 612.723 1111.8 L 614.259 1112.01 C 616.007 1122.03 586.358 1148.41 577.043 1151.82 C 580.092 1145.73 603.227 1123.23 609.846 1116.06 L 609.618 1114.42 z"/>
<path transform="translate(0,0)" fill="rgb(108,65,31)" d="M 654.296 936.049 L 654.848 935.982 C 661.285 944.043 665.818 949.772 664.538 960.698 C 664.342 962.373 662.185 977.011 662.258 977.153 C 673.783 999.475 650.248 1019.35 643.179 1039.01 C 643.537 1040.13 643.895 1041.25 644.253 1042.37 C 628.649 1063.54 612.342 1083.92 595.207 1103.86 C 584.309 1116.55 572.044 1127.44 560.508 1139.5 L 562.507 1141.45 C 575.134 1132.98 595.832 1122.05 609.618 1114.42 L 609.846 1116.06 C 603.227 1123.23 580.092 1145.73 577.043 1151.82 C 570.203 1157.61 561.719 1165.88 554.747 1170.57 L 553.929 1174.28 L 550.738 1176.42 L 551.255 1178.11 C 535.615 1197.75 520.187 1217.48 505.463 1237.82 C 502.615 1241.75 489.742 1262.23 486.734 1262.84 C 499.478 1223.9 512.951 1183.12 539.927 1151.63 C 521.688 1163.41 508.627 1174.56 494.424 1191.22 C 488.6 1198.05 482.467 1206.66 476.792 1213.08 C 495.969 1174.51 507.919 1152.42 544.922 1128.92 C 565.987 1115.54 569.248 1077.94 569.075 1054.62 C 561.053 1071.82 549.058 1098.82 533.96 1110.29 C 516.506 1123.55 503.735 1129.51 488.96 1147.64 C 431.949 1217.63 387.629 1323.64 364.583 1409.56 C 371.088 1399.7 378.132 1380.51 383.609 1369.25 C 399.789 1335.98 424.583 1290.24 453.978 1267.96 C 450.192 1279.91 439.06 1314.73 430.769 1322.56 L 429.31 1320.4 C 419.842 1325.67 405.822 1367.8 399.193 1377.96 C 365.899 1429.04 336.115 1478.77 320.692 1538.48 C 316.008 1556.61 310.296 1576.96 307.774 1596.11 C 314.255 1580.07 318.761 1562.92 324.929 1546.85 C 335.722 1518.73 352.269 1481.89 371.993 1459.33 C 370.943 1466.62 360.326 1491.02 357.277 1498.47 L 329.086 1567.78 C 323.37 1582.06 296.801 1659.44 289.776 1666.51 L 288.691 1666.14 C 293.711 1643.47 298.224 1609.2 300.532 1585.77 C 296.056 1594.71 291.025 1614.63 288.013 1625.1 C 283.945 1639.02 279.639 1652.86 275.097 1666.62 C 271.394 1678.01 264.003 1693.41 261.431 1702.13 L 259.957 1700.35 C 270.804 1665.94 280.859 1626.31 290.29 1591.4 C 303.774 1541.02 317.917 1490.81 332.715 1440.8 C 340.113 1415.99 347.469 1391.36 356.702 1367.15 C 359.764 1359.12 364.406 1345.32 368.384 1337.96 C 369.246 1337.79 370.108 1337.63 370.97 1337.46 C 379.415 1322.91 394.836 1289.96 401.522 1276.63 C 439.431 1201.15 486.425 1129.66 537.983 1062.82 C 557.111 1038.02 578.583 1009.19 599.474 985.843 L 600.183 985.784 C 611.949 974.304 620.799 961.328 634.476 950.506 L 634.415 949.513 C 639.541 943.801 648.115 941.406 654.296 936.049 z"/>
<path transform="translate(0,0)" fill="rgb(3,2,1)" d="M 600.183 985.784 C 611.949 974.304 620.799 961.328 634.476 950.506 C 645.4 1009.35 618.937 1036.58 591.096 1081.81 C 601.523 1050.87 615.997 1018.01 600.183 985.784 z"/>
<path transform="translate(0,0)" fill="rgb(50,25,11)" d="M 560.508 1139.5 L 562.507 1141.45 C 558.032 1145.08 552.219 1149.19 547.525 1152.71 C 552.149 1147.51 555.406 1144.25 560.508 1139.5 z"/>
<path transform="translate(0,0)" fill="rgb(25,20,17)" d="M 550.738 1176.42 C 547.279 1178.2 547.062 1178.35 543.337 1179.31 C 545.239 1176.74 551.8 1172.61 554.747 1170.57 L 553.929 1174.28 L 550.738 1176.42 z"/>
<path transform="translate(0,0)" fill="rgb(108,65,31)" d="M 1229.93 420.648 C 1237.2 415.072 1280 395.927 1291.54 390.757 C 1368.53 356.254 1451.11 331.332 1532.44 309.116 C 1569.55 298.977 1606.51 289.877 1643.1 277.705 C 1654.61 273.872 1667.16 271.079 1678.52 266.832 C 1680.7 266.019 1679.7 266.029 1682.18 265.631 C 1679.51 268.931 1651.5 280.408 1645.2 282.835 C 1616.21 293.897 1586.51 303.027 1556.3 310.165 C 1597.18 310.113 1634.22 299.704 1673.25 290.233 C 1668 294.037 1662.67 297.721 1657.26 301.282 C 1645.58 303.698 1629.75 311.785 1618.05 316.098 C 1592.72 325.439 1566.92 333.489 1541.56 342.642 C 1519.27 350.684 1496.41 361.282 1474.2 369.457 C 1466.61 372.248 1434.86 387.779 1430.01 387.691 C 1447.18 366.328 1495.37 345.562 1521.89 335.476 C 1533.9 330.907 1549.23 326.51 1560.67 321.09 C 1543.62 324.394 1519.78 328.994 1503.01 334.282 C 1470.11 344.662 1433.67 361.427 1403.65 378.479 C 1390.99 385.672 1375.97 399.561 1363.01 406.789 C 1343.38 417.736 1321.72 424.92 1301.6 434.626 C 1306.9 434.355 1314.7 433.395 1319.32 435.578 C 1312.86 442.744 1259.29 464.341 1247.95 467.19 C 1287.95 420.07 1334.88 403.652 1385.8 375.829 C 1301.67 400.895 1207.7 440.131 1138.28 494.256 C 1088.63 532.979 1106.83 557.167 1036.35 581.995 C 1059.73 582.791 1084.94 581.456 1105.31 566.055 C 1108.53 563.622 1119.07 546.524 1122.71 541.609 C 1139.99 518.314 1167.77 499.43 1194.45 488.545 L 1193.85 489.126 C 1170.44 511.649 1152.49 518.519 1133.96 551.784 C 1158.83 528.88 1206.62 512.161 1238.69 501.518 L 1239.04 502.926 C 1232.99 507.953 1150.62 570.91 1151.47 570.766 L 1155.73 559.449 C 1148.59 569.68 1143.16 578.971 1134.84 588.318 C 1122.54 594.864 1104.3 618.844 1096.55 621.555 C 1103.04 606.269 1119.77 579.533 1128.56 563.69 C 1118.96 574.18 1083.25 617.399 1070.83 617.972 C 1066.43 619.93 1063.39 621.432 1058.58 621.957 L 1058.37 623.11 C 1055.64 637.335 1051.15 640.507 1039.64 648.339 C 1041.56 642.304 1050.75 629.012 1050.61 627.394 L 1047.2 629.544 C 1047.58 626.493 1056.79 612.241 1058.76 606.278 C 1051.37 605.96 1040.77 614.989 1033.72 617.632 C 1030.02 619.018 1025.5 620.082 1021.65 621.043 C 1023.81 617.293 1026.01 612.57 1027.97 608.634 C 1008.39 624.555 991.078 628.439 967.888 617.733 L 967.793 617.308 C 961.938 613.418 961.02 610.873 958.059 604.376 C 1036.12 537.143 1138.3 466.138 1229.93 420.648 z"/>
<path transform="translate(0,0)" fill="rgb(162,103,54)" d="M 1229.93 420.648 L 1230.24 422.125 C 1224.79 425.981 1218.16 428.47 1212.2 431.552 C 1180.32 448.04 1149.92 467.156 1119.54 486.204 C 1118.56 490.904 1118.43 491.551 1115.53 495.34 L 1115.56 497.318 L 1116.94 497.795 C 1130.86 489.167 1208.4 433.011 1218.72 432.438 C 1218.21 433.063 1181.75 455.095 1177.65 457.828 C 1103.97 505.904 1033.84 559.201 967.793 617.308 C 961.938 613.418 961.02 610.873 958.059 604.376 C 1036.12 537.143 1138.3 466.138 1229.93 420.648 z"/>
<path transform="translate(0,0)" fill="rgb(50,25,11)" d="M 1058.58 621.957 C 1058.03 616.428 1062.35 611.611 1068.2 612.313 C 1069.76 614.919 1070.02 615.097 1070.83 617.972 C 1066.43 619.93 1063.39 621.432 1058.58 621.957 z"/>
<path transform="translate(0,0)" fill="rgb(25,20,17)" d="M 1070.5 590.209 C 1070.63 593.635 1062.83 603.443 1057.96 604.774 L 1056.6 603.129 C 1057.34 596.657 1064.75 591.916 1070.5 590.209 z"/>
<path transform="translate(0,0)" fill="rgb(50,25,11)" d="M 1238.69 501.518 C 1256.78 492.849 1280.08 485.935 1299.05 476.585 C 1323.32 464.625 1357.4 440.817 1383.92 437.246 L 1384.97 438.233 C 1374.35 442.373 1347.4 458.938 1337.23 465.01 C 1246.07 519.639 1164.95 589.492 1097.4 671.533 C 1086.12 685.274 1075.39 699.469 1065.26 714.083 C 1058.12 724.536 1045.94 745.45 1037.74 753.211 C 1029.27 761.232 1007.66 773.904 995.84 776.62 C 988.011 778.419 978.736 775.777 971.437 776.556 C 946.427 779.224 922.644 796.186 911.386 818.474 L 910.556 817.367 C 921.671 745.62 997.356 773.458 1033.81 717.836 C 1028.14 721.691 1015.16 731.051 1008.18 729.725 C 1005.28 725.999 1008.64 720.05 1011.74 714.571 C 1040.03 664.64 1108.07 667.907 1131.86 613.653 C 1133.89 609.028 1150.96 571.45 1151.47 570.766 C 1150.62 570.91 1232.99 507.953 1239.04 502.926 L 1238.69 501.518 z"/>
<path transform="translate(0,0)" fill="rgb(50,25,11)" d="M 371.993 1459.33 C 376.571 1453.76 383.358 1445.37 390.812 1450.32 C 394.91 1458.31 390.419 1479.08 387.247 1487.24 C 348.162 1587.85 324.024 1692.67 276.145 1789.93 C 267.684 1806.72 258.256 1823 247.91 1838.7 C 244.76 1843.53 236.626 1854.33 234.664 1857.98 C 236.34 1859.46 235.557 1859.01 236.82 1859.62 C 233.714 1861.72 232.203 1862.44 228.79 1864.08 C 222.225 1865.33 223.949 1866 219.429 1867.61 L 209.152 1867.81 C 213.696 1866.7 215.678 1864.6 218.674 1861.1 C 224.906 1853.8 231.036 1843.13 236.154 1835.22 C 267.591 1786.66 338.34 1640.95 333.707 1586.14 C 324.808 1620.59 306.86 1669.25 283.176 1695.89 L 282.25 1696.91 L 282.227 1697.06 L 281.179 1696.25 C 281.476 1692.18 287.025 1670.19 288.691 1666.14 L 289.776 1666.51 C 296.801 1659.44 323.37 1582.06 329.086 1567.78 L 357.277 1498.47 C 360.326 1491.02 370.943 1466.62 371.993 1459.33 z"/>
<path transform="translate(0,0)" fill="rgb(50,25,11)" d="M 1574.93 345.335 C 1646.79 332.991 1716.64 295.52 1776.95 255.683 C 1779.29 254.142 1782.4 254.387 1784.99 254.665 L 1785.6 255.343 C 1783.17 257.649 1782.96 257.439 1782.3 260.632 C 1780.78 264.508 1778.95 270.603 1776.08 273.211 C 1771.12 272.121 1761.27 279.519 1756.42 282.608 C 1686.51 327.133 1604.08 351.216 1525.89 377.071 C 1499.37 385.839 1456.15 408.848 1431.01 403.694 C 1428.72 403.232 1426.83 401.628 1426 399.446 C 1424.39 395.264 1426.67 390.325 1430.01 387.691 C 1434.86 387.779 1466.61 372.248 1474.2 369.457 C 1496.41 361.282 1519.27 350.684 1541.56 342.642 C 1566.92 333.489 1592.72 325.439 1618.05 316.098 C 1629.75 311.785 1645.58 303.698 1657.26 301.282 C 1641.42 320.512 1597.01 334.135 1575.9 344.833 L 1574.93 345.335 z"/>
<path transform="translate(0,0)" fill="rgb(162,103,54)" d="M 584.741 978.829 C 591.522 981.318 593.266 981.938 599.474 985.843 C 578.583 1009.19 557.111 1038.02 537.983 1062.82 C 486.425 1129.66 439.431 1201.15 401.522 1276.63 C 394.836 1289.96 379.415 1322.91 370.97 1337.46 C 370.108 1337.63 369.246 1337.79 368.384 1337.96 C 373.722 1320.22 390.389 1283.82 398.452 1266.76 C 445.082 1168.07 512.619 1060.79 584.741 978.829 z"/>
<path transform="translate(0,0)" fill="rgb(92,52,27)" d="M 874.184 730.078 L 878.805 730.96 C 876.535 734.527 876.498 733.389 876.778 736.828 C 881.958 738.572 886.368 734.66 891.905 733.248 C 890.667 735.889 888.938 739.322 887.947 741.967 C 884.2 750.68 875.444 763.793 870.432 772.795 L 869.668 773.612 C 859.523 784.663 848.395 801.15 837.228 813.775 C 807.509 847.581 772.77 876.619 734.229 899.871 C 728.048 903.672 724.604 907.15 717.78 909.965 L 716.56 909.484 C 719.467 901.444 717.766 897.551 715.874 889.607 C 786.679 846.922 831.822 801.071 874.184 730.078 z"/>
<path transform="translate(0,0)" fill="rgb(108,65,31)" d="M 1010.48 646.034 C 1019.4 635.288 1036.11 626.613 1048.05 617.264 C 1042.86 626.311 1036.17 638.496 1029.76 646.409 C 1021.46 654.644 1016.67 657.323 1008.13 664.376 C 1006.46 666.986 1005.16 668.863 1003.31 671.36 L 1003.79 671.227 C 996.92 677.891 990.545 680.388 984.898 685.393 C 971.934 694.029 944.789 696.018 929.283 693.311 C 922.698 692.161 919.04 686.422 913.271 686.624 C 914.23 684.619 915.356 682.612 916.41 680.647 L 914.565 677.079 C 912.78 671.037 911.129 664.373 908.349 658.798 C 912.303 651.279 915.72 646.92 920.833 640.055 C 925.046 644.321 928 647.595 933.426 650.48 L 934.26 650.479 C 953.303 659.45 974.851 653.737 994.282 649.676 C 999.265 647.166 1005.43 643.777 1010.48 646.034 z"/>
<path transform="translate(0,0)" fill="rgb(50,25,11)" d="M 1008.13 664.376 C 1006.46 666.986 1005.16 668.863 1003.31 671.36 L 1003.79 671.227 C 996.92 677.891 990.545 680.388 984.898 685.393 C 971.934 694.029 944.789 696.018 929.283 693.311 C 922.698 692.161 919.04 686.422 913.271 686.624 C 914.23 684.619 915.356 682.612 916.41 680.647 C 934.951 695.663 957.815 675.882 978.46 672.951 L 979.989 672.744 L 977.058 674.7 C 970.658 678.958 969.388 680.04 963.844 685.452 C 983.705 680.03 990.549 675.516 1008.13 664.376 z"/>
<path transform="translate(0,0)" fill="rgb(162,103,54)" d="M 920.833 640.055 C 925.046 644.321 928 647.595 933.426 650.48 C 930.195 656.446 919.973 671.538 915.931 676.92 L 914.565 677.079 C 912.78 671.037 911.129 664.373 908.349 658.798 C 912.303 651.279 915.72 646.92 920.833 640.055 z"/>
<path transform="translate(0,0)" fill="rgb(25,20,17)" d="M 994.282 649.676 C 999.265 647.166 1005.43 643.777 1010.48 646.034 C 1004.97 652.228 996.938 657.748 988.437 654.633 C 990.754 651.805 991.751 652.908 994.282 649.676 z"/>
<path transform="translate(0,0)" fill="rgb(69,38,20)" d="M 908.349 658.798 C 911.129 664.373 912.78 671.037 914.565 677.079 L 916.41 680.647 C 915.356 682.612 914.23 684.619 913.271 686.624 C 910.175 696.452 901.381 713.808 900.039 719.75 C 904.065 723.359 912.176 718.244 913.832 724.479 C 910.877 729.486 893.71 740.792 887.947 741.967 C 888.938 739.322 890.667 735.889 891.905 733.248 C 886.368 734.66 881.958 738.572 876.778 736.828 C 876.498 733.389 876.535 734.527 878.805 730.96 L 874.184 730.078 C 881.723 716.751 888.695 703.11 895.08 689.193 C 899.494 679.331 903.527 668.298 908.349 658.798 z"/>
<path transform="translate(0,0)" fill="rgb(108,65,31)" d="M 878.805 730.96 C 885.182 729.111 891.402 727.191 897.918 725.899 C 897.032 727.016 892.673 732.649 891.905 733.248 C 886.368 734.66 881.958 738.572 876.778 736.828 C 876.498 733.389 876.535 734.527 878.805 730.96 z"/>
<path transform="translate(0,0)" fill="rgb(69,38,20)" d="M 584.741 978.829 C 591.95 966.833 617.629 941.065 627.882 932.404 C 629.507 939.289 630.65 943.223 634.415 949.513 L 634.476 950.506 C 620.799 961.328 611.949 974.304 600.183 985.784 L 599.474 985.843 C 593.266 981.938 591.522 981.318 584.741 978.829 z"/>
<path transform="translate(0,0)" fill="rgb(69,38,20)" d="M 920.833 640.055 C 926.465 631.713 949.505 610.685 958.059 604.376 C 961.02 610.873 961.938 613.418 967.793 617.308 L 967.888 617.733 C 956.118 628.754 945.336 638.798 934.26 650.479 L 933.426 650.48 C 928 647.595 925.046 644.321 920.833 640.055 z"/>
<path transform="translate(0,0)" fill="rgb(69,38,20)" d="M 710.781 892.514 C 711.779 897.364 703.165 908.961 702.596 917.196 C 695.839 920.607 678.455 928.251 671.167 929.74 L 668.487 930.712 C 667.086 923.617 666.196 920.804 661.565 915.274 C 677.977 908.479 694.732 900.234 710.781 892.514 z"/>
<path transform="translate(0,0)" fill="rgb(106,92,74)" d="M 1736.92 321.623 C 1740.14 320.339 1744.52 318.047 1747.71 318.579 C 1747.3 321.834 1747.54 320.372 1745.06 323.533 L 1749.38 324.919 C 1745.85 328.628 1743.4 331.534 1739.15 334.449 L 1733.39 333.973 C 1718.7 339.893 1710.78 339.931 1695.36 342.852 C 1698.77 338.635 1700.68 335.922 1705.11 332.635 C 1714.65 324.593 1724.98 323.76 1736.92 321.623 z"/>
<path transform="translate(0,0)" fill="rgb(195,182,162)" d="M 1736.92 321.623 C 1735.23 328.08 1709.08 334.477 1705.11 332.635 C 1714.65 324.593 1724.98 323.76 1736.92 321.623 z"/>
<path transform="translate(0,0)" fill="rgb(25,20,17)" d="M 1733.39 333.973 C 1739.41 330.087 1740.61 328.788 1745.06 323.533 L 1749.38 324.919 C 1745.85 328.628 1743.4 331.534 1739.15 334.449 L 1733.39 333.973 z"/>
<path transform="translate(0,0)" fill="rgb(153,138,115)" d="M 219.429 1867.61 C 223.949 1866 222.225 1865.33 228.79 1864.08 C 234.554 1866.11 237.679 1865.59 243.866 1865.31 C 245.665 1866.56 246.505 1867.05 248.598 1867.68 C 248.335 1868.19 248.072 1868.69 247.809 1869.2 C 241.67 1876.52 238.972 1877.85 229.348 1878.72 C 226.295 1879.1 222.8 1878.73 220.897 1881.34 C 218.701 1879.57 218.671 1879.67 216.009 1878.63 C 210.742 1876.19 205.452 1873.79 200.139 1871.45 C 205.955 1870.73 204.487 1871.85 207.414 1868.14 L 209.152 1867.81 L 219.429 1867.61 z"/>
<path transform="translate(0,0)" fill="rgb(195,182,162)" d="M 219.429 1867.61 C 223.949 1866 222.225 1865.33 228.79 1864.08 C 234.554 1866.11 237.679 1865.59 243.866 1865.31 C 245.665 1866.56 246.505 1867.05 248.598 1867.68 C 248.335 1868.19 248.072 1868.69 247.809 1869.2 C 244.902 1868.03 239.342 1868.77 235.957 1869.02 C 228.894 1876.62 220.21 1871.57 211.031 1871.47 C 208.356 1870.39 209.549 1870.92 207.414 1868.14 L 209.152 1867.81 L 219.429 1867.61 z"/>
<path transform="translate(0,0)" fill="rgb(69,38,20)" d="M 219.429 1867.61 C 223.949 1866 222.225 1865.33 228.79 1864.08 C 234.554 1866.11 237.679 1865.59 243.866 1865.31 C 245.665 1866.56 246.505 1867.05 248.598 1867.68 C 248.335 1868.19 248.072 1868.69 247.809 1869.2 C 244.902 1868.03 239.342 1868.77 235.957 1869.02 C 229.893 1868.21 225.539 1867.9 219.429 1867.61 z"/>
<path transform="translate(0,0)" fill="rgb(25,20,17)" d="M 200.139 1871.45 C 205.955 1870.73 204.487 1871.85 207.414 1868.14 C 209.549 1870.92 208.356 1870.39 211.031 1871.47 C 218.289 1876.14 220.466 1877.62 229.348 1878.72 C 226.295 1879.1 222.8 1878.73 220.897 1881.34 C 218.701 1879.57 218.671 1879.67 216.009 1878.63 C 210.742 1876.19 205.452 1873.79 200.139 1871.45 z"/>
<path transform="translate(0,0)" fill="rgb(162,103,54)" d="M 642.442 923.79 L 654.296 936.049 C 648.115 941.406 639.541 943.801 634.415 949.513 C 630.65 943.223 629.507 939.289 627.882 932.404 C 632.524 929.01 637.401 926.524 642.442 923.79 z"/>
<path transform="translate(0,0)" fill="rgb(50,25,11)" d="M 1134.84 588.318 C 1127.03 604.944 1107.79 624.007 1091.22 632.991 L 1090.34 633.459 C 1091.67 630.703 1094.85 623.55 1096.55 621.555 C 1104.3 618.844 1122.54 594.864 1134.84 588.318 z"/>
<path transform="translate(0,0)" fill="rgb(92,52,27)" d="M 642.442 923.79 C 646.617 921.353 656.691 917.351 661.565 915.274 C 666.196 920.804 667.086 923.617 668.487 930.712 C 664.781 931.933 657.761 933.889 654.848 935.982 L 654.296 936.049 L 642.442 923.79 z"/>
<path transform="translate(0,0)" fill="rgb(106,92,74)" d="M 179.606 1869.33 C 184.099 1869.16 187.469 1868.83 191.928 1869.59 L 200.139 1871.45 C 205.452 1873.79 210.742 1876.19 216.009 1878.63 C 218.671 1879.67 218.701 1879.57 220.897 1881.34 C 203.711 1887.58 191.707 1880.98 179.606 1869.33 z"/>
<path transform="translate(0,0)" fill="rgb(195,182,162)" d="M 191.928 1869.59 L 200.139 1871.45 C 205.452 1873.79 210.742 1876.19 216.009 1878.63 C 209.756 1882.33 196.417 1875.89 191.499 1871.48 L 191.928 1869.59 z"/>
<path transform="translate(0,0)" fill="rgb(117,102,83)" d="M 1730.07 308.398 C 1735.22 310.378 1748.3 305.805 1754.12 304.21 L 1749.67 313.276 C 1741.56 316.932 1726.21 318.916 1716.68 320.852 C 1720.73 315.856 1724.18 311.223 1730.07 308.398 z"/>
<path transform="translate(0,0)" fill="rgb(153,138,115)" d="M 236.82 1859.62 C 242.907 1857.01 247.142 1855.61 251.953 1851 C 253.966 1849.07 258.183 1845.16 260.751 1844.8 C 263.972 1856.41 253.443 1862.88 243.866 1865.31 C 237.679 1865.59 234.554 1866.11 228.79 1864.08 C 232.203 1862.44 233.714 1861.72 236.82 1859.62 z"/>
<path transform="translate(0,0)" fill="rgb(25,20,17)" d="M 1029.76 646.409 L 1031.47 647.34 L 1031.88 647.253 C 1029.02 662.019 997.808 679.861 984.898 685.393 C 990.545 680.388 996.92 677.891 1003.79 671.227 L 1003.31 671.36 C 1005.16 668.863 1006.46 666.986 1008.13 664.376 C 1016.67 657.323 1021.46 654.644 1029.76 646.409 z"/>
<path transform="translate(0,0)" fill="rgb(106,92,74)" d="M 1737.01 304.601 L 1736.57 303.051 C 1739.76 297.579 1757.55 283.258 1763.67 282.399 L 1763.25 285.174 C 1764.91 286.657 1765.64 287.736 1767.56 288.891 L 1771.55 291.172 L 1769.57 292.303 C 1760.07 296.549 1747.78 295.609 1740.12 301.138 L 1739.39 303.35 L 1737.01 304.601 z"/>
<path transform="translate(0,0)" fill="rgb(106,92,74)" d="M 1756.2 299.329 C 1761.08 298.085 1765.95 296.787 1770.81 295.435 C 1764.27 304.633 1760.81 309.424 1749.67 313.276 L 1754.12 304.21 C 1756.97 302.141 1757.78 302.383 1758.35 299.806 L 1756.2 299.329 z"/>
<path transform="translate(0,0)" fill="rgb(195,182,162)" d="M 1756.2 299.329 L 1758.35 299.806 C 1757.78 302.383 1756.97 302.141 1754.12 304.21 C 1748.3 305.805 1735.22 310.378 1730.07 308.398 C 1732.55 306.805 1734.4 305.931 1737.01 304.601 L 1739.39 303.35 C 1744.95 301.96 1750.62 300.662 1756.2 299.329 z"/>
<path transform="translate(0,0)" fill="rgb(69,38,20)" d="M 253.799 1721.08 C 254.689 1714.02 257.401 1706.93 259.957 1700.35 L 261.431 1702.13 L 253.799 1721.08 z"/>
<path transform="translate(0,0)" fill="rgb(25,20,17)" d="M 1205.76 861.957 C 1210.75 860.855 1216.27 859.793 1221.12 858.291 C 1208.84 873.85 1196.27 879.21 1177.1 881.523 C 1178.67 883.833 1178.6 884.573 1180.76 885.591 C 1186.29 884.493 1191.82 883.434 1197.37 882.412 C 1183.36 900.085 1173.9 901.359 1152.35 905.022 L 1152.62 909.324 L 1165.98 907.71 C 1170.3 906.534 1168.54 906.152 1171.74 907.519 C 1170.37 919.603 1144.75 926.324 1134.65 928.024 C 1129.21 929.924 1123.1 929.926 1118.43 931.698 C 1113.92 933.409 1107.81 942.685 1102 943.011 C 1108.43 934.751 1118.31 932.631 1123.07 920.991 C 1123.5 919.956 1135.66 909.714 1137.54 907.597 C 1146.16 897.898 1152.54 891.289 1163.79 884.56 L 1164.71 882.763 C 1170.07 872.137 1174.86 868.078 1184.59 861.729 L 1188.84 865.633 C 1194.55 863.701 1199.83 862.972 1205.76 861.957 z"/>
<path transform="translate(0,0)" fill="rgb(106,92,74)" d="M 1165.98 907.71 C 1170.3 906.534 1168.54 906.152 1171.74 907.519 C 1170.37 919.603 1144.75 926.324 1134.65 928.024 C 1130.95 928.355 1127.99 929.464 1125.26 926.984 L 1125.68 924.681 C 1128.92 921.396 1129.3 920.964 1133.2 918.617 C 1140.58 913.409 1144.31 911.795 1152.62 909.324 L 1165.98 907.71 z"/>
<path transform="translate(0,0)" fill="rgb(195,182,162)" d="M 1165.98 907.71 C 1159.67 913.651 1144.54 917.262 1135.99 919.436 L 1133.2 918.617 C 1140.58 913.409 1144.31 911.795 1152.62 909.324 L 1165.98 907.71 z"/>
<path transform="translate(0,0)" fill="rgb(117,102,83)" d="M 1180.76 885.591 C 1186.29 884.493 1191.82 883.434 1197.37 882.412 C 1183.36 900.085 1173.9 901.359 1152.35 905.022 L 1148.83 905.919 L 1147.59 905.06 C 1148.5 901.075 1152.66 897.4 1156.23 895.596 C 1162.76 890.986 1167.09 888.892 1174.54 886.394 L 1180.76 885.591 z"/>
<path transform="translate(0,0)" fill="rgb(195,182,162)" d="M 1174.54 886.394 C 1178.73 886.618 1178.46 885.895 1180.96 888.048 C 1178.6 892.829 1160.65 897.255 1156.23 895.596 C 1162.76 890.986 1167.09 888.892 1174.54 886.394 z"/>
<path transform="translate(0,0)" fill="rgb(106,92,74)" d="M 1205.76 861.957 C 1210.75 860.855 1216.27 859.793 1221.12 858.291 C 1208.84 873.85 1196.27 879.21 1177.1 881.523 C 1173.96 882.102 1173.73 882.675 1171.13 881.754 C 1171.74 877.715 1175.63 875.077 1178.97 872.56 C 1182.02 870.12 1185.58 867.846 1188.84 865.633 C 1194.55 863.701 1199.83 862.972 1205.76 861.957 z"/>
<path transform="translate(0,0)" fill="rgb(195,182,162)" d="M 1205.76 861.957 C 1203.03 868.141 1184.32 874.827 1178.97 872.56 C 1182.02 870.12 1185.58 867.846 1188.84 865.633 C 1194.55 863.701 1199.83 862.972 1205.76 861.957 z"/>
<path transform="translate(0,0)" fill="rgb(50,25,11)" d="M 110.258 1934.06 C 114.167 1933.86 123.182 1935.31 127.541 1935.73 C 140.345 1936.98 147.751 1936.06 160.224 1933.69 C 148.302 1943.36 135.683 1952.14 122.47 1959.95 C 112.36 1965.44 93.3064 1974.88 82.5192 1967.85 C 74.3842 1954.39 100.84 1939.79 110.258 1934.06 z"/>
<path transform="translate(0,0)" fill="rgb(117,102,83)" d="M 1552.83 508.654 C 1557.08 506.981 1559.53 506.391 1564 505.328 C 1559.62 512.001 1558.92 512.545 1553.72 518.513 C 1552.78 523.242 1548.32 523.749 1544.36 529.377 L 1542.91 529.332 C 1531.36 543.43 1523.52 547.809 1505.01 550.554 C 1501.28 551.108 1494.86 551.982 1491.4 553.211 L 1490.01 554.095 L 1486.17 552.68 C 1495.16 536.002 1505.04 536.055 1511.35 525.982 L 1514.54 526.896 C 1518.86 522.355 1522.06 518.332 1528.07 516.42 C 1538.26 511.123 1541.75 510.495 1552.83 508.654 z"/>
<path transform="translate(0,0)" fill="rgb(117,102,83)" d="M 1552.83 508.654 C 1557.08 506.981 1559.53 506.391 1564 505.328 C 1559.62 512.001 1558.92 512.545 1553.72 518.513 C 1546.48 522.776 1521.13 531.116 1513.74 529.763 C 1513.94 528.951 1514.23 527.613 1514.54 526.896 C 1518.86 522.355 1522.06 518.332 1528.07 516.42 C 1538.26 511.123 1541.75 510.495 1552.83 508.654 z"/>
<path transform="translate(0,0)" fill="rgb(195,182,162)" d="M 1528.07 516.42 C 1538.26 511.123 1541.75 510.495 1552.83 508.654 C 1550.66 516.052 1532.75 519.52 1528.07 516.42 z"/>
<path transform="translate(0,0)" fill="rgb(25,20,17)" d="M 1514.54 526.896 C 1514.23 527.613 1513.94 528.951 1513.74 529.763 C 1521.13 531.116 1546.48 522.776 1553.72 518.513 C 1552.78 523.242 1548.32 523.749 1544.36 529.377 L 1542.91 529.332 C 1539.77 529.627 1529.79 531.351 1527.06 532.732 C 1516.24 534.442 1511.22 535.354 1502.28 542.559 C 1496.85 544.894 1494.67 546.522 1491.57 551.573 L 1491.4 553.211 L 1490.01 554.095 L 1486.17 552.68 C 1495.16 536.002 1505.04 536.055 1511.35 525.982 L 1514.54 526.896 z"/>
<path transform="translate(0,0)" fill="rgb(195,182,162)" d="M 1527.06 532.732 C 1524.75 538.25 1507.1 544.637 1502.28 542.559 C 1511.22 535.354 1516.24 534.442 1527.06 532.732 z"/>
<path transform="translate(0,0)" fill="rgb(50,25,11)" d="M 159.989 1909.87 C 165.104 1908.63 176.646 1904.73 180.712 1901.9 C 196.222 1891.11 192.021 1885.99 211.446 1885.81 C 201.26 1898.59 187.452 1913.38 172.707 1920.84 C 160.657 1926.93 138.523 1931.89 126.662 1924.17 L 126.195 1921.52 C 128.739 1914.95 131.334 1913.45 137.153 1909.24 C 145.962 1909.95 151.18 1910.13 159.989 1909.87 z"/>
<path transform="translate(0,0)" fill="rgb(108,65,31)" d="M 137.153 1909.24 C 145.962 1909.95 151.18 1910.13 159.989 1909.87 C 148.855 1918.04 140.596 1924.35 126.662 1924.17 L 126.195 1921.52 C 128.739 1914.95 131.334 1913.45 137.153 1909.24 z"/>
<path transform="translate(0,0)" fill="rgb(106,92,74)" d="M 1709.16 345.317 C 1714.47 344.227 1719.77 343.05 1725.04 341.787 C 1703.82 367.97 1697.91 358.483 1674.65 367.059 C 1671.56 367.422 1671.45 366.958 1668.32 365.888 C 1669.65 361.82 1672.09 358.816 1675.04 355.849 C 1676.46 355.689 1675.67 355.824 1677.63 355.264 L 1679.27 354.786 L 1681.03 355.792 C 1682.86 354.9 1684.82 354.197 1686.72 353.451 C 1695.93 348.449 1699.31 347.555 1709.16 345.317 z"/>
<path transform="translate(0,0)" fill="rgb(195,182,162)" d="M 1709.16 345.317 L 1711.22 346.083 C 1709.11 351.434 1691.73 356.457 1686.72 353.451 C 1695.93 348.449 1699.31 347.555 1709.16 345.317 z"/>
<path transform="translate(0,0)" fill="rgb(25,20,17)" d="M 1675.04 355.849 C 1676.46 355.689 1675.67 355.824 1677.63 355.264 L 1679.27 354.786 L 1681.03 355.792 C 1675.65 362.682 1678.09 360.448 1674.65 367.059 C 1671.56 367.422 1671.45 366.958 1668.32 365.888 C 1669.65 361.82 1672.09 358.816 1675.04 355.849 z"/>
<path transform="translate(0,0)" fill="rgb(117,102,83)" d="M 1252.3 814.381 C 1256.93 813.408 1261.58 812.504 1266.24 811.668 C 1251.6 833.006 1237.32 832.468 1213.93 836.262 C 1216.14 832.758 1219.68 827.915 1223.13 825.575 C 1232.95 817.428 1240.11 816.614 1252.3 814.381 z"/>
<path transform="translate(0,0)" fill="rgb(195,182,162)" d="M 1252.3 814.381 L 1253.93 815.619 C 1249.69 820.174 1229.03 828.506 1223.13 825.575 C 1232.95 817.428 1240.11 816.614 1252.3 814.381 z"/>
<path transform="translate(0,0)" fill="rgb(117,102,83)" d="M 1685.19 368.301 C 1690.12 367.653 1696.93 366.966 1701.64 365.928 C 1696.99 372.45 1695.26 375.368 1688.11 379.374 C 1677.26 386.804 1661.23 387.781 1648.16 390.574 C 1652.85 384.644 1656.83 379.653 1663.82 376.537 C 1672.67 371.863 1675.63 370.736 1685.19 368.301 z"/>
<path transform="translate(0,0)" fill="rgb(106,92,74)" d="M 1648.16 390.574 C 1652.85 384.644 1656.83 379.653 1663.82 376.537 L 1664.52 378.575 L 1665.59 378.824 C 1678.22 380.329 1674.86 382.98 1688.11 379.374 C 1677.26 386.804 1661.23 387.781 1648.16 390.574 z"/>
<path transform="translate(0,0)" fill="rgb(195,182,162)" d="M 1685.19 368.301 L 1687.42 370.135 C 1686.15 375.123 1670.4 378.068 1665.59 378.824 L 1664.52 378.575 L 1663.82 376.537 C 1672.67 371.863 1675.63 370.736 1685.19 368.301 z"/>
<path transform="translate(0,0)" fill="rgb(117,102,83)" d="M 1037.62 1046.15 C 1023.49 1065.7 1009.89 1066.68 987.445 1070.23 L 985.926 1070.47 C 988.077 1067.36 990.217 1063.68 993.212 1061.51 C 1003.08 1053.13 1007.69 1051.54 1019.91 1049.64 C 1025.71 1047.95 1031.65 1047.13 1037.62 1046.15 z"/>
<path transform="translate(0,0)" fill="rgb(195,182,162)" d="M 1019.91 1049.64 C 1018.06 1055.43 998.43 1062.11 993.212 1061.51 C 1003.08 1053.13 1007.69 1051.54 1019.91 1049.64 z"/>
<path transform="translate(0,0)" fill="rgb(106,92,74)" d="M 641.299 1439.41 C 646.538 1438.5 652.002 1437.26 657.023 1435.51 C 639.006 1458.04 631.168 1455.98 603.998 1460.5 C 607.035 1456.47 610.579 1451.25 614.984 1448.79 C 625.045 1442.11 629.74 1441.56 641.299 1439.41 z"/>
<path transform="translate(0,0)" fill="rgb(195,182,162)" d="M 641.299 1439.41 L 643.116 1440.26 C 639.821 1444.97 620.896 1452.29 614.984 1448.79 C 625.045 1442.11 629.74 1441.56 641.299 1439.41 z"/>
<path transform="translate(0,0)" fill="rgb(117,102,83)" d="M 1346.65 719.717 C 1351.45 718.073 1353.7 717.865 1358.78 717.2 C 1343.34 739.594 1329.62 735.933 1306.1 741.941 C 1308.95 738.412 1312.28 733.445 1316.09 731.481 C 1326.62 722.65 1333.65 721.829 1346.65 719.717 z"/>
<path transform="translate(0,0)" fill="rgb(195,182,162)" d="M 1316.09 731.481 C 1326.62 722.65 1333.65 721.829 1346.65 719.717 C 1344.31 725.65 1324.12 731.763 1317.82 732.247 L 1316.09 731.481 z"/>
<path transform="translate(0,0)" fill="rgb(106,92,74)" d="M 1322.21 743.484 C 1327.18 742.209 1332.18 741.011 1337.18 739.89 C 1316.11 764.07 1311.92 757.547 1284.02 766.288 C 1286.07 762.483 1288.46 758.06 1292.24 755.668 C 1302.09 747.357 1310.05 745.809 1322.21 743.484 z"/>
<path transform="translate(0,0)" fill="rgb(195,182,162)" d="M 1322.21 743.484 L 1322.51 745.578 C 1317.53 751.511 1302.24 754.507 1294.52 756.432 L 1292.24 755.668 C 1302.09 747.357 1310.05 745.809 1322.21 743.484 z"/>
<path transform="translate(0,0)" fill="url(#Gradient6)" d="M 397.837 1688.68 C 402.454 1686.84 405.681 1686.53 410.544 1685.73 C 394.511 1708.8 384.418 1704.71 360.091 1710.06 C 362.182 1706.92 366.471 1699.53 369.864 1698.47 C 380.709 1692.02 385.67 1690.74 397.837 1688.68 z"/>
<path transform="translate(0,0)" fill="rgb(195,182,162)" d="M 369.864 1698.47 C 380.709 1692.02 385.67 1690.74 397.837 1688.68 C 396.005 1694.85 375.056 1700.77 369.864 1698.47 z"/>
<path transform="translate(0,0)" fill="rgb(117,102,83)" d="M 463.232 1620.51 C 467.623 1619.66 471.705 1619.71 476.174 1619.56 C 457.831 1641.71 449.582 1635.24 425.765 1642.24 C 429.627 1636.04 433.41 1630.59 440.153 1627.58 C 446.616 1624.26 449.552 1622.85 456.617 1621.29 L 463.232 1620.51 z"/>
<path transform="translate(0,0)" fill="rgb(195,182,162)" d="M 463.232 1620.51 L 465.166 1621.72 C 461.706 1626.4 445.71 1630.44 440.153 1627.58 C 446.616 1624.26 449.552 1622.85 456.617 1621.29 L 463.232 1620.51 z"/>
<path transform="translate(0,0)" fill="rgb(106,92,74)" d="M 866.093 1211.54 C 870.428 1210.16 872.994 1209.65 877.488 1208.83 C 865.565 1229.44 849.144 1229.64 827.655 1232.61 C 830.407 1228.61 833.503 1223.33 838.055 1221.54 C 846.497 1214.99 855.952 1213.37 866.093 1211.54 z"/>
<path transform="translate(0,0)" fill="rgb(195,182,162)" d="M 866.093 1211.54 L 866.409 1213.45 C 860.042 1217.93 845.684 1222.44 838.055 1221.54 C 846.497 1214.99 855.952 1213.37 866.093 1211.54 z"/>
<path transform="translate(0,0)" fill="rgb(106,92,74)" d="M 1071.92 1001.55 C 1076.2 1000.13 1078.51 999.65 1082.96 998.766 C 1067.67 1020.29 1056.41 1019.29 1032.31 1022.78 C 1034.72 1019.12 1035.7 1016.91 1039.27 1014.57 C 1049.97 1005.01 1058.24 1004.2 1071.92 1001.55 z"/>
<path transform="translate(0,0)" fill="rgb(195,182,162)" d="M 1039.27 1014.57 C 1049.97 1005.01 1058.24 1004.2 1071.92 1001.55 C 1067.75 1007.1 1044.96 1015.37 1039.27 1014.57 z"/>
<path transform="translate(0,0)" fill="rgb(117,102,83)" d="M 1436.24 625.417 C 1441.35 624.094 1444.18 623.883 1449.34 623.398 C 1436.76 642.504 1419.23 644.648 1398.21 646.43 C 1401.18 643.32 1404.37 639.426 1408.05 637.472 C 1418.09 628.76 1423.72 627.75 1436.24 625.417 z"/>
<path transform="translate(0,0)" fill="rgb(195,182,162)" d="M 1436.24 625.417 L 1437.53 626.671 C 1434 631.411 1413.57 638.367 1408.05 637.472 C 1418.09 628.76 1423.72 627.75 1436.24 625.417 z"/>
<path transform="translate(0,0)" fill="rgb(106,92,74)" d="M 1133.14 932.258 C 1139.35 930.726 1144.68 929.414 1151 928.339 C 1135.12 950.26 1124.26 948.427 1099.43 953.952 C 1101.92 950.076 1104.74 945.121 1109.32 943.574 C 1119.01 937.109 1121.83 934.419 1133.14 932.258 z"/>
<path transform="translate(0,0)" fill="rgb(195,182,162)" d="M 1133.14 932.258 L 1135.27 933.094 C 1133.61 937.629 1113.16 945.019 1109.32 943.574 C 1119.01 937.109 1121.83 934.419 1133.14 932.258 z"/>
<path transform="translate(0,0)" fill="rgb(106,92,74)" d="M 778.649 1302.98 C 782.024 1302.11 785.526 1301.15 788.918 1300.4 C 773.839 1321.78 762.392 1320.53 738.205 1322.92 C 740.434 1320.33 743.455 1316.37 746.233 1314.66 C 755.967 1306.14 766.21 1303.56 778.649 1302.98 z"/>
<path transform="translate(0,0)" fill="url(#Gradient5)" d="M 746.233 1314.66 C 755.967 1306.14 766.21 1303.56 778.649 1302.98 C 776.585 1309.14 751.681 1315.78 746.233 1314.66 z"/>
<path transform="translate(0,0)" fill="rgb(117,102,83)" d="M 1597.34 461.498 C 1602.47 460.053 1606.37 459.151 1611.54 458.091 C 1605.46 466.874 1600.09 471.694 1589.94 475.617 C 1583.81 477.988 1567.71 484.889 1562.13 480.899 C 1562.63 477.267 1563.29 477.558 1565.98 474.167 L 1568 473.337 C 1572.81 469.013 1574.96 468.385 1580.79 465.804 C 1586.01 464.002 1591.93 462.78 1597.34 461.498 z"/>
<path transform="translate(0,0)" fill="rgb(195,182,162)" d="M 1597.34 461.498 L 1598.79 462.921 C 1595.81 467.348 1573.19 473.944 1568 473.337 C 1572.81 469.013 1574.96 468.385 1580.79 465.804 C 1586.01 464.002 1591.93 462.78 1597.34 461.498 z"/>
<path transform="translate(0,0)" fill="rgb(106,92,74)" d="M 797.066 1280.57 C 802.158 1278.07 807.719 1277.02 813.245 1275.72 C 796.641 1297.95 785.631 1297.23 760.823 1300.01 C 763.638 1296.29 766.464 1291.63 770.978 1290.41 C 781.856 1283.14 784.128 1283.11 797.066 1280.57 z"/>
<path transform="translate(0,0)" fill="rgb(195,182,162)" d="M 797.066 1280.57 L 797.345 1282.68 C 792.75 1286.44 776.47 1292.97 770.978 1290.41 C 781.856 1283.14 784.128 1283.11 797.066 1280.57 z"/>
<path transform="translate(0,0)" fill="rgb(117,102,83)" d="M 1666.84 391.765 C 1671.77 389.964 1675.46 389.266 1680.54 388.154 C 1662.95 409.44 1651.95 407.84 1626.93 413.392 C 1629.75 409.8 1634.58 403.118 1638.72 401.522 C 1648.8 394.098 1654.87 393.655 1666.84 391.765 z"/>
<path transform="translate(0,0)" fill="rgb(195,182,162)" d="M 1666.84 391.765 C 1663.92 397.132 1644.25 403.979 1638.72 401.522 C 1648.8 394.098 1654.87 393.655 1666.84 391.765 z"/>
<path transform="translate(0,0)" fill="rgb(106,92,74)" d="M 1297.24 767.396 C 1302.66 765.794 1306.27 765.073 1311.73 764.058 C 1301.37 778.953 1290.9 783.811 1273.49 786.962 C 1269 787.751 1264.49 788.433 1259.97 789.007 C 1263.97 784.171 1266.49 780.604 1272.21 777.686 C 1282.96 770.382 1284.67 769.762 1297.24 767.396 z"/>
<path transform="translate(0,0)" fill="rgb(195,182,162)" d="M 1297.24 767.396 L 1299.15 768.427 C 1295.69 773.874 1278.01 781.262 1272.21 777.686 C 1282.96 770.382 1284.67 769.762 1297.24 767.396 z"/>
<path transform="translate(0,0)" fill="rgb(106,92,74)" d="M 1111.19 956.516 C 1117.4 954.284 1122.41 953.504 1128.87 952.288 C 1115.17 971.704 1100 974.317 1077.66 976.353 C 1080.57 972.997 1083.72 968.9 1087.28 966.422 C 1095.45 959.861 1101.29 958.82 1111.19 956.516 z"/>
<path transform="translate(0,0)" fill="rgb(195,182,162)" d="M 1111.19 956.516 L 1111.44 958.501 C 1106.05 962.811 1095.05 967.099 1088.23 967.159 L 1087.28 966.422 C 1095.45 959.861 1101.29 958.82 1111.19 956.516 z"/>
<path transform="translate(0,0)" fill="rgb(117,102,83)" d="M 1274.27 791.566 C 1277.53 790.388 1284.29 788.086 1287.49 789.104 C 1286.03 804.802 1248.45 810.221 1236.33 813.232 C 1239.09 809.976 1242.42 805.414 1246.02 803.475 C 1256.14 794.868 1261.83 793.802 1274.27 791.566 z"/>
<path transform="translate(0,0)" fill="rgb(195,182,162)" d="M 1274.27 791.566 C 1270.24 797.116 1252.37 806.315 1246.02 803.475 C 1256.14 794.868 1261.83 793.802 1274.27 791.566 z"/>
<path transform="translate(0,0)" fill="rgb(106,92,74)" d="M 349.31 1734.37 C 356.122 1732.77 361.213 1731.81 368.134 1730.76 C 347.487 1753.99 341.02 1748.16 315.247 1754.45 C 318.562 1750 321.983 1744.84 327.228 1742.63 C 335.956 1736.89 339.367 1736.4 349.31 1734.37 z"/>
<path transform="translate(0,0)" fill="rgb(195,182,162)" d="M 349.31 1734.37 L 351.298 1735.08 C 350.157 1740.59 331.798 1744.8 327.228 1742.63 C 335.956 1736.89 339.367 1736.4 349.31 1734.37 z"/>
<path transform="translate(0,0)" fill="url(#Gradient4)" d="M 1228.21 838.362 C 1233.24 837.179 1238.27 835.935 1243.27 834.63 C 1228.25 853.149 1217.66 857.021 1193.4 859.337 L 1192.13 859.45 C 1194 856.76 1196.55 852.413 1199.2 850.86 C 1207.6 843.418 1217.53 840.555 1228.21 838.362 z"/>
<path transform="translate(0,0)" fill="rgb(195,182,162)" d="M 1228.21 838.362 L 1229.32 840.235 C 1225.78 843.584 1203.56 851.2 1199.2 850.86 C 1207.6 843.418 1217.53 840.555 1228.21 838.362 z"/>
<path transform="translate(0,0)" fill="rgb(106,92,74)" d="M 677.593 1413.03 C 662.001 1433.63 651.153 1433.62 627.267 1437.25 C 630.55 1432.34 631.993 1429.6 637.265 1426.6 C 647.343 1419.19 648.963 1418.9 661.307 1416.39 C 667.063 1415.36 671.905 1414.46 677.593 1413.03 z"/>
<path transform="translate(0,0)" fill="rgb(195,182,162)" d="M 661.307 1416.39 L 663.262 1417.9 C 660.301 1423.24 642.425 1428.96 637.265 1426.6 C 647.343 1419.19 648.963 1418.9 661.307 1416.39 z"/>
<path transform="translate(0,0)" fill="rgb(117,102,83)" d="M 1621.11 438.588 L 1634.74 434.442 C 1618.37 456.235 1606.75 455.446 1581.08 460.012 C 1583.83 456.518 1587.81 450.706 1592.06 449.492 C 1602.57 441.759 1608.85 440.494 1621.11 438.588 z"/>
<path transform="translate(0,0)" fill="rgb(195,182,162)" d="M 1592.06 449.492 C 1602.57 441.759 1608.85 440.494 1621.11 438.588 C 1617.32 443.903 1598.02 452.193 1592.06 449.492 z"/>
<path transform="translate(0,0)" fill="rgb(106,92,74)" d="M 1390.98 672.589 C 1395.08 670.541 1399.02 670.275 1403.57 669.552 C 1391.06 685.863 1383.94 689.972 1363.34 692.706 C 1359.84 693.15 1356.34 693.631 1352.86 694.147 C 1355.79 690.114 1359.15 684.944 1364.13 683.488 C 1375.6 676.09 1377.62 675.154 1390.98 672.589 z"/>
<path transform="translate(0,0)" fill="rgb(195,182,162)" d="M 1364.13 683.488 C 1375.6 676.09 1377.62 675.154 1390.98 672.589 C 1387.59 678.388 1369.98 685.516 1364.13 683.488 z"/>
<path transform="translate(0,0)" fill="rgb(106,92,74)" d="M 507.251 1575.4 L 522.373 1570.83 C 506.074 1594.16 495 1591.33 470.455 1595.99 C 472.902 1592.96 477.863 1586.62 481.123 1584.89 C 490.051 1577.76 496.464 1577.21 507.251 1575.4 z"/>
<path transform="translate(0,0)" fill="rgb(195,182,162)" d="M 507.251 1575.4 L 509.258 1576.57 C 506.998 1580.78 487.923 1587.35 482.626 1586.4 L 481.123 1584.89 C 490.051 1577.76 496.464 1577.21 507.251 1575.4 z"/>
<path transform="translate(0,0)" fill="rgb(106,92,74)" d="M 885.26 1188.46 C 892.122 1186.07 896.446 1186.39 902.64 1184.66 C 886.732 1203.74 874.438 1206.13 850.689 1209.61 C 853.566 1205.48 856.491 1200.63 861.14 1198.51 C 869.573 1192.13 875.261 1191.1 885.26 1188.46 z"/>
<path transform="translate(0,0)" fill="rgb(195,182,162)" d="M 885.26 1188.46 L 886.499 1190.35 C 883.09 1194.43 866.11 1199.47 861.14 1198.51 C 869.573 1192.13 875.261 1191.1 885.26 1188.46 z"/>
<path transform="translate(0,0)" fill="rgb(117,102,83)" d="M 486.809 1597.63 C 491.619 1596.44 494.486 1595.99 499.416 1595.37 C 486.217 1611.45 482.56 1612.69 461.96 1616.4 C 458.765 1616.98 453.441 1617.76 450.588 1619.24 L 449.047 1617.61 C 452.006 1614.04 454.068 1610.98 457.991 1608.58 C 467.109 1601.25 475.673 1600.08 486.809 1597.63 z"/>
<path transform="translate(0,0)" fill="rgb(195,182,162)" d="M 486.809 1597.63 L 487.211 1599.01 C 483.359 1603.21 463.115 1611.87 457.991 1608.58 C 467.109 1601.25 475.673 1600.08 486.809 1597.63 z"/>
<path transform="translate(0,0)" fill="rgb(117,102,83)" d="M 1046.08 1025.61 C 1050.31 1023.5 1056.69 1022.91 1061.54 1022.13 C 1041.89 1045.97 1030.62 1040 1007.34 1047.62 C 1011.03 1043.3 1016.05 1037.13 1021.18 1034.68 C 1030.68 1028.42 1034.99 1028.16 1046.08 1025.61 z"/>
<path transform="translate(0,0)" fill="rgb(195,182,162)" d="M 1046.08 1025.61 C 1041.46 1032.13 1031.18 1034.05 1023.55 1035.49 L 1021.18 1034.68 C 1030.68 1028.42 1034.99 1028.16 1046.08 1025.61 z"/>
<path transform="translate(0,0)" fill="rgb(106,92,74)" d="M 935.347 1141.65 C 938.92 1140.56 942.063 1139.9 945.715 1139.09 C 930.825 1158.34 923.868 1159.06 900.462 1162.04 C 898.713 1162.25 896.966 1162.48 895.219 1162.71 C 897.377 1159.76 898.783 1157.12 901.98 1155.5 C 911.449 1146.05 922.87 1143.55 935.347 1141.65 z"/>
<path transform="translate(0,0)" fill="rgb(195,182,162)" d="M 935.347 1141.65 C 931.629 1146.14 906.647 1156.05 901.98 1155.5 C 911.449 1146.05 922.87 1143.55 935.347 1141.65 z"/>
<path transform="translate(0,0)" fill="rgb(106,92,74)" d="M 914.129 1164.72 C 917.456 1163.51 917.589 1162.96 920.778 1163.48 C 920.76 1167.13 917.864 1169.68 915.319 1172.36 C 905.958 1182.23 884.985 1182.7 872.49 1186.3 C 875.9 1181.72 879.648 1175.57 884.811 1173.49 C 895.967 1166.63 901.361 1166.36 914.129 1164.72 z"/>
<path transform="translate(0,0)" fill="rgb(195,182,162)" d="M 914.129 1164.72 C 908.382 1171.21 895.501 1172.94 887.125 1174.29 L 884.811 1173.49 C 895.967 1166.63 901.361 1166.36 914.129 1164.72 z"/>
<path transform="translate(0,0)" fill="rgb(106,92,74)" d="M 417.833 1666.68 C 423.765 1664.82 428.212 1663.62 434.274 1662.24 C 413.712 1687.19 407.559 1680.48 381.141 1686.56 C 384.006 1683.45 389.431 1677.05 393.089 1675.52 C 402.802 1668.79 406.239 1668.49 417.833 1666.68 z"/>
<path transform="translate(0,0)" fill="rgb(195,182,162)" d="M 417.833 1666.68 L 418.336 1667.96 C 414.912 1672.48 401.638 1675.53 395.996 1676.52 L 393.089 1675.52 C 402.802 1668.79 406.239 1668.49 417.833 1666.68 z"/>
<path transform="translate(0,0)" fill="rgb(117,102,83)" d="M 1409.23 650.474 C 1415.97 648.219 1422.37 646.738 1429 644.676 C 1414.48 664.586 1399.57 666.411 1376.34 670.947 C 1379 667.049 1380.45 664.273 1384.28 661.519 C 1391.66 654.214 1399.62 652.686 1409.23 650.474 z"/>
<path transform="translate(0,0)" fill="rgb(195,182,162)" d="M 1409.23 650.474 L 1410.11 651.829 C 1406.84 654.735 1388.27 661.962 1384.28 661.519 C 1391.66 654.214 1399.62 652.686 1409.23 650.474 z"/>
<path transform="translate(0,0)" fill="rgb(117,102,83)" d="M 1484.2 578.545 C 1488.79 577.424 1494.68 575.998 1499 574.285 C 1476.91 598.174 1472.94 593.633 1443.16 599.676 C 1446.9 595.576 1451.51 589.704 1456.83 588.376 C 1467.43 581.759 1472.09 580.6 1484.2 578.545 z"/>
<path transform="translate(0,0)" fill="rgb(195,182,162)" d="M 1484.2 578.545 L 1484.5 580.536 C 1479.69 584.985 1463.18 589.963 1456.83 588.376 C 1467.43 581.759 1472.09 580.6 1484.2 578.545 z"/>
<path transform="translate(0,0)" fill="rgb(117,102,83)" d="M 440.267 1643.45 L 455.818 1639.73 C 441.589 1660.38 428.333 1660.79 405.473 1662.73 C 408.475 1658.81 410.865 1655.2 415.21 1652.67 C 425.016 1646.06 428.742 1645.6 440.267 1643.45 z"/>
<path transform="translate(0,0)" fill="rgb(195,182,162)" d="M 440.267 1643.45 L 441.751 1644.99 C 438.898 1650.1 420.202 1654.83 415.21 1652.67 C 425.016 1646.06 428.742 1645.6 440.267 1643.45 z"/>
<path transform="translate(0,0)" fill="rgb(106,92,74)" d="M 977.897 1095.64 C 983.061 1093.78 987.044 1093.45 992.44 1092.68 C 970.673 1115.01 969.279 1111.38 940.324 1116.77 C 943.664 1112.22 948.095 1105.89 953.957 1104.51 C 962.895 1098.29 967.341 1097.95 977.897 1095.64 z"/>
<path transform="translate(0,0)" fill="rgb(195,182,162)" d="M 977.897 1095.64 C 973.2 1101.43 960.954 1105.9 953.957 1104.51 C 962.895 1098.29 967.341 1097.95 977.897 1095.64 z"/>
<path transform="translate(0,0)" fill="rgb(117,102,83)" d="M 1643.96 414.727 C 1648.09 413.345 1652.03 413.056 1656.36 412.5 C 1641.78 431.856 1625.67 432.517 1603.51 436.085 C 1606.74 432.702 1612.63 425.97 1616.81 424.511 C 1625.54 418.183 1633.71 416.749 1643.96 414.727 z"/>
<path transform="translate(0,0)" fill="rgb(195,182,162)" d="M 1643.96 414.727 C 1641.32 420.528 1622.17 426.605 1616.81 424.511 C 1625.54 418.183 1633.71 416.749 1643.96 414.727 z"/>
<path transform="translate(0,0)" fill="rgb(117,102,83)" d="M 955.906 1118.75 C 960.622 1116.87 964.612 1116.67 969.641 1116.02 C 952.967 1137.89 940.482 1134.52 917.448 1139.69 C 921.25 1135.04 923.835 1131.82 929.232 1128.68 C 939.49 1121.88 943.793 1121.54 955.906 1118.75 z"/>
<path transform="translate(0,0)" fill="rgb(195,182,162)" d="M 955.906 1118.75 C 953.486 1124.56 934.103 1130.27 929.232 1128.68 C 939.49 1121.88 943.793 1121.54 955.906 1118.75 z"/>
<path transform="translate(0,0)" fill="rgb(106,92,74)" d="M 1000.3 1072.43 C 1004.89 1071.27 1008.86 1070.57 1013.49 1069.76 C 992.688 1094.22 990.161 1087.55 963.458 1093.17 C 966.078 1089.87 970.346 1083.89 974.157 1082.46 C 984.501 1074.77 987.655 1074.93 1000.3 1072.43 z"/>
<path transform="translate(0,0)" fill="rgb(195,182,162)" d="M 1000.3 1072.43 L 1001.34 1074.22 C 996.429 1078.34 982.248 1081.55 975.817 1083.25 L 974.157 1082.46 C 984.501 1074.77 987.655 1074.93 1000.3 1072.43 z"/>
<path transform="translate(0,0)" fill="url(#Gradient3)" d="M 1364.22 697.403 C 1367.06 696.621 1378.27 693.318 1380.6 694.585 C 1375.03 711.505 1344.54 714.529 1330.01 717.947 C 1332.96 714.345 1337.04 708.898 1341.2 706.911 C 1350.74 700.422 1353.09 699.58 1364.22 697.403 z"/>
<path transform="translate(0,0)" fill="rgb(195,182,162)" d="M 1364.22 697.403 L 1365.36 698.762 C 1361.43 704.246 1349.77 707.227 1343.38 708.368 C 1341.48 707.502 1342.12 708.099 1341.2 706.911 C 1350.74 700.422 1353.09 699.58 1364.22 697.403 z"/>
<path transform="translate(0,0)" fill="rgb(117,102,83)" d="M 551.189 1530.38 L 564.876 1527.18 C 551.313 1548.31 537.743 1547.37 514.888 1551.08 C 517.792 1547.74 523.468 1540.87 527.075 1538.84 C 536.821 1532.66 539.814 1532.45 551.189 1530.38 z"/>
<path transform="translate(0,0)" fill="rgb(195,182,162)" d="M 551.189 1530.38 L 552.398 1531.68 C 549.469 1535.88 531.637 1541.54 527.075 1538.84 C 536.821 1532.66 539.814 1532.45 551.189 1530.38 z"/>
<path transform="translate(0,0)" fill="rgb(106,92,74)" d="M 574.961 1507.77 C 579.975 1505.64 583.877 1505 589.162 1503.85 C 572.309 1524.24 562.578 1523.46 537.099 1528.13 C 540.385 1523.58 543.479 1518.64 548.92 1516.62 C 560.634 1509.37 560.862 1509.01 574.961 1507.77 z"/>
<path transform="translate(0,0)" fill="rgb(195,182,162)" d="M 574.961 1507.77 C 572.23 1513.64 554.902 1519.73 548.92 1516.62 C 560.634 1509.37 560.862 1509.01 574.961 1507.77 z"/>
<path transform="translate(0,0)" fill="rgb(117,102,83)" d="M 618.335 1462.53 C 622.76 1461.53 627.116 1460.8 631.58 1460.01 C 616.425 1479.78 604.011 1479 580.479 1483.56 C 583.387 1479.81 585.427 1476.79 589.104 1473.76 C 599.169 1466.3 606.145 1464.1 618.335 1462.53 z"/>
<path transform="translate(0,0)" fill="rgb(195,182,162)" d="M 618.335 1462.53 L 618.573 1464.6 C 613.952 1468.43 594.924 1473.81 589.104 1473.76 C 599.169 1466.3 606.145 1464.1 618.335 1462.53 z"/>
<path transform="translate(0,0)" fill="rgb(117,102,83)" d="M 334.153 1755.63 C 337.931 1754.58 337.56 1754.04 340.749 1754.94 C 342.389 1770.45 304.267 1775.25 293.477 1776.51 C 295.972 1773.66 301.055 1767.48 304.206 1765.9 C 316.868 1758.83 319.613 1758.31 334.153 1755.63 z"/>
<path transform="translate(0,0)" fill="rgb(195,182,162)" d="M 334.153 1755.63 C 329.242 1762.66 314.883 1765.26 306.396 1767.35 C 304.483 1766.49 305.123 1767.09 304.206 1765.9 C 316.868 1758.83 319.613 1758.31 334.153 1755.63 z"/>
<path transform="translate(0,0)" fill="rgb(117,102,83)" d="M 1457.3 602.401 C 1463.46 600.974 1470.16 599.49 1476.22 597.738 C 1454.4 621.946 1447.83 616.145 1421.27 623.51 C 1425.05 619.357 1429.26 614.408 1434.21 611.706 C 1443.86 605.398 1445.98 604.588 1457.3 602.401 z"/>
<path transform="translate(0,0)" fill="rgb(195,182,162)" d="M 1457.3 602.401 L 1458.53 603.768 C 1455.01 608.559 1442.41 611.649 1436.54 612.602 L 1434.21 611.706 C 1443.86 605.398 1445.98 604.588 1457.3 602.401 z"/>
<path transform="translate(0,0)" fill="rgb(106,92,74)" d="M 745.794 1326.85 C 752.238 1325.86 758.706 1325.03 765.193 1324.37 C 747.946 1345.77 740.284 1340.94 716.48 1347.07 C 719.467 1342.86 723.768 1335.74 728.751 1334.46 C 735.18 1329.95 737.831 1327.66 745.794 1326.85 z"/>
<path transform="translate(0,0)" fill="rgb(195,182,162)" d="M 745.794 1326.85 L 751.533 1327.04 L 752.289 1328.14 C 749.338 1331.75 733.089 1336.93 728.751 1334.46 C 735.18 1329.95 737.831 1327.66 745.794 1326.85 z"/>
<path transform="translate(0,0)" fill="rgb(117,102,83)" d="M 374.024 1711.62 C 379.423 1710.02 384.9 1709.68 390.418 1708.46 C 382.727 1717.25 377.871 1723.06 365.847 1725.58 C 361.278 1727.01 343.426 1731.88 340.356 1728.33 C 341.928 1724.66 346.241 1721.03 349.978 1719.61 C 360.066 1713.09 361.943 1713.26 374.024 1711.62 z"/>
<path transform="translate(0,0)" fill="rgb(106,92,74)" d="M 374.024 1711.62 C 379.423 1710.02 384.9 1709.68 390.418 1708.46 C 382.727 1717.25 377.871 1723.06 365.847 1725.58 C 369.838 1721.91 374.106 1718.28 375.707 1713.09 L 374.024 1711.62 z"/>
<path transform="translate(0,0)" fill="rgb(195,182,162)" d="M 374.024 1711.62 C 371.612 1718.39 355.407 1722.23 349.978 1719.61 C 360.066 1713.09 361.943 1713.26 374.024 1711.62 z"/>
<path transform="translate(0,0)" fill="rgb(106,92,74)" d="M 731.806 1348.84 C 736.454 1347.07 739.462 1346.34 744.224 1345.14 C 725.926 1370.18 717.518 1362.87 692.295 1369.79 C 695.849 1365.85 700.612 1359.98 705.237 1357.72 C 716.677 1351.23 718.873 1350.78 731.806 1348.84 z"/>
<path transform="translate(0,0)" fill="rgb(195,182,162)" d="M 731.806 1348.84 C 729.293 1356.05 710.339 1360.7 705.237 1357.72 C 716.677 1351.23 718.873 1350.78 731.806 1348.84 z"/>
<path transform="translate(0,0)" fill="rgb(106,92,74)" d="M 531.033 1552.92 C 535.108 1552.09 539.548 1551.28 543.554 1550.28 C 525.679 1571.6 518.375 1568.58 492.607 1573.65 C 495.178 1570.6 499.873 1564.54 503.243 1562.88 C 515.711 1555.1 516.766 1554.38 531.033 1552.92 z"/>
<path transform="translate(0,0)" fill="rgb(195,182,162)" d="M 531.033 1552.92 C 526.68 1559.39 510.145 1566.1 503.243 1562.88 C 515.711 1555.1 516.766 1554.38 531.033 1552.92 z"/>
<path transform="translate(0,0)" fill="rgb(106,92,74)" d="M 819.728 1257.74 C 825.024 1256.09 829.487 1255.15 834.868 1253.99 C 816.858 1274.2 809.4 1273.43 783.582 1277.72 C 788.115 1271.18 789.904 1268.59 797.122 1264.67 C 805.333 1259.84 810.515 1259.27 819.728 1257.74 z"/>
<path transform="translate(0,0)" fill="rgb(195,182,162)" d="M 797.122 1264.67 C 805.333 1259.84 810.515 1259.27 819.728 1257.74 C 817.388 1263.79 802.336 1267.2 797.122 1264.67 z"/>
<path transform="translate(0,0)" fill="rgb(117,102,83)" d="M 708.23 1371.35 C 712.762 1370.68 717.669 1369.84 722.107 1368.73 C 705.769 1388.95 695.798 1388.37 671.154 1391.63 C 674.421 1387.65 675.856 1385.36 680.289 1382.7 C 689.686 1375.35 696.905 1373.96 708.23 1371.35 z"/>
<path transform="translate(0,0)" fill="rgb(195,182,162)" d="M 708.23 1371.35 L 710.132 1372.42 C 707.006 1376.42 684.786 1384.66 680.289 1382.7 C 689.686 1375.35 696.905 1373.96 708.23 1371.35 z"/>
<path transform="translate(0,0)" fill="rgb(106,92,74)" d="M 1574.25 485.366 L 1588.87 480.546 C 1573.81 500.684 1561.99 502.81 1537.72 506.276 C 1536.96 506.383 1536.21 506.485 1535.45 506.581 C 1537.78 503.969 1542.88 497.753 1545.89 496.587 C 1556.14 489.807 1562.47 488.408 1574.25 485.366 z"/>
<path transform="translate(0,0)" fill="rgb(195,182,162)" d="M 1574.25 485.366 L 1576.08 486.476 C 1572.64 491.261 1551.12 498.945 1545.89 496.587 C 1556.14 489.807 1562.47 488.408 1574.25 485.366 z"/>
<path transform="translate(0,0)" fill="rgb(106,92,74)" d="M 686.744 1393.97 L 698.068 1391.58 C 681.21 1415.18 672.107 1407.76 649.001 1414.44 C 652.519 1410.27 655.805 1405.75 660.285 1402.8 C 670.939 1396.17 674.604 1395.25 686.744 1393.97 z"/>
<path transform="translate(0,0)" fill="rgb(195,182,162)" d="M 660.285 1402.8 C 670.939 1396.17 674.604 1395.25 686.744 1393.97 C 684.087 1402.1 665.425 1405.66 660.285 1402.8 z"/>
<path transform="translate(0,0)" fill="rgb(117,102,83)" d="M 1090.25 979.488 C 1095.35 978.099 1097.94 977.996 1103.14 977.534 C 1087.56 999.878 1077.74 992.975 1053.97 1000.1 C 1056.28 997.486 1061.89 990.656 1064.83 989.503 C 1072.88 982.373 1080.25 981.198 1090.25 979.488 z"/>
<path transform="translate(0,0)" fill="rgb(195,182,162)" d="M 1090.25 979.488 L 1091.47 980.9 C 1087.38 985.228 1073.12 988.287 1066.74 990.249 L 1064.83 989.503 C 1072.88 982.373 1080.25 981.198 1090.25 979.488 z"/>
<path transform="translate(0,0)" fill="rgb(117,102,83)" d="M 1508.05 554.769 C 1512.03 553.677 1515.7 553.476 1519.8 553.062 C 1505.48 569.729 1490.77 572.581 1469.05 576.111 C 1471.28 572.793 1474.21 567.825 1477.99 566.398 C 1486.87 558.627 1496.95 557.121 1508.05 554.769 z"/>
<path transform="translate(0,0)" fill="rgb(195,182,162)" d="M 1508.05 554.769 C 1505.52 561.231 1483.3 567.34 1477.99 566.398 C 1486.87 558.627 1496.95 557.121 1508.05 554.769 z"/>
<path transform="translate(0,0)" fill="rgb(117,102,83)" d="M 844.058 1234.74 L 853.607 1232.5 C 840.819 1252.8 826.366 1251.88 804.554 1255.64 C 809.127 1250.48 813.849 1244.79 820.107 1241.7 C 829.933 1236.78 832.967 1235.61 844.058 1234.74 z"/>
<path transform="translate(0,0)" fill="rgb(195,182,162)" d="M 820.107 1241.7 C 829.933 1236.78 832.967 1235.61 844.058 1234.74 C 839.122 1241.38 827.313 1245.44 820.107 1241.7 z"/>
<path transform="translate(0,0)" fill="rgb(117,102,83)" d="M 599.997 1484.63 C 603.27 1483.75 606.929 1482.86 610.137 1481.9 C 592.969 1500.86 586.482 1500.8 561.565 1504.55 C 564.54 1499.85 566.513 1495.95 571.642 1493.47 C 580.525 1486.46 589.016 1486.26 599.997 1484.63 z"/>
<path transform="translate(0,0)" fill="rgb(195,182,162)" d="M 599.997 1484.63 C 594.391 1491.01 579.744 1495.04 571.642 1493.47 C 580.525 1486.46 589.016 1486.26 599.997 1484.63 z"/>
<path transform="translate(0,0)" fill="rgb(106,92,74)" d="M 302.996 1779.69 C 309.098 1778.75 317.374 1777.22 323.344 1776.66 C 309.985 1791.14 300.549 1795.41 281.084 1797.42 C 282.049 1795.46 284.221 1790.77 285.252 1789.12 C 290.369 1780.17 293.344 1781.2 302.996 1779.69 z"/>
<path transform="translate(0,0)" fill="rgb(195,182,162)" d="M 302.996 1779.69 L 308.024 1779.95 L 308.472 1781.05 C 304.912 1784 289.683 1788.55 285.252 1789.12 C 290.369 1780.17 293.344 1781.2 302.996 1779.69 z"/>
<path transform="translate(0,0)" fill="rgb(106,92,74)" d="M 287.785 1800.86 C 292.794 1799.23 297.508 1798.25 302.627 1797.09 C 290.245 1810.46 286.922 1814.18 269.45 1819.33 C 270.439 1817.49 274.218 1810.12 275.176 1808.83 C 278.948 1801.68 279.81 1802.1 287.785 1800.86 z"/>
<path transform="translate(0,0)" fill="rgb(195,182,162)" d="M 287.785 1800.86 C 286.047 1804.91 279.512 1808.75 275.176 1808.83 C 278.948 1801.68 279.81 1802.1 287.785 1800.86 z"/>
<path transform="translate(0,0)" fill="rgb(195,182,162)" d="M 164.162 1867.75 C 174.103 1868.09 182.653 1874.35 189.516 1881.25 L 188.777 1882.29 C 181.914 1880.37 165.114 1877.92 161.859 1874.35 C 161.63 1870.45 161.661 1871.72 164.162 1867.75 z"/>
<path transform="translate(0,0)" fill="url(#Gradient2)" d="M 276.234 1820.4 C 276.993 1821.01 276.53 1820.52 276.794 1822.35 C 272.752 1829.69 269.743 1832.18 262.397 1836.06 L 261.594 1835.28 C 261.019 1826.68 268.45 1821.49 276.234 1820.4 z"/>
<path transform="translate(0,0)" fill="rgb(3,2,1)" d="M 1879.36 123.591 C 1880.04 97.7642 1883.1 98.4038 1898.54 80.5034 C 1914.95 61.4851 1937.8 68.6109 1932.29 91.4942 C 1919.84 143.25 1868.97 203.574 1833.01 238.357 C 1830.49 251.644 1829.96 255.051 1819.25 263.866 C 1810.75 269.815 1802.12 275.804 1793.71 281.839 C 1787.33 286.412 1783.18 291.316 1775.76 294.952 C 1772.87 293.026 1772.97 293.167 1769.57 292.303 L 1771.55 291.172 L 1767.56 288.891 C 1770.01 283.235 1772.23 278.716 1776.13 273.902 L 1776.08 273.211 C 1778.95 270.603 1780.78 264.508 1782.3 260.632 C 1782.96 257.439 1783.17 257.649 1785.6 255.343 L 1784.99 254.665 C 1780.48 236.635 1797.85 207.802 1793.82 198.216 C 1795.23 190.202 1798.04 174.3 1810.02 181.93 C 1822.21 184.467 1834.96 162.408 1841.89 153.615 C 1852.63 139.982 1856.69 115.234 1879.36 123.591 z"/>
<path transform="translate(0,0)" fill="rgb(25,20,17)" d="M 1793.82 198.216 C 1795.23 190.202 1798.04 174.3 1810.02 181.93 C 1809.83 183.545 1809.44 183.359 1810.43 184.452 C 1817.26 192.026 1811.08 222.866 1806.01 230.438 L 1806.17 231.896 L 1806.43 233.772 C 1805.09 238.672 1804.07 243.522 1801.63 247.932 L 1800.29 247.807 L 1797.6 250.247 L 1798.24 253.817 C 1799.63 256.243 1799.53 256.57 1801.46 258.418 C 1804.26 256.043 1806.99 253.348 1810.35 252.034 L 1811.74 252.545 C 1812.04 255.245 1811.89 255.232 1811.21 257.914 L 1812.73 258.847 L 1811.37 263.847 L 1812.07 265.035 C 1815.36 263.578 1816.94 261.677 1819.52 259.194 L 1819.25 263.866 C 1810.75 269.815 1802.12 275.804 1793.71 281.839 C 1787.33 286.412 1783.18 291.316 1775.76 294.952 C 1772.87 293.026 1772.97 293.167 1769.57 292.303 L 1771.55 291.172 L 1767.56 288.891 C 1770.01 283.235 1772.23 278.716 1776.13 273.902 L 1776.08 273.211 C 1778.95 270.603 1780.78 264.508 1782.3 260.632 C 1782.96 257.439 1783.17 257.649 1785.6 255.343 L 1784.99 254.665 C 1780.48 236.635 1797.85 207.802 1793.82 198.216 z"/>
<path transform="translate(0,0)" fill="rgb(106,92,74)" d="M 1782.3 260.632 C 1782.96 257.439 1783.17 257.649 1785.6 255.343 C 1788.88 270.286 1791.45 286.941 1772.73 290.337 L 1771.55 291.172 L 1767.56 288.891 C 1770.01 283.235 1772.23 278.716 1776.13 273.902 L 1776.08 273.211 C 1778.95 270.603 1780.78 264.508 1782.3 260.632 z"/>
<path transform="translate(0,0)" fill="rgb(153,138,115)" d="M 1776.13 273.902 C 1778.61 276.852 1777.53 278.49 1776.83 282.445 C 1775.48 285.086 1774.12 287.716 1772.73 290.337 L 1771.55 291.172 L 1767.56 288.891 C 1770.01 283.235 1772.23 278.716 1776.13 273.902 z"/>
<path transform="translate(0,0)" fill="rgb(117,102,83)" d="M 1782.3 260.632 C 1785.85 268.035 1782.85 277.134 1776.83 282.445 C 1777.53 278.49 1778.61 276.852 1776.13 273.902 L 1776.08 273.211 C 1778.95 270.603 1780.78 264.508 1782.3 260.632 z"/>
<path transform="translate(0,0)" fill="rgb(117,102,83)" d="M 1786.12 239.416 C 1787.25 236.559 1787.61 235.047 1789.72 232.765 L 1791.49 233.036 C 1794.22 236.433 1796.3 245.637 1797.6 250.247 L 1798.24 253.817 C 1797.91 264.261 1795.54 267.944 1791.41 277.554 C 1790.77 263.92 1788.59 252.754 1786.12 239.416 z"/>
<path transform="translate(0,0)" fill="rgb(106,92,74)" d="M 1798.31 209.383 C 1801.16 218.422 1803.73 220.009 1806.01 230.438 L 1806.17 231.896 L 1806.43 233.772 C 1805.09 238.672 1804.07 243.522 1801.63 247.932 L 1800.29 247.807 C 1799.18 243.912 1798.64 242.201 1798.18 238.225 C 1799.76 232.09 1798.5 216.662 1798.31 209.383 z"/>
<path transform="translate(0,0)" fill="rgb(117,102,83)" d="M 1801.46 258.418 C 1804.26 256.043 1806.99 253.348 1810.35 252.034 L 1811.74 252.545 C 1812.04 255.245 1811.89 255.232 1811.21 257.914 C 1805.55 269.385 1804.77 270.867 1794.53 278.1 C 1797.92 271.4 1800.99 266.048 1801.46 258.418 z"/>
<path transform="translate(0,0)" fill="rgb(195,182,162)" d="M 1798.18 238.225 C 1796.04 231.343 1790.92 214.719 1796.55 208.914 L 1798.31 209.383 C 1798.5 216.662 1799.76 232.09 1798.18 238.225 z"/>
<path transform="translate(0,0)" fill="rgb(195,182,162)" d="M 1804.66 183.658 L 1806.59 185.294 C 1809.12 191.612 1810.65 212.579 1805.83 217.025 C 1801.65 202.799 1795.08 196.595 1804.66 183.658 z"/>
<path transform="translate(0,0)" fill="rgb(50,25,11)" d="M 1874.85 133.755 C 1876.18 162.728 1869.76 188.989 1849.69 210.789 C 1835.15 226.589 1823.93 239.019 1805.37 250.164 C 1806.37 245.304 1808.25 238.389 1806.43 233.772 L 1806.17 231.896 C 1806.54 232.62 1807.14 233.301 1807.66 233.971 C 1832.18 214.856 1851.58 193.176 1860.66 163.303 C 1861.14 164.183 1860.76 163.681 1862.19 164.429 C 1867.2 159.117 1873.53 140.987 1874.85 133.755 z"/>
<path transform="translate(0,0)" fill="url(#Gradient1)" d="M 1860.66 163.303 C 1862.07 151.919 1857.01 131.512 1871.47 130.224 C 1874.27 131.744 1873.08 130.712 1874.85 133.755 C 1873.53 140.987 1867.2 159.117 1862.19 164.429 C 1860.76 163.681 1861.14 164.183 1860.66 163.303 z"/>
<path transform="translate(0,0)" fill="rgb(117,102,83)" d="M 1816.65 247.72 C 1820.73 245.034 1824.1 242.793 1828.42 240.431 C 1826.07 248.444 1825.21 252.871 1819.52 259.194 C 1816.94 261.677 1815.36 263.578 1812.07 265.035 L 1811.37 263.847 L 1812.73 258.847 C 1814.02 255.329 1815.62 251.277 1816.65 247.72 z"/>
<path transform="translate(0,0)" fill="rgb(50,25,11)" d="M 1918.89 76.6539 C 1943.43 82.2271 1887.97 162.457 1879.85 173.174 C 1878.93 174.363 1879.52 173.688 1877.92 175.074 C 1877.07 169.958 1885.61 151.71 1886.02 145.255 C 1888.05 113.25 1885.81 93.5765 1918.89 76.6539 z"/>
</svg>