<svg version="1.1" xmlns="http://www.w3.org/2000/svg" style="display: block;" viewBox="0 0 2048 2048" width="1024" height="1024" preserveAspectRatio="none">
<path transform="translate(0,0)" fill="rgb(223,224,224)" d="M 960.411 789.972 C 963.516 743.04 963.204 685.902 964.324 638.325 L 970.452 370.801 L 972.549 275.459 C 972.769 260.05 972.406 228.524 974.65 214.445 C 976.162 204.957 992.833 170.236 997.717 159.911 C 1006.06 142.275 1015.36 118.437 1024.21 101.405 C 1031.8 115.866 1040.09 138.044 1046.91 153.716 C 1054.55 171.267 1069.04 200.511 1072.98 218.536 C 1074.36 224.827 1074.65 253.69 1074.84 262.108 L 1076.23 359.16 L 1083.98 676 L 1094.42 1152.94 L 1098.24 1308.14 C 1099.23 1342.19 1101.41 1391.49 1100.02 1425.07 C 1105.97 1425.89 1112.02 1425.92 1116.4 1429.81 C 1117.74 1432.81 1118.02 1433.03 1118.38 1436.38 C 1117.61 1448.86 1118.06 1463.76 1118.42 1476.33 C 1116.78 1479.76 1116.89 1481.12 1113.46 1482.55 C 1105.06 1486.03 1077.18 1482.15 1071.16 1486.16 C 1052.71 1490.84 995.849 1490.28 976.709 1486.07 C 971.931 1482.02 939.179 1486.06 931.626 1481.92 C 930.044 1481.05 929.832 1479.15 929.06 1477.11 C 930.259 1466.03 929.493 1447.83 929.423 1436.14 C 931.606 1424.65 936.936 1428.81 946.174 1426.05 C 945.993 1402.19 947.32 1375.69 947.847 1351.6 C 948.474 1307.68 949.37 1263.77 950.536 1219.87 L 955.952 968.198 L 959.019 846.823 C 959.285 836.358 959.463 801.314 960.908 792.497 L 960.411 789.972 z"/>
<path transform="translate(0,0)" fill="rgb(167,175,178)" d="M 946.174 1426.05 C 969.413 1423.42 1004.15 1416.99 1026.57 1417.78 C 1049.3 1418.57 1076.26 1424.84 1100.02 1425.07 C 1105.97 1425.89 1112.02 1425.92 1116.4 1429.81 C 1117.74 1432.81 1118.02 1433.03 1118.38 1436.38 C 1117.61 1448.86 1118.06 1463.76 1118.42 1476.33 C 1116.78 1479.76 1116.89 1481.12 1113.46 1482.55 C 1105.06 1486.03 1077.18 1482.15 1071.16 1486.16 C 1052.71 1490.84 995.849 1490.28 976.709 1486.07 C 971.931 1482.02 939.179 1486.06 931.626 1481.92 C 930.044 1481.05 929.832 1479.15 929.06 1477.11 C 930.259 1466.03 929.493 1447.83 929.423 1436.14 C 931.606 1424.65 936.936 1428.81 946.174 1426.05 z"/>
<path transform="translate(0,0)" fill="rgb(167,175,178)" d="M 960.411 789.972 C 964.415 789.711 967.326 789.01 970.758 790.869 L 970.107 792.033 C 966.645 792.989 964.463 792.654 960.908 792.497 L 960.411 789.972 z"/>
<path transform="translate(0,0)" fill="rgb(167,175,178)" d="M 1019.42 334.698 C 1020.19 334.48 1022.14 333.983 1022.79 333.685 C 1026.18 341.37 1025.11 431.657 1025.12 447.601 L 1025.38 594.325 L 1027.05 913 L 1027.39 1251.66 C 1027.04 1302.41 1028.72 1354.13 1025.58 1404.83 C 1020.38 1384.97 1021.01 1331.54 1021 1309.2 L 1021 1197.11 L 1021.32 842.5 L 1022.93 445.088 C 1023 415.628 1023.49 368.131 1022.54 337.221 C 1022.49 335.7 1021.09 335.5 1019.42 334.698 z"/>
<path transform="translate(0,0)" fill="rgb(167,175,178)" d="M 996.852 690.931 L 995.807 687.831 L 996.592 686.638 C 1001.3 687.758 1004.15 690.969 1008.19 693.232 C 1012.22 692.991 1015.26 692.099 1018.11 695.168 L 1016.89 696.317 C 1011.06 697.557 997.648 697.415 991.523 696.823 L 992.259 695.516 C 995.162 694.255 995.318 693.525 996.852 690.931 z"/>
<path transform="translate(0,0)" fill="rgb(206,206,207)" d="M 996.852 690.931 L 995.807 687.831 L 996.592 686.638 C 1001.3 687.758 1004.15 690.969 1008.19 693.232 C 1004.82 695.089 1003.7 696.12 1000.67 695.465 C 999.626 694.11 998.885 693.164 997.73 691.885 L 996.852 690.931 z"/>
<path transform="translate(0,0)" fill="rgb(206,206,207)" d="M 1051.2 454.067 C 1044.92 454.662 1031.52 457.187 1029.74 449.427 C 1031.5 446.733 1030.34 447.693 1033.38 446.495 C 1036.99 447.23 1037.32 447.562 1040.07 450.048 C 1045.53 449.798 1048.39 449.356 1053.68 451.092 C 1054.7 452.39 1054.46 451.648 1054.36 453.33 C 1053.13 453.693 1052.44 454.028 1051.2 454.067 z"/>
<path transform="translate(0,0)" fill="rgb(167,175,178)" d="M 1040.07 450.048 C 1045.53 449.798 1048.39 449.356 1053.68 451.092 C 1054.7 452.39 1054.46 451.648 1054.36 453.33 C 1053.13 453.693 1052.44 454.028 1051.2 454.067 C 1048.44 453.133 1045.06 453.518 1040.81 452.404 L 1040.07 450.048 z"/>
<path transform="translate(0,0)" fill="rgb(167,175,178)" d="M 1034.06 530.351 C 1036.93 532.356 1035.73 531.576 1037.51 534.521 C 1041.29 540.764 1053.64 533.532 1059.75 535.384 C 1062.62 536.255 1064.55 535.514 1068.4 536.179 L 1068.65 538.144 C 1063.26 539.361 1037.67 539.746 1032.58 538.696 L 1034.06 530.351 z"/>
<path transform="translate(0,0)" fill="rgb(167,175,178)" d="M 968.64 1023.18 C 976.763 1023.08 983.238 1022.9 991.252 1024.24 L 991.336 1025.08 C 987.187 1025.97 983.839 1026.77 979.767 1027.96 L 979.682 1029.86 C 981.743 1031.03 982.888 1031.74 984.823 1033.11 L 983.981 1034.5 L 980.792 1034.64 C 974.447 1033.36 969.895 1036.15 967.148 1033.98 C 968.41 1031.19 967.483 1032.4 970.419 1030.58 C 974.455 1032.48 974.945 1033.36 978.865 1031.73 L 979.594 1029.04 C 977.878 1022.56 970.711 1027.84 966.645 1024.67 L 968.64 1023.18 z"/>
<path transform="translate(0,0)" fill="rgb(167,175,178)" d="M 1034.09 684.592 C 1042.29 685.99 1048.81 689.917 1056.4 687.389 C 1058.63 686.647 1060.11 686.275 1062.4 686.485 C 1064 689.097 1063.9 687.78 1063.28 690.456 L 1060.76 690.571 C 1049.59 689.876 1044.1 690.596 1032.42 689.253 C 1032.23 686.118 1031.96 687.689 1034.09 684.592 z"/>
<path transform="translate(0,0)" fill="rgb(167,175,178)" d="M 1051.84 809.708 C 1057.75 810.24 1074.62 809.583 1077.81 811.379 L 1077.75 812.929 L 1073.95 815.191 C 1071.95 813.155 1072.9 813.607 1070.39 812.798 C 1068.3 814.834 1055.68 815.203 1052.69 814.138 L 1051.84 809.708 z"/>
<path transform="translate(0,0)" fill="rgb(167,175,178)" d="M 1045.74 1335.72 C 1053.91 1337.74 1064.37 1335.83 1069.33 1339.11 L 1069.6 1341.52 C 1063.54 1341.54 1063.62 1339.66 1059.57 1339.36 L 1057.75 1342.95 C 1051.38 1342.88 1046.52 1342.35 1045.74 1335.72 z"/>
<path transform="translate(0,0)" fill="rgb(167,175,178)" d="M 1041.36 1254.51 C 1050.35 1258.55 1058.25 1255.69 1063.63 1258.34 L 1063.9 1260.3 L 1062.05 1260.81 C 1055.77 1261.68 1050.09 1261.4 1043.76 1261.34 C 1041.17 1259.49 1044.78 1261.2 1041.36 1254.51 z"/>
<path transform="translate(0,0)" fill="rgb(206,206,207)" d="M 988.883 1074.07 C 990.585 1074.54 992.318 1073.89 993.94 1073.36 C 1003.74 1076.19 1009.86 1073.65 1015.24 1076.47 C 1009.72 1079.87 994.745 1078.31 988.33 1077.68 C 988.335 1075.98 988.508 1075.75 988.883 1074.07 z"/>
<path transform="translate(0,0)" fill="rgb(167,175,178)" d="M 1048.94 1058.21 C 1050.87 1057.86 1074.3 1058.48 1076.92 1058.73 L 1078.6 1061.36 C 1075.88 1062.37 1055.41 1060.98 1050.85 1061.38 C 1049.87 1061.47 1049.54 1059.65 1048.94 1058.21 z"/>
<path transform="translate(0,0)" fill="rgb(167,175,178)" d="M 1036.66 401.408 C 1042.9 401.366 1069.13 400.65 1073.31 401.474 L 1073.59 403.156 C 1063.81 404.701 1052.53 402.897 1042.5 404.329 C 1039.58 404.745 1038.17 403.042 1036.66 401.408 z"/>
<path transform="translate(0,0)" fill="rgb(167,175,178)" d="M 1058.98 1292.25 C 1063.64 1291.49 1076.58 1292.47 1081.85 1292.8 L 1082.98 1295.25 C 1073.94 1294.62 1066.9 1298.9 1059.61 1295.24 L 1058.98 1292.25 z"/>
<path transform="translate(0,0)" fill="rgb(206,206,207)" d="M 1051.85 565.562 C 1057.44 566.54 1068.25 565.876 1070.5 568.293 L 1068.96 570.009 L 1066.23 570.045 C 1060.82 569.636 1054.26 572.814 1049.47 569.727 L 1049.44 567.815 L 1051.85 565.562 z"/>
<path transform="translate(0,0)" fill="rgb(167,175,178)" d="M 959.701 1397.97 C 962.66 1398.38 974.246 1399.64 976.577 1399.43 C 985.404 1398.62 981.638 1396.73 991.699 1399.91 L 992.009 1401.32 L 990.09 1401.91 C 982.716 1401.3 964.245 1402.07 959.348 1400.12 L 959.701 1397.97 z"/>
<path transform="translate(0,0)" fill="rgb(167,175,178)" d="M 1026.78 260.428 C 1029.61 260.048 1061.25 259.974 1063.46 260.351 C 1058.08 263.825 1031.69 264.944 1026.78 260.428 z"/>
<path transform="translate(0,0)" fill="rgb(167,175,178)" d="M 1046.2 642.662 C 1054.2 648.448 1070.22 643.247 1075.05 645.682 L 1074.4 646.852 L 1072.22 647.056 C 1062.95 647.307 1051.87 647.997 1042.91 646.547 L 1042.94 645.067 L 1046.2 642.662 z"/>
<path transform="translate(0,0)" fill="rgb(167,175,178)" d="M 1082.26 1384.35 C 1083.91 1384.57 1083.03 1384.25 1084.62 1385.84 L 1083.88 1387.17 C 1075.96 1387.98 1070.36 1389 1062.29 1388.77 C 1060.4 1387.74 1061.1 1388.22 1059.78 1386.27 C 1063.36 1383.3 1074.8 1386.88 1082.26 1384.35 z"/>
<path transform="translate(0,0)" fill="rgb(167,175,178)" d="M 1064.09 1301.69 C 1063.33 1301.75 1086.52 1305.29 1087.6 1305.47 L 1087.33 1307.24 C 1083.43 1308.67 1073.76 1306.76 1069.04 1306.63 C 1065.93 1306.54 1065.34 1304.14 1064.09 1301.69 z"/>
<path transform="translate(0,0)" fill="rgb(167,175,178)" d="M 1059.15 1175.95 C 1066.91 1178.05 1070.39 1175.29 1075.53 1177.14 L 1075.8 1181.22 C 1070.58 1181.13 1062.15 1182.77 1058.67 1179.98 L 1059.15 1175.95 z"/>
<path transform="translate(0,0)" fill="rgb(167,175,178)" d="M 979.539 535.46 L 980.757 535.045 L 982.331 536.13 C 987.501 536.637 995.788 537.448 1000.85 536.602 C 1003.63 536.137 1001.56 535.719 1004.28 536.833 L 1004.68 538.099 L 1003.97 538.882 C 998.384 539.213 984.026 540.372 979.255 537.898 L 979.539 535.46 z"/>
<path transform="translate(0,0)" fill="rgb(167,175,178)" d="M 1032.41 433.806 C 1033.09 433.771 1034.49 433.666 1035.03 433.829 C 1045.89 437.085 1046.39 431.831 1057.06 437.654 C 1053.16 438.386 1037.17 438.835 1033.56 437.472 L 1032.41 433.806 z"/>
<path transform="translate(0,0)" fill="rgb(167,175,178)" d="M 1037.9 1210.3 C 1040.81 1209.87 1054.52 1211.55 1057.95 1212.11 L 1058.87 1214.74 C 1053.57 1216.51 1045.49 1215.12 1040.18 1213.39 C 1038.52 1212.86 1038.78 1212.09 1037.9 1210.3 z"/>
<path transform="translate(0,0)" fill="rgb(167,175,178)" d="M 1041.79 1015.01 C 1043.13 1015.03 1062.38 1016.43 1062.52 1016.46 L 1063.59 1019.76 C 1058.21 1019.2 1044.52 1020.31 1042.07 1018.47 L 1041.79 1015.01 z"/>
<path transform="translate(0,0)" fill="rgb(167,175,178)" d="M 1044.04 1095.87 C 1049.12 1098.43 1052.33 1098.25 1058.1 1099.27 C 1056.4 1101.49 1054.86 1101.21 1051.45 1102.17 C 1043.43 1099.03 1043.55 1102.71 1037.23 1101.2 C 1038.99 1098.69 1038.44 1099.18 1041.84 1098.86 L 1044.04 1095.87 z"/>
<path transform="translate(0,0)" fill="rgb(167,175,178)" d="M 1060.39 1279.46 C 1064.76 1280.13 1067.34 1281.28 1072.39 1280.66 C 1075.23 1280.31 1075.51 1281.55 1077.24 1283.58 C 1073 1285.31 1062.58 1286.83 1059.31 1283.08 L 1060.39 1279.46 z"/>
<path transform="translate(0,0)" fill="rgb(167,175,178)" d="M 1008.52 1013.78 C 1010.07 1012.97 1009.52 1013.34 1011.71 1013.42 L 1013.37 1015.29 L 1012.71 1016.61 C 1006.87 1018.85 1003.3 1016.19 997.945 1018.25 L 996.44 1019.45 L 994.767 1018.65 L 994.43 1016.35 L 995.994 1014.79 C 1000.55 1014.38 1004.88 1015.6 1008.52 1013.78 z"/>
<path transform="translate(0,0)" fill="rgb(167,175,178)" d="M 1046.67 697.355 C 1053.18 698.379 1067.97 697.064 1071.47 698.484 L 1070.09 700.975 C 1065.8 701.095 1048.56 701.191 1045.79 699.553 L 1046.67 697.355 z"/>
<path transform="translate(0,0)" fill="rgb(167,175,178)" d="M 979.232 1005.92 C 985.425 1006.58 998.077 1004.78 1001.34 1008.47 C 996.856 1009.45 983.045 1010.68 978.966 1008.36 L 979.232 1005.92 z"/>
<path transform="translate(0,0)" fill="rgb(167,175,178)" d="M 995.972 1118.83 C 999.157 1119.93 1001.92 1118.38 1003.98 1121.02 C 998.483 1122.99 992.837 1122.14 987.224 1121.26 C 983.487 1122.13 983.428 1122.11 979.577 1122.02 L 978.617 1121.01 C 982.233 1116.98 990.008 1121.27 995.972 1118.83 z"/>
<path transform="translate(0,0)" fill="rgb(167,175,178)" d="M 1038.87 1086.13 C 1045.43 1088.96 1047.05 1088.84 1054.26 1088.51 L 1056.25 1088.4 L 1057.26 1089.54 L 1056.65 1091.3 L 1055.23 1091.18 C 1047.53 1090.93 1043.78 1092.57 1037.57 1091.88 L 1036.82 1090.26 L 1038.87 1086.13 z"/>
<path transform="translate(0,0)" fill="rgb(167,175,178)" d="M 1055.17 374.39 C 1058.8 374.214 1065.66 372.991 1067.57 376.547 C 1063.83 378.267 1063.98 377.555 1059.23 377.216 C 1055.89 377.096 1050.39 378.951 1046.6 376.424 C 1049.56 374.821 1051.84 374.812 1055.17 374.39 z"/>
<path transform="translate(0,0)" fill="rgb(167,175,178)" d="M 1040.24 843.223 C 1041.15 843.099 1042.44 842.94 1043.29 843.258 C 1049.71 845.642 1062.31 841.638 1066.78 846.239 C 1057.17 846.974 1051.63 847.588 1041.93 846.043 L 1040.24 843.223 z"/>
<path transform="translate(0,0)" fill="rgb(167,175,178)" d="M 957.42 1323.49 C 959.627 1322.42 975.19 1323.4 979.333 1323.49 L 980.851 1325.66 C 972.341 1326.51 965.823 1326.21 957.451 1325.6 L 957.42 1323.49 z"/>
<path transform="translate(0,0)" fill="rgb(167,175,178)" d="M 1054.13 653.085 C 1057.63 655.299 1066.21 654.827 1072.24 656.014 C 1069.08 657.568 1061.79 657.102 1057.75 657.158 C 1055.79 656.538 1048.13 657.428 1043.19 656.485 L 1042.48 655.328 L 1043.97 653.969 C 1046.94 654.337 1047.56 654.374 1050.1 655.929 L 1054.13 653.085 z"/>
<path transform="translate(0,0)" fill="rgb(167,175,178)" d="M 1047.29 1220.53 C 1050.48 1220.27 1053.25 1221.05 1055.66 1223.11 L 1055.16 1224.3 C 1051.1 1225.61 1053.29 1225.52 1048.26 1223.11 L 1047.72 1224.99 C 1043.57 1225.71 1042.87 1225.98 1038.79 1225.48 L 1038.11 1224.23 L 1040.56 1222.07 C 1043.22 1221.59 1044.73 1221.23 1047.29 1220.53 z"/>
<path transform="translate(0,0)" fill="rgb(167,175,178)" d="M 1050.79 1028.17 C 1057.48 1031.33 1064.06 1029.09 1072.16 1029.86 L 1073.74 1032.26 C 1067.9 1031.67 1053.39 1034.47 1050.05 1031.12 L 1050.79 1028.17 z"/>
<path transform="translate(0,0)" fill="rgb(167,175,178)" d="M 1059.53 1199.36 C 1065.05 1201.86 1069.71 1200.51 1072.97 1202.51 L 1072.68 1205.6 C 1066.22 1204.55 1063.58 1206.44 1058.72 1205.08 C 1057.61 1202.26 1057.97 1203.16 1059.53 1199.36 z"/>
<path transform="translate(0,0)" fill="rgb(167,175,178)" d="M 981.218 440.705 C 988.138 446.686 999.029 439.963 1004.59 444.657 L 1003.69 446.182 C 995.143 443.967 985.663 448.097 980.641 444.03 L 981.218 440.705 z"/>
<path transform="translate(0,0)" fill="rgb(167,175,178)" d="M 1040.76 1347.38 C 1045.16 1346.67 1065.86 1346.76 1069.29 1348.25 L 1069.48 1350.31 C 1062.6 1349.04 1050.03 1349.47 1042.25 1349.26 L 1040.76 1347.38 z"/>
<path transform="translate(0,0)" fill="rgb(167,175,178)" d="M 1039.42 1117.49 C 1045.44 1119.85 1048.77 1119.21 1055.2 1119.12 L 1056.15 1121.77 C 1052.67 1123.58 1040.68 1124.1 1038.17 1120.59 L 1039.42 1117.49 z"/>
<path transform="translate(0,0)" fill="rgb(167,175,178)" d="M 1040.26 491.996 C 1041.92 491.911 1065.88 493.196 1067.09 493.489 C 1063.48 495.614 1047.79 495.958 1042.84 495.474 C 1041.51 495.344 1040.91 493.234 1040.26 491.996 z"/>
<path transform="translate(0,0)" fill="rgb(167,175,178)" d="M 1085.22 1401.73 C 1087.89 1402.7 1087.07 1402.05 1088.92 1403.98 C 1085.78 1406.75 1075.45 1406.02 1071 1405.86 L 1069.09 1404.84 L 1069.59 1403.69 C 1077.03 1401.89 1077.29 1404.75 1085.22 1401.73 z"/>
<path transform="translate(0,0)" fill="rgb(167,175,178)" d="M 1040.48 1300.17 C 1044.44 1302.22 1053.46 1304.42 1055.33 1305.81 L 1055.15 1308.58 C 1050.68 1307.59 1048.46 1306.41 1043.06 1306.78 C 1041.35 1306.89 1040.5 1305.38 1039.63 1304.11 L 1040.48 1300.17 z"/>
<path transform="translate(0,0)" fill="rgb(167,175,178)" d="M 1060.5 329.468 C 1063.81 329.362 1064.43 329.279 1067.81 329.806 L 1067.8 330.874 C 1062.29 332.938 1059.86 332.608 1054.11 332.518 L 1044.96 332.698 L 1043.61 331.344 C 1047.53 329.611 1055 331.265 1060.5 329.468 z"/>
<path transform="translate(0,0)" fill="rgb(167,175,178)" d="M 1075.43 1038.81 L 1076.33 1038.48 L 1077.86 1039.97 L 1077.6 1041.61 C 1073.89 1043.19 1065.99 1041.48 1060.16 1042.92 C 1059.68 1042.79 1058.54 1042.07 1058.05 1041.79 L 1058.47 1040.41 C 1062.28 1038.15 1067.94 1041.17 1075.43 1038.81 z"/>
<path transform="translate(0,0)" fill="rgb(167,175,178)" d="M 1055.21 1047.52 C 1057.84 1047.77 1057.86 1047.56 1060.01 1049.01 L 1060.3 1050.53 C 1055.6 1052.83 1056.12 1050.55 1050.84 1053.43 C 1047.92 1052.8 1046.44 1052.72 1045.77 1049.8 C 1051.23 1047.74 1049.61 1050.2 1055.21 1047.52 z"/>
<path transform="translate(0,0)" fill="rgb(167,175,178)" d="M 983.103 961.325 C 986.119 960.838 1003.09 960.57 1006.27 961.462 L 1007.35 963.801 C 1000.12 964.335 989.235 964.885 983.103 961.325 z"/>
<path transform="translate(0,0)" fill="rgb(167,175,178)" d="M 976.608 676.766 C 980.528 675.462 994.869 678.117 1000.44 676.578 L 1001.11 678.094 C 997.745 680.227 981.45 678.953 976.733 678.557 L 976.608 676.766 z"/>
<path transform="translate(0,0)" fill="rgb(167,175,178)" d="M 979.789 638.037 L 981.04 637.639 C 985.187 639.173 992.679 638.668 997.25 638.329 L 998.843 638.199 L 999.896 639.588 L 998.848 640.896 C 993.141 641.089 983.938 641.686 978.879 639.637 L 979.789 638.037 z"/>
<path transform="translate(0,0)" fill="rgb(167,175,178)" d="M 1048.15 1312.12 C 1053.17 1311.95 1064.57 1312.9 1067.89 1316.54 C 1060.86 1317.03 1053.12 1318.24 1048.15 1312.12 z"/>
<path transform="translate(0,0)" fill="rgb(167,175,178)" d="M 1076.97 1131.17 C 1080.93 1130.85 1083.12 1130.38 1086.92 1131.31 C 1088.84 1133.95 1088.13 1132.44 1087.69 1136.79 C 1083.98 1136.69 1079.71 1137.11 1077.03 1134.86 L 1076.97 1131.17 z"/>
<path transform="translate(0,0)" fill="rgb(167,175,178)" d="M 970.756 1040.09 C 970.683 1040.09 989.269 1041.24 989.587 1041.28 L 989.423 1043.23 C 988.339 1043.91 977.233 1043.98 975.273 1043.71 C 972.115 1043.26 972.715 1042.8 970.756 1040.09 z"/>
<path transform="translate(0,0)" fill="rgb(167,175,178)" d="M 1053.25 271.504 C 1055.94 271.432 1060.64 271.011 1062.47 273.002 C 1058.25 274.664 1055.12 273.916 1050.54 273.511 C 1047.12 274.817 1046.96 274.751 1043.49 275.155 C 1040.33 273.823 1041.29 274.863 1039.46 272.531 C 1043.08 271.416 1048.54 272.58 1053.25 271.504 z"/>
<path transform="translate(0,0)" fill="rgb(167,175,178)" d="M 998.255 989.064 L 999.192 988.641 L 1000.19 989.537 C 1006.8 988.663 1011.67 986.506 1014.77 992.749 C 1010.37 993.714 1002.51 992.635 998.308 990.698 L 998.255 989.064 z"/>
<path transform="translate(0,0)" fill="rgb(167,175,178)" d="M 981.975 267.265 C 987.627 266.663 999.603 266.943 1003.85 270.649 C 998.996 271.797 985.498 271.095 981.975 267.265 z"/>
<path transform="translate(0,0)" fill="rgb(167,175,178)" d="M 1029.58 300.154 C 1031.26 299.968 1049.68 300.942 1050.66 301.344 C 1047.08 303.492 1039.22 304.528 1034.93 304.191 C 1031.47 303.919 1031.27 302.577 1029.58 300.154 z"/>
<path transform="translate(0,0)" fill="rgb(167,175,178)" d="M 983.216 997.655 C 988.266 998.858 993.305 997.275 1000.85 998.746 L 1000.49 1000.01 L 997.245 1000.06 C 990.213 1000.11 982.919 1000.95 976.106 1000.03 L 975.4 998.859 C 979.263 996.604 975.976 999.785 983.216 997.655 z"/>
<path transform="translate(0,0)" fill="rgb(167,175,178)" d="M 1066.64 1411.71 C 1066.76 1411.76 1066.88 1411.81 1067 1411.86 C 1070.33 1415.94 1081.48 1414.05 1086.51 1414.56 C 1086.91 1414.55 1087.32 1414.53 1087.72 1414.52 L 1088.72 1416.53 C 1084.13 1416.95 1068.77 1417.6 1065.59 1414.56 L 1066.64 1411.71 z"/>
<path transform="translate(0,0)" fill="rgb(167,175,178)" d="M 1039.36 1268.26 C 1043.92 1269.01 1052.1 1268.3 1057.63 1268.38 L 1057.77 1270.42 C 1054.84 1271.6 1042.15 1271.91 1039.39 1270.73 L 1039.36 1268.26 z"/>
<path transform="translate(0,0)" fill="rgb(167,175,178)" d="M 1052.45 1005.26 C 1057.47 1004.97 1065.4 1005.15 1070.54 1005.25 L 1070.4 1007.42 C 1068.25 1008.64 1056.27 1008.27 1053.42 1007.59 L 1052.45 1005.26 z"/>
<path transform="translate(0,0)" fill="rgb(167,175,178)" d="M 1039.14 624.15 C 1046.72 625.921 1057.04 623.021 1061.4 627.156 C 1058.38 627.903 1043.69 627.925 1040.72 627.14 L 1039.14 624.15 z"/>
<path transform="translate(0,0)" fill="rgb(167,175,178)" d="M 991.371 386.67 C 994.876 385.611 1008.71 386.338 1012.26 388.6 C 1007.87 389.889 996.08 389.435 991.407 388.673 L 991.371 386.67 z"/>
<path transform="translate(0,0)" fill="rgb(167,175,178)" d="M 1041.49 757.766 C 1050.11 762.251 1055.15 758.126 1059.74 760.765 L 1058.76 762.428 C 1054.24 762.668 1044.81 763.46 1041.28 761.499 L 1041.49 757.766 z"/>
<path transform="translate(0,0)" fill="rgb(167,175,178)" d="M 982.764 1323.22 C 985.23 1322.81 999.668 1323.28 1002.21 1323.66 L 1003.37 1325.6 C 999.386 1325.88 987.119 1326.46 983.753 1325.37 L 982.764 1323.22 z"/>
<path transform="translate(0,0)" fill="rgb(167,175,178)" d="M 1060.35 1109.44 C 1064.97 1109.05 1078.36 1108.43 1082.05 1110.43 C 1077.48 1112.9 1064 1113.44 1060.35 1109.44 z"/>
<path transform="translate(0,0)" fill="rgb(167,175,178)" d="M 956.074 1353.19 C 960.565 1353.61 974.493 1354.26 977.232 1356.51 L 976.922 1357.82 C 971.003 1356.95 960.715 1356.89 956.57 1355.44 L 956.074 1353.19 z"/>
<path transform="translate(0,0)" fill="rgb(167,175,178)" d="M 1037.48 482.972 C 1040.61 482.408 1056.5 482.803 1059.15 484.556 C 1054.18 485.403 1041.33 486.106 1036.83 484.58 L 1037.48 482.972 z"/>
<path transform="translate(0,0)" fill="rgb(167,175,178)" d="M 1041.67 661.872 L 1042.67 662.244 C 1048.7 664.388 1054.51 666.165 1060.82 663.923 L 1061.71 665.599 C 1059.11 666.415 1048.65 667.957 1045.94 666.834 C 1042.21 665.292 1043.12 665.369 1041.67 661.872 z"/>
<path transform="translate(0,0)" fill="rgb(167,175,178)" d="M 997.5 950.354 C 1002.53 950.546 1011.06 949.284 1014.53 950.459 L 1015 952.484 C 1009.07 952.943 999.267 955.965 997.5 950.354 z"/>
<path transform="translate(0,0)" fill="rgb(167,175,178)" d="M 1048.23 472.923 C 1053.91 474.214 1059.98 470.765 1066.84 473.163 C 1063.23 475.541 1051.63 476.951 1047.81 475.278 L 1048.23 472.923 z"/>
<path transform="translate(0,0)" fill="rgb(167,175,178)" d="M 996.46 278.805 C 999.091 278.105 1014.59 278.865 1016.53 280.279 L 1015.65 281.324 C 1012.21 280.724 1000.64 280.762 995.871 280.348 L 996.46 278.805 z"/>
<path transform="translate(0,0)" fill="rgb(167,175,178)" d="M 1056.73 747.389 C 1060.2 746.918 1060.27 746.322 1063 747.532 C 1059.31 749.757 1055.52 749.418 1051.07 749.643 C 1047.36 750.417 1045.5 750.981 1041.74 749.89 C 1046.44 747.553 1051.47 747.717 1056.73 747.389 z"/>
<path transform="translate(0,0)" fill="rgb(167,175,178)" d="M 1000.51 1363.36 C 1002.67 1362.85 1011.68 1363.31 1014.49 1364.98 L 1013.63 1365.21 L 1013.23 1366.01 L 1010.59 1365.23 C 1004.75 1365.03 999.424 1367.9 992.908 1364.74 L 1000.51 1363.36 z"/>
<path transform="translate(0,0)" fill="rgb(167,175,178)" d="M 976.673 591.887 C 981.485 592.425 985.775 593.205 990.948 592.901 C 992.687 592.799 993.76 594.815 994.617 596.153 C 988.029 594.403 982.499 597.072 976.692 594.377 L 976.673 591.887 z"/>
<path transform="translate(0,0)" fill="rgb(167,175,178)" d="M 994.696 1128.06 C 1001.79 1129.73 1005.81 1126.47 1011.29 1129.41 L 1011.44 1131 C 1006.43 1131.21 997.683 1132.46 994.337 1130 L 994.696 1128.06 z"/>
<path transform="translate(0,0)" fill="rgb(167,175,178)" d="M 1049.29 576.102 C 1049.64 576.109 1050 576.117 1050.35 576.124 C 1058.13 578.437 1065.77 574.739 1073.31 576.32 L 1073.61 578.133 C 1066.86 577.823 1052.53 579.514 1048.76 578.199 L 1049.29 576.102 z"/>
<path transform="translate(0,0)" fill="rgb(167,175,178)" d="M 1042.17 546.715 L 1043.21 546.165 C 1049.63 546.464 1056.63 545.325 1060.7 548.566 C 1056.83 549.22 1046.52 548.857 1042.35 548.658 L 1042.17 546.715 z"/>
<path transform="translate(0,0)" fill="rgb(167,175,178)" d="M 1003.37 473.676 C 1006.61 472.298 1017.73 472.138 1021.28 474.905 C 1018.45 475.898 1006.71 475.756 1003.37 475.572 L 1003.37 473.676 z"/>
<path transform="translate(0,0)" fill="rgb(167,175,178)" d="M 979.856 1221.38 C 985.365 1223.36 990.633 1222.24 993.394 1224.26 L 992.733 1225.74 C 985.432 1224.14 984.338 1226.71 978.015 1225.71 L 977.381 1224.45 L 979.856 1221.38 z"/>
<path transform="translate(0,0)" fill="rgb(167,175,178)" d="M 1060.35 789.81 C 1067.53 793.073 1073.21 788.836 1079.96 792.41 C 1076.11 794.395 1069.82 794.059 1065.48 793.701 C 1062.25 793.435 1062.13 792.23 1060.35 789.81 z"/>
<path transform="translate(0,0)" fill="rgb(167,175,178)" d="M 988.143 322.331 C 994.242 322.56 1008.07 321.951 1012.38 323.745 C 1007.27 326.531 993.328 325.081 988.143 322.331 z"/>
<path transform="translate(0,0)" fill="rgb(167,175,178)" d="M 996.292 432.061 L 997.135 431.633 C 1002.75 433.618 1009.76 430.048 1016.14 433.564 C 1010 434.581 1002.23 434.441 995.902 434.358 L 996.292 432.061 z"/>
<path transform="translate(0,0)" fill="rgb(167,175,178)" d="M 1059.77 247.385 L 1062.95 246.67 C 1064.72 247.432 1063.88 247.342 1065.42 247.216 C 1060.8 249.878 1057.44 250.315 1052.22 251.352 C 1049.31 252.266 1050.23 251.955 1046.94 251.707 L 1046.52 250.846 C 1049.09 248.62 1055.38 248.899 1059.77 247.385 z"/>
<path transform="translate(0,0)" fill="rgb(167,175,178)" d="M 1049.7 939.26 C 1054 939.324 1058.31 939.41 1062.62 939.517 L 1064.53 941.894 C 1058.56 942.703 1051.73 945.462 1049.7 939.26 z"/>
<path transform="translate(0,0)" fill="rgb(167,175,178)" d="M 956.498 1222.19 C 960.847 1221.83 970.909 1222.52 973.553 1225.63 L 971.81 1227.02 C 964.601 1223.93 962.939 1225.3 955.552 1224.13 L 956.498 1222.19 z"/>
<path transform="translate(0,0)" fill="rgb(167,175,178)" d="M 1073.52 885.673 C 1074.69 885.286 1073.95 885.399 1075.78 885.945 L 1075.17 887.313 C 1070.55 888.569 1062.82 888.272 1057.79 888.327 C 1055.98 887.962 1056.71 888.422 1055.6 886.938 C 1059.12 885.918 1068.97 886.034 1073.52 885.673 z"/>
<path transform="translate(0,0)" fill="rgb(167,175,178)" d="M 973.581 1136.92 C 981.315 1139.39 985.988 1137.29 990.546 1139.21 L 990.775 1141.99 C 983.543 1139.52 979.385 1141.79 974.041 1139.94 L 973.581 1136.92 z"/>
<path transform="translate(0,0)" fill="rgb(167,175,178)" d="M 980.251 1233.26 C 986.593 1234.16 997.321 1232.06 1001.25 1235.74 C 995.997 1236.26 985.836 1236.08 980.54 1235.41 L 980.251 1233.26 z"/>
<path transform="translate(0,0)" fill="rgb(167,175,178)" d="M 1062.46 634.288 C 1066.12 635.492 1071.27 634.711 1075.23 634.422 L 1076.22 635.294 L 1073.56 637.249 C 1068.53 637.353 1062.63 637.663 1057.9 636.156 L 1058.25 635.201 L 1062.46 634.288 z"/>
<path transform="translate(0,0)" fill="rgb(167,175,178)" d="M 985.887 628.139 C 993.126 629.186 996.872 628.751 1004.07 628.691 L 1005.18 630.582 C 1000.63 632.017 991.029 631.493 986.406 630.396 L 985.887 628.139 z"/>
<path transform="translate(0,0)" fill="rgb(167,175,178)" d="M 1043.18 240.176 C 1050.52 240.95 1055.37 239.238 1062.39 240.304 L 1062.35 241.319 C 1057.63 241.916 1046.23 243.987 1042.64 242.411 L 1043.18 240.176 z"/>
<path transform="translate(0,0)" fill="rgb(167,175,178)" d="M 1040.62 412.384 C 1047.07 413.263 1053.39 412.07 1059.21 413.649 L 1059.81 415.688 C 1054.22 415.249 1045.83 415.431 1040.78 414.475 L 1040.62 412.384 z"/>
<path transform="translate(0,0)" fill="rgb(167,175,178)" d="M 1080.33 1327.91 C 1084.05 1327.84 1085.93 1327.85 1089.62 1328.22 L 1090.44 1329.55 L 1088.51 1332.13 C 1084.01 1331.95 1082.58 1331.93 1078.25 1330.96 L 1077.63 1329.75 L 1080.33 1327.91 z"/>
<path transform="translate(0,0)" fill="rgb(167,175,178)" d="M 1066.05 615.206 C 1070.32 614.869 1075.68 614.203 1079.37 616.318 L 1079.53 618.09 C 1075.97 618.107 1068.55 619.085 1066.3 617.967 L 1066.05 615.206 z"/>
<path transform="translate(0,0)" fill="rgb(167,175,178)" d="M 1044.02 909.776 L 1044.92 910.412 C 1048.01 910.492 1047.91 910.491 1050.85 911.454 L 1050.45 912.934 L 1048.09 913.977 C 1043.78 913.895 1042.35 914.168 1038.5 912.541 L 1038.9 911.072 C 1040.74 910.547 1042.16 910.205 1044.02 909.776 z"/>
<path transform="translate(0,0)" fill="rgb(167,175,178)" d="M 964.865 1301.41 C 970.682 1300.88 975.229 1299.1 978.55 1304.3 C 973 1305.66 968.844 1305.56 964.865 1301.41 z"/>
<path transform="translate(0,0)" fill="rgb(167,175,178)" d="M 982.627 296.715 C 989.981 300.747 992.029 298.173 995.277 302.774 C 990.726 303.198 985.644 303.274 982.214 300.022 L 982.627 296.715 z"/>
<path transform="translate(0,0)" fill="rgb(167,175,178)" d="M 992.244 377.335 C 996.583 376.61 1007.26 376.345 1011.43 377.567 L 1011.72 379.698 C 1005.03 379.244 996.967 380.523 992.244 377.335 z"/>
<path transform="translate(0,0)" fill="rgb(167,175,178)" d="M 1044.59 310.119 C 1049.87 310.702 1055.25 310.546 1060.63 310.731 L 1062.07 312.605 C 1057.15 313.07 1049.17 313.813 1044.49 312.369 L 1044.59 310.119 z"/>
<path transform="translate(0,0)" fill="rgb(167,175,178)" d="M 983.897 330.62 C 987.522 331.196 999.284 333.674 1001.44 336.111 C 998.087 336.142 986.986 335.244 984.153 333.91 L 983.897 330.62 z"/>
<path transform="translate(0,0)" fill="rgb(167,175,178)" d="M 1003.72 604.314 C 1008.6 603.988 1010.18 603.998 1015.02 604.555 L 1015.68 605.779 L 1014.36 606.169 C 1011.94 606.691 1008.91 607.84 1006.44 608.62 L 1004.54 607.585 L 1003.72 604.314 z"/>
<path transform="translate(0,0)" fill="rgb(167,175,178)" d="M 1019.42 334.698 C 1016.35 335.215 1012.23 336.126 1009.28 335.985 L 1007.89 334.642 L 1006.38 335.291 C 1012.18 332.856 1016.77 332.911 1022.96 332.344 L 1022.79 333.685 C 1022.14 333.983 1020.19 334.48 1019.42 334.698 z"/>
<path transform="translate(0,0)" fill="rgb(167,175,178)" d="M 979.533 288.352 C 985.46 288.887 996.833 287.961 1000.28 290.864 C 996.788 291.206 983.191 291.325 980.105 290.279 L 979.533 288.352 z"/>
<path transform="translate(0,0)" fill="rgb(167,175,178)" d="M 980.914 666.342 C 985.181 666.024 997.311 666.052 1000.67 668.51 C 993.928 669.418 986.414 670.543 980.914 666.342 z"/>
<path transform="translate(0,0)" fill="rgb(167,175,178)" d="M 1064.12 423.902 L 1065.47 424.02 L 1065.96 425.63 C 1063.59 427.422 1056.72 427.11 1052.19 427.772 L 1050.67 427.461 L 1050.51 426.181 C 1053.8 424.344 1059.23 425.43 1064.12 423.902 z"/>
<path transform="translate(0,0)" fill="rgb(167,175,178)" d="M 1001.5 524.767 L 1002.78 524.614 L 1003.53 525.973 C 1000.94 527.746 991.901 527.056 987.75 527.073 L 986.04 527.062 L 985.926 525.776 C 991.505 524.666 995.868 524.814 1001.5 524.767 z"/>
<path transform="translate(0,0)" fill="rgb(167,175,178)" d="M 1002.85 739.306 C 1003.31 739.107 1002.92 739.213 1004.59 739.24 L 1004.64 740.987 C 1001.65 743.447 999.182 743.03 995.228 743.187 C 994.32 741.67 994.58 741.786 994.246 739.916 L 995.947 739.012 C 998.819 739.556 999.906 739.866 1002.85 739.306 z"/>
<path transform="translate(0,0)" fill="rgb(167,175,178)" d="M 1041.77 1289.46 C 1045.21 1290.02 1045.45 1289.44 1047.44 1291.45 L 1046.8 1296.43 C 1043.91 1296.27 1043.46 1296.25 1040.67 1295.54 C 1039.76 1292.71 1040.38 1293 1041.77 1289.46 z"/>
<path transform="translate(0,0)" fill="rgb(167,175,178)" d="M 1043.39 556.828 C 1047.87 556.533 1054.68 555.863 1057.66 559.024 C 1053.28 560.125 1047.8 559.674 1043.4 558.823 L 1043.39 556.828 z"/>
<path transform="translate(0,0)" fill="rgb(167,175,178)" d="M 982.85 561.437 C 987.129 560.788 990.752 561.544 995.134 561.359 L 996.841 561.276 L 997.987 562.61 L 996.851 563.91 C 992.064 564.291 986.551 564.864 982.85 561.437 z"/>
<path transform="translate(0,0)" fill="rgb(167,175,178)" d="M 1036.89 605.065 C 1040.78 604.698 1048.51 604.32 1049.16 609.105 C 1043.74 606.856 1042.03 610.404 1037.51 608.293 L 1036.89 605.065 z"/>
<path transform="translate(0,0)" fill="rgb(167,175,178)" d="M 989.058 483.462 C 993.16 482.447 1005.33 481.833 1008.42 484.641 C 1004.04 485.097 992.082 486.189 989.058 483.462 z"/>
<path transform="translate(0,0)" fill="rgb(167,175,178)" d="M 989.747 513.874 C 993.495 514.503 995.698 514.406 997.685 517.038 C 994.598 518.441 995.19 517.902 991.209 517.365 C 989.447 517.505 990.053 517.577 988.207 518.893 L 985.479 518.287 C 986.765 515.467 986.991 515.836 989.747 513.874 z"/>
<path transform="translate(0,0)" fill="rgb(167,175,178)" d="M 1046.2 790.007 C 1051.28 790.71 1054.48 791.407 1059.58 790.731 L 1060.8 793.346 C 1056.93 794.005 1051.56 794.136 1047.68 793.477 L 1046.2 790.007 z"/>
<path transform="translate(0,0)" fill="rgb(167,175,178)" d="M 998.202 1083.37 C 1002.26 1083.12 1011.37 1082.83 1014.03 1085.55 C 1009.47 1085.95 1002.85 1087.11 998.931 1085.36 L 998.202 1083.37 z"/>
<path transform="translate(0,0)" fill="rgb(167,175,178)" d="M 985.076 876.339 C 991.553 876.585 997.138 875.725 1002.16 878.659 C 997.97 879.267 989.946 879.579 985.918 878.398 L 985.076 876.339 z"/>
<path transform="translate(0,0)" fill="rgb(167,175,178)" d="M 1036.18 310.096 L 1041.08 311.515 L 1041.47 312.842 C 1038.86 314.373 1037.27 313.772 1034.22 313.361 C 1030.2 313.555 1030.63 314.245 1028.63 312.598 C 1030.99 310.402 1032.94 310.536 1036.18 310.096 z"/>
<path transform="translate(0,0)" fill="rgb(167,175,178)" d="M 1058.88 1376.3 C 1063.08 1375.76 1067.03 1375.58 1070.46 1377.95 L 1069.49 1379.29 C 1065.29 1379.67 1062.55 1380.24 1058.83 1378.38 L 1058.88 1376.3 z"/>
<path transform="translate(0,0)" fill="rgb(167,175,178)" d="M 1060.89 596.304 C 1064.58 596.179 1072.93 595.212 1075.6 597.066 L 1075.64 599.412 C 1068.75 597.614 1066.86 599.504 1061.45 598.477 L 1060.89 596.304 z"/>
<path transform="translate(0,0)" fill="rgb(167,175,178)" d="M 1004.99 788.925 C 1012.14 791.824 1014.57 789.04 1017.79 791.479 L 1017.54 794.394 C 1012.34 792.575 1010.16 793.715 1005.84 792.44 L 1004.99 788.925 z"/>
<path transform="translate(0,0)" fill="rgb(167,175,178)" d="M 980.63 362.34 C 981.222 362.912 981.168 364.741 981.305 365.929 C 985.496 368.812 985.635 362.911 994.858 367.544 C 988.862 368.523 984.58 369.823 979.644 366.382 C 979.205 363.588 979.058 364.939 980.63 362.34 z"/>
<path transform="translate(0,0)" fill="rgb(167,175,178)" d="M 1052.08 388.885 C 1053.88 388.372 1053.09 388.255 1054.49 388.893 L 1054.12 389.779 C 1051.26 390.309 1048.85 390.748 1046.05 391.582 L 1044.17 392.155 L 1043.31 392.719 L 1041.55 392.122 L 1041.62 390.267 C 1044.88 388.13 1048.09 388.751 1052.08 388.885 z"/>
<path transform="translate(0,0)" fill="rgb(167,175,178)" d="M 1037.73 1108.38 C 1041.43 1108.07 1044.95 1107.24 1047.83 1109.01 L 1047.79 1111.41 C 1044.35 1111.88 1041.31 1112.85 1038.45 1111.27 L 1037.73 1108.38 z"/>
<path transform="translate(0,0)" fill="rgb(167,175,178)" d="M 961.82 1182.05 C 969.282 1184.12 972.443 1181.91 977.263 1185.59 C 971.45 1186.47 968.052 1186.17 962.463 1184.74 L 961.82 1182.05 z"/>
<path transform="translate(0,0)" fill="rgb(167,175,178)" d="M 1058.68 1190.31 C 1062.16 1190.04 1065.59 1189.04 1068.05 1191.45 L 1067.56 1194.83 C 1064.2 1194.57 1062.69 1194.69 1059.59 1193.24 L 1058.68 1190.31 z"/>
<path transform="translate(0,0)" fill="rgb(167,175,178)" d="M 1082.76 1097.06 L 1083.72 1097.07 L 1083.67 1098.66 C 1080.98 1100.25 1077.4 1100.58 1074.23 1101.17 L 1073 1098.99 L 1074.12 1097.52 C 1077.81 1096.99 1079.01 1096.98 1082.76 1097.06 z"/>
<path transform="translate(0,0)" fill="rgb(167,175,178)" d="M 1069.02 1048.06 C 1071.12 1048.29 1071.17 1048.4 1073.21 1049.02 L 1073.11 1050.2 L 1069.36 1052.46 C 1066.28 1052.36 1064.25 1052.91 1062.44 1050.51 C 1065.38 1048.1 1064.76 1048.83 1069.02 1048.06 z"/>
<path transform="translate(0,0)" fill="rgb(167,175,178)" d="M 980.878 1300.97 C 984.885 1302.1 987.492 1301.57 991.548 1301.8 L 991.763 1304.2 C 988.352 1304.66 982.199 1306.42 980.013 1303.55 L 980.878 1300.97 z"/>
<path transform="translate(0,0)" fill="rgb(167,175,178)" d="M 976.653 1176.34 C 979.84 1176.03 989.411 1175.68 992.226 1176.6 L 992.511 1178.3 C 988.482 1177.95 982.966 1178.68 978.282 1178.63 L 976.653 1176.34 z"/>
<path transform="translate(0,0)" fill="rgb(167,175,178)" d="M 974.55 779.419 C 978.784 778.655 986.877 778.942 991.471 778.957 L 992.681 780.418 C 988.466 781.827 978.734 781.633 974.55 779.419 z"/>
<path transform="translate(0,0)" fill="rgb(167,175,178)" d="M 967.569 938.825 C 972.282 938.908 973.538 939.396 977.848 941.073 L 978.138 944.267 C 973.046 941.509 971.924 943.922 968.055 942.024 L 967.569 938.825 z"/>
<path transform="translate(0,0)" fill="rgb(167,175,178)" d="M 1071.99 1088.89 L 1072.5 1089.54 L 1071.92 1091.13 C 1069.07 1092.18 1065.05 1090.9 1061.39 1091.1 L 1059.78 1091.49 L 1059.69 1090.19 C 1064.38 1088.69 1067.09 1088.95 1071.99 1088.89 z"/>
<path transform="translate(0,0)" fill="rgb(167,175,178)" d="M 993.654 1040.18 C 997.264 1040.23 1000.96 1039.7 1003.73 1041.27 L 1003.45 1043.07 C 998.361 1043.38 998.382 1045.02 994.28 1043.34 L 993.654 1040.18 z"/>
<path transform="translate(0,0)" fill="rgb(167,175,178)" d="M 992.337 1147.22 C 999.825 1149.7 1002.27 1143.93 1006.57 1150.05 C 1002.82 1150.11 994.52 1150.68 991.462 1149.42 L 992.337 1147.22 z"/>
<path transform="translate(0,0)" fill="rgb(167,175,178)" d="M 1053.97 859.097 L 1055.54 859.296 L 1055.37 861.055 C 1051.48 863.584 1052.61 862.79 1047.31 863.029 C 1046.19 861.969 1046.65 862.299 1046.12 860.436 L 1047.66 859.411 C 1050.32 859.654 1051.36 859.644 1053.97 859.097 z"/>
<path transform="translate(0,0)" fill="rgb(167,175,178)" d="M 1009.33 452.65 C 1010.41 452.506 1009.74 452.485 1011.25 453.2 L 1010.5 454.234 C 1005.84 454.747 1002.45 454.923 997.754 455.029 L 995.751 454.967 L 995.341 453.806 C 998.83 452.804 1004.68 453.204 1009.33 452.65 z"/>
<path transform="translate(0,0)" fill="rgb(167,175,178)" d="M 980.948 687.948 C 984.139 690.665 987.998 693.205 990.4 696.346 C 987.403 696.655 987.366 696.773 984.455 696.204 C 981.531 693.119 982.209 692.7 980.948 687.948 z"/>
<path transform="translate(0,0)" fill="rgb(167,175,178)" d="M 1070.26 928.818 C 1070.71 928.691 1081.07 928.907 1082.45 928.912 L 1083.63 930.557 C 1079.25 931.333 1074.8 931.525 1070.37 931.128 L 1070.26 928.818 z"/>
<path transform="translate(0,0)" fill="rgb(167,175,178)" d="M 1077.48 1394.36 C 1083.36 1395.12 1086.58 1393.64 1090.21 1397.68 C 1086.34 1398.21 1081.15 1397.95 1077.43 1396.51 L 1077.48 1394.36 z"/>
<path transform="translate(0,0)" fill="rgb(167,175,178)" d="M 1002.55 396.06 C 1005.55 396.037 1012.4 396.665 1015.3 397.39 L 1015.46 398.752 C 1011.24 398.907 1007.12 400.094 1003.46 398.699 L 1002.55 396.06 z"/>
<path transform="translate(0,0)" fill="rgb(167,175,178)" d="M 979.058 856.302 L 980.037 855.678 C 983.656 856.883 988.127 856.391 989.998 858.391 C 987.134 859.591 981.948 859.786 979.153 858.325 L 979.058 856.302 z"/>
<path transform="translate(0,0)" fill="rgb(167,175,178)" d="M 1048.24 962.016 L 1050.22 962.244 C 1055.8 962.928 1055.94 963.12 1058.84 966.902 C 1052.13 967.098 1051.31 967.996 1048.24 962.016 z"/>
<path transform="translate(0,0)" fill="rgb(206,206,207)" d="M 959.743 1194.78 C 960.236 1197.51 956.742 1204.34 955.449 1208.02 C 954.157 1205.29 954.527 1206.07 954.054 1202.95 C 955.09 1198.9 956.668 1197.92 959.743 1194.78 z"/>
<path transform="translate(0,0)" fill="rgb(167,175,178)" d="M 1001.58 649.198 C 1005.26 648.931 1010.69 648.389 1013.78 649.965 L 1012.67 651.58 C 1008.38 651.186 1006.56 652.446 1002.83 652.121 L 1001.58 649.198 z"/>
<path transform="translate(0,0)" fill="rgb(167,175,178)" d="M 1075.82 1366.4 C 1081.09 1365.87 1084.21 1364.63 1087.91 1368.63 C 1083.46 1369.29 1078.02 1370.76 1075.82 1366.4 z"/>
<path transform="translate(0,0)" fill="rgb(167,175,178)" d="M 975.124 1275.54 C 976.618 1275.73 978.578 1276.29 980.086 1276.67 C 975.84 1277.57 975.252 1277.78 971.002 1277.54 C 968.263 1277.82 965.371 1278.26 962.904 1277.27 C 967.333 1275.29 970.273 1275.64 975.124 1275.54 z"/>
<path transform="translate(0,0)" fill="rgb(167,175,178)" d="M 1056.74 1119.06 C 1061.33 1119.12 1061.89 1119.12 1066.27 1120.28 L 1067.03 1122.59 C 1063.43 1122.9 1060.76 1123.6 1057.65 1121.99 L 1056.74 1119.06 z"/>
<path transform="translate(0,0)" fill="rgb(167,175,178)" d="M 1072.76 1376.15 C 1077.72 1375.93 1080.28 1375.41 1083.33 1379.62 C 1077.26 1380.06 1075.4 1381.56 1072.76 1376.15 z"/>
<path transform="translate(0,0)" fill="rgb(167,175,178)" d="M 995.138 969.763 C 997.627 969.828 1002.87 971.02 1005.48 971.554 L 1004.76 972.893 C 1000.84 973.357 997.028 974.471 994.297 972.398 L 995.138 969.763 z"/>
<path transform="translate(0,0)" fill="rgb(167,175,178)" d="M 1048.66 727.431 C 1053.38 726.895 1059.24 725.293 1062.51 728.79 C 1057.45 730.44 1053.24 730.043 1048.66 727.431 z"/>
<path transform="translate(0,0)" fill="rgb(167,175,178)" d="M 979.489 867.548 C 981.949 866.276 988.667 866.07 990.966 868.444 C 988.377 869.324 982.989 869.066 980.214 869.009 L 979.489 867.548 z"/>
<path transform="translate(0,0)" fill="rgb(167,175,178)" d="M 1043.05 292.589 C 1046.28 291.097 1052.54 291.58 1055.41 294.047 C 1051.97 295.231 1047.92 294.422 1044.18 294.04 L 1043.05 292.589 z"/>
<path transform="translate(0,0)" fill="rgb(167,175,178)" d="M 998.059 749.67 C 1001.96 750.571 1006.44 750.514 1008.69 752.579 L 1007.6 753.44 C 1005.25 752.904 1000.48 753.409 997.684 753.374 L 996.921 752.158 L 998.059 749.67 z"/>
<path transform="translate(0,0)" fill="rgb(167,175,178)" d="M 1062.37 822.549 C 1065.33 821.14 1068.9 821.811 1072.48 821.975 L 1073.71 823.459 C 1070.63 824.497 1066.94 824.017 1063.51 823.915 L 1062.37 822.549 z"/>
<path transform="translate(0,0)" fill="rgb(167,175,178)" d="M 1000.4 504.75 C 1002.04 504.309 1010.39 504.477 1011.91 505.604 L 1010.87 506.611 C 1007.54 506.96 1003.37 507.774 1000.38 506.699 L 1000.4 504.75 z"/>
<path transform="translate(0,0)" fill="rgb(167,175,178)" d="M 1045.99 596.197 C 1049.85 595.932 1056.07 595.545 1058.71 598.56 C 1053.12 601.121 1050.89 599.124 1045.99 596.197 z"/>
<path transform="translate(0,0)" fill="rgb(167,175,178)" d="M 993.106 940.423 C 996.82 940.079 1001.08 939.176 1004.3 940.705 L 1004.59 943.069 C 1000.81 942.982 998.247 942.802 994.493 942.355 L 993.106 940.423 z"/>
<path transform="translate(0,0)" fill="rgb(167,175,178)" d="M 1068.71 939.482 C 1073.27 940.274 1074.32 938.219 1078.58 939.526 L 1079.74 941.858 C 1075.89 942.554 1072.97 943.065 1069.34 941.6 L 1068.71 939.482 z"/>
<path transform="translate(0,0)" fill="rgb(167,175,178)" d="M 1053.47 716.305 C 1058.61 717.428 1061.83 715.69 1066.26 717.459 L 1066.49 719.327 C 1062.64 718.923 1055.33 719.324 1052.59 718.205 L 1053.47 716.305 z"/>
<path transform="translate(0,0)" fill="rgb(167,175,178)" d="M 1038.04 920.438 C 1044.21 919.86 1046.07 918.27 1047.79 924.133 C 1043.8 923.825 1042.57 923.73 1038.73 922.755 L 1038.04 920.438 z"/>
<path transform="translate(0,0)" fill="rgb(167,175,178)" d="M 1005.49 1312.36 L 1007.44 1312.25 L 1008.05 1313.52 C 1005.12 1316.61 1006.19 1315.64 1001.67 1317 C 999.32 1315.7 1000.03 1316.28 998.357 1314.3 C 1000.16 1312.56 1002.41 1312.83 1005.49 1312.36 z"/>
<path transform="translate(0,0)" fill="rgb(167,175,178)" d="M 1002.77 312.311 C 1007.05 311.689 1010.97 312.022 1015.12 313.088 L 1014.61 313.906 C 1010.72 314.345 1006.17 315.549 1002.84 314.095 L 1002.77 312.311 z"/>
<path transform="translate(0,0)" fill="rgb(167,175,178)" d="M 1059.04 463.307 C 1064.03 462.955 1066.99 462.512 1071.98 463.329 L 1072.41 464.998 C 1068.26 465.088 1064.79 465.447 1060.41 465.422 L 1059.04 463.307 z"/>
<path transform="translate(0,0)" fill="rgb(167,175,178)" d="M 984.73 419.808 C 987.085 421.793 988.382 421.144 991.324 422.546 L 989.819 423.92 C 986.644 423.025 984.169 423.381 980.875 423.521 L 980.653 422.569 L 984.73 419.808 z"/>
<path transform="translate(0,0)" fill="rgb(167,175,178)" d="M 1057.28 673.777 L 1058.19 673.626 L 1058.48 675.059 C 1054.12 676.631 1052.64 676.216 1047.85 675.976 L 1046.89 675.718 L 1046.53 674.744 C 1051 673.501 1052.53 673.741 1057.28 673.777 z"/>
<path transform="translate(0,0)" fill="rgb(167,175,178)" d="M 994.685 420.302 C 998.909 419.895 1002.66 419.342 1006.05 421.53 L 1004.76 422.5 C 1000.03 421.625 999.571 423.202 995.466 422.957 L 994.685 420.302 z"/>
<path transform="translate(0,0)" fill="rgb(167,175,178)" d="M 1050.36 301.443 C 1054.2 300.865 1058.56 300.98 1062.48 300.945 L 1063.65 302.474 C 1059.59 303.78 1054.01 303.939 1050.36 301.443 z"/>
<path transform="translate(0,0)" fill="rgb(167,175,178)" d="M 1003.11 344.362 C 1006.38 344.013 1013.15 343.775 1016.31 344.196 L 1016.63 346.085 C 1011.55 345.643 1009.73 346.78 1004.51 346.232 L 1003.11 344.362 z"/>
<path transform="translate(0,0)" fill="rgb(206,206,207)" d="M 1042.79 319.736 C 1047.44 320.712 1050.49 321.118 1055.23 321.607 L 1053.34 322.086 C 1048.79 322.332 1047.9 323.79 1042.3 322.899 L 1041.47 321.679 L 1042.79 319.736 z"/>
<path transform="translate(0,0)" fill="rgb(167,175,178)" d="M 1053.86 1363.06 C 1056.69 1366.46 1052.67 1369.58 1050.2 1371.29 C 1048.44 1369.12 1048.84 1370.35 1048.49 1367.75 C 1050.54 1366.4 1051.12 1366.07 1052.74 1364.3 L 1053.86 1363.06 z"/>
<path transform="translate(0,0)" fill="rgb(167,175,178)" d="M 985.601 657.165 C 989.33 658.031 991.766 657.318 996.595 658.496 L 997.394 660.473 C 992.657 660.412 990.355 660.584 985.751 659.405 L 985.601 657.165 z"/>
<path transform="translate(0,0)" fill="rgb(167,175,178)" d="M 1058.13 435.541 C 1062.01 435.055 1067.1 434.282 1070.4 435.909 L 1069.58 437.058 C 1066.26 437.228 1060.22 437.996 1057.52 436.677 L 1058.13 435.541 z"/>
<path transform="translate(0,0)" fill="rgb(167,175,178)" d="M 1052.09 708.548 C 1055.35 707.009 1060.62 707.516 1063.61 709.526 C 1060.07 710.089 1054.61 711.025 1052.09 708.548 z"/>
<path transform="translate(0,0)" fill="rgb(167,175,178)" d="M 994.585 257.275 C 1001.26 259.066 1002.38 256.635 1006.4 260.086 C 1002.59 260.225 997.964 260.776 994.489 259.551 L 994.585 257.275 z"/>
<path transform="translate(0,0)" fill="rgb(167,175,178)" d="M 994.153 1312.71 L 995.472 1313.26 L 995.543 1314.44 C 992.705 1316.02 991.551 1315.7 988.319 1315.62 L 986.529 1315.55 L 986.091 1314.6 C 988.774 1312.73 990.859 1312.95 994.153 1312.71 z"/>
<path transform="translate(0,0)" fill="rgb(167,175,178)" d="M 989.052 819.653 C 992.22 820.091 994.309 819.957 997.489 819.948 L 998.576 821.42 C 995.888 822.712 992.121 822.007 989.315 821.471 L 989.052 819.653 z"/>
<path transform="translate(0,0)" fill="rgb(167,175,178)" d="M 1052.92 282.581 C 1056.14 282.52 1059.01 281.911 1062.49 281.902 L 1063.51 283.514 C 1060 285.058 1056.25 283.853 1052.92 282.581 z"/>
<path transform="translate(0,0)" fill="rgb(167,175,178)" d="M 1060.33 737.533 C 1063.16 736.021 1067.21 736.66 1069.5 738.913 L 1060.41 739.517 L 1060.33 737.533 z"/>
<path transform="translate(0,0)" fill="rgb(167,175,178)" d="M 1011.51 226.721 L 1012.36 226.378 C 1016.44 226.819 1017.15 226.688 1020.67 228.553 C 1016.54 228.98 1015.39 229.279 1011.39 228.581 L 1011.51 226.721 z"/>
<path transform="translate(0,0)" fill="rgb(167,175,178)" d="M 1065.12 910.015 C 1066.69 910.389 1066 909.962 1067.02 911.513 C 1064.29 913.585 1063.74 913.324 1060.3 914.258 L 1058.32 912.253 C 1059.91 910.236 1061.75 910.625 1065.12 910.015 z"/>
<path transform="translate(0,0)" fill="rgb(167,175,178)" d="M 979.232 482.359 C 982.042 482.688 983.754 482.711 986.38 483.854 L 985.567 484.742 C 981.937 485.297 980.866 486.2 978.502 484.731 L 979.232 482.359 z"/>
<path transform="translate(0,0)" fill="rgb(167,175,178)" d="M 977.353 1382.49 C 980.615 1381.95 981.087 1381.8 984.497 1381.94 L 985.662 1383.44 C 982.39 1384.89 980.354 1383.73 977.353 1382.49 z"/>
<path transform="translate(0,0)" fill="rgb(167,175,178)" d="M 975.679 820.488 C 978.614 819.994 979.611 819.953 982.497 819.855 L 983.561 821.425 C 980.441 822.686 978.488 821.73 975.679 820.488 z"/>
<path transform="translate(0,0)" fill="rgb(167,175,178)" d="M 993.621 312.56 C 996.217 311.275 999.037 312.665 1001.54 313.533 C 998.984 313.837 997.036 313.985 994.499 314.13 L 993.621 312.56 z"/>
<path transform="translate(0,0)" fill="rgb(167,175,178)" d="M 1061.71 606.515 C 1064.09 606.225 1066.12 606.12 1068.5 605.982 L 1069.64 607.435 C 1066.39 609.058 1064.7 607.708 1061.71 606.515 z"/>
<path transform="translate(0,0)" fill="rgb(167,175,178)" d="M 994.616 718.452 C 998.605 717.781 1000 717.391 1003.24 719.733 C 999.585 720.194 999.319 720.319 995.51 719.913 L 994.616 718.452 z"/>
<path transform="translate(0,0)" fill="rgb(63,73,77)" d="M 976.709 1486.07 C 995.849 1490.28 1052.71 1490.84 1071.16 1486.16 C 1071.27 1493.08 1073.24 1504.44 1066.05 1507.76 C 1067.4 1515.64 1067.18 1524.35 1067.47 1532.38 C 1069.09 1576.97 1069.63 1620.91 1066.93 1665.5 L 1066.5 1674.31 C 1065.54 1686.89 1064.2 1701.3 1063.77 1713.82 L 1063.11 1717.16 C 1062.3 1727.03 1061.37 1736.89 1060.31 1746.74 L 1060.05 1751.59 L 1059.45 1753.41 L 1059.08 1758.11 C 1057.77 1766.59 1055.83 1777.22 1055.54 1785.61 L 1054.83 1789.98 L 1054.4 1793.05 L 1053.55 1794.95 C 1052.94 1799.45 1051.78 1804.22 1053.08 1808.38 C 1057.48 1814.86 1055.87 1825.28 1052 1831.66 C 1043.5 1831.67 999.847 1831.35 995.311 1832.18 C 992.237 1825.7 989.867 1812.98 995.558 1807.49 C 994.6 1797.87 992.832 1786.81 991.488 1777.13 L 990.321 1769.07 C 988.782 1758.91 987.739 1747.74 986.575 1737.47 L 985.555 1729.57 C 984.255 1718.86 983.399 1705.92 982.834 1695.18 L 982.197 1689.02 C 981.858 1678.01 980.945 1666.08 980.538 1654.78 L 980.196 1646.06 C 979.453 1634.15 979.062 1622.22 979.023 1610.29 L 978.978 1603.57 C 978.981 1591.76 979.055 1579.96 979.2 1568.15 L 979.674 1561.7 C 980.062 1549.93 980.528 1538.16 981.07 1526.39 L 980.971 1521.59 L 982.775 1508.35 C 974.255 1502.59 976.408 1495.6 976.709 1486.07 z"/>
<path transform="translate(0,0)" fill="rgb(93,103,107)" d="M 988.974 1523.4 C 1004.58 1520.08 1052.63 1507.82 1066.05 1507.76 C 1067.4 1515.64 1067.18 1524.35 1067.47 1532.38 C 1069.09 1576.97 1069.63 1620.91 1066.93 1665.5 C 1060.59 1663.29 1046.51 1660.77 1039.37 1659.35 C 1023.38 1656.1 1007.35 1653.03 991.29 1650.15 C 1017.21 1643.88 1042.22 1638.61 1068.07 1631.73 C 1068 1628.57 1067.7 1625.32 1067.47 1622.16 C 1041.72 1617.22 1012.26 1610.19 986.711 1606.43 C 1011.11 1603.85 1043.39 1595.01 1068.15 1589.82 C 1068.12 1586.28 1068.43 1582.83 1067.01 1579.65 C 1042.96 1575.27 1011.91 1567.78 988.652 1564.97 C 999.982 1563.34 1057.34 1550.29 1065.71 1546.68 C 1066.76 1544.17 1066.31 1541.79 1066.16 1539.01 C 1062.32 1535.71 998.269 1524.33 988.974 1523.4 z"/>
<path transform="translate(0,0)" fill="rgb(93,103,107)" d="M 990.321 1769.07 C 1002.16 1765.38 1047.65 1754.7 1059.45 1753.41 L 1059.08 1758.11 C 1057.77 1766.59 1055.83 1777.22 1055.54 1785.61 L 1054.83 1789.98 L 1054.4 1793.05 L 1053.55 1794.95 C 1052.94 1799.45 1051.78 1804.22 1053.08 1808.38 C 1057.48 1814.86 1055.87 1825.28 1052 1831.66 C 1043.5 1831.67 999.847 1831.35 995.311 1832.18 C 992.237 1825.7 989.867 1812.98 995.558 1807.49 C 994.6 1797.87 992.832 1786.81 991.488 1777.13 L 990.321 1769.07 z"/>
<path transform="translate(0,0)" fill="rgb(63,73,77)" d="M 995.558 1807.49 C 1004.68 1803.23 1045.24 1791.69 1054.4 1793.05 L 1053.55 1794.95 C 1052.94 1799.45 1051.78 1804.22 1053.08 1808.38 C 1057.48 1814.86 1055.87 1825.28 1052 1831.66 C 1043.5 1831.67 999.847 1831.35 995.311 1832.18 C 992.237 1825.7 989.867 1812.98 995.558 1807.49 z"/>
<path transform="translate(0,0)" fill="rgb(93,103,107)" d="M 1014.04 1806.84 C 1026.62 1803.27 1041.47 1799.41 1053.55 1794.95 C 1052.94 1799.45 1051.78 1804.22 1053.08 1808.38 C 1043.98 1806.62 1024.21 1806.95 1014.04 1806.84 z"/>
<path transform="translate(0,0)" fill="rgb(93,103,107)" d="M 991.488 1777.13 C 994.182 1776.38 1046.34 1788.43 1054.83 1789.98 L 1054.4 1793.05 C 1045.24 1791.69 1004.68 1803.23 995.558 1807.49 C 994.6 1797.87 992.832 1786.81 991.488 1777.13 z"/>
<path transform="translate(0,0)" fill="rgb(63,73,77)" d="M 990.321 1769.07 C 1002.16 1765.38 1047.65 1754.7 1059.45 1753.41 L 1059.08 1758.11 C 1039.53 1761.76 1017.6 1768.59 996.735 1772.86 C 1007.7 1774.51 1046.41 1781.44 1055.54 1785.61 L 1054.83 1789.98 C 1046.34 1788.43 994.182 1776.38 991.488 1777.13 L 990.321 1769.07 z"/>
<path transform="translate(0,0)" fill="rgb(93,103,107)" d="M 1063.77 1713.82 L 1063.11 1717.16 C 1062.3 1727.03 1061.37 1736.89 1060.31 1746.74 L 1060.05 1751.59 L 1059.45 1753.41 C 1047.65 1754.7 1002.16 1765.38 990.321 1769.07 C 988.782 1758.91 987.739 1747.74 986.575 1737.47 L 985.555 1729.57 C 998.251 1726.12 1054.22 1712.89 1063.77 1713.82 z"/>
<path transform="translate(0,0)" fill="rgb(93,103,107)" d="M 986.575 1737.47 C 1001.74 1739.52 1017.79 1743.12 1032.87 1746.14 C 1038.38 1747.25 1055.32 1750.08 1060.05 1751.59 L 1059.45 1753.41 C 1047.65 1754.7 1002.16 1765.38 990.321 1769.07 C 988.782 1758.91 987.739 1747.74 986.575 1737.47 z"/>
<path transform="translate(0,0)" fill="rgb(63,73,77)" d="M 1063.77 1713.82 L 1063.11 1717.16 C 1042.2 1720.54 1016.06 1728.65 993.773 1733.15 C 1002.87 1734.72 1053.74 1744.05 1060.31 1746.74 L 1060.05 1751.59 C 1055.32 1750.08 1038.38 1747.25 1032.87 1746.14 C 1017.79 1743.12 1001.74 1739.52 986.575 1737.47 L 985.555 1729.57 C 998.251 1726.12 1054.22 1712.89 1063.77 1713.82 z"/>
<path transform="translate(0,0)" fill="rgb(93,103,107)" d="M 991.901 1690.8 C 1007.87 1689.46 1049.68 1678.67 1066.5 1674.31 C 1065.54 1686.89 1064.2 1701.3 1063.77 1713.82 C 1054.22 1712.89 998.251 1726.12 985.555 1729.57 C 984.255 1718.86 983.399 1705.92 982.834 1695.18 C 997.422 1697.38 1052.28 1709.87 1062.92 1709.15 L 1062.62 1708.06 C 1053.41 1701.64 1008.81 1695.88 993.021 1691.15 L 991.901 1690.8 z"/>
<path transform="translate(0,0)" fill="rgb(93,103,107)" d="M 979.023 1610.29 C 1007.09 1614.91 1040.11 1623.48 1066.39 1627.3 C 1038.31 1632.67 1007.73 1641.99 980.196 1646.06 C 979.453 1634.15 979.062 1622.22 979.023 1610.29 z"/>
<path transform="translate(0,0)" fill="rgb(93,103,107)" d="M 979.2 1568.15 C 1007.81 1573.26 1038.59 1578.8 1067.18 1584.47 C 1040.44 1590.59 1004.18 1596.91 978.978 1603.57 C 978.981 1591.76 979.055 1579.96 979.2 1568.15 z"/>
<path transform="translate(0,0)" fill="rgb(93,103,107)" d="M 980.538 1654.78 L 981.636 1653.06 C 988.099 1653.74 994.823 1655.39 1001.2 1656.75 C 1023.29 1661.45 1045.09 1666.1 1067.39 1669.78 C 1038.67 1676.3 1010.9 1681.85 982.197 1689.02 C 981.858 1678.01 980.945 1666.08 980.538 1654.78 z"/>
<path transform="translate(0,0)" fill="rgb(93,103,107)" d="M 981.07 1526.39 C 1006.22 1531.53 1044.16 1539.58 1068.92 1542.49 C 1047.96 1545.94 1027.42 1550.76 1006.71 1555.5 C 1000.6 1556.89 984.584 1559.98 979.674 1561.7 C 980.062 1549.93 980.528 1538.16 981.07 1526.39 z"/>
<path transform="translate(0,0)" fill="rgb(93,103,107)" d="M 982.775 1508.35 C 995.624 1509.93 1012.44 1507.92 1027.47 1509.36 C 1019.4 1511.28 985.909 1518.15 980.971 1521.59 L 982.775 1508.35 z"/>
<path transform="translate(0,0)" fill="rgb(167,175,178)" d="M 995.311 1832.18 C 999.847 1831.35 1043.5 1831.67 1052 1831.66 C 1052.67 1832.29 1053.91 1833.37 1054.66 1833.83 C 1084.6 1852.35 1093.38 1894.47 1070.83 1922.45 C 1051.1 1946.92 1011.47 1953.87 986.54 1932.28 C 974.257 1921.64 965.622 1906.02 964.52 1889.55 C 963.478 1872.21 970.114 1855.28 982.666 1843.26 C 986.033 1840.06 993.035 1835.4 995.311 1832.18 z"/>
<path transform="translate(0,0)" fill="rgb(63,73,77)" d="M 1020.14 1856.44 C 1036.33 1854.5 1051.07 1865.92 1053.23 1882.08 C 1055.39 1898.24 1044.16 1913.13 1028.03 1915.5 C 1017.41 1917.06 1006.77 1912.78 1000.18 1904.31 C 993.588 1895.83 992.07 1884.46 996.204 1874.55 C 1000.34 1864.64 1009.48 1857.73 1020.14 1856.44 z"/>
<path transform="translate(0,0)" fill="rgb(63,73,77)" d="M 808.489 1436.31 C 847.372 1435.24 890.311 1435.92 929.423 1436.14 C 929.493 1447.83 930.259 1466.03 929.06 1477.11 C 910.182 1475.46 893.301 1476.56 874.58 1476.79 C 852.538 1477.06 830.289 1476.99 808.23 1477.04 C 809.505 1470.94 808.636 1443.7 808.489 1436.31 z"/>
<path transform="translate(0,0)" fill="rgb(63,73,77)" d="M 1118.38 1436.38 C 1151.22 1435.33 1184.43 1436.66 1217.3 1436.02 C 1224.38 1435.88 1231.34 1435.95 1238.4 1435.22 C 1239.56 1442.24 1239.26 1469.53 1238.54 1477.14 C 1227.58 1475.71 1206.2 1476.34 1194.5 1476.36 L 1118.42 1476.33 C 1118.06 1463.76 1117.61 1448.86 1118.38 1436.38 z"/>
<path transform="translate(0,0)" fill="rgb(93,103,107)" d="M 1238.4 1435.22 C 1244.86 1420.25 1259.28 1424.36 1273.5 1424.96 C 1273.79 1445.51 1273.08 1467.35 1273.64 1487.55 C 1259.31 1488.1 1244.22 1492.71 1238.54 1477.14 C 1239.26 1469.53 1239.56 1442.24 1238.4 1435.22 z"/>
<path transform="translate(0,0)" fill="rgb(93,103,107)" d="M 774.601 1425.14 C 790.515 1425.33 801.227 1419.58 808.489 1436.31 C 808.636 1443.7 809.505 1470.94 808.23 1477.04 C 804.388 1492.63 787.209 1488.2 773.983 1487.68 C 774.592 1467.16 774.125 1445.9 774.601 1425.14 z"/>
</svg>