<svg version="1.1" xmlns="http://www.w3.org/2000/svg" style="display: block;" viewBox="0 0 2048 2048" width="1024" height="1024" preserveAspectRatio="none">
<defs>
	<linearGradient id="Gradient1" gradientUnits="userSpaceOnUse" x1="1073.09" y1="1164.85" x2="1267.45" y2="1158.95">
		<stop class="stop0" offset="0" stop-opacity="1" stop-color="rgb(176,175,174)"/>
		<stop class="stop1" offset="1" stop-opacity="1" stop-color="rgb(216,216,216)"/>
	</linearGradient>
</defs>
<path transform="translate(0,0)" fill="rgb(241,241,240)" d="M 883.874 531.539 C 876.876 523.366 869.349 505.582 866.529 495.037 C 859.472 468.647 862.965 444.098 876.792 420.58 C 896.729 387.764 933.854 371.27 969.749 361.319 C 1045.19 340.405 1157.81 364.924 1182.67 449.32 C 1190.93 477.387 1179.33 506.443 1164.23 530.847 C 1156.25 541.812 1151.49 547.459 1141.78 556.89 C 1149.82 556.798 1157.85 556.787 1165.88 556.856 C 1174.18 556.827 1182.52 556.664 1190.81 556.805 C 1205.22 557.052 1217.92 555.41 1226.64 568.785 C 1227.78 577.488 1227.37 585.46 1228.07 593.708 C 1230.93 627.909 1213.44 629.588 1183.31 628.788 C 1184.05 638.394 1182.69 665.41 1185.11 671.493 L 1187.65 672.366 C 1189.2 677.961 1189.29 765.466 1187.97 770.938 C 1186.25 772.525 1187 772.144 1184.72 772.687 C 1177.48 785.065 1186.57 817.913 1201.74 823.477 C 1210.58 826.717 1222.44 833.461 1231 837.861 C 1240.47 842.762 1249.81 847.921 1259 853.331 C 1338.72 900.625 1402.04 971.215 1440.42 1055.59 C 1489.32 1162.42 1493.85 1284.29 1453.01 1394.46 C 1410.17 1508.96 1323.43 1601.65 1212.02 1651.98 C 1102.81 1701.51 978.459 1705.93 866.009 1664.27 C 749.492 1621.59 655.333 1533.38 605.161 1419.89 C 559.403 1318.35 554.036 1191.72 593.42 1087.62 C 637.885 970.091 721.217 879.93 836.338 829.259 C 846.542 824.358 858.558 820.233 862.373 808.551 C 864.661 801.547 867.347 778.192 863.072 772.894 C 861.213 772.486 861.603 772.492 859.882 771.503 C 855.82 757.125 862.741 701.402 859.99 683.755 C 859.182 678.579 859.413 673.626 864.855 672.36 C 865.476 659.339 864.864 642.027 864.776 628.689 C 863.193 628.342 859.651 628.17 857.881 628.026 C 819.59 628.455 819.146 618.693 820.542 584.098 C 820.755 578.828 820.886 573.801 821.449 568.515 C 832.787 554.296 839.559 556.708 856.246 557.053 C 867.158 556.946 878.07 556.929 888.982 557 C 894.455 556.937 899.483 556.98 904.94 556.38 C 897.195 548.319 890.33 540.673 883.874 531.539 z"/>
<path transform="translate(0,0)" fill="rgb(223,223,222)" d="M 864.776 628.689 C 874.671 629.19 886.881 625.408 894.84 630.191 C 896.855 633.501 896.134 633.712 896.234 638.263 C 895.549 648.68 895.913 661.625 895.934 672.232 C 898.415 672.252 906.996 672.08 908.794 672.703 L 906.522 673.484 C 903.79 681.839 906.25 758.42 906.865 772.17 L 896 772.322 C 896.196 791.235 896.071 822.999 892.512 841.385 C 869.944 850.718 850.46 857.028 828.111 868.426 C 738.055 913.897 667.526 990.459 629.583 1083.94 C 588.497 1182.71 590.562 1301.15 631.429 1399.65 C 675.611 1504.8 760.099 1587.86 865.993 1630.23 C 969.398 1672.01 1085.15 1671.1 1187.88 1627.68 C 1289.24 1585.06 1374.74 1501.53 1416.33 1399.43 C 1458.65 1296.81 1458.65 1181.62 1416.33 1079 C 1373.64 977.384 1292.44 896.803 1190.5 854.885 C 1178.87 850.33 1167.19 845.921 1155.46 841.658 C 1151.62 817.183 1153.23 796.075 1151.79 772.144 L 1163.05 772.165 C 1167.87 772.088 1180.79 771.573 1184.72 772.687 C 1177.48 785.065 1186.57 817.913 1201.74 823.477 C 1210.58 826.717 1222.44 833.461 1231 837.861 C 1240.47 842.762 1249.81 847.921 1259 853.331 C 1338.72 900.625 1402.04 971.215 1440.42 1055.59 C 1489.32 1162.42 1493.85 1284.29 1453.01 1394.46 C 1410.17 1508.96 1323.43 1601.65 1212.02 1651.98 C 1102.81 1701.51 978.459 1705.93 866.009 1664.27 C 749.492 1621.59 655.333 1533.38 605.161 1419.89 C 559.403 1318.35 554.036 1191.72 593.42 1087.62 C 637.885 970.091 721.217 879.93 836.338 829.259 C 846.542 824.358 858.558 820.233 862.373 808.551 C 864.661 801.547 867.347 778.192 863.072 772.894 C 861.213 772.486 861.603 772.492 859.882 771.503 C 855.82 757.125 862.741 701.402 859.99 683.755 C 859.182 678.579 859.413 673.626 864.855 672.36 C 865.476 659.339 864.864 642.027 864.776 628.689 z"/>
<path transform="translate(0,0)" fill="rgb(170,170,169)" d="M 864.855 672.36 L 882.176 672.281 C 881.84 705.177 881.063 739.129 881.345 771.946 C 876.395 771.972 867.401 771.649 863.072 772.894 C 861.213 772.486 861.603 772.492 859.882 771.503 C 855.82 757.125 862.741 701.402 859.99 683.755 C 859.182 678.579 859.413 673.626 864.855 672.36 z"/>
<path transform="translate(0,0)" fill="rgb(223,223,222)" d="M 883.874 531.539 C 876.876 523.366 869.349 505.582 866.529 495.037 C 859.472 468.647 862.965 444.098 876.792 420.58 C 896.729 387.764 933.854 371.27 969.749 361.319 C 1045.19 340.405 1157.81 364.924 1182.67 449.32 C 1190.93 477.387 1179.33 506.443 1164.23 530.847 C 1156.25 541.812 1151.49 547.459 1141.78 556.89 L 1132.24 556.779 C 1125.29 555.752 1109.85 555.973 1102.46 555.976 L 1054.52 556.055 C 1004.66 555.705 954.799 555.813 904.94 556.38 C 897.195 548.319 890.33 540.673 883.874 531.539 z"/>
<path transform="translate(0,0)" fill="rgb(183,182,182)" d="M 1134.89 530.963 L 1164.23 530.847 C 1156.25 541.812 1151.49 547.459 1141.78 556.89 L 1132.24 556.779 C 1125.29 555.752 1109.85 555.973 1102.46 555.976 L 1054.52 556.055 C 1004.66 555.705 954.799 555.813 904.94 556.38 C 897.195 548.319 890.33 540.673 883.874 531.539 C 889.944 530.904 904.284 531.256 910.962 531.223 L 911.859 531.145 C 920.106 532.469 943.651 531.769 953.082 531.691 L 1032.65 531.136 C 1050.72 531.084 1068.79 531.146 1086.86 531.323 C 1096.45 531.453 1113.8 532.371 1122.41 531.146 L 1134.89 530.963 z"/>
<path transform="translate(0,0)" fill="rgb(253,253,253)" d="M 910.962 531.223 C 862.964 455.057 908.875 378.019 994.392 365.177 L 993.449 365.718 C 985.276 370.325 976.357 373.51 968.42 378.342 C 946.35 391.778 928.714 413.104 921.673 438.192 C 912.294 471.609 921.205 503 940.392 530.74 C 933.348 530.78 918.267 530.434 911.859 531.145 L 910.962 531.223 z"/>
<path transform="translate(0,0)" fill="rgb(253,253,253)" d="M 1054.05 365.857 C 1086.48 371.295 1116.57 383.443 1136.47 410.869 C 1163.41 448.006 1160.62 493.793 1134.89 530.963 L 1122.41 531.146 C 1116.55 530.982 1111.03 530.839 1105.17 530.92 C 1141.73 485.602 1137.29 424.568 1091.73 387.147 C 1078.87 376.586 1066.51 373.827 1054.05 365.857 z"/>
<path transform="translate(0,0)" fill="rgb(223,223,222)" d="M 904.94 556.38 C 954.799 555.813 1004.66 555.705 1054.52 556.055 L 1102.46 555.976 C 1109.85 555.973 1125.29 555.752 1132.24 556.779 C 1125.92 556.986 1119.59 557.036 1113.27 556.929 C 1136.39 567.183 1142.84 584.604 1132.78 609.554 C 1128.39 620.457 1122.29 621.234 1113.97 626.789 L 1114.02 627.97 C 1099.21 635.163 953.642 626.698 926.802 629.989 C 921.997 630.579 900.119 628.782 897.118 629.873 C 896.898 632.774 896.825 635.421 896.234 638.263 C 896.134 633.712 896.855 633.501 894.84 630.191 C 886.881 625.408 874.671 629.19 864.776 628.689 C 863.193 628.342 859.651 628.17 857.881 628.026 C 819.59 628.455 819.146 618.693 820.542 584.098 C 820.755 578.828 820.886 573.801 821.449 568.515 C 832.787 554.296 839.559 556.708 856.246 557.053 C 867.158 556.946 878.07 556.929 888.982 557 C 894.455 556.937 899.483 556.98 904.94 556.38 z"/>
<path transform="translate(0,0)" fill="rgb(253,253,253)" d="M 856.246 557.053 C 867.158 556.946 878.07 556.929 888.982 557 L 890.355 558.614 C 880.043 568.136 876.739 576.072 876.128 590.33 C 875.514 604.649 883.889 627.414 900.805 628.509 C 919.84 629.74 940.511 629.077 959.842 629.036 L 1086.96 628.892 C 1095.9 628.865 1105.28 628.964 1113.97 626.789 L 1114.02 627.97 C 1099.21 635.163 953.642 626.698 926.802 629.989 C 921.997 630.579 900.119 628.782 897.118 629.873 C 896.898 632.774 896.825 635.421 896.234 638.263 C 896.134 633.712 896.855 633.501 894.84 630.191 C 886.881 625.408 874.671 629.19 864.776 628.689 C 863.193 628.342 859.651 628.17 857.881 628.026 C 819.59 628.455 819.146 618.693 820.542 584.098 C 820.755 578.828 820.886 573.801 821.449 568.515 C 832.787 554.296 839.559 556.708 856.246 557.053 z"/>
<path transform="translate(0,0)" fill="rgb(223,223,222)" d="M 821.449 568.515 C 832.787 554.296 839.559 556.708 856.246 557.053 C 841.213 580.002 838.546 606.376 857.881 628.026 C 819.59 628.455 819.146 618.693 820.542 584.098 C 820.755 578.828 820.886 573.801 821.449 568.515 z"/>
<path transform="translate(0,0)" fill="rgb(183,182,182)" d="M 908.794 672.703 C 971.044 674.569 1044.18 673.182 1106.85 672.778 L 1106.88 772.163 L 983.215 772.122 C 958.401 772.133 931.52 771.588 906.865 772.17 C 906.25 758.42 903.79 681.839 906.522 673.484 L 908.794 672.703 z"/>
<path transform="translate(0,0)" fill="rgb(223,223,222)" d="M 1165.88 556.856 C 1174.18 556.827 1182.52 556.664 1190.81 556.805 C 1205.22 557.052 1217.92 555.41 1226.64 568.785 C 1227.78 577.488 1227.37 585.46 1228.07 593.708 C 1230.93 627.909 1213.44 629.588 1183.31 628.788 C 1184.05 638.394 1182.69 665.41 1185.11 671.493 C 1179.46 672.306 1175.01 672.045 1169.34 671.937 L 1151.23 672.173 C 1151.25 657.74 1151.03 642.689 1152.03 628.344 C 1154.32 628.369 1156.62 628.333 1158.91 628.236 C 1185.44 626.844 1189.09 582.929 1176.18 566.363 C 1172.85 562.091 1170.12 560.11 1165.88 556.856 z"/>
<path transform="translate(0,0)" fill="rgb(170,170,169)" d="M 1185.11 671.493 L 1187.65 672.366 C 1189.2 677.961 1189.29 765.466 1187.97 770.938 C 1186.25 772.525 1187 772.144 1184.72 772.687 C 1180.79 771.573 1167.87 772.088 1163.05 772.165 C 1163.42 740.797 1163.13 705.497 1164.04 674.558 C 1165.52 672.136 1165.54 672.861 1169.34 671.937 C 1175.01 672.045 1179.46 672.306 1185.11 671.493 z"/>
<path transform="translate(0,0)" fill="rgb(183,182,182)" d="M 1151.23 672.173 L 1169.34 671.937 C 1165.54 672.861 1165.52 672.136 1164.04 674.558 C 1163.13 705.497 1163.42 740.797 1163.05 772.165 L 1151.79 772.144 C 1147.92 772.199 1144.88 772.669 1141.45 771.033 C 1140.15 754.712 1141.21 731.795 1140.92 715.003 C 1140.77 706.022 1140.43 680.837 1141.54 673.262 C 1144.42 671.634 1147.76 672.138 1151.23 672.173 z"/>
<path transform="translate(0,0)" fill="rgb(253,253,253)" d="M 693.417 1162.18 C 710.748 1165.97 730.101 1171.38 747.452 1175.8 C 746.715 1184.72 746.054 1193.64 745.471 1202.56 C 738.019 1328.22 791.339 1457.69 889.527 1537.07 C 895.844 1542.17 907.384 1547.95 912.198 1553.37 L 910.095 1553.67 C 845.165 1540.32 783.886 1489.59 746.349 1435.98 C 691.745 1357.99 676.305 1254.9 693.417 1162.18 z"/>
<path transform="translate(0,0)" fill="url(#Gradient1)" d="M 1070.13 1133.46 C 1081.39 1135.98 1096.74 1144.88 1108.61 1148.46 C 1152.98 1161.81 1222.32 1173.33 1267.26 1160.69 C 1268.88 1168.06 1269.5 1174.03 1270.33 1181.55 C 1199.7 1197.7 1125.69 1189.71 1060.13 1158.86 C 1059.76 1158.72 1059.4 1158.58 1059.04 1158.43 C 1062.49 1157.92 1066.38 1160.5 1069.88 1162.18 L 1071.55 1160.98 C 1074.41 1155.12 1075.79 1145.93 1077.12 1139.33 C 1077.54 1137.27 1073.2 1135.97 1070.13 1133.46 z"/>
<path transform="translate(0,0)" fill="rgb(183,182,182)" d="M 801.581 1067.41 C 824.301 1065.96 850.031 1066.93 872.67 1069.14 C 883.324 1070.18 893.43 1073.51 903.921 1073.29 C 905.788 1073.26 904.618 1072.96 906.727 1074.29 L 906.355 1075.08 C 892.844 1074.56 876.281 1069.97 860.983 1069.56 C 858.65 1075.08 855.158 1084.97 854.68 1090.92 C 861.668 1090.61 885.673 1095.91 893.615 1097.49 L 894.08 1098.52 L 896.332 1098.34 L 896.34 1098.39 C 886.732 1097.91 875.674 1095.23 865.988 1093.85 C 850.271 1091.6 834.301 1089.53 818.429 1089.01 C 773.739 1085.38 707.937 1093.57 664.495 1103.66 C 705.919 1079.55 754.383 1070.7 801.581 1067.41 z"/>
<path transform="translate(0,0)" fill="rgb(183,182,182)" d="M 1315.05 1234.61 L 1316.17 1234.66 C 1317.93 1237.45 1318.19 1245.02 1318.53 1248.62 C 1322.45 1290.84 1314.94 1327.64 1301.68 1367.27 L 1301.03 1366.86 C 1303.12 1362.66 1311.92 1329.39 1312.34 1324.69 C 1309.6 1322.5 1299.82 1320.88 1295.5 1319.69 C 1287.8 1313.42 1288.74 1309.3 1284.66 1306.24 C 1279.95 1310.13 1280.77 1330.43 1278 1336.9 C 1277.12 1338.94 1275.66 1346.33 1275.12 1348.95 C 1275.74 1336.1 1279.46 1326.62 1280.95 1314.03 C 1284.03 1288.14 1283.71 1264.64 1282.81 1238.67 C 1292.52 1237.82 1305.03 1235.78 1315.05 1234.61 z"/>
<path transform="translate(0,0)" fill="rgb(183,182,182)" d="M 1167.54 1302.93 C 1167.87 1306.47 1163.01 1308.58 1162.37 1314.89 C 1165.59 1320.64 1167.98 1317.91 1172.56 1319.3 C 1176.16 1320.39 1178.94 1329.9 1183.43 1332.38 C 1187.04 1329.64 1190.82 1316.27 1192.54 1314.8 C 1193.07 1317.83 1190.25 1322.59 1188.98 1325.51 C 1180.26 1345.48 1167.34 1359.98 1151.66 1374.57 L 1148.81 1376.76 L 1148.56 1376.16 C 1151.31 1373.32 1157.69 1367.31 1159.11 1364.1 C 1156.94 1355.54 1146.82 1342.59 1140.4 1336.39 C 1136.64 1340.4 1132.87 1343.54 1128.08 1346.25 C 1144.25 1329.5 1152.59 1322 1167.54 1302.93 z"/>
<path transform="translate(0,0)" fill="rgb(183,182,182)" d="M 1216.7 1469.09 L 1217.64 1469.7 C 1204.54 1487.22 1189.8 1503.44 1173.62 1518.15 L 1174.14 1518.7 C 1178.58 1519.16 1179.62 1520.01 1183.59 1522.06 L 1184.91 1522.76 C 1198.73 1521.26 1228.41 1485.83 1237.57 1481.09 L 1238.06 1481.45 C 1227.79 1492 1216.89 1502.73 1205.31 1511.81 C 1183.53 1529.75 1154.95 1543.12 1127.51 1549.33 C 1168.04 1524.03 1187.18 1505.44 1216.7 1469.09 z"/>
<path transform="translate(0,0)" fill="rgb(183,182,182)" d="M 834.993 1273.07 C 839.226 1273.11 841.612 1272.83 845.543 1274.19 C 833.959 1274.5 827.389 1273.62 825.013 1286.96 C 824.209 1291.47 825.229 1303.46 828.745 1306.64 C 836.109 1313.28 844.191 1322.53 853.979 1314 L 853.945 1312.48 C 842.051 1308.68 830.364 1309.31 827.299 1292.75 C 828.255 1290.14 827.651 1290.92 829.438 1289.01 C 830.393 1290.54 831.167 1291.92 832.039 1293.5 L 833.131 1292.86 C 833.15 1290.43 833.34 1288.15 833.939 1285.79 C 835.834 1280.41 836.009 1279.53 840.565 1276.27 C 843.498 1276.1 842.181 1275.75 844.648 1277.36 C 839.28 1282.15 833.048 1286.84 834.286 1295.42 C 835.871 1306.41 849.344 1305.67 856.709 1310.79 L 856.823 1312.6 C 854.499 1315.51 851.568 1317.19 848.16 1318.73 C 843.81 1320.7 838.85 1320.84 834.397 1319.12 C 815.165 1311.83 811.83 1283.03 834.993 1273.07 z"/>
<path transform="translate(0,0)" fill="rgb(183,182,182)" d="M 1026.59 1401.17 L 1027.95 1401.49 C 1022.79 1405.12 1017.08 1402.43 1013.34 1408.62 C 1013.65 1412.47 1014.08 1421.27 1015.07 1424.58 L 1033.95 1425.27 C 1021.2 1426.49 1013.08 1426.19 1000.19 1424.7 C 989.666 1423.24 981.931 1421.15 971.985 1417.68 C 987.604 1411.69 1009.99 1406.02 1026.59 1401.17 z"/>
<path transform="translate(0,0)" fill="rgb(183,182,182)" d="M 1381.57 1111.97 L 1382.13 1112.28 L 1382.01 1113.55 C 1371.6 1127.53 1345.51 1148.12 1329.89 1155.9 L 1327.01 1143.62 C 1346.95 1135.14 1365.25 1126.44 1381.57 1111.97 z"/>
<path transform="translate(0,0)" fill="rgb(223,223,222)" d="M 973.177 1192.89 C 978.287 1193.01 981.843 1193.47 985.916 1197.06 C 989.392 1200.16 991.45 1204.54 991.613 1209.2 C 992.007 1221.02 983.929 1225.84 973.229 1225.97 C 971.057 1225 970.347 1224.53 968.296 1223.31 L 968.297 1221.76 C 974.112 1217.51 981.056 1215.44 981.923 1208.33 C 978.422 1199.13 974.513 1201.65 968.463 1196.24 C 969.638 1193.8 969.992 1194.34 973.177 1192.89 z"/>
<path transform="translate(0,0)" fill="rgb(183,182,182)" d="M 1165.65 1412.74 L 1168.05 1412.89 L 1168.41 1414.01 L 1166.94 1413.18 L 1168.21 1414.6 C 1168.26 1416.28 1168.23 1417.62 1167.63 1419.22 C 1162.44 1433.05 1170.56 1434.62 1181.37 1439.93 L 1181.73 1441.43 L 1178.65 1444.63 C 1158.18 1452.18 1144 1425.74 1165.65 1412.74 z"/>
<path transform="translate(0,0)" fill="rgb(183,182,182)" d="M 1039.82 1515.12 C 1040.71 1515.29 1040.2 1515.11 1041.21 1515.93 C 1041.05 1517.69 1040.1 1519.53 1039.07 1520.96 C 1028.42 1535.85 1047.01 1536.58 1050.06 1542.72 C 1048.18 1546.17 1048.21 1545.35 1044.31 1547.73 C 1040.45 1548.05 1037.05 1547.51 1033.67 1545.55 C 1029.68 1543.2 1026.82 1539.33 1025.75 1534.84 C 1023.2 1524.23 1029.77 1517.08 1039.82 1515.12 z"/>
<path transform="translate(0,0)" fill="rgb(183,182,182)" d="M 794.67 1160.68 L 798.031 1161.49 C 798.315 1165.58 791.572 1169.28 791.239 1174.78 C 790.73 1183.21 806.417 1185.72 810.146 1190.96 L 808.2 1193.34 C 799.811 1195.64 791.733 1195.45 786.29 1187.44 C 783.714 1183.59 782.824 1178.85 783.825 1174.32 C 785.363 1167.09 788.861 1164.34 794.67 1160.68 z"/>
<path transform="translate(0,0)" fill="rgb(183,182,182)" d="M 1180.3 1109.96 C 1187.84 1107.59 1192.11 1110.2 1194.04 1118.22 C 1186.07 1132.54 1172.02 1122.4 1180.3 1109.96 z"/>
<path transform="translate(0,0)" fill="rgb(223,223,222)" d="M 1180.3 1109.96 C 1187.84 1107.59 1192.11 1110.2 1194.04 1118.22 C 1184.54 1118.49 1185.17 1117.55 1180.3 1109.96 z"/>
<path transform="translate(0,0)" fill="rgb(253,253,253)" d="M 807.429 1167.76 C 814.143 1167.98 817.263 1173.26 814.944 1179.37 C 811.911 1181.17 813.552 1180.7 809.768 1180.48 C 805.556 1179.52 801.502 1179.29 800.153 1174.83 C 801.407 1171.7 804.621 1169.86 807.429 1167.76 z"/>
<path transform="translate(0,0)" fill="rgb(183,182,182)" d="M 999.084 1307.78 C 1006.2 1318.18 1009.09 1314.38 1016.15 1318.92 L 1014.54 1321.81 C 1002.65 1327.83 994.45 1320.13 999.084 1307.78 z"/>
<path transform="translate(0,0)" fill="rgb(253,253,253)" d="M 1047.49 1523.47 C 1051.67 1523.44 1052.24 1524.55 1053.99 1527.9 C 1053.47 1532.31 1054.32 1530.47 1051.59 1533.71 C 1047.49 1533.1 1045.52 1533.31 1043.33 1529.59 C 1044.32 1525.85 1044.42 1526.68 1047.49 1523.47 z"/>
<path transform="translate(0,0)" fill="rgb(253,253,253)" d="M 1176.34 1424.42 C 1177.8 1423.32 1179.85 1423.46 1181.15 1424.74 C 1182.45 1426.03 1182.62 1428.07 1181.54 1429.55 C 1180.69 1430.72 1179.23 1431.28 1177.81 1430.99 C 1176.39 1430.69 1175.27 1429.59 1174.96 1428.18 C 1174.64 1426.76 1175.18 1425.29 1176.34 1424.42 z"/>
<path transform="translate(0,0)" fill="rgb(253,253,253)" d="M 967.43 1206.45 C 968.892 1205.27 971.007 1205.39 972.335 1206.72 C 973.663 1208.04 973.776 1210.16 972.597 1211.62 C 971.714 1212.72 970.284 1213.21 968.913 1212.89 C 967.542 1212.58 966.471 1211.51 966.156 1210.14 C 965.84 1208.77 966.335 1207.34 967.43 1206.45 z"/>
<path transform="translate(0,0)" fill="rgb(253,253,253)" d="M 1007.78 1304.92 C 1012.22 1306.69 1013.73 1307.3 1015.27 1312.17 C 1012.18 1312.04 1012.34 1312.15 1009.54 1310.89 C 1007.26 1307.53 1008 1309.4 1007.78 1304.92 z"/>
</svg>