<svg version="1.1" xmlns="http://www.w3.org/2000/svg" style="display: block;" viewBox="0 0 2048 2048" width="1024" height="1024" preserveAspectRatio="none">
<path transform="translate(0,0)" fill="rgb(144,144,144)" d="M 605.106 253.202 C 621.324 225.367 752.108 216.256 782.809 213.648 C 865.454 207.178 948.347 204.381 1031.24 205.265 C 1128.87 205.38 1226.82 207.545 1323.83 219.468 C 1360.69 223.998 1399.36 229.074 1433.84 243.741 C 1440.34 246.505 1443.18 253.192 1443.01 259.869 L 1442.85 261.443 C 1441.59 274.763 1442.2 294.855 1442.2 308.986 L 1442.34 389.049 C 1442.39 395.739 1443.44 426.42 1442.44 430.251 C 1436.6 452.666 1375.88 453.947 1362.05 460.744 L 1362.04 494.361 C 1362.03 515.591 1360.48 545.189 1366 565.025 C 1372.13 587.066 1404.05 604.762 1422.29 615.252 C 1444.07 627.781 1466.11 639.943 1487.67 652.877 C 1538.88 683.587 1558.39 706.766 1558.9 766.596 L 1559.01 1415.98 L 1558.95 1605.83 L 1558.95 1660.25 C 1558.98 1674.26 1559.57 1688.57 1557.54 1702.47 C 1554.91 1720.38 1544.13 1736.89 1531.64 1749.59 C 1447.55 1835.05 1158.49 1841.74 1037.64 1841.99 C 913.206 1842.25 603.764 1837.89 515.578 1749.58 C 488.899 1722.86 488.258 1700.84 488.502 1664.98 L 489.068 1005.67 L 489.028 824.054 L 489.035 770.8 C 489.051 760.58 488.405 749.617 489.848 739.492 C 492.997 717.386 504.866 696.949 520.719 681.461 C 558.232 644.813 658.304 609.217 677.917 572.018 C 684.92 558.736 685.082 544.272 685.33 529.615 L 685.375 526.753 C 684.422 507.794 685.232 480.348 685.042 460.537 C 662.641 453.487 626.932 452.553 607.783 435.788 C 604.175 424.978 605.046 278.482 605.106 253.202 z"/>
<path transform="translate(0,0)" fill="rgb(144,144,144)" d="M 605.106 253.202 C 621.324 225.367 752.108 216.256 782.809 213.648 C 865.454 207.178 948.347 204.381 1031.24 205.265 C 1128.87 205.38 1226.82 207.545 1323.83 219.468 C 1360.69 223.998 1399.36 229.074 1433.84 243.741 C 1440.34 246.505 1443.18 253.192 1443.01 259.869 L 1442.85 261.443 C 1441.59 274.763 1442.2 294.855 1442.2 308.986 L 1442.34 389.049 C 1442.39 395.739 1443.44 426.42 1442.44 430.251 C 1436.6 452.666 1375.88 453.947 1362.05 460.744 C 1346.43 463.938 1320.53 466.809 1304.38 468.57 C 1271.07 472.291 1237.67 475.101 1204.22 476.997 C 1062.65 485.008 920.705 483.322 779.371 471.948 C 746.838 469.109 717.002 464.078 685.042 460.537 C 662.641 453.487 626.932 452.553 607.783 435.788 C 604.175 424.978 605.046 278.482 605.106 253.202 z"/>
<path transform="translate(0,0)" fill="rgb(168,167,167)" d="M 605.106 253.202 C 621.324 225.367 752.108 216.256 782.809 213.648 C 865.454 207.178 948.347 204.381 1031.24 205.265 C 1128.87 205.38 1226.82 207.545 1323.83 219.468 C 1360.69 223.998 1399.36 229.074 1433.84 243.741 C 1440.34 246.505 1443.18 253.192 1443.01 259.869 C 1433.88 261.502 1421.57 268.762 1411.85 271.77 C 1387.34 279.361 1361.75 282.842 1336.4 286.241 C 1285.35 293.083 1233.56 296.502 1182.13 298.987 C 1077.1 304.062 695.925 307.323 615.126 263.636 C 609.687 260.695 606.845 259.174 605.106 253.202 z"/>
<path transform="translate(0,0)" fill="rgb(125,125,125)" d="M 982.117 233.562 C 1011.93 231.779 1165.54 232.066 1183.26 249.586 C 1183.38 251.268 1183.8 251.571 1182.56 252.944 C 1171.08 265.571 1083.64 267.661 1064.5 268.299 C 1034.45 269.502 885.502 269.522 867.116 254.836 C 865.292 253.379 865.345 252.825 865.013 250.644 C 865.642 249.426 865.694 249.17 866.705 248.025 C 876.422 237.007 966.121 234.163 982.117 233.562 z"/>
<path transform="translate(0,0)" fill="rgb(125,125,125)" d="M 685.042 460.537 C 717.002 464.078 746.838 469.109 779.371 471.948 C 920.705 483.322 1062.65 485.008 1204.22 476.997 C 1237.67 475.101 1271.07 472.291 1304.38 468.57 C 1320.53 466.809 1346.43 463.938 1362.05 460.744 L 1362.04 494.361 C 1343.61 496.736 1324.86 500.361 1306.34 503.079 C 1281.19 506.56 1255.98 509.513 1230.71 511.937 C 1049.21 529.165 866.258 523.004 686.334 493.605 C 686.36 498.419 687.104 524.102 685.375 526.753 C 684.422 507.794 685.232 480.348 685.042 460.537 z"/>
<path transform="translate(0,0)" fill="rgb(184,184,183)" d="M 555.934 1002.67 C 557.046 1001.3 558.182 999.943 559.433 998.697 C 608.925 949.41 993.217 946.186 1073.83 947.056 C 1140.65 947.777 1443.95 958.019 1480.02 998.144 C 1483.3 1001.79 1483.39 1005.1 1483.28 1009.83 C 1482.24 1062.32 1483.18 1118.03 1483.19 1170.83 L 1483.21 1476.89 L 1483.26 1600.38 C 1483.26 1619.8 1485.15 1641.63 1482.47 1660.81 C 1480.94 1671.82 1473.46 1683 1465.58 1690.49 C 1386.24 1766.02 1075.43 1774.07 967.07 1770.73 C 874.253 1767.87 635.822 1754.85 571.02 1686.76 C 564.327 1679.73 558.613 1670.35 557.323 1660.56 C 554.375 1638.22 556.218 1613.5 556.19 1590.93 L 556.293 1451.99 L 556.089 1205.19 C 556.077 1166.67 554.938 1122.32 556.165 1084.35 C 554.844 1061.16 555.93 1026.72 555.934 1002.67 z"/>
<path transform="translate(0,0)" fill="rgb(168,167,167)" d="M 555.934 1002.67 C 557.046 1001.3 558.182 999.943 559.433 998.697 C 608.925 949.41 993.217 946.186 1073.83 947.056 C 1140.65 947.777 1443.95 958.019 1480.02 998.144 C 1483.3 1001.79 1483.39 1005.1 1483.28 1009.83 C 1452.04 1033.3 1390.63 1039.89 1352.13 1044.69 C 1249.71 1057.48 1145.71 1060.95 1042.59 1061.03 C 976.185 1061.59 909.776 1060.28 843.444 1057.1 C 782.426 1054.48 721.56 1049.08 661.035 1040.9 C 632.037 1036.78 577.396 1028.36 556.48 1007.85 C 556.803 1021.84 557.91 1071.45 556.165 1084.35 C 554.844 1061.16 555.93 1026.72 555.934 1002.67 z"/>
</svg>