<svg version="1.1" xmlns="http://www.w3.org/2000/svg" style="display: block;" viewBox="0 0 2048 2048" width="1024" height="1024" preserveAspectRatio="none">
<path transform="translate(0,0)" fill="rgb(89,89,89)" d="M 983.646 487.421 C 987.587 486.891 1005.59 486.613 1010.47 486.707 C 1061.82 487.828 1116.57 486.033 1165.69 502.808 C 1186.04 508.379 1184.61 526.334 1183.72 545.195 C 1181.99 574.738 1187.35 607.751 1181.06 636.462 C 1179.06 645.617 1150.52 651.024 1142.87 652.435 C 1143.15 676.758 1136.43 707.376 1158.72 722.6 C 1186.6 741.636 1182.89 773.139 1182.75 802.508 L 1182.69 864.5 L 1182.75 1103.52 L 1182.38 1394.67 L 1182.26 1487.74 C 1182.25 1508.08 1186.33 1540.86 1172.89 1556 C 1147.03 1585.14 1095.85 1589.14 1059.85 1592.29 C 1056.62 1592.72 1051.89 1592.94 1048.43 1592.97 C 999.195 1593.34 918.108 1594.56 879.186 1561.34 C 867.845 1551.66 865.712 1540.15 865.561 1526.43 L 864.38 1001.38 C 863.972 944.895 864.057 888.412 864.635 831.934 C 864.751 808.663 864.041 780.355 866.179 757.857 C 868.013 738.559 883.148 727.313 895.791 716.141 C 908.159 705.212 904.759 670.797 904.533 652.681 C 888.442 649.557 865.058 646.793 864.443 626.27 C 863.377 593.059 863.168 552.244 864.278 519.61 C 865.194 492.658 963.465 489.086 983.646 487.421 z"/>
<path transform="translate(0,0)" fill="rgb(241,241,240)" d="M 921.009 655.226 C 976.161 661.77 1031.82 662.987 1087.2 658.859 C 1097.53 658.122 1116.93 656.94 1126.93 654.767 L 1127.18 689.725 C 1129.3 719.42 1133.63 722.182 1155.28 740.685 C 1164.89 748.894 1166.94 764.095 1166.9 776.413 C 1166.74 826.335 1166.75 876.39 1166.76 926.335 L 1166.74 1249.57 L 1166.75 1437.16 L 1166.74 1498.37 C 1166.74 1512.55 1169.76 1540.38 1157.62 1549.47 C 1120.9 1576.98 1060.73 1578.52 1015.69 1578.19 C 975.433 1576.78 921.825 1575.17 889.501 1548.96 C 877.714 1539.4 880.713 1508.75 880.794 1494.54 L 880.785 1440.58 L 880.708 1255.89 L 880.406 950.012 L 880.554 835.528 C 880.565 815.974 880.289 795.678 880.451 776.311 C 880.689 747.764 886.13 746.233 905.983 728.418 C 918.238 717.421 919.776 703.892 920.024 688.463 L 920.133 681.132 C 920.14 672.086 920.473 664.269 921.009 655.226 z"/>
<path transform="translate(0,0)" fill="rgb(129,128,128)" d="M 921.009 655.226 C 976.161 661.77 1031.82 662.987 1087.2 658.859 C 1097.53 658.122 1116.93 656.94 1126.93 654.767 L 1127.18 689.725 C 1116.5 692.033 1105.68 693.637 1094.79 694.524 C 1047.47 701.167 965.794 700.196 920.024 688.463 L 920.133 681.132 C 920.14 672.086 920.473 664.269 921.009 655.226 z"/>
<path transform="translate(0,0)" fill="rgb(145,144,144)" d="M 920.133 681.132 C 920.716 677.131 920.887 675.593 922.14 671.805 C 926.469 670.579 945.664 672.991 950.975 673.506 C 980.206 676.531 1009.6 677.642 1038.98 676.833 C 1052.46 676.451 1076.63 674.136 1088.75 674.739 C 1090.47 681.911 1089.42 686.007 1092.1 692.989 L 1094.79 694.524 C 1047.47 701.167 965.794 700.196 920.024 688.463 L 920.133 681.132 z"/>
<path transform="translate(0,0)" fill="rgb(187,232,201)" d="M 949.913 790.698 C 991.072 786.986 1117.22 780.695 1150.18 804.17 C 1151.79 848.376 1150.63 900.735 1150.7 945.527 L 1150.2 1253.09 L 1150.29 1438.96 L 1150.28 1493.93 C 1150.28 1506.4 1152.68 1531.99 1142.68 1539.86 C 1115.48 1561.25 1059.02 1563.72 1025.57 1563.82 C 999.597 1565.33 926.844 1559.61 907.239 1541.6 C 901.912 1536.7 897.832 1532.04 897.327 1524.59 C 896.088 1506.34 896.488 1487.29 896.563 1469.05 L 896.78 1372.1 L 896.992 987.011 L 897.053 868.701 C 897.053 851.088 898.401 825.726 896.455 808.656 L 897.054 805.494 C 901.418 799.977 908.796 799.006 915.731 797.117 C 920.9 794.987 942.677 792.235 949.913 790.698 z"/>
<path transform="translate(0,0)" fill="rgb(168,222,185)" d="M 949.913 790.698 C 991.072 786.986 1117.22 780.695 1150.18 804.17 C 1151.79 848.376 1150.63 900.735 1150.7 945.527 L 1150.2 1253.09 L 1150.29 1438.96 L 1150.28 1493.93 C 1150.28 1506.4 1152.68 1531.99 1142.68 1539.86 C 1115.48 1561.25 1059.02 1563.72 1025.57 1563.82 C 1020.97 1562.56 1015.23 1563 1009.54 1561.75 L 1011.8 1562.2 L 1012.68 1560.92 C 1046.74 1557.1 1096.05 1536.46 1098.32 1495.92 C 1099.79 1469.56 1098.92 1441.05 1098.92 1414.51 L 1098.88 1247.5 L 1098.88 970.132 C 1098.86 923.692 1100.52 867.958 1098.34 822.688 C 1043.81 828.004 1003.29 826.545 949.601 821.842 C 950.365 812.873 949.945 799.96 949.913 790.698 z"/>
<path transform="translate(0,0)" fill="rgb(217,242,223)" d="M 915.731 797.117 C 920.9 794.987 942.677 792.235 949.913 790.698 C 949.945 799.96 950.365 812.873 949.601 821.842 C 948.645 826.591 948.989 852.889 948.999 859.258 L 949.195 942.954 L 949.069 1312.71 L 948.961 1439.22 C 948.933 1455.17 949.434 1471.06 949.463 1487 C 949.472 1491.85 947.104 1501.7 941.254 1502.68 C 935.23 1503.69 925.598 1504.51 920.108 1501.09 C 916.976 1499.14 917.374 1494.97 917.053 1491.71 C 916.78 1470.4 916.968 1448.86 916.982 1427.54 L 916.996 1302.3 L 916.852 916.362 L 916.769 832.672 C 916.761 824.938 917.604 805.134 916.05 798.375 L 915.731 797.117 z"/>
<path transform="translate(0,0)" fill="rgb(168,222,185)" d="M 915.731 797.117 L 916.05 798.375 L 915.835 817.11 C 909.843 814.688 901.923 811.725 896.455 808.656 L 897.054 805.494 C 901.418 799.977 908.796 799.006 915.731 797.117 z"/>
<path transform="translate(0,0)" fill="rgb(219,219,219)" d="M 1111.18 566.498 C 1130.11 564.546 1152.6 560.76 1170.32 554.343 L 1170.63 597.907 C 1170.72 617.533 1174.47 632.711 1150.29 637.75 C 1133.53 641.244 1117.38 643.318 1100.24 644.174 C 1072.09 648.914 973.64 648.378 945.253 644.255 C 931.145 643.306 917.117 641.408 903.264 638.575 C 896.906 637.369 878.577 632.88 878.041 624.915 C 876.486 601.772 877.171 577.605 877.209 554.308 C 885.245 556.896 891.321 558.609 899.538 560.525 C 912.687 563.439 923.378 565.394 936.939 566.336 C 986.331 572.399 1061.71 571.519 1111.18 566.498 z"/>
<path transform="translate(0,0)" fill="rgb(241,241,240)" d="M 877.209 554.308 C 885.245 556.896 891.321 558.609 899.538 560.525 C 912.687 563.439 923.378 565.394 936.939 566.336 C 941.44 579.481 934.325 625.866 942.949 640.204 C 943.732 641.507 944.485 642.931 945.253 644.255 C 931.145 643.306 917.117 641.408 903.264 638.575 C 896.906 637.369 878.577 632.88 878.041 624.915 C 876.486 601.772 877.171 577.605 877.209 554.308 z"/>
<path transform="translate(0,0)" fill="rgb(219,219,219)" d="M 877.209 554.308 C 885.245 556.896 891.321 558.609 899.538 560.525 C 902.033 584.664 897.238 620.141 903.264 638.575 C 896.906 637.369 878.577 632.88 878.041 624.915 C 876.486 601.772 877.171 577.605 877.209 554.308 z"/>
<path transform="translate(0,0)" fill="rgb(241,241,240)" d="M 1111.18 566.498 C 1130.11 564.546 1152.6 560.76 1170.32 554.343 L 1170.63 597.907 C 1170.72 617.533 1174.47 632.711 1150.29 637.75 C 1133.53 641.244 1117.38 643.318 1100.24 644.174 C 1114.08 632.363 1112.37 622.621 1112.03 605.462 C 1111.77 592.504 1111.3 579.467 1111.18 566.498 z"/>
<path transform="translate(0,0)" fill="rgb(241,241,240)" d="M 877.314 520.977 C 893.413 504.065 977.297 501.364 1001.45 500.773 C 1032.67 500.009 1149.12 500.173 1170.47 520.677 C 1170.67 520.87 1170.84 521.09 1171.03 521.296 C 1170.69 526.66 1170.9 534.614 1170.88 540.177 C 1112.83 564.067 935.343 563.65 877.235 540.042 C 877.458 533.725 877.349 527.305 877.314 520.977 z"/>
<path transform="translate(0,0)" fill="rgb(219,219,219)" d="M 877.314 520.977 C 914.459 538.215 981.263 535.677 1022.44 535.992 C 1029.27 536.044 1040.69 537.269 1046.89 536.75 C 1083.04 533.726 1138.06 536.577 1171.03 521.296 C 1170.69 526.66 1170.9 534.614 1170.88 540.177 C 1112.83 564.067 935.343 563.65 877.235 540.042 C 877.458 533.725 877.349 527.305 877.314 520.977 z"/>
<path transform="translate(0,0)" fill="rgb(89,89,89)" d="M 1002.67 505.422 C 1015.69 503.894 1099.13 504.03 1096.79 519.51 C 1088.54 527.556 1058.65 528.783 1046.24 529.736 C 1029.78 530.297 957.211 531.627 949.488 518.216 L 950.054 516.116 C 960.079 508.253 989.362 506.536 1002.67 505.422 z"/>
<path transform="translate(0,0)" fill="rgb(145,144,144)" d="M 1010.9 510.456 C 1035.8 509.715 1062.53 511.017 1086.64 517.328 C 1067.01 524.306 1049.47 522.447 1038.24 526.319 C 1018.22 527.923 981.37 523.7 962.289 517.374 C 977.952 513.068 994.735 511.811 1010.9 510.456 z"/>
<path transform="translate(0,0)" fill="rgb(217,242,223)" d="M 467.776 486.258 C 505.546 488.618 477.401 519.259 467.195 534.339 C 422.549 601.645 389.382 675.895 369.047 754.061 C 306.777 987.128 349.092 1248.94 493.91 1443.22 C 505.732 1459.08 522.22 1473.38 497.997 1485.59 C 483.1 1487.67 467.695 1460.63 459.859 1449.58 C 261.154 1169.26 257.04 768.057 461.302 489.583 C 462.299 488.223 466.159 486.822 467.776 486.258 z"/>
<path transform="translate(0,0)" fill="rgb(217,242,223)" d="M 1574.63 487.058 C 1578.2 486.998 1582.1 486.756 1585.5 488.045 C 1596.66 492.284 1654.79 604.521 1661.97 619.216 C 1673.85 643.558 1683.34 669.187 1692.1 694.792 C 1733.31 815.3 1744.3 938.681 1730.8 1065.05 C 1724.4 1124.88 1712.98 1183.01 1693.2 1239.99 C 1667.83 1315.07 1631.9 1386.15 1586.47 1451.09 C 1578.78 1462.17 1568.57 1479.76 1557.1 1485.35 C 1550.34 1485.21 1542.49 1482.69 1539.58 1475.99 C 1534.74 1464.86 1551.96 1446.53 1558.32 1437.45 C 1602.62 1374.19 1638.46 1304.67 1663.76 1231.67 C 1730.4 1033.93 1719.18 807.913 1628.65 619.495 C 1610 580.697 1586.36 543.2 1564.21 506.368 C 1557.9 495.857 1564.61 490.011 1574.63 487.058 z"/>
<path transform="translate(0,0)" fill="rgb(187,232,201)" d="M 531.018 557.097 C 532.717 557.009 534.419 556.965 536.121 556.964 C 545.329 557.043 555.762 564.349 551.8 573.301 C 537.753 601.911 518.905 626.876 504.665 655.894 C 463.02 740.754 441.104 825.5 434.061 920.189 C 425.339 1037.45 447.68 1157.32 496.169 1264.62 C 516.181 1308.9 542.237 1351.09 570.82 1390.4 C 577.771 1400.03 573.563 1407.93 564.367 1413.93 C 558.572 1415.83 553.445 1415.76 548.983 1411.4 C 537.276 1399.95 527.535 1382.77 518.723 1368.9 C 433.158 1236.1 392.702 1079.25 403.363 921.629 C 411.182 800.498 446.868 687.329 510.117 583.587 C 516.555 573.028 520.189 563.948 531.018 557.097 z"/>
<path transform="translate(0,0)" fill="rgb(187,232,201)" d="M 1507.11 557.322 C 1510.25 557.299 1514.54 557.181 1517.45 558.441 C 1530.44 564.067 1572.67 647.961 1580.57 664.752 C 1586.97 678.721 1592.9 692.902 1598.35 707.271 C 1667.75 892.181 1660.89 1097.08 1579.26 1276.93 C 1562.58 1312.98 1543.32 1348.53 1521.17 1381.49 C 1513.57 1392.8 1504.87 1410.37 1491.82 1415.16 C 1463.49 1408.88 1476.66 1389.75 1488.13 1374.63 C 1492.57 1368.78 1497.28 1361.71 1501.24 1355.48 C 1518.68 1328.18 1534.46 1299.86 1548.51 1270.68 C 1631.69 1092.28 1637.51 887.454 1564.59 704.623 C 1553.05 675.96 1537.61 647.676 1522.95 620.344 C 1515.18 605.518 1502.95 591.624 1496.92 576.09 C 1492.85 565.619 1497.22 559.99 1507.11 557.322 z"/>
<path transform="translate(0,0)" fill="rgb(187,232,201)" d="M 595.236 623.124 C 601.589 622.726 609.301 622.952 613.271 628.647 C 620.409 639.175 611.953 650.827 605.79 659.382 C 589.262 682.322 577.568 706.726 566.279 732.537 C 536.236 799.732 519.3 872.047 516.383 945.595 C 511.23 1066.35 543.542 1192.93 609.466 1294.57 C 616.68 1305.69 625.338 1316.38 632.13 1327.7 C 637.503 1336.66 632.477 1343.5 624.584 1348.57 C 612.987 1350.49 606.709 1346.86 599.946 1336.91 C 498.049 1186.99 459.665 1002.19 503.516 823.229 C 509.561 799.546 516.766 776.174 525.105 753.199 C 534.385 728.353 576.216 634.628 595.236 623.124 z"/>
<path transform="translate(0,0)" fill="rgb(187,232,201)" d="M 1442.93 623.05 C 1458.41 622.551 1460.2 630.202 1467.94 642.555 C 1490.36 678.237 1508.97 716.169 1523.48 755.73 C 1580.93 914.021 1573.22 1088.64 1502.07 1241.25 C 1486.18 1275.3 1465.91 1310.68 1443.46 1341.06 C 1439.89 1345.88 1437.08 1347.52 1431.53 1349.55 C 1425.16 1348.24 1420.17 1346.25 1416.83 1340.16 C 1410.36 1328.39 1423.57 1317.52 1429.51 1308.18 C 1435.35 1298.99 1442.21 1290.25 1447.67 1280.79 C 1471.29 1239.94 1491.57 1195.13 1505.44 1149.99 C 1548.52 1011.66 1539.98 862.402 1481.4 729.89 C 1468.26 700.386 1452.37 675.023 1435.48 647.773 C 1428.49 636.486 1431.71 628.85 1442.93 623.05 z"/>
<path transform="translate(0,0)" fill="rgb(168,222,185)" d="M 645.512 678.052 C 652.441 677.691 658.443 678.185 662.883 684.644 C 665.276 687.898 665.978 696.207 664.059 699.658 C 656.179 713.832 647.282 727.331 639.571 741.668 C 620.667 777.525 606.595 815.728 597.724 855.281 C 569.856 978.281 583.335 1098.97 641.971 1211.52 C 648.352 1223.8 655.381 1235.74 663.03 1247.28 C 672.618 1261.65 692.963 1281.21 669.606 1292.86 C 654.542 1293.93 654.031 1290.25 646.497 1278.22 C 628.966 1250.24 613.035 1223.15 599.679 1192.89 C 552.957 1085.97 541.753 966.889 567.711 853.13 C 580.164 800.895 596.551 757.605 622.812 710.565 C 628.505 700.367 636.001 683.925 645.512 678.052 z"/>
<path transform="translate(0,0)" fill="rgb(168,222,185)" d="M 1394.38 679.006 C 1411.17 678.434 1416.83 695.752 1423.93 708.27 C 1443.79 743.321 1458.63 779.727 1470.48 818.166 C 1511.58 955.68 1496.85 1103.85 1429.46 1230.58 C 1420.8 1246.8 1410.43 1263.01 1400.78 1278.7 C 1396.61 1285.5 1392.78 1290.68 1384.92 1293.06 C 1374.23 1292.86 1363.38 1284.66 1369.15 1273.73 C 1377.55 1257.8 1388.28 1243.2 1397.18 1227.3 C 1420.41 1186.09 1437.95 1141.92 1449.32 1096 C 1480.25 974.121 1464.48 845.083 1405.1 734.245 C 1395.85 717.173 1367.25 691.88 1394.38 679.006 z"/>
<path transform="translate(0,0)" fill="rgb(168,222,185)" d="M 693.923 733.992 C 718.342 732.365 715.231 751.632 705.681 767.004 C 671.111 822.644 653.709 890.048 649.278 955.018 C 643.903 1033.82 666.541 1113.18 703.128 1182.44 C 708.204 1192.06 715.853 1201.84 721.423 1211.26 C 727.943 1222.28 730.469 1231.03 717.787 1237.83 C 714.015 1238.55 710.354 1239.39 706.636 1237.99 C 691.652 1232.37 663.497 1171.45 656.035 1154.13 C 608.909 1042.79 607.679 917.34 652.613 805.098 C 660.916 784.269 672.42 762.242 683.809 742.765 C 686.484 738.19 689.103 736.061 693.923 733.992 z"/>
<path transform="translate(0,0)" fill="rgb(168,222,185)" d="M 1344.27 733.987 C 1359.68 732.236 1362.28 739.718 1369 751.487 C 1435.69 868.231 1447.06 1017.89 1396.14 1142.6 C 1387.58 1163.58 1357.48 1229.9 1339.59 1239.21 C 1326.07 1239.38 1323.79 1235.21 1320.33 1223.36 C 1323.68 1213.51 1343.44 1185 1349.91 1172.51 C 1371.84 1130.26 1385.94 1086.86 1394.16 1040.21 C 1403.85 982.636 1400.64 923.627 1384.76 867.442 C 1374.55 830.138 1360.29 794.929 1340.03 761.928 C 1332.11 749.037 1330.65 742.41 1344.27 733.987 z"/>
<path transform="translate(0,0)" fill="rgb(168,222,185)" d="M 741.59 786.035 C 769.041 785.695 760.826 807.868 751.622 823.59 C 725.913 867.615 714.15 922.244 713.065 972.891 C 712.072 1038.51 732.572 1102.74 767.198 1158.15 C 775.435 1171.33 777.266 1177.9 762.742 1186.69 C 749.892 1189.41 744.588 1181.31 738.928 1171.05 C 731.48 1157.55 723.695 1142.89 717.255 1128.94 C 676.682 1039.96 673.109 938.506 707.324 846.892 C 712.638 832.786 728.183 792.071 741.59 786.035 z"/>
<path transform="translate(0,0)" fill="rgb(168,222,185)" d="M 1298.94 786.189 C 1317.87 787.012 1320.56 803.636 1327.95 818.702 C 1381.34 927.556 1373.67 1057.71 1313.38 1162.2 C 1307.27 1172.78 1303.17 1183.21 1290.88 1187.29 C 1259.31 1181.11 1281.25 1157.04 1290.98 1140.79 C 1299.59 1126.73 1306.81 1111.87 1312.57 1096.42 C 1344.84 1009.17 1342.65 917.69 1302.79 833.355 C 1295.88 818.732 1271.83 794.526 1298.94 786.189 z"/>
<path transform="translate(0,0)" fill="rgb(168,222,185)" d="M 792.314 836.923 C 802.981 837.047 813.323 846.478 809.032 855.674 C 790.636 895.097 777.238 929.771 776.778 974.867 C 776.393 1003.05 780.809 1031.09 789.835 1057.79 C 795.478 1074.26 801.339 1087.3 810.895 1101.74 C 820.025 1115.53 824.247 1123.93 807.789 1133.46 C 799.268 1134.75 793.299 1131.42 788.987 1124.21 C 781.549 1111.76 774.157 1096.21 768.58 1082.94 C 741.102 1016.37 740.597 941.734 767.172 874.806 C 772.955 860.637 778.113 842.885 792.314 836.923 z"/>
<path transform="translate(0,0)" fill="rgb(168,222,185)" d="M 1247.96 839.101 C 1261.93 837.484 1265.75 842.872 1271.72 854.948 C 1303.33 918.654 1307.92 997.692 1286.29 1065.19 C 1281.07 1081.49 1263.39 1125.43 1248.32 1133.02 C 1242.93 1133.86 1237.17 1133.63 1233.25 1129.44 C 1225.49 1120.99 1232.21 1110.09 1237.07 1102.21 C 1253.34 1075.84 1263.59 1046.36 1268.7 1015.81 C 1275.88 975.323 1272.02 933.648 1257.54 895.163 C 1249.65 874.237 1228.89 854.612 1247.96 839.101 z"/>
<path transform="translate(0,0)" fill="rgb(168,222,185)" d="M 834.45 890.969 C 849.603 889.289 853.373 892.78 857.341 906.427 C 854.581 915.404 849.643 924.824 846.553 934.745 C 836.592 967.804 837.914 1003.24 850.31 1035.46 C 857.055 1053.1 868.925 1063.6 853.776 1078.97 C 845.115 1081.31 838.161 1077.8 833.667 1069.97 C 812.092 1032.36 806.898 984.105 814.538 941.843 C 816.969 928.399 823.026 899.142 834.45 890.969 z"/>
<path transform="translate(0,0)" fill="rgb(168,222,185)" d="M 1201.19 890.986 C 1213.17 890.41 1218.33 896.878 1222.69 907.763 C 1241.77 955.454 1239.73 1008 1220.3 1055.2 C 1216.25 1065.03 1211.59 1075.97 1201.19 1080.24 C 1170 1079.7 1194.55 1041.53 1199.79 1027.78 C 1213.86 990.841 1210.65 950.743 1194.02 915.229 C 1188.39 903.219 1189.87 898.002 1201.19 890.986 z"/>
</svg>