<svg version="1.1" xmlns="http://www.w3.org/2000/svg" style="display: block;" viewBox="0 0 2048 2048" width="1024" height="1024" preserveAspectRatio="none">
<path transform="translate(0,0)" fill="rgb(0,0,0)" d="M 1006.6 292.512 C 1037.42 292.422 1059.03 293.957 1089.83 298.973 C 1106.66 300.324 1126.05 308.277 1142.55 308.234 C 1193.33 308.102 1166.69 371.537 1158.4 399.475 C 1160.47 398.858 1162.55 398.31 1164.65 397.834 C 1173.43 395.92 1184.44 397.762 1191.9 402.83 C 1198.32 407.184 1202.39 413.96 1205.34 420.976 C 1223.78 464.792 1195.32 510.157 1195.4 554.53 C 1195.46 584.265 1207.05 614.51 1211.79 643.801 C 1215.39 666.076 1217.88 698.992 1203.15 718.215 C 1198.9 723.757 1193.01 727.084 1186.08 727.874 C 1180.18 728.546 1175.16 727.922 1170.62 723.891 C 1136.08 693.187 1168.28 561.535 1166.34 517.562 C 1161.56 520.092 1157.66 521.38 1152.62 523.184 C 1152.22 538.384 1152.81 555.168 1152.75 570.556 L 1152.66 690.598 C 1152.75 743.169 1147.98 807.256 1159.71 857.954 C 1170.37 904.021 1218.99 929.187 1255.28 953.908 C 1278.6 968.503 1299.69 984.986 1321.24 1001.99 C 1462.12 1113.09 1505.62 1314.24 1437.12 1480.53 C 1400.33 1568.85 1336.1 1642.99 1253.92 1691.98 C 1241.19 1699.48 1226.26 1707.85 1212.72 1713.49 C 1141.18 1748.33 1055.2 1760.34 976.407 1752.58 C 875.005 1742.33 780.21 1697.53 707.91 1625.69 C 627.162 1546.51 580.839 1438.72 578.966 1325.65 C 577.956 1180.69 636.685 1064.77 754.402 980.175 C 772.792 966.679 792.717 953.47 811.662 940.941 C 843.821 919.662 877.023 898.804 887.232 858.85 C 899.507 810.812 895.241 758.392 895.15 709.141 C 895.122 694.173 895.133 679.318 894.913 664.409 C 888.507 680.908 874.512 701.139 854.328 683.153 C 843.913 672.884 844.002 647.049 846.359 634.149 C 853.77 593.58 865.316 566.277 849.654 525.609 C 841.833 500.91 835.957 475.862 837.904 449.891 C 840.521 414.967 854.414 397.002 890.76 400.285 C 879.15 367.953 855.504 320.796 901.959 306.712 C 936.693 296.182 970.665 293.754 1006.6 292.512 z M 895.913 570.415 C 895.946 562.25 896.67 528.503 895.45 521.831 C 891.67 519.28 888.526 519.909 884.3 518.619 C 885.863 526.178 893.556 566.786 895.913 570.415 z"/>
<path transform="translate(0,0)" fill="rgb(129,33,47)" d="M 885.088 497.45 C 883.956 473.555 892.566 453.27 919.796 461.904 C 930.846 477.738 939.666 495.965 960.429 479.45 C 964.994 475.819 970.374 470.849 975.312 468.132 C 1021.23 466.564 1039.99 503.544 1040.99 544.578 C 1039.85 581.388 1025.72 612.954 1026.33 650.628 C 1026.86 683.308 1054.68 708.578 1077.95 681.073 C 1114.65 637.696 1074.39 565.588 1081.76 519.357 C 1098.84 520.505 1115.94 521.328 1133.05 521.825 L 1132.13 722.183 C 1132.12 733.61 1132.03 745.053 1132.03 756.467 C 1132.05 813.458 1127.91 875.498 1172.5 918.733 C 1190.61 936.293 1210.28 947.939 1231.14 961.707 C 1248.03 972.947 1264.74 984.459 1281.26 996.238 C 1389.26 1073.82 1447.46 1180.59 1448.13 1314.26 C 1449.33 1423.95 1406.71 1529.58 1329.73 1607.72 C 1249.53 1689.31 1139.94 1735.27 1025.54 1735.3 C 911.416 1736.25 801.679 1691.38 720.914 1610.75 C 642.283 1532.61 598.351 1426.16 598.993 1315.31 C 599.137 1215.24 636.996 1117.49 707.599 1046.03 C 754.227 998.843 810.868 968.883 863.184 929.438 C 903.743 898.858 914.879 850.216 915.159 801.331 L 914.872 521.222 L 929.301 521.296 C 928.163 613.294 937.213 705.016 938.009 796.994 C 938.056 802.5 938.442 808.608 938.13 814.058 L 939.932 811.424 C 939.395 787.615 942.117 759.161 942.689 734.923 C 944.335 665.161 951.475 590.194 950.675 520.611 C 968.409 519.331 985.538 518.124 1003.22 516.04 C 983.409 514.112 963.566 512.515 943.701 511.249 C 923.747 509.794 901.225 510.628 885.088 497.45 z"/>
<path transform="translate(0,0)" fill="rgb(94,18,30)" d="M 938.13 814.058 L 939.932 811.424 C 940.05 815.944 940.455 817.652 938.805 821.705 C 937.517 819.188 938.051 817.21 938.13 814.058 z"/>
<path transform="translate(0,0)" fill="rgb(0,0,0)" d="M 724.32 1148.77 C 738.407 1153.53 765.35 1159.46 775.827 1168.2 C 791.788 1181.51 796.537 1204.94 798.29 1224.37 C 817.973 1204.03 848.689 1180.85 870.333 1160.57 C 873.778 1164.31 876.855 1168.36 880.012 1172.33 C 900.793 1198.51 922.798 1223.67 943.878 1249.59 C 922.452 1271.75 903.028 1298.09 882.378 1319.71 C 895.042 1332.43 907.628 1345.22 920.135 1358.09 C 921.225 1369.85 920.462 1390.48 920.346 1402.82 L 920.146 1472.21 C 913.364 1471.28 907.898 1471.51 901.072 1471.6 C 900.87 1435.21 900.866 1398.81 901.059 1362.41 C 878.713 1339.91 855.953 1317.81 832.791 1296.14 C 821.962 1285.95 810.766 1275.81 799.813 1265.72 L 800.066 1488.53 L 776.963 1488.5 C 777.047 1449.21 777.646 1407.31 776.64 1368.15 C 764.171 1381.32 752.55 1393.33 740.979 1407.33 L 740.163 1386.23 L 760.432 1366.1 C 749.187 1353.63 739.08 1340.89 727.361 1328.24 C 738.74 1316 749.467 1303.46 761.123 1291.11 C 753.836 1284.41 746.491 1277.17 739.315 1270.3 L 739.223 1248.36 C 751.989 1261.35 764.637 1274.45 777.167 1287.67 C 777.195 1269.36 777.06 1251.04 776.76 1232.73 C 759.798 1204.42 742.315 1176.43 724.32 1148.77 z"/>
<path transform="translate(0,0)" fill="rgb(129,33,47)" d="M 866.905 1192.75 C 874.296 1198.24 906.531 1240.03 913.96 1249.38 C 901.072 1262.68 882.972 1286.19 870.783 1301.04 L 863.37 1293.97 C 846.466 1279.43 824.874 1258.27 807.95 1245.51 C 827.448 1227.75 847.1 1210.16 866.905 1192.75 z"/>
<path transform="translate(0,0)" fill="rgb(129,33,47)" d="M 775.79 1295.83 C 778.185 1298.86 776.908 1353.66 776.746 1361.41 C 771.995 1356.78 766.812 1350.65 762.325 1345.59 C 757.092 1339.36 752.112 1333.86 746.577 1327.88 C 755.98 1317.35 765.938 1305.79 775.79 1295.83 z"/>
<path transform="translate(0,0)" fill="rgb(0,0,0)" d="M 1124.07 1136.68 C 1157.18 1163.43 1169.89 1158.99 1175.63 1205.06 C 1190.27 1188.99 1204.76 1179.07 1227.27 1177.96 C 1243.57 1177.16 1259.51 1182.94 1271.5 1194.02 C 1293.19 1214.1 1298.5 1246.95 1277.61 1270.74 C 1255.43 1296 1204.57 1284.15 1208.14 1248.71 C 1208.88 1240.98 1212.84 1233.92 1219.06 1229.27 C 1234.84 1217.54 1258.47 1231.63 1246.08 1250.68 L 1245.53 1247.28 C 1248.29 1231.4 1234.49 1224.43 1225.06 1234.37 C 1221.35 1238.34 1219.42 1243.66 1219.72 1249.09 C 1220.93 1273.79 1252.53 1274.81 1264.19 1259.28 C 1269.9 1251.8 1272.27 1242.29 1270.72 1233.01 C 1263.99 1192.66 1211.46 1188.76 1189.94 1223.17 C 1182.75 1234.58 1180.6 1248.45 1184 1261.5 C 1190.19 1284.67 1209.07 1292.11 1227.14 1303.89 L 1307.65 1355.36 C 1296.1 1380.54 1280.13 1411.18 1274.75 1437.78 C 1283.39 1457.23 1296.08 1476.6 1307.28 1494.89 C 1285.79 1476.56 1256.71 1467.31 1254.16 1438.45 C 1252.22 1416.43 1269.13 1384.48 1278.61 1363.55 C 1260.58 1351.9 1242.63 1340.13 1224.76 1328.24 C 1224.19 1381.39 1225.03 1434.89 1224.87 1488.11 C 1218.4 1488.11 1211.68 1488.21 1205.23 1488.11 L 1205.03 1315.5 C 1193.04 1308.58 1187.24 1304.49 1178.72 1293.23 C 1178.5 1358.13 1179.47 1423.34 1178.82 1488.2 C 1162.96 1488.46 1147.09 1488.58 1131.23 1488.57 C 1139.06 1478.06 1148.77 1465.28 1155.27 1453.94 C 1155.89 1402.6 1155.36 1350.67 1155.52 1299.27 C 1155.56 1284.32 1156.64 1229.3 1153.73 1217.21 C 1148.55 1195.71 1131.64 1159.76 1124.07 1136.68 z"/>
<path transform="translate(0,0)" fill="rgb(0,0,0)" d="M 1085.1 1155.03 L 1112.71 1154.95 L 1036.26 1282.22 C 1059.82 1303.06 1084.54 1322.69 1107.87 1343.79 C 1121.37 1356 1128.7 1374.44 1128.76 1392.52 C 1128.8 1411.9 1120.97 1430.45 1107.05 1443.93 C 1082.33 1468.3 1041.96 1471.56 1016.95 1445.89 C 1005.98 1434.77 1000.04 1419.65 1000.51 1404.04 C 1000.89 1391.04 1005.9 1379.5 1015.55 1370.7 C 1024.4 1362.51 1036.23 1358.31 1048.26 1359.09 C 1093.91 1362.15 1084.05 1422.12 1055.22 1415.62 C 1049.97 1414.45 1045.46 1411.12 1042.8 1406.45 C 1037.08 1396.16 1047.54 1385.85 1056.9 1391.54 C 1041.63 1388.9 1042.16 1407 1052.07 1410.24 C 1059.42 1412.65 1068.85 1408.37 1070.8 1399.94 C 1071.98 1394.59 1071.01 1388.98 1068.11 1384.34 C 1063.09 1376.23 1057.2 1374.56 1048.7 1372.72 C 1019.78 1380.67 1010.27 1405.21 1030.71 1430.85 C 1036.3 1437.87 1051.18 1442.42 1060.29 1442.02 C 1088.35 1440.77 1108.33 1416.81 1106.12 1388.86 C 1105.54 1380.42 1102.48 1372.33 1097.33 1365.62 C 1093.31 1360.29 1077.15 1347.05 1071.08 1341.86 L 1024.37 1301.86 C 1007.22 1328.57 980.92 1370.06 968.839 1399.17 C 955.836 1430.5 975.374 1472.46 990.386 1500.9 C 970.295 1483.55 952.629 1464.17 946.417 1437.81 C 936.828 1397.12 954.836 1373 974.64 1340.17 L 1006.62 1287.46 C 988.652 1272.05 969.904 1257.22 952.169 1241.65 C 951.586 1213.46 952.443 1183.87 952.445 1155.47 L 975.598 1155.13 C 975.064 1180.43 974.897 1205.74 975.096 1231.05 C 989.107 1243.33 1004.1 1255.23 1018.38 1267.71 C 1023.98 1256.99 1033.25 1242.33 1039.61 1231.62 L 1085.1 1155.03 z"/>
<path transform="translate(0,0)" fill="rgb(0,0,0)" d="M 1394.92 1193.76 C 1402.24 1203.78 1412.26 1249.18 1414.69 1264.07 C 1430.41 1362.23 1406.82 1462.63 1349.03 1543.52 C 1288.34 1627.67 1201.15 1678.64 1099.24 1695.04 L 1085.62 1696.6 C 1103.88 1689.6 1123.97 1685.91 1145.78 1677.26 C 1223.65 1647.07 1290.43 1593.79 1337.16 1524.57 C 1383.27 1455.86 1407.58 1374.85 1406.93 1292.1 C 1406.38 1258.11 1401.61 1226.92 1394.92 1193.76 z"/>
<path transform="translate(0,0)" fill="rgb(0,0,0)" d="M 652.488 1192.74 C 652.782 1194.6 644.173 1240.96 643.393 1247.4 C 621.109 1431.17 727.318 1609.83 900.186 1676.77 C 918.742 1683.95 937.211 1688.52 956.27 1694.95 L 956.037 1695.55 L 949.061 1694.7 C 919.26 1690.11 890.062 1682.22 862.008 1671.17 C 770.872 1635.25 697.913 1564.34 659.425 1474.26 C 621.768 1385.7 616.116 1282.62 652.488 1192.74 z"/>
<path transform="translate(0,0)" fill="rgb(0,0,0)" d="M 1107.04 626.526 C 1112.77 662.683 1115.47 710.095 1115.21 746.686 C 1115.04 771.85 1111.01 802.47 1109.02 828.161 L 1105.86 827.66 C 1104.19 797.921 1099.77 769.541 1099.41 739.507 C 1098.96 701.953 1103.3 663.93 1107.04 626.526 z"/>
<path transform="translate(0,0)" fill="rgb(0,0,0)" d="M 1134.07 915.558 C 1139.12 918.811 1149.02 931.955 1155.82 936.46 C 1172.06 947.219 1189.75 956.038 1206.25 966.135 C 1225.94 978.178 1248.88 997.125 1265.68 1013.21 C 1259.57 1011.91 1240.41 1001.89 1234.19 998.65 C 1196.53 979.001 1153.44 955.038 1134.07 915.558 z"/>
<path transform="translate(0,0)" fill="rgb(0,0,0)" d="M 910.612 917.949 C 910.616 920.861 906.652 927.421 904.83 929.904 C 876.859 968.007 826.66 993.061 784.746 1012.01 L 784.61 1011.34 C 788.201 1002.62 832.113 971.361 841.165 965.857 C 854.93 957.487 872.796 949.685 886.275 940.358 C 895.346 934.002 903.531 926.466 910.612 917.949 z"/>
<path transform="translate(0,0)" fill="rgb(0,0,0)" d="M 1045.3 1185.92 L 1046.24 1186.2 C 1045.97 1187.39 1016.76 1231.85 1013.69 1236.65 C 1008.49 1227.3 1001.67 1218.82 994.929 1210.55 L 990.648 1205.86 C 989.742 1200.2 989.224 1194.46 988.64 1188.75 C 1001.34 1194.86 1006.24 1202.11 1014.86 1212.66 C 1026.46 1194.36 1024.89 1194.54 1045.3 1185.92 z"/>
<path transform="translate(0,0)" fill="rgb(0,0,0)" d="M 898.598 469.727 C 900.073 471.238 902.131 477.963 902.644 480.023 C 905.891 493.071 913.868 493.146 923.418 498.894 L 922.558 499.939 C 898.759 500.437 888.498 495.304 898.598 469.727 z"/>
<path transform="translate(0,0)" fill="rgb(41,9,12)" d="M 1246.08 1250.68 C 1241.11 1252.57 1239.61 1252.55 1234.61 1251.2 L 1235.21 1250.46 C 1240.36 1250.02 1241.25 1250.1 1245.53 1247.28 L 1246.08 1250.68 z"/>
<path transform="translate(0,0)" fill="rgb(41,9,12)" d="M 1109.02 828.161 C 1108.92 831.955 1109.42 833.551 1107.76 836.603 C 1106.21 833.399 1106.24 831.176 1105.86 827.66 L 1109.02 828.161 z"/>
<path transform="translate(0,0)" fill="rgb(34,33,33)" d="M 991.091 307.5 C 1032.49 305.216 1074.02 307.609 1114.88 314.632 C 1100.54 318.975 1084.16 322.882 1069.31 323.815 C 1098.24 330.673 1117.58 319.09 1145.26 320.105 C 1159.96 327.641 1160.69 337.967 1156.9 353.081 C 1152.69 369.892 1147.46 386.229 1143.48 403.164 C 1122.4 412.874 1109.73 413.926 1087.07 410.617 C 1127.93 431.025 1146.67 405.599 1174.31 410.272 C 1218.05 417.669 1194.39 494.768 1188.96 524.557 C 1186.69 537.388 1185.87 550.434 1186.51 563.448 C 1188.99 605.57 1212.31 649.308 1203.12 691.448 C 1201.51 698.868 1197.47 712.789 1190.42 716.458 C 1187.43 718.01 1184.35 718.241 1181.17 717.173 C 1151.83 707.317 1170.47 585.602 1173.32 559.003 C 1174.94 543.864 1176.59 528.237 1176.11 513.004 C 1175.7 499.82 1173.07 485.419 1166.42 473.869 C 1161.14 464.696 1152.48 457.394 1142.11 454.734 C 1130.41 451.731 1115.87 458.835 1106.18 465.013 C 1096.43 471.225 1087.88 481.368 1082.21 491.351 C 1052.14 544.311 1093.8 594.755 1082.19 648.532 C 1079.77 659.749 1074.01 672.972 1063.84 679.053 C 1060.46 681.076 1056.55 682.09 1052.66 681.043 C 1047.31 679.599 1044.13 674.892 1041.39 670.434 C 1023.2 625.735 1059.38 572.955 1048.38 524.396 C 1043.9 504.634 1038.3 483.962 1020.16 470.567 C 1008.62 462.05 981.514 453.182 968.172 460.78 C 963.375 463.512 954.839 473.381 948.849 473.804 C 938.492 473.293 933.282 459.889 925.162 453.485 C 911.873 443.005 891.817 446.723 882.363 460.971 C 861.986 491.68 878.666 531.834 883.816 564.594 C 889.285 599.387 896.402 642.261 877.168 673.932 C 873.875 679.374 866.298 680.377 862.874 675.399 C 853.854 662.283 857.032 640.745 859.109 626.087 C 861.887 606.475 868.826 587.634 868.241 567.8 C 867.965 548.116 862.357 532.268 857.687 513.355 C 851.872 489.802 843.074 436 864.137 418.105 C 879.304 405.219 911.584 419.2 930.388 419.906 C 954.555 420.614 973.003 406.952 997.72 406.803 C 1015.19 406.698 1027.93 412.039 1044.38 413.54 C 1026.55 406.398 999.769 397.457 980.682 401.351 C 947.832 408.053 940.984 413.441 907.716 404.244 C 902.033 385.17 893.898 364.752 890.546 345.842 C 889.636 340.704 890.383 333.312 894.259 329.549 C 912.585 311.751 966.729 308.813 991.091 307.5 z"/>
<path transform="translate(0,0)" fill="rgb(0,0,0)" d="M 959.921 319.887 C 970.552 318.29 985.131 318.996 996.103 319.476 C 991.685 320.197 986.212 321.25 981.841 321.612 C 966.655 323.777 950.598 325.359 935.888 329.581 C 900.931 339.613 918.77 369.856 919.29 392.683 C 897.323 340.387 894.539 322.025 959.921 319.887 z"/>
<path transform="translate(0,0)" fill="rgb(0,0,0)" d="M 1046.51 622.57 C 1050.97 627.44 1048.2 643.993 1052.35 651.48 C 1055.62 657.362 1063.23 658.963 1064.22 664.131 L 1061.03 666.862 C 1039.05 672.208 1040.58 635.135 1046.51 622.57 z"/>
<path transform="translate(0,0)" fill="rgb(129,33,47)" d="M 1136.16 462.27 C 1139.14 462.594 1144.04 463.206 1146.13 465.208 C 1192.79 510.018 1130.58 509.245 1108.76 511.194 C 1100.45 512.034 1092.12 512.642 1083.78 513.017 C 1087.29 505.029 1090.62 497.601 1095.4 490.258 C 1104.64 475.803 1119.34 465.706 1136.16 462.27 z"/>
<path transform="translate(0,0)" fill="rgb(0,0,0)" d="M 1148.48 474.536 C 1150.75 476.396 1152.93 482.72 1152.66 485.493 C 1151.44 498.427 1138.55 498.55 1130.46 498.798 C 1128.38 498.272 1129.32 498.733 1127.63 497.431 L 1131.47 495.548 C 1142.88 489.995 1143.8 486.052 1148.48 474.536 z"/>
</svg>