<svg version="1.1" xmlns="http://www.w3.org/2000/svg" style="display: block;" viewBox="0 0 2048 2048" width="1024" height="1024" preserveAspectRatio="none">
<path transform="translate(0,0)" fill="rgb(0,0,0)" d="M 996.987 261.459 C 1035.48 262.825 1077.01 260.963 1115.78 262.031 C 1130.61 263.2 1149.82 260.491 1164.2 262.986 C 1195.31 268.383 1183.75 305.229 1180.23 325.298 C 1177.21 342.56 1174.29 359.84 1171.48 377.138 C 1187.19 377.585 1200.65 377.179 1214.61 385.472 C 1223.72 390.677 1234.96 404.941 1235.89 415.753 C 1239.58 458.466 1244.54 503.595 1191.18 513.172 C 1193.88 589.186 1192 676.016 1191.96 752.749 C 1252.9 773.55 1312.01 809.995 1360.09 852.549 C 1466.55 946.621 1531.25 1079.14 1539.95 1220.94 C 1549.08 1364.59 1500.67 1505.97 1405.39 1613.88 C 1315.69 1715.92 1188.87 1777.81 1053.24 1785.74 C 964.105 1791.1 875.155 1772.59 795.553 1732.13 C 671.525 1668.81 577.61 1558.96 534.339 1426.59 C 489.241 1289.93 500.026 1140.98 564.339 1012.24 C 611.528 917.804 685.924 839.662 777.934 787.893 C 801.672 774.481 827.476 761.874 853.389 753.343 C 852.026 727.341 853.019 691.682 853.02 665.225 L 852.735 512.98 C 823.458 507.446 806.241 490.882 805.927 459.11 C 805.685 434.647 802.317 410.044 821.294 391.005 C 837.16 375.087 853.908 376.733 874.37 377.093 C 871.996 367.881 870.881 355.907 869.159 346.315 C 866.216 329.915 863.175 313.211 861.291 296.679 C 859.403 280.123 866.739 264.916 884.401 262.465 C 921.783 260.692 959.474 262.799 996.987 261.459 z"/>
<path transform="translate(0,0)" fill="rgb(216,227,231)" d="M 883.351 504.869 L 900.176 504.831 C 902.118 522.114 905.573 540.308 907.992 557.691 C 911.359 569.625 913.122 572.892 923.199 580.284 C 927.998 582.53 932.724 583.84 937.943 584.661 C 972.064 590.028 1101.13 596.771 1126.87 576.755 C 1139.9 566.62 1143.74 522.002 1145.4 504.962 L 1161.14 504.841 C 1161.19 532.844 1159.25 756.964 1163.08 766.05 C 1164.73 769.983 1167.85 773.839 1171.47 776.112 C 1180.98 782.076 1193.49 785.374 1203.93 789.611 C 1218.19 795.396 1232.12 801.993 1245.63 809.37 C 1292.42 834.603 1334.95 867.029 1371.67 905.461 C 1463.19 1002.63 1512.97 1131.8 1510.32 1265.25 C 1507.71 1399.92 1452 1528.1 1355.33 1621.9 C 1264.05 1710.33 1141.33 1758.82 1014.25 1756.67 C 885.735 1753.56 763.827 1699.06 675.81 1605.36 C 584.102 1507.63 534.466 1377.78 537.601 1243.8 C 541.044 1073.93 629.474 917.109 773.054 826.258 C 787.658 817.016 802.777 808.614 818.337 801.092 C 831.888 794.483 868.671 782.209 877.208 773.728 C 880.163 770.793 882.264 767.89 882.821 763.689 C 884.323 752.377 883.591 740.665 883.452 729.282 C 883.286 713.908 883.203 698.534 883.203 683.16 L 883.351 504.869 z"/>
<path transform="translate(0,0)" fill="rgb(250,251,251)" d="M 907.992 557.691 C 911.359 569.625 913.122 572.892 923.199 580.284 C 922.288 596.044 923.259 613.812 922.969 629.709 C 922.166 673.646 924.643 721.348 922.68 764.909 C 911.021 785.556 866.06 806.064 843.382 812.769 C 858.849 797.344 885.564 785.465 896.446 768.539 C 905.645 754.233 903.95 714.263 904.049 696.955 L 904.034 603.996 C 903.981 594.048 901.913 564.23 907.992 557.691 z"/>
<path transform="translate(0,0)" fill="rgb(0,0,0)" d="M 626.021 1071.87 L 1421.78 1071.74 C 1428.19 1084.53 1433.95 1102.01 1438.38 1115.74 C 1455.49 1168.82 1462.45 1221.77 1459.78 1277.5 C 1454.43 1399.46 1400.32 1514.17 1309.6 1595.87 C 1264.52 1635.29 1220.84 1661.91 1164.41 1682.44 C 1059.94 1719.86 944.878 1714.24 844.557 1666.81 C 737.081 1615.62 654.352 1523.83 614.587 1411.62 C 576.868 1306.4 578.002 1173.61 626.021 1071.87 z"/>
<path transform="translate(0,0)" fill="rgb(51,83,114)" d="M 640.769 1093.12 C 670.937 1094.16 705.638 1093.27 736.113 1093.21 L 905.279 1093.13 L 1407.26 1093.01 C 1414.29 1112.1 1420.52 1129.54 1425.45 1149.28 C 1464.94 1307.26 1416.03 1465.3 1298.37 1576.97 C 1267.19 1604.7 1234.48 1627.75 1196.63 1645.64 C 1100.04 1692.33 988.665 1697.99 887.835 1661.33 C 688.49 1589.49 574.15 1372.25 618.542 1166.57 C 624.135 1140.65 631.766 1118.03 640.769 1093.12 z"/>
<path transform="translate(0,0)" fill="rgb(216,227,231)" d="M 920.798 405.835 L 1099.7 405.833 C 1128.9 405.877 1159.08 405.028 1188.13 407.454 C 1211.17 409.378 1207.28 439.351 1207.18 454.87 C 1207.07 474.33 1201.12 482.6 1181.37 482.879 C 1165.91 483.346 1150.74 483.223 1135.4 483.234 L 1048.34 483.249 L 964.054 483.257 C 953.211 483.258 934.624 483.904 924.485 483.243 L 887.995 483.127 C 866.885 482.785 849.1 489.435 837.102 468.638 C 837.035 466.921 836.978 465.202 836.931 463.484 C 835.68 416.497 830.302 406.567 881.119 406.574 C 893.48 405.84 908.249 405.992 920.798 405.835 z"/>
<path transform="translate(0,0)" fill="rgb(250,251,251)" d="M 881.119 406.574 C 893.48 405.84 908.249 405.992 920.798 405.835 C 910.41 419.656 903.617 429.781 905.867 448.298 C 908.054 466.286 916.145 471.39 924.485 483.243 L 887.995 483.127 C 866.885 482.785 849.1 489.435 837.102 468.638 C 837.035 466.921 836.978 465.202 836.931 463.484 C 835.68 416.497 830.302 406.567 881.119 406.574 z"/>
<path transform="translate(0,0)" fill="rgb(216,227,231)" d="M 837.102 468.638 C 837.035 466.921 836.978 465.202 836.931 463.484 C 835.68 416.497 830.302 406.567 881.119 406.574 C 870.802 421.071 865.201 429.998 868.313 449.348 C 870.83 465.005 880.517 472.085 887.995 483.127 C 866.885 482.785 849.1 489.435 837.102 468.638 z"/>
<path transform="translate(0,0)" fill="rgb(185,144,93)" d="M 987.73 292.493 L 1155.09 292.954 C 1150.61 322.797 1144.55 354.452 1139.34 384.28 C 1113.59 383.706 1086.37 384.09 1060.5 384.04 L 906.649 384.179 C 901.732 353.661 896.44 323.204 890.776 292.815 C 922.948 292.364 955.527 292.554 987.73 292.493 z"/>
<path transform="translate(0,0)" fill="rgb(185,144,93)" d="M 921.508 504.817 L 1123.42 504.887 C 1122.62 514.767 1117.6 551.298 1114.14 559.315 C 1111.6 561.226 1109.22 562.869 1106.09 563.626 C 1084.43 568.854 946.442 571.889 933.589 561.089 C 926.829 555.409 923.25 515.214 921.508 504.817 z"/>
</svg>