<svg version="1.1" xmlns="http://www.w3.org/2000/svg" style="display: block;" viewBox="0 0 2048 2048" width="1024" height="1024" preserveAspectRatio="none">
<path transform="translate(0,0)" fill="rgb(216,231,235)" d="M 878.163 605.094 C 882.193 604.859 886.226 604.677 890.261 604.548 C 914.025 603.788 939.84 604.264 963.842 604.248 L 1097.33 604.19 L 1173.63 604.195 C 1189.79 604.203 1206.56 603.802 1222.62 605.51 C 1227.92 606.074 1232.18 608.435 1235.97 612.109 C 1245.56 621.425 1246.44 636.289 1246.18 649.078 C 1245.88 664.181 1248.77 689.735 1236.91 700.767 C 1225.55 711.331 1206.17 709.883 1191.85 709.781 C 1191.94 731.04 1189.12 766.813 1195.48 786.454 C 1210.44 832.645 1319.02 842.598 1355.78 879.98 C 1369.57 893.896 1378.47 911.922 1381.11 931.336 C 1384.08 952.346 1382.92 996.358 1382.91 1019.32 L 1382.78 1176.35 L 1382.11 1708.08 C 1381.77 1732.81 1371.56 1756.39 1353.76 1773.56 C 1317.3 1809.03 1280.84 1802.92 1234.2 1802.87 L 1131.88 1802.94 C 1009.77 1803.04 887.898 1802.84 765.561 1802.93 C 717.525 1802.96 676.043 1771.15 666.815 1722.89 C 665.101 1713.93 665.612 1701.33 665.468 1692.01 C 665.191 1674.01 665.263 1655.92 665.202 1637.9 L 665.045 1463.16 L 665.031 1114.27 C 665.003 1057.7 664.371 1000.61 664.851 944.501 C 664.776 868.203 741.87 850.979 799.082 827.313 C 850.49 806.047 856.23 798.587 856.48 744.303 L 856.807 708.787 C 808.982 709.925 801.464 704.91 801.512 653.595 C 801.539 625.207 799.136 611.285 832.716 604.668 C 847.602 605.367 863.2 605.122 878.163 605.094 z"/>
<path transform="translate(0,0)" fill="rgb(94,38,123)" d="M 738.833 1067.3 C 754.742 1068.38 774.963 1067.58 790.992 1067.15 C 827.723 1066.94 864.455 1066.94 901.186 1067.15 C 916.749 1067.2 947.466 1066.45 962.151 1067.83 L 1335.03 1067.74 L 1335.04 1684.57 C 1334.89 1705.42 1330.17 1720.23 1315.06 1735.47 C 1308.64 1741.95 1294.51 1749.08 1285.54 1749.68 C 1266.05 1750.98 1244.78 1750.52 1225.21 1750.5 L 1111.93 1750.44 L 844.479 1750.13 C 822.161 1750.06 799.742 1750.49 777.399 1750.53 C 758.387 1750.56 743.208 1746.8 729.627 1732.58 C 720.619 1723.03 714.872 1710.87 713.213 1697.85 C 711.372 1682.88 712.49 1641.88 712.489 1624.54 L 712.582 1477.41 L 712.612 1195.81 C 712.263 1153.07 712.21 1110.32 712.453 1067.57 C 717.199 1066.57 733.508 1067.09 738.833 1067.3 z"/>
<path transform="translate(0,0)" fill="rgb(170,135,191)" d="M 738.833 1067.3 C 754.742 1068.38 774.963 1067.58 790.992 1067.15 C 827.723 1066.94 864.455 1066.94 901.186 1067.15 C 916.749 1067.2 947.466 1066.45 962.151 1067.83 C 943.147 1068.7 920.215 1068.11 900.971 1068.09 L 790.97 1067.94 L 790.992 1503.13 L 790.897 1606.03 C 790.875 1630.95 788.754 1669.78 794.578 1692.88 C 800.964 1718.21 818.853 1729.38 840.197 1740.98 C 812.128 1740.72 780.251 1745.41 758.553 1723.51 C 733.375 1698.1 739.319 1655.04 739.327 1621.42 L 739.397 1502.4 L 739.347 1067.98 C 730.409 1068.07 721.346 1068.34 712.453 1067.57 C 717.199 1066.57 733.508 1067.09 738.833 1067.3 z"/>
<path transform="translate(0,0)" fill="rgb(237,244,245)" d="M 832.716 604.668 C 847.602 605.367 863.2 605.122 878.163 605.094 C 877.59 609.477 875.351 610.801 872.118 614.662 C 871.21 656.593 862.278 693.168 915.024 701.455 C 915.033 729.268 918.394 793.382 910.402 817.316 C 907.389 826.339 901.814 834.284 895.137 840.978 C 886.285 849.853 875.355 856.736 865.151 863.941 C 822.88 893.791 791.514 916.485 791.038 972.442 L 790.992 1067.15 C 774.963 1067.58 754.742 1068.38 738.833 1067.3 C 739.324 1035.47 739.348 1001.63 739.325 969.835 C 737.175 914.435 782.462 883.92 825.056 858.801 C 841.474 849.119 869.125 834.789 873.242 813.507 C 879.853 779.329 876.796 739.573 877.106 704.082 C 824.089 701.63 828.392 674.67 828.11 632.837 C 828.031 621.217 827.68 615.498 832.716 604.668 z"/>
<path transform="translate(0,0)" fill="rgb(94,38,123)" d="M 1007.69 244.349 C 1048.92 242.339 1088.41 249.247 1125.37 268.073 C 1176.48 294.234 1214.95 339.818 1232.15 394.6 C 1251.73 456.1 1244.15 510.365 1214.96 566.769 L 1041.5 566.585 C 974.738 566.57 899.835 568.242 833.748 566.104 C 817.173 536.508 809.849 515.839 806.091 481.31 C 800.46 424.828 817.376 368.409 853.153 324.341 C 893.31 275.002 945.4 250.903 1007.69 244.349 z"/>
</svg>