<svg version="1.1" xmlns="http://www.w3.org/2000/svg" style="display: block;" viewBox="0 0 2048 2048" width="1024" height="1024" preserveAspectRatio="none">
<path transform="translate(0,0)" fill="rgb(191,131,69)" d="M 902.83 486.135 C 882.116 440.308 845.858 359.57 909.88 330.742 C 917.101 327.502 924.813 325.495 932.697 324.802 C 944.844 323.662 959.461 324.108 971.753 324.224 C 1019.26 324.739 1066.85 323.394 1114.33 324.562 C 1137.49 325.132 1160.37 338.866 1169.72 361.142 C 1184.61 396.586 1163.32 438.564 1151.29 472.254 C 1149.75 476.57 1147.35 482.317 1145.38 486.401 C 1160.68 486.391 1200.87 483.1 1212.61 491.017 C 1216.8 493.843 1221.43 506.203 1221.03 512.233 C 1219.88 529.84 1225.88 572.26 1214.54 584.992 C 1206.29 594.251 1184.27 592.935 1172.93 592.908 C 1174.1 618.609 1173.11 654.427 1173.07 680.784 L 1173.13 832.373 C 1173.13 858.658 1173.05 885.256 1173.45 911.514 C 1174.12 954.802 1202.29 958.076 1233.16 976.596 C 1270.97 999.599 1304.66 1028.79 1332.81 1062.95 C 1402.07 1146.17 1435.15 1253.64 1424.69 1361.4 C 1414.65 1466.81 1363.02 1563.88 1281.23 1631.13 C 1198.48 1699.96 1091.6 1732.77 984.487 1722.23 C 877.106 1711.54 778.491 1658.26 710.708 1574.29 C 642.064 1490.38 612.872 1385.7 623.899 1278.19 C 635.977 1164.98 695.252 1062.1 787.146 994.875 C 799.236 985.781 811.948 977.546 825.189 970.23 C 841.411 961.246 870.82 950.225 872.892 930.159 C 875.587 904.064 874.4 874.081 874.373 847.808 L 874.384 678.226 C 874.386 655.87 873.068 613.382 874.664 592.343 C 848.722 591.939 827.44 595.791 826.724 561.65 C 824.969 477.92 826.014 485.457 902.83 486.135 z M 708.56 1178.22 C 662.449 1289.15 666.733 1404.01 732.357 1507.2 C 821.43 1647.26 999.964 1705.19 1154.47 1641.03 C 1177.48 1631.67 1199.42 1619.86 1219.89 1605.79 C 1349.09 1511.29 1397.84 1369.92 1353.88 1215.71 C 1259.71 1259.16 1152.61 1244.83 1057.73 1212.65 C 991.536 1190.2 927.471 1162.87 856.799 1157.8 C 843.213 1156.82 809.943 1155.44 797.358 1157.39 C 768.253 1160.49 735.11 1165.54 708.56 1178.22 z"/>
<path transform="translate(0,0)" fill="rgb(114,65,23)" d="M 902.83 486.135 C 882.116 440.308 845.858 359.57 909.88 330.742 C 917.101 327.502 924.813 325.495 932.697 324.802 C 944.844 323.662 959.461 324.108 971.753 324.224 C 1019.26 324.739 1066.85 323.394 1114.33 324.562 C 1137.49 325.132 1160.37 338.866 1169.72 361.142 C 1184.61 396.586 1163.32 438.564 1151.29 472.254 C 1149.75 476.57 1147.35 482.317 1145.38 486.401 C 1128.04 484.664 1085.08 485.89 1065.07 485.886 L 902.83 486.135 z"/>
</svg>