<svg version="1.1" xmlns="http://www.w3.org/2000/svg" style="display: block;" viewBox="0 0 2048 2048" width="1024" height="1024" preserveAspectRatio="none">
<defs>
	<linearGradient id="Gradient1" gradientUnits="userSpaceOnUse" x1="1206.85" y1="1173.76" x2="1219.73" y2="1275.71">
		<stop class="stop0" offset="0" stop-opacity="1" stop-color="rgb(253,237,61)"/>
		<stop class="stop1" offset="1" stop-opacity="1" stop-color="rgb(255,203,73)"/>
	</linearGradient>
	<linearGradient id="Gradient2" gradientUnits="userSpaceOnUse" x1="1012.39" y1="1719.44" x2="1023.66" y2="1477.03">
		<stop class="stop0" offset="0" stop-opacity="1" stop-color="rgb(165,31,45)"/>
		<stop class="stop1" offset="1" stop-opacity="1" stop-color="rgb(237,66,50)"/>
	</linearGradient>
	<linearGradient id="Gradient3" gradientUnits="userSpaceOnUse" x1="1012.85" y1="1525.47" x2="1031.36" y2="1184.94">
		<stop class="stop0" offset="0" stop-opacity="1" stop-color="rgb(226,60,51)"/>
		<stop class="stop1" offset="1" stop-opacity="1" stop-color="rgb(255,180,49)"/>
	</linearGradient>
</defs>
<path transform="translate(0,0)" fill="rgb(239,239,238)" d="M 868.132 517.945 L 1181.99 517.993 C 1181.29 539.183 1181.81 563.235 1181.83 584.629 L 1181.87 700.074 L 1181.92 817.303 C 1181.93 836.963 1180.47 874.774 1184.02 894.292 C 1186.38 907.223 1212.58 922.289 1224.67 928.89 C 1334.59 988.895 1413.35 1084.89 1450.53 1204.47 C 1486.36 1317.56 1475.11 1440.33 1419.32 1545.03 C 1373.45 1632.56 1300.29 1702.75 1210.93 1744.96 C 1192.11 1753.83 1180.4 1759.31 1160.64 1765.42 C 1105.78 1782.69 1067.83 1784.95 1011.65 1784.08 C 890.818 1782.22 780.987 1732.92 698.498 1644.85 C 641.396 1582.82 602.173 1506.47 585 1423.93 C 549.44 1260.05 617.247 1076.14 751.302 975.026 C 767.977 962.476 785.321 950.84 803.258 940.171 C 818.259 931.241 834.365 923.234 848.27 912.65 C 871.131 895.248 867.773 868.113 867.786 842.633 L 867.769 775.189 C 867.727 690.366 866.583 602.542 868.132 517.945 z"/>
<path transform="translate(0,0)" fill="url(#Gradient3)" d="M 1037.89 1241.54 C 1060.49 1234.21 1082.33 1231.42 1107.25 1221.91 C 1194.87 1188.46 1271.54 1148.36 1368.53 1162.63 C 1374.4 1173.41 1379.17 1187.41 1383.34 1199.09 C 1417.37 1297.95 1416.38 1400.39 1372.18 1497.19 C 1371.61 1498.44 1370.21 1501.13 1369.46 1502.26 C 1332.47 1587.48 1247.58 1661.74 1161.76 1695.6 C 1068.58 1732.1 964.729 1730.13 873.011 1690.11 C 787.783 1652.96 718.667 1586.53 678.169 1502.84 C 675.747 1497.72 673.416 1492.57 671.176 1487.37 C 634.214 1401.18 628.406 1289.63 663.367 1202.13 C 665.894 1200.82 668.44 1199.55 671.004 1198.31 C 698.724 1185.01 730.587 1178.66 761.159 1176.88 C 859.041 1171.19 947.274 1209.99 1037.89 1241.54 z"/>
<path transform="translate(0,0)" fill="url(#Gradient2)" d="M 1321.38 1489.23 C 1331.89 1495.83 1350.13 1507.53 1363.26 1506.53 C 1366.08 1503.99 1366.24 1503.02 1369.46 1502.26 C 1332.47 1587.48 1247.58 1661.74 1161.76 1695.6 C 1068.58 1732.1 964.729 1730.13 873.011 1690.11 C 787.783 1652.96 718.667 1586.53 678.169 1502.84 C 691.329 1485.72 842.893 1496.14 870.479 1501.5 C 877.397 1502.38 884.529 1502.63 891.435 1503.48 C 998.619 1516.61 1103.44 1542.47 1212.34 1527.71 C 1223.32 1526.22 1232.19 1514.56 1240.99 1520.44 C 1241.84 1523.82 1241.42 1523.15 1240.37 1527.03 C 1226.62 1547.25 1214.51 1548.31 1215.47 1575.48 C 1221.02 1581.2 1223.19 1583.87 1230.37 1587.59 C 1255.86 1587.7 1266.17 1569.88 1281.24 1551.86 C 1285 1543.23 1294.84 1531.58 1300.32 1523.08 C 1306 1514.26 1311.4 1504.3 1317.63 1496.07 L 1321.38 1489.23 z"/>
<path transform="translate(0,0)" fill="rgb(246,149,131)" d="M 1317.63 1496.07 C 1312.55 1513.19 1310.48 1534.79 1297.16 1546.67 L 1296.4 1545.88 L 1296.56 1539.67 L 1295.42 1538.47 C 1291.08 1542.11 1284.66 1549.52 1281.24 1551.86 C 1285 1543.23 1294.84 1531.58 1300.32 1523.08 C 1306 1514.26 1311.4 1504.3 1317.63 1496.07 z"/>
<path transform="translate(0,0)" fill="rgb(250,208,194)" d="M 1145.84 1661.4 L 1141.99 1661.66 C 1110.21 1663.81 1108.9 1618.53 1142.2 1617.98 C 1156.07 1618.2 1166.87 1624.88 1165.98 1640.18 C 1165.65 1646.34 1162.81 1652.1 1158.12 1656.11 C 1154.21 1659.48 1150.81 1660.53 1145.84 1661.4 z"/>
<path transform="translate(0,0)" fill="rgb(230,112,121)" d="M 1145.84 1661.4 L 1141.99 1661.66 C 1110.21 1663.81 1108.9 1618.53 1142.2 1617.98 C 1117.02 1624.26 1112.21 1657.23 1145.84 1661.4 z"/>
<path transform="translate(0,0)" fill="url(#Gradient1)" d="M 1037.89 1241.54 C 1060.49 1234.21 1082.33 1231.42 1107.25 1221.91 C 1194.87 1188.46 1271.54 1148.36 1368.53 1162.63 C 1374.4 1173.41 1379.17 1187.41 1383.34 1199.09 C 1379.45 1205.85 1372.16 1218.58 1366.54 1223.92 C 1297.12 1289.88 1184.26 1282.14 1098.13 1259.85 C 1076.51 1254.25 1058.03 1247.31 1037.89 1241.54 z"/>
<path transform="translate(0,0)" fill="rgb(250,208,194)" d="M 1314.44 1367.73 C 1317.2 1356.75 1322.43 1282.94 1342.45 1293.28 C 1376.2 1310.72 1357.08 1392.1 1347.99 1421.77 C 1344.27 1432.21 1328.67 1470.25 1327.47 1477.07 L 1321.38 1489.23 L 1317.63 1496.07 C 1311.4 1504.3 1306 1514.26 1300.32 1523.08 C 1294.84 1531.58 1285 1543.23 1281.24 1551.86 C 1266.17 1569.88 1255.86 1587.7 1230.37 1587.59 C 1223.19 1583.87 1221.02 1581.2 1215.47 1575.48 C 1214.51 1548.31 1226.62 1547.25 1240.37 1527.03 C 1242.8 1524.61 1245.74 1520.82 1248 1518.09 C 1248.54 1517.55 1249.07 1517 1249.59 1516.43 C 1273.39 1490.32 1297.83 1433.37 1306.97 1399.73 C 1309.4 1390.8 1314.92 1376.61 1314.44 1367.73 z"/>
<path transform="translate(0,0)" fill="rgb(246,149,131)" d="M 1248 1518.09 C 1247.69 1491.06 1254.11 1495.45 1268.15 1475.26 C 1276.44 1463.35 1282.77 1444.31 1289.61 1431.08 C 1297.19 1416.42 1295.6 1397.73 1302.9 1383.08 C 1304.47 1379.85 1311.87 1370.91 1314.44 1367.73 C 1314.92 1376.61 1309.4 1390.8 1306.97 1399.73 C 1297.83 1433.37 1273.39 1490.32 1249.59 1516.43 C 1249.07 1517 1248.54 1517.55 1248 1518.09 z"/>
<path transform="translate(0,0)" fill="rgb(246,149,131)" d="M 1347.99 1421.77 C 1347.94 1427.82 1348.79 1447.37 1346.9 1450.91 C 1343.44 1453.03 1342.79 1451.24 1342.29 1451.8 C 1337.36 1457.28 1331.09 1471.64 1327.47 1477.07 C 1328.67 1470.25 1344.27 1432.21 1347.99 1421.77 z"/>
<path transform="translate(0,0)" fill="rgb(254,254,254)" d="M 1130.42 611.725 C 1142.85 622.521 1143.31 762.154 1143.25 786.032 L 1143.2 849.876 C 1143.22 869.532 1142.36 888.972 1146.25 908.183 C 1153.14 942.262 1193.07 959.999 1221.09 977.383 C 1261.94 1002.72 1292.24 1029.61 1319.16 1070.08 C 1323.78 1077.03 1331.95 1088.55 1333.81 1096.5 C 1331.4 1095.88 1331.46 1095.02 1329.51 1092.55 C 1306.54 1059.35 1278.01 1030.36 1245.17 1006.86 C 1231.59 997.042 1216.68 988.576 1201.96 980.241 C 1177.42 966.351 1144.22 954.452 1130.55 927.98 C 1125.92 919.007 1121.1 897.843 1120.47 888.4 C 1116.59 830.526 1114.48 658.737 1130.42 611.725 z"/>
<path transform="translate(0,0)" fill="rgb(239,239,238)" d="M 857.753 404.357 C 862.992 403.525 888.607 403.87 895.354 403.867 L 976.353 403.85 L 1118.88 403.845 C 1142.15 403.845 1166.15 403.567 1189.41 404.103 C 1197.74 405.052 1204.54 405.006 1211.35 410.658 C 1243.72 437.507 1238.13 496.664 1191.86 502.9 L 962.619 502.869 L 893.365 502.691 C 879.774 502.653 852.92 503.95 841.062 498.822 C 814.213 487.209 806.775 444.085 824.476 421.935 C 834.528 409.356 842.665 406.625 857.753 404.357 z"/>
<path transform="translate(0,0)" fill="rgb(239,239,238)" d="M 905.791 262.299 C 944.627 260.425 997.562 261.956 1037.53 261.959 L 1098 261.758 C 1107.95 261.714 1121.75 261.233 1131.45 261.936 C 1137.83 262.348 1144.11 263.788 1150.03 266.2 C 1187.74 281.681 1174.92 315.571 1167.06 344.949 C 1162.7 361.285 1160.35 373.2 1153.32 388.853 L 1143.25 389.069 C 1060.32 389.143 977.853 390.559 894.849 389.162 C 885.094 365.456 864.586 313.555 874.374 289.034 C 880.371 274.012 892.207 268.213 905.791 262.299 z"/>
</svg>