<svg version="1.1" xmlns="http://www.w3.org/2000/svg" style="display: block;" viewBox="0 0 2048 2048" width="1024" height="1024" preserveAspectRatio="none">
<defs>
	<linearGradient id="Gradient1" gradientUnits="userSpaceOnUse" x1="1092.96" y1="1045.57" x2="1091.2" y2="1058.15">
		<stop class="stop0" offset="0" stop-opacity="1" stop-color="rgb(202,118,74)"/>
		<stop class="stop1" offset="1" stop-opacity="1" stop-color="rgb(176,92,54)"/>
	</linearGradient>
	<linearGradient id="Gradient2" gradientUnits="userSpaceOnUse" x1="608.553" y1="988.051" x2="599.496" y2="1007.43">
		<stop class="stop0" offset="0" stop-opacity="1" stop-color="rgb(180,96,66)"/>
		<stop class="stop1" offset="1" stop-opacity="1" stop-color="rgb(211,122,77)"/>
	</linearGradient>
	<linearGradient id="Gradient3" gradientUnits="userSpaceOnUse" x1="726.956" y1="990.836" x2="727.369" y2="1010.93">
		<stop class="stop0" offset="0" stop-opacity="1" stop-color="rgb(188,96,60)"/>
		<stop class="stop1" offset="1" stop-opacity="1" stop-color="rgb(221,131,85)"/>
	</linearGradient>
	<linearGradient id="Gradient4" gradientUnits="userSpaceOnUse" x1="863.767" y1="1054.93" x2="846.624" y2="1010.46">
		<stop class="stop0" offset="0" stop-opacity="1" stop-color="rgb(203,124,78)"/>
		<stop class="stop1" offset="1" stop-opacity="1" stop-color="rgb(235,147,101)"/>
	</linearGradient>
	<linearGradient id="Gradient5" gradientUnits="userSpaceOnUse" x1="793.008" y1="1012.91" x2="811.045" y2="1013.04">
		<stop class="stop0" offset="0" stop-opacity="1" stop-color="rgb(150,83,184)"/>
		<stop class="stop1" offset="1" stop-opacity="1" stop-color="rgb(168,106,206)"/>
	</linearGradient>
	<linearGradient id="Gradient6" gradientUnits="userSpaceOnUse" x1="477.043" y1="1026.95" x2="604.807" y2="1022.9">
		<stop class="stop0" offset="0" stop-opacity="1" stop-color="rgb(213,130,89)"/>
		<stop class="stop1" offset="1" stop-opacity="1" stop-color="rgb(240,165,137)"/>
	</linearGradient>
	<linearGradient id="Gradient7" gradientUnits="userSpaceOnUse" x1="1923.88" y1="1048.57" x2="1924.04" y2="1058.03">
		<stop class="stop0" offset="0" stop-opacity="1" stop-color="rgb(204,116,77)"/>
		<stop class="stop1" offset="1" stop-opacity="1" stop-color="rgb(181,93,60)"/>
	</linearGradient>
	<linearGradient id="Gradient8" gradientUnits="userSpaceOnUse" x1="1334.71" y1="1046.64" x2="1333.12" y2="1058.25">
		<stop class="stop0" offset="0" stop-opacity="1" stop-color="rgb(206,114,72)"/>
		<stop class="stop1" offset="1" stop-opacity="1" stop-color="rgb(180,92,53)"/>
	</linearGradient>
	<linearGradient id="Gradient9" gradientUnits="userSpaceOnUse" x1="372.483" y1="991.764" x2="372.896" y2="1010.07">
		<stop class="stop0" offset="0" stop-opacity="1" stop-color="rgb(193,99,61)"/>
		<stop class="stop1" offset="1" stop-opacity="1" stop-color="rgb(218,126,79)"/>
	</linearGradient>
	<linearGradient id="Gradient10" gradientUnits="userSpaceOnUse" x1="127.838" y1="1042.46" x2="127.463" y2="1058.59">
		<stop class="stop0" offset="0" stop-opacity="1" stop-color="rgb(217,128,87)"/>
		<stop class="stop1" offset="1" stop-opacity="1" stop-color="rgb(182,94,57)"/>
	</linearGradient>
</defs>
<path transform="translate(0,0)" fill="rgb(233,155,120)" d="M 275.315 990.045 C 278.984 987.263 281.812 983.642 285.416 980.704 C 295.475 972.505 309.176 970.774 321.746 971.752 C 335.994 973.038 345.375 977.282 355.383 987.302 L 358.272 990.148 L 389.464 990.25 C 384.167 997.57 382.364 1000.59 379.504 1009.61 C 378.747 1018.93 380.609 1034.18 381.672 1043.93 L 383.155 1050.17 C 385.163 1053.16 387.618 1056.6 389.443 1059.63 C 379.616 1059.92 368.216 1059.52 358.276 1059.41 L 355.885 1062.27 C 346.715 1073.4 332.185 1079.2 317.891 1079.23 C 298.835 1079.27 287.778 1071.58 275.031 1058.66 C 266.341 1059.35 255.019 1059.14 246.12 1059.21 C 240.925 1062.4 238.08 1066.82 233.785 1069.41 C 206.502 1085.88 186.383 1077.09 164.828 1060.01 C 145.79 1060.01 126.456 1060.64 107.441 1060.32 C 96.3487 1060.14 89.8917 1056.96 82.6876 1048.98 C 80.3333 1045.81 79.4124 1043.94 77.5531 1040.41 C 76.7151 1037.78 75.9138 1034.38 75.1947 1031.64 C 74.2743 1023.51 74.6271 1019.58 75.7236 1011.69 C 77.774 1006.99 79.9765 1002.52 83.6391 998.847 C 87.9856 994.496 93.4506 991.432 99.43 989.993 C 108.93 987.738 153.619 989.237 165.782 989.418 C 183.572 969.016 218.069 966.393 238.263 984.412 C 240.247 986.207 242.189 988.049 244.087 989.936 L 275.315 990.045 z"/>
<path transform="translate(0,0)" fill="rgb(190,96,51)" d="M 75.7236 1011.69 C 77.774 1006.99 79.9765 1002.52 83.6391 998.847 C 87.9856 994.496 93.4506 991.432 99.43 989.993 C 108.93 987.738 153.619 989.237 165.782 989.418 C 163.217 993.4 159.181 998.986 157.136 1003.11 C 155.073 1007.27 157.82 1012.18 155.404 1016.43 C 154.267 1014.91 155.12 1012.64 155.481 1010.11 C 155.679 1008.76 155.889 1007.41 156.111 1006.06 L 155.062 1004.74 L 152.296 1004.53 L 151.65 1005.78 C 152.973 1009.69 153.783 1013.79 152.276 1017.78 C 142.604 1011.53 88.9128 1016.99 75.7236 1011.69 z"/>
<path transform="translate(0,0)" fill="rgb(239,165,118)" d="M 75.7236 1011.69 C 88.9128 1016.99 142.604 1011.53 152.276 1017.78 C 152.008 1021.13 152.126 1026.09 150.237 1028.57 C 137.925 1029.95 85.1615 1034.95 75.1947 1031.64 C 74.2743 1023.51 74.6271 1019.58 75.7236 1011.69 z"/>
<path transform="translate(0,0)" fill="rgb(233,163,121)" d="M 78.3368 1019.22 C 83.3851 1021.59 136.334 1019.66 149.372 1021.36 L 150.183 1023 L 148.645 1024.23 C 141.291 1025.81 126.078 1026.42 118.573 1026.29 C 110.277 1026.14 82.3101 1029.72 76.5386 1025.85 C 75.9128 1022.35 76.2991 1023.19 78.3368 1019.22 z"/>
<path transform="translate(0,0)" fill="url(#Gradient10)" d="M 82.6876 1048.98 C 86.3922 1046.96 108.252 1046.19 113.953 1045.83 L 113.573 1045.93 C 125.61 1045.68 137.067 1045.53 148.907 1042.97 C 151.409 1042.43 151.732 1042.26 154.397 1042.46 C 157.722 1049.5 160.476 1053.49 164.828 1060.01 C 145.79 1060.01 126.456 1060.64 107.441 1060.32 C 96.3487 1060.14 89.8917 1056.96 82.6876 1048.98 z"/>
<path transform="translate(0,0)" fill="rgb(230,131,67)" d="M 252.876 1045.23 L 254.042 1036.18 L 255.872 1038.17 C 258.384 1038.68 258.275 1038.76 260.765 1038.32 L 259.942 1036.28 L 263.193 1037.41 L 263.887 1040.17 C 266.549 1041.72 265.296 1041.66 267.784 1041.45 L 267.943 1038.52 C 282.777 1063.53 290.476 1074.59 322.427 1075.66 C 324.017 1076.7 325.643 1078.25 327.706 1077.28 C 335.019 1073.85 343.868 1069.93 349.956 1064.57 C 352.713 1062.14 353.083 1062.44 355.885 1062.27 C 346.715 1073.4 332.185 1079.2 317.891 1079.23 C 298.835 1079.27 287.778 1071.58 275.031 1058.66 C 266.341 1059.35 255.019 1059.14 246.12 1059.21 C 247.119 1055.18 250.868 1051.3 252.876 1045.23 z"/>
<path transform="translate(0,0)" fill="rgb(202,100,61)" d="M 252.876 1045.23 C 258.768 1045.12 260.728 1045.32 266.565 1046.24 C 268.909 1050.08 271.928 1055.66 275.031 1058.66 C 266.341 1059.35 255.019 1059.14 246.12 1059.21 C 247.119 1055.18 250.868 1051.3 252.876 1045.23 z"/>
<path transform="translate(0,0)" fill="rgb(230,131,67)" d="M 77.5531 1040.41 C 89.2461 1038.57 142.462 1035.07 152.765 1038.21 C 154.82 1040.37 154.058 1039.1 154.397 1042.46 C 151.732 1042.26 151.409 1042.43 148.907 1042.97 C 137.067 1045.53 125.61 1045.68 113.573 1045.93 L 113.953 1045.83 C 108.252 1046.19 86.3922 1046.96 82.6876 1048.98 C 80.3333 1045.81 79.4124 1043.94 77.5531 1040.41 z"/>
<path transform="translate(0,0)" fill="url(#Gradient9)" d="M 358.272 990.148 L 389.464 990.25 C 384.167 997.57 382.364 1000.59 379.504 1009.61 C 376.048 1012.92 374.923 1014.01 369.86 1013.87 C 366.451 1005.64 361.341 998.535 358.272 990.148 z"/>
<path transform="translate(0,0)" fill="rgb(190,96,51)" d="M 367.031 1039.2 L 369.462 1037.19 L 370.597 1038.13 C 374.762 1041.51 376.189 1042.85 381.672 1043.93 L 383.155 1050.17 C 385.163 1053.16 387.618 1056.6 389.443 1059.63 C 379.616 1059.92 368.216 1059.52 358.276 1059.41 C 359.553 1055.7 361.922 1051.92 363.883 1048.46 L 367.031 1039.2 z"/>
<path transform="translate(0,0)" fill="rgb(217,124,78)" d="M 367.031 1039.2 L 369.462 1037.19 L 370.597 1038.13 C 374.762 1041.51 376.189 1042.85 381.672 1043.93 L 383.155 1050.17 C 375.902 1048.04 371.391 1048.48 363.883 1048.46 L 367.031 1039.2 z"/>
<path transform="translate(0,0)" fill="rgb(202,100,61)" d="M 244.087 989.936 L 275.315 990.045 C 273.214 996.334 265.141 1009.88 258.474 1011.3 C 257.164 1010.72 255.75 1010.14 254.488 1009.48 C 251.678 1002.84 246.938 997.281 244.087 989.936 z"/>
<path transform="translate(0,0)" fill="rgb(230,131,67)" d="M 369.86 1013.87 C 374.923 1014.01 376.048 1012.92 379.504 1009.61 C 378.747 1018.93 380.609 1034.18 381.672 1043.93 C 376.189 1042.85 374.762 1041.51 370.597 1038.13 L 369.462 1037.19 L 367.031 1039.2 C 367.417 1036.68 367.725 1031.35 369.18 1030.03 C 370.885 1032.41 371.313 1033.28 373.581 1035.15 C 376.536 1032.24 377.37 1021.99 375.375 1018.22 C 374.76 1017.06 373.003 1018.57 369.86 1013.87 z"/>
<path transform="translate(0,0)" fill="rgb(190,96,51)" d="M 305.947 981.762 C 321.658 977.969 338.192 982.944 349.202 994.775 C 360.212 1006.61 363.986 1023.45 359.076 1038.85 C 354.166 1054.25 341.334 1065.8 325.507 1069.08 C 301.588 1074.02 278.122 1058.87 272.783 1035.04 C 267.444 1011.2 282.204 987.492 305.947 981.762 z"/>
<path transform="translate(0,0)" fill="rgb(230,131,67)" d="M 306.053 985.781 C 320.239 981.572 335.591 985.421 346.113 995.825 C 356.635 1006.23 360.658 1021.54 356.61 1035.77 C 352.563 1050 341.087 1060.9 326.665 1064.21 C 305.312 1069.11 283.926 1056.17 278.358 1034.98 C 272.789 1013.79 285.05 992.012 306.053 985.781 z"/>
<path transform="translate(0,0)" fill="rgb(40,5,2)" d="M 312.076 1053.68 C 309.862 1050.74 308.275 1046.97 305.989 1044.4 C 296.296 1033.72 289.255 1028.55 290.161 1012.71 C 291.084 996.582 306.467 990.982 320.692 991.97 C 323.912 992.193 324.349 993.393 326.207 995.706 C 330.407 995.119 335.907 994.676 339.158 997.922 C 339.318 1000 339.254 1000.4 338.905 1002.4 L 338.578 1004.2 C 339.918 1006.39 342.489 1008.66 343.157 1010.51 C 346.743 1020.46 323.487 1054.56 314.78 1056.1 L 312.076 1053.68 z"/>
<path transform="translate(0,0)" fill="rgb(230,131,67)" d="M 309.038 999.787 L 308.986 997.051 C 313.242 993.587 320.436 995.208 326.207 995.706 C 319.706 1001.66 317.686 1004.83 309.038 999.787 z"/>
<path transform="translate(0,0)" fill="rgb(230,131,67)" d="M 311.372 1004.24 C 318.052 1004.14 323.421 1003.2 329.036 1007.84 C 336.894 1014.34 326.547 1032.77 318.522 1032.66 C 317.486 1029.53 318.516 1030.96 320.389 1027.67 C 320.427 1027.6 319.627 1021.77 319.537 1021.11 C 316.238 1021.6 314.327 1021.84 311.738 1023.93 C 312.184 1027.74 314.706 1026.94 316.778 1031.9 L 315.149 1033.12 C 304.333 1032.4 290.961 1008.68 311.372 1004.24 z"/>
<path transform="translate(0,0)" fill="rgb(217,124,78)" d="M 301.256 996.243 C 304.57 997.546 304.538 997.726 307.113 999.985 C 307.252 1006.2 299.05 1002.32 297.24 1017.55 L 296.83 1018.55 L 294.931 1019.09 C 288.483 1011.5 297.599 1002.05 301.256 996.243 z"/>
<path transform="translate(0,0)" fill="rgb(217,124,78)" d="M 328.808 1029.62 C 330.93 1025.32 330.805 1023.9 334.425 1021.38 L 336.515 1022.26 C 337.559 1025.55 337.195 1025.84 336.432 1029.18 L 334.568 1031.29 L 330.297 1031.53 C 329.689 1037.44 326.363 1041.78 320.066 1039.83 L 319.648 1037.96 C 321.541 1034.01 325.078 1032.23 328.808 1029.62 z"/>
<path transform="translate(0,0)" fill="rgb(217,124,78)" d="M 297.285 1019.41 C 303.151 1024.82 304.55 1029.13 300.269 1035.5 C 296.83 1033.34 295.477 1029.3 294.738 1025.39 C 294.141 1022.24 295.371 1021.88 297.285 1019.41 z"/>
<path transform="translate(0,0)" fill="rgb(217,124,78)" d="M 326.286 997.743 C 330.241 997.708 333.701 997.554 336.756 1000.17 C 336.799 1003.41 337.228 1001.85 334.661 1004.74 C 330.526 1005.02 325.256 1005.26 324.246 1000.72 L 326.286 997.743 z"/>
<path transform="translate(0,0)" fill="rgb(217,124,78)" d="M 332.396 1006.14 C 335.528 1006.73 335.893 1006.53 338.31 1008.67 C 340.268 1012.36 339.369 1016.08 339.016 1020.45 C 333.163 1016.83 333.213 1012.34 332.396 1006.14 z"/>
<path transform="translate(0,0)" fill="rgb(40,5,2)" d="M 164.924 1005.96 C 173.008 989.109 190.85 979.191 209.433 981.223 C 228.017 983.256 243.293 996.796 247.542 1015 C 252.341 1035.56 241.879 1056.63 222.601 1065.24 C 203.323 1073.84 180.65 1067.56 168.549 1050.26 C 159.433 1037.23 158.048 1020.3 164.924 1005.96 z"/>
<path transform="translate(0,0)" fill="rgb(177,51,37)" d="M 164.924 1005.96 C 173.008 989.109 190.85 979.191 209.433 981.223 C 228.017 983.256 243.293 996.796 247.542 1015 C 252.341 1035.56 241.879 1056.63 222.601 1065.24 C 203.323 1073.84 180.65 1067.56 168.549 1050.26 L 170.436 1049.79 L 173.977 1052.62 C 174.741 1055.86 178.425 1059.36 182.222 1059.98 C 202.249 1063.27 225.047 1068.53 236.478 1045.59 C 240.45 1037.63 245.923 1025.44 242.641 1015.04 L 243.731 1013.68 C 239.831 1003.12 233.682 1000.31 223.999 996.312 C 224.161 994.368 224.34 993.229 222.407 991.887 C 211.008 983.973 187.023 988.65 177.301 997.724 C 174.764 1000.09 175.622 1001.25 173.96 1003.68 C 170.572 1008.88 171.047 1009.62 170.314 1015.53 C 170.085 1012.55 170.108 1011.69 169.314 1008.76 L 167.14 1007.92 L 164.924 1005.96 z"/>
<path transform="translate(0,0)" fill="rgb(222,51,60)" d="M 196.536 1052.82 C 198.232 1047.41 197.598 1041.28 196.674 1035.78 L 196.39 1034.14 L 197.581 1032.59 C 202.517 1036.52 197.332 1033.44 200.666 1037.85 C 203.719 1036.71 202.816 1036.72 205.888 1036.63 C 208.897 1041.43 204.461 1046.26 208.599 1051.57 C 213.334 1052.17 223.508 1054.52 227.235 1051.44 C 229.065 1042.09 203.538 1027.68 242.641 1015.04 C 245.923 1025.44 240.45 1037.63 236.478 1045.59 C 225.047 1068.53 202.249 1063.27 182.222 1059.98 C 178.425 1059.36 174.741 1055.86 173.977 1052.62 C 180.953 1054.11 189.477 1053.8 196.536 1052.82 z"/>
<path transform="translate(0,0)" fill="rgb(210,52,49)" d="M 173.96 1003.68 C 175.622 1001.25 174.764 1000.09 177.301 997.724 C 187.023 988.65 211.008 983.973 222.407 991.887 C 224.34 993.229 224.161 994.368 223.999 996.312 C 213.136 995.955 212.47 998.272 206.977 1006.86 C 196.836 1007.75 192.278 1007.55 182.986 1011.42 L 181.767 1010.55 C 181.759 1008.14 181.718 1006.59 181.133 1004.25 C 178.402 1002.68 177.753 1003.02 173.96 1003.68 z"/>
<path transform="translate(0,0)" fill="rgb(210,52,49)" d="M 164.924 1005.96 L 167.14 1007.92 L 169.314 1008.76 C 170.108 1011.69 170.085 1012.55 170.314 1015.53 C 172.64 1019.14 173.204 1019.62 176.82 1021.97 C 178.435 1027.66 176.474 1045.03 175.901 1051.85 L 196.536 1052.82 C 189.477 1053.8 180.953 1054.11 173.977 1052.62 L 170.436 1049.79 L 168.549 1050.26 C 159.433 1037.23 158.048 1020.3 164.924 1005.96 z"/>
<path transform="translate(0,0)" fill="rgb(177,51,37)" d="M 164.924 1005.96 L 167.14 1007.92 C 158.352 1036.7 172.038 1041.54 170.436 1049.79 L 168.549 1050.26 C 159.433 1037.23 158.048 1020.3 164.924 1005.96 z"/>
<path transform="translate(0,0)" fill="rgb(222,51,60)" d="M 206.58 1011.55 L 207.4 1012.09 C 202.31 1023.48 207.202 1029.03 204.821 1033.67 C 200.01 1032.77 201.02 1029.52 196.21 1028.14 C 192.959 1030.59 187.818 1038.47 185.771 1042.28 C 184.58 1044.5 185.556 1045.36 186.493 1047.53 L 187.433 1048.64 C 184.222 1049.57 182.135 1048.9 179.976 1046.55 C 178.802 1038.28 179.282 1023.05 182.202 1015.16 C 186.616 1011.6 200.224 1011.85 206.58 1011.55 z"/>
<path transform="translate(0,0)" fill="rgb(222,51,60)" d="M 207.31 1018.18 C 211.205 1011.46 213.448 1005.57 219.425 1000.68 C 223.083 1001.27 220.127 1003.98 224.19 1006.92 C 225.477 1004.95 226.679 1003.11 228.039 1001.18 L 230.019 1001.38 L 230.548 1003.47 C 231.002 1006.48 230.96 1009.38 232.571 1011.57 L 232.231 1007.19 L 234 1006.36 C 236.995 1007.73 236.773 1007.65 238.726 1010.33 L 239.135 1012.69 C 236.133 1016.27 229.268 1017.4 225.026 1016.23 C 222.374 1026.66 217.762 1023.28 217.931 1037.42 L 214.869 1036.77 L 212.641 1034.81 L 209.224 1036.16 C 208.397 1029.9 207.781 1024.47 207.31 1018.18 z"/>
<path transform="translate(0,0)" fill="rgb(210,52,49)" d="M 225.026 1016.23 C 224.214 1008.55 228.107 1015.35 230.548 1003.47 C 231.002 1006.48 230.96 1009.38 232.571 1011.57 L 232.231 1007.19 L 234 1006.36 C 236.995 1007.73 236.773 1007.65 238.726 1010.33 L 239.135 1012.69 C 236.133 1016.27 229.268 1017.4 225.026 1016.23 z"/>
<path transform="translate(0,0)" fill="rgb(210,52,49)" d="M 214.869 1036.77 L 217.931 1037.42 C 220.082 1044.47 224.826 1046.03 224.858 1049.57 C 216.711 1049.04 216.542 1043.56 214.869 1036.77 z"/>
<path transform="translate(0,0)" fill="rgb(222,51,60)" d="M 209.224 1036.16 L 212.641 1034.81 C 212.099 1040.93 215.107 1045.53 214.421 1050.51 C 209.142 1047.94 209.494 1041.51 209.224 1036.16 z"/>
<path transform="translate(0,0)" fill="rgb(210,52,49)" d="M 192.643 1036.73 C 196.022 1040.73 194.875 1047.37 191.421 1051.08 C 188.62 1044.91 188.704 1041.8 192.643 1036.73 z"/>
<path transform="translate(0,0)" fill="rgb(233,155,120)" d="M 1229.09 989.963 C 1230.94 985.31 1236.19 979.598 1240.33 976.903 C 1265.73 960.378 1299.32 964.984 1317.98 989.101 C 1328.14 989.217 1339.22 989.567 1349.29 989.082 C 1370.41 965.429 1401.97 959.577 1429.17 979.024 C 1433.05 981.8 1436.74 988.995 1441 990.32 C 1451.25 989.827 1461.51 989.586 1471.77 989.597 C 1470.12 992.818 1469.99 993.257 1467.63 996.172 C 1466.02 1002.62 1463.93 1007.2 1463.8 1013.98 C 1463.61 1024.13 1464.21 1034.19 1464.15 1044.34 C 1466.39 1049.04 1469.75 1056.11 1472.83 1060.11 C 1462.4 1059.81 1451.13 1060.01 1440.63 1060.01 C 1431.4 1070.28 1429.13 1076.93 1412.62 1081.62 C 1396.51 1086.25 1379.21 1084.14 1364.68 1075.79 C 1359 1072.51 1351.36 1066.13 1349.59 1059.55 C 1340.65 1060.2 1330.26 1059.68 1321.24 1059.33 C 1311.34 1072.6 1299.85 1080.98 1283.05 1083.48 C 1267.25 1085.89 1251.15 1081.86 1238.34 1072.3 C 1236.37 1070.8 1233.19 1067.95 1231.66 1066.16 L 1226.01 1060.5 L 1224.03 1059.74 C 1216.02 1059.51 1208.02 1059.45 1200.01 1059.53 L 1199.53 1058.2 L 1204.07 1051.35 L 1206.53 1044.45 L 1208.4 1034.88 L 1211.19 1032.67 C 1208.04 1028.76 1207.45 1019.04 1210.33 1015.06 L 1210.74 1012.61 C 1209.06 1007.15 1202.07 996.255 1198.96 989.947 C 1209 990.131 1219.05 990.136 1229.09 989.963 z"/>
<path transform="translate(0,0)" fill="rgb(230,131,67)" d="M 1441 990.32 C 1451.25 989.827 1461.51 989.586 1471.77 989.597 C 1470.12 992.818 1469.99 993.257 1467.63 996.172 C 1466.02 1002.62 1463.93 1007.2 1463.8 1013.98 C 1463.61 1024.13 1464.21 1034.19 1464.15 1044.34 C 1466.39 1049.04 1469.75 1056.11 1472.83 1060.11 C 1462.4 1059.81 1451.13 1060.01 1440.63 1060.01 C 1444.05 1054.24 1445.6 1050.28 1447.59 1043.96 C 1447.64 1039.83 1447.26 1034.73 1449.91 1032.07 C 1451.59 1024.34 1448.43 1020.06 1453.96 1014.22 C 1450.26 1012.52 1451.47 1013.86 1450.07 1010.19 C 1447.6 1002.74 1444 997.526 1441 990.32 z"/>
<path transform="translate(0,0)" fill="rgb(217,124,78)" d="M 1447.59 1043.96 C 1450.39 1042.81 1455.08 1042.73 1458.11 1042.59 C 1463.34 1034.69 1458.35 1021.12 1459.34 1013.3 L 1461.17 1012.23 C 1463.83 1017.72 1457.89 1036.9 1464.15 1044.34 C 1466.39 1049.04 1469.75 1056.11 1472.83 1060.11 C 1462.4 1059.81 1451.13 1060.01 1440.63 1060.01 C 1444.05 1054.24 1445.6 1050.28 1447.59 1043.96 z"/>
<path transform="translate(0,0)" fill="rgb(202,100,61)" d="M 1441 990.32 C 1451.25 989.827 1461.51 989.586 1471.77 989.597 C 1470.12 992.818 1469.99 993.257 1467.63 996.172 C 1463.3 1002.06 1458.41 1011.76 1450.07 1010.19 C 1447.6 1002.74 1444 997.526 1441 990.32 z"/>
<path transform="translate(0,0)" fill="rgb(239,165,118)" d="M 1453.96 1014.22 C 1460.86 1016.64 1461.46 1029.87 1455.65 1034.35 C 1451.69 1034.17 1453.62 1034.67 1449.91 1032.07 C 1451.59 1024.34 1448.43 1020.06 1453.96 1014.22 z"/>
<path transform="translate(0,0)" fill="rgb(230,131,67)" d="M 1208.4 1034.88 C 1214.31 1036.43 1214.62 1036.01 1219.85 1032.96 C 1223.45 1041.06 1225.02 1052 1230.2 1060.09 C 1229.3 1058.68 1230.99 1064.84 1231.66 1066.16 L 1226.01 1060.5 L 1224.03 1059.74 C 1216.02 1059.51 1208.02 1059.45 1200.01 1059.53 L 1199.53 1058.2 L 1204.07 1051.35 L 1206.53 1044.45 L 1208.4 1034.88 z"/>
<path transform="translate(0,0)" fill="rgb(190,96,51)" d="M 1204.07 1051.35 C 1209.03 1050.71 1211.67 1050.38 1216.65 1050.46 C 1220.08 1053.85 1222.02 1055.27 1224.03 1059.74 C 1216.02 1059.51 1208.02 1059.45 1200.01 1059.53 L 1199.53 1058.2 L 1204.07 1051.35 z"/>
<path transform="translate(0,0)" fill="rgb(202,100,61)" d="M 1206.53 1044.45 C 1217.23 1041.38 1222.95 1048.32 1225.44 1058.07 C 1225.65 1058.88 1225.84 1059.69 1226.01 1060.5 L 1224.03 1059.74 C 1222.02 1055.27 1220.08 1053.85 1216.65 1050.46 C 1211.67 1050.38 1209.03 1050.71 1204.07 1051.35 L 1206.53 1044.45 z"/>
<path transform="translate(0,0)" fill="rgb(202,100,61)" d="M 1317.98 989.101 C 1328.14 989.217 1339.22 989.567 1349.29 989.082 C 1348.73 991.046 1341.15 1003.78 1339.09 1008.1 C 1336.43 1009.72 1335.89 1010.21 1332.87 1011.17 C 1327.38 1008.97 1322.41 996.186 1317.98 989.101 z"/>
<path transform="translate(0,0)" fill="rgb(202,100,61)" d="M 1198.96 989.947 C 1209 990.131 1219.05 990.136 1229.09 989.963 C 1225.46 995.407 1217.84 1010.74 1214.43 1012.46 L 1210.74 1012.61 C 1209.06 1007.15 1202.07 996.255 1198.96 989.947 z"/>
<path transform="translate(0,0)" fill="url(#Gradient8)" d="M 1321.24 1059.33 C 1323.77 1054.12 1328.2 1046.63 1327.81 1041.54 C 1327.94 1041.1 1328.07 1040.66 1328.2 1040.23 C 1332.02 1040.44 1336.42 1041.12 1339.85 1040.06 L 1340.75 1033.47 C 1340.07 1051.9 1341.82 1047.06 1349.59 1059.55 C 1340.65 1060.2 1330.26 1059.68 1321.24 1059.33 z"/>
<path transform="translate(0,0)" fill="rgb(239,165,118)" d="M 1210.33 1015.06 C 1213.29 1018.11 1215.88 1020.03 1216.81 1024.04 C 1216.24 1028.46 1214.49 1029.45 1211.19 1032.67 C 1208.04 1028.76 1207.45 1019.04 1210.33 1015.06 z"/>
<path transform="translate(0,0)" fill="rgb(54,66,84)" d="M 1438.03 1046.98 C 1428.71 1065.71 1408.35 1076.28 1387.67 1073.12 C 1366.98 1069.97 1350.7 1053.82 1347.39 1033.16 C 1344.07 1012.5 1354.48 992.061 1373.13 982.59 C 1391.79 973.118 1414.43 976.781 1429.15 991.651 C 1443.64 1006.29 1447.21 1028.54 1438.03 1046.98 z"/>
<path transform="translate(0,0)" fill="rgb(65,75,93)" d="M 1429.15 991.651 C 1443.64 1006.29 1447.21 1028.54 1438.03 1046.98 C 1435.58 1042.15 1439.96 1025.97 1438.52 1018.78 C 1436.25 1007.48 1429.72 1003.2 1429.15 991.651 z"/>
<path transform="translate(0,0)" fill="rgb(5,14,34)" d="M 1401.98 999.966 C 1403.19 995.95 1402.52 995.847 1405.15 993.533 C 1408.41 995.27 1408.06 996.079 1410.34 999.819 L 1413.01 995.386 L 1414.34 995.37 C 1414.8 997.793 1414.65 997.781 1416.02 999.783 C 1419.05 999.995 1418.35 999.645 1421.5 997.075 L 1422.74 997.601 C 1418.21 1010.78 1434.66 1013.34 1432.7 1021.93 C 1427.99 1025.64 1420.33 1024.29 1414.49 1023.8 C 1409.82 1028.73 1406.03 1032.36 1405.01 1039.09 C 1406.33 1045.84 1412.27 1046.35 1411.7 1052.37 C 1394.5 1058.69 1396.37 1041.92 1390.9 1037.78 C 1385.7 1037.44 1383.29 1040.21 1381.94 1045.12 C 1383.18 1048.57 1383.36 1047.67 1387.76 1049.97 L 1387.78 1051.77 L 1385.99 1052.82 C 1378.06 1051.47 1370.17 1053.49 1365.05 1051.31 C 1359.52 1045.37 1365.14 1022.32 1370.34 1016.95 C 1376.64 1010.45 1390.63 1010.15 1399.04 1009.58 C 1400.46 1005.75 1401.07 1003.93 1401.98 999.966 z"/>
<path transform="translate(0,0)" fill="rgb(65,75,93)" d="M 1405.94 999.298 C 1408.43 1002.43 1408.6 1003.89 1411.64 1004.62 L 1413.24 1004.04 L 1415.53 1003.38 C 1418.97 1005.91 1419.24 1006.25 1421.95 1009.62 L 1421.84 1010.68 C 1418.9 1010.96 1416.59 1011.24 1413.68 1011.69 L 1413.06 1012.96 L 1414.73 1015.18 L 1417.49 1015.05 C 1418.89 1016.91 1418.55 1016.29 1419.49 1018.5 C 1419.34 1017.08 1419.2 1015.65 1419.08 1014.23 C 1422.9 1013.66 1423.47 1013.97 1427.11 1014.86 L 1429.03 1016.54 C 1426.94 1024.45 1410.63 1023.24 1405.49 1018.52 C 1404 1015.36 1403.97 1015.33 1403.31 1011.92 C 1401.9 1015.14 1401.62 1015.14 1402.16 1018.72 C 1403.86 1021.1 1405.11 1021.46 1407.68 1022.79 C 1409.82 1029.1 1403.93 1031 1402 1038.81 L 1401.62 1040.29 L 1396.99 1040.73 C 1395.22 1036.47 1395.92 1036.26 1392.77 1033.9 C 1389 1033.73 1385.21 1036.34 1381.72 1038.2 L 1377.88 1036.3 C 1374.73 1036.29 1374.85 1036.54 1372.1 1038.24 C 1371.13 1042 1371.28 1040.02 1372.75 1044.43 L 1374.16 1044.79 L 1376.94 1040.99 L 1378.24 1040.87 C 1380.16 1043.62 1379.75 1045.02 1378.66 1047.63 C 1374.25 1050.48 1368.56 1050.56 1364.98 1046.33 C 1363.12 1038.51 1370.99 1033.14 1374.11 1027.91 C 1375.33 1025.87 1372.03 1024.58 1373.6 1018.69 C 1376.26 1015.82 1379.85 1015.27 1383.69 1014.16 C 1387.1 1013.64 1392.03 1012.35 1394.94 1013.68 C 1395.69 1017.28 1394.23 1018.28 1393.07 1022.85 L 1393.64 1023.83 C 1396.53 1017.52 1397.52 1015.57 1401.49 1009.87 C 1404.21 1005.32 1404.52 1004.41 1405.94 999.298 z"/>
<path transform="translate(0,0)" fill="rgb(54,66,84)" d="M 1383.69 1014.16 C 1387.1 1013.64 1392.03 1012.35 1394.94 1013.68 C 1395.69 1017.28 1394.23 1018.28 1393.07 1022.85 C 1386.72 1021.64 1385.24 1020.15 1383.69 1014.16 z"/>
<path transform="translate(0,0)" fill="rgb(54,66,84)" d="M 1396.99 1040.73 L 1401.62 1040.29 C 1403.62 1044.2 1405.92 1046.39 1403.15 1049.91 L 1400.75 1049.23 C 1397.31 1045.57 1398.34 1046.34 1396.99 1040.73 z"/>
<path transform="translate(0,0)" fill="rgb(224,81,69)" d="M 1244.81 1064.12 C 1228.63 1052.24 1221.57 1031.54 1227.14 1012.25 C 1232.7 992.967 1249.7 979.199 1269.72 977.765 C 1289.74 976.331 1308.53 987.537 1316.78 1005.83 C 1325.04 1024.13 1321 1045.63 1306.68 1059.69 C 1289.93 1076.13 1263.73 1078 1244.81 1064.12 z"/>
<path transform="translate(0,0)" fill="rgb(177,51,37)" d="M 1244.81 1064.12 C 1228.63 1052.24 1221.57 1031.54 1227.14 1012.25 C 1232.7 992.967 1249.7 979.199 1269.72 977.765 C 1289.74 976.331 1308.53 987.537 1316.78 1005.83 C 1325.04 1024.13 1321 1045.63 1306.68 1059.69 L 1303.79 1056.15 C 1333.56 1019.54 1306.04 978.725 1262.08 984.491 C 1236.67 987.823 1229.21 1015.62 1232.29 1037.31 C 1233.58 1046.24 1241.6 1056.2 1248.95 1061.39 L 1244.79 1063.5 L 1244.81 1064.12 z"/>
<path transform="translate(0,0)" fill="rgb(177,51,37)" d="M 1303.79 1056.15 L 1306.68 1059.69 C 1289.93 1076.13 1263.73 1078 1244.81 1064.12 L 1244.79 1063.5 L 1248.95 1061.39 C 1270.79 1075.54 1284.58 1070.54 1303.79 1056.15 z"/>
<path transform="translate(0,0)" fill="rgb(40,5,2)" d="M 1265.76 1002.72 C 1272.15 1000.25 1279.05 992.273 1284.28 993.616 C 1287.93 999.332 1283.79 1013.96 1287.49 1024.95 C 1287.49 1026.3 1287.57 1028.35 1287.5 1029.63 C 1289.47 1031.41 1291.32 1032.8 1292.64 1035.09 C 1275.02 1030.56 1275.3 1039.28 1274.4 1054.11 C 1290.69 1053.99 1295.74 1055.11 1293.94 1036.87 L 1293.82 1035.78 C 1292.71 1028.76 1290.44 1017.52 1297.32 1012.86 C 1304.99 1014.79 1303.77 1026.63 1303.02 1032.63 C 1302.56 1036.34 1295.16 1054.21 1293.21 1056 C 1286.03 1057.73 1265.64 1057.97 1258.93 1056.29 C 1265.38 1044.16 1264.74 1049.47 1264.59 1035.04 C 1258.46 1031.69 1253.44 1028.28 1251.17 1021.58 C 1248.88 1014.82 1245.85 1004.62 1248.62 997.902 C 1254.62 992.7 1260.46 998.835 1265.76 1002.72 z"/>
<path transform="translate(0,0)" fill="rgb(224,81,69)" d="M 1267.87 1041.68 C 1264.48 1029 1275.84 1022.16 1287.49 1024.95 C 1287.49 1026.3 1287.57 1028.35 1287.5 1029.63 C 1277.7 1030.75 1276.32 1031.94 1272.83 1041.2 L 1267.87 1041.68 z"/>
<path transform="translate(0,0)" fill="rgb(222,51,60)" d="M 1267.87 1041.68 L 1272.83 1041.2 C 1273.05 1045.59 1273.12 1049.47 1270.53 1052.9 C 1267.05 1054.83 1268.78 1054.58 1265.32 1054.38 L 1264.94 1052.93 C 1267.29 1046.1 1271.05 1047.21 1267.87 1041.68 z"/>
<path transform="translate(0,0)" fill="rgb(224,81,69)" d="M 1266.39 1017.11 L 1264.06 1018.55 C 1262.45 1021.82 1262.41 1022.24 1259.94 1025.05 C 1256.98 1025.91 1258.28 1026.16 1255.86 1024.9 C 1256.24 1021.03 1256.81 1021.83 1259.93 1018.03 C 1259.75 1015.51 1259.84 1015.67 1258.31 1013.67 C 1257.54 1016.86 1257.44 1018.29 1255.53 1021 C 1252.62 1020.92 1254.08 1021.25 1251.28 1018.68 C 1251.5 1015.39 1252.05 1015.98 1255.29 1012.89 L 1254.61 1011.36 C 1252.91 1007.6 1250.39 1001.98 1251.66 997.908 L 1254.15 997.375 C 1257.25 998.62 1258.21 1001.66 1260.71 1004.22 C 1267.68 1003.85 1268.5 1002.93 1274.94 1006.17 L 1275.26 1008.55 C 1273.97 1015.65 1273.82 1014.82 1266.39 1017.11 z"/>
<path transform="translate(0,0)" fill="rgb(222,51,60)" d="M 1275.26 1008.55 C 1278.34 1012.09 1280.42 1012.75 1281.88 1017.47 C 1280.62 1020.53 1268.51 1026.81 1264.12 1029.68 L 1262.52 1029.73 C 1263.65 1025.67 1263.71 1025.83 1266.32 1022.4 L 1266.39 1017.11 C 1273.82 1014.82 1273.97 1015.65 1275.26 1008.55 z"/>
<path transform="translate(0,0)" fill="rgb(222,51,60)" d="M 1296.55 1017.37 L 1298.41 1018.9 C 1301.43 1026.04 1301.2 1035.47 1298.4 1042.63 C 1295.58 1036.23 1294.19 1024.29 1296.55 1017.37 z"/>
<path transform="translate(0,0)" fill="rgb(202,100,61)" d="M 1274.94 1006.17 L 1273.39 1003.43 C 1275.15 999.79 1279.69 995.593 1283.95 995.866 C 1283.27 1000.41 1283.44 1005.4 1280.79 1008.15 C 1278.29 1008.11 1277.22 1007.29 1274.94 1006.17 z"/>
<path transform="translate(0,0)" fill="rgb(233,155,120)" d="M 1699.18 989.71 C 1701.72 987.778 1702.44 986.981 1704.41 984.346 C 1710.4 976.343 1722.62 972.802 1732.15 971.679 C 1744.2 970.365 1758.51 973.397 1768.39 980.848 C 1771.83 983.439 1774.83 988.402 1778.86 990.292 C 1787 990.156 1800.61 989.801 1808.7 990.337 C 1822.03 980.644 1826.77 972.904 1847.39 972.405 C 1865.17 971.976 1876.45 977.803 1889.12 989.509 C 1916.1 988.727 1954.65 982.139 1970 1007.24 C 1971.38 1010.55 1972.42 1013 1973.46 1016.42 C 1974.18 1023.28 1974.27 1025.08 1973.62 1031.98 C 1972.6 1035.2 1971.57 1039.15 1969.83 1041.92 C 1969.32 1042.69 1967.37 1045.83 1966.87 1046.28 C 1961.23 1053.92 1953.29 1059.41 1943.83 1059.82 C 1926.63 1060.56 1906.53 1060.34 1889.32 1059.95 C 1886.59 1061.28 1883.55 1064.34 1881.07 1066.26 C 1863.91 1079.64 1839.88 1082.4 1821.57 1069.78 C 1817.22 1066.78 1815.75 1062.62 1809.9 1059.6 C 1803.77 1060.29 1786.27 1059.71 1779.14 1059.78 C 1769.71 1071.57 1760.85 1076.65 1745.52 1078.56 C 1730.68 1080.41 1711.22 1075.86 1702.24 1063.11 L 1699.61 1059.94 C 1687.53 1059.65 1677.21 1059.55 1665.13 1059.97 C 1671.11 1052.58 1672.71 1049.05 1676.28 1040.59 C 1676.46 1037.47 1676.68 1033.13 1679.11 1030.97 C 1681.09 1032.73 1680.4 1032.34 1682.74 1033.48 C 1685.62 1030.19 1687.02 1020.02 1686.05 1015.79 L 1683 1014.83 C 1683.27 1014.47 1684.05 1013.39 1684.49 1013 C 1689.61 1008.53 1695.48 996.302 1699.18 989.71 z"/>
<path transform="translate(0,0)" fill="rgb(202,100,61)" d="M 1817.72 994.39 L 1820.13 992.539 C 1836.7 979.696 1848.69 977.703 1867.85 985.527 C 1879.84 990.602 1884.41 997.295 1889.77 1008.74 C 1903.12 1037.25 1874.53 1076.2 1843.15 1068.58 C 1837.06 1068.1 1832.11 1065.78 1826.87 1062.86 C 1810.48 1051.76 1804.01 1034.14 1806.88 1014.96 C 1809.18 1005.85 1812.38 1001.9 1817.72 994.39 z"/>
<path transform="translate(0,0)" fill="rgb(40,5,2)" d="M 1839.85 1031.33 C 1836.81 1026.26 1823.47 1002.56 1831.48 997.537 C 1837.62 993.677 1844.46 1001.72 1853.08 998.303 C 1857.22 996.663 1865.93 994.079 1868.38 999.291 C 1868.26 1002.68 1863.49 1019.96 1861.41 1023.42 C 1862.13 1024.21 1862.68 1024.64 1863.13 1025.55 C 1868.12 1024.57 1875.6 1022.54 1877.74 1028.44 C 1874.02 1044.24 1864 1033 1869.33 1055.47 C 1858.17 1057.18 1847.8 1055.06 1836.6 1056.4 C 1833.64 1056.32 1830.31 1056.06 1827.32 1055.89 C 1828.75 1052.36 1830.37 1047.04 1831.64 1043.3 C 1827.23 1038.74 1819.37 1031.8 1823.7 1025.1 C 1830.83 1023.04 1834.43 1027.27 1839.85 1031.33 z"/>
<path transform="translate(0,0)" fill="rgb(202,100,61)" d="M 1861.41 1023.42 C 1862.13 1024.21 1862.68 1024.64 1863.13 1025.55 C 1863.44 1025.03 1863.76 1036.23 1863.63 1037.73 C 1858.32 1035.89 1857.71 1031.49 1857.9 1026.49 L 1861.41 1023.42 z"/>
<path transform="translate(0,0)" fill="rgb(202,100,61)" d="M 1841.79 1001.51 C 1847.07 1001.33 1851.33 1000.66 1856.08 1002.71 C 1867.97 1014.85 1862.4 1025.84 1846.52 1027.51 C 1836.75 1024.89 1836.01 1021.52 1832.96 1012.6 C 1834.35 1007.33 1837.79 1005.02 1841.79 1001.51 z"/>
<path transform="translate(0,0)" fill="rgb(224,81,69)" d="M 1832.96 1012.6 C 1837.78 1012.27 1838.12 1011.48 1841.87 1013.24 C 1842.09 1015.84 1841.71 1016.43 1841.05 1019.01 C 1842.84 1022.33 1841.63 1021.04 1844.85 1023.03 L 1846.52 1027.51 C 1836.75 1024.89 1836.01 1021.52 1832.96 1012.6 z"/>
<path transform="translate(0,0)" fill="rgb(224,81,69)" d="M 1838.5 1028.3 C 1843.78 1029.1 1853.34 1029.34 1856.1 1030.94 C 1859.9 1037.24 1859.79 1042.66 1855.38 1048.13 C 1851.59 1052.17 1851.45 1052.94 1846.35 1053.26 C 1837.17 1049.54 1837.76 1036.54 1838.5 1028.3 z"/>
<path transform="translate(0,0)" fill="rgb(202,100,61)" d="M 1862.12 1042.64 L 1863.2 1043.14 C 1867.15 1048.51 1865.76 1051.58 1860.64 1054.64 C 1858.27 1053.73 1858.07 1053.89 1856.4 1052.06 C 1856.9 1048.14 1859.39 1046.16 1862.12 1042.64 z"/>
<path transform="translate(0,0)" fill="rgb(190,96,51)" d="M 1860.92 996.974 C 1864.1 997.804 1863.93 997.648 1866.25 999.956 C 1866.48 1003.95 1866.44 1002.66 1864.14 1006.72 C 1860.41 1004.52 1857.64 1003.76 1858.01 999.18 L 1860.92 996.974 z"/>
<path transform="translate(0,0)" fill="rgb(177,51,37)" d="M 1817.72 994.39 L 1820.13 992.539 C 1836.7 979.696 1848.69 977.703 1867.85 985.527 C 1865.37 985.257 1860.77 984.623 1858.46 985.219 L 1861.19 985.778 C 1849.21 985.506 1831.39 984.983 1822.55 994.068 C 1804.67 1012.43 1809.08 1036.77 1822.83 1055.44 C 1825.66 1056.82 1824.21 1056.65 1827.32 1055.89 C 1830.31 1056.06 1833.64 1056.32 1836.6 1056.4 C 1833.06 1057.11 1831.87 1057.34 1828.29 1057.47 L 1826.67 1058.96 L 1826.87 1062.86 C 1810.48 1051.76 1804.01 1034.14 1806.88 1014.96 C 1809.18 1005.85 1812.38 1001.9 1817.72 994.39 z"/>
<path transform="translate(0,0)" fill="rgb(210,52,49)" d="M 1836.6 1056.4 C 1847.8 1055.06 1858.17 1057.18 1869.33 1055.47 L 1866.92 1057.41 L 1867.51 1058.83 C 1861.31 1066.18 1848.39 1067.37 1839.47 1065.58 L 1839.28 1066.69 L 1843.02 1066.48 C 1843.28 1068.19 1843.33 1067.49 1843.15 1068.58 C 1837.06 1068.1 1832.11 1065.78 1826.87 1062.86 L 1826.67 1058.96 L 1828.29 1057.47 C 1831.87 1057.34 1833.06 1057.11 1836.6 1056.4 z"/>
<path transform="translate(0,0)" fill="rgb(190,96,51)" d="M 1889.12 989.509 C 1916.1 988.727 1954.65 982.139 1970 1007.24 C 1962.24 1002.57 1915.23 1011.98 1900.52 1009.14 C 1897.77 1007.41 1889.97 992.977 1889.12 989.509 z"/>
<path transform="translate(0,0)" fill="rgb(233,163,121)" d="M 1973.46 1016.42 C 1974.18 1023.28 1974.27 1025.08 1973.62 1031.98 C 1969.7 1030.64 1910.37 1032.66 1901.52 1032.41 L 1899.78 1017.39 C 1918.19 1015.91 1954.37 1016.26 1973.46 1016.42 z"/>
<path transform="translate(0,0)" fill="url(#Gradient7)" d="M 1897.38 1046.04 C 1907.05 1046.05 1911.13 1048.11 1921.4 1046.98 C 1927.41 1046.32 1934.2 1045.82 1939.96 1047.87 C 1946.58 1048.52 1954.88 1049.58 1961.31 1047.48 C 1963.92 1046.63 1963.97 1046.54 1966.87 1046.28 C 1961.23 1053.92 1953.29 1059.41 1943.83 1059.82 C 1926.63 1060.56 1906.53 1060.34 1889.32 1059.95 C 1892.37 1055.08 1894.66 1051.06 1897.38 1046.04 z"/>
<path transform="translate(0,0)" fill="rgb(202,100,61)" d="M 1783.44 1052.29 C 1786.98 1039.98 1786.75 1044.48 1793.28 1035.59 C 1791.17 1034.45 1791.82 1035.03 1790.34 1033.1 L 1791.94 1029.93 L 1792.77 1029.99 L 1795.04 1035.62 C 1795.28 1036.29 1803.74 1048.2 1806.32 1053.37 C 1807.48 1055.47 1808.67 1057.55 1809.9 1059.6 C 1803.77 1060.29 1786.27 1059.71 1779.14 1059.78 L 1778.76 1058.34 C 1779.95 1057.05 1782.27 1053.82 1783.44 1052.29 z"/>
<path transform="translate(0,0)" fill="rgb(190,96,51)" d="M 1783.44 1052.29 L 1783.24 1056.47 C 1795.5 1055.54 1795.22 1052.59 1804.97 1057.88 L 1806.16 1057.3 C 1804.4 1054.57 1804.38 1054.72 1801.78 1052.7 L 1806.32 1053.37 C 1807.48 1055.47 1808.67 1057.55 1809.9 1059.6 C 1803.77 1060.29 1786.27 1059.71 1779.14 1059.78 L 1778.76 1058.34 C 1779.95 1057.05 1782.27 1053.82 1783.44 1052.29 z"/>
<path transform="translate(0,0)" fill="rgb(190,96,51)" d="M 1778.86 990.292 C 1787 990.156 1800.61 989.801 1808.7 990.337 C 1808.3 992.593 1808.6 992.616 1807.49 994.392 L 1806.69 995.562 C 1801.94 1002.57 1801.43 1008.78 1795.24 1010.35 C 1791.51 1009.77 1789.91 1009.38 1786.29 1008.32 C 1786.42 1001.23 1780.44 997.524 1778.86 990.292 z"/>
<path transform="translate(0,0)" fill="rgb(202,100,61)" d="M 1676.28 1040.59 C 1679.95 1042.46 1681.35 1042.64 1685.47 1043.27 C 1680.51 1045.63 1679.32 1041.89 1676.28 1044.78 C 1679.28 1046.37 1687.22 1049.22 1690.63 1049.19 L 1687.49 1044.54 L 1687.83 1043.03 C 1690.97 1044.05 1697.04 1055.86 1699.61 1059.94 C 1687.53 1059.65 1677.21 1059.55 1665.13 1059.97 C 1671.11 1052.58 1672.71 1049.05 1676.28 1040.59 z"/>
<path transform="translate(0,0)" fill="rgb(233,163,121)" d="M 1807.49 994.392 C 1808.91 999.008 1808.8 999.992 1806.14 1005.03 L 1805.23 1006.72 L 1805.59 1007.38 C 1809.94 1002.74 1814.13 994.595 1817.72 994.39 C 1812.38 1001.9 1809.18 1005.85 1806.88 1014.96 L 1804.42 1014.71 C 1798.79 1019.39 1801.09 1027.78 1799.46 1034.6 C 1798.6 1031.86 1798.93 1023.2 1798.35 1018.77 L 1796.06 1020.9 C 1793.33 1020.99 1791.51 1019.61 1789.04 1018.28 C 1786.73 1015.59 1786.75 1011.97 1786.29 1008.32 C 1789.91 1009.38 1791.51 1009.77 1795.24 1010.35 C 1801.43 1008.78 1801.94 1002.57 1806.69 995.562 L 1807.49 994.392 z"/>
<path transform="translate(0,0)" fill="rgb(217,124,78)" d="M 1702.24 1063.11 C 1712.9 1066.28 1720.06 1074.17 1734.45 1075.5 C 1754.81 1077.39 1763.87 1069.13 1778.76 1058.34 L 1779.14 1059.78 C 1769.71 1071.57 1760.85 1076.65 1745.52 1078.56 C 1730.68 1080.41 1711.22 1075.86 1702.24 1063.11 z"/>
<path transform="translate(0,0)" fill="rgb(217,124,78)" d="M 1939.96 1047.87 C 1936.28 1044.38 1927.93 1045.07 1920.41 1043.22 C 1921.62 1042.4 1964.02 1042.17 1969.83 1041.92 C 1969.32 1042.69 1967.37 1045.83 1966.87 1046.28 C 1963.97 1046.54 1963.92 1046.63 1961.31 1047.48 C 1954.88 1049.58 1946.58 1048.52 1939.96 1047.87 z"/>
<path transform="translate(0,0)" fill="rgb(217,124,78)" d="M 1897.38 1046.04 C 1898.28 1043.91 1898.01 1042.75 1900 1042.2 C 1907.24 1040.18 1916.49 1041.18 1921.4 1046.98 C 1911.13 1048.11 1907.05 1046.05 1897.38 1046.04 z"/>
<path transform="translate(0,0)" fill="rgb(36,115,169)" d="M 1733.28 980.714 C 1757.89 978.092 1779.96 995.958 1782.52 1020.58 C 1785.07 1045.2 1767.15 1067.22 1742.52 1069.71 C 1717.99 1072.2 1696.07 1054.35 1693.52 1029.82 C 1690.97 1005.29 1708.76 983.326 1733.28 980.714 z"/>
<path transform="translate(0,0)" fill="rgb(48,151,215)" d="M 1727.63 988.155 C 1748.5 982.239 1770.22 994.368 1776.14 1015.25 C 1782.05 1036.12 1769.92 1057.84 1749.04 1063.75 C 1728.16 1069.66 1706.45 1057.53 1700.54 1036.66 C 1694.63 1015.78 1706.75 994.07 1727.63 988.155 z"/>
<path transform="translate(0,0)" fill="rgb(5,14,34)" d="M 1734.87 994.013 C 1751.35 992.938 1747.03 1003.81 1751.64 1015.78 C 1754.18 1022.39 1760.54 1044.24 1757.4 1049.75 C 1754.25 1047.24 1754.49 1046.47 1751.45 1046.61 L 1749.9 1048.93 C 1750.83 1052.62 1751.37 1052.1 1754.67 1055.25 C 1752.74 1056.5 1743.19 1055.99 1740.25 1055.91 C 1735.46 1056.11 1724.3 1056.95 1720.61 1054.46 C 1720.92 1050.01 1725.61 1049.77 1725.64 1044.94 C 1723.08 1044.29 1723.61 1044.46 1721.27 1043.36 C 1712.25 1027.33 1726.46 1022.69 1729.54 1010.42 C 1730.81 1005.35 1722.78 1002.91 1720.55 999.483 C 1722.91 997.303 1731.1 995.316 1734.87 994.013 z"/>
<path transform="translate(0,0)" fill="rgb(48,151,215)" d="M 1734.32 1009.74 L 1736.33 1009.98 C 1736.18 1007.18 1736.79 1008.23 1734.93 1006.52 L 1732.58 1007.6 L 1731.72 1006.68 C 1732.47 1003.2 1732.04 1005.54 1734.15 1003.15 C 1734.15 1003.15 1734.94 997.632 1735.01 997.161 C 1735.51 996.794 1736.01 996.428 1736.51 996.061 C 1746.18 995.679 1747.97 1002.09 1745.74 1010.32 L 1745.8 1012.1 C 1745.54 1016.91 1744.78 1021.86 1747.64 1025.92 C 1758.24 1064.31 1719.64 1056.22 1728.75 1027.49 C 1731.24 1019.61 1728.77 1016.15 1734.32 1009.74 z"/>
<path transform="translate(0,0)" fill="rgb(3,45,67)" d="M 1734.32 1009.74 L 1736.33 1009.98 C 1736.18 1007.18 1736.79 1008.23 1734.93 1006.52 L 1732.58 1007.6 L 1731.72 1006.68 C 1732.47 1003.2 1732.04 1005.54 1734.15 1003.15 C 1734.15 1003.15 1734.94 997.632 1735.01 997.161 C 1735.51 996.794 1736.01 996.428 1736.51 996.061 C 1746.18 995.679 1747.97 1002.09 1745.74 1010.32 C 1743.63 1010.32 1740.58 1011.72 1738.53 1012.51 C 1735.39 1017.74 1738.34 1026.8 1739.58 1033.1 C 1740.41 1028.5 1740.98 1019.88 1742.9 1016.21 C 1744.73 1020.49 1744.03 1027.74 1740.53 1031.12 L 1738.53 1030.66 C 1734.56 1025.22 1734.75 1016.5 1734.32 1009.74 z"/>
<path transform="translate(0,0)" fill="rgb(36,115,169)" d="M 1745.8 1012.1 L 1746.46 1013.9 C 1749.66 1022.32 1756.76 1030.51 1756.11 1038.93 L 1754.62 1040.63 C 1750.26 1036.86 1754.49 1031.35 1747.64 1025.92 C 1744.78 1021.86 1745.54 1016.91 1745.8 1012.1 z"/>
<path transform="translate(0,0)" fill="rgb(48,151,215)" d="M 1728.7 1016.86 C 1728.93 1020.33 1724.24 1036.84 1723.18 1040.85 C 1718.89 1031.34 1722.83 1024.06 1728.7 1016.86 z"/>
<path transform="translate(0,0)" fill="rgb(233,155,120)" d="M 862.93 989.014 C 886.64 960.728 930.299 957.377 954.287 987.661 C 955.224 988.845 955.327 988.728 956.648 989.47 C 965.769 989.736 974.056 989.38 983.146 989.024 C 1010.79 960.852 1051.91 956.604 1077.88 989.683 C 1087.13 989.865 1096.53 990.206 1105.76 989.691 C 1102.68 997.594 1096.85 1004.31 1094.69 1010.59 C 1093.46 1015.58 1094.64 1020.31 1094.73 1025.46 C 1093.86 1030.21 1094.61 1031.08 1091.81 1033.57 L 1089.05 1034.09 C 1084.4 1041.36 1086.85 1046.35 1080.35 1054.64 L 1080.16 1059.38 C 1076.82 1060.97 1070.21 1070.85 1066.09 1073.43 C 1037.35 1091.39 1004.63 1086.92 984.299 1058.98 L 957.144 1059.28 C 955.434 1060.44 954.945 1060.47 953.793 1062.01 C 941.087 1079.97 919.026 1087.95 897.614 1083.41 C 883.486 1080.5 871.068 1072.15 863.033 1060.17 L 864.738 1056.88 C 852.773 1040.97 855.61 1023.06 856.49 1004.02 C 857.762 998.745 862.209 995.285 862.93 989.014 z"/>
<path transform="translate(0,0)" fill="rgb(86,165,182)" d="M 862.93 989.014 C 886.64 960.728 930.299 957.377 954.287 987.661 C 955.224 988.845 955.327 988.728 956.648 989.47 C 958.286 994.592 961.223 1000.47 962.35 1004.47 L 961.291 1003.19 C 959.58 1001.12 958.081 998.988 956.518 996.805 L 956.74 1002.05 C 954.769 997.344 953.598 996.093 950.107 992.337 L 949.234 992.456 C 951.745 998.464 956.183 1006.41 957.34 1012.04 L 956.613 1012.83 C 958.107 1022.52 958.556 1026.98 957.227 1036.92 C 951.786 1051.93 947.423 1059.65 932.633 1067.5 C 929.148 1069.34 921.486 1071.52 919.386 1072.76 L 912.734 1075.59 L 914.276 1075.74 L 918.999 1076.29 C 911.914 1078.13 904.504 1077.14 897.642 1077.98 C 889.367 1076.81 872.169 1067.19 868.034 1059.45 L 864.738 1056.88 C 852.773 1040.97 855.61 1023.06 856.49 1004.02 C 857.762 998.745 862.209 995.285 862.93 989.014 z"/>
<path transform="translate(0,0)" fill="rgb(233,163,121)" d="M 862.93 989.014 C 886.64 960.728 930.299 957.377 954.287 987.661 C 955.224 988.845 955.327 988.728 956.648 989.47 C 958.286 994.592 961.223 1000.47 962.35 1004.47 L 961.291 1003.19 C 959.58 1001.12 958.081 998.988 956.518 996.805 L 956.74 1002.05 C 954.769 997.344 953.598 996.093 950.107 992.337 L 949.234 992.456 C 951.745 998.464 956.183 1006.41 957.34 1012.04 L 956.613 1012.83 C 950.414 997.593 945.804 987.744 928.988 980.562 C 916.398 975.286 902.178 975.499 889.751 981.147 C 865.386 992.044 855.006 1019.13 865.057 1043.8 C 865.388 1049.45 865.209 1054.53 868.034 1059.45 L 864.738 1056.88 C 852.773 1040.97 855.61 1023.06 856.49 1004.02 C 857.762 998.745 862.209 995.285 862.93 989.014 z"/>
<path transform="translate(0,0)" fill="rgb(239,165,118)" d="M 865.057 1043.8 C 878.3 1068.61 892.314 1074.26 919.386 1072.76 L 912.734 1075.59 L 914.276 1075.74 L 918.999 1076.29 C 911.914 1078.13 904.504 1077.14 897.642 1077.98 C 889.367 1076.81 872.169 1067.19 868.034 1059.45 C 865.209 1054.53 865.388 1049.45 865.057 1043.8 z"/>
<path transform="translate(0,0)" fill="rgb(116,205,222)" d="M 899.755 984.007 C 914.484 980.419 930.004 985.033 940.381 996.085 C 950.758 1007.14 954.387 1022.92 949.88 1037.39 C 945.373 1051.86 933.428 1062.8 918.611 1066 C 896.108 1070.87 873.871 1056.75 868.711 1034.31 C 863.551 1011.87 877.385 989.456 899.755 984.007 z"/>
<path transform="translate(0,0)" fill="rgb(3,45,67)" d="M 898.574 1009.53 C 898.887 988.993 906.285 989.895 925.042 989.65 C 919.85 994.435 914.877 998.634 910.726 1004.36 C 919.373 1011.07 921.593 1013.42 919.035 1024.31 C 927.529 1027.09 934.977 1026.45 938.39 1036.45 C 944.679 1054.88 918.295 1052.92 911.031 1053.71 C 902.538 1054.08 887.512 1056.34 881.551 1049.91 C 880.409 1046.56 880.436 1046.81 881.446 1043.4 C 890.231 1034.46 909.949 1040.97 921.93 1038.08 L 922.461 1036.58 L 920.124 1035.21 C 909.827 1035.99 868.465 1041.88 886.862 1017.47 C 889.879 1013.46 903.645 1020.61 907.517 1015.08 C 904.326 1012.3 902.381 1011.51 898.574 1009.53 z"/>
<path transform="translate(0,0)" fill="rgb(54,66,84)" d="M 922.703 1033.38 C 930.875 1033.09 929.437 1041.61 927.57 1042.89 C 919.705 1048.25 909.597 1039.65 902.215 1047.24 C 902.32 1049.81 901.837 1048.74 903.536 1050.49 C 907.907 1051.12 909.245 1047.47 915.463 1047.04 L 917.563 1051.1 C 914.997 1052.01 913.511 1052.52 911.031 1053.71 C 902.538 1054.08 887.512 1056.34 881.551 1049.91 C 880.409 1046.56 880.436 1046.81 881.446 1043.4 C 890.231 1034.46 909.949 1040.97 921.93 1038.08 L 922.461 1036.58 L 920.124 1035.21 L 922.703 1033.38 z"/>
<path transform="translate(0,0)" fill="rgb(116,205,222)" d="M 922.703 1033.38 C 916.209 1032.8 903.474 1033.9 900.451 1031.14 C 904.31 1026.32 910.548 1028.52 914.721 1029.16 C 922.14 1030.28 934.316 1025.5 934.412 1038.08 C 934.782 1050.32 925.226 1047.87 917.563 1051.1 L 915.463 1047.04 C 909.245 1047.47 907.907 1051.12 903.536 1050.49 C 901.837 1048.74 902.32 1049.81 902.215 1047.24 C 909.597 1039.65 919.705 1048.25 927.57 1042.89 C 929.437 1041.61 930.875 1033.09 922.703 1033.38 z"/>
<path transform="translate(0,0)" fill="rgb(116,205,222)" d="M 901.81 1007.14 C 909.48 1006.46 920.197 1012.09 918.967 1019.98 C 909.747 1028.85 894.271 1020.73 889.281 1026.4 C 894.105 1030.41 894.085 1026.27 898.784 1031.48 C 894.525 1033.62 891.43 1033.06 887.185 1031.7 C 875.296 1016.83 906.491 1022.62 911.815 1018.9 C 912.017 1012.98 906.055 1010.2 901.81 1007.14 z"/>
<path transform="translate(0,0)" fill="rgb(116,205,222)" d="M 908.47 992.759 C 911.279 992.82 912.424 992.517 914.763 993.972 C 914.645 996.853 910.138 1000.64 907.533 1003.74 C 904.063 1004.33 905.459 1004.74 902.76 1003.59 C 902.471 999.526 905.934 995.851 908.47 992.759 z"/>
<path transform="translate(0,0)" fill="rgb(217,124,78)" d="M 963.629 1046.35 C 964.669 1041.95 965.034 1038.75 967.591 1035.06 L 969.166 1034.55 C 976.632 1041.09 982.739 1050.96 989.679 1058.73 C 1001.45 1071.91 1016.35 1080.17 1034.34 1079.76 C 1049.41 1079.41 1062.86 1067.11 1069.8 1065.28 L 1068.42 1067.88 C 1071.57 1066.73 1077.21 1058.18 1080.35 1054.64 L 1080.16 1059.38 C 1076.82 1060.97 1070.21 1070.85 1066.09 1073.43 C 1037.35 1091.39 1004.63 1086.92 984.299 1058.98 L 957.144 1059.28 L 960.605 1053.4 L 963.629 1046.35 z"/>
<path transform="translate(0,0)" fill="rgb(202,100,61)" d="M 963.629 1046.35 C 967.127 1042.86 966.289 1041.23 968.874 1038.19 L 970.458 1038.62 C 970.892 1040.72 971.325 1042.66 971.634 1044.79 C 979.241 1047.76 979.371 1050.98 984.299 1058.98 L 957.144 1059.28 L 960.605 1053.4 L 963.629 1046.35 z"/>
<path transform="translate(0,0)" fill="rgb(217,124,78)" d="M 864.738 1056.88 L 868.034 1059.45 C 872.169 1067.19 889.367 1076.81 897.642 1077.98 C 923.383 1086.66 935.216 1069.36 953.793 1062.01 C 941.087 1079.97 919.026 1087.95 897.614 1083.41 C 883.486 1080.5 871.068 1072.15 863.033 1060.17 L 864.738 1056.88 z"/>
<path transform="translate(0,0)" fill="rgb(202,100,61)" d="M 956.648 989.47 C 965.769 989.736 974.056 989.38 983.146 989.024 C 984.728 996.431 973.79 1014.28 964.025 1009.54 C 962.637 1006.61 962.781 1007.53 962.35 1004.47 C 961.223 1000.47 958.286 994.592 956.648 989.47 z"/>
<path transform="translate(0,0)" fill="rgb(202,100,61)" d="M 1077.88 989.683 C 1087.13 989.865 1096.53 990.206 1105.76 989.691 C 1102.68 997.594 1096.85 1004.31 1094.69 1010.59 L 1091.27 1012.5 C 1086.5 1010.75 1080.51 995.191 1077.88 989.683 z"/>
<path transform="translate(0,0)" fill="rgb(190,96,51)" d="M 1024.84 977.432 C 1051.21 973.704 1075.62 992.032 1079.39 1018.4 C 1083.17 1044.76 1064.89 1069.2 1038.53 1073.03 C 1012.11 1076.86 987.584 1058.52 983.797 1032.09 C 980.011 1005.66 998.397 981.17 1024.84 977.432 z"/>
<path transform="translate(0,0)" fill="rgb(40,5,2)" d="M 1002.71 992.593 C 1018.15 978.886 1041.14 978.034 1057.56 990.559 C 1072.05 1001.61 1078.04 1020.58 1072.52 1037.95 C 1067.01 1055.32 1051.18 1067.36 1032.97 1068.04 C 1014.75 1068.71 998.078 1057.88 991.293 1040.96 C 984.508 1024.05 989.076 1004.69 1002.71 992.593 z"/>
<path transform="translate(0,0)" fill="rgb(217,124,78)" d="M 1057.56 990.559 C 1072.05 1001.61 1078.04 1020.58 1072.52 1037.95 C 1067.01 1055.32 1051.18 1067.36 1032.97 1068.04 C 1014.75 1068.71 998.078 1057.88 991.293 1040.96 C 984.508 1024.05 989.076 1004.69 1002.71 992.593 L 1001.91 994.136 C 994.384 1008.48 987.821 1013.28 992.142 1032.36 C 993.518 1038.44 998.159 1041.57 1002.51 1045.64 L 1004.68 1045.71 C 1005.51 1044.32 1005.56 1044.53 1005.95 1043.01 C 1008.18 1044.93 1008.23 1044.86 1010.93 1046.11 C 1010.9 1048.92 1011.06 1047.84 1009.75 1050.51 C 1012.27 1053.56 1025.54 1053.54 1032.53 1056.18 C 1034.45 1055.71 1034.97 1055.79 1036.63 1054.84 C 1034.06 1046.07 1043.9 1037.12 1050.68 1033.17 C 1051.05 1032.64 1054.46 1029.59 1054.48 1029.5 C 1056.09 1022.97 1053.93 1013.12 1054.61 1006.29 C 1055.1 1001.25 1057.11 998.427 1057.42 994.269 L 1055.03 992.636 L 1057.56 990.559 z"/>
<path transform="translate(0,0)" fill="rgb(190,96,51)" d="M 1050.68 1033.17 L 1050.91 1034.49 L 1051.09 1036.06 C 1051.76 1041.69 1052.7 1048.15 1045.85 1049.96 L 1041.21 1048.81 C 1039.32 1051.19 1040.06 1049.83 1040.34 1054.03 L 1036.63 1054.84 C 1034.06 1046.07 1043.9 1037.12 1050.68 1033.17 z"/>
<path transform="translate(0,0)" fill="rgb(40,5,2)" d="M 1050.91 1034.49 C 1054.95 1036.71 1054.24 1035.6 1056.32 1039.1 C 1055.77 1042.64 1054.33 1044.24 1052.36 1047.22 L 1052.1 1052.11 C 1049.04 1054.34 1044.33 1054.06 1040.34 1054.03 C 1040.06 1049.83 1039.32 1051.19 1041.21 1048.81 L 1045.85 1049.96 C 1052.7 1048.15 1051.76 1041.69 1051.09 1036.06 L 1050.91 1034.49 z"/>
<path transform="translate(0,0)" fill="rgb(230,131,67)" d="M 1002.71 992.593 C 1018.15 978.886 1041.14 978.034 1057.56 990.559 L 1055.03 992.636 C 1047.99 995.069 1045.06 996.444 1038.89 1001.13 C 1021.76 1001.85 1023.15 999.22 1007.59 993.277 C 1008.94 999.011 1010.73 1005.81 1011.8 1011.5 C 1009.73 1016.98 1006.5 1024.35 1006.01 1029.9 C 1009.75 1038.16 1028.38 1039.08 1027.25 1050.91 L 1026.4 1051.88 L 1024.91 1050.84 C 1022.96 1049.52 1022.75 1049.46 1020.37 1048.95 L 1016.66 1050.69 L 1014.69 1049.57 C 1013.5 1044.72 1012.82 1041.41 1010.87 1036.76 L 1009.59 1036.12 C 1007.03 1038.83 1007.02 1039.53 1005.95 1043.01 C 1005.56 1044.53 1005.51 1044.32 1004.68 1045.71 L 1002.51 1045.64 C 998.159 1041.57 993.518 1038.44 992.142 1032.36 C 987.821 1013.28 994.384 1008.48 1001.91 994.136 L 1002.71 992.593 z"/>
<path transform="translate(0,0)" fill="rgb(230,131,67)" d="M 1021.86 1003.66 C 1035.93 1004.05 1055.03 1001.7 1051.69 1022.7 C 1047.86 1025.13 1043.18 1025.31 1038.8 1024.85 C 1039.51 1021.5 1041.56 1019.94 1043.67 1016.57 L 1042.28 1015.25 L 1040.01 1015.55 C 1036.43 1019.26 1039.14 1023.5 1035.63 1028.67 C 1032.04 1029.22 1027.29 1026.53 1023.46 1024.93 C 1025.88 1028.69 1029.3 1030.75 1032.93 1033.48 L 1043.11 1026.7 C 1046.09 1025.62 1047.78 1024.57 1050.77 1025.47 L 1051.26 1027.16 C 1048.06 1032.47 1042.79 1034.13 1039.02 1039.1 C 1036.51 1042.4 1035.22 1049.11 1032.38 1051.48 C 1028.96 1049.56 1028.4 1042.98 1024.94 1039.77 C 1020.48 1035.63 1015.02 1033.44 1009.76 1029.76 L 1009.51 1027.91 L 1011.27 1026.34 C 1013.85 1026.07 1015.38 1025.84 1017.93 1025.34 L 1018.51 1023.98 C 1015.48 1021.93 1014.97 1022.76 1010.38 1022.88 C 1009.98 1020.14 1010.91 1019.01 1012.22 1016.54 L 1013.08 1014.97 C 1016.26 1008.97 1016.5 1007.92 1021.86 1003.66 z"/>
<path transform="translate(0,0)" fill="url(#Gradient6)" d="M 501.658 990.226 C 521.914 962.629 568.53 958.961 589.378 988.599 C 590.198 989.764 590.007 989.431 591.383 990.308 C 594.26 995.074 597.923 1000.26 598.574 1005.75 C 598.241 1010.7 598.377 1011.77 599.229 1016.68 L 600.154 1017.55 L 600.914 1017.15 C 601.742 1023.29 602.345 1025.17 605.748 1030.44 C 603.578 1032.57 603.904 1031.44 603.472 1033.8 L 599.529 1047.22 C 596.955 1052.02 594.976 1055.99 590.817 1059.75 L 592.396 1061.08 C 577.316 1082.43 541.204 1091.66 520.023 1075.41 C 513.88 1073.59 505.808 1063.68 501.647 1058.89 C 492.015 1059.14 482.379 1059.15 472.748 1058.89 C 456.491 1082.19 424.496 1086.93 401.341 1071.1 C 396.79 1067.93 392.774 1064.06 389.443 1059.63 C 387.618 1056.6 385.163 1053.16 383.155 1050.17 L 381.672 1043.93 C 380.609 1034.18 378.747 1018.93 379.504 1009.61 C 382.364 1000.59 384.167 997.57 389.464 990.25 C 398.417 989.158 398.079 979.5 406.379 975.584 C 425.6 966.514 460.854 969.553 471.778 989.856 C 481.889 990.288 491.557 990.253 501.658 990.226 z"/>
<path transform="translate(0,0)" fill="rgb(233,163,121)" d="M 389.464 990.25 C 398.417 989.158 398.079 979.5 406.379 975.584 C 425.6 966.514 460.854 969.553 471.778 989.856 C 473.635 993.679 475.338 996.672 477.486 1000.34 C 483.406 1000.61 495.56 1008.85 492.332 1016.61 C 492.115 1020.43 491.904 1032.2 491.058 1035.18 C 484.108 1037.77 481.001 1040.59 479.018 1048.15 C 476.789 1053.04 475.862 1054.48 472.748 1058.89 C 456.491 1082.19 424.496 1086.93 401.341 1071.1 C 396.79 1067.93 392.774 1064.06 389.443 1059.63 C 387.618 1056.6 385.163 1053.16 383.155 1050.17 L 381.672 1043.93 C 380.609 1034.18 378.747 1018.93 379.504 1009.61 C 382.364 1000.59 384.167 997.57 389.464 990.25 z"/>
<path transform="translate(0,0)" fill="rgb(217,124,78)" d="M 477.486 1000.34 C 483.406 1000.61 495.56 1008.85 492.332 1016.61 L 491.504 1014 L 489.58 1013.1 C 487.448 1013.89 485.457 1014.83 483.45 1015.9 C 481.351 1014.3 478.709 1003.99 477.486 1000.34 z"/>
<path transform="translate(0,0)" fill="rgb(61,171,89)" d="M 413.827 983.365 C 434.297 974.921 458.56 982.806 469.907 1001.86 C 479.474 1020.12 478.87 1037.83 466.08 1054.33 C 462.447 1058.1 460.906 1060.11 456.305 1062.72 C 443.035 1074.55 414.882 1071.61 401.819 1059.78 C 375.307 1038.69 381.498 994.014 413.827 983.365 z"/>
<path transform="translate(0,0)" fill="rgb(2,51,10)" d="M 414.359 1052.29 C 416.27 1045.27 419.38 1035.46 413.925 1029.78 L 412.066 1030.13 C 409.693 1033.66 408.786 1035.82 405.177 1037.74 C 384.704 1039.62 398.17 1011.77 406.349 1006.72 C 408.091 1005.64 424.164 1002.44 426.525 1002.22 C 430.234 1003.31 430.823 1004.7 433.505 1007.88 L 434.446 1009.01 C 452.208 1012.64 450.728 1004.67 464.87 1022.02 C 466.39 1029.63 466.64 1043.77 464.018 1051.17 C 458.464 1050.9 449.658 1052.66 445.956 1049.27 C 445.495 1046.11 447.232 1043.87 448.794 1040.9 L 435.595 1037.37 C 433.076 1054.35 430.371 1052.61 414.359 1052.29 z"/>
<path transform="translate(0,0)" fill="rgb(61,171,89)" d="M 435.455 1012.31 C 448.321 1011.8 453.64 1011.94 461.599 1022.43 C 463.154 1032.18 462.774 1037.41 462.041 1047.1 L 457.97 1044.15 C 447.471 1036.57 455.224 1034.22 451.308 1029.17 C 448.996 1031 449.535 1033.26 448.476 1037.29 C 446.023 1037.78 440.132 1035.07 434.809 1034.37 C 434.726 1033.01 434.919 1033.71 434.031 1032.34 C 431.451 1035.87 432.421 1043.45 429.834 1049.25 C 428.015 1048.04 426.935 1042.04 426.145 1039.27 L 424.985 1038.89 C 423.178 1041.47 423.915 1045.78 424.052 1049.39 L 422.227 1049.5 L 420.198 1047.51 C 418.344 1041.68 418.564 1037.57 420.072 1031.66 C 433.234 1027.52 429.769 1019.86 435.455 1012.31 z"/>
<path transform="translate(0,0)" fill="rgb(50,146,71)" d="M 400.621 1020.12 C 403.055 1015.34 405.136 1009.8 410.389 1008.09 C 417.042 1010.26 416.859 1021.01 414.526 1026.11 C 411.723 1026.57 413.164 1026.59 410.116 1025.02 L 407.538 1024.56 C 404.322 1026.05 403.084 1026.38 400.585 1028.97 L 401.212 1030.45 C 404.948 1029.19 403.914 1028.71 406.444 1029.69 C 406.698 1032.96 407.241 1031.65 405.356 1033.92 L 402.57 1033.95 C 399.779 1032.22 399.826 1032.45 398.376 1029.55 C 398.408 1024.97 398.826 1024.48 400.621 1020.12 z"/>
<path transform="translate(0,0)" fill="rgb(61,171,89)" d="M 400.621 1020.12 L 406.464 1019.58 C 408.315 1019.41 409.874 1019.03 411.694 1018.64 L 413.345 1019.98 L 413.559 1024.01 C 411.508 1025.12 412.643 1024.74 410.116 1025.02 L 407.538 1024.56 C 404.322 1026.05 403.084 1026.38 400.585 1028.97 L 401.212 1030.45 C 404.948 1029.19 403.914 1028.71 406.444 1029.69 C 406.698 1032.96 407.241 1031.65 405.356 1033.92 L 402.57 1033.95 C 399.779 1032.22 399.826 1032.45 398.376 1029.55 C 398.408 1024.97 398.826 1024.48 400.621 1020.12 z"/>
<path transform="translate(0,0)" fill="rgb(61,171,89)" d="M 419.654 1004.88 C 425.831 1004.7 427.287 1004.21 430.805 1009.47 C 431.703 1016.39 428.981 1019.68 425.448 1025.58 C 423.455 1027.05 423.521 1026.91 421.057 1027.41 C 416.781 1023.32 416.872 1009.58 419.654 1004.88 z"/>
<path transform="translate(0,0)" fill="rgb(50,146,71)" d="M 413.827 983.365 C 434.297 974.921 458.56 982.806 469.907 1001.86 C 479.474 1020.12 478.87 1037.83 466.08 1054.33 L 464.018 1051.17 C 466.64 1043.77 466.39 1029.63 464.87 1022.02 L 467.553 1022.11 C 470.019 1024.21 469.914 1024.71 471.556 1027.6 C 471.949 1025.56 469.596 1017.6 469.206 1014.24 C 454.552 980.326 428.257 977.602 400.016 997.838 C 391.493 1013.31 384.952 1034.06 398.757 1048.92 C 399.751 1053.44 400.16 1055.53 401.819 1059.78 C 375.307 1038.69 381.498 994.014 413.827 983.365 z"/>
<path transform="translate(0,0)" fill="rgb(40,118,45)" d="M 413.827 983.365 C 423.317 982.514 434.15 979.826 443.503 983.078 C 438.812 984.109 433.805 981.777 429.252 982.587 C 420.24 984.189 406.833 988.334 401.1 995.806 C 400.739 996.484 400.377 997.161 400.016 997.838 C 391.493 1013.31 384.952 1034.06 398.757 1048.92 C 399.751 1053.44 400.16 1055.53 401.819 1059.78 C 375.307 1038.69 381.498 994.014 413.827 983.365 z"/>
<path transform="translate(0,0)" fill="rgb(50,146,71)" d="M 398.757 1048.92 C 413.286 1060.63 421.964 1067.78 441.483 1063.38 L 442.428 1064.12 L 442.061 1066.4 C 447.983 1067.08 453.432 1060.1 456.305 1062.72 C 443.035 1074.55 414.882 1071.61 401.819 1059.78 C 400.16 1055.53 399.751 1053.44 398.757 1048.92 z"/>
<path transform="translate(0,0)" fill="rgb(202,100,61)" d="M 479.018 1048.15 C 486.478 1045.08 484.197 1041.42 489.728 1038.25 L 490.782 1038.96 L 491.234 1042.91 C 496.153 1046.47 498.354 1053.72 501.647 1058.89 C 492.015 1059.14 482.379 1059.15 472.748 1058.89 C 475.862 1054.48 476.789 1053.04 479.018 1048.15 z"/>
<path transform="translate(0,0)" fill="rgb(217,124,78)" d="M 520.023 1075.41 C 524.279 1075.48 533.989 1079.3 537.997 1081.09 L 539.087 1081.59 L 539.593 1080.61 L 539.79 1081.84 L 540.115 1081.17 C 538.177 1079.34 537.28 1079.39 534.681 1078.92 L 534.771 1078.25 C 539.069 1077.15 545.532 1079.59 550.384 1079.38 C 566.606 1078.66 578.866 1069.58 590.817 1059.75 L 592.396 1061.08 C 577.316 1082.43 541.204 1091.66 520.023 1075.41 z"/>
<path transform="translate(0,0)" fill="rgb(40,78,195)" d="M 521.549 1064.74 C 500.014 1050.44 494.045 1021.45 508.18 999.811 C 522.315 978.17 551.261 971.984 573.008 985.957 C 594.754 999.93 601.156 1028.83 587.346 1050.68 C 573.536 1072.53 544.686 1079.15 522.733 1065.5 C 522.335 1065.25 521.94 1065 521.549 1064.74 z"/>
<path transform="translate(0,0)" fill="rgb(40,78,195)" d="M 561.383 1016.05 L 565.02 1016.81 C 570.04 1017.81 572.974 1017.27 574.592 1022.49 C 573.525 1026.32 569.118 1029.28 565.895 1032.19 L 566.638 1033.01 C 572.93 1033.4 580.761 1031.99 587.171 1031.1 C 593.763 1042.58 574.991 1057.55 565.75 1062.2 C 551.695 1069.28 544.523 1067.25 530.715 1062.15 L 530.13 1060.65 L 531.821 1057.04 C 537.936 1053.65 543.513 1056.01 547.229 1053.1 L 546.604 1051.34 C 540.945 1047.41 531.732 1041.2 534.443 1033.24 C 538.966 1019.95 551.592 1021.75 561.383 1016.05 z"/>
<path transform="translate(0,0)" fill="rgb(5,14,34)" d="M 535.254 986.813 C 550.775 994.186 580.747 1000.87 577.278 1023.32 C 576.984 1025.22 577.363 1025.06 578.231 1026.65 L 583.028 1027.69 C 584.826 1029.04 585.566 1029.53 587.171 1031.1 C 580.761 1031.99 572.93 1033.4 566.638 1033.01 L 565.895 1032.19 C 569.118 1029.28 573.525 1026.32 574.592 1022.49 C 572.974 1017.27 570.04 1017.81 565.02 1016.81 L 561.383 1016.05 C 551.592 1021.75 538.966 1019.95 534.443 1033.24 C 531.732 1041.2 540.945 1047.41 546.604 1051.34 L 547.229 1053.1 C 543.513 1056.01 537.936 1053.65 531.821 1057.04 C 528.046 1059.88 525.815 1063.3 522.733 1065.5 C 522.335 1065.25 521.94 1065 521.549 1064.74 L 522.728 1062.68 C 524.52 1057.35 524.789 1053.18 527.303 1046.24 C 524.326 1036.99 525.075 1030.82 523.079 1021.76 C 522.954 1021.19 519.49 1020.96 517.969 1017.94 L 519.296 1016.75 L 522.921 1017.37 C 524.456 1016.58 534.889 1004.25 539.91 999.972 C 538.311 995.603 536.759 991.216 535.254 986.813 z"/>
<path transform="translate(0,0)" fill="rgb(40,78,195)" d="M 527.199 1017.46 C 535.097 1006.16 539.644 1001.58 552.284 995.85 C 565.278 1001.62 568.899 1005.6 577.143 1016.66 C 571.36 1014.82 564.436 1012.65 558.458 1012.14 L 556.853 1014.05 L 556.778 1015.66 L 553.814 1017.64 L 550.759 1015.42 L 545.242 1018.86 C 528.379 1029.16 535.794 1036.47 530.502 1043.4 C 527.393 1039.79 526.942 1035.4 526.61 1030.87 C 526.683 1026.49 526.989 1021.86 527.199 1017.46 z"/>
<path transform="translate(0,0)" fill="rgb(38,68,167)" d="M 529.914 1030.7 L 530.361 1032.12 C 533.597 1024.69 540.76 1010.61 550.759 1015.42 L 545.242 1018.86 C 528.379 1029.16 535.794 1036.47 530.502 1043.4 C 527.393 1039.79 526.942 1035.4 526.61 1030.87 L 529.914 1030.7 z"/>
<path transform="translate(0,0)" fill="rgb(50,14,83)" d="M 529.914 1030.7 C 530.045 1020.35 549.727 1002.08 553.814 1017.64 L 550.759 1015.42 C 540.76 1010.61 533.597 1024.69 530.361 1032.12 L 529.914 1030.7 z"/>
<path transform="translate(0,0)" fill="rgb(38,68,167)" d="M 531.96 1045.47 C 537.229 1046.64 539.789 1048.59 544.374 1051.35 L 532.774 1053.67 L 523.218 1059.72 C 526.269 1053.64 527.215 1050.51 531.96 1045.47 z"/>
<path transform="translate(0,0)" fill="rgb(38,68,167)" d="M 521.549 1064.74 C 500.014 1050.44 494.045 1021.45 508.18 999.811 C 522.315 978.17 551.261 971.984 573.008 985.957 C 594.754 999.93 601.156 1028.83 587.346 1050.68 C 573.536 1072.53 544.686 1079.15 522.733 1065.5 C 525.815 1063.3 528.046 1059.88 531.821 1057.04 L 530.13 1060.65 L 530.715 1062.15 C 544.523 1067.25 551.695 1069.28 565.75 1062.2 C 574.991 1057.55 593.763 1042.58 587.171 1031.1 C 585.566 1029.53 584.826 1029.04 583.028 1027.69 C 584.752 1020.41 584.516 1018.01 584.476 1010.57 C 562.683 973.601 508.652 974.443 506.787 1022.29 C 506.356 1033.34 504.931 1036.62 511.058 1045.97 C 514.668 1051.47 520.929 1057.19 522.728 1062.68 L 521.549 1064.74 z"/>
<path transform="translate(0,0)" fill="rgb(233,155,120)" d="M 742.444 989.918 C 743.07 989.026 743.705 988.139 744.35 987.26 C 762.535 962.35 799.121 961.61 823.217 977.781 C 827.868 980.902 830.933 986.425 835.792 989.277 C 844.838 989.261 853.885 989.173 862.93 989.014 C 862.209 995.285 857.762 998.745 856.49 1004.02 C 855.61 1023.06 852.773 1040.97 864.738 1056.88 L 863.033 1060.17 L 861.74 1060.11 C 853.907 1059.77 844.346 1060.01 836.38 1060 C 806.172 1091.46 771.151 1095.07 740.343 1059.77 C 731.036 1059.9 721.725 1060.14 712.429 1059.68 L 712.073 1057.91 C 713.859 1055.16 715.088 1052.86 716.638 1049.96 C 717.982 1044.77 718.604 1041.42 721.284 1036.68 L 720.025 1041.59 L 722.064 1041.36 C 725.394 1038.61 725.18 1038.5 729.347 1038.04 C 728.845 1033.74 726.565 1034.77 727.506 1031.41 L 730.434 1034.39 L 731.334 1034.2 C 732.855 1028.9 732.584 1022.11 731.472 1016.73 L 729.917 1015.81 L 725.484 1018.21 L 723.568 1017.63 L 722.239 1014.69 C 720.486 1006.17 719.279 1000.85 714.093 993.674 L 714.413 990.528 C 723.335 989.247 733.338 990.155 742.444 989.918 z"/>
<path transform="translate(0,0)" fill="rgb(50,14,83)" d="M 739.829 1017.57 C 744.748 1001.78 750.978 990.954 766.453 982.845 C 790.327 970.336 819.79 981.193 831.216 1005.2 C 836.728 1016.76 837.27 1030.07 832.717 1042.04 C 816.786 1084.1 760.763 1084.43 741.774 1040.35 C 739.579 1031.36 739.15 1026.63 739.829 1017.57 z"/>
<path transform="translate(0,0)" fill="rgb(148,87,184)" d="M 754.649 1004.16 L 757.174 1005.5 C 761.154 1012.9 760.827 1016.64 761.17 1024.9 C 770.436 1031.27 766.01 1029.19 765.252 1039.51 C 765.156 1040.83 767.93 1046.37 768.658 1047.87 C 780.966 1056.76 782.423 1051.7 789.478 1041.02 C 792.498 1046.63 796.009 1053.2 803.048 1053.65 C 816.969 1049.06 812.154 1017.24 819.338 1008.99 C 823.106 1007.89 821.386 1007.71 824.7 1009.1 L 825.086 1011.22 C 823.76 1019.49 826.867 1036.79 822.254 1041.34 C 820.875 1040.33 820.124 1036.57 819.438 1034.47 C 819.379 1045.75 814.23 1054.58 804.431 1060.51 C 791.68 1068.22 771.21 1065.14 763.001 1052.06 C 761.157 1049.12 760.405 1043.3 758.82 1040.45 C 750.956 1026.27 750.859 1019.68 754.649 1004.16 z"/>
<path transform="translate(0,0)" fill="rgb(148,87,184)" d="M 780.51 986.5 C 788.691 984.094 812.835 986.174 813.788 996.852 C 806.42 1000.04 803.258 1001.23 795.628 1005.11 C 794.781 1001.96 794.093 1001.58 791.869 999.368 C 784.91 1000.26 783.835 999.118 783.033 1005.88 C 773.121 1001.15 768.503 1000.12 759.749 996.269 L 759.943 994.978 C 770.213 986.264 766.762 987.069 780.51 986.5 z"/>
<path transform="translate(0,0)" fill="rgb(156,96,194)" d="M 759.368 1000.8 C 773.025 1001.71 789.255 1010.73 783.443 1026.67 C 764.663 1037.75 763.767 1012.04 759.368 1000.8 z"/>
<path transform="translate(0,0)" fill="rgb(156,96,194)" d="M 794.066 1029.75 C 800.635 1032.81 807.917 1030.19 810.906 1035.27 C 809.458 1039.31 807.549 1039.09 805.263 1042.47 L 805.99 1045.59 L 806.165 1046.57 C 804.794 1049.27 805.741 1048.05 802.325 1049.6 C 791.667 1047.53 792.833 1038.01 794.066 1029.75 z"/>
<path transform="translate(0,0)" fill="url(#Gradient5)" d="M 803.828 1023.2 C 805.687 1019.97 806.202 1017.7 804.563 1014.38 C 798.409 1013.19 796.169 1017.63 792.044 1016.42 C 794.032 1011.35 805.487 1000.96 811.527 1002 C 813.904 1005.3 813.137 1005.92 813.135 1010.85 C 812.372 1015.31 812.455 1018.81 809.648 1021.83 C 807.658 1022.37 805.866 1022.97 803.828 1023.2 z"/>
<path transform="translate(0,0)" fill="rgb(156,96,194)" d="M 776.963 1033 C 780.717 1031.27 780.157 1030.73 783.15 1031.65 C 786.001 1036.88 785.364 1044.02 781.179 1048.35 L 780.46 1049.11 C 772.505 1048.65 766.283 1040.58 769.702 1033.01 C 772.982 1031.43 772.467 1032.11 776.963 1033 z"/>
<path transform="translate(0,0)" fill="rgb(148,87,184)" d="M 776.963 1033 C 780.717 1031.27 780.157 1030.73 783.15 1031.65 C 786.001 1036.88 785.364 1044.02 781.179 1048.35 L 780.46 1049.11 C 780.385 1043.55 781.977 1044.32 779.841 1040.01 L 777.868 1039.77 L 776.489 1040.53 L 775.578 1039.15 C 776.006 1037.09 776.467 1035.04 776.963 1033 z"/>
<path transform="translate(0,0)" fill="rgb(156,96,194)" d="M 813.135 1010.85 C 815.088 1023.9 807.094 1033.94 795.563 1026.19 C 793.779 1023.06 794.094 1024.7 794.651 1021.09 C 796.852 1018.28 796.756 1018.24 799.863 1016.1 L 800.977 1016.94 C 800.351 1018.66 800.297 1019.24 800.46 1021.06 L 803.828 1023.2 C 805.866 1022.97 807.658 1022.37 809.648 1021.83 C 812.455 1018.81 812.372 1015.31 813.135 1010.85 z"/>
<path transform="translate(0,0)" fill="rgb(148,87,184)" d="M 788.287 1021.23 C 792.137 1027.79 790.943 1030.02 789.585 1037.46 L 788.13 1036.16 C 786.203 1030.65 787.036 1026.9 788.287 1021.23 z"/>
<path transform="translate(0,0)" fill="rgb(217,124,78)" d="M 716.638 1049.96 C 717.982 1044.77 718.604 1041.42 721.284 1036.68 L 720.025 1041.59 L 722.064 1041.36 C 725.394 1038.61 725.18 1038.5 729.347 1038.04 C 733.248 1044.1 734.877 1047.06 737.934 1053.59 L 739.74 1053.49 L 739.832 1054.64 C 740.03 1051.04 739.144 1049.96 739.006 1046.94 C 744.997 1061.4 753.061 1068.92 767.561 1075.24 C 781.792 1081.44 794.748 1081.38 809.01 1075.47 C 819.613 1071.08 826.283 1062.77 836.122 1057.42 L 836.38 1060 C 806.172 1091.46 771.151 1095.07 740.343 1059.77 C 731.036 1059.9 721.725 1060.14 712.429 1059.68 L 712.073 1057.91 C 713.859 1055.16 715.088 1052.86 716.638 1049.96 z"/>
<path transform="translate(0,0)" fill="rgb(190,96,51)" d="M 716.638 1049.96 C 722.535 1046.72 724.483 1046.38 730.809 1044.82 C 733.852 1049.53 737.544 1054.99 740.343 1059.77 C 731.036 1059.9 721.725 1060.14 712.429 1059.68 L 712.073 1057.91 C 713.859 1055.16 715.088 1052.86 716.638 1049.96 z"/>
<path transform="translate(0,0)" fill="url(#Gradient4)" d="M 841.601 1007.67 C 847.728 1009.09 851.483 1007.2 856.49 1004.02 C 855.61 1023.06 852.773 1040.97 864.738 1056.88 L 863.033 1060.17 L 861.74 1060.11 C 853.907 1059.77 844.346 1060.01 836.38 1060 L 836.122 1057.42 C 836.886 1054.83 839.077 1049.91 840.175 1047.22 C 841.734 1042.34 840.155 1040.65 842.091 1036.01 C 847.249 1033.6 846.841 1038.02 851.803 1036.03 L 852.496 1033.54 C 852.073 1027.41 851.739 1020.19 849.069 1014.72 C 846.047 1015.31 845.271 1015.8 842.41 1014.77 C 840.687 1011.55 841.331 1011.99 841.601 1007.67 z"/>
<path transform="translate(0,0)" fill="rgb(202,100,61)" d="M 840.175 1047.22 C 854.572 1045.39 852.989 1051.42 861.74 1060.11 C 853.907 1059.77 844.346 1060.01 836.38 1060 L 836.122 1057.42 C 836.886 1054.83 839.077 1049.91 840.175 1047.22 z"/>
<path transform="translate(0,0)" fill="url(#Gradient3)" d="M 714.413 990.528 C 723.335 989.247 733.338 990.155 742.444 989.918 C 739.289 995.929 735.677 1001.72 735.077 1008.52 C 733.21 1011.24 725.15 1014.26 722.239 1014.69 C 720.486 1006.17 719.279 1000.85 714.093 993.674 L 714.413 990.528 z"/>
<path transform="translate(0,0)" fill="rgb(233,163,121)" d="M 735.077 1008.52 C 735.138 1011.46 735.435 1013.41 735.655 1016.27 L 735.746 1014.97 C 736.164 1009.57 736.002 1003.69 742.484 1003.22 C 740.552 1008.34 738.59 1012.06 738.229 1017.43 L 739.829 1017.57 C 739.15 1026.63 739.579 1031.36 741.774 1040.35 C 741.194 1045.32 742.137 1043.22 739.006 1046.94 C 739.144 1049.96 740.03 1051.04 739.832 1054.64 L 739.74 1053.49 L 737.934 1053.59 C 734.877 1047.06 733.248 1044.1 729.347 1038.04 C 728.845 1033.74 726.565 1034.77 727.506 1031.41 L 730.434 1034.39 L 731.334 1034.2 C 732.855 1028.9 732.584 1022.11 731.472 1016.73 L 729.917 1015.81 L 725.484 1018.21 L 723.568 1017.63 L 722.239 1014.69 C 725.15 1014.26 733.21 1011.24 735.077 1008.52 z"/>
<path transform="translate(0,0)" fill="rgb(202,100,61)" d="M 835.792 989.277 C 844.838 989.261 853.885 989.173 862.93 989.014 C 862.209 995.285 857.762 998.745 856.49 1004.02 C 851.483 1007.2 847.728 1009.09 841.601 1007.67 C 839.99 1001.81 834.682 993.28 835.792 989.277 z"/>
<path transform="translate(0,0)" fill="rgb(233,163,121)" d="M 849.069 1014.72 C 851.739 1020.19 852.073 1027.41 852.496 1033.54 C 841.987 1029.94 840.162 1021.2 849.069 1014.72 z"/>
<path transform="translate(0,0)" fill="rgb(239,165,118)" d="M 638.064 974.554 C 658.92 962.373 683.95 964.558 702.865 979.681 C 707.033 983.013 710.425 987.326 714.413 990.528 L 714.093 993.674 C 719.279 1000.85 720.486 1006.17 722.239 1014.69 L 723.568 1017.63 L 725.484 1018.21 L 729.917 1015.81 L 731.472 1016.73 C 732.584 1022.11 732.855 1028.9 731.334 1034.2 L 730.434 1034.39 L 727.506 1031.41 C 726.565 1034.77 728.845 1033.74 729.347 1038.04 C 725.18 1038.5 725.394 1038.61 722.064 1041.36 L 720.025 1041.59 L 721.284 1036.68 C 718.604 1041.42 717.982 1044.77 716.638 1049.96 C 715.088 1052.86 713.859 1055.16 712.073 1057.91 L 712.429 1059.68 C 695.489 1086.56 661.403 1090.14 635.161 1074.78 C 629.39 1071.4 625.541 1063.97 620.494 1060.71 C 613.974 1060.12 598.103 1059.08 592.396 1061.08 L 590.817 1059.75 C 594.976 1055.99 596.955 1052.02 599.529 1047.22 L 603.472 1033.8 C 603.904 1031.44 603.578 1032.57 605.748 1030.44 C 602.345 1025.17 601.742 1023.29 600.914 1017.15 L 600.154 1017.55 L 599.229 1016.68 C 598.377 1011.77 598.241 1010.7 598.574 1005.75 C 597.923 1000.26 594.26 995.074 591.383 990.308 C 601.164 990.227 611.134 990.037 620.898 990.095 C 625.543 986.905 626.763 981.022 638.064 974.554 z"/>
<path transform="translate(0,0)" fill="rgb(217,124,78)" d="M 603.472 1033.8 C 609.543 1035.41 615.39 1051.29 622.876 1056.9 C 642.561 1080.69 673.025 1087.89 699.117 1068.65 C 702.946 1065.82 707.717 1059.48 712.073 1057.91 L 712.429 1059.68 C 695.489 1086.56 661.403 1090.14 635.161 1074.78 C 629.39 1071.4 625.541 1063.97 620.494 1060.71 C 613.974 1060.12 598.103 1059.08 592.396 1061.08 L 590.817 1059.75 C 594.976 1055.99 596.955 1052.02 599.529 1047.22 L 603.472 1033.8 z"/>
<path transform="translate(0,0)" fill="rgb(202,100,61)" d="M 599.529 1047.22 C 602.625 1043.6 602.929 1042.72 604.328 1038.14 L 605.372 1037.73 C 609.913 1043.87 616.18 1054.05 620.494 1060.71 C 613.974 1060.12 598.103 1059.08 592.396 1061.08 L 590.817 1059.75 C 594.976 1055.99 596.955 1052.02 599.529 1047.22 z"/>
<path transform="translate(0,0)" fill="url(#Gradient2)" d="M 591.383 990.308 C 601.164 990.227 611.134 990.037 620.898 990.095 L 620.268 991.579 C 617.124 998.883 612.042 1004.39 611.746 1012.55 L 607.714 1013.4 C 603.033 1011.89 602.181 1009.74 598.574 1005.75 C 597.923 1000.26 594.26 995.074 591.383 990.308 z"/>
<path transform="translate(0,0)" fill="rgb(230,131,67)" d="M 638.064 974.554 C 658.92 962.373 683.95 964.558 702.865 979.681 C 707.033 983.013 710.425 987.326 714.413 990.528 L 714.093 993.674 C 709.837 990.978 706.336 986.978 702.137 984.059 C 686.918 973.48 672.642 970.612 654.463 973.727 C 648.994 973.957 643.528 974.232 638.064 974.554 z"/>
<path transform="translate(0,0)" fill="rgb(230,131,67)" d="M 598.574 1005.75 C 602.181 1009.74 603.033 1011.89 607.714 1013.4 L 611.746 1012.55 C 612.087 1016.3 612.371 1020.05 612.597 1023.81 C 616.744 1045.03 617.085 1040.32 622.876 1056.9 C 615.39 1051.29 609.543 1035.41 603.472 1033.8 C 603.904 1031.44 603.578 1032.57 605.748 1030.44 C 602.345 1025.17 601.742 1023.29 600.914 1017.15 L 600.154 1017.55 L 599.229 1016.68 C 598.377 1011.77 598.241 1010.7 598.574 1005.75 z"/>
<path transform="translate(0,0)" fill="rgb(239,165,118)" d="M 600.914 1017.15 L 603.796 1014.75 C 610.846 1015.83 612.897 1026.49 605.748 1030.44 C 602.345 1025.17 601.742 1023.29 600.914 1017.15 z"/>
<path transform="translate(0,0)" fill="rgb(233,163,121)" d="M 638.064 974.554 C 643.528 974.232 648.994 973.957 654.463 973.727 C 625.961 982.681 617.411 994.834 612.597 1023.81 C 612.371 1020.05 612.087 1016.3 611.746 1012.55 C 612.042 1004.39 617.124 998.883 620.268 991.579 L 620.898 990.095 C 625.543 986.905 626.763 981.022 638.064 974.554 z"/>
<path transform="translate(0,0)" fill="rgb(189,134,26)" d="M 665.489 977.477 C 691.764 976.841 713.632 997.518 714.467 1023.79 C 715.302 1050.06 694.791 1072.08 668.529 1073.11 C 641.985 1074.16 619.672 1053.38 618.828 1026.83 C 617.984 1000.28 638.933 978.121 665.489 977.477 z"/>
<path transform="translate(0,0)" fill="rgb(244,196,38)" d="M 660.257 979.992 C 715.568 974.711 734.026 1060.45 671.374 1068.95 C 664.495 1069.26 635.678 1060.17 633.568 1052.32 C 635.734 1049.49 635.476 1050.61 636.128 1047.47 C 611.732 1029.76 624.522 1002.14 644.609 985.991 C 648.979 982.478 654.824 981.413 660.257 979.992 z"/>
<path transform="translate(0,0)" fill="rgb(25,18,3)" d="M 663.529 999.006 C 667.582 996.205 673.437 991.043 676.917 996.479 C 677.44 1001.11 675.558 1005.45 674.12 1010.03 C 689.266 1021.08 700.672 1028.71 694.067 1050.24 L 693.828 1051.02 L 693.17 1053.92 L 691.477 1054.92 C 683.177 1055.02 644.318 1057.74 641.24 1051.5 C 644.921 1042.34 656.086 1046.62 661.732 1042 C 661.342 1038.93 656.806 1030.44 655.215 1027.19 C 652.942 1026.91 650.672 1026.6 648.405 1026.27 C 645.32 1025.8 641.493 1025.42 639.744 1023.03 C 647.032 1015.29 645.021 1006.79 644.483 996.793 C 650.818 997.645 657.168 998.382 663.529 999.006 z"/>
<path transform="translate(0,0)" fill="rgb(244,196,38)" d="M 657.271 1027.21 C 667.116 1023.98 669.274 1021.7 674.625 1013.21 C 679.64 1016.65 682.813 1018.82 687.408 1022.83 C 691.621 1029.52 695.815 1038.53 691.175 1046.13 L 689.568 1046 C 682.558 1028.52 680.389 1035.19 675.929 1027.59 L 677.062 1026.16 C 680.157 1025.91 680.537 1026.01 683.655 1026.43 L 685.129 1024.84 C 682.276 1022.6 681.412 1022.78 677.84 1022.43 C 667.684 1026.37 671.295 1038.98 669.918 1047.04 C 673.018 1048.11 673.854 1048.65 677.131 1048.14 C 679.159 1043.65 672.634 1038.58 673.041 1032.71 L 674.437 1031.37 C 686.677 1034.92 683.04 1045.48 694.067 1050.24 L 693.828 1051.02 C 687.428 1052.41 677.846 1052.29 671.054 1052.43 L 666.136 1050.68 L 669.161 1047.15 C 664.971 1044.49 660.18 1032.69 657.271 1027.21 z"/>
<path transform="translate(0,0)" fill="rgb(244,196,38)" d="M 671.054 1052.43 C 664.577 1052.51 651.835 1053.13 646.073 1050.6 L 646.96 1049.38 C 656.616 1046.23 659.047 1043.64 666.136 1050.68 L 671.054 1052.43 z"/>
<path transform="translate(0,0)" fill="rgb(244,196,38)" d="M 664.918 1003.21 L 666.55 1002.77 C 669.737 1004.77 670.209 1004.68 671.836 1008.12 C 673.181 1025.35 656.495 1025.33 644.381 1022.27 L 648.104 1010.27 L 655.249 1021.33 C 659.213 1019.08 662.487 1017.82 664.833 1014.05 C 665.698 1010.1 665.089 1009.13 663.964 1005.06 L 664.918 1003.21 z"/>
<path transform="translate(0,0)" fill="rgb(223,173,57)" d="M 663.964 1005.06 C 662.045 1009.84 662.836 1012.56 658.367 1016.29 C 652.606 1014.1 654.752 1009.87 647.247 1007.83 C 647.644 1003.72 646.932 1004.01 649.134 1001.55 C 653.359 1000.25 660.279 1002.23 664.918 1003.21 L 663.964 1005.06 z"/>
<path transform="translate(0,0)" fill="rgb(233,163,121)" d="M 1106.84 988.62 C 1123.51 961.931 1181.15 959.253 1195.56 987.966 L 1198.96 989.947 C 1202.07 996.255 1209.06 1007.15 1210.74 1012.61 L 1210.33 1015.06 C 1207.45 1019.04 1208.04 1028.76 1211.19 1032.67 L 1208.4 1034.88 L 1206.53 1044.45 L 1204.07 1051.35 L 1199.53 1058.2 L 1200.01 1059.53 C 1187.85 1081.59 1156.04 1089.15 1133.1 1080.69 C 1117.82 1075.05 1116.4 1069.88 1104.95 1059.95 L 1104.28 1059.38 C 1097.32 1060.1 1087.16 1059.62 1080.16 1059.38 L 1080.35 1054.64 C 1086.85 1046.35 1084.4 1041.36 1089.05 1034.09 L 1091.81 1033.57 C 1094.61 1031.08 1093.86 1030.21 1094.73 1025.46 C 1094.64 1020.31 1093.46 1015.58 1094.69 1010.59 C 1096.85 1004.31 1102.68 997.594 1105.76 989.691 L 1106.84 988.62 z"/>
<path transform="translate(0,0)" fill="rgb(217,124,78)" d="M 1098.81 1045.62 C 1107.93 1055.87 1115.14 1066.28 1127.58 1073.15 C 1145.99 1083.31 1169.1 1081.41 1185.85 1068.91 C 1190.54 1065.41 1194.21 1060.9 1199.53 1058.2 L 1200.01 1059.53 C 1187.85 1081.59 1156.04 1089.15 1133.1 1080.69 C 1117.82 1075.05 1116.4 1069.88 1104.95 1059.95 L 1104.28 1059.38 C 1103.4 1056.17 1100.47 1051.96 1098.81 1045.62 z"/>
<path transform="translate(0,0)" fill="rgb(230,131,67)" d="M 1106.84 988.62 C 1123.51 961.931 1181.15 959.253 1195.56 987.966 C 1171.12 969.59 1130.6 963.436 1109.91 990.58 C 1108.62 989.848 1107.94 989.582 1106.84 988.62 z"/>
<path transform="translate(0,0)" fill="url(#Gradient1)" d="M 1080.35 1054.64 C 1086.85 1046.35 1084.4 1041.36 1089.05 1034.09 L 1091.81 1033.57 C 1094.61 1031.08 1093.86 1030.21 1094.73 1025.46 C 1095.43 1041.22 1090.23 1033.32 1088.47 1040.68 C 1099.05 1048.54 1096.78 1032.57 1099.25 1028.22 L 1100.68 1028.46 C 1100.56 1034.57 1097.34 1037.41 1098.81 1045.62 C 1100.47 1051.96 1103.4 1056.17 1104.28 1059.38 C 1097.32 1060.1 1087.16 1059.62 1080.16 1059.38 L 1080.35 1054.64 z"/>
<path transform="translate(0,0)" fill="rgb(35,134,119)" d="M 1146.57 977.373 C 1173.06 974.024 1197.25 992.809 1200.55 1019.31 C 1203.86 1045.8 1185.04 1069.96 1158.54 1073.22 C 1132.09 1076.48 1108 1057.71 1104.7 1031.27 C 1101.4 1004.83 1120.14 980.714 1146.57 977.373 z"/>
<path transform="translate(0,0)" fill="rgb(49,178,165)" d="M 1142.61 983.897 C 1165.46 978.286 1188.53 992.29 1194.1 1015.15 C 1199.67 1038.02 1185.63 1061.06 1162.75 1066.59 C 1139.94 1072.11 1116.96 1058.11 1111.41 1035.3 C 1105.85 1012.49 1119.81 989.493 1142.61 983.897 z"/>
<path transform="translate(0,0)" fill="rgb(1,26,22)" d="M 1156.7 992.224 C 1167.69 992.209 1173.11 997.255 1182.07 1003.44 C 1178.15 1006.7 1173.58 1009.69 1169.36 1012.62 C 1172.93 1043.15 1140.46 1040.69 1173.35 1052.9 L 1173.36 1054.12 C 1168.1 1055.64 1161.23 1055.54 1155.62 1055.77 C 1151.97 1055.53 1150.06 1055.69 1146.76 1054.05 C 1144.81 1051.33 1145.19 1050.05 1145.25 1046.67 L 1145.29 1045.48 L 1143.69 1044.41 L 1141.22 1044.93 C 1137.6 1054.92 1133.19 1053.25 1123.99 1052.98 C 1133.65 1039.7 1132.94 1035.17 1139.61 1020.92 C 1141.5 1017.63 1148.62 1014.55 1149.13 1010.73 C 1150.45 1000.74 1144.48 997.368 1156.7 992.224 z"/>
<path transform="translate(0,0)" fill="rgb(49,178,165)" d="M 1151.11 1010.86 C 1158.72 1015.01 1172.37 1013.28 1166.33 1026.73 C 1163.04 1034.06 1159.24 1038.12 1151.7 1040.94 C 1149.23 1041.03 1148.11 1040.94 1145.64 1040.72 C 1145.44 1037.81 1155.24 1033.46 1157.54 1028.55 C 1162.74 1017.46 1153.23 1019.32 1151.11 1010.86 z"/>
<path transform="translate(0,0)" fill="rgb(49,178,165)" d="M 1149.02 1016.91 C 1166.64 1021.54 1147.05 1034.9 1140.86 1038.74 C 1137.99 1039.85 1139.25 1039.98 1136.84 1039.32 C 1135.09 1032.35 1142.68 1020.43 1149.02 1016.91 z"/>
<path transform="translate(0,0)" fill="rgb(49,178,165)" d="M 1153.82 996.227 C 1158.89 996.006 1164.59 994.413 1167.59 998.592 C 1167.35 1001.87 1168.01 1000.59 1165.79 1002.69 C 1163.71 1001.9 1161.76 1001.25 1159.66 1000.55 L 1158.32 1001.62 C 1158.66 1005.04 1159.57 1006.39 1162.52 1007.8 C 1169.87 1006.49 1168.96 1007.07 1171.39 1000.57 L 1173.74 1000.82 L 1175.21 1002.64 L 1174.89 1004.57 C 1170.37 1009.75 1161.33 1015.02 1154.58 1011.31 C 1151.04 1007.08 1150.62 1000.78 1153.82 996.227 z"/>
<path transform="translate(0,0)" fill="rgb(49,178,165)" d="M 1150.83 1043.4 C 1155.34 1044.43 1157.7 1045.91 1159.35 1050.28 L 1157.67 1051.77 C 1153.44 1052.07 1149.8 1052.95 1146.76 1049.72 C 1147.75 1045.75 1147.65 1046.81 1150.83 1043.4 z"/>
<path transform="translate(0,0)" fill="rgb(239,165,118)" d="M 1585.92 989.217 C 1601.22 967.64 1652.76 964.811 1665.01 988.467 C 1673.16 990.431 1690.07 989.839 1699.18 989.71 C 1695.48 996.302 1689.61 1008.53 1684.49 1013 C 1684.05 1013.39 1683.27 1014.47 1683 1014.83 L 1686.05 1015.79 C 1687.02 1020.02 1685.62 1030.19 1682.74 1033.48 C 1680.4 1032.34 1681.09 1032.73 1679.11 1030.97 C 1676.68 1033.13 1676.46 1037.47 1676.28 1040.59 C 1672.71 1049.05 1671.11 1052.58 1665.13 1059.97 L 1663.95 1061.01 C 1647.92 1083.24 1603.24 1086.39 1590.23 1062.1 L 1589.2 1060.08 C 1588.03 1058.21 1586.14 1055.87 1584.76 1054.06 C 1581.54 1045.01 1578.32 1045.81 1575.89 1031.3 L 1575.68 1029.98 L 1574.31 1029.13 C 1572.8 1023.12 1570.8 1022.51 1569.2 1016.25 L 1568.8 1015.58 C 1563.19 1013.45 1564.06 1013.02 1563.07 1007.74 C 1561.37 1001.67 1557.69 996.393 1554.36 991.024 C 1561.01 990.994 1564.47 990.981 1571.09 990.057 C 1576.03 989.749 1580.98 989.469 1585.92 989.217 z"/>
<path transform="translate(0,0)" fill="rgb(202,100,61)" d="M 1665.01 988.467 C 1673.16 990.431 1690.07 989.839 1699.18 989.71 C 1695.48 996.302 1689.61 1008.53 1684.49 1013 C 1684.05 1013.39 1683.27 1014.47 1683 1014.83 L 1681.72 1016.11 C 1679.24 1013.79 1666.82 992.148 1665.01 988.467 z"/>
<path transform="translate(0,0)" fill="rgb(202,100,61)" d="M 1571.09 990.057 C 1576.03 989.749 1580.98 989.469 1585.92 989.217 C 1584.6 995.407 1581.66 999.2 1579.21 1004.93 C 1574.93 1010.52 1568.82 1014.46 1563.07 1007.74 C 1561.37 1001.67 1557.69 996.393 1554.36 991.024 C 1561.01 990.994 1564.47 990.981 1571.09 990.057 z"/>
<path transform="translate(0,0)" fill="rgb(230,131,67)" d="M 1590.23 1062.1 C 1595.67 1063.15 1603.44 1070.04 1610.77 1072.47 C 1631.66 1079.38 1646.76 1069.07 1663.95 1061.01 C 1647.92 1083.24 1603.24 1086.39 1590.23 1062.1 z"/>
<path transform="translate(0,0)" fill="rgb(230,131,67)" d="M 1579.21 1004.93 C 1578.34 1010 1577.65 1018.83 1574.39 1022.04 C 1571.57 1020.82 1570.85 1018.91 1569.2 1016.25 L 1568.8 1015.58 C 1563.19 1013.45 1564.06 1013.02 1563.07 1007.74 C 1568.82 1014.46 1574.93 1010.52 1579.21 1004.93 z"/>
<path transform="translate(0,0)" fill="rgb(189,134,26)" d="M 1589.57 998.725 C 1602.15 981.288 1625.31 975.179 1644.85 984.138 C 1664.4 993.097 1674.89 1014.63 1669.89 1035.54 C 1664.9 1056.45 1645.81 1070.92 1624.33 1070.08 C 1602.84 1069.23 1584.95 1053.32 1581.6 1032.08 C 1579.76 1020.35 1582.62 1008.36 1589.57 998.725 z"/>
<path transform="translate(0,0)" fill="rgb(244,196,38)" d="M 1587.11 1011.75 C 1601.99 977.185 1652.68 975.981 1664.52 1013.09 C 1675.72 1048.15 1634.09 1078.76 1602.71 1057.57 C 1596.41 1053.55 1589.47 1048.1 1588.95 1040.65 C 1590.83 1038.42 1589.75 1039.32 1592.49 1038.28 C 1588.92 1034.08 1587.83 1034.65 1586.88 1028.94 L 1586.04 1028.85 C 1585.03 1025.76 1586.62 1015.56 1587.11 1011.75 z"/>
<path transform="translate(0,0)" fill="rgb(25,18,3)" d="M 1629.94 1002.06 C 1641.01 1005.27 1665.64 1014.79 1661.03 1030.3 C 1650.79 1042.56 1631.75 1028.15 1635.42 1049.78 C 1632.04 1053.28 1627.3 1052.32 1623.8 1049.39 C 1622.97 1046.86 1622.09 1044.35 1621.17 1041.85 C 1617.42 1040.12 1611.35 1043.29 1605.81 1044.4 C 1599.42 1042.43 1598.03 1041.93 1592.49 1038.28 C 1588.92 1034.08 1587.83 1034.65 1586.88 1028.94 C 1590.87 1029.1 1592.43 1029.59 1596.28 1030.8 C 1600.27 1012.92 1613.09 1005.79 1629.94 1002.06 z"/>
<path transform="translate(0,0)" fill="rgb(244,196,38)" d="M 1606.05 1037.79 C 1610.52 1035.25 1612.54 1034.47 1612.23 1028.82 C 1609.48 1025.84 1607.44 1025.56 1603.38 1025.41 L 1602.32 1026.56 L 1601.57 1025.69 L 1602.54 1025.4 L 1602.22 1026.46 C 1605.29 1027.87 1609.29 1028.94 1610.35 1031.39 C 1607.3 1035.26 1603.81 1035.25 1600.19 1032.09 C 1596.89 1017.88 1621.48 1000.69 1632.02 1006.99 C 1632.61 1013.5 1632.44 1025.31 1631.28 1031.7 C 1622.42 1036.25 1608.7 1043.41 1599.15 1039.55 C 1601.62 1038.3 1603.27 1038.29 1606.05 1037.79 z"/>
<path transform="translate(0,0)" fill="rgb(244,196,38)" d="M 1633.94 1006.01 C 1640.49 1008.23 1644.43 1009.11 1649.78 1013.53 C 1654.76 1018.02 1657.08 1019.98 1658.62 1026.45 C 1657.77 1030.17 1657.23 1031.34 1653.16 1032.48 C 1647.05 1033.66 1642.9 1035.29 1637.33 1032.47 C 1632.24 1026.99 1634.12 1014.86 1633.94 1006.01 z"/>
<path transform="translate(0,0)" fill="rgb(223,173,57)" d="M 1649.78 1013.53 C 1654.76 1018.02 1657.08 1019.98 1658.62 1026.45 C 1657.77 1030.17 1657.23 1031.34 1653.16 1032.48 C 1649.51 1026.71 1650.58 1024.18 1649.22 1017.75 C 1646.67 1016.3 1645.31 1017.4 1641.48 1018.2 C 1644.53 1014.41 1644.34 1014.98 1649.78 1013.53 z"/>
<path transform="translate(0,0)" fill="rgb(223,173,57)" d="M 1599.15 1039.55 C 1596.56 1038.06 1593.33 1035.95 1592.15 1033.14 C 1596.86 1033.62 1600.16 1036.79 1606.05 1037.79 C 1603.27 1038.29 1601.62 1038.3 1599.15 1039.55 z"/>
<path transform="translate(0,0)" fill="rgb(195,130,37)" d="M 1589.57 998.725 C 1588.48 1003.5 1586.73 1007.21 1587.11 1011.75 C 1586.62 1015.56 1585.03 1025.76 1586.04 1028.85 L 1584.45 1030.47 L 1582.66 1030.12 L 1581.6 1032.08 C 1579.76 1020.35 1582.62 1008.36 1589.57 998.725 z"/>
<path transform="translate(0,0)" fill="rgb(233,163,121)" d="M 1471.77 989.597 C 1494.3 963.237 1531.97 964.455 1554.86 989.525 L 1571.09 990.057 C 1564.47 990.981 1561.01 990.994 1554.36 991.024 C 1557.69 996.393 1561.37 1001.67 1563.07 1007.74 C 1564.06 1013.02 1563.19 1013.45 1568.8 1015.58 L 1569.2 1016.25 C 1570.8 1022.51 1572.8 1023.12 1574.31 1029.13 L 1575.68 1029.98 L 1575.89 1031.3 C 1578.32 1045.81 1581.54 1045.01 1584.76 1054.06 C 1586.14 1055.87 1588.03 1058.21 1589.2 1060.08 C 1580.04 1059.67 1564.02 1058.99 1555.27 1059.64 C 1553.18 1063.25 1548.17 1067.87 1544.68 1070.28 C 1521.99 1085.98 1489.14 1083.89 1472.83 1060.11 C 1469.75 1056.11 1466.39 1049.04 1464.15 1044.34 C 1464.21 1034.19 1463.61 1024.13 1463.8 1013.98 C 1463.93 1007.2 1466.02 1002.62 1467.63 996.172 C 1469.99 993.257 1470.12 992.818 1471.77 989.597 z"/>
<path transform="translate(0,0)" fill="rgb(202,100,61)" d="M 1574.31 1029.13 L 1575.68 1029.98 L 1575.89 1031.3 C 1578.32 1045.81 1581.54 1045.01 1584.76 1054.06 C 1586.14 1055.87 1588.03 1058.21 1589.2 1060.08 C 1580.04 1059.67 1564.02 1058.99 1555.27 1059.64 C 1557.9 1054.37 1560.31 1052.03 1563.19 1045.32 L 1563.75 1040.4 C 1564.41 1033.1 1568.37 1031.74 1574.31 1029.13 z"/>
<path transform="translate(0,0)" fill="rgb(230,131,67)" d="M 1574.31 1029.13 L 1575.68 1029.98 L 1575.89 1031.3 C 1578.32 1045.81 1581.54 1045.01 1584.76 1054.06 C 1580.86 1051.96 1578.48 1046.46 1576.09 1042.32 L 1574.16 1042.22 C 1567.68 1039.63 1570.79 1036.5 1563.75 1040.4 C 1564.41 1033.1 1568.37 1031.74 1574.31 1029.13 z"/>
<path transform="translate(0,0)" fill="rgb(217,124,78)" d="M 1563.75 1040.4 C 1570.79 1036.5 1567.68 1039.63 1574.16 1042.22 C 1573.01 1044.72 1573.39 1045.44 1573.92 1048.1 C 1572.62 1048.8 1564.92 1045.86 1563.19 1045.32 L 1563.75 1040.4 z"/>
<path transform="translate(0,0)" fill="rgb(50,146,71)" d="M 1498.78 1068.62 C 1483.05 1063.45 1471.34 1050.17 1468.2 1033.9 C 1465.06 1017.64 1470.98 1000.95 1483.66 990.297 C 1496.34 979.641 1513.79 976.689 1529.27 982.582 C 1540.06 986.689 1548.89 994.73 1553.99 1005.09 C 1562.1 1021.57 1559.54 1041.32 1547.49 1055.19 C 1535.43 1069.06 1516.24 1074.35 1498.78 1068.62 z"/>
<path transform="translate(0,0)" fill="rgb(61,171,89)" d="M 1490.76 990.48 C 1519.66 980.707 1531.91 984.18 1551.21 1008.24 C 1562.67 1044.08 1528.9 1080.21 1494 1058.94 C 1482.93 1052.19 1484.47 1050.56 1477.27 1042.05 C 1466.11 1023.64 1475.03 1002.88 1490.76 990.48 z"/>
<path transform="translate(0,0)" fill="rgb(40,118,45)" d="M 1506.73 995.956 C 1514.92 995.533 1520.71 995.257 1528.35 999.175 C 1535.51 1002.78 1540.89 1009.14 1543.27 1016.8 C 1549.38 1036.07 1538.67 1049.8 1520.37 1054.98 C 1475.36 1057.8 1468.05 1008.1 1506.73 995.956 z"/>
<path transform="translate(0,0)" fill="rgb(61,171,89)" d="M 1496.31 1042.17 C 1494.17 1038.82 1494.08 1040.15 1494.48 1037.38 C 1502.33 1037.12 1525.27 1036.88 1532.06 1038.14 C 1534.81 1040.42 1534.17 1039.04 1534.49 1042.2 C 1527.05 1052.81 1499.01 1056.37 1494.89 1044.79 L 1496.31 1042.17 z"/>
<path transform="translate(0,0)" fill="rgb(50,146,71)" d="M 1532.06 1038.14 C 1534.81 1040.42 1534.17 1039.04 1534.49 1042.2 C 1527.05 1052.81 1499.01 1056.37 1494.89 1044.79 L 1496.31 1042.17 C 1505.48 1046.45 1513.36 1046.22 1523.06 1045.87 L 1524.46 1044.96 C 1528.72 1042.23 1529.34 1042.27 1532.06 1038.14 z"/>
<path transform="translate(0,0)" fill="rgb(2,51,10)" d="M 1500.36 1009.69 C 1505.1 1010.21 1510.51 1010.25 1514.39 1012.64 C 1515.99 1016.29 1515 1016.6 1514.18 1021.28 L 1512.3 1022 C 1513.24 1023.05 1514.19 1023.96 1515.24 1024.91 C 1509.51 1029.21 1501.42 1034.61 1494.14 1034.94 C 1492.97 1036.62 1492.66 1036.96 1491.22 1038.42 L 1491.59 1034.96 L 1490.72 1034.67 L 1488.75 1035.05 C 1487.31 1031.77 1488.49 1022.32 1489.38 1018.73 L 1490.02 1018.89 L 1490.18 1024.45 L 1492.08 1025.54 C 1495.4 1024.81 1493.84 1025.59 1496.37 1022.13 L 1495.42 1018.69 L 1493.86 1017.44 C 1496.05 1014.68 1498.04 1012.33 1500.36 1009.69 z"/>
<path transform="translate(0,0)" fill="rgb(61,171,89)" d="M 1500.36 1009.69 C 1505.1 1010.21 1510.51 1010.25 1514.39 1012.64 C 1515.99 1016.29 1515 1016.6 1514.18 1021.28 L 1512.3 1022 L 1511.71 1021.21 C 1509.8 1018.14 1510.03 1018.25 1506.92 1016.46 C 1502.48 1015.74 1499.73 1017.2 1495.42 1018.69 L 1493.86 1017.44 C 1496.05 1014.68 1498.04 1012.33 1500.36 1009.69 z"/>
<path transform="translate(0,0)" fill="rgb(50,146,71)" d="M 1511.71 1021.21 L 1512.3 1022 C 1513.24 1023.05 1514.19 1023.96 1515.24 1024.91 C 1509.51 1029.21 1501.42 1034.61 1494.14 1034.94 L 1492.85 1032.39 L 1493.62 1030.27 C 1500.2 1024.66 1506.95 1030.15 1511.71 1021.21 z"/>
<path transform="translate(0,0)" fill="rgb(2,51,10)" d="M 1521.92 1016.87 C 1522.49 1016.81 1523.07 1016.76 1523.64 1016.71 L 1525.32 1018.25 C 1526.57 1018.08 1526.04 1018 1526.93 1018.28 C 1525.37 1019.76 1526.07 1018.9 1524.87 1020.9 C 1528.93 1027.49 1526.71 1019.63 1530.49 1024.73 L 1529.19 1027.86 C 1523.78 1029.77 1521.3 1027.46 1518.92 1022.89 C 1519.12 1019 1518.8 1020.41 1521.92 1016.87 z"/>
<path transform="translate(0,0)" fill="rgb(40,118,45)" d="M 1498.78 1068.62 C 1483.05 1063.45 1471.34 1050.17 1468.2 1033.9 C 1465.06 1017.64 1470.98 1000.95 1483.66 990.297 C 1496.34 979.641 1513.79 976.689 1529.27 982.582 L 1527.34 982.84 C 1514.82 984.396 1501.14 979.633 1490.76 990.48 C 1475.03 1002.88 1466.11 1023.64 1477.27 1042.05 C 1481.26 1063.49 1495.78 1060.95 1498.78 1068.62 z"/>
</svg>