<svg version="1.1" xmlns="http://www.w3.org/2000/svg" style="display: block;" viewBox="0 0 2048 2048" width="1024" height="1024" preserveAspectRatio="none">
<path transform="translate(0,0)" fill="rgb(55,65,70)" d="M 987.14 224.542 C 996.529 223.645 1011.52 223.842 1021.22 223.778 C 1074.91 223.389 1138.47 230.131 1188.79 246.898 C 1239.37 263.751 1265.15 279.986 1281.43 329.873 C 1282.81 334.119 1297.13 358.473 1301.45 361.006 C 1332.66 379.347 1368.72 395.77 1403.24 407.075 C 1415.28 368.464 1416.77 325.744 1412.83 285.6 C 1447.95 286.684 1460.62 296.369 1474.39 329.02 C 1483.5 349.138 1491.57 369.797 1501.03 389.74 C 1504.77 397.43 1508.44 399.408 1516.47 401.747 C 1529.61 405.572 1543.12 407.912 1556.41 411.175 C 1567.19 413.845 1577.89 416.833 1588.5 420.136 C 1634.7 434.394 1678.86 453.341 1718.7 481.049 C 1821.82 552.766 1863.52 694.869 1826.72 813.214 C 1840.22 854.256 1847.02 871.544 1831.97 913.938 C 1835.13 921.723 1837.99 929.625 1840.54 937.627 C 1843.78 947.806 1851.95 976.751 1846.97 986.307 C 1842.28 988.336 1794.13 986.926 1782.04 987.804 C 1746.6 990.381 1716.99 995.459 1682.32 1003.9 C 1672.85 1006.21 1631.79 1018.18 1625.19 1016.32 C 1619.85 1014.83 1603.32 963.23 1599.01 953.623 C 1594.18 954.528 1592.03 955.244 1587.19 954.536 C 1583.6 952.677 1565.7 911.198 1559.52 902.142 L 1558.67 900.9 C 1551.7 928.487 1547.46 965.06 1544.36 993.256 C 1541.32 1020.88 1538 1050.44 1535.85 1078.13 C 1537.02 1079.53 1540.69 1083.47 1541.92 1084.56 C 1549.39 1091.18 1551.59 1099.08 1550.93 1109.26 C 1546.92 1171.85 1498.62 1292.66 1455.28 1333.96 C 1450.52 1370.21 1441.32 1405.73 1427.88 1439.73 C 1423.61 1450.31 1418.46 1459.6 1413.97 1469.91 C 1418.29 1499.92 1422.19 1529.98 1425.66 1560.1 C 1432.85 1619.8 1440.76 1631.63 1382.29 1664 C 1312.15 1702.82 1236.74 1731.67 1165.07 1767.47 C 1128.3 1785.83 1092.24 1801.79 1053.76 1816.23 C 1020 1828.4 1021.4 1826.39 987.201 1813.96 C 932.132 1793.95 881.022 1766.58 828.049 1741.89 C 774.671 1717.01 720.413 1693.61 668.628 1665.51 C 656.013 1657.67 630.477 1642.58 622.499 1631.01 C 611.938 1615.7 621.242 1568.82 623.485 1551.09 L 633.372 1470.23 C 612.943 1424.45 597.7 1385.63 592.642 1334.45 C 587.146 1329.56 580.681 1323.4 576.406 1317.15 C 540.182 1264.18 513.492 1198.56 500.497 1135.82 C 498.136 1124.42 495.984 1110.03 497.296 1098.52 C 498.342 1089.35 504.58 1086.85 512.065 1081.64 C 506.816 1021.87 500.767 959.388 489.63 900.514 C 482.714 910.698 477.961 919.578 472.795 930.754 C 469.025 938.911 465.518 948.827 460.561 956.057 L 448.742 954.224 C 441.846 970.129 432.409 1000.34 422.845 1015.02 C 420.224 1019.05 393.881 1011.21 387.389 1009.41 C 327.13 992.654 266.379 984.847 203.813 987.912 C 187.992 988.681 212.877 922.479 215.962 913.791 C 201.23 872.383 207.769 854.302 220.087 813.813 C 212.561 784.279 208.214 763.274 208.188 732.493 C 208.05 564.838 303.512 468.346 455.637 421.345 C 466.807 417.869 478.06 414.664 489.385 411.733 C 498.334 409.433 535.106 402.468 539.679 397.255 C 576.435 355.348 561.666 285.484 635.32 286.252 C 633.664 330.147 630.504 363.174 645.155 406.651 C 674.693 397.62 719.918 377.148 747.287 360.734 C 749.159 359.612 764.123 334.047 766.238 329.682 C 772.962 315.807 775.961 298.45 787.556 286.542 C 830.122 242.83 929.034 227.527 987.14 224.542 z"/>
<path transform="translate(0,0)" fill="rgb(161,163,163)" d="M 1308.97 397.939 C 1338.42 412.056 1363.62 422.68 1393.38 435.552 C 1375.19 488.666 1339.45 541.078 1301.01 581.88 C 1285.71 598.12 1249.05 623.663 1246.97 646.235 C 1244.9 668.541 1266.21 705.94 1274.93 726.937 C 1307.51 794.659 1356.39 857.404 1416.55 902.705 C 1428.09 911.393 1445.74 924.116 1459.26 928.774 C 1461.03 929.379 1462.81 929.939 1464.61 930.453 C 1473.09 932.568 1483.07 933.381 1490.58 935.451 C 1487.37 955.185 1481.07 973.498 1473.89 992.041 C 1437.7 1085.61 1376.81 1164.77 1266.76 1161.96 C 1239.57 1162.85 1200.22 1157.32 1173.56 1152.97 C 1135.14 1146.69 1101.07 1140.76 1062.16 1137.67 C 1119.73 1179.4 1242.55 1207.01 1313.6 1196.48 C 1371.07 1187.96 1419.19 1151.13 1452.45 1104.75 C 1461.62 1091.96 1468.87 1079.4 1476.83 1065.85 C 1488.24 1073.34 1510.38 1095.33 1519.22 1106.37 C 1518.22 1147.38 1490.44 1216.63 1471.98 1253.56 C 1467.61 1262.31 1461.82 1275.36 1455.08 1282.39 C 1452.34 1285.23 1446.38 1287.68 1442.52 1288.5 C 1431.52 1290.83 1419.14 1291.26 1407.91 1292.23 C 1381.84 1294.49 1355.7 1296.46 1329.54 1295.13 C 1279.51 1292.58 1231.71 1275.49 1184.94 1258.81 C 1178.48 1256.5 1156.06 1249.47 1152.05 1247.44 C 1052.51 1216.67 994.698 1218.37 896.168 1247.55 C 892.258 1249.49 886.193 1251.04 881.907 1252.43 C 835.786 1267.39 791.227 1286.19 742.822 1292.69 C 732.207 1294.13 721.515 1294.95 710.803 1295.12 C 691.782 1295.44 606.853 1293.98 595.132 1284.33 C 586.235 1277.01 580.802 1263.42 575.742 1253.28 C 553.482 1208.68 532.393 1156.79 528.257 1106.66 C 537.6 1095.38 559.377 1073.92 571.113 1066.16 C 579.851 1079.8 585.6 1091.38 595.553 1105.26 C 628.552 1151.29 674.865 1186.83 731.487 1196.15 C 803.411 1208 927.447 1179.78 986.494 1137.78 C 964.835 1137.94 938.039 1142.82 916.652 1146.23 C 882.578 1151.65 848.417 1158.12 813.947 1160.72 C 806.01 1161.32 785.576 1163.15 778.192 1162.14 C 740.481 1162.46 708.03 1154.46 676.13 1134.13 C 615.826 1095.72 570.881 1004.99 556.749 935.336 C 563.89 933.436 574.986 932.232 583.258 930.412 C 597.507 926.441 616.155 913.74 628.555 904.59 C 709.089 845.129 767.2 756.325 799.619 662.396 C 809.593 633.499 777.32 611.909 759.485 594.821 C 713.421 550.685 676.359 494.824 654.025 435.114 C 682.785 423.952 711.09 411.653 738.874 398.245 C 759.518 433.207 773.661 454.359 805.896 481.124 C 813.796 487.683 823.928 493.529 831.658 499.973 L 833.177 501.255 C 960.996 584.066 1090.53 583.143 1217.68 499.27 C 1221.32 495.208 1242.35 480.519 1248.04 475.65 C 1276.04 451.711 1291.02 429.06 1308.97 397.939 z"/>
<path transform="translate(0,0)" fill="rgb(219,220,219)" d="M 1464.61 930.453 C 1473.09 932.568 1483.07 933.381 1490.58 935.451 C 1487.37 955.185 1481.07 973.498 1473.89 992.041 C 1437.7 1085.61 1376.81 1164.77 1266.76 1161.96 C 1269.56 1160.15 1275.86 1157.59 1279.07 1156.43 C 1366.08 1125.03 1423.79 1048.25 1453.18 963.349 C 1456.81 952.845 1460.33 941.156 1464.61 930.453 z"/>
<path transform="translate(0,0)" fill="rgb(219,220,219)" d="M 556.749 935.336 C 563.89 933.436 574.986 932.232 583.258 930.412 C 591.237 950.184 596.846 970.665 605.681 991.666 C 628.46 1045.81 666.388 1099.02 716.538 1130.57 C 728.746 1138.14 741.4 1144.96 754.433 1151 C 759.398 1153.32 774.093 1159.65 778.192 1162.14 C 740.481 1162.46 708.03 1154.46 676.13 1134.13 C 615.826 1095.72 570.881 1004.99 556.749 935.336 z"/>
<path transform="translate(0,0)" fill="rgb(219,220,219)" d="M 1217.68 499.27 C 1206.77 521.904 1131.47 558.472 1106.84 567.644 C 1040.04 592.525 971.945 585.959 908.792 554.314 C 896.021 547.915 833.689 512.535 833.177 501.255 C 960.996 584.066 1090.53 583.143 1217.68 499.27 z"/>
<path transform="translate(0,0)" fill="rgb(219,220,219)" d="M 896.168 1247.55 C 897.656 1243.37 903.112 1241.41 907.604 1239.27 C 976.953 1206.31 1042.88 1201.75 1114.91 1228.59 C 1120.66 1230.73 1149.69 1242.02 1152.58 1246.2 L 1152.05 1247.44 C 1052.51 1216.67 994.698 1218.37 896.168 1247.55 z"/>
<path transform="translate(0,0)" fill="rgb(55,65,70)" d="M 1007.03 858.408 C 1014.21 857.314 1031.04 857.796 1038.46 858.275 C 1089.48 861.57 1131.01 884.317 1169.09 917.199 C 1179.86 926.499 1189.86 938.151 1200.97 947.156 C 1207.04 952.067 1223.6 954.754 1228.49 960.472 C 1229.71 977.018 1210.86 974.926 1199.39 974.988 C 1187.67 981.604 1175.39 994.244 1164.28 1002.76 C 1128.48 1030.18 1088.94 1048.17 1043.64 1051.16 C 989.391 1059.17 926.338 1036.14 884.216 1003.22 C 872.947 994.414 862.404 983.871 850.947 975.861 L 849.799 975.068 C 846.01 974.965 812.648 976.999 820.578 960.061 C 822.859 955.187 843.312 951.66 848.311 946.559 C 894.718 899.206 938.316 865.051 1007.03 858.408 z"/>
<path transform="translate(0,0)" fill="rgb(161,163,163)" d="M 1082.97 889.563 C 1114.85 904.343 1157.09 930.76 1176.71 960.191 C 1152.91 982.51 1134.25 999.339 1104.31 1013.85 C 1015.68 1056.83 938.155 1024.38 871.449 960.599 L 871.477 958.8 C 889.259 932.176 936.549 901.998 965.574 889.538 C 955.988 900.459 953.974 903.571 947.594 916.722 C 943.04 931.28 942.152 946.105 945.767 960.981 C 950.636 981.494 963.541 999.192 981.584 1010.1 C 1000.26 1021.25 1024.18 1024.41 1045.19 1019.03 C 1065.3 1014.01 1082.51 1001.06 1092.91 983.136 C 1106.07 960.645 1105.96 939.248 1099.39 914.859 C 1093.89 902.85 1091.62 899.593 1082.97 889.563 z"/>
<path transform="translate(0,0)" fill="rgb(219,220,219)" d="M 965.574 889.538 C 955.988 900.459 953.974 903.571 947.594 916.722 C 924.739 926.899 904.334 938.491 883.552 952.411 C 879.709 954.985 876.615 958.775 872.088 959.109 L 871.477 958.8 C 889.259 932.176 936.549 901.998 965.574 889.538 z"/>
<path transform="translate(0,0)" fill="rgb(219,220,219)" d="M 1082.97 889.563 C 1114.85 904.343 1157.09 930.76 1176.71 960.191 C 1169.12 957.863 1146.31 939.645 1137.7 934.591 C 1124.58 926.889 1113.45 921.234 1099.39 914.859 C 1093.89 902.85 1091.62 899.593 1082.97 889.563 z"/>
<path transform="translate(0,0)" fill="rgb(161,163,163)" d="M 1051.6 910.79 C 1074.47 911.334 1082.97 917.722 1083.29 942.313 C 1083.52 957.637 1077.5 972.392 1066.61 983.178 C 1055.12 994.895 1039.42 1001.52 1023.01 1001.58 C 987.868 1001.41 962.053 970.63 964.098 936.266 C 964.807 924.361 971.103 918.23 979.571 911.163 C 980.12 920.408 979.728 922.663 985.449 930.062 L 986.216 931.067 C 983.452 941.305 986.708 953.48 992.138 962.389 C 997.187 970.844 1005.51 976.831 1015.13 978.925 C 1025.62 981.214 1036.59 979.145 1045.52 973.192 C 1054.49 967.006 1060.55 957.422 1062.28 946.663 C 1064.81 931.814 1059.77 922.17 1051.6 910.79 z"/>
<path transform="translate(0,0)" fill="rgb(219,220,219)" d="M 979.571 911.163 C 984.017 904.447 988.508 897.922 997.041 896.47 C 1009.57 894.337 1021.48 901.56 1022.75 914.557 C 1023.34 920.522 1021.39 926.459 1017.4 930.925 C 1013.83 934.901 1008.78 937.22 1003.44 937.329 C 996.488 937.522 991.606 935.046 986.216 931.067 L 985.449 930.062 C 979.728 922.663 980.12 920.408 979.571 911.163 z"/>
<path transform="translate(0,0)" fill="rgb(55,65,70)" d="M 1007.66 809.41 C 1010.02 808.919 1023.61 808.633 1026.76 808.654 C 1074.48 808.971 1117.36 830.325 1157.14 854.637 C 1174.18 865.047 1193.73 879.21 1213.01 883.912 C 1225.53 886.966 1237.97 884.58 1250.38 882.233 C 1217.96 915.095 1187.44 898.615 1153 880.641 C 1118.93 862.858 1081.12 843.633 1042.24 841.08 C 986.011 833.804 937.328 858.038 889.435 883.448 C 858.11 900.067 826.624 913.187 797.835 883.05 C 833.448 891.043 849.857 879.8 879.243 861.466 C 919.341 836.448 959.597 813.757 1007.66 809.41 z"/>
<path transform="translate(0,0)" fill="rgb(55,65,70)" d="M 853.268 591.631 C 879.28 600.773 1008.78 644.717 1025.78 643.353 C 1039.7 642.236 1055.09 635.965 1068.48 631.947 C 1109.22 619.713 1149.39 605.423 1190.25 593.645 C 1186.43 596.871 1176.16 601.319 1171.29 604.462 L 1169.73 605.487 C 1167.05 614.389 1089.69 653.764 1077.1 662.04 C 1059.94 673.31 1047.94 707.479 1039.12 725.516 C 1035.96 731.972 1034.98 738.108 1030.54 743.966 C 1028.39 749.414 1025.04 770.551 1023.9 777.136 C 1020.41 765.367 1019.69 750.773 1016.36 740.069 L 1014.87 740.366 C 1012.31 736.569 1008.85 725.486 1006.77 721.281 C 989.588 686.672 984.698 664.911 946.625 649.37 C 937.3 645.563 882.832 612.833 879.323 606.304 C 876.387 603.252 859.645 596.762 853.268 591.631 z"/>
<path transform="translate(0,0)" fill="rgb(219,220,219)" d="M 879.323 606.304 C 898.095 615.791 916.966 625.082 935.933 634.173 C 944.155 638.132 978.444 653.222 982.345 657.667 C 1000.76 678.648 1011.94 712.718 1016.36 740.069 L 1014.87 740.366 C 1012.31 736.569 1008.85 725.486 1006.77 721.281 C 989.588 686.672 984.698 664.911 946.625 649.37 C 937.3 645.563 882.832 612.833 879.323 606.304 z"/>
<path transform="translate(0,0)" fill="rgb(219,220,219)" d="M 1169.73 605.487 C 1167.05 614.389 1089.69 653.764 1077.1 662.04 C 1059.94 673.31 1047.94 707.479 1039.12 725.516 C 1035.96 731.972 1034.98 738.108 1030.54 743.966 C 1034.44 720.656 1047.21 674.54 1065.35 658.186 C 1074.94 649.541 1115.11 632.558 1128.56 626.11 C 1142.35 619.36 1156.07 612.485 1169.73 605.487 z"/>
<path transform="translate(0,0)" fill="rgb(161,163,163)" d="M 368.996 806.982 C 341.817 807.958 279.657 811.834 254.43 800.5 C 243.915 795.776 242.271 727.823 242.802 713.052 C 247.879 571.554 348.577 486.603 476.723 452.102 C 492.423 447.874 508.211 442.495 524.584 439.566 C 535.459 454.886 544.127 471.763 555.152 486.963 C 600.317 549.224 659.349 600.785 726.489 638.202 C 737.213 644.178 750.965 651.833 760.873 658.97 C 753.223 687.305 741.145 713.068 726.783 738.654 C 693.548 797.863 647.612 850.198 591.012 888.048 C 590.113 888.65 589.214 889.065 588.26 889.534 L 586.015 891.053 C 575.298 891.869 545.694 857.956 537.463 849.511 C 506.113 817.345 469.837 776.298 432.85 750.723 C 438.107 760.777 445.937 773.193 446.353 784.714 C 446.493 788.614 445.503 792.374 442.756 795.243 C 434.076 804.313 383.757 806.137 368.996 806.982 z"/>
<path transform="translate(0,0)" fill="rgb(219,220,219)" d="M 368.996 806.982 C 341.817 807.958 279.657 811.834 254.43 800.5 C 243.915 795.776 242.271 727.823 242.802 713.052 C 247.879 571.554 348.577 486.603 476.723 452.102 C 492.423 447.874 508.211 442.495 524.584 439.566 C 535.459 454.886 544.127 471.763 555.152 486.963 C 600.317 549.224 659.349 600.785 726.489 638.202 C 737.213 644.178 750.965 651.833 760.873 658.97 C 753.223 687.305 741.145 713.068 726.783 738.654 C 693.548 797.863 647.612 850.198 591.012 888.048 C 590.113 888.65 589.214 889.065 588.26 889.534 L 587.803 888.83 C 588.428 887.092 626.603 852.024 632.407 845.613 C 665.52 809.042 731.213 718.93 728.81 669.559 C 722.324 658.311 703.424 646.833 692.342 639.203 C 639.613 603.111 590.467 562.362 549.41 513.188 C 537.569 499.007 527.774 484.873 516.519 470.505 C 447.4 489.649 382.278 519.948 336.575 577.945 C 297.751 627.212 273.358 723.642 294.573 783.799 C 307.286 789.535 323.127 793.407 336.601 797.081 C 342.614 798.72 365.913 802.846 370.34 805.553 L 368.996 806.982 z"/>
<path transform="translate(0,0)" fill="rgb(161,163,163)" d="M 1522.89 440.264 C 1533.63 441.214 1550.04 445.975 1560.8 449.187 C 1606.83 462.919 1649.7 478.628 1690.04 505.045 C 1751.02 544.972 1785.74 601.496 1800.4 672.286 C 1806.56 701.985 1809.17 777.581 1792.6 801.944 C 1756.4 810.681 1718.21 808.573 1681.3 806.992 C 1673.75 806.777 1666.28 806.051 1658.78 805.218 C 1607.49 799.512 1585.92 806.511 1614.53 750.729 C 1601.32 760.027 1589.75 771.425 1577.55 781.896 C 1541.19 813.092 1511.44 850.463 1476.42 882.854 C 1472.69 886.305 1467.87 889.885 1462.77 890.642 L 1461.79 890.267 C 1459.35 889.328 1452.97 885.33 1450.63 883.701 C 1391.25 842.454 1343.84 784.371 1311.23 720.139 C 1300.71 699.436 1291.99 681.22 1287.31 658.569 C 1309.43 643.736 1334.38 631.653 1356.64 616.844 C 1408.08 582.636 1453.37 539.662 1490.26 490.11 C 1502.34 473.872 1511.4 456.379 1522.89 440.264 z"/>
<path transform="translate(0,0)" fill="rgb(219,220,219)" d="M 1522.89 440.264 C 1533.63 441.214 1550.04 445.975 1560.8 449.187 C 1606.83 462.919 1649.7 478.628 1690.04 505.045 C 1751.02 544.972 1785.74 601.496 1800.4 672.286 C 1806.56 701.985 1809.17 777.581 1792.6 801.944 C 1756.4 810.681 1718.21 808.573 1681.3 806.992 C 1679.59 806.579 1678.98 806.198 1677.23 806.475 L 1675.27 805.232 C 1677.07 804.431 1693.42 801.212 1696.24 800.518 C 1713.45 796.291 1737.43 790.597 1752.8 782.526 C 1762.45 753.824 1760.39 712.416 1755.68 682.846 C 1738.34 573.84 1656.41 510.706 1557.16 478.08 C 1548.4 475.187 1539.58 472.501 1530.69 470.025 C 1493.69 528.602 1437.35 579.604 1381.82 620.195 C 1362.97 633.972 1341.12 647.637 1324.08 662.756 C 1310.28 674.992 1328.52 712.599 1334.78 726.093 C 1356.6 773.686 1386.68 817.036 1423.62 854.134 C 1430.04 860.678 1436.67 867.016 1443.49 873.137 C 1446.76 876.011 1461.27 887.089 1461.79 890.267 C 1459.35 889.328 1452.97 885.33 1450.63 883.701 C 1391.25 842.454 1343.84 784.371 1311.23 720.139 C 1300.71 699.436 1291.99 681.22 1287.31 658.569 C 1309.43 643.736 1334.38 631.653 1356.64 616.844 C 1408.08 582.636 1453.37 539.662 1490.26 490.11 C 1502.34 473.872 1511.4 456.379 1522.89 440.264 z"/>
<path transform="translate(0,0)" fill="rgb(161,163,163)" d="M 888.273 1508.51 C 988.391 1455.74 1060.94 1457.66 1161.03 1508.62 C 1180.99 1515.77 1190.2 1513.94 1209.43 1507.96 C 1201.54 1548.79 1196.31 1592.33 1189.28 1633.67 C 1183.79 1662.69 1183.49 1695.92 1173.09 1723.52 C 1167.85 1737.42 1136.35 1748.75 1122.97 1754.65 C 1090.54 1769.23 1057.55 1782.54 1024.07 1794.52 C 997.383 1785.82 903.745 1749.56 883.195 1733.64 C 877.227 1729.02 873.54 1722.45 871.331 1715.32 C 867.687 1703.56 866.549 1690.46 864.832 1678.29 L 856.978 1622.9 C 851.435 1584.94 843.563 1545.57 838.658 1508.18 C 858.759 1513.37 868.048 1516.02 888.273 1508.51 z"/>
<path transform="translate(0,0)" fill="rgb(219,220,219)" d="M 888.273 1508.51 C 988.391 1455.74 1060.94 1457.66 1161.03 1508.62 C 1155.43 1509.64 1137.02 1504.76 1126.53 1502.21 C 1071.59 1488.87 1013.15 1487.5 957.17 1495 C 947.805 1496.26 891.797 1510.28 888.273 1508.51 z"/>
<path transform="translate(0,0)" fill="rgb(55,65,70)" d="M 819.21 387.294 C 818 386.402 817.717 386.1 816.673 385.057 C 802.056 370.457 789.903 352.775 790.161 331.319 C 790.318 318.212 798.485 303.843 808.25 295.276 C 861.171 248.843 969.586 238.408 1037.26 239.789 C 1098.52 241.039 1197.9 253.851 1242.99 298.581 C 1252.1 307.614 1258.61 321.322 1257.72 334.246 C 1256.32 354.515 1245.24 370.915 1230.99 384.389 C 1185.62 433.05 1098.65 462.257 1033 464.163 C 962.061 466.222 870.213 438.312 819.21 387.294 z"/>
<path transform="translate(0,0)" fill="rgb(161,163,163)" d="M 819.21 387.294 C 818 386.402 817.717 386.1 816.673 385.057 C 802.056 370.457 789.903 352.775 790.161 331.319 C 790.318 318.212 798.485 303.843 808.25 295.276 C 861.171 248.843 969.586 238.408 1037.26 239.789 C 1098.52 241.039 1197.9 253.851 1242.99 298.581 C 1252.1 307.614 1258.61 321.322 1257.72 334.246 C 1256.32 354.515 1245.24 370.915 1230.99 384.389 C 1221.82 386.807 1203.51 392.687 1195.23 393.585 C 1218.54 373.28 1249.74 340.914 1223.7 309.551 C 1196.95 277.332 1132.77 263.546 1091.31 259.177 C 1009.72 250.578 906.082 252.358 835.177 298.568 C 825.102 305.591 816.016 319.11 815.04 331.471 C 813.515 350.781 822.55 363.326 834.221 377.084 C 836.145 382.47 836.151 380.391 835.237 385.747 L 832.373 388.902 C 831.063 388.84 828.317 388.624 827.14 388.711 C 823.448 387.711 822.976 387.559 819.21 387.294 z"/>
<path transform="translate(0,0)" fill="rgb(219,220,219)" d="M 834.221 377.084 C 840.091 383.101 844.967 388.511 851.949 393.283 C 870.546 401.691 885.437 411.555 905.364 419.455 C 979.948 448.959 1062.84 449.69 1137.93 421.505 C 1151.3 416.488 1162.82 410.893 1175.3 404.178 C 1179.46 401.94 1191.43 395.049 1195.23 393.585 C 1203.51 392.687 1221.82 386.807 1230.99 384.389 C 1185.62 433.05 1098.65 462.257 1033 464.163 C 962.061 466.222 870.213 438.312 819.21 387.294 C 822.976 387.559 823.448 387.711 827.14 388.711 C 828.317 388.624 831.063 388.84 832.373 388.902 L 835.237 385.747 C 836.151 380.391 836.145 382.47 834.221 377.084 z"/>
<path transform="translate(0,0)" fill="rgb(129,131,132)" d="M 834.221 377.084 C 840.091 383.101 844.967 388.511 851.949 393.283 C 841.466 393.144 836.871 393.123 827.14 388.711 C 828.317 388.624 831.063 388.84 832.373 388.902 L 835.237 385.747 C 836.151 380.391 836.145 382.47 834.221 377.084 z"/>
<path transform="translate(0,0)" fill="rgb(161,163,163)" d="M 762.556 1328.64 C 766.073 1325.63 805.543 1316.3 814.359 1313.42 C 897.136 1286.34 958.167 1254.27 1048.24 1261.41 C 1116.55 1266.82 1167.92 1291.9 1232.28 1313.22 C 1241.02 1316.11 1281.83 1325.98 1285.02 1327.97 L 1285.7 1329.03 C 1264.28 1368.96 1239.56 1405.29 1224.91 1448.9 C 1221.5 1459.04 1215.58 1470.38 1206.16 1476.05 C 1197.19 1481.35 1186.6 1483.24 1176.35 1481.35 C 1166.1 1479.54 1151.94 1471.91 1141.93 1467.41 C 1108.56 1451.74 1076.31 1442.71 1039.51 1441.2 C 993.07 1439.29 952.644 1445.29 910.537 1465.46 C 900.282 1470.38 885.225 1477.97 874.357 1480.39 C 866.192 1482.24 857.696 1482.01 849.643 1479.72 C 828.94 1473.73 824.234 1451.71 817.17 1433.9 C 813.435 1424.6 809.384 1415.42 805.025 1406.39 C 791.758 1378.53 777.001 1355.33 762.556 1328.64 z"/>
<path transform="translate(0,0)" fill="rgb(219,220,219)" d="M 762.556 1328.64 C 766.073 1325.63 805.543 1316.3 814.359 1313.42 C 897.136 1286.34 958.167 1254.27 1048.24 1261.41 C 1116.55 1266.82 1167.92 1291.9 1232.28 1313.22 C 1241.02 1316.11 1281.83 1325.98 1285.02 1327.97 L 1285.7 1329.03 C 1262.3 1334.78 1150.67 1299.8 1124.03 1293.65 C 1100.24 1288.24 1076.07 1284.66 1051.73 1282.94 C 1014.01 1280.61 976.153 1283.09 939.063 1290.33 C 904.811 1297.16 790.591 1333.71 762.556 1328.64 z"/>
<path transform="translate(0,0)" fill="rgb(161,163,163)" d="M 1385.22 1495.93 L 1386.39 1496.77 C 1390.63 1510.73 1390.83 1528.29 1392.67 1542.87 C 1395 1561.32 1398.84 1580.21 1399.73 1598.76 C 1399.95 1603.3 1399.78 1608.06 1398.24 1612.39 C 1390.27 1634.84 1246.91 1696.2 1217.25 1709.58 L 1209.62 1712.81 C 1212.57 1676.22 1221.6 1630.89 1226.5 1593.93 C 1228.72 1577.23 1235.57 1531.67 1239.89 1518.44 C 1250.93 1520.16 1260.05 1522.92 1271.55 1523.68 C 1312.66 1526.37 1348.85 1512.48 1385.22 1495.93 z"/>
<path transform="translate(0,0)" fill="rgb(161,163,163)" d="M 661.539 1495.35 C 715.701 1520 749.222 1530.29 807.904 1518.66 C 812.022 1531 838.9 1699.81 837.504 1710.99 L 836.14 1711.73 L 832.758 1710.48 C 800.788 1696.09 669.517 1640.08 651.852 1615.87 C 648.848 1611.75 648.339 1607.36 648.17 1602.39 C 647.728 1589.33 650.677 1575.35 652.442 1562.42 L 661.539 1495.35 z"/>
<path transform="translate(0,0)" fill="rgb(161,163,163)" d="M 776.354 361.654 C 779.924 365.552 787.279 378.742 791.465 384.065 C 805.826 402.329 823.916 417.67 843.421 430.039 C 917.911 477.637 1008.21 493.81 1094.59 475.022 C 1149.52 462.682 1208.9 435.678 1247.62 394.087 C 1257.1 383.911 1263.6 373.777 1270.97 362.173 C 1276.22 369.928 1279.63 375.04 1283.58 383.462 C 1280.14 392.418 1275.54 400.222 1270.65 408.434 C 1244.1 450.873 1196.73 482.776 1151.41 502.234 C 1064.55 539.517 992.045 541.83 904.073 505.399 C 845.403 481.103 789.83 443.067 764.273 382.738 C 767.673 375.726 772.301 368.402 776.354 361.654 z"/>
<path transform="translate(0,0)" fill="rgb(161,163,163)" d="M 631.998 1325.47 C 655.523 1325.32 679.453 1327.49 702.981 1328.34 C 709.842 1328.59 717.154 1328.92 723.856 1330.37 C 742.124 1349.47 804.439 1461.61 803.374 1485.02 C 801.139 1487.91 800.602 1487.36 796.556 1488.94 C 772.61 1493.3 728.743 1484.81 705.785 1475.44 C 677.181 1463.76 662.218 1458.16 649.575 1426.53 C 640.911 1404.85 620.04 1354.18 626.044 1329.09 C 626.592 1326.8 630.102 1326.05 631.998 1325.47 z"/>
<path transform="translate(0,0)" fill="rgb(161,163,163)" d="M 1385.93 1326.58 C 1394.26 1325.98 1419.89 1324.2 1421.91 1328.41 C 1432.12 1349.66 1396.63 1439.73 1383.57 1452.11 C 1359.05 1475.35 1306.28 1487.59 1278.75 1489.28 C 1270.77 1489.86 1254.01 1491 1246.65 1486.95 C 1245.02 1486.05 1244.78 1484.14 1244.94 1482.41 C 1245.48 1476.39 1249.96 1466.76 1251.98 1461.19 C 1262.83 1431.3 1304.5 1348.27 1326.47 1329.24 C 1344.79 1327.61 1367.22 1327.37 1385.93 1326.58 z"/>
<path transform="translate(0,0)" fill="rgb(161,163,163)" d="M 1577.95 869.368 C 1583.57 860.88 1602.69 836.802 1612.66 835.795 C 1647.75 832.249 1688.91 841.049 1724.53 841.713 C 1743.77 842.071 1757.08 841.54 1774.91 840.261 C 1784.19 838.96 1793.18 837.8 1802.36 835.836 C 1806.78 845.915 1816.36 877.543 1806.89 885.424 C 1800.58 885.844 1792.59 884.66 1786.14 883.943 C 1716.5 878.079 1665.28 884.43 1601.14 913.829 C 1595.05 904.447 1581.71 879.251 1577.95 869.368 z"/>
<path transform="translate(0,0)" fill="rgb(219,220,219)" d="M 1774.91 840.261 C 1784.19 838.96 1793.18 837.8 1802.36 835.836 C 1806.78 845.915 1816.36 877.543 1806.89 885.424 C 1800.58 885.844 1792.59 884.66 1786.14 883.943 C 1784.64 866.481 1783.86 855.511 1774.91 840.261 z"/>
<path transform="translate(0,0)" fill="rgb(161,163,163)" d="M 270.711 840.375 C 305.141 843.464 332.795 841.926 367.506 838.787 C 389.639 836.785 414.691 834.121 436.717 835.129 C 447.107 841.305 463.976 858.735 469.777 868.922 C 464.807 882.64 453.86 900.971 446.54 914.042 C 399.984 890.444 349.26 881.595 297.475 881.973 C 288.23 882.041 270.695 882.411 261.699 883.803 C 254.061 884.47 246.434 885.259 238.821 886.17 C 235.611 867.834 238.057 852.75 245.996 836.14 C 254.921 837.994 261.7 839.355 270.711 840.375 z"/>
<path transform="translate(0,0)" fill="rgb(219,220,219)" d="M 245.996 836.14 C 254.921 837.994 261.7 839.355 270.711 840.375 L 270.304 841.941 C 265.005 861.557 261.901 859.348 261.699 883.803 C 254.061 884.47 246.434 885.259 238.821 886.17 C 235.611 867.834 238.057 852.75 245.996 836.14 z"/>
<path transform="translate(0,0)" fill="rgb(161,163,163)" d="M 1436.01 311.19 C 1442.49 315.346 1445.11 317.633 1449.55 323.887 C 1469.2 369.369 1477.11 388.915 1456.53 437.346 C 1421.39 520.011 1355.23 588.332 1282.4 639.184 C 1280.99 640.166 1279.44 640.153 1277.87 639.919 C 1275.96 635.869 1279.02 632.013 1282.24 629.519 C 1285.65 625.282 1290.23 620.665 1294 616.643 C 1308.24 602.516 1323.19 587.695 1336.19 572.34 C 1383.23 516.788 1421.35 445.864 1432.48 373.39 C 1435.5 353.698 1435.53 331.217 1436.01 311.19 z"/>
<path transform="translate(0,0)" fill="rgb(219,220,219)" d="M 1436.01 311.19 C 1442.49 315.346 1445.11 317.633 1449.55 323.887 C 1447.6 350.491 1444.99 377.716 1438.01 403.545 C 1414.33 491.208 1363.06 559.421 1296.95 619.388 C 1292.86 622.978 1287.05 629.427 1282.24 629.519 C 1285.65 625.282 1290.23 620.665 1294 616.643 C 1308.24 602.516 1323.19 587.695 1336.19 572.34 C 1383.23 516.788 1421.35 445.864 1432.48 373.39 C 1435.5 353.698 1435.53 331.217 1436.01 311.19 z"/>
<path transform="translate(0,0)" fill="rgb(161,163,163)" d="M 598.077 323.836 C 602.697 316.165 605.016 314.444 612.299 309.749 C 612.205 335.141 612.442 360.135 617.297 385.445 C 632.305 463.689 677.779 539.626 732.926 596.328 C 745.054 608.799 759.659 620.823 769.375 634.853 C 770.969 638.697 771.045 636.939 769.989 640.286 C 762.344 639.77 729.308 612.435 722.11 606.259 C 661.826 554.53 603.91 487.908 582.372 409.893 C 580.106 401.686 578.729 390.972 578.663 382.337 C 579.812 367.825 590.825 335.67 598.077 323.836 z"/>
<path transform="translate(0,0)" fill="rgb(219,220,219)" d="M 598.077 323.836 C 602.697 316.165 605.016 314.444 612.299 309.749 C 612.205 335.141 612.442 360.135 617.297 385.445 C 632.305 463.689 677.779 539.626 732.926 596.328 C 745.054 608.799 759.659 620.823 769.375 634.853 C 767.929 634.522 767.026 634.275 765.844 633.296 C 681.271 563.239 612.156 465.685 600.714 354.017 C 599.687 344.002 599.301 333.874 598.077 323.836 z"/>
<path transform="translate(0,0)" fill="rgb(161,163,163)" d="M 250.456 957.093 C 244.294 957.144 238.495 957.375 232.386 956.503 C 230.692 954.727 230.435 954.363 230.441 951.148 C 230.456 943.547 235.828 925.846 241.1 920.813 C 244.101 917.947 259.83 916.475 264.487 916.057 C 301.046 912.769 340.344 912.123 376.015 921.403 C 390.696 925.3 408.748 931.348 421.661 939.421 C 416.853 954.954 412.128 967.239 404.602 981.758 C 346.077 965.789 310.645 960.055 250.456 957.093 z"/>
<path transform="translate(0,0)" fill="rgb(219,220,219)" d="M 250.456 957.093 C 244.294 957.144 238.495 957.375 232.386 956.503 C 230.692 954.727 230.435 954.363 230.441 951.148 C 230.456 943.547 235.828 925.846 241.1 920.813 C 244.101 917.947 259.83 916.475 264.487 916.057 C 301.046 912.769 340.344 912.123 376.015 921.403 C 370.39 923.7 342.656 922.98 334.07 923.651 C 311.262 925.434 280.833 926.586 258.795 932.689 C 255.43 940.063 252.135 949.176 250.456 957.093 z"/>
<path transform="translate(0,0)" fill="rgb(161,163,163)" d="M 1672.78 921.395 C 1713.44 911.237 1765.6 909.993 1806.45 920.656 C 1810.37 921.679 1821.73 950.581 1815.61 956.373 C 1809.86 957.443 1803.29 957.068 1797.38 956.972 C 1740.3 958.892 1698.12 966.45 1643.34 981.018 C 1636.89 970.493 1630.05 950.735 1626.5 938.923 C 1637.73 931.557 1659.67 923.851 1672.78 921.395 z"/>
<path transform="translate(0,0)" fill="rgb(219,220,219)" d="M 1672.78 921.395 C 1713.44 911.237 1765.6 909.993 1806.45 920.656 C 1810.37 921.679 1821.73 950.581 1815.61 956.373 C 1809.86 957.443 1803.29 957.068 1797.38 956.972 C 1795.17 948.708 1793.48 942.02 1790.29 934.025 C 1764.73 924.174 1677.53 923.934 1672.78 921.395 z"/>
</svg>