<svg version="1.1" xmlns="http://www.w3.org/2000/svg" style="display: block;" viewBox="0 0 2048 2048" width="1024" height="1024" preserveAspectRatio="none">
<defs>
	<linearGradient id="Gradient1" gradientUnits="userSpaceOnUse" x1="889.592" y1="556.459" x2="899.205" y2="529.118">
		<stop class="stop0" offset="0" stop-opacity="0.509804" stop-color="rgb(189,189,188)"/>
		<stop class="stop1" offset="1" stop-opacity="0.572549" stop-color="rgb(189,189,188)"/>
	</linearGradient>
	<linearGradient id="Gradient2" gradientUnits="userSpaceOnUse" x1="641.236" y1="518.282" x2="650.261" y2="489.109">
		<stop class="stop0" offset="0" stop-opacity="0.356863" stop-color="rgb(190,190,189)"/>
		<stop class="stop1" offset="1" stop-opacity="0.462745" stop-color="rgb(191,190,189)"/>
	</linearGradient>
</defs>
<path transform="translate(0,0)" fill="rgb(0,0,0)" d="M 369.305 421.445 C 386.204 420.329 406.032 421.658 422.963 422.584 C 451.759 424.102 480.52 426.215 509.229 428.922 C 640.705 441.137 771.558 459.325 901.381 483.429 C 1137.74 527.048 1495.89 609.426 1687.97 754.801 C 1728.35 785.364 1762.7 820.617 1791.37 862.376 C 1854.65 954.535 1863.65 1065.53 1843.51 1173.09 C 1814.81 1326.4 1731.42 1459.95 1602.54 1548.36 C 1532.08 1593.32 1454.9 1620.5 1370.98 1624.65 C 1090.16 1638.56 789.432 1478.84 585.587 1295.87 C 428.102 1153.27 298.148 967.52 232.057 764.894 C 204.215 679.537 166.432 547.799 234.976 472.99 C 271.278 433.371 318.03 423.917 369.305 421.445 z M 771.853 809.957 C 768.341 821.547 757.319 843.569 752.326 857.979 C 724.192 840.874 696.997 821.998 668.943 804.69 C 656.699 797.217 644.792 788.925 631.852 782.687 C 627.843 780.754 621.862 782.189 619.539 786.203 C 617.413 789.879 617.235 793.034 617.873 797.13 C 621.91 803.952 728.47 868.33 745.3 878.712 C 741.515 894.274 738.681 908.073 735.736 923.831 C 708.019 915.993 680.935 906.142 653.221 898.32 C 610.295 886.264 567.529 872.409 524.523 860.797 C 510.368 856.975 502.466 877.382 521.237 882.955 C 528.067 884.984 538.287 887.77 545.167 889.85 C 565.155 896.049 585.221 901.994 605.36 907.684 C 647.391 919.771 691.302 933.783 733.273 944.998 C 731.041 958.895 729.241 972.957 728.827 987.034 C 703.668 987.265 677.239 985.6 651.867 984.953 L 470.131 980.196 C 475.324 990.204 480.872 998.005 487.645 1006.94 C 565.595 1006.96 649.227 1010.04 727.513 1012.18 C 727.768 1025.97 727.985 1038.2 729.175 1051.93 C 700.904 1058.45 672.586 1064.78 644.225 1070.9 C 632.871 1073.38 621.534 1075.47 610.145 1077.71 C 607.265 1078.28 603.207 1080.3 601.142 1082.43 C 594.142 1089.64 599.683 1101.76 609.847 1100.74 C 621.539 1099.84 632.848 1096.15 644.274 1093.59 C 673.018 1087.16 701.726 1079.39 730.795 1074.64 C 731.181 1074.6 731.567 1074.56 731.953 1074.52 C 733.491 1086.76 735.273 1098.96 737.298 1111.13 C 721.335 1120.1 702.568 1128.26 685.932 1135.98 C 664.85 1146 643.679 1155.83 622.423 1165.47 C 627.598 1171.24 636.007 1178.78 641.799 1184.28 C 670.724 1171.1 699.483 1157.55 728.068 1143.65 C 733.199 1141.38 738.641 1138.87 743.804 1136.77 L 747.528 1149.26 C 750.383 1158.91 753.91 1168.64 757.218 1178.17 C 739.822 1190.6 711.08 1216.82 693.297 1231.66 C 699.49 1236.38 706.18 1242.41 712.156 1247.54 C 729.854 1232.24 749.427 1217.04 766.524 1201.64 C 775.446 1223.89 790.282 1249.2 803.032 1269.43 C 797.35 1279.76 788.961 1290.8 782.026 1300.52 C 788.691 1305.33 795.324 1310.18 801.925 1315.07 C 807.541 1306.73 813.883 1298.34 819.841 1290.2 C 845.208 1326.44 891.923 1360.07 931.557 1378.99 L 927.337 1390.76 L 946.125 1400.34 C 947.987 1395.79 949.116 1391.72 950.51 1387.03 C 972.471 1395.67 999.76 1400.4 1023.09 1402.61 C 1022.89 1411.04 1021.14 1425.59 1020.55 1434.99 C 1026.76 1438.04 1036.99 1441.77 1043.67 1444.44 C 1045.2 1430.73 1046.57 1417 1047.76 1403.25 C 1073.02 1402.99 1101.7 1397.85 1125.65 1390.46 L 1136.36 1476.19 C 1145.15 1479.03 1154.02 1481.63 1162.95 1483.99 C 1160.73 1473.87 1158.96 1457.03 1157.69 1446.55 C 1155.21 1424.7 1152.5 1402.87 1149.57 1381.07 C 1169.98 1370.95 1183.8 1363.9 1202.66 1350.99 C 1206.38 1361.95 1221.15 1418.77 1226.34 1423.23 C 1228.97 1425.49 1231.99 1426.32 1235.42 1425.61 C 1237.91 1425.09 1240.48 1423.44 1241.75 1421.23 C 1246.76 1412.48 1224.83 1350.25 1220.03 1337.03 C 1234.1 1326.32 1246.87 1314 1258.08 1300.32 C 1274.06 1332.74 1292.93 1365.14 1309.76 1397.28 C 1319.75 1415.87 1328.56 1432.76 1338.45 1451.59 C 1344.06 1462.3 1353.45 1468.02 1361.32 1454.27 C 1362.24 1452.66 1360.96 1448.76 1360.13 1447.01 C 1351.77 1429.4 1341.82 1412.47 1332.73 1395.21 C 1313.07 1357.78 1292.03 1320.91 1272.35 1283.53 C 1281.98 1270.06 1296.67 1249.67 1302.87 1234.82 C 1309.45 1242.24 1315.97 1250.18 1322.3 1257.85 C 1372.62 1318.83 1423.99 1378.96 1474.17 1440.06 C 1482.64 1450.36 1491.09 1461.42 1500.41 1470.92 C 1507.56 1466.99 1515.72 1463.2 1523.1 1459.59 C 1501.29 1430.76 1468.85 1394.11 1445.24 1365.85 C 1402.27 1314.11 1358.95 1262.67 1315.27 1211.53 C 1322.14 1196.83 1328.36 1181.85 1333.92 1166.61 C 1352.72 1177.69 1463.11 1247.81 1472 1249 C 1474.57 1249.34 1477.81 1248.38 1479.77 1246.64 C 1482.31 1244.4 1483.89 1241.48 1483.6 1238.01 C 1483.32 1234.58 1481.5 1232.46 1478.98 1230.36 C 1467.17 1220.52 1452.06 1213 1438.87 1205.01 C 1406.22 1185.24 1371.96 1166.38 1340.53 1144.75 C 1344.28 1131.22 1347.5 1114.68 1350.36 1100.76 L 1501.05 1139.77 C 1579.38 1159.23 1642.32 1173.66 1722.98 1170.05 C 1724.97 1160.93 1726.88 1151.8 1728.71 1142.64 C 1657.09 1153.26 1551.08 1126.19 1480.57 1108.64 L 1353.88 1076.63 C 1355.7 1062.1 1356.82 1047.48 1357.23 1032.84 C 1413.4 1031.74 1469.56 1030.17 1525.71 1028.14 C 1538.65 1021 1535.71 1006.98 1522.12 1006.99 C 1467.39 1007.01 1412.74 1010.84 1357.99 1011.26 C 1358.38 996.941 1356.54 980.515 1355.9 965.795 C 1377.34 960.514 1401.65 952.864 1423.08 946.541 C 1457.62 936.451 1492.07 926.079 1526.43 915.424 C 1552.83 907.13 1587.17 895.515 1613.81 889.388 C 1634.25 911.006 1654.74 949.221 1661.27 977.887 C 1671.35 1022.07 1678.23 1074.53 1734.74 1079.22 C 1734.78 1070.18 1734.64 1062.49 1734.12 1053.47 C 1692.59 1047.19 1693.14 995.34 1683.53 963.015 C 1674.85 934.31 1660.84 907.499 1642.23 883.989 C 1632.45 871.494 1615.71 851.79 1603.8 842.127 C 1569.35 814.179 1526.15 795.621 1487.56 774.891 C 1503.23 787.884 1518.56 801.538 1534.24 814.577 C 1555.03 831.866 1576.02 848.613 1594.56 868.353 C 1572.23 877.143 1526.51 889.068 1502.55 896.097 C 1452.44 910.927 1402.49 926.248 1352.69 942.058 C 1351.05 929.398 1347.78 913.665 1345.27 901.027 C 1360.6 892.848 1443.91 851.038 1448.79 841.51 C 1449.94 839.275 1450.16 836.347 1449.19 833.994 C 1447.83 830.725 1444.87 827.76 1441.4 826.746 C 1439.39 826.154 1438.32 826.004 1436.33 826.713 C 1426.4 830.25 1416.62 836.825 1407.41 842.019 C 1384.83 854.746 1362.82 868.33 1339.78 880.239 C 1336.08 867.719 1331.83 855.973 1327.45 843.683 C 1361.81 812.912 1399.18 782.035 1432.57 751.083 C 1424.84 747.435 1416.13 743.903 1408.22 740.499 C 1398.49 747.959 1384.86 760.719 1375.35 769.093 L 1317.23 820.021 C 1310.8 805.211 1304.97 794.844 1296.96 781.02 C 1307.57 768.297 1338.78 730.771 1344.96 717.832 C 1338.27 715.121 1331.18 712.691 1324.36 710.248 C 1312.86 727.812 1298.69 744.228 1286.58 761.623 C 1277.27 748.516 1267.34 735.854 1256.83 723.679 C 1261.65 713.419 1266.29 703.078 1270.76 692.659 L 1247.54 685.384 C 1245.15 691.854 1242.15 698.326 1239.34 704.656 C 1216.95 684.57 1198.73 669.34 1171.77 654.398 C 1112.41 621.502 1042.64 612.776 977.009 630.037 C 973.897 630.827 971.462 631.818 969.185 630.546 C 967.737 626.31 967.983 620.962 967.869 616.359 C 959.105 615.162 950.078 613.008 941.403 611.12 C 942.656 620.666 943.356 630.922 944.184 640.562 C 923.225 649.419 906.662 657.343 888.121 670.705 C 881.389 657.446 874.555 627.546 869.441 612.343 C 861.127 587.624 843.15 596.456 844.989 607.545 C 848.668 629.733 865.049 660.781 868.806 684.209 C 854.336 697.213 843.106 708.08 829.889 722.344 C 804.559 681.888 785.455 633.999 757.537 595.301 C 754.991 591.772 742.542 595.077 741.929 600.574 C 741.513 604.308 740.761 606.763 742.631 610.302 C 765.785 654.132 792.147 696.166 815.258 740.053 C 803.93 754.966 793.625 770.628 784.414 786.932 C 766.985 769.483 745.604 744.366 728.852 725.678 L 624.98 609.794 C 614.939 598.656 584.26 562.097 574.861 554.619 C 563.169 553.541 551.197 552.605 539.585 550.987 C 566.577 583.298 600.491 618.815 628.827 650.641 C 675.987 703.608 723.879 757.77 771.853 809.957 z M 402.245 863.365 C 405.912 870.504 410.106 879.226 414.094 886.049 L 416.244 889.252 C 432.475 885.564 439.397 808.397 447.543 792.399 C 466.684 754.807 505.197 754.971 515.386 709.585 C 518.198 696.629 517.915 683.194 514.56 670.369 C 501.88 621.005 444.43 585.861 404.801 630.993 C 395.176 641.955 387.287 672.166 367.831 660.902 C 336.967 643.034 333.444 592.232 342.712 561.45 C 343.937 557.381 349.822 544.388 349.881 541.518 C 340.954 543.1 326.861 545.886 322.045 554.754 C 309.728 577.429 316.95 610.746 319.975 635.565 C 325.063 677.302 383.508 713.447 412.305 669.318 C 419.615 658.117 425.327 639.775 440.875 636.415 C 467.859 632.253 486.721 658.746 490.649 682.199 C 498.014 726.177 460.917 735.499 436.837 762.083 C 411.925 789.588 415.847 829.735 402.245 863.365 z M 1711.95 1210.31 L 1700.53 1210.41 C 1640.84 1214.19 1584.26 1232.32 1541.98 1277.44 C 1509.48 1312.13 1494.12 1374.89 1544.67 1402.08 C 1557.23 1408.84 1571.59 1410.02 1585.68 1410.62 C 1589 1407.94 1591.19 1406.13 1594.22 1403.16 C 1600.45 1396.96 1607.26 1390.43 1613.26 1384.09 C 1582.89 1384.42 1537.05 1391.7 1538.14 1344.95 C 1538.67 1322.53 1553.56 1299.22 1569.67 1284.68 C 1606.2 1251.77 1655.96 1240.35 1703.49 1235.63 C 1706 1228.27 1710.02 1217.56 1711.95 1210.31 z M 1787.99 1102.96 C 1782.02 1107.5 1780.49 1107.8 1779.7 1115.31 C 1777.8 1133.35 1775.14 1151.21 1771.75 1169.03 C 1770.84 1173.83 1768.17 1185.49 1771.44 1189.42 C 1774.54 1193.14 1779.65 1193.97 1784.23 1193.7 C 1789.9 1190.46 1791.1 1187.46 1792.79 1181.3 C 1796.04 1169.46 1806.86 1117.58 1800.99 1108.39 C 1799.3 1105.74 1796.07 1103.84 1792.99 1103.26 C 1791.37 1102.95 1789.64 1102.96 1787.99 1102.96 z M 302.319 787.413 C 307.572 784.105 309.421 783.161 311.034 777.162 C 309.677 768.518 287.609 701.879 284.881 699.205 C 282.078 696.458 277.46 696.162 273.808 695.931 C 270.21 698.325 267.108 700.483 265.685 704.757 C 263.131 712.431 284.77 774.296 290.378 782.616 C 292.045 785.09 294.469 786.553 297.396 786.987 C 299.026 787.228 300.675 787.323 302.319 787.413 z M 266.965 666.019 C 268.979 664.706 275.323 660.495 275.052 657.759 C 272.567 632.691 268.365 607.841 266.962 582.558 C 266.569 575.463 257.791 573.703 251.926 573.994 C 249.196 575.906 244.557 579.048 244.35 582.92 C 243.455 599.833 246.03 617.62 248.387 634.39 C 249.582 642.893 250.921 653.828 254.877 661.248 C 257.25 665.7 262.67 665.989 266.965 666.019 z M 686.035 519.977 C 690.391 516.608 692.864 514.565 693.662 508.842 C 695.371 496.581 677.406 495.878 669.149 494.928 C 651.131 492.853 632.974 490.097 614.947 488.328 C 612.316 488.077 609.673 487.973 607.031 488.016 C 587.578 503.665 607.057 512.353 623.72 512.512 C 641.598 512.683 668.573 520.85 686.035 519.977 z M 810.27 539.129 C 824.763 529.374 818.756 517.567 805.657 515.78 C 785.579 513.04 752.196 504.395 732.882 505.005 C 727.22 509.561 721.311 515.856 727.159 523.439 C 728.507 525.188 730.851 526.733 733.005 527.333 C 758.015 531.73 783.542 535.316 808.673 539.123 C 809.206 539.125 809.738 539.127 810.27 539.129 z M 269.938 543.632 C 278.433 538.041 280.502 528.134 286.915 521.075 C 294.336 512.906 307.301 508.569 315.542 501.325 C 325.503 492.567 317.884 480.915 305.871 480.924 C 298.008 484.8 293.043 487.86 285.836 492.535 C 273.627 500.455 231.54 542.456 269.938 543.632 z M 1680.29 1413.21 C 1693.36 1400.99 1703.63 1383.24 1714.03 1368.73 C 1722.25 1357.25 1736.78 1335.81 1710.86 1334.96 C 1700.24 1341.56 1683.67 1376.18 1672.92 1386.76 C 1661.75 1397.76 1660.85 1413.28 1680.29 1413.21 z M 1614.79 787.36 C 1621.68 784.157 1629 775.398 1623.4 770.406 C 1611.73 760.02 1563.8 730.333 1550.2 727.956 C 1537.9 733.036 1536.86 745.458 1546.48 750.1 C 1558.62 755.958 1605.8 786.966 1614.79 787.36 z M 1037.8 583.225 C 1078.58 561.93 995.641 550.622 984.91 548.77 C 983.159 548.471 981.405 548.191 979.648 547.931 C 942.693 571.828 1025.42 580.317 1037.8 583.225 z M 1388.76 681.175 C 1392.54 678.792 1395.98 676.494 1397.31 671.967 C 1398.18 669.044 1397.4 665.875 1395.58 663.49 C 1391.05 657.574 1328.94 636.035 1319.47 634.986 C 1317.94 634.816 1316.43 634.868 1314.9 634.907 C 1305.12 642.093 1303.91 654.031 1314.33 656.755 C 1331.82 661.323 1372.87 680.324 1388.76 681.175 z M 566.02 486.547 C 559.529 479.463 535.026 479.457 524.643 478.874 C 512.553 476.566 496.933 475.306 484.515 475.606 C 479.907 475.718 477.091 478.707 474.61 482.263 C 472.887 495.977 480.623 499.583 493.207 499.018 C 500.813 498.676 587.859 516.055 566.02 486.547 z M 1503.77 728.348 C 1508.12 726.349 1511.31 724.318 1513.13 719.682 C 1514.16 717.06 1514.01 714.611 1512.8 712.078 C 1509.32 704.82 1449.11 680.437 1438.91 677.461 C 1437.27 676.982 1435.84 676.907 1434.14 676.809 C 1401.31 698.531 1466.55 710.464 1478.77 718.992 C 1482.01 721.253 1499.64 727.825 1503.77 728.348 z M 348.226 486.403 C 350.497 489.386 353.364 493.162 357.396 493.085 C 382.583 492.366 408.045 494.319 433.103 494.086 C 443.57 493.988 445.432 480.428 436.313 472.229 C 416.858 468.915 393.72 470.271 373.797 469.725 C 359.375 469.33 346.852 468.578 348.226 486.403 z M 1745.47 1310.18 C 1755.79 1302.16 1772.86 1253.58 1776.57 1239.15 C 1779.15 1229.13 1772.01 1222.73 1761.1 1224.05 C 1751.26 1233.11 1743.22 1269.77 1734.94 1283.35 C 1727.89 1294.92 1725.57 1314.15 1745.47 1310.18 z M 855.97 524.973 C 845.758 533.486 847.144 546.519 857.062 547.493 C 874.606 549.215 919.891 562.236 934.432 560.686 C 946.632 551.268 941.427 539.967 930.54 538.277 C 911.613 535.339 873.637 524.291 855.97 524.973 z M 1193.99 598.932 C 1182.76 606.749 1183.79 618.536 1194.93 621.129 C 1211.08 624.889 1256.73 642.064 1270.36 641.385 C 1277.43 636.19 1281.84 624.973 1274.16 621.894 C 1258.23 615.509 1208.78 598.581 1193.99 598.932 z M 1071.2 568.939 C 1061.8 576.822 1061.43 589.33 1071.32 590.872 C 1089.36 593.686 1132.96 608.642 1148.88 607.996 C 1158.84 600.426 1158.75 588.075 1148.53 586.06 C 1131.08 582.62 1087.33 567.963 1071.2 568.939 z"/>
<path transform="translate(0,0)" fill="rgb(0,0,0)" d="M 1030.44 649.384 C 1030.52 649.376 1030.59 649.368 1030.67 649.36 C 1095.77 646.477 1158.97 670.634 1207.84 713.134 C 1283.91 779.299 1322.04 883.257 1328.91 981.798 C 1336.17 1085.84 1306.99 1202.61 1237.39 1282.28 C 1190.07 1336.44 1130.05 1371.05 1057.46 1375.73 C 993.67 1379.71 930.072 1356.97 881.646 1314.91 C 724.615 1178.52 716.281 901.268 846.929 744.675 C 893.525 688.825 957.621 654.641 1030.44 649.384 z M 1015.31 984.983 C 999.095 989.284 979.719 993.54 963.09 996.19 C 933.645 1000.88 901.606 1009.75 872.272 1013.07 C 917.584 1020.93 970.029 1030.34 1014.35 1040.49 C 1023.23 1071.61 1028.09 1107.07 1035.04 1138.84 C 1037.13 1148.41 1039.75 1165.87 1042.51 1174.3 L 1043.22 1173.62 C 1051.14 1133.37 1059.96 1079.04 1070.22 1040.45 C 1106.16 1031.31 1144.61 1026.73 1180.98 1019.18 C 1191.58 1016.99 1204.14 1014.44 1214.8 1013.16 C 1187.75 1008.4 1160.74 1003.4 1133.78 998.169 C 1113.18 994.246 1090.7 990.315 1070.37 985.367 C 1062.12 954.667 1057.4 920.615 1050.67 889.367 C 1049.01 881.654 1044.97 857.896 1042.45 851.599 C 1034.04 894.552 1024.91 942.765 1015.31 984.983 z M 849.571 856.49 C 839.901 900.053 837.249 925.957 848.91 970.439 L 870.067 938.396 C 882.907 919.297 900.74 894.574 912.504 875.455 C 894.454 869.772 867.734 860.889 849.571 856.49 z M 880.748 836.54 C 895.861 840.921 913.657 845.647 928.239 850.947 C 934.873 841.622 941.266 831.883 947.512 822.286 C 972.549 783.815 999.382 746.592 1024.64 708.29 L 1024.11 707.204 L 1022.55 707.306 C 965.333 714.301 924.43 737.104 887.56 782.637 C 877.87 794.605 864.948 815.947 859.55 830.358 C 866.592 832.501 873.658 834.562 880.748 836.54 z"/>
<path transform="translate(0,0)" fill="rgb(53,52,52)" d="M 1271.61 1010.94 C 1273.04 1012.6 1273.58 1025.26 1273.87 1028.18 C 1284.05 1131.22 1246.68 1245.86 1153.46 1301.8 C 1109.56 1328.24 1056.88 1335.96 1007.23 1323.23 C 1003.42 1322.03 999.603 1320.85 995.78 1319.69 C 1155.54 1299.65 1250.3 1160.71 1271.61 1010.94 z"/>
<path transform="translate(0,0)" fill="rgb(190,189,189)" fill-opacity="0.980392" d="M 273.808 695.931 C 277.46 696.162 282.078 696.458 284.881 699.205 C 287.609 701.879 309.677 768.518 311.034 777.162 C 309.421 783.161 307.572 784.105 302.319 787.413 C 300.675 787.323 299.026 787.228 297.396 786.987 C 294.469 786.553 292.045 785.09 290.378 782.616 C 284.77 774.296 263.131 712.431 265.685 704.757 C 267.108 700.483 270.21 698.325 273.808 695.931 z"/>
<path transform="translate(0,0)" fill="rgb(190,189,189)" d="M 661.269 1270.96 C 661.834 1271.1 662.403 1271.21 662.963 1271.36 C 669.006 1273 727.167 1319.72 729.309 1324.35 C 730.461 1326.84 730.585 1330.29 729.414 1332.78 C 727.47 1336.94 723.419 1338.65 719.446 1340.31 C 712.981 1339.28 694.77 1325.59 689.406 1320.55 C 679.499 1311.26 630.427 1283.25 661.269 1270.96 z"/>
<path transform="translate(0,0)" fill="rgb(190,189,189)" d="M 325.758 841.016 L 326.985 840.943 C 329.981 840.792 336.211 840.616 338.352 843.691 C 344.157 852.031 348.203 862.028 352.605 871.284 C 359.246 885.253 366.749 898.973 372.973 913.125 C 375.749 919.436 371.336 924.185 366.823 927.466 C 365.203 927.692 363.573 927.836 361.939 927.899 C 359.338 927.977 356.677 927.262 354.876 925.266 C 349.021 918.779 318.419 857.886 319.11 850.568 C 319.531 846.104 322.643 843.77 325.758 841.016 z"/>
<path transform="translate(0,0)" fill="rgb(190,189,189)" d="M 480.761 1090.08 C 484.013 1089.95 489.308 1089.48 491.646 1092.2 C 507.695 1110.88 523.376 1129.95 539.263 1148.79 C 546.331 1157.16 542.594 1162.19 535.231 1167.83 C 533.839 1167.88 532.431 1167.96 531.037 1167.93 C 525.86 1167.84 523.275 1164.62 519.975 1161.09 C 511.674 1152.22 472.1 1110 473.5 1099.96 C 474.123 1095.49 477.518 1092.8 480.761 1090.08 z"/>
<path transform="translate(0,0)" fill="rgb(190,189,189)" d="M 1657.13 794.967 C 1669.59 797.867 1710.93 838.715 1719.82 850.541 C 1725.32 857.856 1718.83 864.381 1711.84 867.983 C 1708.22 867.468 1705.18 867.108 1702.54 864.298 C 1691.47 852.517 1680.73 841.75 1668.04 831.604 C 1662.32 827.034 1652.86 819.767 1648.96 813.783 C 1642.77 804.27 1647.95 798.581 1657.13 794.967 z"/>
<path transform="translate(0,0)" fill="rgb(190,189,189)" d="M 566.716 1184.91 C 568.526 1185.05 573.314 1185.25 574.6 1186.49 C 589.478 1200.87 603.988 1215.63 619.262 1229.61 C 622.493 1233.24 628.476 1237.43 630.835 1241.65 C 635.65 1250.26 628.925 1255.46 622.943 1258.78 C 611.263 1259.11 569.103 1213.37 559.704 1202.27 C 554.171 1195.74 560.571 1188.64 566.716 1184.91 z"/>
<path transform="translate(0,0)" fill="rgb(190,189,189)" fill-opacity="0.890196" d="M 251.926 573.994 C 257.791 573.703 266.569 575.463 266.962 582.558 C 268.365 607.841 272.567 632.691 275.052 657.759 C 275.323 660.495 268.979 664.706 266.965 666.019 C 262.67 665.989 257.25 665.7 254.877 661.248 C 250.921 653.828 249.582 642.893 248.387 634.39 C 246.03 617.62 243.455 599.833 244.35 582.92 C 244.557 579.048 249.196 575.906 251.926 573.994 z"/>
<path transform="translate(0,0)" fill="url(#Gradient2)" d="M 607.031 488.016 C 609.673 487.973 612.316 488.077 614.947 488.328 C 632.974 490.097 651.131 492.853 669.149 494.928 C 677.406 495.878 695.371 496.581 693.662 508.842 C 692.864 514.565 690.391 516.608 686.035 519.977 C 668.573 520.85 641.598 512.683 623.72 512.512 C 607.057 512.353 587.578 503.665 607.031 488.016 z"/>
<path transform="translate(0,0)" fill="rgb(190,189,189)" fill-opacity="0.564706" d="M 732.882 505.005 C 752.196 504.395 785.579 513.04 805.657 515.78 C 818.756 517.567 824.763 529.374 810.27 539.129 C 809.738 539.127 809.206 539.125 808.673 539.123 C 783.542 535.316 758.015 531.73 733.005 527.333 C 730.851 526.733 728.507 525.188 727.159 523.439 C 721.311 515.856 727.22 509.561 732.882 505.005 z"/>
<path transform="translate(0,0)" fill="rgb(190,189,189)" fill-opacity="0.764706" d="M 1550.2 727.956 C 1563.8 730.333 1611.73 760.02 1623.4 770.406 C 1629 775.398 1621.68 784.157 1614.79 787.36 C 1605.8 786.966 1558.62 755.958 1546.48 750.1 C 1536.86 745.458 1537.9 733.036 1550.2 727.956 z"/>
<path transform="translate(0,0)" fill="rgb(190,189,189)" d="M 1635.8 1430.11 C 1684.85 1431.92 1599.23 1492.96 1588.94 1499.26 C 1581.47 1499.16 1572.84 1496.01 1573.99 1487.99 C 1575.42 1477.99 1598.09 1464.18 1605.68 1457.34 C 1615.93 1448.09 1625.69 1438.13 1635.8 1430.11 z"/>
<path transform="translate(0,0)" fill="rgb(190,189,189)" fill-opacity="0.631373" d="M 1314.9 634.907 C 1316.43 634.868 1317.94 634.816 1319.47 634.986 C 1328.94 636.035 1391.05 657.574 1395.58 663.49 C 1397.4 665.875 1398.18 669.044 1397.31 671.967 C 1395.98 676.494 1392.54 678.792 1388.76 681.175 C 1372.87 680.324 1331.82 661.323 1314.33 656.755 C 1303.91 654.031 1305.12 642.093 1314.9 634.907 z"/>
<path transform="translate(0,0)" fill="rgb(190,189,189)" fill-opacity="0.592157" d="M 1071.2 568.939 C 1087.33 567.963 1131.08 582.62 1148.53 586.06 C 1158.75 588.075 1158.84 600.426 1148.88 607.996 C 1132.96 608.642 1089.36 593.686 1071.32 590.872 C 1061.43 589.33 1061.8 576.822 1071.2 568.939 z"/>
<path transform="translate(0,0)" fill="rgb(190,189,189)" d="M 868.095 1415.99 C 879.193 1415.68 928.734 1446.77 941.733 1452.34 C 950.391 1456.05 947.692 1466.84 938.096 1472.5 C 937.424 1472.56 936.752 1472.65 936.077 1472.68 C 929.23 1472.98 868.54 1441.05 863.259 1435.09 C 860.991 1432.53 859.498 1428.29 860.27 1424.89 C 861.28 1420.45 864.515 1418.33 868.095 1415.99 z"/>
<path transform="translate(0,0)" fill="rgb(190,189,189)" d="M 385.047 954.066 C 388.423 953.722 394.803 953.227 396.932 956.42 C 411.26 977.906 425.178 1000.16 438.723 1022.18 C 442.446 1028.23 437.482 1033.4 433.272 1037.11 C 432.91 1037.14 432.549 1037.18 432.187 1037.2 C 428.465 1037.41 424.49 1037.75 421.595 1034.98 C 414.302 1028 377.623 971.623 378.513 963.312 C 378.971 959.04 382.01 956.652 385.047 954.066 z"/>
<path transform="translate(0,0)" fill="rgb(190,189,189)" fill-opacity="0.592157" d="M 1193.99 598.932 C 1208.78 598.581 1258.23 615.509 1274.16 621.894 C 1281.84 624.973 1277.43 636.19 1270.36 641.385 C 1256.73 642.064 1211.08 624.889 1194.93 621.129 C 1183.79 618.536 1182.76 606.749 1193.99 598.932 z"/>
<path transform="translate(0,0)" fill="rgb(190,189,189)" fill-opacity="0.682353" d="M 1434.14 676.809 C 1435.84 676.907 1437.27 676.982 1438.91 677.461 C 1449.11 680.437 1509.32 704.82 1512.8 712.078 C 1514.01 714.611 1514.16 717.06 1513.13 719.682 C 1511.31 724.318 1508.12 726.349 1503.77 728.348 C 1499.64 727.825 1482.01 721.253 1478.77 718.992 C 1466.55 710.464 1401.31 698.531 1434.14 676.809 z"/>
<path transform="translate(0,0)" fill="rgb(190,189,189)" d="M 981.131 1472.94 C 986.727 1472.88 1001.7 1477.97 1006.07 1481.09 C 1019.27 1490.52 1084.8 1500.29 1055.29 1522.67 C 1043.61 1523.77 988.116 1499.41 976.124 1491.36 C 968.978 1486.57 976 1477.1 981.131 1472.94 z"/>
<path transform="translate(0,0)" fill="url(#Gradient1)" d="M 855.97 524.973 C 873.637 524.291 911.613 535.339 930.54 538.277 C 941.427 539.967 946.632 551.268 934.432 560.686 C 919.891 562.236 874.606 549.215 857.062 547.493 C 847.144 546.519 845.758 533.486 855.97 524.973 z"/>
<path transform="translate(0,0)" fill="rgb(190,189,189)" d="M 1536.02 1505.84 C 1546.13 1503.94 1554.22 1515.28 1549.55 1520.98 C 1536.97 1536.34 1495.27 1550.34 1477.22 1556.26 C 1461.13 1560.23 1459.17 1539.35 1467.68 1536.13 C 1490.63 1527.46 1514.42 1517.34 1536.02 1505.84 z"/>
<path transform="translate(0,0)" fill="rgb(190,189,189)" d="M 761.253 1348.83 C 761.576 1348.85 764.926 1348.98 765.427 1349.29 C 786.479 1362.31 807.22 1376.27 828.181 1389.58 C 839.424 1396.72 836.562 1405.72 825.86 1411.39 C 824.95 1411.35 824.039 1411.33 823.133 1411.24 C 815.852 1410.56 759.684 1373.94 754.525 1367.22 C 752.483 1364.57 752.035 1360.76 752.778 1357.57 C 753.791 1353.22 757.763 1350.98 761.253 1348.83 z"/>
<path transform="translate(0,0)" fill="rgb(190,189,189)" d="M 1222.94 1546.03 C 1244.68 1547.44 1268.65 1553.36 1290.67 1553.82 C 1307.92 1554.18 1315.14 1566.64 1300.28 1576.96 L 1298.87 1577.01 C 1289.03 1577.24 1179.3 1573.38 1222.94 1546.03 z"/>
<path transform="translate(0,0)" fill="rgb(190,189,189)" d="M 1781.52 979.009 C 1800.02 980.831 1798.38 998.147 1801.17 1013.98 C 1803.97 1029.91 1805.42 1048.94 1804.39 1064.89 C 1804.2 1067.76 1798.56 1070.58 1796.2 1071.75 C 1791.62 1071.72 1787.33 1070.93 1784.45 1067 C 1783.3 1065.46 1782.56 1063.66 1782.3 1061.76 C 1781.63 1057.13 1781.85 1049.78 1781.63 1044.56 C 1780.84 1025.2 1774.44 1006.32 1773.86 987.248 C 1773.77 984.437 1779.86 980.179 1781.52 979.009 z"/>
<path transform="translate(0,0)" fill="rgb(190,189,189)" d="M 1102.31 1516.94 C 1122.18 1522.61 1141.75 1528.56 1161.96 1533.38 C 1169.46 1535.17 1187.69 1538.77 1183.04 1550.73 C 1180.99 1555.98 1178.47 1557.26 1173.41 1559.44 C 1158.19 1556.44 1100.71 1544.13 1093.02 1533.28 C 1091.64 1531.32 1090.79 1529.02 1091.48 1526.63 C 1092.87 1521.77 1098.07 1518.88 1102.31 1516.94 z"/>
<path transform="translate(0,0)" fill="rgb(190,189,189)" fill-opacity="0.972549" d="M 1761.1 1224.05 C 1772.01 1222.73 1779.15 1229.13 1776.57 1239.15 C 1772.86 1253.58 1755.79 1302.16 1745.47 1310.18 C 1725.57 1314.15 1727.89 1294.92 1734.94 1283.35 C 1743.22 1269.77 1751.26 1233.11 1761.1 1224.05 z"/>
<path transform="translate(0,0)" fill="rgb(190,189,189)" fill-opacity="0.968627" d="M 1787.99 1102.96 C 1789.64 1102.96 1791.37 1102.95 1792.99 1103.26 C 1796.07 1103.84 1799.3 1105.74 1800.99 1108.39 C 1806.86 1117.58 1796.04 1169.46 1792.79 1181.3 C 1791.1 1187.46 1789.9 1190.46 1784.23 1193.7 C 1779.65 1193.97 1774.54 1193.14 1771.44 1189.42 C 1768.17 1185.49 1770.84 1173.83 1771.75 1169.03 C 1775.14 1151.21 1777.8 1133.35 1779.7 1115.31 C 1780.49 1107.8 1782.02 1107.5 1787.99 1102.96 z"/>
<path transform="translate(0,0)" fill="rgb(190,189,189)" d="M 1416.57 1548.33 C 1420.94 1547.6 1425.21 1547.24 1428.67 1550.39 C 1431.26 1552.73 1433.66 1555.82 1433.39 1559.59 C 1432.63 1569.93 1418.96 1571.42 1411.26 1572.47 C 1392.95 1574.96 1374.63 1576.42 1356.25 1577.51 C 1353.42 1577.85 1349.37 1577.94 1346.72 1576.79 C 1343.84 1575.52 1341.66 1573.05 1340.75 1570.03 C 1336.45 1555.99 1351.95 1554.95 1361.02 1554.58 C 1379.56 1553.81 1398.25 1551.14 1416.57 1548.33 z"/>
<path transform="translate(0,0)" fill="rgb(190,189,189)" fill-opacity="0.984314" d="M 1710.86 1334.96 C 1736.78 1335.81 1722.25 1357.25 1714.03 1368.73 C 1703.63 1383.24 1693.36 1400.99 1680.29 1413.21 C 1660.85 1413.28 1661.75 1397.76 1672.92 1386.76 C 1683.67 1376.18 1700.24 1341.56 1710.86 1334.96 z"/>
<path transform="translate(0,0)" fill="rgb(190,189,189)" fill-opacity="0.788235" d="M 305.871 480.924 C 317.884 480.915 325.503 492.567 315.542 501.325 C 307.301 508.569 294.336 512.906 286.915 521.075 C 280.502 528.134 278.433 538.041 269.938 543.632 C 231.54 542.456 273.627 500.455 285.836 492.535 C 293.043 487.86 298.008 484.8 305.871 480.924 z"/>
<path transform="translate(0,0)" fill="rgb(190,189,189)" d="M 1740.23 888.037 C 1758.37 886.907 1768.32 918.746 1775.99 932.702 C 1781.92 943.513 1786.72 952.992 1775.61 961.045 C 1770.79 961.741 1768.3 962.068 1764.2 959.572 C 1759.95 953.746 1753.46 937.031 1749.33 929.889 C 1744.58 920.767 1738.47 912.169 1733.82 903.023 C 1730.67 896.836 1736.11 891.388 1740.23 888.037 z"/>
<path transform="translate(0,0)" fill="rgb(190,189,189)" fill-opacity="0.521569" d="M 979.648 547.931 C 981.405 548.191 983.159 548.471 984.91 548.77 C 995.641 550.622 1078.58 561.93 1037.8 583.225 C 1025.42 580.317 942.693 571.828 979.648 547.931 z"/>
<path transform="translate(0,0)" fill="rgb(190,189,189)" fill-opacity="0.415686" d="M 436.313 472.229 C 445.432 480.428 443.57 493.988 433.103 494.086 C 408.045 494.319 382.583 492.366 357.396 493.085 C 353.364 493.162 350.497 489.386 348.226 486.403 L 349.342 482.476 C 355.199 480.679 353.652 477.482 367.872 474.928 C 385.164 471.823 423.47 478.938 436.313 472.229 z"/>
<path transform="translate(0,0)" fill="rgb(190,189,189)" fill-opacity="0.431373" d="M 487.925 478.626 C 496.419 481.807 523.233 484.818 533.097 485.268 C 535.455 485.727 541.419 486.966 543.539 486.753 C 553.572 485.745 553.774 482.521 563.459 486.893 L 566.02 486.547 C 587.859 516.055 500.813 498.676 493.207 499.018 C 480.623 499.583 472.887 495.977 474.61 482.263 C 480.686 482.83 482.271 481.38 487.925 478.626 z"/>
<path transform="translate(0,0)" fill="rgb(190,189,189)" fill-opacity="0.498039" d="M 348.226 486.403 C 346.852 468.578 359.375 469.33 373.797 469.725 C 393.72 470.271 416.858 468.915 436.313 472.229 C 423.47 478.938 385.164 471.823 367.872 474.928 C 353.652 477.482 355.199 480.679 349.342 482.476 L 348.226 486.403 z"/>
<path transform="translate(0,0)" fill="rgb(190,189,189)" fill-opacity="0.0117647" d="M 728.068 1143.65 L 726.233 1143.55 C 721.924 1143.29 721.814 1143.43 718.317 1140.88 C 717.928 1136.85 720.717 1136.06 723.159 1131.42 C 726.358 1130.11 726.111 1130.11 729.534 1130.45 L 730.874 1131.55 L 730.129 1132.69 L 725.713 1132.58 C 733.282 1142.52 742.331 1130.13 750.94 1134.22 C 754.759 1139.07 752.225 1146 747.528 1149.26 L 743.804 1136.77 C 738.641 1138.87 733.199 1141.38 728.068 1143.65 z"/>
<path transform="translate(0,0)" fill="rgb(190,189,189)" fill-opacity="0.490196" d="M 474.61 482.263 C 477.091 478.707 479.907 475.718 484.515 475.606 C 496.933 475.306 512.553 476.566 524.643 478.874 C 527.085 480.714 530.721 484.369 533.097 485.268 C 523.233 484.818 496.419 481.807 487.925 478.626 C 482.271 481.38 480.686 482.83 474.61 482.263 z"/>
<path transform="translate(0,0)" fill="rgb(190,189,189)" fill-opacity="0.505882" d="M 524.643 478.874 C 535.026 479.457 559.529 479.463 566.02 486.547 L 563.459 486.893 C 553.774 482.521 553.572 485.745 543.539 486.753 C 541.419 486.966 535.455 485.727 533.097 485.268 C 530.721 484.369 527.085 480.714 524.643 478.874 z"/>
</svg>