<svg version="1.1" xmlns="http://www.w3.org/2000/svg" style="display: block;" viewBox="0 0 2048 2048" width="1024" height="1024" preserveAspectRatio="none">
<path transform="translate(0,0)" fill="rgb(40,33,31)" d="M 1714.99 185.694 C 1697.88 204.283 1663.98 231.997 1649.8 250.288 C 1642.73 255.82 1632.23 265.331 1627.09 272.672 L 1626.62 273.36 L 1624.54 274.983 C 1605.2 307.654 1574.18 358.367 1552.19 388.334 C 1558.24 397.061 1573.16 412.368 1580.84 420.504 C 1570.37 452.956 1556.73 485.498 1545.08 517.603 C 1540.79 529.437 1532.59 547.693 1530.1 559.393 C 1516.96 550.17 1501.66 538.884 1488.23 530.292 C 1487.77 534.854 1487.39 538.921 1486.57 543.452 C 1461.55 542.577 1439.17 533.891 1417.65 532.604 C 1412.69 541.375 1407.9 550.242 1403.28 559.199 C 1391.18 557.836 1376.77 555.807 1364.79 555.658 C 1380.53 560.038 1398.16 562.811 1411.81 566.612 C 1414.73 559.618 1418.3 550.311 1421.84 543.824 C 1442.83 547.515 1464.61 551.152 1485.41 555.499 C 1483.05 573.253 1480.73 591.017 1478.47 608.781 C 1476.43 624.879 1479.76 635.188 1484.13 650.482 C 1479.79 660.164 1471.07 668.713 1465.65 678.074 L 1467.39 677.547 C 1475.3 669.398 1484.07 661.331 1492.34 653.483 C 1489.87 640.8 1487.3 632.197 1482.93 620.086 C 1484.35 614.937 1488.62 605.181 1490.7 599.832 C 1494.79 589.052 1498.78 578.236 1502.67 567.385 C 1517.62 578.359 1533.45 588.637 1548.98 598.761 C 1556.45 570.495 1562.69 536.647 1572.07 509.198 C 1588.8 506.264 1605.58 502.266 1622.17 498.502 C 1631.66 507.1 1639.54 516.722 1649.77 525.488 C 1670.41 519.352 1691.18 513.622 1712.05 508.301 C 1715.02 506.294 1718.12 502.792 1720.68 500.158 C 1725.83 496.312 1776.16 445.72 1780.02 440.548 C 1786.83 436.05 1804.04 418.091 1810.82 411.487 C 1831 391.837 1850.82 371.224 1871.53 352.103 L 1615.78 727.13 L 1547.56 827.329 C 1533.28 848.554 1518.27 872.32 1503.47 892.881 L 1354.08 860.58 C 1332.4 855.689 1307.43 850.643 1286.35 844.769 C 1270.49 858.737 1163.9 970.253 1154.17 975.047 C 1148.32 970.784 1115.66 938.676 1112.6 932.997 L 1112.06 933.149 C 1100.35 920.307 1086.42 906.745 1073.99 894.428 C 1077.75 887.373 1114.41 852.135 1122.22 844.37 C 1149.58 816.67 1177.26 789.298 1205.27 762.261 C 1201.37 748.792 1196.89 713.291 1194.19 697.268 C 1185.92 645.879 1177.33 594.54 1168.44 543.256 C 1179.18 538.092 1214.5 513.674 1225.74 506.28 L 1338.17 432.864 L 1564.13 284.575 L 1656.77 224.037 C 1675.86 211.599 1696.53 198.82 1714.99 185.694 z M 1424.05 585.989 C 1404.14 580.054 1382.96 571.753 1362.98 566.793 C 1342.42 575.531 1322.29 586.165 1301.3 594.218 C 1304.22 602.204 1304.79 611.474 1306.6 619.639 C 1311.34 640.942 1313.54 671.922 1318.67 692.263 C 1328.92 695.843 1335.66 697.949 1346.2 700.345 C 1349.18 703.176 1355.93 728.47 1357.55 734.084 L 1407.75 745.523 C 1414.37 747.017 1431.12 750.957 1437.23 751.599 C 1445.66 741.945 1457.65 728.421 1464.54 717.954 C 1457.84 706.226 1449.04 696.189 1442.28 684.119 C 1451.29 673.318 1461.98 662.774 1471.48 652.048 C 1467.68 643.488 1462.15 633.4 1457.85 624.839 C 1460.32 604.398 1463.3 584.019 1466.77 563.723 C 1456.98 561.853 1445.34 558.935 1435.5 556.704 C 1431.66 566.471 1427.52 576.083 1424.05 585.989 z M 1560.77 627.035 C 1546.94 617.4 1518.95 599.098 1506.72 588.725 C 1504.92 599.156 1502.29 607.705 1499.9 617.787 C 1504.86 624.99 1514.93 638.348 1518.3 645.425 C 1506.34 657.976 1494.57 670.712 1483.01 683.629 C 1487.64 688.271 1506 703.997 1506.55 708.176 C 1494.24 722.254 1471.06 744.178 1461.28 756.907 C 1467.23 752.927 1500.46 718.26 1507.3 711.29 C 1515.57 703.65 1524.23 695.334 1532.1 687.255 C 1580.06 638.029 1631.33 590.938 1678.96 541.524 C 1669.82 544.469 1660.41 547.348 1650.95 549.151 C 1642.26 541.909 1621.8 524.278 1614.61 516.389 C 1605.11 516.853 1594.16 517.906 1584.95 518.143 C 1579.7 543.152 1572.48 567.989 1567.1 592.99 C 1565.03 602.58 1561.34 617.394 1560.77 627.035 z M 1558.63 338.171 C 1511.59 383.275 1464.93 428.769 1418.64 474.648 C 1399.87 493.283 1374.52 516.58 1357.01 535.443 L 1398.38 544.107 C 1402.13 535.572 1406.47 522.064 1410.11 512.75 C 1426.7 516.676 1455.46 526.37 1472.04 531.979 C 1472.38 519.578 1474.32 503.93 1475.43 491.262 C 1487.43 500.655 1510.41 523.741 1522.45 534.94 C 1534.02 503.154 1544.18 472.528 1556.9 440.811 C 1549.5 427.103 1539.54 413.458 1531.51 399.402 C 1541.84 379.237 1549.09 358.657 1558.63 338.171 z"/>
<path transform="translate(0,0)" fill="rgb(253,251,254)" fill-opacity="0.0392157" d="M 1506.55 708.176 L 1507.3 711.29 C 1500.46 718.26 1467.23 752.927 1461.28 756.907 C 1471.06 744.178 1494.24 722.254 1506.55 708.176 z"/>
<path transform="translate(0,0)" fill="rgb(18,16,14)" d="M 1871.53 352.103 L 1615.78 727.13 L 1547.56 827.329 C 1533.28 848.554 1518.27 872.32 1503.47 892.881 L 1354.08 860.58 C 1332.4 855.689 1307.43 850.643 1286.35 844.769 C 1270.49 858.737 1163.9 970.253 1154.17 975.047 C 1148.32 970.784 1115.66 938.676 1112.6 932.997 C 1129.89 914.163 1153.61 892.344 1172.06 874.082 L 1300.67 746.679 C 1309.84 737.562 1341.77 708.605 1346.2 700.345 C 1349.18 703.176 1355.93 728.47 1357.55 734.084 L 1407.75 745.523 C 1414.37 747.017 1431.12 750.957 1437.23 751.599 C 1445.69 753.242 1452.96 754.749 1461.28 756.907 C 1467.23 752.927 1500.46 718.26 1507.3 711.29 C 1515.57 703.65 1524.23 695.334 1532.1 687.255 C 1580.06 638.029 1631.33 590.938 1678.96 541.524 C 1683.81 537.485 1708.79 512.583 1712.05 508.301 C 1715.02 506.294 1718.12 502.792 1720.68 500.158 C 1725.83 496.312 1776.16 445.72 1780.02 440.548 C 1786.83 436.05 1804.04 418.091 1810.82 411.487 C 1831 391.837 1850.82 371.224 1871.53 352.103 z"/>
<path transform="translate(0,0)" fill="rgb(40,33,31)" d="M 1689.86 584.736 L 1690.2 586.382 C 1688.2 592.554 1661.14 629.017 1655.32 637.665 L 1550.99 791.519 C 1534.87 815.194 1518.88 839.057 1502.67 862.666 C 1500.39 865.982 1497.87 868.839 1494.98 871.635 C 1445.72 859.358 1395.85 843.152 1346.78 831.068 C 1340.73 829.103 1334.64 828.289 1329.65 826.725 L 1331 825.456 C 1381.24 835.655 1437.29 840.763 1488.1 850.463 C 1502.87 828.862 1521.79 805.466 1537.6 784.184 C 1587.11 717.538 1640.76 651.551 1689.86 584.736 z"/>
<path transform="translate(0,0)" fill="rgb(75,98,168)" d="M 1558.63 338.171 C 1563.98 331.68 1618.68 278.645 1624.54 274.983 C 1605.2 307.654 1574.18 358.367 1552.19 388.334 C 1558.24 397.061 1573.16 412.368 1580.84 420.504 C 1570.37 452.956 1556.73 485.498 1545.08 517.603 C 1540.79 529.437 1532.59 547.693 1530.1 559.393 C 1516.96 550.17 1501.66 538.884 1488.23 530.292 C 1487.77 534.854 1487.39 538.921 1486.57 543.452 C 1461.55 542.577 1439.17 533.891 1417.65 532.604 C 1412.69 541.375 1407.9 550.242 1403.28 559.199 C 1391.18 557.836 1376.77 555.807 1364.79 555.658 C 1380.53 560.038 1398.16 562.811 1411.81 566.612 C 1414.73 559.618 1418.3 550.311 1421.84 543.824 C 1442.83 547.515 1464.61 551.152 1485.41 555.499 C 1483.05 573.253 1480.73 591.017 1478.47 608.781 C 1476.43 624.879 1479.76 635.188 1484.13 650.482 C 1479.79 660.164 1471.07 668.713 1465.65 678.074 L 1467.39 677.547 C 1475.3 669.398 1484.07 661.331 1492.34 653.483 C 1489.87 640.8 1487.3 632.197 1482.93 620.086 C 1484.35 614.937 1488.62 605.181 1490.7 599.832 C 1494.79 589.052 1498.78 578.236 1502.67 567.385 C 1517.62 578.359 1533.45 588.637 1548.98 598.761 C 1556.45 570.495 1562.69 536.647 1572.07 509.198 C 1588.8 506.264 1605.58 502.266 1622.17 498.502 C 1631.66 507.1 1639.54 516.722 1649.77 525.488 C 1670.41 519.352 1691.18 513.622 1712.05 508.301 C 1708.79 512.583 1683.81 537.485 1678.96 541.524 C 1669.82 544.469 1660.41 547.348 1650.95 549.151 C 1642.26 541.909 1621.8 524.278 1614.61 516.389 C 1605.11 516.853 1594.16 517.906 1584.95 518.143 C 1579.7 543.152 1572.48 567.989 1567.1 592.99 C 1565.03 602.58 1561.34 617.394 1560.77 627.035 C 1546.94 617.4 1518.95 599.098 1506.72 588.725 C 1504.92 599.156 1502.29 607.705 1499.9 617.787 C 1504.86 624.99 1514.93 638.348 1518.3 645.425 C 1506.34 657.976 1494.57 670.712 1483.01 683.629 C 1487.64 688.271 1506 703.997 1506.55 708.176 C 1494.24 722.254 1471.06 744.178 1461.28 756.907 C 1452.96 754.749 1445.69 753.242 1437.23 751.599 C 1445.66 741.945 1457.65 728.421 1464.54 717.954 C 1457.84 706.226 1449.04 696.189 1442.28 684.119 C 1451.29 673.318 1461.98 662.774 1471.48 652.048 C 1467.68 643.488 1462.15 633.4 1457.85 624.839 C 1460.32 604.398 1463.3 584.019 1466.77 563.723 C 1456.98 561.853 1445.34 558.935 1435.5 556.704 C 1431.66 566.471 1427.52 576.083 1424.05 585.989 C 1404.14 580.054 1382.96 571.753 1362.98 566.793 C 1342.42 575.531 1322.29 586.165 1301.3 594.218 C 1302.24 586.464 1319 572.522 1325.35 566.445 C 1336.06 556.269 1346.61 545.934 1357.01 535.443 L 1398.38 544.107 C 1402.13 535.572 1406.47 522.064 1410.11 512.75 C 1426.7 516.676 1455.46 526.37 1472.04 531.979 C 1472.38 519.578 1474.32 503.93 1475.43 491.262 C 1487.43 500.655 1510.41 523.741 1522.45 534.94 C 1534.02 503.154 1544.18 472.528 1556.9 440.811 C 1549.5 427.103 1539.54 413.458 1531.51 399.402 C 1541.84 379.237 1549.09 358.657 1558.63 338.171 z"/>
<path transform="translate(0,0)" fill="rgb(120,136,205)" d="M 1467.39 677.547 C 1467.22 678.618 1467.05 679.689 1466.88 680.76 C 1473.61 687.458 1478.9 691.89 1483.4 699.705 C 1478.37 696.541 1464.49 686.039 1463.94 680.113 L 1465.65 678.074 L 1467.39 677.547 z"/>
<path transform="translate(0,0)" fill="rgb(18,16,14)" d="M 452.551 1455.5 C 472.144 1447.93 480.081 1436.11 495.592 1422.82 C 503.754 1415.83 512.198 1408.86 520.527 1402.04 C 515.176 1415.8 507.161 1442 506.605 1455.78 C 505.447 1468.29 505.944 1478.04 507.21 1490.55 C 496.853 1500.46 487.58 1511 486.83 1526.14 C 486.434 1534.13 493.165 1541.5 500.586 1543.2 C 504.314 1545.31 506.081 1547.79 508.905 1550.99 C 498.978 1562.51 481.491 1592.96 490.791 1607.87 C 494.222 1610.05 505.502 1616.57 509.777 1617.47 C 510.933 1617.72 514.138 1614.97 515.404 1613.97 C 518.506 1613.65 517.329 1613.17 519.489 1614.44 C 526.255 1627.46 531.747 1629.66 545.414 1633.09 L 544.334 1633.83 C 520.58 1649.81 478.801 1663.04 472.981 1693.07 C 472.19 1697.15 471.617 1701.68 470.745 1705.7 C 465.782 1707.33 446.385 1713.28 443.428 1715.55 C 420.398 1733.22 404.511 1775.03 393.697 1800.57 C 387.559 1797.75 383.334 1795.98 376.678 1798.84 C 360.293 1805.87 340.421 1828.65 327.803 1841.7 C 332.877 1830.04 342.798 1801.67 340.341 1789.22 C 317.004 1809.73 291.37 1839.42 268.185 1861.52 C 245.303 1855.05 231.277 1847.06 214.33 1829.78 C 197.385 1813.41 190.885 1800.37 183.77 1778.53 C 200.307 1760.01 220.203 1742.82 237.481 1724.86 C 258.133 1703.38 281.194 1683.36 301.472 1661.59 C 296.15 1655.38 290.942 1652.23 284.114 1648.04 C 315.395 1620.12 332.972 1596.44 340.092 1555.48 C 389.451 1548.56 416.919 1530.98 436.572 1486.71 C 440.222 1478.49 447.632 1462.29 452.551 1455.5 z"/>
<path transform="translate(0,0)" fill="rgb(53,48,34)" d="M 301.472 1661.59 C 319.685 1683.36 322.943 1700.28 316.697 1727.7 C 320.482 1738.19 326.542 1742.61 332.094 1751.92 C 339.025 1763.55 337.841 1778.6 340.341 1789.22 C 317.004 1809.73 291.37 1839.42 268.185 1861.52 C 245.303 1855.05 231.277 1847.06 214.33 1829.78 C 197.385 1813.41 190.885 1800.37 183.77 1778.53 C 200.307 1760.01 220.203 1742.82 237.481 1724.86 C 258.133 1703.38 281.194 1683.36 301.472 1661.59 z"/>
<path transform="translate(0,0)" fill="rgb(40,33,31)" d="M 316.697 1727.7 C 320.482 1738.19 326.542 1742.61 332.094 1751.92 C 339.025 1763.55 337.841 1778.6 340.341 1789.22 C 317.004 1809.73 291.37 1839.42 268.185 1861.52 C 245.303 1855.05 231.277 1847.06 214.33 1829.78 C 219.699 1822.14 240.879 1803.28 248.627 1795.37 C 270.736 1772.8 295.02 1750.62 316.697 1727.7 z"/>
<path transform="translate(0,0)" fill="rgb(40,33,31)" d="M 456.995 1465.53 C 472.285 1457.46 482.469 1447.47 495.553 1436.45 C 495.965 1439.11 495.087 1441.14 494.407 1443.94 C 492.046 1455.61 484.404 1479.12 480.617 1490.75 C 471.857 1517.62 459.031 1533.19 485.488 1556.06 C 480.309 1573.29 472.565 1602.14 481.445 1619.53 C 485.76 1627.98 503.612 1634.71 512.534 1641.85 C 481.689 1656.06 465.609 1656.31 456.646 1692.14 C 450.192 1695.69 435.509 1702.9 429.613 1709.25 C 412.366 1727.84 403.002 1761.82 391.196 1784.14 C 390.822 1784.85 382.159 1784.97 380.973 1785.42 C 373.06 1788.42 358.401 1798.7 352.83 1804.35 C 353.576 1795.58 355.07 1781.96 354.692 1773.6 C 354.188 1762.46 349.948 1754.01 351.453 1741.87 C 352.492 1733.49 356.293 1722.1 357.288 1714.9 C 359.574 1698.35 365.102 1666.79 361.401 1651.36 C 347.065 1660.91 341.493 1668.6 329.356 1680.98 C 327.653 1662.88 318.898 1656.09 306.53 1643.88 C 333.801 1617.37 345.514 1602.94 352.41 1565.82 C 428.937 1543.69 425.635 1532.48 456.995 1465.53 z"/>
<path transform="translate(0,0)" fill="rgb(81,63,52)" d="M 456.995 1465.53 C 472.285 1457.46 482.469 1447.47 495.553 1436.45 C 495.965 1439.11 495.087 1441.14 494.407 1443.94 C 486.379 1452.02 479.352 1467.75 473.884 1478.01 C 456.224 1511.14 455.39 1548.65 446.054 1584.36 C 438.201 1614.39 431.081 1628.89 396.04 1622.14 C 387.719 1620.54 379.135 1620.86 373.115 1627.42 C 368.747 1631.73 361.68 1645.28 361.401 1651.36 C 347.065 1660.91 341.493 1668.6 329.356 1680.98 C 327.653 1662.88 318.898 1656.09 306.53 1643.88 C 333.801 1617.37 345.514 1602.94 352.41 1565.82 C 428.937 1543.69 425.635 1532.48 456.995 1465.53 z"/>
<path transform="translate(0,0)" fill="rgb(18,16,14)" d="M 1073.99 894.428 C 1086.42 906.745 1100.35 920.307 1112.06 933.149 L 1112.6 932.997 C 1115.66 938.676 1148.32 970.784 1154.17 975.047 C 1146.46 977.795 1143.56 983.696 1137.78 987.855 C 1133.77 1002.57 1149.02 1010.22 1160.19 1015.59 C 1136.35 1030.58 1099.35 1045.17 1084.48 1070.19 C 1080.78 1076.41 1079.1 1084.63 1077.48 1091.7 C 1048.4 1119.93 1040.68 1140.26 1033.04 1181.36 C 1017.72 1174.02 1005.29 1171.06 988.478 1177.06 C 952.042 1190.06 943.796 1222.35 924.901 1247.85 C 923.154 1237.83 920.302 1218.04 918.038 1208.97 C 913.039 1214.84 900.731 1224.67 898.212 1229.2 C 883.122 1219.02 872.359 1192.65 858.251 1190.64 C 830.273 1183.06 803.534 1190.62 775.032 1189.38 C 779.772 1185.44 784.148 1181.22 788.63 1176.99 C 768.771 1178.26 748.898 1179.31 729.016 1180.14 C 740.113 1174.95 751.804 1169.61 762.645 1163.33 C 773.97 1156.76 792.637 1145.15 799.204 1133.24 C 800.324 1131.21 804.51 1115.84 805.391 1112.66 C 836.188 1098.33 846.607 1071.35 856.135 1041.04 C 870.288 1041.58 880.667 1038.15 893.535 1032.81 C 910.998 1025.57 919.707 1012.47 929.529 997.243 C 931.404 1006.86 932.056 1018.01 933.892 1026.49 C 938.695 1021.67 943.295 1017.38 948.319 1012.79 C 949.956 1008.73 948.873 983.27 948.667 977.382 C 980.301 968.545 976.275 960.263 980.259 932.178 L 982.914 931.541 C 1008.75 925.464 1012.66 913.377 1031.45 897.72 C 1043.34 902.744 1050.76 906.984 1063.77 905.928 C 1068.25 901.507 1070.1 899.395 1073.99 894.428 z"/>
<path transform="translate(0,0)" fill="rgb(81,63,52)" d="M 929.529 997.243 C 931.404 1006.86 932.056 1018.01 933.892 1026.49 C 933.815 1030.87 933.897 1043 933.101 1046.11 C 927.79 1066.92 907.57 1082.58 907.132 1105.19 C 906.964 1113.86 910.488 1123.21 911.491 1132.01 C 901.129 1153.36 887.779 1147.69 879.029 1167.38 C 877.325 1171.21 875.351 1182.69 874.422 1187.44 L 870.481 1185.67 C 859.112 1186.53 863.542 1188.88 858.251 1190.64 C 830.273 1183.06 803.534 1190.62 775.032 1189.38 C 779.772 1185.44 784.148 1181.22 788.63 1176.99 C 768.771 1178.26 748.898 1179.31 729.016 1180.14 C 740.113 1174.95 751.804 1169.61 762.645 1163.33 C 773.97 1156.76 792.637 1145.15 799.204 1133.24 C 800.324 1131.21 804.51 1115.84 805.391 1112.66 C 836.188 1098.33 846.607 1071.35 856.135 1041.04 C 870.288 1041.58 880.667 1038.15 893.535 1032.81 C 910.998 1025.57 919.707 1012.47 929.529 997.243 z"/>
<path transform="translate(0,0)" fill="rgb(53,48,34)" d="M 788.63 1176.99 C 807.776 1174.77 855.774 1172 870.481 1185.67 C 859.112 1186.53 863.542 1188.88 858.251 1190.64 C 830.273 1183.06 803.534 1190.62 775.032 1189.38 C 779.772 1185.44 784.148 1181.22 788.63 1176.99 z"/>
<path transform="translate(0,0)" fill="rgb(53,48,34)" d="M 933.892 1026.49 C 938.695 1021.67 943.295 1017.38 948.319 1012.79 C 946.888 1026.8 945.563 1042.24 942.978 1056.1 C 940.27 1070.62 934.838 1083.9 933.798 1098.92 C 932.784 1113.59 944.75 1127.43 937.738 1139.39 C 938.151 1165.09 917.233 1202.34 918.038 1208.97 C 913.039 1214.84 900.731 1224.67 898.212 1229.2 C 883.122 1219.02 872.359 1192.65 858.251 1190.64 C 863.542 1188.88 859.112 1186.53 870.481 1185.67 L 874.422 1187.44 C 875.351 1182.69 877.325 1171.21 879.029 1167.38 C 887.779 1147.69 901.129 1153.36 911.491 1132.01 C 910.488 1123.21 906.964 1113.86 907.132 1105.19 C 907.57 1082.58 927.79 1066.92 933.101 1046.11 C 933.897 1043 933.815 1030.87 933.892 1026.49 z"/>
<path transform="translate(0,0)" fill="rgb(40,33,31)" d="M 910.708 1212 C 910.773 1211.6 910.838 1211.2 910.904 1210.79 L 911.269 1208.78 C 913.717 1194.82 928.608 1149.05 937.738 1139.39 C 938.151 1165.09 917.233 1202.34 918.038 1208.97 C 913.039 1214.84 900.731 1224.67 898.212 1229.2 C 883.122 1219.02 872.359 1192.65 858.251 1190.64 C 863.542 1188.88 859.112 1186.53 870.481 1185.67 L 874.422 1187.44 C 891.288 1195.89 897.201 1199.22 910.708 1212 z"/>
<path transform="translate(0,0)" fill="rgb(40,33,31)" d="M 1112.06 933.149 L 1112.6 932.997 C 1115.66 938.676 1148.32 970.784 1154.17 975.047 C 1146.46 977.795 1143.56 983.696 1137.78 987.855 C 1135.77 987.248 1136.58 987.342 1134.48 987.303 C 1114.9 986.943 1092.17 982.147 1084.07 962.211 C 1092.02 952.406 1103.12 942.659 1112.06 933.149 z"/>
<path transform="translate(0,0)" fill="rgb(53,48,34)" d="M 1073.99 894.428 C 1086.42 906.745 1100.35 920.307 1112.06 933.149 C 1103.12 942.659 1092.02 952.406 1084.07 962.211 C 1073.84 946.898 1072.42 925.571 1069.2 908.234 C 1069 907.14 1065.04 906.328 1063.77 905.928 C 1068.25 901.507 1070.1 899.395 1073.99 894.428 z"/>
<path transform="translate(0,0)" fill="rgb(40,33,31)" d="M 989.008 940.224 C 995.523 937.7 1000.27 935.75 1006 932.394 C 1016.38 926.311 1031.42 908.614 1044.72 915.528 C 1060.82 923.897 1061.14 963.39 1072.42 976.802 C 1082.87 989.221 1106.89 1001.67 1121.09 1008.88 L 1124.39 1018.24 C 1108.35 1027.72 1085.76 1042.25 1074.13 1057.42 C 1070.67 1061.93 1070.46 1070.84 1066.96 1075.53 C 1064.47 1079.4 1055.11 1082.58 1053.35 1085.23 C 1039.07 1106.74 1029.75 1135.14 1025.28 1160.23 C 981.387 1150.87 950.1 1186.44 930.694 1220.64 C 932.689 1185.44 958.184 1156.72 954.141 1117.45 C 952.883 1113.09 949.013 1104.47 947.093 1099.9 C 950.473 1076.53 953.265 1053.07 955.466 1029.55 C 956.907 1015.01 958.845 999.516 959.097 985.045 C 972.168 980.254 976.117 976.746 983.472 965.679 C 988.71 954.539 987.396 951.602 989.008 940.224 z"/>
<path transform="translate(0,0)" fill="rgb(81,63,52)" d="M 983.472 965.679 C 986.278 994.364 994.042 1020.13 995.508 1047.07 C 991.175 1051.32 978.19 1063.59 975.724 1067.95 C 968.316 1081.05 963.938 1105.93 954.141 1117.45 C 952.883 1113.09 949.013 1104.47 947.093 1099.9 C 950.473 1076.53 953.265 1053.07 955.466 1029.55 C 956.907 1015.01 958.845 999.516 959.097 985.045 C 972.168 980.254 976.117 976.746 983.472 965.679 z"/>
<path transform="translate(0,0)" fill="rgb(40,33,31)" d="M 713.606 1251.62 C 715.678 1254.91 716.67 1256.56 719.186 1259.48 C 722.839 1260.37 727.04 1260.94 728.76 1264.56 C 735.813 1279.42 721.991 1308.46 712.04 1318.84 C 714.754 1320.38 718.829 1322.52 721.283 1324.26 C 742.544 1337.01 730.351 1359.09 716.562 1372.32 C 720.466 1391.71 715.506 1398.14 714.554 1415 L 582.121 1547.29 L 543.892 1585.49 C 537.65 1591.68 519.428 1606.98 519.489 1614.44 C 517.329 1613.17 518.506 1613.65 515.404 1613.97 C 514.138 1614.97 510.933 1617.72 509.777 1617.47 C 505.502 1616.57 494.222 1610.05 490.791 1607.87 C 481.491 1592.96 498.978 1562.51 508.905 1550.99 C 506.081 1547.79 504.314 1545.31 500.586 1543.2 C 493.165 1541.5 486.434 1534.13 486.83 1526.14 C 487.58 1511 496.853 1500.46 507.21 1490.55 C 505.944 1478.04 505.447 1468.29 506.605 1455.78 C 512.919 1450.33 522.337 1440.27 528.606 1434.08 L 573.849 1389.28 C 620.13 1343.09 666.717 1297.2 713.606 1251.62 z"/>
<path transform="translate(0,0)" fill="rgb(53,48,34)" d="M 713.606 1251.62 C 715.678 1254.91 716.67 1256.56 719.186 1259.48 C 722.839 1260.37 727.04 1260.94 728.76 1264.56 C 735.813 1279.42 721.991 1308.46 712.04 1318.84 C 714.754 1320.38 718.829 1322.52 721.283 1324.26 C 670.832 1375.21 619.959 1425.74 568.671 1475.85 L 520.832 1523.57 C 515.241 1529.07 506.292 1538.42 500.586 1543.2 C 493.165 1541.5 486.434 1534.13 486.83 1526.14 C 487.58 1511 496.853 1500.46 507.21 1490.55 C 505.944 1478.04 505.447 1468.29 506.605 1455.78 C 512.919 1450.33 522.337 1440.27 528.606 1434.08 L 573.849 1389.28 C 620.13 1343.09 666.717 1297.2 713.606 1251.62 z"/>
<path transform="translate(0,0)" fill="rgb(75,98,168)" d="M 1626.62 273.36 L 1627.09 272.672 C 1632.23 265.331 1642.73 255.82 1649.8 250.288 C 1645.83 263.62 1641.33 277.853 1637.92 291.244 C 1675.11 335.589 1676.8 326.362 1724.5 348.603 C 1722.01 362.602 1719.87 378.123 1716.8 391.795 C 1718.91 392.866 1722.26 394.658 1723.58 396.539 C 1731.94 408.417 1746.95 436.621 1751.49 449.872 C 1760.93 446.569 1770.44 443.46 1780.02 440.548 C 1776.16 445.72 1725.83 496.312 1720.68 500.158 C 1715.95 498.648 1661.2 507.542 1651.78 508.509 C 1646.17 499.59 1640.41 490.76 1634.52 482.025 C 1613.87 487.474 1597.21 493.15 1575.55 497.911 C 1582.12 470.462 1589.07 443.103 1596.38 415.843 C 1589.21 405.2 1580.19 394.849 1571.9 384.991 C 1589.96 347.655 1608.58 311.102 1626.62 273.36 z M 1593.36 482.579 C 1611.46 476.982 1630.64 470.69 1648.94 466.201 L 1652.2 486.034 L 1675.74 477.163 C 1692.31 470.891 1708.94 464.796 1725.64 458.881 C 1720.19 452.882 1716.81 443.984 1711.97 439.389 C 1698.62 426.718 1681.3 415.981 1666.83 404.584 C 1668.07 392.182 1669.43 379.792 1670.92 367.417 C 1656.22 357.819 1640.36 347.718 1627.62 335.643 C 1625.09 350.618 1621.02 365.245 1617.75 380.053 C 1610.2 414.3 1601.04 448.407 1593.36 482.579 z M 1700.62 395.366 L 1711.84 357.118 C 1696.79 350.558 1645.23 316.781 1636.4 314.879 C 1649.9 326.2 1678.03 351.461 1689.7 364.258 C 1686.59 375.691 1683.51 387.523 1680.18 398.858 C 1692 410.451 1704.73 421.157 1716.93 432.399 C 1722.55 437.585 1730.93 447.842 1736.19 451.854 C 1736.39 451.436 1736.59 451.018 1736.79 450.6 C 1729.14 436.613 1710.2 407.678 1700.62 395.366 z"/>
<path transform="translate(0,0)" fill="rgb(53,48,34)" d="M 775.032 1189.38 C 803.534 1190.62 830.273 1183.06 858.251 1190.64 C 872.359 1192.65 883.122 1219.02 898.212 1229.2 L 898.299 1231.48 C 902.362 1233.22 904.488 1234.91 908.099 1237.43 C 892.968 1247.57 879.404 1259.7 866.313 1271.97 C 855.541 1282.07 825.869 1302.13 818.583 1314.54 C 796.139 1352.76 779.333 1378.97 747.051 1410.4 C 734.553 1423.3 716.271 1441.26 702.012 1452.36 C 707.399 1439.49 710.44 1428.25 714.554 1415 C 715.506 1398.14 720.466 1391.71 716.562 1372.32 C 730.351 1359.09 742.544 1337.01 721.283 1324.26 C 718.829 1322.52 714.754 1320.38 712.04 1318.84 C 721.991 1308.46 735.813 1279.42 728.76 1264.56 C 727.04 1260.94 722.839 1260.37 719.186 1259.48 C 716.67 1256.56 715.678 1254.91 713.606 1251.62 C 706.346 1242.13 698.034 1241.36 686.6 1238.27 C 705.054 1227.08 731.502 1216.13 746.921 1200.59 C 748.726 1198.77 752.43 1191.52 753.782 1188.92 C 760.635 1188.89 768.128 1189.21 775.032 1189.38 z"/>
<path transform="translate(0,0)" fill="rgb(18,16,14)" d="M 775.032 1189.38 C 803.534 1190.62 830.273 1183.06 858.251 1190.64 C 872.359 1192.65 883.122 1219.02 898.212 1229.2 L 898.299 1231.48 C 890.317 1231.75 866.304 1204.06 849.984 1200.01 C 814.854 1191.27 794.868 1206.28 759.244 1201.48 C 754.413 1205.8 752.624 1207.15 747.4 1210.81 C 740.116 1215.91 712.082 1226.12 710.769 1234.04 C 714.509 1240.62 732.482 1244.86 734.607 1248.75 C 746.068 1269.71 741.482 1291.44 733.123 1311.91 C 742.683 1325.86 750.773 1330.83 747.571 1348.71 C 745.381 1360.94 725.249 1412.39 726.78 1420.21 C 733.678 1415.12 737.082 1409.69 747.051 1410.4 C 734.553 1423.3 716.271 1441.26 702.012 1452.36 C 707.399 1439.49 710.44 1428.25 714.554 1415 C 715.506 1398.14 720.466 1391.71 716.562 1372.32 C 730.351 1359.09 742.544 1337.01 721.283 1324.26 C 718.829 1322.52 714.754 1320.38 712.04 1318.84 C 721.991 1308.46 735.813 1279.42 728.76 1264.56 C 727.04 1260.94 722.839 1260.37 719.186 1259.48 C 716.67 1256.56 715.678 1254.91 713.606 1251.62 C 706.346 1242.13 698.034 1241.36 686.6 1238.27 C 705.054 1227.08 731.502 1216.13 746.921 1200.59 C 748.726 1198.77 752.43 1191.52 753.782 1188.92 C 760.635 1188.89 768.128 1189.21 775.032 1189.38 z"/>
</svg>