<svg version="1.1" xmlns="http://www.w3.org/2000/svg" style="display: block;" viewBox="0 0 2048 2048" width="1024" height="1024" preserveAspectRatio="none">
<path transform="translate(0,0)" fill="rgb(0,0,0)" d="M 1796.44 198.229 C 1798.07 198.163 1799.71 198.175 1801.34 198.268 C 1813.69 198.945 1824.01 211.644 1820.38 221.529 C 1813 241.579 1789.02 269.445 1776.39 286.602 L 1665.91 434.041 C 1656.57 446.532 1582.01 548.771 1575.86 553.059 C 1568.21 558.392 1558.06 557.489 1549.32 556.243 C 1538.91 566.863 1527.41 580.305 1517.15 591.464 L 1446.42 668.718 L 1235.37 902.35 L 673.725 1522.88 L 482.218 1733.98 C 459.034 1759.72 435.697 1785.32 412.207 1810.79 C 384.576 1840.83 367.493 1872.12 323.247 1844.86 C 307.94 1834.71 292.62 1817.93 290.23 1798.84 C 286.99 1772.97 313.007 1753.09 329.964 1735.5 L 378.961 1684.1 L 560.318 1492.24 L 1191.07 823.57 L 1395.91 606.782 L 1455.46 543.655 C 1465.14 533.435 1480.99 517.579 1489.16 507.204 C 1488.28 500.404 1487.74 489.51 1491.79 483.881 C 1501.25 470.724 1517.56 456.864 1529.48 445.5 L 1581.27 395.847 L 1697.64 283.559 C 1724.93 257.193 1751.44 230.794 1780.61 206.379 C 1786.21 201.689 1789.43 200.011 1796.44 198.229 z"/>
<path transform="translate(0,0)" fill="rgb(104,55,35)" d="M 1536.53 505.086 C 1537.69 505.009 1540.47 504.92 1541.51 505.149 C 1543.75 505.649 1545.54 507.311 1546.21 509.501 C 1547.53 513.988 1542.4 537.881 1538.84 542.491 C 1532.64 550.543 1523.52 560.051 1516.47 567.701 C 1500.55 584.678 1484.76 601.776 1469.1 618.992 L 1299.14 807.335 L 598.5 1581.53 L 444.607 1750.94 L 396.772 1803.98 C 388.067 1813.59 371.037 1836.28 358.129 1839.1 C 346.882 1841.56 338.12 1835.64 329.298 1829.3 C 318.924 1821.05 311.982 1815.12 307.882 1802.1 C 302.051 1783.58 318.71 1771.96 329.936 1760.11 L 377.596 1709.67 L 584.372 1491.27 L 1127.69 915.504 L 1379.88 648.044 L 1464.66 558.21 C 1476.85 545.286 1488.76 531.69 1501.14 519.047 C 1507.93 512.123 1526.94 507.741 1536.53 505.086 z"/>
<path transform="translate(0,0)" fill="rgb(161,56,42)" d="M 1798.9 214.79 C 1801.65 215.11 1800.78 214.955 1803.39 216.109 C 1803.69 217.294 1804.37 218.901 1803.78 219.772 C 1766.43 275.172 1716.9 337.591 1677.69 390.725 C 1643.04 437.964 1607.21 484.359 1572.57 531.607 C 1569.54 535.738 1564.84 541.848 1558.86 539.491 C 1555.72 529.841 1572.58 513.362 1554.89 494.415 L 1554.05 493.528 C 1536.35 482.584 1523.66 492.973 1506.48 497.115 L 1505.32 496.401 C 1507.54 486.776 1535.42 463.233 1543.54 455.424 L 1613.14 388.475 C 1645.33 357.109 1677.69 325.919 1710.22 294.908 C 1728.64 276.826 1747.49 259.189 1766.76 242.014 C 1776.2 233.563 1788.71 222.026 1798.9 214.79 z"/>
</svg>