<svg version="1.1" xmlns="http://www.w3.org/2000/svg" style="display: block;" viewBox="0 0 2048 2048" width="1024" height="1024" preserveAspectRatio="none">
<path transform="translate(0,0)" fill="rgb(0,0,0)" d="M 1016.58 165.514 C 1021.43 165.46 1026.28 165.49 1031.13 165.604 C 1114.88 169.941 1186.85 184.864 1260.69 226.819 C 1279.62 237.574 1307.81 255.71 1323.91 270.381 C 1326.01 272.274 1330.63 276.178 1332.38 278.045 C 1440.48 371.021 1467.83 524.143 1477.9 659.113 C 1484.84 752.047 1483.81 854.361 1469.09 946.601 C 1464.68 974.253 1453.39 988.687 1441.37 1012.41 C 1434.21 1026.78 1428.21 1041.69 1423.42 1057 C 1392.14 1159.76 1392.52 1340.63 1446.13 1443.1 C 1450.61 1451.66 1481.35 1478.77 1490.35 1487.15 C 1515.75 1510.85 1540.97 1534.74 1566.02 1558.82 C 1577.06 1569.28 1599.49 1589.4 1608.58 1599.83 C 1600.73 1611.55 1585.37 1628.37 1575.81 1638.92 C 1511.95 1708.1 1435.7 1764.71 1351.01 1805.84 C 1347.53 1807.67 1344.64 1809.23 1341.02 1810.73 C 1321.51 1820.66 1294.81 1831.31 1274.17 1838.51 C 1088.66 1904.75 884.448 1894.77 706.285 1810.73 L 697.011 1806.09 C 592.474 1753.46 512.855 1690.94 438.999 1600.01 C 451.02 1586.56 473.814 1566.13 487.471 1553.35 C 512.604 1529.83 537.606 1506.17 562.477 1482.38 C 569.765 1475.42 597.311 1450.02 601.504 1442.89 C 609.511 1429.27 621.282 1398.54 625.132 1383.73 C 651.935 1277.69 654.625 1159.95 623.174 1054.57 C 611.918 1016.86 589.979 989.196 579.386 953.466 C 574.992 938.649 572.747 904.796 571.319 888.876 C 565.844 826.876 564.459 764.583 567.173 702.401 C 574.973 549.369 595.16 387.225 714.829 279.278 C 717.914 276.403 720.593 274.158 723.859 271.483 C 777.015 223.453 858.218 188.088 928.161 175.263 C 957.744 169.839 986.626 167.215 1016.58 165.514 z M 1224.78 867.818 C 1240.25 868.69 1250.8 868.971 1265.67 864.444 C 1305.45 852.327 1324.56 818.765 1325.86 778.538 C 1326.78 750.329 1325.37 719.148 1305.02 696.889 C 1290.08 680.755 1268.19 677.216 1247.28 677.113 C 1217.07 676.965 1186.78 677.158 1156.55 677.228 L 967.518 677.498 L 849.625 677.141 C 833.476 677.094 804.567 676.183 789.342 677.374 C 769.569 679.75 751.571 683.759 738.794 700.509 C 720.246 724.825 720.159 763.04 723.446 791.664 C 730.083 849.457 776.518 875.379 831.245 867.17 C 894.939 857.616 955.775 835.197 1019.62 829.014 C 1042.87 826.937 1072.67 836.929 1095.56 841.036 C 1137.21 849.738 1182.68 863.372 1224.78 867.818 z"/>
<path transform="translate(0,0)" fill="rgb(0,0,0)" d="M 1016.58 165.514 C 1021.43 165.46 1026.28 165.49 1031.13 165.604 C 1114.88 169.941 1186.85 184.864 1260.69 226.819 C 1279.62 237.574 1307.81 255.71 1323.91 270.381 C 1326.01 272.274 1330.63 276.178 1332.38 278.045 C 1330.78 283.232 1329.45 288.375 1328 293.596 C 1296.29 407.614 1284.71 522.489 1274.05 639.882 C 1360.22 641.703 1381.4 697.209 1380.02 776.391 C 1378.89 840.411 1358.4 892.085 1292.03 909.161 C 1292.85 1046.32 1252.73 1212.82 1202.31 1340.59 C 1244.91 1304.27 1290.63 1257.1 1328.2 1215.2 C 1287.01 1282.59 1215.76 1372.95 1146.39 1412.92 C 1127.7 1423.64 1107.53 1431.55 1086.53 1436.41 C 1023.14 1451.5 945.9 1442.57 891.275 1406.98 C 828.104 1365.82 765.134 1287.59 725.286 1224.79 L 726.579 1223.22 C 757.383 1258.86 809.081 1310.03 844.718 1339.71 C 794.991 1210.87 754.605 1047.57 754.931 908.949 C 692.309 892.547 671.569 845.165 667.707 783.907 C 665.279 745.385 669.748 700.271 695.925 669.597 C 717.238 644.623 741.952 640.975 773.131 638.837 C 763.876 515.753 748.805 398.114 714.829 279.278 C 717.914 276.403 720.593 274.158 723.859 271.483 C 777.015 223.453 858.218 188.088 928.161 175.263 C 957.744 169.839 986.626 167.215 1016.58 165.514 z M 1224.78 867.818 C 1240.25 868.69 1250.8 868.971 1265.67 864.444 C 1305.45 852.327 1324.56 818.765 1325.86 778.538 C 1326.78 750.329 1325.37 719.148 1305.02 696.889 C 1290.08 680.755 1268.19 677.216 1247.28 677.113 C 1217.07 676.965 1186.78 677.158 1156.55 677.228 L 967.518 677.498 L 849.625 677.141 C 833.476 677.094 804.567 676.183 789.342 677.374 C 769.569 679.75 751.571 683.759 738.794 700.509 C 720.246 724.825 720.159 763.04 723.446 791.664 C 730.083 849.457 776.518 875.379 831.245 867.17 C 894.939 857.616 955.775 835.197 1019.62 829.014 C 1042.87 826.937 1072.67 836.929 1095.56 841.036 C 1137.21 849.738 1182.68 863.372 1224.78 867.818 z"/>
<path transform="translate(0,0)" fill="rgb(76,76,76)" d="M 1323.91 270.381 C 1326.01 272.274 1330.63 276.178 1332.38 278.045 C 1330.78 283.232 1329.45 288.375 1328 293.596 C 1296.29 407.614 1284.71 522.489 1274.05 639.882 C 1360.22 641.703 1381.4 697.209 1380.02 776.391 C 1378.89 840.411 1358.4 892.085 1292.03 909.161 C 1292.85 1046.32 1252.73 1212.82 1202.31 1340.59 C 1244.91 1304.27 1290.63 1257.1 1328.2 1215.2 C 1287.01 1282.59 1215.76 1372.95 1146.39 1412.92 C 1127.7 1423.64 1107.53 1431.55 1086.53 1436.41 C 1023.14 1451.5 945.9 1442.57 891.275 1406.98 C 828.104 1365.82 765.134 1287.59 725.286 1224.79 L 726.579 1223.22 C 757.383 1258.86 809.081 1310.03 844.718 1339.71 C 794.991 1210.87 754.605 1047.57 754.931 908.949 C 692.309 892.547 671.569 845.165 667.707 783.907 C 665.279 745.385 669.748 700.271 695.925 669.597 C 717.238 644.623 741.952 640.975 773.131 638.837 C 763.876 515.753 748.805 398.114 714.829 279.278 C 717.914 276.403 720.593 274.158 723.859 271.483 C 730.913 292.283 738.629 323.808 743.425 345.698 C 763.686 438.175 780.429 544.868 785.185 639.559 C 789.094 639.708 799.92 639.639 802.642 641.291 C 794.632 642.39 782.357 642.869 773.831 643.6 C 746.65 645.93 723.249 652.871 705.265 674.667 C 680.47 704.715 678.635 756.851 681.735 794.223 C 684.295 825.092 696.31 861.306 721.612 881.189 C 762.326 913.184 819.704 903.116 867.068 895.571 C 878.196 893.798 888.521 890.569 899.74 889.484 L 901.188 889.353 L 900.738 889.196 L 900.361 890.79 C 856.184 904.551 813.415 915.023 766.908 911.134 C 766.301 1025.8 793.295 1153.96 827.602 1263.55 C 833.421 1281.85 839.747 1299.98 846.573 1317.92 C 850.853 1328.94 857.05 1342.03 859.924 1353.11 C 913.297 1396.42 949.497 1409.6 1016.51 1414.73 L 1016.14 864.135 L 1031 864.252 L 1030.98 1414.47 C 1080.84 1412.73 1118.25 1401.91 1159.37 1373.46 C 1164.76 1369.73 1182.75 1357.77 1185.48 1353.72 C 1191.89 1344.19 1200.95 1318.57 1204.94 1307.3 C 1246.47 1189.73 1282.57 1035.2 1280.63 911.121 C 1236.35 916.578 1181.23 902.513 1139.18 887.594 C 1196.08 896.02 1270.26 920.592 1322.99 883.393 C 1348.08 865.693 1360.5 833.828 1364.31 804.229 C 1374.01 728.853 1362.28 643.951 1268.58 643.662 C 1260.77 643.618 1246.31 643.15 1238.59 641.942 C 1246.54 641.025 1254.52 640.338 1262.51 639.882 C 1269.23 520.596 1290.88 384.124 1323.91 270.381 z"/>
<path transform="translate(0,0)" fill="rgb(76,76,76)" d="M 1016.58 165.514 C 1021.43 165.46 1026.28 165.49 1031.13 165.604 C 1029.48 212.467 1030.96 270.209 1030.94 317.84 L 1030.85 644.217 L 1016.67 644.448 C 1015.44 621.385 1016.24 594.151 1016.23 570.754 C 1016.04 528.564 1016.1 486.374 1016.38 444.185 L 1016.58 165.514 z"/>
<path transform="translate(0,0)" fill="rgb(76,76,76)" d="M 1364.07 1240.98 C 1360.63 1254.09 1354.59 1268.43 1349.67 1281.2 C 1317.33 1365.12 1282.7 1453.49 1230.12 1526.88 C 1236.51 1550.26 1249.25 1585.86 1260.3 1607.21 C 1280.26 1600.81 1299.9 1601.28 1318.85 1610.87 C 1336.72 1619.97 1350.14 1635.91 1356.06 1655.06 C 1361.98 1674 1360.1 1694.51 1350.85 1712.06 C 1344.56 1723.88 1337.34 1730.74 1326.56 1738.37 C 1332.42 1751.9 1337.66 1765.69 1342.27 1779.7 C 1344.56 1786.48 1348.57 1800.03 1351.01 1805.84 C 1347.53 1807.67 1344.64 1809.23 1341.02 1810.73 C 1334.88 1788.64 1325.29 1765.38 1316.85 1743.95 C 1300.81 1749.03 1289.44 1751.86 1272.43 1748.8 C 1253.15 1745.31 1236.04 1734.33 1224.83 1718.26 C 1213.54 1701.72 1209.36 1681.34 1213.22 1661.69 C 1217.68 1638.63 1230.07 1624.75 1248.81 1612.01 C 1226.14 1559.52 1211.88 1511.69 1207.87 1454.18 C 1207.78 1445.89 1207.26 1431.73 1208.43 1424 L 1209.66 1423.41 C 1214.03 1465.37 1219.72 1485.87 1229.36 1526.15 C 1263.52 1430.8 1314.15 1329.63 1364.07 1240.98 z"/>
<path transform="translate(0,0)" fill="rgb(0,0,0)" d="M 1278.99 1632.19 C 1280.54 1632.1 1281.7 1632.3 1283.26 1632.44 L 1282.8 1633.22 C 1263.48 1642.08 1253.31 1660.96 1260.84 1681.63 C 1263.79 1689.95 1270.08 1696.66 1278.2 1700.14 C 1287.09 1703.96 1297.15 1704.03 1306.1 1700.35 C 1320.7 1694.33 1326.12 1683.52 1331.83 1670.27 C 1331.29 1682.84 1331.39 1687.82 1326.2 1699.37 C 1312.24 1722.13 1286.27 1729.97 1262.97 1715.75 C 1252.1 1709.16 1244.37 1698.45 1241.54 1686.06 C 1235.48 1658.79 1252.17 1637.08 1278.99 1632.19 z"/>
<path transform="translate(0,0)" fill="rgb(76,76,76)" d="M 838.967 1421.44 L 840.451 1428.32 C 837.493 1499.19 828.492 1546.7 798.851 1612.3 C 816.908 1623.36 828.781 1637.24 833.984 1658.25 C 838.781 1677.58 835.606 1698.03 825.174 1714.99 C 814.624 1732.01 797.632 1744.02 778.074 1748.3 C 762.646 1751.73 746.53 1750.26 731.982 1744.08 C 725.741 1757.32 710.014 1796.25 706.285 1810.73 L 697.011 1806.09 C 703.435 1784.07 713.026 1760.06 721.178 1738.39 C 692.843 1719.83 681.021 1684.52 692.456 1652.62 C 699.361 1633.86 713.378 1618.57 731.472 1610.07 C 749.171 1601.76 769.443 1600.81 787.844 1607.42 C 814.228 1554.84 831.479 1479.18 838.967 1421.44 z"/>
<path transform="translate(0,0)" fill="rgb(0,0,0)" d="M 763.424 1632.28 C 764.315 1632.27 765.205 1632.28 766.096 1632.3 C 805.879 1633.31 824.046 1683.28 792.375 1710.91 C 782.803 1719.28 770.249 1723.43 757.571 1722.4 C 742.576 1721.06 733.968 1714.75 724.767 1703.84 C 716.935 1690.03 716.778 1683.3 716.901 1667.95 C 718.403 1672.28 719.513 1676.88 721.649 1680.91 C 729.673 1696.04 746.682 1706.05 763.93 1701.73 C 773.364 1699.32 781.368 1693.09 786.017 1684.54 C 790.539 1676.18 791.424 1666.33 788.465 1657.3 C 783.993 1643.59 775.333 1638.09 763.424 1632.28 z"/>
<path transform="translate(0,0)" fill="rgb(39,39,40)" d="M 1207.87 1454.18 C 1206.3 1445.94 1206.85 1425.47 1207.21 1416.83 L 1208.68 1416.97 L 1207.76 1414.69 C 1209.36 1416.59 1209.3 1420.47 1209.66 1423.41 L 1208.43 1424 C 1207.26 1431.73 1207.78 1445.89 1207.87 1454.18 z"/>
<path transform="translate(0,0)" fill="rgb(39,39,40)" d="M 838.967 1421.44 C 839.022 1418.22 838.612 1417.48 839.97 1414.82 C 841.395 1419.62 841.04 1423.33 840.451 1428.32 L 838.967 1421.44 z"/>
<path transform="translate(0,0)" fill="rgb(39,39,40)" d="M 725.286 1224.79 C 722.777 1221.61 721.417 1220.64 721.059 1217.08 C 724.303 1218.59 724.185 1219.7 726.579 1223.22 L 725.286 1224.79 z"/>
<path transform="translate(0,0)" fill="rgb(76,76,76)" d="M 682.96 1239.87 C 686.293 1243.97 706.313 1283.22 710.374 1291.11 C 739.106 1346.96 769.102 1403.43 793.672 1461.2 C 802.08 1480.97 809.963 1504.06 817.304 1524.41 C 813.66 1521.71 811.008 1516.66 808.477 1512.9 C 759.358 1439.94 727.387 1358.03 696.204 1276.29 C 691.688 1264.46 686.859 1251.91 682.96 1239.87 z"/>
</svg>