<svg version="1.1" xmlns="http://www.w3.org/2000/svg" style="display: block;" viewBox="0 0 2048 2048" width="1024" height="1024" preserveAspectRatio="none">
<defs>
	<linearGradient id="Gradient1" gradientUnits="userSpaceOnUse" x1="1398.28" y1="954.79" x2="1390.51" y2="953.057">
		<stop class="stop0" offset="0" stop-opacity="1" stop-color="rgb(78,8,4)"/>
		<stop class="stop1" offset="1" stop-opacity="1" stop-color="rgb(103,42,40)"/>
	</linearGradient>
</defs>
<path transform="translate(0,0)" fill="rgb(82,22,16)" d="M 830.561 233.362 C 839.675 231.745 848.649 232.896 857.353 235.803 C 861.041 240.076 863.78 244.748 866.508 249.665 C 893.955 299.155 917.257 350.789 941.69 401.795 C 946.714 412.282 951.717 423.028 958.152 432.736 C 978.397 379.491 990.316 312.325 1008.59 257.548 L 1008.87 257.383 C 1025.05 247.347 1082.06 251.506 1081.93 263.672 C 1081.67 288.72 1065.17 332.419 1057.98 358.317 C 1055.31 368.043 1053.04 377.878 1051.2 387.796 C 1083.27 330.688 1112.56 306.854 1173.21 284.707 C 1177.37 277.027 1177.11 270.269 1180.88 263.144 C 1182.58 260.526 1185.26 258.432 1188.36 258.101 C 1201.8 256.666 1201.5 265.138 1202.61 275.047 C 1208.34 265.198 1214.61 241.343 1234.06 256.394 C 1239.5 260.607 1235.27 276.516 1234.54 283.919 L 1236.9 284.941 C 1254.57 292.652 1280.29 305.008 1288.09 323.872 C 1294.25 338.759 1273.94 368.084 1259.58 372.832 C 1245.85 377.372 1234.99 357.208 1223.12 351.857 C 1210.66 345.893 1201.03 347.626 1187.24 351.002 C 1166.44 356.094 1131.42 384.573 1136.87 408.428 C 1138.81 416.926 1163.87 424.288 1173.21 428.976 C 1220.3 452.593 1252.92 490.004 1269.82 539.996 C 1292.7 531.221 1321.49 526.029 1341.81 515.974 C 1362.13 503.924 1376.28 482.191 1397.6 472.004 C 1409.95 466.102 1431.13 479.889 1435.48 491.859 C 1438.29 499.597 1428.22 511.844 1423.77 518.884 C 1433.23 518.66 1440.49 518.673 1449.67 519.686 C 1488.54 523.976 1468.62 553.4 1466.23 576.251 C 1463.67 600.792 1461.5 622.846 1457.03 647.266 C 1463.65 640.768 1471.53 632.28 1479.29 627.501 C 1493.94 618.48 1507.42 641.404 1513.1 652.055 C 1521.23 667.485 1527.66 687.217 1522.47 704.517 C 1518.63 717.329 1500.72 723.979 1489.36 729.433 C 1494.04 733.531 1499.03 737.008 1503.67 741.086 C 1522.6 757.696 1513.1 789.176 1497.98 804.976 C 1475.29 828.684 1459 799.069 1438.76 790.389 C 1432.26 787.604 1427.47 787.771 1420.56 787.787 C 1425.18 807.423 1427.84 826.023 1426.68 846.243 C 1426.86 853.23 1422.96 866.563 1424.75 873.248 C 1430.15 893.531 1441.48 907.067 1443.01 929.165 C 1444.32 948.036 1444.75 961.161 1439.96 980.053 C 1439.3 986.72 1427.56 1012.35 1430.02 1017.82 C 1445.6 1052.43 1472.55 1094.75 1482.76 1130.95 C 1502.86 1202.2 1494.85 1277.44 1474.91 1347.47 C 1464.13 1385.33 1453.77 1415.82 1447.27 1454.33 C 1425.27 1572.73 1425.2 1668.73 1339.72 1765.48 C 1313.65 1794.99 1284.33 1812.26 1244.06 1814.92 C 1199.93 1817.85 1120.25 1790.8 1082.74 1768.26 C 1033.38 1738.61 992.796 1682.4 947.317 1645.72 C 929.349 1631.22 910.507 1617.8 892.723 1603.66 C 849.756 1569.49 801.126 1535.29 760.582 1498.8 C 705.009 1448.79 637.824 1388.17 615.076 1314.58 C 605.657 1284.11 603.725 1255.93 601.839 1224.62 C 595.081 1215.09 585.222 1205.45 577.628 1196.06 C 563.485 1178.57 555.147 1159.13 547.601 1138.14 C 524.586 1074.11 519.383 1013.45 526.068 946.082 C 532.711 879.152 555.532 831.631 590.322 775.24 C 607.138 749.848 621.842 726.732 633.59 698.316 C 657.257 641.071 664.476 575.059 695.31 521.242 C 716.999 483.387 752.062 452.174 785.523 425.1 C 766.725 399.249 731.305 376.003 698.671 374.936 C 686.801 374.241 670.731 379.863 660.215 372.784 C 642.473 360.84 642.33 327.593 653.298 311.025 C 658.631 302.969 664.375 300.244 673.332 298.518 C 673.748 289.871 674.793 274.089 686.196 272.823 C 696.613 275.476 698.911 286.26 704.787 295.509 C 716.258 297.477 726.695 298.541 738.244 301.073 C 761.433 306.158 780.472 314.62 801.532 324.703 C 795.852 307.289 781.763 286.877 777.952 270.811 C 772.137 246.304 811.929 235.916 830.561 233.362 z"/>
<path transform="translate(0,0)" fill="rgb(146,75,67)" d="M 1053.9 591.123 C 1147.82 615.419 1202.39 580.504 1286.79 548.663 C 1303.99 540.974 1328.52 538.76 1344.46 529.414 C 1364.48 517.683 1380.75 496.081 1400.38 483.578 C 1407.58 478.992 1414.92 483.372 1421.09 487.34 C 1409.83 498.333 1384.65 525.545 1374.46 533.186 C 1397.68 533.368 1417.8 529.372 1442.08 530.171 C 1431.07 543.062 1411.66 567.359 1414.41 585.852 C 1417.59 584.394 1437.59 524.167 1460.15 535.172 C 1461.79 542.617 1448.65 548.437 1444.74 554.383 C 1424.04 585.861 1415.82 619.463 1430.17 654.892 C 1372.57 654.278 1285.35 663.924 1239.88 702.344 C 1221.24 718.096 1215.14 770.086 1206.67 795.14 C 1194.37 831.57 1175.81 860.579 1160.33 895.306 C 1156.29 904.369 1154.88 917.751 1154.81 927.54 C 1154.19 943.394 1168.48 1036.05 1162.53 1042.45 C 1158.25 1040.31 1150.18 1032.09 1146.02 1028.31 C 1130.1 1013.85 1118.02 1003.43 1098.2 994.93 C 1119.21 1015.56 1149.49 1032.63 1166.5 1061.53 C 1168.46 1098.29 1168.45 1117.27 1150.9 1151.3 C 1146.04 1160.75 1140.39 1171.2 1133.1 1179.13 C 1103.67 1211.15 1055.18 1199.33 1018.13 1209.93 C 1005.96 1213.41 995.806 1219.81 985.986 1227.56 C 995.581 1223.55 1007.2 1217.23 1016.42 1214.59 C 1035.67 1209.08 1057.72 1211.67 1077.59 1210.78 C 1087.94 1210.31 1097.49 1208.37 1107.62 1206.18 C 1099.14 1213.48 1082.92 1228.24 1073.92 1232.61 C 1053.24 1242.68 1038.93 1245.1 1019.38 1258.62 C 998.502 1273.07 989.029 1293.77 967.929 1304.9 C 947.635 1315.61 917.158 1311.46 899.662 1329.16 C 909.418 1324.27 916.482 1320.88 927.06 1318.7 C 941.166 1315.8 964.035 1314.46 976.49 1306.65 C 1007.85 1287 1008.88 1269.43 1046.8 1254.7 C 1039.7 1264.02 1027.69 1277.11 1023.51 1287.43 C 1015.98 1305.97 1018.26 1320.38 998.852 1332.23 C 980.977 1343.15 968.553 1358.06 962.893 1378.41 C 961.484 1383.27 957.678 1390.43 959.335 1395.68 C 960.527 1394.51 964.046 1383.03 965.276 1379.91 C 977.411 1349.13 991.477 1343.92 1016.41 1325.43 C 1016.65 1334.76 1016.58 1345.63 1018.11 1354.63 C 1021.46 1374.44 1028.43 1393.22 1025.9 1413.62 C 1025.36 1417.99 1023.35 1425.68 1023.89 1429.63 C 1041.04 1394.98 1013.4 1350.84 1026.47 1308.32 C 1042.22 1257.1 1080.81 1247.63 1119.33 1215.96 C 1142.13 1197.72 1152.18 1183.46 1171.09 1162.97 C 1170.89 1198.1 1150.32 1246.33 1133.18 1276.92 C 1113.09 1312.77 1091.17 1346.46 1093.56 1389.74 C 1097.06 1453.32 1047.46 1498.31 1028.38 1557.23 C 1021.45 1551.88 999.483 1531.93 992.307 1525.16 C 980.625 1514.14 941.443 1483.97 934.648 1474.14 C 944.917 1477.51 951.694 1480.72 959.738 1484.24 C 967.824 1487.78 1010.87 1513.61 1015 1513.87 L 1015.25 1512.8 C 1011.88 1507.4 977.708 1482.1 969.367 1474.34 C 948.275 1454.74 940.682 1445.95 925.872 1421.15 C 930.957 1423.83 945.742 1432.59 950.583 1431.61 C 949.848 1429.34 922.193 1406.89 916.596 1400.13 C 901.45 1381.84 890.16 1363.6 878.147 1343.19 C 885.471 1347.97 895.932 1356.19 903.031 1359.34 C 898.955 1352.26 884.865 1339.01 878.544 1332.12 C 869.832 1322.56 861.673 1312.51 854.106 1302.02 C 850.503 1297.08 831.882 1265.85 831.322 1265.34 C 827.671 1269.12 833.384 1284.16 834.977 1289.06 C 808.55 1264.95 783.455 1237.08 770.225 1203.25 C 775.753 1178.65 781.901 1167.96 790.767 1145.06 C 796.275 1130.83 800.321 1105.65 802.524 1090.21 C 823.102 1124.97 839.317 1150.15 850.573 1189.56 C 859.068 1219.3 890.4 1239.17 918.543 1249.52 C 903.249 1238.36 884.204 1229.31 872.575 1214.4 C 855.349 1192.31 853.416 1161.75 841.939 1136.56 C 826.333 1102.3 808.839 1087.6 802.934 1048.74 C 802.661 1046.95 802.43 1045.15 802.24 1043.34 C 842.83 1110.26 882.386 1060.04 920.784 1118.05 C 931.003 1133.49 930.947 1155.6 946.622 1167.68 C 951.424 1171.38 970.524 1185.68 975.008 1186.43 C 973.305 1178.86 949.665 1167.68 945.37 1159.84 C 932.729 1136.77 932.26 1119.82 916.487 1097.13 C 946.435 1096.04 949.71 1102.82 971.376 1120.8 C 962.17 1105.85 951.584 1096.74 933.876 1092.08 C 926.821 1090.23 916.315 1091.21 911.388 1089.81 C 905.421 1088.11 893.386 1079.73 886.478 1078.17 C 857.581 1071.67 836.687 1073.7 818.497 1045.74 C 805.239 1025.37 804.163 1006.46 808.482 982.643 C 838.309 958.232 869.713 916.257 910.039 920.432 C 930.864 922.588 943.224 933.189 960.894 943.027 C 967.04 946.449 974.248 949.273 980.784 951.835 C 984.327 980.7 996.235 1003.58 1019.52 1021.77 C 1039.85 1037.66 1061.88 1043.33 1081.66 1063.11 C 1092.54 1073.98 1098.15 1090.16 1103.47 1095.83 C 1079.34 1023.15 1016.23 1039.87 993.644 971.19 C 992.806 968.642 988.877 953.502 993.222 953.391 C 1018.64 952.742 1034.62 963.819 1051.87 981.349 C 1042.63 965.669 1036.75 964.572 1025.05 952.615 C 1032 949.036 1034.74 947.999 1042.74 946.571 C 1056 951.078 1060.18 957.278 1069 967.782 C 1050.86 923.987 1022.78 954.08 1012.16 948.185 C 1010.82 944.79 1013.42 929.114 1013.51 923.249 C 1009.5 932.261 1007.41 938.358 1005.23 948.111 C 1001.58 947.612 997.731 947.015 994.085 946.624 C 998.425 935.262 1005.22 915.223 1011.43 905.869 C 1028.91 900.484 1025.69 901.966 1042.11 904.616 C 1041.89 892.894 1014.73 895.936 1007.03 901.867 C 1005.95 900.553 1005.98 900.601 1006.35 898.628 C 1014.64 854.743 1066.53 852.68 1094.74 827.788 C 1099.87 823.262 1114.48 808.911 1114.55 801.923 L 1112.9 800.45 C 1108.48 803.427 1102.55 812.127 1098.26 816.151 C 1093.23 820.868 1088.77 824.013 1083.15 827.881 C 1065.49 840.02 1042.29 845.558 1024.92 857.701 C 1011.93 866.784 998.324 881.659 995.752 897.527 C 992.742 916.095 995.755 929.954 981.775 945.68 C 967.394 942.329 963.333 939.171 952.228 929.591 C 966.477 903.132 984.155 874.757 1007.46 855.598 C 1017.48 847.361 1029.01 840.154 1039.06 831.786 C 1014.87 839.199 985.348 862.598 971.813 883.537 C 962.204 898.402 954.792 912.197 944.252 927.412 C 928.098 916.664 922.659 913.924 904.081 909.135 C 915.587 894.417 934.797 874.031 949.374 863.198 C 995.807 828.691 1063.42 793.816 1056.06 725.51 C 1052.94 696.486 1035.17 680.861 1011.58 667.225 L 1014.08 653.088 C 1039.78 661.419 1052.02 670.3 1066.54 692.806 L 1067.78 692.081 C 1068.12 685.803 1059.04 672.491 1055.1 668.122 C 1046.06 658.106 1029.66 650.096 1017.03 645.773 L 1022.57 630.677 C 1022.75 630.194 1023.92 628.484 1024.25 627.975 C 1033.56 613.012 1040.21 602.515 1053.9 591.123 z"/>
<path transform="translate(0,0)" fill="rgb(82,22,16)" d="M 1075.78 667.578 L 1077.01 664.986 C 1106.67 689.625 1098.66 741.124 1084.4 771.989 C 1090.96 739.154 1095.95 712.803 1081.79 680.767 C 1080.58 678.031 1077.21 669.884 1075.78 667.578 z"/>
<path transform="translate(0,0)" fill="rgb(98,27,21)" d="M 1022.57 630.677 C 1022.75 630.194 1023.92 628.484 1024.25 627.975 C 1037.43 633.251 1055.3 640.319 1064.35 651.573 L 1064.28 655.637 C 1051.58 646.993 1031.76 637.827 1022.57 630.677 z"/>
<path transform="translate(0,0)" fill="rgb(126,57,51)" d="M 1064.35 651.573 C 1069.53 653.5 1075.37 659.745 1077.01 664.986 L 1075.78 667.578 C 1072.46 663.504 1068 659.623 1064.28 655.637 L 1064.35 651.573 z"/>
<path transform="translate(0,0)" fill="rgb(82,22,16)" d="M 1405.88 633.416 C 1409.05 633.272 1409.74 633.276 1412.88 633.658 L 1413.48 634.992 C 1410.62 637.889 1396.27 639.661 1391.53 640.412 C 1351.25 646.784 1318.55 651.069 1280.23 666.12 C 1277.34 667.107 1277.01 667.447 1273.92 667.222 L 1274.39 665.941 C 1279.1 660.964 1284.99 659.264 1291.25 656.507 C 1326.02 641.206 1368.04 635.633 1405.88 633.416 z"/>
<path transform="translate(0,0)" fill="rgb(82,22,16)" d="M 1243.94 581.25 L 1246.49 581.527 C 1243.66 585.797 1222.8 593.42 1217.2 595.584 C 1179.28 610.227 1141.99 621.587 1100.79 618.942 C 1100.3 618.868 1098.95 618.25 1098.42 618.029 C 1099.66 617.18 1131.32 613.503 1136.98 612.451 C 1173.26 605.702 1208.53 588.938 1243.94 581.25 z"/>
<path transform="translate(0,0)" fill="rgb(82,22,16)" d="M 1182.28 755.573 C 1184.56 761.283 1180.65 781.958 1179.64 788.619 C 1175.34 816.892 1162.43 843.414 1145.9 866.497 C 1142.07 871.849 1136.32 879.904 1130.93 883.711 C 1129.34 876.737 1140.53 864.618 1144.48 857.386 C 1155.67 836.954 1166.16 817.368 1172.55 794.74 C 1176.1 782.179 1178.2 769.237 1181.9 756.815 L 1182.28 755.573 z"/>
<path transform="translate(0,0)" fill="rgb(82,22,16)" d="M 906.851 995.508 C 921.301 992.885 935.647 996.002 948.572 1002.69 C 965.419 1011.4 989.56 1034.04 995.158 1052.34 C 990.911 1050.18 977.93 1035.07 973.844 1030.86 C 958.212 1014.76 942.982 1004.09 920.757 999.444 C 915.75 998.398 910.634 998.786 906.851 995.508 z"/>
<path transform="translate(0,0)" fill="rgb(82,22,16)" d="M 1274 648.836 L 1275.28 649.148 C 1275.64 651.708 1266.31 656.434 1263.45 658.099 C 1230.97 677.009 1216.99 687.358 1195.13 717.204 L 1194.65 717.455 L 1193.96 716.544 C 1200.73 686.341 1248.02 659.452 1274 648.836 z"/>
<path transform="translate(0,0)" fill="rgb(82,22,16)" d="M 1241.96 640.828 C 1243.69 640.686 1242.85 640.507 1244.45 641.505 C 1242.15 645.575 1226.03 653.531 1220.87 656.954 C 1205.63 667.055 1194.31 679.092 1181.73 692.062 C 1181.05 692.448 1181.51 692.275 1180.23 692.117 C 1180.02 688.525 1184.5 683.867 1186.77 681.227 C 1201.2 664.474 1222.24 650.046 1241.96 640.828 z"/>
<path transform="translate(0,0)" fill="rgb(82,22,16)" d="M 1053.71 973.006 C 1070.19 972.178 1076.85 980.35 1085.98 992.33 C 1081.73 990.485 1072.05 982.881 1067.11 980.249 C 1062.69 977.893 1057.8 975.619 1053.71 973.006 z"/>
<path transform="translate(0,0)" fill="rgb(98,27,21)" d="M 1277.07 569.103 C 1280.96 568.673 1279.5 568.127 1282.43 569.526 C 1279.21 573.35 1268.23 576.189 1263.23 577.7 C 1259.59 577.384 1260.82 578.132 1258.32 576.37 C 1261.94 573.11 1271.97 570.587 1277.07 569.103 z"/>
<path transform="translate(0,0)" fill="rgb(146,75,67)" d="M 1233.47 1018.28 C 1240.49 1020.69 1251.38 1033.51 1260.92 1036.71 C 1287.27 1045.53 1312.95 1038.73 1340.37 1047.11 C 1361.04 1053.43 1385.99 1051.59 1406.11 1043.73 C 1421.45 1051.68 1434.13 1071.69 1441.89 1086.68 C 1498.93 1196.71 1469.57 1304.06 1433 1414.13 C 1427.11 1431.86 1418 1450.48 1412.77 1467.9 L 1412.33 1469.41 C 1412.51 1469.22 1412.7 1469.02 1412.88 1468.82 L 1413.77 1467.82 C 1419.37 1461.65 1424.02 1453.62 1428.53 1446.51 C 1427.43 1471.57 1420.83 1500.44 1415.72 1525.07 C 1403.14 1585.72 1393.9 1631.14 1349.5 1677.94 C 1352.68 1667.15 1361.27 1650.63 1365.43 1640.25 C 1373.21 1620.84 1398.42 1556.04 1394.43 1537.27 C 1390.94 1538.2 1383.14 1562.59 1381.68 1566.73 C 1363.64 1616.93 1333.24 1683.65 1290.34 1716.36 C 1235.85 1757.92 1152.14 1712.56 1129.64 1654.74 C 1110.58 1605.77 1113.31 1563.24 1101.74 1513.5 C 1099.08 1502.06 1093.85 1488.49 1086.99 1479.22 L 1086.13 1478.08 C 1084.53 1490.93 1085.12 1502.91 1082.93 1516.96 C 1078.84 1543.23 1071.25 1565.66 1063.27 1590.71 C 1054.24 1581.02 1043.04 1570.72 1033.5 1561.09 C 1043.11 1530.47 1062.01 1506.86 1077.54 1478.81 C 1086.43 1462.74 1092.48 1449.46 1099.56 1432.6 C 1109.72 1458.51 1119.36 1482.89 1122.97 1510.75 C 1124.45 1532.67 1121.28 1549.6 1118.2 1571.1 C 1128.17 1543.85 1131.89 1523.85 1129.24 1494.62 C 1125.73 1456.04 1120.6 1415.33 1139.02 1379.48 C 1148.99 1360.09 1163.82 1341.72 1176.97 1324.16 C 1178.21 1332.59 1179.57 1340.54 1181.53 1348.77 C 1188.78 1379.04 1207.97 1403.9 1211.1 1435.34 C 1211.67 1441.12 1210.92 1471.62 1212.3 1473.15 C 1215.65 1444.96 1217.12 1421.1 1206.24 1394.22 C 1192.51 1359.31 1177.2 1325.16 1198.7 1289.73 C 1211.29 1268.99 1219.63 1241.17 1227 1218.29 C 1233.42 1224.35 1243.06 1238.48 1248.35 1245.99 C 1276.26 1285.04 1299.19 1329.69 1299.05 1378.22 C 1298.91 1427.06 1295.13 1450.02 1257.99 1481.61 C 1241.91 1495.29 1235.13 1523.9 1236.01 1545.66 C 1240.36 1514.6 1245.92 1495.91 1270.35 1474.42 C 1293.77 1453.82 1299.22 1435.14 1304.71 1405.08 C 1309.87 1412.46 1315.39 1419.95 1320.79 1427.17 C 1331.66 1441.71 1336.45 1458.52 1344.65 1474.51 C 1341.16 1460.18 1337.35 1447.34 1329.82 1434.51 C 1323.17 1423.2 1311.57 1409.53 1308.07 1396.92 C 1305.56 1387.9 1307.51 1369.24 1307.09 1359.03 C 1305.55 1321.43 1296.42 1297.39 1280.97 1264.52 C 1315.37 1283.57 1334.46 1292.81 1346.79 1332.23 C 1348.86 1338.84 1349.24 1344.83 1351.03 1350.54 L 1351.66 1350 C 1351.7 1338.84 1348.62 1330.58 1345.77 1320.55 C 1331.03 1268.58 1281.39 1271.21 1258.77 1228.75 C 1252.22 1216.46 1244.14 1200.76 1240.53 1187.27 C 1228.24 1141.25 1221.25 1064.58 1233.47 1018.28 z"/>
<path transform="translate(0,0)" fill="rgb(82,22,16)" d="M 1386.17 1072.85 C 1386.54 1069.51 1385.75 1070.51 1387.62 1068.9 L 1391.91 1071.64 C 1401.84 1085.56 1409.92 1097.62 1417.3 1113.47 C 1443.82 1170.44 1442.98 1235.24 1433.59 1296.1 C 1430.93 1313.39 1426.9 1332.34 1420.65 1348.45 C 1421.52 1330.56 1424.9 1311.29 1426.81 1293.18 C 1435.01 1215.33 1436.64 1138.55 1386.17 1072.85 z"/>
<path transform="translate(0,0)" fill="rgb(82,22,16)" d="M 1169.34 1513.52 C 1172.42 1516.14 1170.12 1528.21 1169.51 1532.24 C 1159.36 1598.74 1172.29 1656.76 1251.88 1653.44 C 1257.36 1653.21 1265.44 1650.67 1270.64 1651.31 L 1270.59 1652.64 L 1266.73 1655.1 C 1247.72 1660.87 1231.23 1661.64 1211.84 1656.59 C 1150.22 1640.57 1155.35 1561.92 1169.34 1513.52 z"/>
<path transform="translate(0,0)" fill="rgb(82,22,16)" d="M 1360.22 1077.81 C 1368.42 1077.8 1381.2 1096.07 1386.79 1102.64 C 1417.03 1138.21 1421.38 1188.87 1415.94 1233.49 L 1415.04 1233.58 C 1412.98 1231.68 1412.67 1210.91 1412.65 1207.36 C 1412.35 1168.14 1402.1 1134.16 1378.79 1102.41 C 1375.48 1097.91 1360.67 1081.58 1360.22 1077.81 z"/>
<path transform="translate(0,0)" fill="rgb(82,22,16)" d="M 1330.3 1490.68 C 1334.82 1507.89 1335.83 1560.74 1332.96 1578.44 C 1328.83 1603.87 1319.5 1631.23 1298.01 1647.21 C 1296.78 1648.1 1297.58 1647.71 1295.46 1647.97 C 1295.56 1644.09 1303.49 1635.65 1306.09 1632.04 C 1332.08 1595.97 1328.2 1549.45 1329.26 1507.34 C 1329.41 1501.39 1329.2 1496.52 1330.3 1490.68 z"/>
<path transform="translate(0,0)" fill="rgb(82,22,16)" d="M 1291.14 1061.54 L 1293.08 1062.43 C 1294.02 1065.96 1287.32 1086.14 1286.46 1091.77 C 1282.46 1118.08 1283.59 1143.74 1287.52 1169.98 C 1288.33 1175.37 1290.74 1185.65 1290.7 1190.46 L 1289.53 1190.46 C 1275.67 1157.07 1269.47 1092.62 1291.14 1061.54 z"/>
<path transform="translate(0,0)" fill="rgb(82,22,16)" d="M 1389.68 1439.81 C 1390.01 1440.16 1390.52 1441.45 1390.76 1441.97 C 1387.52 1475.48 1376.76 1546.17 1362.24 1576.26 L 1361.66 1576.11 C 1360.52 1573.79 1361.21 1570.41 1361.86 1567.97 C 1373.07 1525.64 1381.12 1482.7 1389.68 1439.81 z"/>
<path transform="translate(0,0)" fill="rgb(82,22,16)" d="M 1195.21 1616.49 C 1200.72 1617.19 1208.98 1627.67 1219.11 1631.01 C 1246.43 1640.04 1261.68 1633.35 1285.44 1622.41 L 1286.72 1622.92 L 1285.5 1625.54 C 1264.89 1641.77 1238.85 1647.1 1214.38 1635.82 C 1206.33 1632.11 1198.23 1625.02 1195.21 1616.49 z"/>
<path transform="translate(0,0)" fill="rgb(82,22,16)" d="M 1315.85 1647.03 C 1316.77 1648.21 1316.51 1648.24 1316.84 1649.93 C 1313.51 1661.14 1301.53 1673.81 1292.76 1681.32 C 1275.14 1696.41 1259.19 1699.87 1236.53 1697.81 L 1234.64 1696.54 L 1234.93 1695.35 L 1244.49 1694.35 C 1281.07 1690.62 1293.96 1673.97 1315.85 1647.03 z"/>
<path transform="translate(0,0)" fill="rgb(82,22,16)" d="M 1373.98 1184.74 C 1375.98 1187.09 1378.39 1194.78 1379.34 1198.01 C 1388.14 1228.26 1390.86 1261.24 1388.4 1292.49 C 1384.12 1283.37 1385.92 1239.65 1382.79 1225.77 C 1381.31 1219.2 1373.82 1188.39 1373.98 1184.74 z"/>
<path transform="translate(0,0)" fill="rgb(98,27,21)" d="M 1146.15 1644.82 C 1149.91 1647.46 1158.95 1665.57 1163.39 1670.97 C 1170.78 1679.96 1181.24 1684.72 1188.33 1692.45 C 1171.4 1690.76 1142.02 1661.6 1146.15 1644.82 z"/>
<path transform="translate(0,0)" fill="rgb(82,22,16)" d="M 1386.58 1304.94 C 1391.02 1311.78 1384.19 1369.21 1381.48 1380.25 C 1380.26 1370.25 1385.49 1317.61 1386.58 1304.94 z"/>
<path transform="translate(0,0)" fill="rgb(126,57,51)" d="M 1386.17 1072.85 C 1382.16 1066.23 1377.89 1060.83 1374.03 1054.44 L 1374.56 1054.22 C 1380.65 1059.37 1387.89 1064.82 1391.91 1071.64 L 1387.62 1068.9 C 1385.75 1070.51 1386.54 1069.51 1386.17 1072.85 z"/>
<path transform="translate(0,0)" fill="rgb(146,75,67)" d="M 1203.03 289.437 C 1212.49 278.79 1213.76 269.895 1221.29 260.598 C 1224.11 259.603 1222.69 259.645 1225.68 260.712 C 1230.34 268.18 1219.47 285.014 1224.41 288.372 C 1245.46 302.679 1264.43 305.01 1279.59 327.954 C 1276.01 335.931 1272.27 340.752 1267 347.575 C 1260.46 343.457 1249.34 333.298 1241.94 333.514 C 1239.06 333.598 1239.35 333.671 1235.86 333.332 C 1220.66 329.991 1217.89 330.996 1202.93 330.977 C 1173.23 333.805 1124.14 371.671 1125.96 405.478 C 1126.66 418.372 1142.74 426.424 1152.95 430.811 C 1179.64 442.63 1210.15 460.329 1227.4 484.651 C 1218.48 511.987 1195.91 532.762 1168.46 541.034 C 1175.77 529.706 1185.01 519.126 1189.88 506.901 C 1175.84 516.434 1161.25 547.381 1143.68 544.713 L 1142.66 543.089 C 1144.92 536.426 1149.97 532.778 1148.32 527.579 C 1142.34 527.298 1138.47 541.455 1132.34 543.125 C 1127.99 542.409 1129.72 543.353 1126.73 540.68 C 1123.65 530.033 1137.3 512.669 1131.37 500.378 L 1130.34 500.546 C 1126.56 510.818 1119.32 545.565 1105.61 542.291 C 1104.43 536.781 1106.81 531.215 1105.37 526.055 C 1102.74 528.565 1099.24 540.276 1097.91 544.306 L 1088.19 547.602 C 1091.73 532.417 1092.83 505.236 1090.47 490.316 L 1088.51 492.722 C 1091.01 511.499 1088.12 530.956 1081.56 548.651 C 1034.35 577.513 1007.75 602.991 993.53 659.304 C 982.233 704.043 991.149 730.425 1002.12 772.848 C 988.204 802.303 942.454 816.853 912.849 825.276 C 910.6 825.359 909.415 825.393 907.204 825.752 C 890.739 829.048 881.848 829.17 865.206 829.552 C 861.745 821.983 859.874 817.109 857.211 809.2 C 862.992 808.947 868.769 808.632 874.543 808.254 C 901.9 806.337 960.416 795.571 979.08 774.069 C 967.39 778.098 955.092 784.312 943.164 788.457 C 915.229 798.164 887.428 801.468 858.121 802.069 C 858.527 793.081 858.586 786.104 858.307 777.113 C 897.794 776.101 936.911 767.875 971.144 747.645 C 958.998 749.723 944.081 756.325 931.796 759.562 C 906.597 766.201 881.264 767.86 855.362 768.126 L 856.098 749.222 C 872.865 747.857 882.538 748.452 898.521 743.22 C 886.691 742.364 868.108 743.41 855.067 743.174 L 855.08 722.913 C 878.729 722.937 904.477 723.776 926.236 713.696 C 900.741 713.826 884.09 716.175 856.967 714.952 C 858.025 695.119 854.971 691.71 848.202 673.613 C 857.996 674.718 867.806 675.69 877.626 676.529 C 891.085 677.638 942.561 679.316 950.616 672.491 C 946.412 671.587 939.341 671.775 934.89 671.981 C 896.946 673.734 862.6 667.652 825.427 660.285 C 833.693 659.603 838.043 659.733 846.05 661.122 C 845.913 652.25 846.037 645.149 846.534 636.292 C 855.036 638.212 892.081 645.527 897.659 642.024 C 894.766 638.268 854.27 631.742 847.579 630.516 C 849.849 624.061 852.607 618.078 855.38 611.831 C 852.107 608.214 840.128 608.295 837.107 605.11 C 847.492 596.053 927.817 619.113 947.051 620.21 L 948.397 620.279 C 931.332 612.856 883.8 600.03 864.919 595.623 C 869.782 588.72 874.175 581.163 878.554 573.917 C 888.786 576.763 901.892 585.319 909.889 584.534 L 909.97 582.919 C 903.38 574.998 889.881 568.458 880.655 563.757 C 882.225 549.444 882.518 545.089 888.035 532.011 L 888.861 532.186 L 890.234 532.497 C 905.146 535.743 920.048 542.981 935.938 546.842 C 921.374 536.341 909.554 531.724 893.117 525.435 C 900.926 518.896 908.975 511.789 917.459 506.238 C 927.207 508.648 929.497 511.582 941.477 512.423 L 941.542 511.489 C 934.313 506.712 931.42 505.149 923.522 501.556 C 927.456 498.399 931.418 495.276 935.407 492.188 L 959.028 501.115 C 952.124 493.07 950.97 491.876 941.222 487.938 C 948.235 482.253 954.152 477.363 961.764 472.397 C 969.373 475.872 975.123 478.137 983.011 480.977 C 978.089 474.883 973.24 472.631 966.563 468.503 L 979.874 460.717 C 987.652 464.315 992.677 466.378 1000.76 469.159 C 995.694 462.621 992.449 461.189 985.371 457.186 C 990.002 454.861 1014.72 442.979 1016.34 440.272 C 1014.35 439.379 1014.97 439.706 1013.3 438.803 L 1012.27 438.234 L 1011.15 437.364 C 1001.14 439.689 990.422 441.764 980.21 444.093 C 989.942 437.125 1000.04 435.7 1007.3 428.628 L 1006.31 429.311 L 1004.88 428.36 C 1000.76 429.517 997.127 430.902 993.432 429.031 C 992.429 425.265 992.532 427.19 993.653 423.047 C 998.455 417.199 1008.17 417.234 1016.87 414.893 C 1008.76 413.498 1005.05 413.133 996.822 412.858 L 999.936 403.594 C 1003.71 402.856 1008.91 402.463 1011.58 400.386 C 1008.2 398.69 1004.43 397.895 1000.75 396.931 C 1000.09 394.206 1000.18 395.638 1002.09 392.214 C 1005.69 389.555 1008.25 391.531 1012.6 390.196 L 1013.13 388.488 L 1011.46 387.034 C 1008.48 386.696 1007.94 386.875 1005.35 385.31 C 1003.53 381.715 1003.63 383.476 1004.74 379.873 C 1010.5 374.405 1017.63 375.993 1025.67 376.104 C 1018.11 373.115 1014.14 371.892 1006.26 370.433 C 1006.98 365.81 1007.9 361.009 1008.71 356.381 C 1015.87 356.191 1020.88 355.912 1027.99 355.088 C 1022.25 353 1016.07 353.205 1013.09 350.512 C 1011.48 347.492 1011.4 347.705 1011.33 344.337 C 1015.52 337.753 1027.1 339.373 1030.53 336.249 C 1025.49 334.161 1020.38 333.558 1014.98 332.603 L 1017.63 320.572 C 1022.33 321.169 1025.22 321.957 1029.73 320.574 L 1030.14 319.283 C 1026.46 316.857 1022.8 316.95 1018.31 316.44 L 1021.51 304.732 C 1025.79 304.893 1036.62 305.832 1039.59 303.162 C 1034.06 300.875 1029.3 300.909 1024.91 297.66 C 1019.01 283.998 1037.27 290.201 1042.98 287.696 L 1043.06 286.178 C 1039.22 284.346 1029.68 283.963 1025.01 283.555 L 1031.06 272.788 C 1045.95 273.262 1056.93 274.078 1071.86 272.668 C 1063.48 303.897 1034.64 384.855 1040.46 412.031 C 1041.59 417.324 1044.22 422.545 1049 425.404 C 1053.02 427.808 1057.76 427.809 1062.19 426.719 C 1067.19 425.491 1074.35 422.028 1077.11 417.612 L 1076.12 415.975 C 1073.98 415.404 1059.73 419.49 1053.87 420.21 C 1080.2 406.141 1075.63 392.281 1090.11 371.233 C 1093.58 369.864 1095.99 372.067 1101.43 371.852 L 1101.99 370.594 C 1100.31 368.264 1097 367.094 1094.28 365.754 C 1097.59 359.021 1098.63 357.318 1103.3 351.606 L 1107.5 352.886 C 1110.84 353.918 1112.08 354.817 1115.38 353.667 C 1114.77 351.015 1111.55 349.344 1109.08 345.975 C 1110.42 342.783 1112.51 341.358 1115.1 339.012 C 1118.32 338.838 1127.83 342.796 1133.33 343.705 L 1133.63 342.709 C 1130.07 338.471 1125.98 336.441 1121.24 333.519 C 1128.3 325.473 1147.52 311.223 1157.24 307.089 C 1162.74 311.505 1165.68 313.839 1171.69 317.466 C 1167.89 311.041 1166.62 309.604 1161.57 304.099 C 1176.78 296.655 1187.29 294.728 1203.03 289.437 z"/>
<path transform="translate(0,0)" fill="rgb(98,27,21)" d="M 1011.15 437.364 C 1031.04 432.599 1038.07 438.447 1051.17 453.001 C 1040.97 448.239 1022.47 433.58 1012.27 438.234 L 1011.15 437.364 z"/>
<path transform="translate(0,0)" fill="rgb(98,27,21)" d="M 1225.46 329.933 C 1228.73 326.703 1232.19 322.765 1236.18 320.733 C 1239.94 323.525 1236.29 329.169 1235.86 333.332 C 1220.66 329.991 1217.89 330.996 1202.93 330.977 C 1209.6 329.472 1218.47 329.877 1225.46 329.933 z"/>
<path transform="translate(0,0)" fill="rgb(82,22,16)" d="M 1085.44 467.775 C 1088.05 475.593 1089.97 482.081 1090.47 490.316 L 1088.51 492.722 C 1087.14 483.879 1086.19 476.682 1085.44 467.775 z"/>
<path transform="translate(0,0)" fill="rgb(82,22,16)" d="M 960.147 534.922 C 974.236 534.292 999.164 561.95 1006.9 572.488 C 1001.15 571.063 968.832 541.544 960.147 534.922 z"/>
<path transform="translate(0,0)" fill="rgb(98,27,21)" d="M 940.745 587.946 C 949.985 587.938 977.263 601.167 983.776 607.074 C 973.941 607.261 949.017 594.014 940.745 587.946 z"/>
<path transform="translate(0,0)" fill="rgb(98,27,21)" d="M 1063.9 470.907 C 1072.42 476.928 1078.21 499.206 1075.18 509.042 C 1074.68 508.719 1074.19 508.397 1073.69 508.074 C 1071.42 494.198 1065 479.19 1063.9 470.907 z"/>
<path transform="translate(0,0)" fill="rgb(98,27,21)" d="M 1020.65 513.493 C 1028.75 519.211 1035.64 534.737 1036.34 544.477 C 1032.17 542.122 1022.59 518.932 1020.65 513.493 z"/>
<path transform="translate(0,0)" fill="rgb(98,27,21)" d="M 1160.76 502.954 L 1161.45 504.566 C 1160.18 512.162 1157.53 516.574 1153.05 522.776 C 1151.66 520.986 1152.21 522.032 1151.56 519.565 C 1153.01 513.569 1155.36 506.388 1160.76 502.954 z"/>
<path transform="translate(0,0)" fill="rgb(98,27,21)" d="M 970.778 508.082 C 978.498 510.423 983.514 515.177 984.698 523.251 C 980.668 521.258 970.959 512.771 970.778 508.082 z"/>
<path transform="translate(0,0)" fill="rgb(82,22,16)" d="M 1133.1 459.547 L 1134.68 461.142 C 1135.71 467.664 1135.16 473.837 1134.86 480.431 L 1133.33 478.864 C 1132.44 472.461 1132.91 466.036 1133.1 459.547 z"/>
<path transform="translate(0,0)" fill="rgb(146,75,67)" d="M 681.67 733.597 L 682.481 732.493 C 697.423 711.85 709.753 675.405 734.176 662.974 C 736.199 661.944 740.404 663.06 742.22 664.53 C 753.352 673.542 749.342 692.859 752.943 703.965 C 759.102 722.962 761.432 730.273 760.813 750.132 C 765.899 756.166 772.628 763.738 778.453 769.038 C 791.037 780.486 807.771 786.701 806.541 806.977 C 805.989 816.072 801.67 824.312 798.238 832.717 C 812.76 834.364 824.189 834.019 833.673 846.889 C 852.968 873.204 836.792 912.639 813.573 930.871 C 803.668 938.228 789.987 939.884 780.797 948.039 C 777.253 951.184 773.488 959.012 771.944 963.436 C 760.146 997.243 739.013 994.676 714.237 1008.87 C 706.856 1020.12 706.536 1031.3 698.352 1041.3 C 687.828 1054.16 671.268 1059.13 661.93 1072.97 C 656.308 1081.3 655.506 1096.17 652.06 1102.98 C 642.238 1122.39 626.216 1147.57 612.828 1164.29 C 617.847 1142.8 632.601 1118.31 628.615 1098.84 C 633.373 1095.64 638.313 1092.62 642.283 1088.51 C 644.952 1073.75 645.789 1055.29 660.139 1046.9 C 673.596 1039.65 683.02 1029.83 689.713 1016.26 C 692.649 1010.31 696.446 991.296 702.023 989.122 C 721.737 981.434 751.922 988.959 759.052 960.477 C 765.958 932.889 741.004 932.767 724.096 922.658 C 720.18 920.224 718.718 911.868 713.795 908.147 C 712.368 910.294 712.798 909.247 713.092 911.814 C 715.365 931.633 742.667 932.196 747.53 946.181 C 751.437 957.416 738.397 974.207 727.004 974.708 C 714.446 976.768 708.059 974.739 696.934 981.288 C 693.983 980.82 695.482 980.677 692.443 982.709 C 691.176 987.944 683.221 996.701 679.435 1001.36 C 669.964 994.61 671.272 992.172 663.978 986.001 L 662.666 986.196 C 662.08 993.343 669.096 1007.66 672.163 1014.82 C 662.503 1029.04 641.75 1041.54 626.574 1029.43 C 605.944 1012.96 586.628 967.691 582.096 942.445 C 574.002 897.345 585.942 847.321 611.608 809.834 C 611.799 806.202 619.542 803.714 619.146 790.819 L 616.94 789.942 L 615.842 788.918 C 621.147 776.54 657.054 740.433 667.845 729.064 C 673.859 722.729 682.187 711.216 688.274 705.673 C 685.402 715.362 682.823 723.442 681.67 733.597 z"/>
<path transform="translate(0,0)" fill="rgb(98,27,21)" d="M 616.94 789.942 C 619.378 787.929 620.494 786.61 623.592 785.982 C 624.226 788.857 621.672 791.059 622.711 792.375 C 636.363 779.496 650.367 765.456 668.025 758.291 C 659.083 768.851 645.721 779.534 635.551 790.453 C 629.542 796.903 619.446 812.166 616.071 815.046 C 612.674 813.339 614.262 812.804 611.608 809.834 C 611.799 806.202 619.542 803.714 619.146 790.819 L 616.94 789.942 z"/>
<path transform="translate(0,0)" fill="rgb(82,22,16)" d="M 690.175 928.99 C 695.418 938.611 698.118 947.968 702.51 956.311 C 720.569 962.037 721.163 963.043 735.562 952.265 C 737.928 958.147 731.76 963.291 726.352 964.34 C 715.748 966.397 707.249 965.394 697.911 959.998 L 695.666 957.69 C 693.271 946.67 690.597 940.441 690.175 928.99 z"/>
<path transform="translate(0,0)" fill="rgb(126,57,51)" d="M 695.666 957.69 L 697.911 959.998 C 696.229 963.845 696.958 976.148 696.934 981.288 C 693.983 980.82 695.482 980.677 692.443 982.709 L 691.954 980.498 C 694.783 973.799 695.148 964.963 695.666 957.69 z"/>
<path transform="translate(0,0)" fill="rgb(82,22,16)" d="M 725.198 698.95 C 745.243 699.336 749.405 737.838 748.415 752.964 C 752.164 756.411 755.981 759.59 758.816 763.819 C 761.749 767.739 761.173 772.289 760.667 776.897 C 760.338 779.896 761.263 779.966 764.433 780.47 C 774.834 782.125 783.201 784.307 789.415 793.757 C 801.015 811.399 782.1 830.426 774.291 845.237 C 772.699 848.253 769.358 865.894 768.38 870.561 L 766.796 870.347 C 765.489 864.513 769.207 846.883 771.847 840.995 C 776.85 829.839 785.054 821.308 786.601 808.552 C 788.622 791.881 777.926 785.828 762.8 785.017 C 751.572 784.489 743.916 793.378 736.623 800.722 C 717.665 822.318 724.223 820.05 695.7 833.106 C 710.528 820.668 723.235 813.798 734.798 796.764 C 739.734 789.493 755.453 781.724 755.191 770.727 C 755.079 766.022 744.64 757.69 741.104 754.499 C 740.939 741.913 740.51 718.728 731.264 710.672 C 718.546 699.591 698.393 750.642 694.459 755.317 L 693.846 754.44 C 694.193 735.703 707.442 707.048 725.198 698.95 z"/>
<path transform="translate(0,0)" fill="rgb(82,22,16)" d="M 794.921 841.116 C 863.157 838.228 821.062 953.266 755.383 924.843 L 753.889 923.112 C 760.254 920.589 772.732 922.838 780.091 919.124 C 793.964 912.124 818.993 897.393 807.993 878.605 C 806.585 876.199 806.544 876.478 806.155 873.721 L 810.645 872.855 C 814.892 872.04 815.918 872.282 819.134 869.608 C 820.814 866.085 821.075 863.933 819.993 860.166 C 813.835 838.737 800.778 847.482 792.918 842.74 L 794.921 841.116 z"/>
<path transform="translate(0,0)" fill="rgb(82,22,16)" d="M 594.165 910.311 C 598.702 912.177 599.369 929.233 600.062 934.292 C 602.622 952.958 609.765 969.353 619.661 985.251 C 623.677 991.704 631.402 1002.02 633.141 1009.02 C 624.109 1004.66 612.695 989.156 607.532 980.592 C 597.431 963.837 589.094 929.255 594.165 910.311 z"/>
<path transform="translate(0,0)" fill="rgb(82,22,16)" d="M 688.355 785.593 L 689.79 785.891 C 690.966 788.744 669.83 802.937 666.055 807.724 C 652.163 825.337 648.053 846.448 644.414 867.997 L 643.193 868.338 C 639.824 863.294 646.914 835.27 648.681 829.377 C 655.169 807.741 668.901 795.807 688.355 785.593 z"/>
<path transform="translate(0,0)" fill="rgb(82,22,16)" d="M 602.369 859.557 L 603.774 861.499 C 603.269 867.712 600.518 880.893 598.63 886.881 C 593.415 880.304 599.303 866.574 602.369 859.557 z"/>
<path transform="translate(0,0)" fill="rgb(146,75,67)" d="M 1483.67 638.853 L 1484.58 640.236 C 1484.6 645.359 1480.84 654.762 1478.73 659.454 C 1472.84 672.589 1458.76 679.951 1446.17 684.823 C 1413.4 697.495 1377.81 703.136 1344.98 714.986 C 1360.82 714.393 1379.17 711.933 1395.76 707.73 C 1423.85 700.179 1458.64 692.928 1480.14 672.304 C 1484.39 668.233 1489.89 652.398 1494.34 645.625 C 1502.15 655.485 1508.93 667.829 1510.65 680.364 C 1515.86 718.165 1471.61 704.843 1449.91 708.071 C 1437.83 709.868 1416.21 717.213 1408.31 726.979 C 1410.67 728.762 1429.28 718.956 1433.46 717.595 C 1445.31 713.741 1457.1 714.615 1469.25 715.608 C 1445.22 719.322 1409.96 731.567 1393.54 750.536 C 1390.81 753.694 1385.25 759.406 1385.51 763.55 L 1387.02 763.849 C 1403.97 746.404 1429.26 737.447 1453.11 735.086 C 1486.06 731.823 1518.66 753.793 1488.89 786.016 C 1482.88 781.817 1480.48 778.211 1475.77 772.898 C 1463.17 758.667 1455.67 749.423 1437.76 742.532 C 1442 746.005 1448.75 751.526 1451.56 756.11 C 1449.83 755.788 1440.55 746.695 1438.46 744.761 C 1435.75 745.715 1434.6 747.393 1432.36 749.529 C 1434.3 752.841 1445.37 756.298 1450.44 759.871 C 1435.95 759.605 1432.84 743.074 1413.29 765.246 C 1398.27 786.923 1407.32 789.551 1411.11 813.213 C 1413.61 828.862 1411.78 847.444 1408.39 862.898 C 1400.42 855.036 1392.53 847.096 1384.71 839.079 C 1391.7 802.541 1372.82 772.206 1339.47 757.652 C 1366.41 783.102 1378.72 792.984 1377.98 832.546 C 1354.85 810.323 1342.75 763.241 1301.81 783.41 C 1262.35 802.856 1258.93 806.793 1244.59 847.116 C 1223.66 854.969 1214.99 857.825 1204.12 878.485 C 1200.35 873.589 1197.95 869.109 1199.36 862.779 C 1204.72 844.868 1212.49 827.276 1219.8 809.644 C 1231.78 780.773 1231.82 736.475 1257.96 717.557 C 1277.62 703.325 1313.86 691.701 1331.45 713.294 C 1333.41 715.703 1331.67 714.462 1334.93 715.659 C 1343.96 712.675 1352.44 706.64 1361.66 703.336 C 1381.86 696.095 1423.38 687.759 1440.65 677.62 C 1449.68 672.313 1469.49 647.167 1483.67 638.853 z"/>
<path transform="translate(0,0)" fill="rgb(82,22,16)" d="M 1397.84 717.039 C 1400.2 716.807 1401.1 716.85 1403.48 716.881 L 1404.08 717.951 C 1401.91 720.07 1391.26 724.045 1387.13 726.319 C 1376.16 732.362 1367.1 738.928 1356.95 746.129 L 1354.16 747.592 L 1353.08 746.62 C 1357.25 735.71 1386.48 720.694 1397.84 717.039 z"/>
<path transform="translate(0,0)" fill="rgb(146,75,67)" d="M 1294.28 856.732 C 1285.84 849.032 1276.09 842.893 1275.36 830.757 C 1274.06 815.853 1282.28 811.679 1294.1 805.954 C 1303.41 801.443 1312.02 790.975 1323.62 793.113 C 1341.39 796.388 1351.26 822.401 1363.26 835.171 C 1391.63 865.37 1430.42 895.716 1425.97 941.806 C 1424.6 956.626 1421.92 970.714 1415.32 984.453 C 1409.79 995.96 1398.63 1001.85 1388.08 991.671 L 1385.77 991.258 L 1382.72 992.8 C 1382.88 999.387 1383.97 998.922 1389.67 1002.29 C 1390.89 1004.98 1390.95 1003.7 1390.07 1006.2 C 1371.22 1011.54 1373.67 972.89 1371.93 962.89 L 1371.64 961.19 C 1369.34 969.777 1367.74 979.011 1359.21 983.343 C 1343.97 991.082 1331.23 976.234 1323.31 966.268 C 1329.59 999.289 1350.49 1003.17 1351.49 1006.14 C 1349.58 1007.79 1348.16 1008.56 1345.48 1008.23 C 1326.34 1005.85 1313.22 987.837 1316.2 968.863 C 1317.39 961.305 1321.55 942.844 1319.63 936.309 C 1313.11 939.329 1304.72 959.781 1288.52 953.094 C 1282.64 950.667 1275.98 943.831 1276.87 937.246 C 1281.03 933.202 1291.06 935.738 1298.17 933.339 C 1303.46 931.557 1304.03 931.504 1309.35 928.861 C 1294.88 929.805 1273.32 933.725 1270.19 915.292 C 1265.59 915.431 1240.64 934.565 1232.41 922.426 C 1218.41 901.795 1222.41 864.175 1255.27 870.69 C 1265.12 860.372 1270.01 857.146 1285.08 856.779 C 1288.15 856.703 1291.21 856.688 1294.28 856.732 z"/>
<path transform="translate(0,0)" fill="url(#Gradient1)" d="M 1398.17 920.026 L 1399.02 920.043 C 1398.46 938.81 1401.33 956.474 1395.73 975.053 C 1393.77 981.578 1386.32 989.36 1385.77 991.258 L 1382.72 992.8 C 1384.32 986.482 1389.92 978.954 1392.13 970.321 C 1396.59 952.9 1396.07 937.588 1398.17 920.026 z"/>
<path transform="translate(0,0)" fill="rgb(126,57,51)" d="M 1398.17 920.026 C 1397.81 916.935 1396.83 912.83 1398.26 910.372 C 1400.77 913.381 1400.04 916.598 1399.02 920.043 L 1398.17 920.026 z"/>
<path transform="translate(0,0)" fill="rgb(98,27,21)" d="M 1306.53 809.085 L 1307.32 810.006 C 1291.47 827.691 1297.96 825.46 1304.52 846.589 C 1303.93 849.801 1304.72 848.516 1301.93 850.473 C 1289.99 834.621 1283.31 818.014 1306.53 809.085 z"/>
<path transform="translate(0,0)" fill="rgb(146,75,67)" d="M 866.119 401.223 C 869.548 400.774 873.004 400.562 876.462 400.586 C 892.01 400.806 901.241 410.673 898.932 426.442 C 895.295 451.284 877.521 472.569 869.31 496.569 C 862.871 515.391 864.128 536.507 853.933 553.153 C 845.869 565.196 829.288 563.11 817.645 574.445 C 778.027 613.013 779.214 664.401 775.711 714.399 C 761.735 686.843 766.576 638.257 776.08 610.017 C 783.09 589.186 790.162 586.925 791.539 561.557 C 787.549 567.313 784.399 574.238 780.883 579.899 C 765.245 605.075 761.502 620.068 756.104 648.652 C 744.121 641.148 737.506 641.84 725.298 647.687 C 730.001 629.041 734.547 611.01 742.047 593.248 C 743.862 588.947 749.667 577.82 750.334 574.48 C 747.152 575.479 743.734 582.55 742.171 585.536 C 723.327 615.451 725.72 641.771 700.384 666.123 C 704.449 627.663 715.026 590.175 731.664 555.262 C 737.65 542.428 746.921 530.603 750.858 517.655 C 727.484 538.862 722.092 558.101 707.676 582.115 C 708.161 579.357 708.705 576.61 709.306 573.875 C 718.736 531.714 739.51 506.496 770.218 478.944 C 791.714 459.656 806.9 447.658 831.275 432.041 C 809.648 437.028 788.746 455.533 768.738 467.119 C 788.929 438.155 831.374 408.804 866.119 401.223 z"/>
<path transform="translate(0,0)" fill="rgb(82,22,16)" d="M 877.476 412.873 C 900.82 413.639 879.595 449.747 874.267 459.057 C 864.74 475.706 857.868 491.618 854.138 510.484 C 851.853 522.038 849.897 536.226 843.583 546.189 C 841.318 549.736 834.898 550.921 831.019 551.424 C 829.615 550.259 825.57 546.891 824.94 545.498 C 803.865 498.922 840.114 436.314 877.476 412.873 z"/>
<path transform="translate(0,0)" fill="rgb(98,27,21)" d="M 800.425 496.585 L 801.884 496.74 L 802.764 498.317 C 801.418 501.447 780.61 522.255 774.818 530.347 L 773.628 531.38 L 773.424 529.773 C 778.626 516.555 789.38 505.242 800.425 496.585 z"/>
<path transform="translate(0,0)" fill="rgb(82,22,16)" d="M 813.307 541.65 C 815.782 549.935 812.855 561.307 804.845 565.591 C 803.391 560.502 810.797 546.62 813.307 541.65 z"/>
<path transform="translate(0,0)" fill="rgb(98,27,21)" d="M 782.357 484.563 L 784.285 485.191 C 783.355 487.577 778.079 491.176 775.649 493.153 L 774.687 493.859 L 774.423 492.584 C 777.252 488.184 778.095 487.685 782.357 484.563 z"/>
<path transform="translate(0,0)" fill="rgb(146,75,67)" d="M 855.573 248.809 C 859.061 252.386 870.56 276.764 873.435 282.397 C 890.54 315.917 905.559 350.572 922.089 384.329 C 931.428 403.399 940.591 426.674 952.38 443.993 C 942.065 450.782 913.484 476.052 902.66 475.384 C 898.848 470.084 906.969 463.921 907.432 460.425 C 904.656 460.26 905.542 460.543 903.056 459.528 C 901.639 454 906.312 446.026 908.544 440.561 C 912.453 431.131 912.621 412.704 907.908 403.656 C 890.405 370.054 843.715 390.808 820.135 402.048 C 817.599 399.427 794.564 375.033 794.684 373.444 C 794.952 369.865 798.261 367.724 797.925 363.444 L 796.052 362.748 C 792.619 364.388 791.327 367.149 789.131 370.379 C 781.191 365.121 773.459 361.999 765.729 356.256 C 765.876 353.446 766.12 351.179 766.45 348.412 L 765.408 347.088 C 762.708 348.369 761.779 350.821 759.775 353.718 C 755.08 351.513 752.106 350.508 747.235 348.873 L 746.449 347.412 C 746.942 343.634 747.806 340.14 746.265 336.829 C 743.864 340.025 743.565 342.402 742.462 346.346 C 720.355 342.586 731.412 340.017 728.526 332.274 L 726.557 331.413 C 723.593 333.781 724.959 336.463 721.49 341.011 C 714.347 342.766 712.456 340.536 709.642 334.057 C 708.54 334.827 708.058 337.705 707.544 339.397 C 704.848 340.968 701.726 340.585 699.218 338.893 C 698.767 333.515 698.377 328.133 698.051 322.746 C 694.475 329.566 693.651 336.268 691.613 339.818 C 688.188 340.237 687.426 340.582 684.247 339.134 C 679.773 334.081 678.913 318.3 677.577 310.427 C 686.129 299.046 680.538 294.034 685.998 283.507 L 687.608 283.481 C 692.291 287.816 696.265 298.507 699.94 301.729 C 704.105 305.381 721.991 306.047 727.911 307.39 C 734.556 308.898 740.441 310.5 746.989 312.476 C 760.678 316.613 773.99 321.904 786.783 328.293 C 805.082 337.43 820.318 348.094 837.439 358.935 C 841.497 361.505 845.502 362.557 848.532 358.483 C 850.003 349.768 845.322 335.314 841.678 327.362 C 852.319 322.587 859.173 319.909 867.877 312.231 C 857.848 314.777 849.8 317.759 840.341 321.81 C 836.235 309.72 831.89 298.633 827.205 286.758 C 834.434 284.128 840.44 282.731 845.875 277.396 L 845.584 276.373 C 840.877 276.732 831.602 280.451 825.868 281.964 C 824.447 278.496 823.132 274.043 821.95 270.414 C 838.254 263.462 843.172 261.487 855.573 248.809 z"/>
<path transform="translate(0,0)" fill="rgb(82,22,16)" d="M 895.565 351.318 L 895.719 351.355 L 896.051 352.127 C 891.836 354.723 886.03 356.417 881.251 358.079 L 880.4 357.42 L 880.715 356.133 C 885.031 353.646 890.637 352.586 895.565 351.318 z"/>
<path transform="translate(0,0)" fill="rgb(82,22,16)" d="M 865.657 330.034 L 866.471 331.322 C 863.863 334.055 859.495 335.366 855.878 336.837 L 855.16 335.628 C 857.58 333.057 862.262 331.492 865.657 330.034 z"/>
<path transform="translate(0,0)" fill="rgb(146,75,67)" d="M 1188.44 965.684 C 1212.69 971.469 1208.88 1054.03 1207.15 1073.3 C 1205.92 1087.04 1206.57 1109.35 1210.19 1122.39 C 1218.94 1153.9 1221.49 1178.74 1213.13 1210.8 C 1207 1241.3 1193 1281.21 1174.98 1307.11 C 1136.68 1362.15 1118.53 1383.47 1119.04 1452.75 L 1118.55 1453.5 C 1114.65 1449.3 1110.77 1430.08 1109.35 1424.42 C 1093 1359.45 1126.1 1319.64 1159.01 1268.72 C 1175.59 1240.73 1187.99 1210.14 1193.38 1178.02 C 1198.99 1149.17 1189.22 1122.34 1185.96 1094.43 C 1183.94 1077.24 1185.98 1056.46 1184.72 1038.65 C 1183.36 1019.44 1178.84 1000.49 1177.67 981.736 L 1177.58 980.222 C 1181.74 972.889 1182.86 971.553 1188.44 965.684 z"/>
<path transform="translate(0,0)" fill="rgb(146,75,67)" d="M 782.765 1017.84 C 799.199 1086.91 752.759 1108.73 732.835 1162.11 C 717.498 1097.22 737.342 1062.14 782.765 1017.84 z"/>
<path transform="translate(0,0)" fill="rgb(146,75,67)" d="M 790.471 1071.6 L 791.525 1072.61 C 796.203 1086.18 788.223 1131.52 783.703 1145.37 C 777.699 1163.76 771.835 1176.26 767.305 1196.38 L 766.336 1196.62 L 763.848 1192.76 C 756.823 1172.77 752.662 1153.5 758.115 1132.46 C 761.52 1119.33 770.187 1109.74 777.209 1098.45 C 782.627 1089.74 786.486 1081.02 790.471 1071.6 z"/>
<path transform="translate(0,0)" fill="rgb(146,75,67)" d="M 657.365 1177.55 C 661.34 1180.52 661.823 1191.71 662.547 1196.98 C 667.134 1230.37 677.913 1263.78 693.125 1294.03 C 698.427 1304.36 703.986 1314.57 709.796 1324.63 C 714.2 1332.17 732.193 1359.19 733.328 1365.57 C 728.356 1361.54 721.984 1354.35 717.944 1349.34 C 676.856 1298.37 651.338 1243.63 657.365 1177.55 z"/>
<path transform="translate(0,0)" fill="rgb(146,75,67)" d="M 1086.18 1625.69 C 1089.25 1629.66 1089.48 1644.39 1090.24 1650.08 C 1097.13 1702.31 1107.5 1723.92 1146.64 1755.79 L 1145.72 1757.04 C 1107.49 1750.17 1085.62 1706.78 1083.38 1671.53 C 1082.54 1658.24 1081.67 1638.28 1086.18 1625.69 z"/>
<path transform="translate(0,0)" fill="rgb(146,75,67)" d="M 1241.99 934.846 C 1250.71 938.558 1253.4 959.016 1263.94 968.281 C 1275.16 978.146 1293.88 967.807 1296.64 977.199 C 1295.67 981.922 1294.51 982.997 1291.7 987.113 C 1261.91 1010.34 1231.63 966.659 1241.99 934.846 z"/>
<path transform="translate(0,0)" fill="rgb(146,75,67)" d="M 910.636 1563.61 C 921.283 1566.13 1031.77 1666.84 1042.23 1680.45 C 1041.22 1680.66 1039.65 1680.73 1038.56 1680.81 C 1022.04 1673.2 918.63 1579.26 910.636 1563.61 z"/>
<path transform="translate(0,0)" fill="rgb(146,75,67)" d="M 915.959 829.784 C 930.434 826.833 941.937 823.301 956.08 819.357 C 923.612 846.76 914.543 849.615 869.656 849.134 L 864.911 840.565 C 872.595 839.487 895.803 836.969 901.106 832.612 C 899.772 831.049 900.112 831.924 899.944 830.046 C 904.788 829.595 905.658 830.318 907.204 825.752 C 909.415 825.393 910.6 825.359 912.849 825.276 C 913.903 827.081 914.444 828.453 915.959 829.784 z"/>
<path transform="translate(0,0)" fill="rgb(126,57,51)" d="M 907.204 825.752 C 909.415 825.393 910.6 825.359 912.849 825.276 C 913.903 827.081 914.444 828.453 915.959 829.784 C 910.43 831.938 906.962 831.986 901.106 832.612 C 899.772 831.049 900.112 831.924 899.944 830.046 C 904.788 829.595 905.658 830.318 907.204 825.752 z"/>
<path transform="translate(0,0)" fill="rgb(146,75,67)" d="M 794.712 1321.55 C 800.802 1324.29 816.034 1349.31 821.864 1356.35 C 837.283 1374.95 853.07 1392.38 869.465 1409.91 C 876.257 1417.17 900.473 1439.09 903.832 1445.05 C 875.773 1435.37 804.999 1350.61 794.712 1321.55 z"/>
<path transform="translate(0,0)" fill="rgb(146,75,67)" d="M 913.473 1524.85 C 913.727 1524.91 913.985 1524.95 914.234 1525.02 C 921.828 1527.36 1017.47 1611.61 1027.62 1621.29 C 1030.92 1624.44 1033.79 1627.33 1036.15 1631.27 C 1015.7 1624.31 928.98 1543.56 913.473 1524.85 z"/>
<path transform="translate(0,0)" fill="rgb(146,75,67)" d="M 563.19 983.588 C 566.687 986.32 568.738 1012.44 571.271 1019.89 C 578.635 1042.5 589.465 1063.26 604.301 1081.88 C 608.981 1087.75 617.494 1094.12 621.118 1100.27 C 612.645 1102.34 602.82 1091.79 597.419 1086.01 C 571.857 1058.64 561.933 1020.34 563.19 983.588 z"/>
<path transform="translate(0,0)" fill="rgb(146,75,67)" d="M 715.518 1093.92 L 716.206 1094.46 C 715.981 1100.82 711.816 1113.88 710.192 1120.77 C 702.699 1152.55 705.214 1186.52 712.684 1218.06 C 713.864 1223.04 720.011 1239.26 719.621 1242.7 L 718.066 1241.74 C 708.2 1226.34 703.008 1202.1 700.143 1184.42 C 696.413 1161.41 701.188 1112.56 715.518 1093.92 z"/>
<path transform="translate(0,0)" fill="rgb(146,75,67)" d="M 830.236 242.341 C 835.079 241.983 842.828 240.344 846.185 244.046 L 845.692 246.424 C 837.516 256.497 822.751 261.575 810.493 264.276 C 805.012 264.836 793.983 267.484 792.38 260.929 C 797.445 249.925 818.977 243.889 830.236 242.341 z"/>
<path transform="translate(0,0)" fill="rgb(146,75,67)" d="M 664.689 312.32 C 679.655 313.92 671.236 343.168 666.083 351.371 C 652.008 348.358 658.676 321.089 664.689 312.32 z"/>
<path transform="translate(0,0)" fill="rgb(146,75,67)" d="M 646.959 1277.59 C 649.918 1279.74 651.718 1285.84 652.894 1289.47 C 660.192 1311.99 669.599 1329.11 681.421 1349.36 C 680.122 1348.95 679.264 1348.6 678.232 1347.64 C 660.074 1330.65 648.854 1301.65 646.959 1277.59 z"/>
<path transform="translate(0,0)" fill="rgb(146,75,67)" d="M 906.596 854.479 L 907.837 854.203 L 908.885 854.946 C 904.513 861.879 886.545 869.726 878.329 871.252 C 875.763 866.897 873.951 862.911 871.801 858.362 C 883.409 857.154 895.008 855.859 906.596 854.479 z"/>
<path transform="translate(0,0)" fill="rgb(146,75,67)" d="M 1425.83 762.253 C 1434.31 761.496 1457.73 763.507 1460.14 772.976 C 1457.35 774.54 1457.85 773.93 1453.82 773.308 L 1452.18 772.687 C 1436.04 766.388 1436.43 770.44 1420.04 769.325 L 1419.32 768.127 C 1420.88 765.048 1422.91 764.164 1425.83 762.253 z"/>
<path transform="translate(0,0)" fill="rgb(146,75,67)" d="M 1026.58 260.506 C 1036.67 259.244 1057.02 259.158 1065.22 265.692 C 1058.19 266.57 1029.14 267.316 1026.58 260.506 z"/>
</svg>