<svg version="1.1" xmlns="http://www.w3.org/2000/svg" style="display: block;" viewBox="0 0 2048 2048" width="1024" height="1024" preserveAspectRatio="none">
<defs>
	<linearGradient id="Gradient1" gradientUnits="userSpaceOnUse" x1="573.298" y1="1102.91" x2="661.724" y2="1104.06">
		<stop class="stop0" offset="0" stop-opacity="1" stop-color="rgb(200,200,199)"/>
		<stop class="stop1" offset="1" stop-opacity="1" stop-color="rgb(239,239,239)"/>
	</linearGradient>
	<linearGradient id="Gradient2" gradientUnits="userSpaceOnUse" x1="1308.61" y1="1132.42" x2="1360.84" y2="1131.65">
		<stop class="stop0" offset="0" stop-opacity="1" stop-color="rgb(152,152,152)"/>
		<stop class="stop1" offset="1" stop-opacity="1" stop-color="rgb(185,186,185)"/>
	</linearGradient>
	<linearGradient id="Gradient3" gradientUnits="userSpaceOnUse" x1="1316.96" y1="1150.53" x2="1153.96" y2="1150.47">
		<stop class="stop0" offset="0" stop-opacity="1" stop-color="rgb(162,162,162)"/>
		<stop class="stop1" offset="1" stop-opacity="1" stop-color="rgb(219,218,218)"/>
	</linearGradient>
	<linearGradient id="Gradient4" gradientUnits="userSpaceOnUse" x1="656.553" y1="871.859" x2="896.724" y2="1075.93">
		<stop class="stop0" offset="0" stop-opacity="1" stop-color="rgb(163,164,164)"/>
		<stop class="stop1" offset="1" stop-opacity="1" stop-color="rgb(203,202,203)"/>
	</linearGradient>
	<linearGradient id="Gradient5" gradientUnits="userSpaceOnUse" x1="1371.12" y1="839.348" x2="1208.24" y2="1097.66">
		<stop class="stop0" offset="0" stop-opacity="1" stop-color="rgb(159,161,162)"/>
		<stop class="stop1" offset="1" stop-opacity="1" stop-color="rgb(209,207,207)"/>
	</linearGradient>
	<linearGradient id="Gradient6" gradientUnits="userSpaceOnUse" x1="754.41" y1="1403.5" x2="682.231" y2="1402.53">
		<stop class="stop0" offset="0" stop-opacity="1" stop-color="rgb(168,168,169)"/>
		<stop class="stop1" offset="1" stop-opacity="1" stop-color="rgb(221,221,221)"/>
	</linearGradient>
	<linearGradient id="Gradient7" gradientUnits="userSpaceOnUse" x1="1575.38" y1="1267.39" x2="1648.62" y2="1264.57">
		<stop class="stop0" offset="0" stop-opacity="1" stop-color="rgb(136,139,141)"/>
		<stop class="stop1" offset="1" stop-opacity="1" stop-color="rgb(181,180,180)"/>
	</linearGradient>
	<linearGradient id="Gradient8" gradientUnits="userSpaceOnUse" x1="568.772" y1="1371.92" x2="660.25" y2="1372.08">
		<stop class="stop0" offset="0" stop-opacity="1" stop-color="rgb(196,195,195)"/>
		<stop class="stop1" offset="1" stop-opacity="1" stop-color="rgb(239,239,238)"/>
	</linearGradient>
	<linearGradient id="Gradient9" gradientUnits="userSpaceOnUse" x1="1575.66" y1="1000.54" x2="1646.34" y2="998.489">
		<stop class="stop0" offset="0" stop-opacity="1" stop-color="rgb(142,145,146)"/>
		<stop class="stop1" offset="1" stop-opacity="1" stop-color="rgb(176,176,177)"/>
	</linearGradient>
	<linearGradient id="Gradient10" gradientUnits="userSpaceOnUse" x1="747.607" y1="1422.74" x2="891.68" y2="1419.3">
		<stop class="stop0" offset="0" stop-opacity="1" stop-color="rgb(152,151,151)"/>
		<stop class="stop1" offset="1" stop-opacity="1" stop-color="rgb(200,200,200)"/>
	</linearGradient>
	<linearGradient id="Gradient11" gradientUnits="userSpaceOnUse" x1="1365.95" y1="1421.05" x2="1147.99" y2="1407.94">
		<stop class="stop0" offset="0" stop-opacity="1" stop-color="rgb(157,158,159)"/>
		<stop class="stop1" offset="1" stop-opacity="1" stop-color="rgb(214,214,214)"/>
	</linearGradient>
	<linearGradient id="Gradient12" gradientUnits="userSpaceOnUse" x1="1352.18" y1="717.549" x2="1033.18" y2="406.886">
		<stop class="stop0" offset="0" stop-opacity="1" stop-color="rgb(162,166,164)"/>
		<stop class="stop1" offset="1" stop-opacity="1" stop-color="rgb(232,229,231)"/>
	</linearGradient>
	<linearGradient id="Gradient13" gradientUnits="userSpaceOnUse" x1="1516.12" y1="784.608" x2="1370.86" y2="784.428">
		<stop class="stop0" offset="0" stop-opacity="1" stop-color="rgb(101,105,106)"/>
		<stop class="stop1" offset="1" stop-opacity="1" stop-color="rgb(159,161,161)"/>
	</linearGradient>
	<linearGradient id="Gradient14" gradientUnits="userSpaceOnUse" x1="560.995" y1="869.115" x2="713.791" y2="855.154">
		<stop class="stop0" offset="0" stop-opacity="1" stop-color="rgb(120,123,124)"/>
		<stop class="stop1" offset="1" stop-opacity="1" stop-color="rgb(196,195,194)"/>
	</linearGradient>
	<linearGradient id="Gradient15" gradientUnits="userSpaceOnUse" x1="1556.76" y1="662.377" x2="1330.63" y2="738.963">
		<stop class="stop0" offset="0" stop-opacity="1" stop-color="rgb(98,104,106)"/>
		<stop class="stop1" offset="1" stop-opacity="1" stop-color="rgb(174,174,174)"/>
	</linearGradient>
	<linearGradient id="Gradient16" gradientUnits="userSpaceOnUse" x1="636.139" y1="496.059" x2="843.852" y2="645.886">
		<stop class="stop0" offset="0" stop-opacity="1" stop-color="rgb(166,160,163)"/>
		<stop class="stop1" offset="1" stop-opacity="1" stop-color="rgb(197,203,201)"/>
	</linearGradient>
	<linearGradient id="Gradient17" gradientUnits="userSpaceOnUse" x1="512.172" y1="843.486" x2="660.272" y2="775.566">
		<stop class="stop0" offset="0" stop-opacity="1" stop-color="rgb(88,93,95)"/>
		<stop class="stop1" offset="1" stop-opacity="1" stop-color="rgb(148,149,149)"/>
	</linearGradient>
	<linearGradient id="Gradient18" gradientUnits="userSpaceOnUse" x1="474.033" y1="679.459" x2="763.145" y2="733.643">
		<stop class="stop0" offset="0" stop-opacity="1" stop-color="rgb(92,98,100)"/>
		<stop class="stop1" offset="1" stop-opacity="1" stop-color="rgb(178,176,175)"/>
	</linearGradient>
	<linearGradient id="Gradient19" gradientUnits="userSpaceOnUse" x1="945.306" y1="1562.46" x2="1073.45" y2="544.699">
		<stop class="stop0" offset="0" stop-opacity="1" stop-color="rgb(118,120,120)"/>
		<stop class="stop1" offset="1" stop-opacity="1" stop-color="rgb(145,147,148)"/>
	</linearGradient>
</defs>
<path transform="translate(0,0)" fill="url(#Gradient19)" d="M 953.376 516.177 C 1113.29 509.454 1295.63 525.687 1446.28 584.441 C 1462.35 590.711 1489.12 602.009 1503.9 610.427 C 1551.87 631.808 1618.49 682.7 1636.33 732.475 C 1647.8 764.475 1644.87 812.133 1644.9 846.765 L 1644.97 873.377 L 1645.08 1004.52 C 1645.1 1024.27 1646.01 1052.4 1645.07 1071.65 L 1645.17 1072.72 C 1646.41 1083.71 1645.41 1104.35 1645.68 1116.45 C 1645.81 1121.35 1646 1125.3 1645.6 1130.22 L 1645.91 1252.6 C 1645.94 1270.15 1646.91 1304.84 1644.21 1320.39 C 1641.43 1335.52 1635.84 1350 1627.72 1363.07 C 1616.47 1384.39 1601.7 1398.24 1584.17 1414.01 C 1571.31 1424.57 1550.92 1440.83 1536.19 1448.63 C 1526.56 1455.3 1500.86 1470.16 1490 1474.21 C 1458.41 1492.4 1417.22 1504.61 1382.96 1516.36 L 1362.49 1522.27 C 1311.39 1536.92 1254.02 1546.92 1201.48 1553.68 C 1187.83 1555.44 1166.12 1558.49 1153.02 1559.07 C 1145.66 1559.48 1138.54 1560.17 1131.2 1560.87 C 1089.75 1561.77 1049.61 1563.91 1007.67 1563.52 C 975.875 1563.21 944.977 1560.72 913.844 1560.24 C 907.674 1559.09 898.494 1558.72 891.983 1558.28 C 856.237 1554.31 797.838 1548.16 763.277 1539.53 C 748.457 1538.09 697.045 1525.54 682.826 1520.62 L 662.001 1514.94 C 629.529 1505.7 597.174 1492.03 566.442 1478.2 C 554.559 1472.63 544.378 1467.35 532.814 1461.12 C 516.671 1453.79 480.525 1429.12 467.677 1417 C 451.772 1404.36 429.06 1380.4 420.531 1362.31 C 397.134 1323.36 401.967 1296.16 402.029 1252.6 L 402.091 1137.61 C 401.683 1131.31 402.009 1120.87 401.995 1114.25 L 402.043 1089.62 L 401.994 1069.32 L 402.039 871.242 L 402.147 843.862 C 402.005 814.735 400.588 776.217 406.143 747.972 C 415.491 700.441 459.065 660.949 498.776 635.849 C 618.969 555.686 810.396 520.956 953.376 516.177 z M 955.345 997.049 C 1001.9 998.61 1047.67 1000.49 1094.2 997.285 C 1098.26 997.005 1104.78 996.669 1108.66 997.167 C 1117.08 996.209 1125.59 995.727 1134.04 994.963 C 1198.85 989.099 1265.13 979.599 1328.11 962.8 C 1309.88 955.481 1286.24 949.08 1267.15 944.352 C 1183.92 923.454 1098.34 919.555 1013.03 919.822 C 941.695 920.045 872.952 923.396 803.236 939.988 C 774.717 946.775 746.453 952.612 718.834 963.106 C 730.178 967.256 754.497 971.967 766.874 974.388 C 815.196 983.685 863.991 990.322 913.041 994.267 C 925.682 995.245 942.873 996.916 955.345 997.049 z"/>
<path transform="translate(0,0)" fill="rgb(199,199,199)" d="M 953.376 516.177 C 1113.29 509.454 1295.63 525.687 1446.28 584.441 C 1462.35 590.711 1489.12 602.009 1503.9 610.427 L 1502.65 611.836 C 1496.45 608.76 1470.22 595.082 1464.93 594.404 C 1462.84 595.674 1455.33 610.496 1455.64 613.885 L 1457.36 614.622 C 1463 617.074 1466.19 619.229 1471.39 622.151 C 1488.38 631.697 1505.76 641.044 1520.76 653.828 L 1520.1 654.836 C 1532.49 665.042 1543.27 674.063 1553.99 686.062 C 1599.14 736.625 1600.94 793.156 1558.09 844.843 C 1557.32 845.77 1556.54 846.693 1555.76 847.612 C 1547.14 856.622 1529.61 874.306 1519 880.783 C 1509.05 887.872 1493.23 898.993 1482.51 904.571 C 1473.64 913.063 1380.75 952.69 1372.88 949.847 L 1370.74 950.447 C 1358.37 954.109 1345.15 957.807 1333 961.902 C 1331.63 962.089 1329.24 962.264 1328.11 962.8 C 1309.88 955.481 1286.24 949.08 1267.15 944.352 C 1183.92 923.454 1098.34 919.555 1013.03 919.822 C 941.695 920.045 872.952 923.396 803.236 939.988 C 774.717 946.775 746.453 952.612 718.834 963.106 L 718 962.507 L 715.446 963.767 C 708.671 962.658 695.69 958.406 688.745 956.326 C 648.516 944.277 599.528 925.451 563.609 903.795 C 550.838 896.097 537.378 887.842 525.537 878.818 C 512.96 870.512 497.39 854.975 487.19 843.647 C 470.757 820.763 459.617 801.971 458.163 772.526 C 456.74 743.69 469.393 715.483 487.194 693.369 C 492.763 686.451 502.082 677.444 508.437 670.656 C 510.692 661.787 551.045 637.259 560.035 631.216 C 565.186 627.755 563.285 623.675 561.601 618.418 C 559.305 611.254 560.285 612.319 561.483 605.615 L 559.983 604.666 C 553.008 605.894 551.588 608.637 546.432 610.393 C 530.55 615.803 512.936 630.486 499.41 637.298 L 498.776 635.849 C 618.969 555.686 810.396 520.956 953.376 516.177 z"/>
<path transform="translate(0,0)" fill="url(#Gradient18)" d="M 498.776 635.849 C 618.969 555.686 810.396 520.956 953.376 516.177 C 948.337 519.239 931.512 519.268 924.902 519.639 L 925.513 521.075 L 926.765 524.053 C 928.539 528.22 928.012 529.381 927.135 534.07 C 932.12 536.211 933.661 532.33 942.284 534.843 C 907.799 538.731 871.925 539.366 837.255 545.203 C 826.825 546.959 813.814 548.335 803.676 550.975 C 802.502 552.036 802.204 552.337 800.632 552.762 C 788.314 556.098 785.09 567.139 776.179 574.376 C 757.832 585.449 738.663 595.302 719.639 605.359 C 684.779 623.786 667.235 651.273 648.563 684.396 C 647.998 685.398 647.736 686.472 647.424 687.575 L 648.185 688.877 L 649.476 688.306 C 652.372 687.049 654.042 685.847 657.002 686.446 C 671.635 696.379 661.262 758.471 656.692 773.808 C 656.192 775.485 656.151 776.125 656.199 777.97 C 654.157 780.781 631.023 802.016 627.212 805.04 C 597.9 837.981 583.823 866.262 563.609 903.795 C 550.838 896.097 537.378 887.842 525.537 878.818 C 512.96 870.512 497.39 854.975 487.19 843.647 C 470.757 820.763 459.617 801.971 458.163 772.526 C 456.74 743.69 469.393 715.483 487.194 693.369 C 492.763 686.451 502.082 677.444 508.437 670.656 C 510.692 661.787 551.045 637.259 560.035 631.216 C 565.186 627.755 563.285 623.675 561.601 618.418 C 559.305 611.254 560.285 612.319 561.483 605.615 L 559.983 604.666 C 553.008 605.894 551.588 608.637 546.432 610.393 C 530.55 615.803 512.936 630.486 499.41 637.298 L 498.776 635.849 z"/>
<path transform="translate(0,0)" fill="url(#Gradient17)" d="M 525.537 878.818 C 544.51 827.482 580.568 769.237 614.039 725.502 C 616.666 722.069 626.577 710.391 629.385 708.863 C 631.638 718.527 637.293 721.204 638.901 728.868 C 642.526 746.14 641.049 773.364 639.273 790.704 C 635.123 794.809 630.092 800.053 627.212 805.04 C 597.9 837.981 583.823 866.262 563.609 903.795 C 550.838 896.097 537.378 887.842 525.537 878.818 z"/>
<path transform="translate(0,0)" fill="url(#Gradient16)" d="M 498.776 635.849 C 618.969 555.686 810.396 520.956 953.376 516.177 C 948.337 519.239 931.512 519.268 924.902 519.639 L 925.513 521.075 L 926.765 524.053 C 928.539 528.22 928.012 529.381 927.135 534.07 C 932.12 536.211 933.661 532.33 942.284 534.843 C 907.799 538.731 871.925 539.366 837.255 545.203 C 826.825 546.959 813.814 548.335 803.676 550.975 C 793.302 549.533 719.097 568.277 705.6 572.175 C 646.553 589.227 579.654 615.528 530.287 652.925 C 522.78 658.554 515.491 664.469 508.437 670.656 C 510.692 661.787 551.045 637.259 560.035 631.216 C 565.186 627.755 563.285 623.675 561.601 618.418 C 559.305 611.254 560.285 612.319 561.483 605.615 L 559.983 604.666 C 553.008 605.894 551.588 608.637 546.432 610.393 C 530.55 615.803 512.936 630.486 499.41 637.298 L 498.776 635.849 z"/>
<path transform="translate(0,0)" fill="url(#Gradient15)" d="M 1268.34 557.821 C 1278.8 556.864 1306.76 567.231 1309.87 564.638 C 1367.04 575.996 1435.43 603.204 1486.15 631.782 C 1495.87 637.259 1513.27 651.397 1520.1 654.836 C 1532.49 665.042 1543.27 674.063 1553.99 686.062 C 1599.14 736.625 1600.94 793.156 1558.09 844.843 C 1557.32 845.77 1556.54 846.693 1555.76 847.612 C 1547.14 856.622 1529.61 874.306 1519 880.783 C 1503.27 837.924 1489.62 806.089 1465.17 767.02 C 1461.29 760.833 1438.56 730.945 1438.17 727.837 L 1440.51 729.238 L 1441.59 727.706 C 1440.93 717.805 1442.24 713.34 1437.39 703.635 C 1421.76 672.425 1381.31 631.002 1350.98 615.516 C 1330.65 605.136 1309.16 596.203 1289.57 583.018 C 1279.11 575.977 1280.13 562.444 1268.34 557.821 z"/>
<path transform="translate(0,0)" fill="url(#Gradient14)" d="M 656.199 777.97 C 661.189 771.224 689.092 752.729 698.224 750.642 C 699.44 750.364 702.544 748.893 703.852 748.329 L 704.825 748.934 C 698.867 759.467 678.881 786.289 676.422 798.308 C 668.496 837.051 684.751 885.095 686.402 924.947 C 686.846 935.275 685.722 945.065 687.081 951.643 C 694.199 954.712 714.841 958.475 718 962.507 L 715.446 963.767 C 708.671 962.658 695.69 958.406 688.745 956.326 C 648.516 944.277 599.528 925.451 563.609 903.795 C 583.823 866.262 597.9 837.981 627.212 805.04 C 631.023 802.016 654.157 780.781 656.199 777.97 z"/>
<path transform="translate(0,0)" fill="url(#Gradient13)" d="M 1428.19 814.14 C 1426.34 813.434 1387.37 770.995 1379.82 768.346 C 1378.51 767.885 1366.6 759.34 1366.12 758.679 C 1374.35 757.974 1392.09 777.998 1401.05 783.088 L 1401.4 781.858 C 1397.85 774.734 1396.48 757.534 1393.56 747.018 C 1386.94 723.255 1379.38 694.702 1371.67 671.112 C 1371.62 670.973 1362.48 665.59 1357.87 659.451 C 1365.68 665.179 1377.94 671.982 1385.8 677.441 C 1396.32 684.75 1434.8 718.241 1438.17 727.837 C 1438.56 730.945 1461.29 760.833 1465.17 767.02 C 1489.62 806.089 1503.27 837.924 1519 880.783 C 1509.05 887.872 1493.23 898.993 1482.51 904.571 C 1483.86 902.401 1483.9 903.699 1485.17 900.489 C 1476.8 892.619 1474.63 883.19 1469.41 874.732 C 1461.06 861.194 1440.01 821.864 1428.19 814.14 z"/>
<path transform="translate(0,0)" fill="url(#Gradient12)" d="M 953.376 516.177 C 1113.29 509.454 1295.63 525.687 1446.28 584.441 C 1462.35 590.711 1489.12 602.009 1503.9 610.427 L 1502.65 611.836 C 1496.45 608.76 1470.22 595.082 1464.93 594.404 C 1462.84 595.674 1455.33 610.496 1455.64 613.885 L 1457.36 614.622 C 1463 617.074 1466.19 619.229 1471.39 622.151 C 1488.38 631.697 1505.76 641.044 1520.76 653.828 L 1520.1 654.836 C 1513.27 651.397 1495.87 637.259 1486.15 631.782 C 1435.43 603.204 1367.04 575.996 1309.87 564.638 C 1304.65 562.152 1265.79 554.845 1258.74 553.573 C 1193.01 541.629 1126.45 534.767 1059.67 533.048 C 1036.63 532.645 1012.53 532.873 989.504 533.182 C 973.84 533.393 958.153 534.781 942.284 534.843 C 933.661 532.33 932.12 536.211 927.135 534.07 C 928.012 529.381 928.539 528.22 926.765 524.053 L 925.513 521.075 L 924.902 519.639 C 931.512 519.268 948.337 519.239 953.376 516.177 z"/>
<path transform="translate(0,0)" fill="rgb(164,165,166)" d="M 1428.19 814.14 C 1440.01 821.864 1461.06 861.194 1469.41 874.732 C 1474.63 883.19 1476.8 892.619 1485.17 900.489 C 1483.9 903.699 1483.86 902.401 1482.51 904.571 C 1473.64 913.063 1380.75 952.69 1372.88 949.847 C 1380.6 946.762 1443.75 924.242 1443.95 919.53 C 1445.18 891.11 1438.23 840.641 1428.19 814.14 z"/>
<path transform="translate(0,0)" fill="rgb(164,165,166)" d="M 942.284 534.843 C 958.153 534.781 973.84 533.393 989.504 533.182 C 1012.53 532.873 1036.63 532.645 1059.67 533.048 C 1126.45 534.767 1193.01 541.629 1258.74 553.573 C 1265.79 554.845 1304.65 562.152 1309.87 564.638 C 1306.76 567.231 1278.8 556.864 1268.34 557.821 C 1267.06 557.691 1264.49 557.774 1263.61 557.606 C 1118.81 530.204 976.416 525.416 828.518 548.938 L 828.884 549.068 C 821.493 550.105 810.705 552.216 803.676 550.975 C 813.814 548.335 826.825 546.959 837.255 545.203 C 871.925 539.366 907.799 538.731 942.284 534.843 z"/>
<path transform="translate(0,0)" fill="rgb(199,199,199)" d="M 913.653 1307.43 C 980.313 1312.73 1063.75 1313.68 1131.1 1308.27 C 1131.16 1391.68 1132.37 1477.72 1131.2 1560.87 C 1089.75 1561.77 1049.61 1563.91 1007.67 1563.52 C 975.875 1563.21 944.977 1560.72 913.844 1560.24 L 913.653 1307.43 z"/>
<path transform="translate(0,0)" fill="rgb(120,122,122)" d="M 1009.99 1332.32 C 1038.79 1329.62 1068.31 1337.68 1082.97 1364.81 C 1089.47 1376.67 1090.69 1390.71 1086.31 1403.51 C 1080.12 1422.09 1066.38 1431.65 1049.95 1440.1 L 1065.49 1542.57 C 1056.17 1542.84 1046.59 1542.83 1037.25 1542.95 L 979.017 1542.86 L 995.341 1439.69 C 991.464 1437.89 987.683 1435.89 984.012 1433.7 C 970.705 1425.7 960.382 1412.49 956.938 1397.24 C 953.89 1384.14 956.428 1370.36 963.944 1359.2 C 974.944 1342.91 991.412 1335.86 1009.99 1332.32 z"/>
<path transform="translate(0,0)" fill="url(#Gradient11)" d="M 1152.99 1306.19 C 1202.86 1302.03 1252.46 1295.08 1301.55 1285.36 C 1321.8 1281.22 1341.81 1275.71 1361.99 1271.16 L 1362.49 1522.27 C 1311.39 1536.92 1254.02 1546.92 1201.48 1553.68 C 1187.83 1555.44 1166.12 1558.49 1153.02 1559.07 C 1152.17 1475.36 1152.94 1389.98 1152.99 1306.19 z"/>
<path transform="translate(0,0)" fill="rgb(120,122,122)" d="M 1265.65 1312.39 C 1332.91 1307.92 1341.03 1381.44 1285.72 1416.43 C 1290.5 1449.53 1295.81 1482.55 1301.64 1515.48 C 1284.93 1518.05 1265.87 1522.14 1249.07 1525.33 C 1242.57 1525.81 1225.63 1528.87 1218.51 1529.95 C 1223.66 1495.32 1228.38 1460.63 1232.69 1425.89 C 1190.2 1411.9 1184.02 1371.63 1211.22 1340.01 C 1224.99 1323.95 1244.56 1314.02 1265.65 1312.39 z"/>
<path transform="translate(0,0)" fill="url(#Gradient10)" d="M 752.913 1286.05 C 798.782 1294.97 845.082 1301.5 891.626 1305.62 L 891.983 1558.28 C 856.237 1554.31 797.838 1548.16 763.277 1539.53 L 764.33 1538.91 C 763.339 1535.55 747.24 1541.5 750.937 1517.19 L 753.068 1517.7 L 753.635 1516.4 C 749.577 1515.84 748.768 1515.66 744.908 1514.33 C 742.826 1509.95 754.914 1443.76 756.056 1433.22 C 751.041 1422.67 753.831 1418.34 746.003 1406.29 C 737.428 1398.7 730.707 1389.25 726.354 1378.65 C 715.143 1350.72 724.846 1324.44 753.868 1313.99 L 751.309 1313.61 C 749.893 1310.6 751.712 1290.44 752.913 1286.05 z"/>
<path transform="translate(0,0)" fill="rgb(120,122,122)" d="M 753.868 1313.99 C 829.18 1294.64 894.031 1396.57 811.64 1424.82 C 815.377 1457.38 820.912 1496.65 826.305 1529.03 C 801.984 1525.4 777.754 1521.19 753.635 1516.4 C 749.577 1515.84 748.768 1515.66 744.908 1514.33 C 742.826 1509.95 754.914 1443.76 756.056 1433.22 C 751.041 1422.67 753.831 1418.34 746.003 1406.29 C 737.428 1398.7 730.707 1389.25 726.354 1378.65 C 715.143 1350.72 724.846 1324.44 753.868 1313.99 z"/>
<path transform="translate(0,0)" fill="rgb(164,165,166)" d="M 746.003 1406.29 L 758.917 1415.76 C 758.161 1420.64 757.139 1428.67 756.056 1433.22 C 751.041 1422.67 753.831 1418.34 746.003 1406.29 z"/>
<path transform="translate(0,0)" fill="rgb(120,122,122)" d="M 1492.82 1247.35 C 1505.52 1249.9 1514.11 1249.95 1523.54 1262.7 C 1528.83 1269.85 1529.71 1282.38 1528.79 1291.2 C 1527.57 1295.05 1525.69 1303.65 1525.26 1307.66 C 1524.83 1310.07 1520.83 1322.14 1520.81 1322.04 C 1528.18 1359.59 1521.37 1396.22 1524.41 1433.73 C 1524.9 1439.66 1524.61 1444.96 1526.37 1450.68 L 1527.72 1451.93 C 1530 1450.54 1531.84 1449.31 1534.03 1447.81 C 1536 1448.34 1535.4 1447.86 1536.19 1448.63 C 1526.56 1455.3 1500.86 1470.16 1490 1474.21 C 1492.13 1467.38 1494.65 1472.07 1497.9 1468.58 C 1498.12 1463.04 1496.29 1457.98 1494.99 1452.38 C 1489.77 1455.02 1487.55 1456.11 1481.76 1456.52 L 1440.64 1473.25 C 1445.06 1438.25 1449.24 1403.21 1453.19 1368.15 C 1409.59 1359.6 1415.28 1315.98 1434.61 1287.19 C 1449.07 1265.65 1467.15 1252.33 1492.82 1247.35 z"/>
<path transform="translate(0,0)" fill="rgb(164,165,166)" d="M 1498.11 1348.35 C 1512.8 1333.87 1517.06 1326.38 1525.26 1307.66 C 1524.83 1310.07 1520.83 1322.14 1520.81 1322.04 C 1528.18 1359.59 1521.37 1396.22 1524.41 1433.73 C 1524.9 1439.66 1524.61 1444.96 1526.37 1450.68 L 1527.72 1451.93 C 1530 1450.54 1531.84 1449.31 1534.03 1447.81 C 1536 1448.34 1535.4 1447.86 1536.19 1448.63 C 1526.56 1455.3 1500.86 1470.16 1490 1474.21 C 1492.13 1467.38 1494.65 1472.07 1497.9 1468.58 C 1498.12 1463.04 1496.29 1457.98 1494.99 1452.38 C 1489.77 1455.02 1487.55 1456.11 1481.76 1456.52 C 1490.2 1451.94 1502.24 1446.68 1511.15 1442.49 C 1505.8 1413.74 1502.35 1377.92 1498.11 1348.35 z"/>
<path transform="translate(0,0)" fill="rgb(199,199,199)" d="M 1484.72 1229.53 C 1489.91 1229.27 1491.5 1228.14 1496.22 1225.92 C 1498.16 1230.08 1503.09 1239.96 1502.34 1244.13 C 1499.16 1248.21 1496.53 1245.5 1492.82 1247.35 C 1467.15 1252.33 1449.07 1265.65 1434.61 1287.19 C 1415.28 1315.98 1409.59 1359.6 1453.19 1368.15 C 1449.24 1403.21 1445.06 1438.25 1440.64 1473.25 L 1481.76 1456.52 C 1487.55 1456.11 1489.77 1455.02 1494.99 1452.38 C 1496.29 1457.98 1498.12 1463.04 1497.9 1468.58 C 1494.65 1472.07 1492.13 1467.38 1490 1474.21 C 1458.41 1492.4 1417.22 1504.61 1382.96 1516.36 L 1382.67 1355.79 C 1382.68 1326.76 1383.34 1294.86 1382.38 1266.02 C 1402.16 1260.23 1421.73 1253.74 1441.04 1246.55 C 1455.22 1241.14 1470.58 1234.4 1484.72 1229.53 z"/>
<path transform="translate(0,0)" fill="rgb(164,165,166)" d="M 402.147 843.862 C 405.948 847.348 411.145 853.949 414.257 858.193 C 429.075 878.399 449.214 891.773 467.763 907.859 C 467.697 988.369 468.572 1070.78 467.667 1151.12 C 451.746 1140 436.643 1126.7 422.734 1113.11 C 417.429 1107.92 406.525 1093.1 402.043 1089.62 L 401.994 1069.32 L 402.039 871.242 L 402.147 843.862 z"/>
<path transform="translate(0,0)" fill="rgb(120,122,122)" d="M 402.039 871.242 C 429.001 890.662 464.514 995.087 414.411 984.257 C 418.736 1019.25 418.017 1057.2 422.24 1092.62 C 416.197 1085.62 408.2 1075.84 401.994 1069.32 L 402.039 871.242 z"/>
<path transform="translate(0,0)" fill="url(#Gradient9)" d="M 1579.29 911.624 C 1594.44 899.633 1606.92 889.956 1620.3 875.755 C 1629.32 866.184 1636.38 856.326 1644.9 846.765 L 1644.97 873.377 L 1645.08 1004.52 C 1645.1 1024.27 1646.01 1052.4 1645.07 1071.65 L 1645.17 1072.72 C 1644.57 1076.47 1644.68 1086.49 1644.65 1090.68 C 1637.27 1097.75 1628.64 1109.68 1621.19 1117.63 C 1607.55 1132.18 1595.08 1142.59 1579.28 1154.18 L 1579.31 983.858 C 1579.35 960.317 1578.41 934.879 1579.29 911.624 z"/>
<path transform="translate(0,0)" fill="rgb(120,122,122)" d="M 1644.97 873.377 L 1645.08 1004.52 C 1645.1 1024.27 1646.01 1052.4 1645.07 1071.65 C 1640.77 1074.6 1628.55 1089.98 1624.55 1094.8 C 1626.12 1059.62 1629.35 1023.91 1631.32 988.616 L 1621.14 990.166 C 1600.92 974.965 1608.19 948.097 1613.73 927.032 C 1617.22 913.769 1632.5 879.963 1644.97 873.377 z"/>
<path transform="translate(0,0)" fill="rgb(120,122,122)" d="M 541.425 1245.75 C 551.824 1244.93 558.156 1245.23 568.119 1249.07 C 592.245 1260.23 611.104 1280.3 620.73 1305.08 C 631.346 1332.96 625.296 1361.21 591.667 1366.02 C 595.368 1397.84 602.171 1441.48 604.348 1472.39 C 594.873 1468.75 585.91 1465.39 576.693 1461.08 C 566.393 1461.95 574.022 1472.24 566.442 1478.2 C 554.559 1472.63 544.378 1467.35 532.814 1461.12 L 532.929 1460.12 C 536.583 1459.18 540.054 1464.91 545.323 1464.61 C 547.838 1461.78 549.609 1456.56 549.448 1452.62 C 545.719 1446.73 539.551 1447.29 534.33 1442.42 C 532.936 1441.48 532.674 1439.69 533.046 1438.04 C 539.74 1408.4 543.472 1377.46 546.836 1347.29 C 546.079 1345.3 543.026 1341.66 541.694 1340.48 C 522.847 1323.73 511.389 1288.01 520.592 1263.8 C 524.468 1253.6 532.186 1249.69 541.425 1245.75 z"/>
<path transform="translate(0,0)" fill="rgb(164,165,166)" d="M 534.33 1442.42 C 548.386 1448.31 562.728 1454.88 576.693 1461.08 C 566.393 1461.95 574.022 1472.24 566.442 1478.2 C 554.559 1472.63 544.378 1467.35 532.814 1461.12 L 532.929 1460.12 C 536.583 1459.18 540.054 1464.91 545.323 1464.61 C 547.838 1461.78 549.609 1456.56 549.448 1452.62 C 545.719 1446.73 539.551 1447.29 534.33 1442.42 z"/>
<path transform="translate(0,0)" fill="url(#Gradient8)" d="M 572.783 1231.24 C 604.092 1244.58 629.913 1253.19 662.296 1263.71 L 662.001 1514.94 C 629.529 1505.7 597.174 1492.03 566.442 1478.2 C 574.022 1472.24 566.393 1461.95 576.693 1461.08 C 585.91 1465.39 594.873 1468.75 604.348 1472.39 C 602.171 1441.48 595.368 1397.84 591.667 1366.02 C 625.296 1361.21 631.346 1332.96 620.73 1305.08 C 611.104 1280.3 592.245 1260.23 568.119 1249.07 C 569.688 1243.09 569.47 1235.11 572.783 1231.24 z"/>
<path transform="translate(0,0)" fill="url(#Gradient7)" d="M 1579.38 1179.07 C 1596.79 1165.98 1614.69 1149.96 1629.38 1133.93 C 1633.17 1129.8 1641.22 1118.04 1645.68 1116.45 C 1645.81 1121.35 1646 1125.3 1645.6 1130.22 L 1645.91 1252.6 C 1645.94 1270.15 1646.91 1304.84 1644.21 1320.39 C 1641.43 1335.52 1635.84 1350 1627.72 1363.07 C 1616.47 1384.39 1601.7 1398.24 1584.17 1414.01 L 1581.78 1413.43 C 1578.31 1404.82 1579.11 1205.76 1579.38 1179.07 z"/>
<path transform="translate(0,0)" fill="rgb(120,122,122)" d="M 1627.72 1363.07 C 1627.57 1362.82 1627.42 1362.58 1627.28 1362.33 C 1627.08 1361.98 1626.89 1361.61 1626.69 1361.25 C 1622.49 1353.61 1630.86 1272.95 1631.45 1258.05 C 1624.47 1257.47 1616.06 1258.33 1612.72 1250.72 C 1599.49 1220.62 1616.59 1182.56 1630.14 1155.28 C 1633.45 1148.62 1642.48 1141.85 1644.8 1134.52 C 1644.56 1135.38 1645.35 1131.06 1645.6 1130.22 L 1645.91 1252.6 C 1645.94 1270.15 1646.91 1304.84 1644.21 1320.39 C 1641.43 1335.52 1635.84 1350 1627.72 1363.07 z"/>
<path transform="translate(0,0)" fill="url(#Gradient6)" d="M 683.073 1268.51 C 702.65 1275.46 732.476 1281.8 752.913 1286.05 C 751.712 1290.44 749.893 1310.6 751.309 1313.61 L 753.868 1313.99 C 724.846 1324.44 715.143 1350.72 726.354 1378.65 C 730.707 1389.25 737.428 1398.7 746.003 1406.29 C 753.831 1418.34 751.041 1422.67 756.056 1433.22 C 754.914 1443.76 742.826 1509.95 744.908 1514.33 C 748.768 1515.66 749.577 1515.84 753.635 1516.4 L 753.068 1517.7 L 750.937 1517.19 C 747.24 1541.5 763.339 1535.55 764.33 1538.91 L 763.277 1539.53 C 748.457 1538.09 697.045 1525.54 682.826 1520.62 L 683.073 1268.51 z"/>
<path transform="translate(0,0)" fill="rgb(164,165,166)" d="M 401.995 1114.25 C 414.151 1128.26 424.148 1139.31 438.174 1151.79 C 447.541 1160.13 457.942 1167.42 467.07 1175.32 L 467.677 1417 C 451.772 1404.36 429.06 1380.4 420.531 1362.31 C 397.134 1323.36 401.967 1296.16 402.029 1252.6 L 402.091 1137.61 C 401.683 1131.31 402.009 1120.87 401.995 1114.25 z"/>
<path transform="translate(0,0)" fill="rgb(120,122,122)" d="M 402.091 1137.61 C 429.046 1158.91 463.809 1267.73 414.482 1253.52 C 416.434 1267.31 422.144 1352.47 420.531 1362.31 C 397.134 1323.36 401.967 1296.16 402.029 1252.6 L 402.091 1137.61 z"/>
<path transform="translate(0,0)" fill="url(#Gradient5)" d="M 1555.76 847.612 L 1557.15 848.384 C 1552.86 852.567 1548.5 856.904 1544.36 861.171 C 1525.21 880.893 1501.05 893.413 1479.81 910.258 C 1478.51 911.285 1480.99 924.449 1481.97 926.548 C 1484.15 928.23 1492.63 935.404 1494.2 934.959 C 1500.09 933.296 1507.04 927.621 1513.27 926.651 C 1507.79 930.513 1501.21 933.38 1495.21 936.324 C 1460.25 953.482 1423.85 966.677 1386.69 978.15 C 1382.5 979.441 1376.12 980.651 1373.83 984.491 C 1366.64 987.862 1340.02 994.062 1331.57 996.119 C 1252.54 1015.36 1176.71 1022.65 1096.12 1027.76 L 1097.54 1026.3 L 1093.8 1025.76 C 1091.98 1021.96 1092.63 1018.65 1091.92 1014.64 C 1091.09 1009.88 1087.46 1005.75 1089.41 1000.91 L 1092.56 1000.67 C 1090.17 1000.11 1088.96 999.963 1086.53 999.609 C 1092.41 998.485 1104.68 1000.12 1108.66 997.167 C 1117.08 996.209 1125.59 995.727 1134.04 994.963 C 1198.85 989.099 1265.13 979.599 1328.11 962.8 C 1329.24 962.264 1331.63 962.089 1333 961.902 C 1345.15 957.807 1358.37 954.109 1370.74 950.447 L 1372.88 949.847 C 1380.75 952.69 1473.64 913.063 1482.51 904.571 C 1493.23 898.993 1509.05 887.872 1519 880.783 C 1529.61 874.306 1547.14 856.622 1555.76 847.612 z"/>
<path transform="translate(0,0)" fill="rgb(164,165,166)" d="M 1370.74 950.447 C 1367.34 954.971 1342.38 960.948 1335.53 962.591 L 1333 961.902 C 1345.15 957.807 1358.37 954.109 1370.74 950.447 z"/>
<path transform="translate(0,0)" fill="url(#Gradient4)" d="M 579.707 947.542 C 591.187 950.44 609.43 960.323 618.118 961.181 C 628.182 949.29 617.326 947.816 618.848 938.482 L 621.772 937.412 C 615.748 935.942 610.748 928.959 606.31 927.071 C 571.17 912.115 535.508 890.538 506.612 865.549 C 502.407 861.914 494.473 855.562 491.544 851.015 C 489.06 847.158 490.89 848.974 486.79 845.165 L 485.951 844.398 L 487.19 843.647 C 497.39 854.975 512.96 870.512 525.537 878.818 C 537.378 887.842 550.838 896.097 563.609 903.795 C 599.528 925.451 648.516 944.277 688.745 956.326 C 695.69 958.406 708.671 962.658 715.446 963.767 L 718 962.507 L 718.834 963.106 C 730.178 967.256 754.497 971.967 766.874 974.388 C 815.196 983.685 863.991 990.322 913.041 994.267 C 925.682 995.245 942.873 996.916 955.345 997.049 L 957.377 999.327 C 955.84 1000.09 953.264 1001.65 951.685 1002.15 C 947.057 1003.62 941.387 1021.73 941.916 1025.45 C 944.751 1025.97 945.687 1025.97 948.373 1027.06 C 936.337 1027.33 915.88 1025.32 903.326 1024.36 C 838.669 1019.79 774.502 1009.88 711.48 994.728 C 698.174 991.434 679.782 987.192 667.197 982.655 C 657.884 973.322 597.86 959.779 579.707 947.542 z"/>
<path transform="translate(0,0)" fill="rgb(199,199,199)" d="M 955.345 997.049 C 1001.9 998.61 1047.67 1000.49 1094.2 997.285 C 1098.26 997.005 1104.78 996.669 1108.66 997.167 C 1104.68 1000.12 1092.41 998.485 1086.53 999.609 C 1088.96 999.963 1090.17 1000.11 1092.56 1000.67 L 1089.41 1000.91 C 1087.46 1005.75 1091.09 1009.88 1091.92 1014.64 C 1092.63 1018.65 1091.98 1021.96 1093.8 1025.76 L 1097.54 1026.3 L 1096.12 1027.76 C 1053.25 1028.92 990.736 1031.03 948.373 1027.06 C 945.687 1025.97 944.751 1025.97 941.916 1025.45 C 941.387 1021.73 947.057 1003.62 951.685 1002.15 C 953.264 1001.65 955.84 1000.09 957.377 999.327 L 955.345 997.049 z"/>
<path transform="translate(0,0)" fill="rgb(164,165,166)" d="M 955.345 997.049 C 1001.9 998.61 1047.67 1000.49 1094.2 997.285 C 1098.26 997.005 1104.78 996.669 1108.66 997.167 C 1104.68 1000.12 1092.41 998.485 1086.53 999.609 C 1082.59 1000.29 1076.01 1000.5 1071.79 1000.62 C 1039.67 1001.55 1007.27 1001.57 975.174 999.822 C 969.195 999.496 963.314 998.936 957.377 999.327 L 955.345 997.049 z"/>
<path transform="translate(0,0)" fill="rgb(164,165,166)" d="M 1484.72 1229.53 C 1497.67 1221.83 1515.54 1216.16 1528.77 1208.43 C 1525.16 1211.92 1524.4 1213.16 1519.85 1214.79 C 1521.03 1223.18 1522.63 1231.85 1523.64 1240.27 C 1524.09 1244.11 1524.98 1261.81 1525.38 1263.31 C 1529.17 1277.51 1530.55 1275.44 1529.96 1291.06 L 1528.79 1291.2 C 1529.71 1282.38 1528.83 1269.85 1523.54 1262.7 C 1514.11 1249.95 1505.52 1249.9 1492.82 1247.35 C 1496.53 1245.5 1499.16 1248.21 1502.34 1244.13 C 1503.09 1239.96 1498.16 1230.08 1496.22 1225.92 C 1491.5 1228.14 1489.91 1229.27 1484.72 1229.53 z"/>
<path transform="translate(0,0)" fill="rgb(199,199,199)" d="M 667.197 982.655 C 621.884 970.374 564.912 947.084 524.058 924.181 C 491.984 906.2 457.629 881.063 435.183 852.259 C 431.625 847.692 426.245 841.957 424.723 836.457 C 427.98 840.735 432.94 845.1 435.222 848.195 C 463.51 886.561 507.033 913.538 549.541 933.934 C 557.497 937.751 570.937 944.884 579.707 947.542 C 597.86 959.779 657.884 973.322 667.197 982.655 z"/>
<path transform="translate(0,0)" fill="rgb(199,199,199)" d="M 1513.27 926.651 C 1540.51 917.046 1578.49 883.731 1599.63 864.548 C 1605.7 859.045 1611.49 848.982 1617.47 844.686 C 1616.72 847.709 1610.91 854.615 1608.72 857.081 C 1555.79 916.87 1478.86 950.83 1404.62 975.765 C 1395.45 978.848 1383.25 982.59 1373.83 984.491 C 1376.12 980.651 1382.5 979.441 1386.69 978.15 C 1423.85 966.677 1460.25 953.482 1495.21 936.324 C 1501.21 933.38 1507.79 930.513 1513.27 926.651 z"/>
<path transform="translate(0,0)" fill="rgb(164,165,166)" d="M 541.425 1245.75 C 542.95 1244.92 547.511 1243.82 547.813 1243.34 C 550.32 1239.34 553.278 1230.38 554.077 1225.67 L 551.826 1223.39 C 555.244 1223.11 568.801 1229.56 572.783 1231.24 C 569.47 1235.11 569.688 1243.09 568.119 1249.07 C 558.156 1245.23 551.824 1244.93 541.425 1245.75 z"/>
<path transform="translate(0,0)" fill="rgb(199,199,199)" d="M 913.773 1041.06 C 942.904 1041.59 973.403 1044.25 1003.54 1044.78 C 1046.04 1045.17 1088.54 1044.01 1130.96 1041.29 L 1131.07 1286.1 C 1119.96 1287.27 1108.26 1287.25 1097.08 1287.94 C 1035.58 1291.74 975.248 1289.09 913.809 1285.81 C 913.111 1261.53 913.607 1234.97 913.551 1210.48 L 913.773 1041.06 z"/>
<path transform="translate(0,0)" fill="rgb(120,122,122)" d="M 1014.19 1060.37 C 1024.78 1059.33 1035.47 1060.45 1045.61 1063.67 C 1085.49 1076.67 1104.62 1120.05 1072.32 1152.67 C 1065.73 1159.32 1058.29 1163.07 1049.95 1167.02 L 1065.72 1270.03 L 1033.4 1270.8 C 1015.08 1270.99 996.754 1270.88 978.437 1270.46 C 984.347 1236.32 989.167 1200.79 995.498 1166.95 C 932.501 1139.3 948.236 1068.1 1014.19 1060.37 z"/>
<path transform="translate(0,0)" fill="url(#Gradient3)" d="M 1311.97 1016.34 C 1328.55 1012.67 1345.06 1008.7 1361.51 1004.46 C 1361.45 1084.42 1363.33 1168.64 1361.75 1248.21 L 1318.31 1259.09 C 1263.81 1271.07 1208.59 1279.48 1153.01 1284.28 L 1153.01 1039.73 C 1204.05 1035.25 1262.3 1027.48 1311.97 1016.34 z"/>
<path transform="translate(0,0)" fill="rgb(120,122,122)" d="M 1232.87 1152.42 C 1229.05 1151.22 1225.77 1150.09 1222.1 1148.44 C 1204.48 1140.53 1193.26 1123.63 1194.9 1103.91 C 1198.84 1056.45 1262.68 1022.14 1303.19 1049.81 C 1308.14 1053.19 1311.73 1057.26 1315.68 1061.72 C 1327.15 1084.8 1323.86 1103.39 1308.91 1123.61 C 1301.78 1132.65 1294.99 1137.29 1285.66 1144.09 C 1289.01 1174.38 1296.1 1212.56 1301 1243.21 C 1276.57 1248.38 1243.04 1255.26 1218.37 1257.47 C 1222.01 1223.41 1228.73 1187.16 1232.87 1152.42 z"/>
<path transform="translate(0,0)" fill="url(#Gradient2)" d="M 1311.97 1016.34 C 1328.55 1012.67 1345.06 1008.7 1361.51 1004.46 C 1361.45 1084.42 1363.33 1168.64 1361.75 1248.21 L 1318.31 1259.09 C 1312.93 1255.91 1309.83 1218.57 1311.53 1209.9 C 1316.12 1186.53 1315.88 1162.05 1316.48 1138.32 C 1316.57 1134.94 1310.44 1127.92 1308.91 1123.61 C 1323.86 1103.39 1327.15 1084.8 1315.68 1061.72 L 1314.97 1058.49 C 1315.94 1056.54 1316.67 1054.48 1317.15 1052.35 C 1321.1 1034.19 1309.09 1026.27 1308.19 1018.49 L 1311.97 1016.34 z"/>
<path transform="translate(0,0)" fill="rgb(199,199,199)" d="M 682.969 1002.54 C 750.878 1023.33 821.032 1032.09 891.368 1039.31 C 891.818 1092.84 891.971 1146.37 891.828 1199.9 C 891.844 1222.08 893.221 1263.34 891.589 1283.83 C 821.228 1276.43 751.48 1264.05 682.87 1246.79 L 682.969 1002.54 z"/>
<path transform="translate(0,0)" fill="rgb(120,122,122)" d="M 763.088 1039.08 C 808.528 1034.94 862.548 1073.73 845.711 1125.35 C 841.249 1139.03 824.66 1147.22 811.742 1151.99 C 815.251 1184.73 822.024 1223.18 826.555 1256.46 C 820.073 1256.04 813.618 1255.27 807.216 1254.17 C 790.503 1252.75 759.761 1246.51 743.253 1242.5 L 758.866 1143.64 C 731.442 1125.04 708.895 1090.66 730.621 1057.36 C 737.259 1047.19 751.379 1041.46 763.088 1039.08 z"/>
<path transform="translate(0,0)" fill="rgb(120,122,122)" d="M 1483.8 963.526 C 1489.58 963.02 1495.48 959.184 1498.91 959.741 C 1501.58 963.809 1500.94 970.861 1497.7 974.494 C 1494.06 975.902 1492.35 975.351 1489.46 977.881 C 1500.21 977.852 1510 978.045 1518.22 986.451 C 1519.37 987.649 1520.49 988.877 1521.57 990.136 C 1530.78 1009.31 1529.13 1019.92 1523.68 1039.88 C 1524.49 1042.77 1523.26 1045.31 1521.41 1047.74 C 1518.27 1051.88 1521.86 1062.87 1522.07 1068.67 C 1523.27 1101.62 1523.78 1134.48 1523.61 1167.45 C 1523.59 1172.85 1522.11 1182.11 1522.83 1186.92 C 1526.98 1184.12 1528.8 1183.2 1533.32 1180.86 L 1533.88 1181.52 C 1526.36 1186.1 1495.16 1203.17 1488.03 1204.4 C 1455.93 1219.98 1416.59 1231.93 1382.79 1242.93 L 1382.4 999.938 C 1419.07 988.504 1448.5 978.125 1483.8 963.526 z"/>
<path transform="translate(0,0)" fill="rgb(199,199,199)" d="M 1483.8 963.526 C 1489.58 963.02 1495.48 959.184 1498.91 959.741 C 1501.58 963.809 1500.94 970.861 1497.7 974.494 C 1494.06 975.902 1492.35 975.351 1489.46 977.881 C 1464.41 984.435 1443.39 1000.85 1430.61 1023.54 C 1414.11 1052.81 1413.66 1088.34 1453.19 1097.92 C 1450.06 1133.27 1444.37 1168.88 1440.64 1204.07 C 1454.74 1198.73 1469.3 1193.41 1483.09 1187.41 C 1488.94 1187.42 1492.96 1185.01 1498.11 1182.23 C 1499.1 1188.71 1500.42 1192.05 1497.88 1197.99 C 1493.12 1201.65 1489.24 1199.4 1488.03 1204.4 C 1455.93 1219.98 1416.59 1231.93 1382.79 1242.93 L 1382.4 999.938 C 1419.07 988.504 1448.5 978.125 1483.8 963.526 z"/>
<path transform="translate(0,0)" fill="rgb(164,165,166)" d="M 1523.68 1039.88 C 1524.49 1042.77 1523.26 1045.31 1521.41 1047.74 C 1518.27 1051.88 1521.86 1062.87 1522.07 1068.67 C 1523.27 1101.62 1523.78 1134.48 1523.61 1167.45 C 1523.59 1172.85 1522.11 1182.11 1522.83 1186.92 C 1526.98 1184.12 1528.8 1183.2 1533.32 1180.86 L 1533.88 1181.52 C 1526.36 1186.1 1495.16 1203.17 1488.03 1204.4 C 1489.24 1199.4 1493.12 1201.65 1497.88 1197.99 C 1500.42 1192.05 1499.1 1188.71 1498.11 1182.23 C 1492.96 1185.01 1488.94 1187.42 1483.09 1187.41 C 1487.64 1184.61 1505.57 1176.78 1511.45 1173.88 L 1497.45 1077.99 C 1510.87 1065.88 1516.6 1056.05 1523.68 1039.88 z"/>
<path transform="translate(0,0)" fill="url(#Gradient1)" d="M 583.37 969.371 C 609.212 981.162 637.314 987.366 662.494 997.586 L 662.313 1240.94 C 632.818 1232.07 603.818 1221.63 575.436 1209.67 C 571.503 1204.69 571.029 1199.64 576.153 1195.01 C 578.644 1192.76 581.967 1193.78 585.121 1194 C 588.703 1195.86 600.663 1199.83 605.061 1201.4 C 599.544 1168.08 596.238 1128.63 591.712 1094.47 C 603.871 1092.5 615.296 1088.2 620.946 1076.52 C 637.307 1042.68 605.025 997.932 576.925 982.671 C 577.836 975.939 576.833 972.086 583.37 969.371 z"/>
<path transform="translate(0,0)" fill="rgb(164,165,166)" d="M 1483.8 963.526 C 1491.63 959.759 1517.29 947.206 1524.21 945.467 C 1522 948.835 1522.64 955.666 1523.58 959.538 C 1525.29 966.589 1518.36 980.299 1518.46 984.767 L 1522.27 989 L 1521.57 990.136 C 1520.49 988.877 1519.37 987.649 1518.22 986.451 C 1510 978.045 1500.21 977.852 1489.46 977.881 C 1492.35 975.351 1494.06 975.902 1497.7 974.494 C 1500.94 970.861 1501.58 963.809 1498.91 959.741 C 1495.48 959.184 1489.58 963.02 1483.8 963.526 z"/>
<path transform="translate(0,0)" fill="rgb(164,165,166)" d="M 575.436 1209.67 C 568.398 1206.89 546.268 1197.62 541.434 1193.02 L 543.199 1188.84 C 544.989 1190.49 544.621 1191.52 545.235 1194.49 C 546.662 1189.18 550.014 1188.15 550.595 1182.87 C 548.903 1179.59 549.132 1180.53 545.003 1178.51 L 545.743 1177.99 C 547.44 1178.22 580.152 1192.04 585.121 1194 C 581.967 1193.78 578.644 1192.76 576.153 1195.01 C 571.029 1199.64 571.503 1204.69 575.436 1209.67 z"/>
<path transform="translate(0,0)" fill="rgb(164,165,166)" d="M 576.925 982.671 C 563.502 975.609 556.689 974.725 541.722 974.407 C 542.696 973.879 548.438 974.009 550.305 973.909 C 550.245 968.792 550.706 965.203 551.414 960.184 C 552.215 954.507 548.942 958.161 544.28 953.172 C 545.676 953.293 580.336 968.123 583.37 969.371 C 576.833 972.086 577.836 975.939 576.925 982.671 z"/>
</svg>