<svg version="1.1" xmlns="http://www.w3.org/2000/svg" style="display: block;" viewBox="0 0 2048 2048" width="1024" height="1024" preserveAspectRatio="none">
<path transform="translate(0,0)" fill="rgb(114,102,87)" d="M 1004.58 90.4259 C 1042.15 87.9296 1084.43 92.3096 1119.24 106.962 C 1130.85 111.851 1146.69 120.473 1151.42 132.92 C 1156.23 145.587 1150.77 193.845 1149.92 209.855 C 1147.5 255.27 1143.86 301.747 1145.05 347.194 C 1145.32 357.692 1153.38 366.709 1152.79 377.067 C 1152.42 383.612 1147.96 389.33 1147.59 395.891 C 1147.09 404.673 1148.03 413.854 1148.12 422.678 C 1148.35 447.53 1144.35 469.442 1134.75 492.348 C 1149.71 507.552 1147.51 518.236 1137.13 535.312 C 1146.02 568.416 1144.89 594.913 1132.14 626.891 C 1142.4 657.999 1146.95 692.636 1138.53 724.683 C 1145.17 741.44 1142.85 745.207 1133.22 759.957 C 1144.5 797.008 1143.45 824.656 1129.36 861.026 C 1140.08 894.495 1144.21 916.307 1138.48 952.265 C 1137.18 962.23 1132.19 976.262 1132.75 986.002 C 1134.57 1017.95 1160.36 1026.95 1137.33 1058.6 C 1142.46 1097.53 1141.28 1118.23 1128.64 1155.07 C 1138.86 1169.16 1139.43 1175.67 1132.24 1191.24 C 1139.87 1220.97 1136.59 1246.07 1125.98 1274.24 C 1136.92 1321.27 1141.1 1329.51 1132.05 1380.3 C 1145.53 1394.97 1137.6 1406.14 1127.42 1419.43 C 1136.53 1452.65 1136.8 1483.48 1124.14 1515.7 C 1133.83 1545.31 1135.7 1564.62 1130.9 1596.42 C 1129.14 1605.43 1124.84 1615.11 1125.1 1624.37 C 1126 1656.08 1149.22 1667.38 1127.86 1698.33 L 1124.41 1852.93 C 1124.14 1864.69 1125.55 1921.33 1119.99 1928.37 C 1102.35 1950.69 1061.36 1956.14 1034.52 1957.61 C 1002.07 1958.62 944.046 1953.78 925.148 1922.51 C 923.574 1872.87 922.672 1823.21 922.443 1773.54 C 922.217 1753.84 922.938 1716.97 920.879 1698.54 C 897.775 1669.17 921.852 1656.08 923.536 1625.24 C 924.071 1615.44 919.403 1604.19 917.284 1594.53 C 911.556 1568.41 916.125 1545.16 922.959 1520.01 C 912.861 1506.13 913.929 1498.99 919.98 1483.44 C 911.844 1453.43 912.419 1428.87 923.925 1399.64 C 910.156 1360.72 909.021 1333.82 916.322 1293 C 902.014 1276.51 905.53 1267.62 919.008 1252.62 C 906.641 1222.58 910.416 1185.49 920.76 1155.38 C 905.775 1118.98 906.65 1098.23 911.309 1059.67 C 889.271 1030.21 912.076 1017.13 914.177 987.42 C 914.441 983.68 910.275 969.131 909.416 963.87 C 904.548 934.062 906.533 911.264 913.921 882.519 C 899.858 868.458 905.601 851.895 916.77 838.434 C 904.222 805.394 904.988 776.078 916.934 743.066 C 903.324 701.49 900.544 675.474 910.878 632.733 C 898.576 617.073 899.747 612.815 909.772 595.996 C 901.676 561.482 901.954 532.318 914.867 498.844 C 897.27 465.502 899.001 429.745 901.259 393.715 C 888.305 369.234 903.348 369.508 903.046 345.217 C 902.456 297.651 899.034 250.597 897.833 202.977 C 897.349 183.798 892.913 154.208 895.585 135.769 C 899.031 124.054 910.973 114.636 921.32 109.966 C 936.391 103.165 940.866 101.386 956.384 105.512 C 957.531 103.688 959.316 101.379 960.523 99.7536 C 966.043 92.3183 994.188 91.3397 1004.58 90.4259 z"/>
<path transform="translate(0,0)" fill="rgb(247,244,232)" d="M 966.954 110.497 C 1001.24 102.864 1034.34 103.207 1068.85 108.426 C 1069.41 133.608 1071.71 159.088 1073.06 184.259 C 1073.47 191.818 1073.89 200.672 1075.59 207.96 C 1076.68 178.191 1081.8 141.744 1084.29 111.037 C 1105.51 116.916 1125.71 120.721 1138.86 139.488 C 1139.28 156.535 1136.61 180.415 1135.85 197.998 C 1134.21 236.32 1131.54 274.959 1131.65 313.325 C 1127.69 302.201 1123.93 291.008 1120.37 279.751 C 1132.61 266.14 1132.78 251.501 1116.22 241.593 C 1116.12 220.009 1116.21 179.888 1113.47 159.459 C 1112.49 184.3 1107.77 213.212 1106.3 239.468 C 1100.87 240.947 1097.95 242.504 1092.97 244.918 C 1076.25 238.349 1068.82 229.107 1048.32 226.857 C 1045.13 207.287 1034.99 195.957 1024.01 179.572 C 1013.49 197.274 1003.79 204.991 999.815 226.111 C 980.952 230.65 972.998 235.699 956.045 244.965 C 949.792 241.443 947.015 240.977 940.253 239.743 C 939.684 225.775 937.471 208.791 935.685 194.903 L 932.957 196.91 C 932.839 211.33 931.949 227.307 931.464 241.803 C 916.656 251.908 914.782 266.861 927.369 279.911 C 923.471 291.079 920.397 300.302 917.251 311.716 C 916.496 274.811 913.578 236.819 912.217 199.832 C 911.496 180.245 908.948 159.11 909.053 139.637 C 915.215 129.838 922.492 124.523 933.445 120.625 C 937.728 119.1 945.072 115.972 949.127 117.903 C 954.816 125.764 959.026 171.736 960.551 184.043 C 963.509 161.367 963.253 130.614 966.954 110.497 z"/>
<path transform="translate(0,0)" fill="rgb(133,126,116)" d="M 932.957 196.91 C 932.841 192.082 932.6 190.888 933.837 186.342 C 935.337 188.216 935.331 192.091 935.685 194.903 L 932.957 196.91 z"/>
<path transform="translate(0,0)" fill="rgb(247,244,232)" d="M 940.299 1920.63 C 938.145 1906.09 939.121 1878.35 938.757 1862.85 C 937.75 1828.02 937.05 1793.19 936.656 1758.35 C 936.481 1748.74 935.034 1719.94 936.749 1711.84 L 937.692 1710.97 C 947.659 1726.11 950.146 1749.74 962.939 1765.43 C 970.161 1774.29 976.189 1782.4 985.6 1789.58 C 1016.42 1814.38 1020.02 1826.87 1024.11 1865.43 C 1032.38 1796.14 1046.13 1813.55 1085.95 1766.12 C 1088.27 1790.03 1088.73 1825.12 1090.13 1850.35 C 1090.54 1850.69 1090.18 1850.46 1091.82 1851.02 L 1093.01 1847.7 C 1094.29 1828.54 1095.45 1809.36 1096.49 1790.18 C 1097.61 1766.69 1094.39 1745.68 1104.17 1724.44 C 1106.5 1719.37 1105.5 1716.08 1110.64 1712.41 C 1115.35 1717.46 1111.84 1780.62 1111.56 1791.89 L 1108.95 1919.64 C 1098.7 1929.46 1091.22 1932.01 1077.88 1936.2 C 1076.95 1919.21 1074.76 1887.57 1071.43 1870.74 C 1067.27 1888.19 1067.63 1920.42 1064.81 1939.68 C 1042.91 1943.76 1020.5 1944.43 998.386 1941.67 C 995.647 1923.32 994.608 1903.22 991.321 1885.35 C 988.644 1902.62 987.434 1922.37 985.994 1939.99 L 970.746 1936.38 C 969.86 1924.12 963.121 1810.68 961.037 1808.22 C 959.947 1813.09 958.886 1838.52 958.689 1844.43 C 957.756 1872.3 955.452 1903.12 956.154 1930.92 C 949.016 1927.11 946.575 1925.89 940.299 1920.63 z"/>
<path transform="translate(0,0)" fill="rgb(133,126,116)" d="M 1093.01 1847.7 C 1092.89 1855.41 1092.5 1859.57 1091.46 1867.23 C 1091 1861.68 1090.42 1855.89 1090.13 1850.35 C 1090.54 1850.69 1090.18 1850.46 1091.82 1851.02 L 1093.01 1847.7 z"/>
<path transform="translate(0,0)" fill="rgb(247,244,232)" d="M 1024.23 205.73 C 1031.95 218.022 1034.7 223.332 1031.9 238.071 L 1031.61 239.516 C 1037.8 246.429 1040.89 240.412 1050.03 242.36 C 1069.75 246.561 1076.49 256.885 1097.7 260.965 C 1102.37 257.477 1104.05 255.408 1109.63 255.766 C 1113.44 257.887 1112.08 256.427 1114.01 260.177 C 1114.28 268.396 1109.75 270.397 1103.02 273.028 C 1112.82 305.266 1126.55 347.344 1138.52 378.517 C 1134.15 386.98 1129.49 392.361 1120.97 396.987 C 1110.02 402.935 1097.15 404.226 1085.24 400.566 C 1072.72 396.626 1065.76 389.623 1060 378.424 C 1069.14 345.482 1086.08 308.023 1095.48 273.562 C 1071.72 270.978 1051.47 247.74 1033.06 269.931 C 1029.58 303.692 1034.07 345.164 1032.59 379.572 C 1032.29 386.53 1038.04 396.621 1038.02 403.81 C 1038.54 409.108 1034.44 418.024 1034.43 422.908 C 1034.41 434.869 1051.12 436.521 1057.95 446.625 C 1066.2 447.786 1081.25 449.452 1076.2 462.244 C 1070.96 463.725 1036.46 463.022 1028.45 462.984 C 1020.84 462.994 974.861 464.642 971.463 460.895 C 970.463 448.499 980.78 448.218 989.793 446.804 C 997.096 436.895 1001.49 439.655 1010.56 431.681 C 1019.04 425.999 1007.55 408.746 1009.83 402.737 C 1018.03 381.242 1016.07 365.065 1016.11 342.208 C 1016.24 318.553 1016.18 294.897 1015.92 271.243 C 998.066 246.769 977.51 271.088 954.364 273.26 L 952.959 273.378 C 960.848 303.695 978.035 347.88 988.694 378.269 C 971.908 410.7 926.856 410.602 909.97 378.814 C 920.317 350.35 936.403 302.809 944.433 273.826 C 937.724 269.951 931.195 265.742 935.113 256.914 C 942.384 252.774 951.379 261.603 956.619 260.179 C 969.375 256.715 979.75 247.154 992.978 243.153 C 1001.94 240.442 1009.42 244.201 1015.85 242.439 L 1017.2 240.053 C 1017.31 235.875 1015.38 233.494 1013.26 229.769 C 1015.95 218.685 1018.14 215.249 1024.23 205.73 z"/>
<path transform="translate(0,0)" fill="rgb(114,102,87)" d="M 1096.53 289.714 C 1097.64 295.894 1097.15 313.121 1097.12 320.459 L 1096.98 375.641 C 1087.58 375.652 1077.84 375.362 1068.42 375.212 L 1067.66 374.522 C 1068.69 369.208 1075.47 349.615 1077.5 343.868 C 1083.51 326.861 1089.24 305.916 1096.53 289.714 z"/>
<path transform="translate(0,0)" fill="rgb(114,102,87)" d="M 951.155 289.704 C 955.247 294.597 977.005 363.372 980.984 375.176 C 971.46 375.555 960.669 375.354 951.048 375.393 C 951.209 347.644 950.147 317.161 951.155 289.704 z"/>
<path transform="translate(0,0)" fill="rgb(114,102,87)" d="M 944.789 292.005 C 946.634 294.434 945.611 366.237 945.506 375.284 C 936.588 375.592 927.311 375.512 918.361 375.56 L 917.461 374.326 C 927.562 347.79 934.164 318.293 944.789 292.005 z"/>
<path transform="translate(0,0)" fill="rgb(114,102,87)" d="M 1102.51 290.871 C 1105.19 293.539 1127.81 366.087 1130.94 375.676 L 1102.35 375.61 C 1102.52 347.657 1102.79 318.767 1102.51 290.871 z"/>
<path transform="translate(0,0)" fill="rgb(247,244,232)" d="M 1023.46 866.426 C 1026.88 868.733 1026.81 870.908 1028.62 873.587 C 1036.19 884.749 1031.32 895.483 1033.1 904.284 C 1038.79 906.026 1046.54 902.661 1052.98 904.856 C 1067.16 909.697 1078.56 918.398 1092.9 923.193 C 1098.54 918.994 1106.33 913.344 1111.74 921.435 C 1112.31 929.607 1106.94 931.967 1100.48 935.083 C 1109.79 967.746 1122.39 1004.92 1133.31 1037.2 C 1117.31 1070.53 1076.44 1069.97 1058.31 1038.49 C 1069.07 1006.14 1083.41 967.673 1092.34 935.343 C 1069.45 931.945 1045.93 908.058 1031.52 934.08 C 1030.13 968.127 1032.7 1004.91 1032.13 1039.22 C 1031.99 1047.44 1037.97 1057.09 1037.35 1065.97 C 1036.82 1073.45 1034.94 1078.44 1032.49 1085.37 C 1041.25 1097.06 1046.4 1095.22 1055.02 1104.25 C 1064.07 1106.08 1071.29 1106.38 1076.28 1115.01 C 1076.33 1122.89 1066.06 1122.08 1060.06 1121.93 C 1049.88 1121.69 1039.84 1121.58 1029.65 1121.62 C 1021.16 1121.69 977.668 1123.18 973.478 1119.93 C 971.773 1106.47 983.369 1106.58 993.552 1104.64 C 999.724 1097.76 1004.68 1096.78 1011.51 1090.94 C 1015.53 1087.5 1014.91 1081.4 1013.03 1076.86 C 1006.75 1061.7 1014.36 1053.44 1016.3 1039.02 C 1017.14 1007.45 1016.45 975.213 1016.77 943.565 C 1016.85 936.215 1015.7 930.043 1009.58 925.013 C 997.016 915.663 978.675 929.601 966.109 933.426 C 962.131 934.686 958.853 934.991 954.852 935.42 C 966.306 969.793 977.946 1004.1 989.773 1038.35 C 974.292 1070.02 931.426 1069.79 915.543 1038.52 C 924.283 1004.5 937.877 969.256 947.231 935.078 C 942.281 932.365 933.025 926.32 936.996 919.399 C 944.049 915.814 955.201 922.55 958.502 921.798 C 970.86 918.981 983.577 907.91 996.516 904.575 C 1004.81 902.439 1008.31 905.664 1015.75 904.593 L 1017.42 902.111 C 1018.06 897.906 1015.94 895.751 1014.69 891.865 C 1012.54 885.184 1020.19 872.526 1023.46 866.426 z"/>
<path transform="translate(0,0)" fill="rgb(114,102,87)" d="M 1093.43 951.69 C 1095.87 962.864 1095.14 1019.78 1095.16 1035.04 L 1068.2 1034.96 L 1067.36 1034.14 C 1066.93 1026.99 1089.54 963.122 1093.43 951.69 z"/>
<path transform="translate(0,0)" fill="rgb(114,102,87)" d="M 954.254 951.621 C 957.493 959.057 961.884 974.014 964.461 981.993 C 970.022 999.806 976.009 1017.48 982.416 1035.01 C 972.692 1035.12 962.966 1035.13 953.242 1035.03 C 953.468 1011.06 951.594 974.566 954.254 951.621 z"/>
<path transform="translate(0,0)" fill="rgb(114,102,87)" d="M 1099.32 952.715 C 1102.31 955.42 1123.59 1025.35 1126.7 1035.08 C 1118.12 1035.23 1109.04 1035.05 1100.42 1035.03 C 1100.07 1007.93 1100.56 979.693 1099.32 952.715 z"/>
<path transform="translate(0,0)" fill="rgb(114,102,87)" d="M 947.125 952.649 C 949.612 959.824 947.844 1022.61 948.044 1035 L 922.483 1035.38 C 922.933 1024.76 942.845 966.668 947.125 952.649 z"/>
<path transform="translate(0,0)" fill="rgb(247,244,232)" d="M 1024.15 1511.77 C 1029.68 1521.14 1031.66 1526.21 1034.7 1536.56 C 1032.19 1540.61 1030.48 1542.11 1030.57 1546.49 C 1036.52 1553.22 1040.96 1546.8 1048.55 1548.82 C 1063.44 1552.78 1072.37 1561.92 1087.55 1566.81 C 1093.76 1563.12 1098.04 1559.16 1104.09 1565.3 C 1105.95 1573.39 1100.02 1576.05 1094.12 1579.37 C 1103.22 1604.89 1114.81 1646.55 1122.32 1671.8 C 1129.35 1695.46 1076.09 1721.03 1054.67 1678.01 C 1065.4 1644.96 1076.32 1611.98 1087.42 1579.05 C 1048.95 1570.34 1027.62 1543.3 1031.33 1609.59 C 1032.59 1632.12 1029.57 1661.35 1032.18 1683.18 C 1035.15 1708.08 1040.45 1699.78 1032.24 1727.26 C 1036.14 1732.34 1047.98 1742.34 1053.94 1745.32 C 1059.81 1748.26 1071.14 1748.42 1074.13 1756.91 C 1073.38 1760.37 1074.03 1758.69 1071.13 1761.77 C 1060.76 1762.98 1036.52 1762.38 1025.1 1762.4 C 1016.37 1762.37 982.662 1763.09 976.479 1761.58 C 972.296 1749.59 988.472 1748.27 995.812 1743.75 C 1001.77 1740.08 1012.92 1734.56 1014.87 1727.44 C 1016.01 1723.32 1010.46 1710.97 1011.06 1706.14 C 1011.45 1698.52 1016.3 1688.54 1016.42 1681.89 C 1017.05 1647.32 1017.79 1612.3 1016.25 1577.82 C 1015.8 1574.96 1012.28 1569.4 1009.53 1568.31 C 995.123 1562.6 976.965 1575.62 962.324 1579.11 L 960.756 1579.47 C 971.885 1609.59 983.53 1647.3 993.993 1678.44 C 989.797 1686.65 984.632 1693.17 976.285 1697.56 C 967.804 1701.97 957.917 1702.81 948.812 1699.91 C 936.625 1696.15 929.783 1688.28 924.136 1677.48 L 943.058 1615.35 C 944.825 1609.64 952.934 1585.02 953.112 1580.47 C 951.657 1576.78 947.045 1575.09 943.859 1571.78 C 942.747 1566.66 944.293 1564.16 949.056 1562.16 C 953.174 1562.26 957.383 1564.87 961.203 1566.76 C 981.646 1560.01 992.254 1544.83 1014.45 1549.29 C 1016.39 1549.68 1017.71 1546.94 1018.52 1545.43 C 1018.41 1541.86 1016.08 1539.36 1013.96 1536.34 C 1015.94 1526.76 1019.45 1520.27 1024.15 1511.77 z"/>
<path transform="translate(0,0)" fill="rgb(114,102,87)" d="M 1088.49 1594.73 C 1089.29 1600.71 1089 1617.05 1088.99 1623.41 L 1088.97 1675.09 C 1080.23 1675.25 1071.09 1675.1 1062.32 1675.09 C 1062.62 1667.28 1084.95 1603.63 1088.49 1594.73 z"/>
<path transform="translate(0,0)" fill="rgb(114,102,87)" d="M 959.712 1594.5 C 962.507 1599.75 967.588 1616.76 969.623 1623.05 C 975.151 1640.53 980.93 1657.92 986.957 1675.24 L 959.127 1675.2 C 959.87 1648.84 958.046 1620.72 959.712 1594.5 z"/>
<path transform="translate(0,0)" fill="rgb(114,102,87)" d="M 1093.74 1595.52 C 1099.6 1605.58 1113.55 1660.39 1118.04 1675.12 L 1093.63 1675 C 1094.3 1649.38 1093.71 1621.38 1093.74 1595.52 z"/>
<path transform="translate(0,0)" fill="rgb(114,102,87)" d="M 954.054 1596.64 C 956.055 1601.86 954.326 1663.36 954.202 1675.14 L 931.338 1675.12 C 931.371 1669.21 951.194 1605.53 954.054 1596.64 z"/>
<path transform="translate(0,0)" fill="rgb(247,244,232)" d="M 916.46 408.778 C 921.366 410.978 926.297 413.125 931.25 415.218 C 946.714 465.978 978.438 488.295 1018.64 519.832 C 1028.8 527.803 1042.23 536.869 1051.36 545.786 L 1052.41 546.812 C 1048.05 552.214 1044.99 555.206 1040.03 560.032 C 1022.45 544.932 993.55 524.333 974.079 509.377 C 985.803 525.768 997.585 536.754 1012.93 549.592 C 1019.68 555.704 1026.36 561.903 1032.95 568.189 C 1028.95 572.873 1023 578.53 1018.53 583.009 C 984.381 552.777 940.688 525.258 923.578 481.586 C 919.172 470.338 917.185 458.22 915.019 446.358 C 925.114 466.657 931.148 477.696 947.79 492.907 C 930.856 465.56 919.24 441.771 916.46 408.778 z"/>
<path transform="translate(0,0)" fill="rgb(247,244,232)" d="M 925.411 1070.04 C 928.563 1071.3 932.355 1073.12 935.518 1074.54 C 945.371 1114.92 976.547 1146.18 1008.91 1170.3 C 1021.82 1179.93 1039.2 1190.85 1050.58 1202.07 C 1047.05 1206.78 1042.97 1210.62 1038.82 1214.79 C 1019.45 1199.61 998.577 1185.79 978.465 1169.79 C 990.188 1186.7 998.625 1194.69 1013.71 1208.02 C 1019.75 1213.11 1025.7 1218.3 1031.56 1223.59 L 1018.64 1238.75 C 970.5 1199.24 932.212 1174.84 923.21 1109.25 C 933.56 1129.89 938.31 1138.64 954.475 1154.89 C 937.855 1125.59 925.373 1104.67 925.411 1070.04 z"/>
<path transform="translate(0,0)" fill="rgb(247,244,232)" d="M 1034.56 784.703 C 1082.84 824.012 1118.2 842.335 1126.58 909.253 C 1114.21 886.559 1115.26 880.446 1094.71 861.557 C 1103.95 877.31 1109.91 888.655 1116.4 905.709 C 1105.38 903.447 1103.05 903.311 1092.08 905.568 L 1083.83 892.809 C 1067.96 867.468 1024.51 841.871 1001.75 821.682 C 1005.36 817.24 1009.63 812.509 1013.42 808.145 C 1027.4 816.786 1058.18 841.006 1071.14 851.752 C 1051.81 826.052 1041.91 821.159 1020.73 800.085 C 1024.84 794.489 1029.74 789.704 1034.56 784.703 z"/>
<path transform="translate(0,0)" fill="rgb(247,244,232)" d="M 1033.31 1436.72 C 1038.02 1439.04 1046.92 1447.93 1051.77 1451.58 C 1090.92 1481.09 1112.08 1506.64 1119.45 1555.25 C 1106.78 1536.29 1108.48 1529.96 1088.89 1511.72 C 1096.22 1523.84 1102.8 1536.41 1108.57 1549.34 C 1099.06 1547.55 1096.44 1547.47 1087.41 1550.09 C 1083.31 1544.57 1079.13 1539.1 1074.88 1533.69 C 1055.54 1511.69 1025.3 1489.95 1001.47 1472.27 C 1004.29 1468.28 1009.31 1462.97 1012.68 1459.19 C 1024.99 1466.7 1055.44 1490.96 1067.15 1501.16 C 1049.97 1475.31 1039.32 1471.78 1020.33 1451.07 C 1023.71 1446.79 1029.49 1440.86 1033.31 1436.72 z"/>
<path transform="translate(0,0)" fill="rgb(247,244,232)" d="M 924.891 636.549 C 928.021 639.404 930.968 652.933 932.344 657.681 C 935.488 668.344 939.477 678.74 944.273 688.77 C 958.969 718.991 977.759 733.809 1000.93 755.69 C 994.939 761.447 991 764.857 984.46 769.99 C 972.131 759.741 963.952 749.653 952.571 739.685 C 958.726 751.092 963.191 759.282 971.196 769.404 L 978.079 777.495 L 965.643 789.576 C 937.232 758.438 924.183 731 919.449 689.244 C 925.958 705.275 928.919 709.586 940.558 722.448 C 927.555 695.174 915.409 667.179 924.891 636.549 z"/>
<path transform="translate(0,0)" fill="rgb(247,244,232)" d="M 976.187 599.602 C 982.931 600.995 1018.37 642.468 1024.99 649.858 C 1015.78 662.173 1002.65 675.444 990.698 685.095 C 981.537 685.569 976.221 676.969 970.445 670.364 C 960.525 659.021 949.246 648.66 939.99 636.853 C 950.378 624.525 964.67 610.909 976.187 599.602 z"/>
<path transform="translate(0,0)" fill="rgb(247,244,232)" d="M 1086.38 582.661 C 1091.42 585.068 1098.91 596.593 1102.04 601.486 C 1118.09 626.539 1124.62 649.814 1128.38 678.865 C 1120.95 663.873 1118.52 659.699 1107.79 646.917 C 1119.88 671.227 1126.58 692.632 1124.6 719.631 L 1115.82 714.433 C 1114.41 708.466 1112.36 702.588 1110.45 696.753 C 1098.68 663.83 1077.63 636.533 1050.94 614.223 C 1056.23 609.293 1061.26 604.56 1066.8 599.919 C 1076.54 608.039 1089.16 621.555 1098.19 630.753 C 1089.9 614.176 1085.62 608.107 1074.63 593.527 C 1078.21 589.598 1082.37 586.17 1086.38 582.661 z"/>
<path transform="translate(0,0)" fill="rgb(247,244,232)" d="M 1028.08 737.323 C 1034.01 739.47 1049.27 751.258 1047.91 758.004 C 1045.18 761.213 1046.8 760.384 1043.38 761.385 C 1042.36 760.919 1038.17 758.794 1037.08 759.969 C 1013.18 785.549 991.813 813.49 969.138 840.098 C 960.668 850.038 949.218 864.768 939.096 872.445 C 921.076 879.063 914.718 863.589 923.383 852.783 C 953.492 815.24 993.336 784.939 1026.25 749.869 C 1026.42 749.682 1023.7 743.898 1028.08 737.323 z"/>
<path transform="translate(0,0)" fill="rgb(247,244,232)" d="M 1129.85 409.098 L 1130.49 410.021 C 1130.77 428.759 1113.85 463.252 1104.72 479.91 C 1119.26 465.704 1124.63 455.115 1132.69 436.995 C 1131.66 454.513 1127.54 471.713 1120.54 487.805 C 1100.56 489.752 1092.17 500.899 1080.01 515.353 C 1073.59 522.11 1067.25 528.935 1060.98 535.826 C 1052.82 526.682 1044.71 521.208 1034.97 513.982 C 1042.97 506.791 1054.16 499.719 1062.75 492.53 C 1087.98 471.403 1107.05 447.398 1116.57 415.649 L 1129.85 409.098 z"/>
<path transform="translate(0,0)" fill="rgb(247,244,232)" d="M 929.699 1296.52 C 937.577 1302.36 939.024 1314.07 941.386 1323.37 C 950.754 1360.26 974.363 1383.16 1001.46 1407.84 C 996.04 1412.88 991.717 1416.62 985.941 1421.25 C 977.029 1414.58 962.602 1398.48 954.11 1389.77 C 958.55 1398.51 961.434 1404.05 966.817 1412.27 C 969.978 1417.02 974.985 1423.28 978.526 1427.97 C 973.943 1432.72 971.35 1434.78 966.206 1438.85 C 940.19 1407.98 931.707 1387.6 926.395 1348.31 C 931.942 1357.58 934.734 1361.99 941.948 1369.98 C 928.852 1341.07 925.401 1326.98 929.699 1296.52 z"/>
<path transform="translate(0,0)" fill="rgb(247,244,232)" d="M 1114.19 503.072 C 1114.92 503.006 1115.64 502.951 1116.37 502.907 C 1133.83 501.903 1134.39 517.421 1123.63 528.966 C 1092.87 561.976 1055.62 588.564 1023.91 620.44 C 1026.59 624.786 1028.67 627.13 1026.11 631.925 C 1023.27 633.114 1023.44 632.965 1020.37 632.384 C 1013.17 627.301 1001.84 617.301 1002.95 607.668 L 1005.43 606.338 C 1009.14 606.773 1011.18 608.954 1013.84 611.363 C 1029.92 591.681 1049.13 571.685 1065.96 552.42 C 1076.64 540.2 1101.18 510.136 1114.19 503.072 z"/>
<path transform="translate(0,0)" fill="rgb(247,244,232)" d="M 981.431 1258.55 C 988.136 1263.82 996.433 1273.5 1002.49 1279.94 C 1010.35 1288.19 1018.35 1296.3 1026.49 1304.26 C 1022.27 1311.89 997.863 1337.52 989.941 1341.65 C 982.844 1340.73 974.142 1327.71 968.781 1322.19 C 960.695 1313.87 952.379 1305.13 944.611 1296.52 C 950.192 1287.32 972.735 1266.42 981.431 1258.55 z"/>
<path transform="translate(0,0)" fill="rgb(247,244,232)" d="M 1084.58 1237.67 C 1087.47 1239.73 1091.87 1245.96 1094.11 1248.99 C 1111.51 1272.55 1118.85 1297.8 1122.64 1326.36 C 1117.45 1314.32 1113.07 1308.61 1104.14 1299.34 C 1110.24 1312.58 1129.26 1358.81 1116.98 1371.21 L 1114.82 1370.75 C 1108.73 1364.62 1107.5 1355.99 1105.29 1347.53 C 1092.53 1311.7 1076.8 1294.84 1050.53 1269.18 L 1064.82 1255.65 C 1073.97 1262.73 1085.2 1274.68 1093.5 1283.11 C 1086.27 1267.24 1082.82 1262.92 1072.44 1249.06 C 1076.67 1244.72 1080.03 1241.66 1084.58 1237.67 z"/>
<path transform="translate(0,0)" fill="rgb(247,244,232)" d="M 1107.12 1163.92 C 1111.44 1163.32 1119.97 1164.25 1121.5 1168.57 C 1127.01 1184.16 1100.26 1204.48 1090.99 1213.29 C 1069.32 1233.88 1047.79 1251.34 1026.01 1271.44 C 1020.32 1276.69 1025.53 1275.31 1025.48 1282.66 C 1023.36 1286.3 1022 1287.37 1018.07 1286.32 C 1012.51 1280.93 1003.34 1273.57 1001.84 1266.5 C 1003.15 1263.19 1002.1 1264.52 1005.28 1262.54 C 1009.68 1262.93 1009.43 1263.72 1013.67 1266.58 C 1026.4 1250.36 1092.95 1171.83 1107.12 1163.92 z"/>
<path transform="translate(0,0)" fill="rgb(247,244,232)" d="M 1122.07 1069.88 L 1123.39 1070.21 C 1125.39 1075.4 1119.26 1098.03 1117.51 1104.1 C 1113.56 1117.74 1106.5 1130.99 1099.34 1143.17 C 1110.57 1132.49 1119.01 1117.38 1125.07 1103.32 C 1123.63 1123.99 1122.73 1130.02 1115.05 1149.16 C 1097.12 1150.05 1089.44 1159.27 1077.86 1171.63 L 1059.57 1191.07 C 1052.28 1184.61 1042.84 1177.84 1034.95 1171.89 C 1075.21 1141.82 1098.06 1123.75 1112.69 1074.74 L 1122.07 1069.88 z"/>
<path transform="translate(0,0)" fill="rgb(247,244,232)" d="M 1029.63 1389.64 C 1034.85 1392.67 1042.98 1401.19 1046.6 1406.43 C 1048.36 1408.98 1047.26 1410.21 1046.3 1412.59 C 1042.98 1414.18 1041.52 1412.95 1037.27 1411.76 C 1031.87 1415.21 1029.1 1420.61 1024.83 1424.83 C 1008.28 1441.17 965.282 1499.51 948.693 1510.58 C 943.312 1512.4 936.082 1513.97 932.132 1509.06 C 923.681 1498.54 940.776 1482.49 947.02 1476.17 C 971.754 1451.12 998.548 1428.94 1024.34 1405.19 C 1026.96 1402.77 1025.65 1398.58 1025.36 1395.59 C 1025.03 1392.49 1027.41 1391.52 1029.63 1389.64 z"/>
<path transform="translate(0,0)" fill="rgb(247,244,232)" d="M 1064.09 680.498 C 1067.61 681.176 1099.59 713.904 1103.67 718.544 C 1095.27 729.645 1075.35 749.424 1065.08 759.226 C 1058.01 754.045 1032.71 728.079 1025.18 720.573 C 1036.21 708.865 1052.53 690.793 1064.09 680.498 z"/>
<path transform="translate(0,0)" fill="rgb(247,244,232)" d="M 1063.86 1335.5 C 1066.96 1337.07 1097.15 1369.74 1101.83 1374.73 C 1095.65 1382.98 1071.7 1406.65 1063.63 1413.02 C 1058.96 1410.27 1050.53 1399.44 1046.58 1394.87 C 1042 1389.56 1028.12 1379.53 1026.79 1374.14 C 1029.79 1365.79 1055.99 1340.27 1063.86 1335.5 z"/>
<path transform="translate(0,0)" fill="rgb(247,244,232)" d="M 992.28 833.694 C 995.995 835.659 1008.47 845.752 1012.49 848.872 C 987.358 867.875 972.13 878.408 956.282 906.153 L 944.324 902.64 C 940.101 903.601 936.093 904.512 932.475 907.028 C 928.06 910.055 925.047 914.729 924.115 920 C 922.651 928.625 926.149 934.966 930.796 941.587 C 931.169 945.975 925.905 958.091 924.092 962.489 C 920 933.379 921.066 917.565 926.798 889.269 C 951.506 886.396 957.262 874.58 972.441 856.831 C 979.016 849.143 985.482 841.194 992.28 833.694 z"/>
<path transform="translate(0,0)" fill="rgb(247,244,232)" d="M 993.043 1483.81 C 998.666 1487.11 1007.08 1494.35 1012.42 1498.68 C 994.214 1513.36 977.249 1525.73 964.418 1545.35 C 960.519 1551.31 952.992 1547.61 945.052 1548.04 L 943.648 1548.13 C 946.398 1541.89 949.505 1535.57 951.052 1528.95 C 943.933 1534.73 935.359 1551.09 930.624 1559.51 C 931.086 1547.79 933.045 1538.33 935.089 1526.85 C 963.509 1524.88 974.853 1503.5 993.043 1483.81 z"/>
<path transform="translate(0,0)" fill="rgb(247,244,232)" d="M 1120.09 772.706 L 1121.38 773.507 C 1128.93 794.421 1126.04 824.746 1120.09 845.805 L 1109.29 831 C 1102.88 822.849 1092.84 814.026 1085.15 806.68 C 1096.53 798.46 1109.87 783.237 1120.09 772.706 z"/>
<path transform="translate(0,0)" fill="rgb(247,244,232)" d="M 924.922 513.719 C 935.493 529.922 944.99 537.26 956.929 551.64 C 949.188 557.015 944.887 560.619 937.778 566.894 L 922.238 582.349 C 917.459 559.601 918.381 536.025 924.922 513.719 z"/>
<path transform="translate(0,0)" fill="rgb(247,244,232)" d="M 929.929 1172.56 C 932.016 1174.35 941.693 1187.76 944.11 1190.81 C 950.669 1199.11 955.572 1203.67 963.267 1210.76 C 957.009 1215.15 951.237 1220.2 945.398 1225.13 C 940.363 1229.91 935.096 1235.59 930.229 1240.62 C 924.45 1217.22 925.306 1195.97 929.929 1172.56 z"/>
<path transform="translate(0,0)" fill="rgb(247,244,232)" d="M 1114.3 1431.73 L 1115.48 1432.65 C 1122.11 1447.88 1118.21 1481.5 1115.24 1497.92 C 1111 1490.69 1108.73 1487.2 1103.61 1480.58 C 1096.54 1471.97 1091.45 1466.69 1082.92 1459.61 C 1096.47 1449.6 1102.77 1443.57 1114.3 1431.73 z"/>
<path transform="translate(0,0)" fill="rgb(247,244,232)" d="M 926.091 761.496 C 928.586 763.604 939.307 780.467 942.093 784.214 C 946.492 790.13 949.54 793.72 954.713 799.425 C 950.527 803.976 944.304 809.65 939.731 814.057 L 927.822 826.462 C 921.42 803.46 920.878 784.998 926.091 761.496 z"/>
<path transform="translate(0,0)" fill="rgb(247,244,232)" d="M 957.43 568.634 C 961.744 569.246 962.223 569.104 965.526 571.672 C 970.831 582.889 933.92 614.172 924.707 622.387 C 924.214 622.471 923.721 622.554 923.228 622.638 C 902.713 617.86 931.895 592.683 935.627 588.813 C 943.638 580.51 949.721 574.513 957.43 568.634 z"/>
<path transform="translate(0,0)" fill="rgb(247,244,232)" d="M 1039.75 654.93 C 1044.16 654.777 1044.71 654.518 1048.47 656.468 C 1053.3 662.831 1047.02 669.398 1042.43 674.25 C 1031.41 685.884 1020.21 697.437 1008.85 708.736 C 1004.49 710.204 1004.1 709.906 1000.46 707.837 C 993.177 696.041 1030.68 663.64 1039.75 654.93 z"/>
<path transform="translate(0,0)" fill="rgb(247,244,232)" d="M 1119.8 730.722 C 1123.49 731.177 1123.56 730.968 1126.71 733.201 C 1130.13 739.226 1126.27 745.119 1121.95 749.686 C 1110.78 761.483 1098.89 774.714 1086.72 785.334 C 1080.85 784.826 1077.92 783.951 1077.5 777.792 C 1081.85 768.702 1111.32 738.787 1119.8 730.722 z"/>
<path transform="translate(0,0)" fill="rgb(247,244,232)" d="M 962.469 1230.69 C 967.808 1231.74 969.982 1232.71 971.102 1238.12 C 969.974 1244.3 936.737 1276.22 929.802 1283.49 C 910.914 1276.34 931.152 1260.26 938.638 1251.93 C 945.473 1244.31 953.912 1236.23 962.469 1230.69 z"/>
<path transform="translate(0,0)" fill="rgb(247,244,232)" d="M 1040.95 1310.84 C 1044.62 1310.81 1044.78 1310.55 1048.05 1312.44 C 1052.43 1318.82 1046.72 1324.89 1042.01 1329.58 C 1031.09 1340.46 1020.21 1351.41 1009.35 1362.35 C 1005.37 1363.83 1004 1363.39 1000.71 1360.79 C 1000.06 1359.29 999.295 1357.66 999.711 1356 C 1002.53 1344.81 1032.43 1317.34 1040.95 1310.84 z"/>
<path transform="translate(0,0)" fill="rgb(247,244,232)" d="M 1124.05 547.969 C 1131.3 557.169 1126.1 597.88 1123.49 609.173 L 1115.84 596.234 C 1110.98 588.163 1104.06 579.695 1098.16 572.247 C 1107.5 564.109 1115.57 557.066 1124.05 547.969 z"/>
<path transform="translate(0,0)" fill="rgb(247,244,232)" d="M 1118.67 1387.55 C 1137.89 1396.64 1101.95 1421.24 1095.93 1429.51 C 1093.41 1432.97 1086.02 1438.06 1082.24 1440.02 C 1077.35 1437.88 1075.89 1437.75 1075.13 1432.32 C 1076.85 1425.79 1112.05 1391.79 1118.67 1387.55 z"/>
<path transform="translate(0,0)" fill="rgb(247,244,232)" d="M 933.002 1418.7 C 937.276 1422.77 946.08 1438.7 955.536 1448.31 C 952.212 1452.24 947.413 1456.49 943.609 1460.09 L 931.823 1471.63 C 929.376 1452.22 928.834 1437.97 933.002 1418.7 z"/>
<path transform="translate(0,0)" fill="rgb(247,244,232)" d="M 1119.77 1205.93 C 1124.77 1214.42 1118.88 1248.39 1117.17 1258.71 L 1109.18 1245.5 C 1105.2 1239.17 1100.85 1234.63 1095.76 1229.21 C 1103.75 1221.72 1111.88 1213.59 1119.77 1205.93 z"/>
<path transform="translate(0,0)" fill="rgb(247,244,232)" d="M 1052.53 673.548 C 1054.29 674.889 1054.25 675.009 1055.75 676.686 C 1055.4 681.7 1026.97 709.351 1021.68 714.732 C 1019.89 714.065 1020.24 714.121 1018.65 712.963 L 1018.42 710.649 C 1021.65 702.921 1045.4 679.929 1052.53 673.548 z"/>
<path transform="translate(0,0)" fill="rgb(247,244,232)" d="M 1106.11 726.513 C 1108.55 727.551 1107.71 727.165 1109.72 729.213 C 1108.74 734.61 1081.6 761.423 1075.76 767.472 C 1072.93 766.589 1072.92 766.381 1071.96 764.103 C 1073.75 757.61 1100 732.654 1106.11 726.513 z"/>
<path transform="translate(0,0)" fill="rgb(247,244,232)" d="M 967.264 590.608 C 969.878 591.446 968.765 590.77 970.421 593.003 C 969.605 598.679 942.812 623.609 937.135 629.307 C 934.69 627.656 934.787 627.841 933.4 625.259 C 935.475 619.35 961.261 595.37 967.264 590.608 z"/>
<path transform="translate(0,0)" fill="rgb(247,244,232)" d="M 1103.35 1383.6 C 1105.51 1384.39 1105.28 1384.48 1107.23 1385.88 L 1107.29 1387.78 C 1101.19 1395.81 1082.66 1413.1 1074.63 1420.82 C 1073.72 1420.93 1073.04 1420.63 1072.05 1420.39 L 1071.3 1418.27 C 1073.63 1411.9 1097.22 1389.2 1103.35 1383.6 z"/>
<path transform="translate(0,0)" fill="rgb(247,244,232)" d="M 972.362 1249.61 C 975.463 1252.13 974.873 1250.66 975.587 1253.7 C 972.339 1258.47 949.073 1280.88 942.217 1288.42 C 941.105 1288.1 940.605 1287.64 939.575 1286.99 L 939.186 1284.68 C 942.658 1276.97 965.133 1256.14 972.362 1249.61 z"/>
<path transform="translate(0,0)" fill="rgb(247,244,232)" d="M 1050.17 1330.49 C 1052.97 1331.42 1052.05 1330.5 1053.31 1332.92 C 1051.35 1338.66 1028.56 1360.7 1022.68 1366.68 C 1020.49 1366.94 1021.55 1367.17 1019.57 1365.73 L 1019.57 1363.48 C 1023.9 1354.61 1042.35 1337.46 1050.17 1330.49 z"/>
<path transform="translate(0,0)" fill="rgb(247,244,232)" d="M 1124.63 930.683 C 1126.12 936.224 1123.94 948.659 1122.64 954.388 L 1121.28 954.528 C 1120.12 950.78 1118.98 945.831 1117.96 941.94 C 1121.11 937.444 1122.23 935.608 1124.63 930.683 z"/>
<path transform="translate(0,0)" fill="rgb(247,244,232)" d="M 1115.75 1578.87 C 1116.5 1584.5 1116.58 1594.59 1115.61 1600.17 L 1114.51 1599.69 L 1110.01 1584.75 L 1115.75 1578.87 z"/>
<path transform="translate(0,0)" fill="rgb(247,244,232)" d="M 932.875 1579.55 C 935.068 1580.97 935.374 1581.5 937.168 1583.45 C 938.37 1588.15 935.852 1593.93 934.326 1598.76 L 933.636 1600.18 C 932.363 1597.22 932.854 1583.67 932.875 1579.55 z"/>
</svg>