<svg version="1.1" xmlns="http://www.w3.org/2000/svg" style="display: block;" viewBox="0 0 2048 2048" width="1024" height="1024" preserveAspectRatio="none">
<defs>
	<linearGradient id="Gradient1" gradientUnits="userSpaceOnUse" x1="1371.4" y1="1481.07" x2="1228.47" y2="1463.89">
		<stop class="stop0" offset="0" stop-opacity="1" stop-color="rgb(44,30,24)"/>
		<stop class="stop1" offset="1" stop-opacity="1" stop-color="rgb(73,54,50)"/>
	</linearGradient>
</defs>
<path transform="translate(0,0)" fill="rgb(0,0,0)" d="M 1007.99 222.411 C 1015.98 221.137 1048.01 221.882 1057.36 222.362 C 1100.28 224.563 1137.83 231.19 1177.08 248.746 C 1222.31 268.977 1217.45 298.515 1257.12 323.283 C 1273.93 333.781 1290.14 341.075 1307.96 349.378 C 1333.98 361.266 1359.9 373.359 1385.73 385.657 C 1396.6 390.939 1416.91 399.759 1424.44 408.039 C 1419.13 482.373 1413.26 553.681 1427.87 627.765 C 1435.47 666.329 1444.13 701.637 1461.4 737.195 C 1466.53 748.86 1476.65 759.637 1474.93 773.091 C 1464.07 858.003 1449.63 940.534 1424.16 1022.3 C 1400.85 1097.15 1361.73 1164.83 1362.12 1244.57 C 1362.36 1292.45 1374.49 1327.35 1387.23 1372.78 C 1399.84 1421.63 1413.79 1500 1408.64 1549.49 C 1401.91 1557.04 1394.75 1561.41 1385.38 1565.16 C 1309.34 1595.35 1232.36 1641.85 1173.86 1699.46 C 1118.86 1753.63 1137.95 1754.37 1059.06 1760.39 C 1033.32 1762.21 974.079 1760.58 950.743 1750.62 C 941.709 1746.76 910.521 1710.01 899.895 1699.55 C 855.042 1656.04 803.728 1619.74 747.773 1591.93 C 719.876 1578.12 694.712 1568.62 666.969 1553.3 C 655.302 1509.73 676.574 1413.24 687.113 1369.35 C 692.97 1344.95 702.707 1316.9 706.923 1291.53 C 710.452 1269.21 711.375 1246.56 709.672 1224.03 C 704.669 1160.43 677.205 1104.61 656.313 1045.39 C 631.334 974.581 616.188 902.354 604.374 828.373 C 601.402 809.76 596.641 789.792 596.444 770.952 C 596.403 767.094 597.048 763.764 598.365 760.136 C 601.877 750.464 607.771 741.34 612.261 732.068 C 619.105 717.939 624.467 702.633 629.004 687.629 C 654.483 603.383 655.95 517.203 647.915 430.232 C 647.501 425.743 645.06 409.952 647.773 406.29 C 655.532 395.817 793.766 340.431 822.077 319.229 C 839 306.555 849.212 289.428 862.556 273.569 C 894.338 235.799 961.303 226.231 1007.99 222.411 z"/>
<path transform="translate(0,0)" fill="rgb(75,56,50)" d="M 677.645 540.409 C 729.153 507.357 781.259 478.461 840.664 462.067 C 884.124 484.843 979.513 516.385 1007.74 551.694 C 1010.42 555.038 1012.04 559.399 1013.32 563.449 C 1028.09 610.084 1015.55 746.708 1009.65 798.251 C 1007.29 818.844 1007.75 842.678 998.014 861.44 C 987.004 882.658 962.564 891.88 941.098 898.086 C 894.69 911.505 813.839 928.479 769.243 908.61 C 751.262 906.227 727.764 889.323 713.904 878.201 C 669.719 842.745 656.145 793.558 634.432 744.83 C 638.257 736.728 641.665 728.414 645.14 720.154 C 666.977 666.289 675.448 598.301 677.645 540.409 z"/>
<path transform="translate(0,0)" fill="rgb(50,34,27)" d="M 645.14 720.154 C 670.909 781.994 696.58 837.173 745.663 884.782 C 751.828 890.762 764.75 902.165 769.243 908.61 C 751.262 906.227 727.764 889.323 713.904 878.201 C 669.719 842.745 656.145 793.558 634.432 744.83 C 638.257 736.728 641.665 728.414 645.14 720.154 z"/>
<path transform="translate(0,0)" fill="rgb(75,56,50)" d="M 1233.36 462.164 C 1287.81 476.428 1347.58 509.202 1394.06 540.024 C 1396.64 594.007 1403.19 652.243 1420.66 703.653 C 1425.95 718.671 1431.07 730.348 1437.98 744.722 C 1414.73 808.083 1388.23 871.786 1322.49 902.46 C 1306.9 909.735 1291.31 914.593 1274.1 915.831 C 1224.87 919.722 1171.49 912.746 1124.87 896.295 C 1103.37 888.705 1084.16 878.837 1074.09 857.246 C 1056.64 819.836 1045.66 600.158 1060.3 561.642 C 1063.6 552.941 1069.05 546.835 1076.02 540.916 C 1111.06 511.155 1188.73 482.033 1233.36 462.164 z"/>
<path transform="translate(0,0)" fill="rgb(50,34,27)" d="M 1420.66 703.653 C 1425.95 718.671 1431.07 730.348 1437.98 744.722 C 1414.73 808.083 1388.23 871.786 1322.49 902.46 C 1306.9 909.735 1291.31 914.593 1274.1 915.831 C 1274.79 915.483 1275.52 915.153 1276.11 914.635 C 1330.41 866.862 1372.84 807.28 1404.46 742.45 C 1409.64 731.825 1419.12 715.11 1420.66 703.653 z"/>
<path transform="translate(0,0)" fill="rgb(50,34,27)" d="M 1028.51 1304.41 C 1078.64 1300.64 1152.32 1327.49 1197.73 1346.65 C 1195.65 1381.8 1191.68 1416.02 1189.71 1451.08 C 1187.6 1488.4 1187.06 1526.03 1185.68 1563.45 C 1184.76 1588.11 1182.6 1612.58 1181.75 1636.97 C 1169.75 1649.24 1153.87 1661.54 1141.63 1673.94 C 1128.75 1686.98 1116.45 1700.83 1104.01 1714.33 C 1086.93 1718.3 1064.51 1719.51 1046.85 1720.87 C 1018.28 1721.27 998.826 1718.47 970.891 1714.71 C 967.038 1711.47 962.87 1706.89 959.503 1703.1 C 938.188 1679.13 915.02 1658.28 891.235 1636.84 C 889.176 1601.56 886.18 1567.05 885.671 1531.56 C 884.785 1469.7 879.153 1407.76 874.281 1346.08 C 926.314 1324.57 971.837 1308.46 1028.51 1304.41 z"/>
<path transform="translate(0,0)" fill="rgb(75,56,50)" d="M 641.275 879.377 C 650.112 896.227 667.093 922.816 680.38 935.387 C 686.97 941.624 699.037 950.607 706.622 957.234 C 727.595 969.564 749.339 979.957 773.212 984.279 C 844.265 997.144 920.824 970.892 979.627 931.557 C 1001.04 917.233 1026.6 884.561 1054.41 902.412 C 1067.86 911.069 1079.52 922.275 1092.69 931.312 C 1154.29 971.829 1234.04 999.647 1307.81 982.061 C 1322.6 978.533 1347.65 968.98 1360.75 961.065 C 1395.82 933.715 1409.12 922.638 1430.65 882.397 C 1426.7 906.633 1421.3 930.61 1414.47 954.195 C 1406.17 982.886 1350.14 1145.18 1337.87 1154.49 C 1333.91 1157.5 1326.97 1156.06 1322.68 1154.78 C 1313.62 1152.06 1305.72 1147.14 1298.76 1140.81 C 1274.86 1121.56 1252.28 1099.1 1229.89 1078.08 C 1111.53 966.919 951.823 971.208 836.056 1084.04 C 816.758 1102.85 794.237 1124.27 773.377 1141.43 C 768.254 1145.99 760.762 1150.13 754.414 1152.77 C 749.319 1154.89 740.846 1157.8 735.531 1154.69 C 724.68 1148.34 671.712 996.82 664.736 973.206 C 655.565 942.283 647.737 910.977 641.275 879.377 z"/>
<path transform="translate(0,0)" fill="rgb(50,34,27)" d="M 641.275 879.377 C 650.112 896.227 667.093 922.816 680.38 935.387 C 686.97 941.624 699.037 950.607 706.622 957.234 C 707.408 998.948 750.196 1107.48 773.377 1141.43 C 768.254 1145.99 760.762 1150.13 754.414 1152.77 C 749.319 1154.89 740.846 1157.8 735.531 1154.69 C 724.68 1148.34 671.712 996.82 664.736 973.206 C 655.565 942.283 647.737 910.977 641.275 879.377 z"/>
<path transform="translate(0,0)" fill="rgb(50,34,27)" d="M 1360.75 961.065 C 1395.82 933.715 1409.12 922.638 1430.65 882.397 C 1426.7 906.633 1421.3 930.61 1414.47 954.195 C 1406.17 982.886 1350.14 1145.18 1337.87 1154.49 C 1333.91 1157.5 1326.97 1156.06 1322.68 1154.78 C 1313.62 1152.06 1305.72 1147.14 1298.76 1140.81 C 1298.95 1140.63 1299.16 1140.47 1299.35 1140.28 C 1318.27 1120.95 1363.84 1003.81 1364.4 975.661 C 1364.51 970.202 1364.78 965.218 1360.75 961.065 z"/>
<path transform="translate(0,0)" fill="rgb(50,34,27)" d="M 890.4 1095.02 C 981.397 1023.96 1087.98 1020.41 1180.02 1093.28 C 1209.79 1111.59 1219.87 1132.11 1237.15 1159.56 C 1228.7 1182.03 1223.75 1196.27 1217.54 1219.31 C 1212.99 1242.4 1207.79 1275.39 1204.6 1298.8 C 1040.42 1233.98 1037.76 1224.62 872.094 1296.65 L 867.372 1298.73 C 865.401 1282.85 858.583 1254.39 858.123 1240.2 C 850.244 1208.02 845.066 1190.59 835.169 1158.91 C 853.692 1129.38 860.819 1115.53 890.4 1095.02 z"/>
<path transform="translate(0,0)" fill="rgb(75,56,50)" d="M 835.169 1158.91 C 853.692 1129.38 860.819 1115.53 890.4 1095.02 C 890.134 1104.07 860.879 1236.14 858.123 1240.2 C 850.244 1208.02 845.066 1190.59 835.169 1158.91 z"/>
<path transform="translate(0,0)" fill="rgb(75,56,50)" d="M 1180.02 1093.28 C 1209.79 1111.59 1219.87 1132.11 1237.15 1159.56 C 1228.7 1182.03 1223.75 1196.27 1217.54 1219.31 C 1212.09 1212.67 1180.24 1104.57 1180.02 1093.28 z"/>
<path transform="translate(0,0)" fill="rgb(50,34,27)" d="M 844.638 328.106 C 864.316 377.213 887.844 391.243 933.815 414.543 C 930.449 408.578 926.702 403.944 931.08 397.765 C 943.214 391.859 962.594 405.235 974.555 403.367 C 960.775 396.73 951.016 393.407 936.454 385.655 C 937.833 379.445 939.638 375.003 943.032 369.67 C 1011.49 400.249 1065.04 400.179 1132.91 368.079 C 1135.86 372.841 1137.8 379.191 1139.74 384.555 C 1123.46 393.46 1115.62 397.315 1097.9 403.63 C 1114.74 406.128 1123.67 391.915 1124.74 418.91 C 1127.03 418.077 1129.74 417.227 1132.07 416.447 C 1180.61 400.205 1207.84 373.742 1230.09 328.728 C 1237.37 335.478 1243.5 340.415 1251.72 345.882 C 1251.15 349.133 1250.34 353.002 1249.39 356.163 C 1227.54 428.958 1157.11 453.551 1097.7 487.982 C 1075.54 500.824 1057.93 518.028 1036.07 530.526 C 1015.86 519.548 1000.52 504.69 981.601 492.912 C 914.19 450.939 841.681 431.883 821.279 345.345 C 831.639 339.466 836.022 336.272 844.638 328.106 z"/>
<path transform="translate(0,0)" fill="rgb(75,56,50)" d="M 1132.91 368.079 C 1135.86 372.841 1137.8 379.191 1139.74 384.555 C 1123.46 393.46 1115.62 397.315 1097.9 403.63 C 1066.58 409.295 1041.71 411.439 1009.79 408.737 C 1001.08 407.999 981.643 403.195 974.555 403.367 C 960.775 396.73 951.016 393.407 936.454 385.655 C 937.833 379.445 939.638 375.003 943.032 369.67 C 1011.49 400.249 1065.04 400.179 1132.91 368.079 z"/>
<path transform="translate(0,0)" fill="url(#Gradient1)" d="M 1330.41 1323.9 C 1330.94 1324.06 1331.06 1324.06 1331.62 1324.54 C 1337.62 1329.77 1357.19 1422.29 1359.72 1436.03 C 1362.61 1451.72 1365 1467.82 1366.8 1483.68 C 1368.43 1498.04 1368.35 1512.94 1368.89 1527.39 C 1319.6 1548.97 1280.18 1567.39 1235.03 1598.09 C 1225.93 1604.37 1219.24 1609.52 1210.65 1616.41 C 1211.07 1598.34 1213.78 1579.33 1215.86 1561.34 C 1227.16 1463.74 1236.25 1376.34 1330.41 1323.9 z"/>
<path transform="translate(0,0)" fill="rgb(50,34,27)" d="M 704.782 1527 C 704.57 1461.92 718.526 1400.16 736.907 1338.02 C 737.877 1334.74 737.728 1334.39 739.944 1333.2 L 742.398 1334.54 C 826.739 1374.56 835.668 1517.92 839.538 1599.35 C 824.77 1589.03 811.478 1580.85 795.968 1571.61 C 765.94 1555.74 735.221 1542.08 704.782 1527 z"/>
<path transform="translate(0,0)" fill="rgb(75,56,50)" d="M 742.398 1334.54 C 826.739 1374.56 835.668 1517.92 839.538 1599.35 C 824.77 1589.03 811.478 1580.85 795.968 1571.61 C 796.097 1500.25 800.853 1410.7 754.738 1351.09 C 751.396 1346.77 742.682 1339.67 742.398 1334.54 z"/>
<path transform="translate(0,0)" fill="rgb(50,34,27)" d="M 793.847 361.03 C 799.265 368.3 805.783 384.807 810.858 393.406 C 821.614 411.635 834.467 425.591 848.905 440.634 C 811.109 443.794 742.048 477.168 709.45 497.583 C 698.197 504.075 688.986 509.632 678.188 516.836 C 677.896 490.919 674.597 442.387 670.723 417.136 C 710.048 401.251 755.233 379.522 793.847 361.03 z"/>
<path transform="translate(0,0)" fill="rgb(50,34,27)" d="M 1278.22 360.74 C 1287.44 366.043 1299.11 370.383 1308.63 375.145 C 1337.55 389.606 1372.06 401.936 1400.27 416.838 C 1396.16 439.466 1393.99 492.688 1393.67 516.176 C 1384.61 509.917 1374.41 503.754 1365.03 497.849 C 1326.72 474.028 1270.03 448.157 1226 439.811 C 1246.57 415.101 1267.11 392.222 1278.22 360.74 z"/>
<path transform="translate(0,0)" fill="rgb(50,34,27)" d="M 878.514 281.681 C 886.742 328.792 901.221 346.089 943.032 369.67 C 939.638 375.003 937.833 379.445 936.454 385.655 C 934.618 384.734 932.802 383.773 931.006 382.774 C 894.644 362.671 877.084 345.001 865.55 304.955 C 868.285 297.592 874.302 288.475 878.514 281.681 z"/>
<path transform="translate(0,0)" fill="rgb(50,34,27)" d="M 1132.91 368.079 C 1166.81 348.379 1193.4 322.226 1194.2 280.825 C 1200.35 289.706 1203.92 295.242 1208.62 304.98 C 1203.59 330.209 1180.1 360.037 1158.63 373.446 C 1155.13 375.634 1143.4 383.168 1139.74 384.555 C 1137.8 379.191 1135.86 372.841 1132.91 368.079 z"/>
</svg>