<svg version="1.1" xmlns="http://www.w3.org/2000/svg" style="display: block;" viewBox="0 0 2048 2048" width="1024" height="1024" preserveAspectRatio="none">
<defs>
	<linearGradient id="Gradient1" gradientUnits="userSpaceOnUse" x1="392.171" y1="627.354" x2="389.421" y2="630.885">
		<stop class="stop0" offset="0" stop-opacity="0" stop-color="rgb(255,254,254)"/>
		<stop class="stop1" offset="1" stop-opacity="0.0745098" stop-color="rgb(239,237,236)"/>
	</linearGradient>
	<linearGradient id="Gradient2" gradientUnits="userSpaceOnUse" x1="447.034" y1="1622.93" x2="1475.97" y2="400.558">
		<stop class="stop0" offset="0" stop-opacity="1" stop-color="rgb(54,34,26)"/>
		<stop class="stop1" offset="1" stop-opacity="1" stop-color="rgb(38,45,47)"/>
	</linearGradient>
</defs>
<path transform="translate(0,0)" fill="url(#Gradient2)" d="M 1315.22 378.965 C 1321.28 381.35 1329.72 387.607 1335.43 387.892 C 1346.28 388.529 1342.45 367.708 1349.5 364.196 C 1360.59 358.68 1369.86 361.963 1375.94 372.113 C 1377.19 373.851 1379.35 376.076 1381.68 375.935 C 1396.39 375.038 1388.74 357.989 1405.76 360.538 C 1412.52 361.252 1414.01 361.757 1420.34 363.885 C 1422.9 370.92 1423.78 379.396 1429.71 382.299 C 1439.08 382.43 1442.11 370.787 1457.66 375.893 C 1478 382.569 1458.77 399.993 1473.44 405.65 C 1474.5 406.057 1486.85 401.718 1489.45 400.9 C 1504.56 410.211 1508.89 415.445 1498.88 430.872 C 1501.16 436.074 1502.27 437.696 1505.52 442.411 C 1515.08 442.165 1530.4 441.155 1530.45 455.568 C 1530.47 462.029 1525.65 465.942 1521.73 470.743 C 1523.44 488.304 1525.14 485.312 1541.04 489.575 C 1545.13 508.408 1543.25 505.044 1528.64 514.752 C 1526.19 531.764 1527.84 531.054 1542.22 539.978 C 1541.08 546.344 1540.48 550.173 1538.42 556.309 C 1532.57 557.536 1526.14 558.552 1520.83 561.158 C 1512.32 586.761 1534.99 578.602 1520.01 602.997 L 1502.65 602.538 C 1492.55 614.059 1496.79 617.176 1500.51 630.877 C 1497.06 634.576 1493.14 638.552 1490.07 642.517 C 1487.75 641.799 1483.37 640.574 1481.28 639.74 C 1475.46 637.321 1468.37 635.171 1463.15 640.559 C 1461.93 648.577 1470.76 652.282 1476.29 656.849 C 1545.71 714.126 1608.03 783.407 1651.72 862.461 C 1689.58 930.967 1708.73 1002.55 1716.18 1080.25 C 1722.62 1136.67 1717.94 1216.64 1763.36 1258.08 C 1782.13 1275.21 1794.65 1267.77 1792.19 1304.05 C 1791.7 1311.34 1794.44 1320.12 1785.04 1324.24 C 1776.18 1328.12 1771.13 1327.25 1762.53 1324.17 C 1749.36 1332 1732.69 1333.12 1722.12 1319.3 C 1716.06 1311.39 1717.3 1304.66 1718.92 1295.48 C 1701.12 1285.89 1671.12 1273.43 1651.27 1263.97 C 1593.13 1236.02 1534.82 1208.41 1476.35 1181.14 L 1268.61 1081.78 C 1235.45 1066.01 1196.88 1046.75 1163.33 1032.45 C 1156.95 1051.85 1145.91 1040.07 1142.78 1051.1 C 1143.58 1056.23 1145.26 1058.19 1147.98 1062.59 C 1144.08 1069.32 1140.93 1072.79 1135.29 1077.83 C 1130.26 1076.83 1125.92 1075.12 1121.72 1077.73 C 1119.16 1081.45 1118.98 1089.41 1118.37 1094.46 C 1106.06 1105.76 1103.43 1104.65 1089.36 1097.39 C 1088.35 1101.43 1087.77 1107.31 1084.43 1109.84 C 1074.32 1117.48 1063.32 1114.02 1056.06 1104.75 C 1050.26 1112.25 1044.78 1119.37 1038.78 1126.76 C 1038.82 1129.72 1038.72 1132.68 1038.47 1135.63 C 1036.32 1163.15 1019.47 1170.95 1010.79 1193.87 C 1000.31 1221.52 992.06 1251.08 982.235 1279.15 C 964.238 1330.57 941.262 1381.68 911.612 1427.49 C 902.984 1440.83 891.488 1458.15 879.622 1468.68 C 874.173 1473.32 865.899 1476.92 858.71 1475.19 C 824.795 1467.04 822.417 1434.86 844.3 1412.39 C 854.695 1401.56 863.998 1391.25 872.245 1378.69 C 886.518 1356.95 896.081 1334.12 904.615 1309.63 C 919.892 1265.78 930.995 1220.96 941.059 1175.64 C 925.095 1183.63 905.432 1197.2 895.344 1212.24 C 880.368 1234.56 887.935 1255.44 876.2 1279.24 C 864.45 1303.07 846.588 1324.36 833.694 1347.37 C 816.117 1377.52 804.481 1410.72 790.421 1442.46 C 770.769 1486.83 756.811 1492.37 714.673 1472.86 C 706.438 1511.33 701.522 1548.34 692.096 1587.07 C 700.966 1591.01 710.676 1595.18 719.173 1599.28 C 747.136 1612.81 726.786 1662.01 704.599 1671.2 C 691.8 1676.51 668.328 1663.59 655.994 1658.35 C 643.202 1673.72 615.225 1694.83 594.781 1696.78 C 589.219 1697.28 583.612 1696.82 578.209 1695.41 C 562.55 1691.3 486.481 1659.99 478.307 1651.7 C 422.529 1595.1 463.906 1450.99 492.165 1388.04 C 523.978 1312.85 600.273 1245.73 648.146 1184.71 C 680.618 1138.31 702.436 1111.26 682.472 1056.93 C 674.653 1035.65 791.907 917.138 807.595 900.673 C 810.959 883.776 811.665 878.086 818.203 862.104 C 788.11 849.046 756.553 832.913 726.571 818.906 L 417.594 672.114 C 386.77 657.77 353.071 640.121 321.954 627.198 C 311.167 642.617 286.128 643.28 273.604 629.459 C 268.038 623.316 268.594 618.612 269.168 610.988 L 266.527 608.881 C 264.291 607.123 261.579 605.166 259.922 602.636 C 253.581 592.958 253.302 575.851 255.215 564.68 C 256.02 559.979 259.763 554.78 264 552.546 C 278.852 544.715 294.801 559.773 309.43 560.919 C 330.297 562.552 352.675 560.943 372.689 555.19 C 410.991 544.179 448.78 528.799 486.073 514.668 C 521.652 501.214 557.733 489.128 594.238 478.438 C 777.937 424.907 1006.27 439.066 1187.88 495.602 C 1190.61 491.993 1193.7 488.863 1196.67 485.665 C 1221.3 459.108 1228.76 455.164 1264.23 453.854 C 1275.98 441.858 1270 436.533 1263.8 423.002 C 1267.89 418.33 1269.64 416.566 1274.39 412.408 C 1281.15 413.356 1287.28 414.676 1294.34 415.549 C 1296.97 413.224 1300.03 409.567 1302.43 406.877 C 1302.27 400.837 1301.42 392.992 1300.92 386.83 C 1306.69 383.02 1308.96 381.825 1315.22 378.965 z M 1433.88 882.52 L 1434.87 899.319 C 1430.59 906.288 1428.63 908.825 1422.94 914.858 C 1415.84 913.084 1406.93 910.102 1400.32 908.787 C 1397.59 911.371 1394.49 914.167 1391.9 916.861 C 1393.07 923.642 1393.59 935.977 1393.38 943.004 C 1373.8 954.62 1373.25 954.677 1358.36 937.666 C 1351.44 939.473 1344.73 940.992 1338.17 943.831 C 1337.16 950.588 1336.14 958.961 1334.47 965.444 C 1326.22 967.135 1320.31 967.217 1311.87 967.115 C 1308.77 960.09 1306.72 954.919 1305.26 947.268 L 1283.17 944.798 C 1279.21 950.315 1274.52 957.307 1269.91 962.065 C 1261.47 960.082 1257.37 958.593 1249.32 955.195 C 1248.64 949.397 1248.25 933.994 1245.12 931.032 C 1242.66 932.968 1242.21 937.036 1241.84 940.062 C 1241.71 941.108 1241.59 942.155 1241.49 943.203 C 1223.33 960.413 1205.92 978.908 1187.36 995.785 C 1182.65 1000.07 1178.62 1005.53 1173.92 1009.34 C 1237.32 1038.07 1300.26 1067.81 1362.71 1098.56 L 1418.44 1125.42 C 1425.42 1128.78 1437.78 1135.25 1444.43 1137.87 L 1572.25 1198.73 C 1615.71 1219.5 1658.28 1240.46 1702.17 1260.36 C 1690.99 1229.05 1686.28 1199.03 1682.71 1166.11 C 1681.39 1153.94 1679.43 1141.54 1677.73 1129.42 C 1659.21 997.344 1567.89 888.123 1468.16 805.868 C 1462.78 801.431 1450.78 790.707 1444.75 789.182 C 1453.2 812.916 1428.62 803.682 1433.43 819.662 C 1442.92 829.909 1457.83 815.855 1455.19 848.285 C 1453.04 874.693 1435.54 856.587 1425.74 868.341 C 1424.79 873.968 1430.43 878.521 1433.88 882.52 z M 938.537 751.494 L 940.938 752.699 C 945.946 749.717 954.162 741.987 956.059 736.118 C 956.49 734.786 955.607 734.01 954.743 732.424 L 953.022 732.215 C 945.079 734.176 937.532 736.343 929.67 738.616 C 932.455 742.745 935.543 747.602 938.537 751.494 z M 1054.32 634.469 C 1035.49 627.298 1024.34 626.963 1004.07 627.538 C 1005.06 632.547 1005.96 637.606 1007.3 642.525 C 1020.46 645.15 1025.19 645.958 1036.11 654.217 C 1039.43 650.767 1042.88 647.263 1046.06 643.706 C 1048.74 640.769 1051.84 637.519 1054.32 634.469 z M 931.209 701.154 L 943.775 697.636 C 947.387 681.472 951.105 672.89 962.033 659.9 C 960.771 656.617 959.081 651.119 956.786 648.801 C 945.822 659.214 925.98 685.073 927.49 700.724 C 929.595 701.904 928.436 701.533 931.209 701.154 z M 741.933 1421.15 L 730.528 1416.34 C 728.767 1421.72 725.318 1430.64 726.984 1436.01 L 728.494 1436.52 C 730.252 1435.11 730.514 1435 732.005 1433.35 C 734.994 1429.58 738.734 1424.58 741.933 1421.15 z M 1441.77 486.697 C 1452.75 485.023 1459.89 483.516 1470.54 480.908 L 1474.41 479.495 C 1476.68 473.333 1469.36 466.56 1466.25 461.279 C 1447 428.597 1411.37 413.593 1374.45 415.936 C 1393.98 472.754 1390.17 460.679 1441.77 486.697 z M 821.604 1257.02 C 799.171 1280.6 777.269 1313.42 763.11 1342.9 C 759.992 1349.4 755.596 1375.58 757.65 1381.35 C 764.741 1362.41 776.379 1342.97 785.136 1325.33 C 791.74 1312.02 821.435 1268.38 821.604 1257.02 z M 1346.21 427.669 C 1337.98 431.549 1333.43 435.554 1326.51 441.267 C 1317.37 450.788 1313.2 455.618 1308.35 468.141 C 1314.81 459.928 1321.1 451.59 1327.24 443.13 C 1334.99 434.993 1342.58 440.657 1351.1 444.852 L 1346.21 427.669 z M 907.701 789.211 C 905.066 785.013 903.284 782.437 901.371 777.81 C 903.284 774.073 906.058 769.821 905.999 765.802 C 902.847 761.279 893.443 763.227 887.768 762.852 C 875.413 742.808 872.017 739.438 890.881 724.226 C 896.663 715.691 880.325 712.538 875.614 706.092 C 870.629 699.272 870.37 688.961 877.316 683.22 C 889.621 679.644 893.158 682.485 899.049 669.447 C 896.065 664.681 885.548 654.587 887.172 649.512 C 893.494 629.749 901.461 633.63 917.37 637.306 C 920.007 633.221 924.256 628.204 927.368 624.299 C 926.547 621.584 925.751 618.861 924.978 616.132 C 924.146 613.153 922.674 608.198 924.831 605.936 C 929.096 601.465 934.032 598.087 939.798 596.529 C 945.365 598.135 949.513 602.21 954.16 605.917 C 959.898 604.42 965.962 601.373 971.443 598.903 C 972.479 593.709 972.544 586.05 974.625 581.2 C 974.53 581.422 978.536 578.802 979.875 577.342 C 842.436 554.048 701.903 545.906 565.017 578.967 C 505.595 593.319 450.403 615.699 390.064 627.478 L 386.004 627.71 L 385.848 628.82 C 388.115 629.987 390.519 631.294 392.822 632.345 L 692.986 775.028 C 738.465 797.232 784.208 818.889 830.206 839.994 C 845.28 820.69 860.805 807.611 886.818 812.471 C 892.098 806.648 903.957 794.776 907.701 789.211 z M 1374.47 741.509 C 1371.81 737.504 1360.07 728.903 1355.57 728.241 C 1355.2 731.331 1354.34 732.75 1356.59 734.883 C 1359.97 738.094 1369.85 740.236 1374.47 741.509 z M 1004.24 591.813 C 1010.62 591.429 1015.84 591.404 1021.98 589.532 L 1022.73 586.568 C 1019.54 583.096 1006.1 582.987 999.754 581.299 L 1004.24 591.813 z M 1408.05 762.488 C 1410.79 774.438 1416.53 775.311 1427.39 774.544 C 1422.44 771.064 1413.55 764.239 1408.05 762.488 z M 978.023 627.042 C 976.335 628.508 974.832 628.913 974.975 630.85 C 975.442 637.175 975.712 646.497 983.08 647.798 L 986.08 645.694 C 985.646 637.636 984.996 636.231 981.75 628.831 C 979.667 627.418 980.46 627.769 978.023 627.042 z M 1479.18 505.855 C 1472.2 509.551 1463.85 512.373 1456.36 515.137 C 1459.65 522.869 1460.83 525.281 1457.28 533.484 C 1450.6 548.912 1435.71 564.877 1427.93 579.241 C 1428.08 588.458 1428.71 602.338 1431.86 611.023 C 1468.19 593.093 1487.16 546.411 1483.19 507.358 L 1481.97 505.796 L 1479.18 505.855 z"/>
<path transform="translate(0,0)" fill="rgb(40,41,42)" d="M 1405.76 360.538 C 1412.52 361.252 1414.01 361.757 1420.34 363.885 C 1422.9 370.92 1423.78 379.396 1429.71 382.299 C 1439.08 382.43 1442.11 370.787 1457.66 375.893 C 1478 382.569 1458.77 399.993 1473.44 405.65 C 1474.5 406.057 1486.85 401.718 1489.45 400.9 C 1504.56 410.211 1508.89 415.445 1498.88 430.872 C 1501.16 436.074 1502.27 437.696 1505.52 442.411 C 1515.08 442.165 1530.4 441.155 1530.45 455.568 C 1530.47 462.029 1525.65 465.942 1521.73 470.743 C 1523.44 488.304 1525.14 485.312 1541.04 489.575 C 1545.13 508.408 1543.25 505.044 1528.64 514.752 C 1526.19 531.764 1527.84 531.054 1542.22 539.978 C 1541.08 546.344 1540.48 550.173 1538.42 556.309 C 1532.57 557.536 1526.14 558.552 1520.83 561.158 C 1512.32 586.761 1534.99 578.602 1520.01 602.997 L 1502.65 602.538 C 1492.55 614.059 1496.79 617.176 1500.51 630.877 C 1497.06 634.576 1493.14 638.552 1490.07 642.517 C 1487.75 641.799 1483.37 640.574 1481.28 639.74 C 1490.92 629.908 1482.75 618.314 1483.4 605.942 C 1485.69 602.845 1487.48 600.738 1490.03 597.838 C 1499.51 596.14 1507.86 598.868 1514.19 592.471 C 1515.33 585.121 1505.44 579.778 1504.15 573.909 C 1500.85 558.787 1515.11 553.567 1527.15 551.97 C 1529.1 551.712 1530.71 547.634 1531.38 546.016 C 1530.54 539.553 1519.97 535.962 1514.56 530.723 C 1514.23 524.817 1514.42 518.787 1514.5 512.86 C 1520.53 509.764 1531.44 504.455 1533.77 498.143 C 1530.8 489.41 1510.03 493.658 1508.34 476.27 C 1506.94 461.837 1523.35 459.853 1520.87 450.037 C 1511.04 442.019 1497.96 456.831 1488.53 438.643 C 1481.39 424.873 1494.71 419.434 1487.88 408.322 C 1480.3 405.643 1477.11 413.318 1469.16 414.587 C 1440.15 400.109 1463.21 382.529 1447.5 380.118 C 1439.59 383.065 1435.11 391.367 1428.55 390.138 C 1422.33 388.974 1415.57 386.491 1411.79 381.102 C 1411.02 373.709 1403.16 363.839 1405.76 360.538 z"/>
<path transform="translate(0,0)" fill="rgb(109,71,56)" d="M 690.607 1128.74 C 698.931 1134.37 708.979 1137.64 718.04 1141.94 C 738.803 1151.78 762.612 1160.17 782.582 1171.36 C 779.201 1178.54 774.653 1188.25 769.434 1194.31 C 755.237 1218.63 733.964 1240.63 716.552 1262.7 C 685.247 1302.37 645.315 1344.64 617.859 1386.54 C 593.495 1423.73 572.906 1481.16 564.128 1524.4 C 557.33 1559.05 555.113 1576.85 554.605 1612.16 C 532.747 1607.58 507.988 1594.94 487.629 1585.36 C 477.672 1580.68 467.838 1574.63 457.273 1571.36 C 458.456 1542.61 460.942 1511.23 467.891 1483.22 C 498.81 1357.96 539.087 1322.26 622.488 1226.46 C 633.771 1213.5 665.527 1178.21 673.3 1163.69 C 679.246 1152.13 685.015 1140.47 690.607 1128.74 z"/>
<path transform="translate(0,0)" fill="rgb(80,49,36)" d="M 467.891 1483.22 C 491.21 1500.6 534.305 1522.32 564.128 1524.4 C 557.33 1559.05 555.113 1576.85 554.605 1612.16 C 532.747 1607.58 507.988 1594.94 487.629 1585.36 C 477.672 1580.68 467.838 1574.63 457.273 1571.36 C 458.456 1542.61 460.942 1511.23 467.891 1483.22 z"/>
<path transform="translate(0,0)" fill="rgb(80,49,36)" d="M 690.607 1128.74 C 698.931 1134.37 708.979 1137.64 718.04 1141.94 C 738.803 1151.78 762.612 1160.17 782.582 1171.36 C 779.201 1178.54 774.653 1188.25 769.434 1194.31 C 758.63 1186.84 736.983 1179.78 724.568 1173.7 C 707.997 1165.59 691.823 1159.96 673.3 1163.69 C 679.246 1152.13 685.015 1140.47 690.607 1128.74 z"/>
<path transform="translate(0,0)" fill="rgb(76,80,81)" d="M 1331.03 567.593 C 1344.66 569.467 1431.22 630.976 1445.33 641.619 C 1582.48 745.028 1691.97 891.381 1707.55 1066.87 C 1713.25 1130.99 1711.74 1215.83 1758.91 1264.48 C 1764.35 1270.1 1782.39 1273.97 1781.71 1284.75 C 1777.62 1290.33 1773.27 1289.62 1767.29 1287.98 C 1696.99 1246.2 1701.22 1158.86 1694.13 1090.53 C 1690.76 1057.36 1684.79 1024.5 1676.27 992.263 C 1637.88 849.81 1539.07 741.13 1421.7 656.342 C 1386.67 631.041 1349.49 610.752 1312.18 589.324 C 1317.7 580.479 1323.65 574.924 1331.03 567.593 z"/>
<path transform="translate(0,0)" fill="rgb(76,80,81)" d="M 821.085 452.465 C 948.981 448.97 1059.37 466.396 1181.54 501.2 C 1176.93 506.823 1165.82 518.506 1160.31 522.991 C 1134.87 515.053 1107.76 506.393 1081.99 499.961 C 919.523 458.244 748.993 459.599 587.215 503.894 C 555.654 512.715 524.476 522.853 493.764 534.283 C 428.538 558.641 357.554 596.006 285.898 577.017 C 277.215 574.716 260.139 573.447 263.375 560.607 C 272.044 551.649 289.813 563.855 298.909 565.469 C 368.599 577.836 458.553 532.167 522.617 508.849 C 618.38 473.957 719.192 454.912 821.085 452.465 z"/>
<path transform="translate(0,0)" fill="rgb(76,80,81)" d="M 952.699 881.108 C 957.726 872.496 965.894 857.676 972.135 850.632 C 989.307 831.253 1007.97 812.591 1025.83 793.843 C 1058.84 758.811 1092.04 723.962 1125.43 689.297 L 1223.33 587.389 C 1248.16 561.345 1272.32 535.325 1298.3 510.355 C 1316.22 493.134 1325.15 500.92 1345.43 509.991 C 1338.26 512.847 1328.65 516.628 1322.93 521.895 C 1306.85 536.704 1291.44 553.451 1276.49 569.435 C 1255.28 592.071 1233.94 614.582 1212.47 636.968 L 1070.54 786.13 C 1035.3 823.348 1002.86 850.82 975.513 894.669 C 967.201 889.38 960.245 888.769 952.699 881.108 z"/>
<path transform="translate(0,0)" fill="rgb(76,80,81)" d="M 873.119 848.774 C 888.318 814.305 931.305 775.823 958.012 747.378 C 1003.46 698.135 1049.66 649.589 1096.6 601.755 C 1121.53 576.131 1146.18 550.24 1170.56 524.086 C 1184.44 509.339 1198.36 493.972 1212.77 479.765 C 1238.03 454.839 1238.62 462.953 1266.17 471.159 C 1242.85 480.16 1226.11 502.899 1209.14 520.886 L 1133.31 601.787 C 1081.48 656.213 1028.05 709.483 977.336 764.955 C 950.862 793.911 913.863 825.615 896.554 860.234 C 886.861 856.279 879.995 856.409 873.119 848.774 z"/>
<path transform="translate(0,0)" fill="rgb(76,80,81)" d="M 1340.44 719.338 C 1343.34 719.869 1348.32 722.58 1351.15 723.959 C 1350.98 728.781 1351.07 733.847 1351.08 738.69 C 1359.05 741.645 1366.96 745.048 1374.82 748.33 C 1380.9 744.923 1386.61 740.872 1392.38 736.947 C 1396.67 739.626 1401.02 742.219 1405.41 744.724 C 1402.93 751.222 1400.74 754.458 1397.08 760.367 C 1412.3 782.954 1411.33 779.968 1436.68 779.845 C 1438.51 782.954 1440.32 787.039 1441.9 790.35 C 1435.52 794.597 1429.95 798.266 1423.94 803.01 L 1427.6 826.045 C 1435.62 827.942 1446.93 829.664 1451.29 837.417 C 1450.85 847.341 1431.23 846.973 1424.37 847.346 C 1420.68 855.391 1417.64 862.121 1414.56 870.451 C 1419.85 875.067 1424.52 878.828 1430.08 883.129 C 1427.49 888.057 1425.24 891.201 1422.09 895.712 C 1416.07 894.12 1406.32 890.099 1399.66 887.912 C 1393.83 891.766 1385.72 900.492 1381 905.678 C 1384.19 911.771 1385.89 916.574 1388.29 923.009 C 1383.29 926.059 1378.26 928.552 1373.05 931.225 C 1367.81 926.665 1362.66 922.003 1357.6 917.244 C 1349.29 919.744 1342.81 922.15 1334.69 925.296 C 1333.82 930.565 1333.28 938.259 1332.74 943.72 C 1325.55 945.536 1322.21 945.926 1314.81 946.685 C 1301.8 923.434 1311.23 925.956 1280.36 924.767 C 1267.79 937.368 1270.32 941.737 1251.6 933.813 C 1252.57 928 1254.03 921.512 1255.21 915.676 C 1250.11 911.614 1243.12 908.365 1237.59 904.809 C 1228.3 898.194 1221.65 905.778 1212.11 907.932 C 1206.6 909.177 1198.75 903.888 1197.63 898.824 C 1209.65 889.997 1221.32 879.823 1232.67 870.088 C 1253.85 896.839 1285.66 902.512 1317.87 901.889 C 1317.01 895.011 1313.32 882.914 1311.29 875.725 L 1327.27 871.638 C 1329.22 876.094 1334.9 898.504 1340.06 897.144 C 1390.15 883.962 1423.45 823.425 1381.24 781.644 C 1372 786.963 1365.16 791.533 1356.46 797.516 C 1352.3 792.724 1351.22 791.586 1346.19 787.604 C 1351.94 782.205 1366.57 775.457 1367.73 768.681 C 1364.86 758.889 1342.13 756.328 1336.36 750.841 L 1341.63 742.414 C 1339.8 732.253 1336.29 728.093 1340.44 719.338 z"/>
<path transform="translate(0,0)" fill="rgb(109,71,56)" d="M 835.782 882.854 C 839.863 882.631 846.948 883.615 849.038 887.441 C 844.488 894.747 835.997 901.537 829.991 907.948 C 817.517 921.266 746.333 994.668 743.541 1003.55 C 742.444 1007.04 743.315 1011.36 745.153 1014.46 C 750.049 1022.7 785.641 1039.56 795.452 1041.47 C 801.356 1042.62 807.988 1042.76 813.438 1039.88 C 827.01 1032.71 853.979 999.144 865.536 986.674 L 901.641 948.388 C 909.704 939.688 918.761 928.152 928.718 921.927 C 934.888 924.009 936.928 924.912 942.651 927.827 C 927.596 942.909 912.756 958.203 898.134 973.705 C 870.95 1004.75 837.503 1035.22 812.523 1068.66 C 805.225 1078.43 798.485 1091.65 792.824 1102.63 C 773.829 1095.34 702.047 1064.69 688.938 1054.75 C 692.38 1044.61 701.772 1028.21 708.902 1020.33 C 749.958 974.988 792.833 926.02 835.782 882.854 z"/>
<path transform="translate(0,0)" fill="rgb(76,80,81)" d="M 1041.1 953.429 C 1052.2 956.567 1070.52 967.453 1081.57 972.535 C 1121.01 990.676 1160.15 1010.9 1199.46 1029.2 L 1495.17 1169.84 C 1570.99 1205.8 1647.2 1240.29 1722.46 1277.73 C 1721.2 1281.38 1720.41 1283.9 1718.67 1287.32 L 1513.34 1190.95 L 1381.3 1126.87 C 1282.63 1080.84 1184.44 1033.78 1086.75 985.695 C 1072.66 978.858 1057.17 973.044 1042.96 966.311 C 1039.1 964.482 1038.32 964.451 1036.86 961.407 C 1038.03 958.114 1039.29 956.361 1041.1 953.429 z"/>
<path transform="translate(0,0)" fill="rgb(76,80,81)" d="M 1032.37 580.738 C 1036.69 581.235 1040.39 581.66 1044.7 582.494 C 1044.99 588.648 1045.41 594.616 1045.13 600.773 C 1053 603.871 1058.88 606.495 1066.5 610.199 C 1072.35 604.446 1076.01 598.02 1084.42 600.962 L 1084.63 602.144 C 1079.42 608.228 1065.76 622.476 1062.11 627.918 C 1039.87 611.33 1018.29 611.26 991.869 613.115 L 992.149 614.702 C 993.578 622.568 1000.68 639.75 998.368 643.695 C 989.857 644.593 985.494 622.554 982.791 615.422 C 975.012 617.57 972.505 618.41 965.183 622.017 C 966.892 630.535 972.843 646.413 971.339 652.597 L 968.754 654.666 C 965.401 653.164 957.883 634.945 953.49 628.57 C 931.164 646.426 917.199 666.558 913.092 695.845 C 912.51 700.003 912.306 705.687 913.577 709.641 C 918.791 712.398 938.254 705.848 944.458 704.075 L 946.326 716.981 C 936.366 719.2 926.44 721.571 916.553 724.094 C 922.11 739.975 927.081 745.233 936.86 758.969 C 930.236 765.581 918.743 777.267 913.097 784.724 C 910.757 782.09 909.117 780.832 908.538 777.388 C 909.172 772.515 912.995 768.298 915.898 763.499 C 912.583 757.714 909.087 752.036 905.414 746.471 C 890.566 749.451 888.937 752.33 879.85 740.277 L 880.725 739.476 C 888.807 732.207 898.055 731.444 896.728 719.92 L 895.415 719.389 C 894.235 722.784 894.849 722.969 892.459 724.448 L 890.881 724.226 C 896.663 715.691 880.325 712.538 875.614 706.092 C 870.629 699.272 870.37 688.961 877.316 683.22 C 875.351 688.212 872.86 693.993 874.377 699.435 L 875.451 698.209 C 878.214 683.647 887.112 687.628 899.237 683.094 C 900.916 676.276 902.449 669.423 903.834 662.54 C 900.546 659.205 885.616 646.356 897.451 641.394 C 902.745 639.174 910.89 641.64 916.541 643.025 C 924.309 637.92 928.096 633.534 933.608 626.179 L 927.68 610.655 C 933.018 606.224 934.549 605.082 940.9 601.867 C 944.855 605.683 949.28 610.143 953.321 613.764 C 971.277 605.368 978.935 606.717 977.726 585.648 L 991.281 581.38 L 999.822 596.978 C 1025.06 597.913 1019.19 599.135 1032.37 580.738 z"/>
<path transform="translate(0,0)" fill="rgb(40,41,42)" d="M 890.881 724.226 C 896.663 715.691 880.325 712.538 875.614 706.092 C 870.629 699.272 870.37 688.961 877.316 683.22 C 875.351 688.212 872.86 693.993 874.377 699.435 L 875.451 698.209 C 879.571 702.572 888.227 704.312 894.306 706.017 C 894.901 709.385 896.46 716.847 896.728 719.92 L 895.415 719.389 C 894.235 722.784 894.849 722.969 892.459 724.448 L 890.881 724.226 z"/>
<path transform="translate(0,0)" fill="rgb(76,80,81)" d="M 315.827 603.482 C 331.491 608.945 357.472 623.302 373.461 630.877 C 412.528 648.914 451.471 667.217 490.287 685.786 L 827.302 846.038 L 821.995 855.314 C 821.411 855.697 821.072 856.112 820.301 855.734 C 766.739 829.461 711.297 804.774 657.538 778.953 C 584.567 743.158 511.295 707.979 437.73 673.421 C 424.871 667.535 316.246 616.499 313.322 612.685 C 313.212 608.494 314.046 607.455 315.827 603.482 z"/>
<path transform="translate(0,0)" fill="rgb(76,80,81)" d="M 930.929 1245.11 C 938.291 1250.22 948.219 1253.94 953.74 1258.79 C 938.052 1311.93 918.813 1372.42 882.088 1415.26 C 874.254 1424.4 866.966 1433.76 859.895 1443.48 C 851.885 1440.13 847.387 1437.64 840.148 1433.05 C 840.262 1432.75 840.376 1432.45 840.49 1432.15 L 841.098 1430.65 C 847.61 1414.35 868.136 1400.09 878.2 1383.61 C 904.79 1340.08 917.332 1293.35 930.929 1245.11 z"/>
<path transform="translate(0,0)" fill="rgb(59,61,62)" d="M 1065.96 905.242 C 1099.79 905.668 1094.59 947.099 1090.04 969.099 C 1087.98 967.953 1079.85 963.441 1079.29 962.167 C 1075.82 953.845 1080.27 941.328 1072.2 934.593 C 1060.64 924.957 1045.2 934.053 1037.63 944.201 C 1026.24 959.49 1017.47 980.247 1019.32 999.604 C 1020 1004.84 1022.3 1012.85 1027.21 1015.85 C 1043.39 1025.75 1056.4 1011.5 1064.77 1000.37 C 1067.21 997.411 1070.2 992.119 1072.28 988.692 C 1076.09 990.871 1078.86 991.766 1082.96 993.28 C 1073.71 1017.59 1044.2 1054.57 1013.65 1036.91 C 1007.68 1033.46 1004.25 1025.62 1002.96 1019 C 995.793 982.064 1026.54 912.156 1065.96 905.242 z"/>
<path transform="translate(0,0)" fill="rgb(76,80,81)" d="M 1335.63 443.597 C 1366.54 459.447 1403.08 475.117 1434.76 490.396 C 1424.94 501.061 1383.07 558.377 1376.73 570.635 C 1377.39 561.621 1377.94 552.6 1378.4 543.573 L 1383.94 534.733 C 1389.31 527.225 1403 510.009 1403.54 501.918 C 1399 495.759 1345.12 471.429 1335.23 468.261 C 1330.22 473.193 1322.19 485.292 1317.84 491.549 C 1307.9 494.478 1303.49 497.3 1294.5 502.403 C 1300.2 488.963 1325.6 454.1 1335.63 443.597 z"/>
<path transform="translate(0,0)" fill="rgb(59,61,62)" d="M 930.929 1245.11 C 940.641 1213.88 946.138 1178.52 955.681 1146.91 C 957.294 1141.57 958.111 1136.98 960.225 1131.61 C 967.854 1135.19 973.92 1138.03 981.808 1140.88 C 975.068 1165.8 970.502 1187.16 965.492 1212.52 C 962.631 1227 956.981 1244.04 953.74 1258.79 C 948.219 1253.94 938.291 1250.22 930.929 1245.11 z"/>
<path transform="translate(0,0)" fill="rgb(76,80,81)" d="M 1316.12 781.831 C 1327.32 782.783 1337.87 787.461 1346.09 795.117 C 1353.52 802.1 1359.77 813.237 1359.49 823.329 C 1358.37 863.077 1301.58 878.158 1273.25 856.785 C 1268.6 853.277 1265.46 849.907 1261.58 845.777 C 1254.56 833.35 1265.23 828.938 1273.61 820.967 C 1273.78 827.249 1274.43 831.709 1277.87 837.18 C 1282.34 844.419 1289.64 849.455 1297.99 851.071 C 1308.46 853.182 1319.33 850.922 1328.09 844.815 C 1353.25 826.919 1337.2 797.434 1308.15 794.337 C 1311.45 789.852 1313.8 786.971 1316.12 781.831 z"/>
<path transform="translate(0,0)" fill="rgb(59,61,62)" d="M 917.103 918.098 C 916.419 924.018 860.604 980.918 851.85 990.417 C 840.222 1003.04 822.39 1026.73 807.375 1034.98 C 799.739 1039.17 766.68 1020.26 758.772 1015.78 C 765.819 1008.79 773.473 1001.51 779.893 994.004 C 779.909 1000.11 780.704 1007.75 781.192 1013.95 C 784.691 1027.97 807.506 1032.14 816.203 1020.99 C 822.816 1012.51 819.732 1000.16 818.352 990.349 C 809.707 978.269 805.12 979.788 791.409 981.427 C 793.364 979.612 795.378 977.86 797.447 976.175 C 821.123 956.801 815.353 985.676 833.159 989.399 C 847.481 992.394 855.189 977.955 864.081 970.38 C 879.452 957.284 900.697 928.177 917.103 918.098 z"/>
<path transform="translate(0,0)" fill="rgb(76,80,81)" d="M 673.661 1586.98 C 683.056 1590.29 696.766 1595.78 705.612 1600.62 C 696.652 1607.26 687.243 1613.94 683.559 1625.21 C 680.902 1631.62 679.013 1640.46 677.313 1647.36 C 665.501 1640.92 658.847 1638.54 645.887 1634.68 C 645.531 1623.12 646.127 1620.94 650.002 1609.96 C 657.249 1597.6 659.989 1592.75 673.661 1586.98 z"/>
<path transform="translate(0,0)" fill="rgb(59,61,62)" d="M 645.887 1634.68 C 645.531 1623.12 646.127 1620.94 650.002 1609.96 C 658.435 1616.14 673.43 1621.35 683.559 1625.21 C 680.902 1631.62 679.013 1640.46 677.313 1647.36 C 665.501 1640.92 658.847 1638.54 645.887 1634.68 z"/>
<path transform="translate(0,0)" fill="rgb(59,61,62)" d="M 1380.76 798.87 C 1392.21 810.395 1396.89 827.473 1391.56 842.943 C 1383.94 865.094 1369.63 877.27 1349.42 887.434 C 1346.53 888.639 1344.36 889.921 1341.53 888.637 C 1344.53 880.689 1360.39 873.235 1363.1 859.31 C 1366.45 842.07 1364.63 827.725 1363.77 810.312 C 1369.04 806.517 1375.3 802.528 1380.76 798.87 z"/>
<path transform="translate(0,0)" fill="rgb(59,61,62)" d="M 1012.83 1115.05 C 1043.31 1114.35 1031.78 1161.85 1006.27 1173.14 C 1004.24 1173.15 1000.28 1173.2 998.453 1172.52 C 993.805 1170.8 990.107 1167.18 988.284 1162.57 C 981.616 1145.26 995.856 1121.39 1012.83 1115.05 z"/>
<path transform="translate(0,0)" fill="rgb(40,41,42)" d="M 1010.33 1123.64 C 1011.95 1123.59 1013.57 1123.67 1015.18 1123.85 C 1023.83 1124.85 1025.85 1133.36 1024.31 1140.65 C 1021.96 1151.78 1017.83 1157.94 1008.65 1164.47 C 994.637 1166.84 992.012 1158.59 994.678 1146.16 C 996.914 1135.74 1001.15 1129.17 1010.33 1123.64 z"/>
<path transform="translate(0,0)" fill="rgb(76,80,81)" d="M 998.781 649.334 C 1006.66 648.6 1026.57 650.79 1030.6 658.064 C 1029.99 661.359 1022.55 667.337 1019.45 670.392 C 1009.96 662.656 998.198 661.452 986.931 666.076 C 978.603 669.44 972.002 676.049 968.646 684.381 C 964.633 694.282 965.664 701.568 969.718 710.875 C 971.479 713.313 973.34 715.609 975.202 717.969 C 971.156 722.151 966.779 727.261 962.854 731.64 C 956.758 724.49 952.067 719.04 950.708 709.252 C 946.3 677.521 969.085 653.902 998.781 649.334 z"/>
<path transform="translate(0,0)" fill="rgb(59,61,62)" d="M 995.03 1007.24 C 988.699 1002.59 974.251 999.983 973.534 992.135 C 971.853 973.748 979.731 946.291 989.021 930.79 C 992.778 933.357 1010.57 940.418 1015.43 941.985 C 1015.55 941.571 1006.96 959.864 1006.39 961.159 C 999.297 977.307 997.337 989.875 995.03 1007.24 z"/>
<path transform="translate(0,0)" fill="rgb(76,80,81)" d="M 830.312 854.044 C 836.749 840.772 864.148 810 880.188 819.241 C 880.245 818.256 859.346 863.46 857.297 868.339 C 855.612 873.13 855.67 875.999 850.853 877.82 C 846.106 876.638 842.524 873.169 838.036 873.544 C 830.38 874.183 822.996 884.178 817.664 889.605 C 819.379 879.256 823.304 862.048 830.312 854.044 z"/>
<path transform="translate(0,0)" fill="rgb(59,61,62)" d="M 830.312 854.044 C 833.1 859.509 850.799 865.59 857.297 868.339 C 855.612 873.13 855.67 875.999 850.853 877.82 C 846.106 876.638 842.524 873.169 838.036 873.544 C 830.38 874.183 822.996 884.178 817.664 889.605 C 819.379 879.256 823.304 862.048 830.312 854.044 z"/>
<path transform="translate(0,0)" fill="rgb(76,80,81)" d="M 1301.88 801.138 C 1313.64 800.593 1328.52 804.055 1332.15 817 C 1333.4 821.449 1332.81 826.216 1330.51 830.224 C 1326.39 837.463 1320 839.893 1312.65 842.184 C 1293.39 843.609 1283.61 839.269 1280.09 819.52 C 1285.68 806.923 1289.14 804.702 1301.88 801.138 z"/>
<path transform="translate(0,0)" fill="rgb(59,61,62)" d="M 870.921 921.826 C 876.416 923.175 886.535 928.915 891.955 931.799 C 883.168 943.033 856.154 969.531 844.887 981.352 C 832.527 985.035 830.723 976.533 825.073 967.838 C 839.63 952.841 855.82 936.14 870.921 921.826 z"/>
<path transform="translate(0,0)" fill="rgb(76,80,81)" d="M 989.021 930.79 C 996.287 918.766 1002.37 910.745 1013.38 901.876 C 1033.34 885.796 1039.8 889.879 1060.11 899.469 C 1037.8 907.82 1027.1 921.634 1015.43 941.985 C 1010.57 940.418 992.778 933.357 989.021 930.79 z"/>
<path transform="translate(0,0)" fill="rgb(59,61,62)" d="M 972.13 1096.28 C 975.533 1094.7 979.573 1084.72 983.498 1081.03 C 990.021 1074.9 1002.69 1052.73 1008.49 1048.38 C 1010.55 1050.06 1010.42 1052.65 1011.18 1055.97 C 1009.96 1060.8 1008.82 1061.66 1007.03 1065.91 C 1010.73 1069.93 1013.41 1073 1017.71 1076.46 L 1030.75 1078.36 C 1019.02 1097.65 1034.83 1098.23 1049.94 1103.05 C 1045.42 1109.46 1043.57 1111.92 1037.26 1117.09 C 1026.56 1100.13 1013.57 1096.26 994.182 1090.26 C 985.437 1092.26 981.016 1093.15 973.485 1098.47 L 972.13 1096.28 z"/>
<path transform="translate(0,0)" fill="rgb(59,61,62)" d="M 1088.7 899.123 C 1092.33 898.949 1093.28 898.925 1096.86 899.293 C 1099.94 901.884 1099.49 903.666 1101.66 908.171 C 1104.85 910.539 1104.67 910.416 1108.62 911.076 C 1128.03 903.224 1113.37 928.009 1131.39 923.435 C 1134.14 924.555 1136.25 925.957 1138.78 927.486 C 1142.57 927.107 1144.89 924.605 1148.4 922.129 C 1147.13 927.361 1147.07 935.57 1142.59 938.148 C 1131.75 944.186 1136.31 956.281 1115.83 946.537 C 1109.62 943.579 1105.73 944.279 1099.35 946.318 C 1099.11 934.016 1097.7 926.22 1093.1 914.777 C 1091.45 910.69 1087.87 903.048 1088.7 899.123 z"/>
<path transform="translate(0,0)" fill="rgb(76,80,81)" d="M 933.513 856.932 C 940.661 860.208 946.081 862.489 952.592 866.86 C 946.866 875.651 942.724 885.49 938.417 895.08 C 936.651 899.084 934.523 906.696 933.145 911.112 C 925.571 906.412 913.037 900.944 904.603 896.608 C 906.033 889.684 906.901 885.095 910.758 879.169 C 917.456 867.412 922.613 863.924 933.513 856.932 z"/>
<path transform="translate(0,0)" fill="rgb(59,61,62)" d="M 910.758 879.169 C 920.319 885.199 929.586 887.503 938.417 895.08 C 936.651 899.084 934.523 906.696 933.145 911.112 C 925.571 906.412 913.037 900.944 904.603 896.608 C 906.033 889.684 906.901 885.095 910.758 879.169 z"/>
<path transform="translate(0,0)" fill="rgb(59,61,62)" d="M 1336.49 477.767 C 1346.82 477.614 1385.07 499.538 1395.76 505.773 L 1380.3 529.563 L 1378.32 532.429 C 1376.34 531.426 1375.83 527.417 1374.56 523.962 C 1368.86 508.432 1340.86 499.671 1325.51 493.562 C 1329.03 488.019 1332.64 483.079 1336.49 477.767 z"/>
<path transform="translate(0,0)" fill="rgb(59,61,62)" d="M 861.517 880.031 C 864.309 869.874 867.246 857.462 873.119 848.774 C 879.995 856.409 886.861 856.279 896.554 860.234 C 887.594 879.091 883.59 896.698 880.883 917.209 C 875.985 915.39 872.556 914.68 867.526 913.553 C 866.557 899.845 865.618 893.105 861.517 880.031 z"/>
<path transform="translate(0,0)" fill="rgb(59,61,62)" d="M 1099.55 1001.8 C 1107.57 1003.73 1120.8 1011.45 1128.51 1015.61 C 1123.07 1027.74 1124.88 1033.57 1112.96 1042.18 C 1108.52 1045.34 1107.39 1045.43 1102.05 1047.08 C 1084.32 1032.57 1087.3 1019.53 1099.55 1001.8 z"/>
<path transform="translate(0,0)" fill="rgb(76,80,81)" d="M 960.225 1131.61 C 965.494 1118.77 972.52 1105.76 985.713 1099.4 C 993.384 1095.7 1006.84 1101.2 1012.82 1106.09 C 1011.47 1107.91 1012.75 1106.62 1010.08 1107.63 C 995.389 1113.16 987.12 1126.71 981.808 1140.88 C 973.92 1138.03 967.854 1135.19 960.225 1131.61 z"/>
<path transform="translate(0,0)" fill="rgb(59,61,62)" d="M 1213.31 783.928 C 1215.19 786.012 1225.3 790.396 1228.12 791.035 C 1224.07 799.271 1215.17 809.995 1219.31 819.011 C 1221.73 824.273 1224.76 826.676 1221.15 832.361 C 1217.95 832.944 1219.51 833.037 1216.31 831.852 L 1216.94 829.395 C 1205.8 821.685 1211.93 818.512 1205.17 812.63 L 1203.78 813.705 L 1203.61 819.429 C 1202.51 820.179 1177.14 827.812 1175.62 827.479 C 1174.45 824.822 1175.38 821.998 1176.24 819.327 C 1179.86 808.069 1202.63 814.572 1205.9 806.511 C 1204.61 805.374 1203.45 804.409 1202.13 803.322 C 1203.05 798.869 1210.2 787.598 1213.31 783.928 z"/>
<path transform="translate(0,0)" fill="rgb(59,61,62)" d="M 952.699 881.108 C 960.245 888.769 967.201 889.38 975.513 894.669 C 969.814 909.382 966.195 914.564 961.531 931.758 L 955.028 922.746 C 949.671 920.541 943.656 918.407 938.185 916.351 C 941.619 905.569 947.206 890.891 952.699 881.108 z"/>
<path transform="translate(0,0)" fill="rgb(40,41,42)" d="M 706.498 1616.05 C 718.08 1615.31 722.708 1619.07 720.704 1631.49 C 719.181 1640.94 712.392 1651.22 704.443 1656.74 C 700.929 1658.48 696.143 1658.06 693.196 1655.4 C 686.042 1643.22 697.516 1624.55 706.498 1616.05 z"/>
<path transform="translate(0,0)" fill="rgb(76,80,81)" d="M 995.728 671.105 C 1001.6 670.985 1010.38 670.314 1013.94 675.779 C 1012.61 678.991 990.444 701.921 986.658 705.991 L 981.643 712.069 C 979.102 708.557 976.272 704.668 975.059 700.459 C 973.464 695.035 974.103 689.198 976.834 684.247 C 980.766 677.214 988.306 673.316 995.728 671.105 z"/>
<path transform="translate(0,0)" fill="rgb(59,61,62)" d="M 1278.03 781.566 L 1281.5 782.671 C 1290.67 793.401 1261.76 823.012 1254.47 832.312 C 1246.51 828.34 1250.59 814.543 1253.2 807.818 C 1258.29 794.684 1265.09 787.209 1278.03 781.566 z"/>
<path transform="translate(0,0)" fill="rgb(59,61,62)" d="M 1048.58 977.478 C 1053.6 979.16 1058.56 981.175 1063.49 983.098 C 1053.29 996.336 1057.4 999.944 1039.78 1007.87 C 1027.77 1008.56 1027.64 1003.36 1026.25 993.211 C 1036.69 986.792 1041.8 987.304 1048.58 977.478 z"/>
<path transform="translate(0,0)" fill="rgb(76,80,81)" d="M 1248.39 527.86 C 1255.54 530.001 1258.13 531.285 1264.85 534.62 C 1256.3 543.114 1247.94 551.789 1239.76 560.64 C 1236.46 563.18 1234.24 565.259 1229.98 564.258 C 1223.33 553.383 1240.54 534.42 1248.39 527.86 z"/>
<path transform="translate(0,0)" fill="rgb(59,61,62)" d="M 1132.41 953.933 C 1141.27 953.729 1144.69 953.957 1152.77 958.676 C 1166.36 966.607 1184.29 985.017 1174.18 1001.51 C 1172.07 1002.19 1173.13 1002.21 1171 1001.35 C 1166.9 986.093 1159.45 973.101 1145.73 964.514 C 1141.64 961.955 1134.44 962.295 1130.74 958.27 L 1132.41 953.933 z"/>
<path transform="translate(0,0)" fill="rgb(59,61,62)" d="M 1172.57 918.8 C 1193.8 920.996 1224.57 947.737 1209.98 967.95 C 1206.52 964.452 1200.48 945.754 1192.09 937.432 C 1183.02 928.432 1175.35 930.216 1169.71 924.281 C 1169.93 921.049 1170.06 921.881 1172.57 918.8 z"/>
<path transform="translate(0,0)" fill="rgb(59,61,62)" d="M 1158.89 930.67 C 1180.33 930.806 1212.94 961.62 1197.46 979.416 C 1195.71 976.85 1194.64 973.461 1193.4 970.617 C 1183.33 947.372 1175.72 945.05 1154.65 936.463 C 1155.11 933.287 1155.96 933.503 1158.89 930.67 z"/>
<path transform="translate(0,0)" fill="rgb(59,61,62)" d="M 1185.44 908.002 C 1191.07 908.161 1194.27 908.444 1199.34 911.221 C 1212.15 918.239 1236.37 941.701 1220.82 956.262 L 1219.83 953.509 C 1209.97 926.419 1203.36 924.153 1180.65 913.594 C 1181.17 911.568 1183.64 909.781 1185.44 908.002 z"/>
<path transform="translate(0,0)" fill="rgb(59,61,62)" d="M 1147.7 941.841 C 1167.77 944.794 1202.97 972.61 1184.65 990.985 C 1182.46 985.046 1181.26 980.601 1178.17 975.037 C 1171.84 963.663 1161.79 953.427 1148.93 949.989 C 1146.11 949.234 1145.86 949.409 1143.34 947.671 C 1143.74 944.999 1145.36 944.262 1147.7 941.841 z"/>
<path transform="translate(0,0)" fill="rgb(76,80,81)" d="M 1129.16 835.789 C 1134.29 831.922 1133.9 830.939 1139.61 830.2 C 1145.54 832.568 1144.91 837.396 1143.65 842.893 C 1141.74 852.812 1133.06 855.464 1124.73 860.016 L 1111.22 851.059 C 1116.01 846.475 1123.75 840.553 1129.16 835.789 z"/>
<path transform="translate(0,0)" fill="rgb(40,41,42)" d="M 1129.16 835.789 C 1134.29 831.922 1133.9 830.939 1139.61 830.2 C 1145.54 832.568 1144.91 837.396 1143.65 842.893 C 1137.49 842.198 1134.62 838.798 1129.16 835.789 z"/>
<path transform="translate(0,0)" fill="rgb(59,61,62)" d="M 1248.2 856.737 C 1252.43 858.258 1266.32 895.566 1302.67 894.993 L 1302.58 895.283 L 1292.75 895.52 C 1273.62 896.212 1249.38 878.558 1235.83 866.546 L 1236.59 865.713 C 1240.91 860.918 1242.8 860.043 1248.2 856.737 z"/>
<path transform="translate(0,0)" fill="rgb(76,80,81)" d="M 279.627 588.714 C 288.656 588.667 306.068 590.858 307.18 602.099 C 305.823 605.715 305.826 605.526 303.095 607.942 C 288.522 613.013 270.319 605.536 279.627 588.714 z"/>
<path transform="translate(0,0)" fill="rgb(59,61,62)" d="M 1123.97 965.775 C 1126.89 965.568 1130.66 965.639 1133.52 966.197 C 1146.01 968.629 1167.16 989.503 1163.44 1003.27 L 1161.11 1004.25 C 1150.76 998.33 1153.15 989.628 1144.43 981.895 C 1137.94 976.14 1126.39 975.372 1120.14 970.055 L 1120.37 968.219 L 1123.97 965.775 z"/>
<path transform="translate(0,0)" fill="rgb(76,80,81)" d="M 1142.99 786.486 C 1148.65 781.333 1152.2 770.482 1160.6 779.607 C 1165.53 784.965 1161.49 793.209 1155.9 796.355 C 1150.44 798.497 1144.69 799.873 1139.03 801.372 L 1126.08 793.08 C 1131.6 790.811 1137.41 788.647 1142.99 786.486 z"/>
<path transform="translate(0,0)" fill="rgb(59,61,62)" d="M 1142.99 786.486 C 1148.65 781.333 1152.2 770.482 1160.6 779.607 C 1165.53 784.965 1161.49 793.209 1155.9 796.355 C 1157.58 793.375 1159.12 793.289 1160.32 790.215 C 1151.63 789.109 1153.88 785.273 1142.99 786.486 z"/>
<path transform="translate(0,0)" fill="rgb(76,80,81)" d="M 1213.31 783.928 C 1221.62 774.026 1237.21 750.149 1246.06 772.796 C 1238.02 779.007 1234.37 782.947 1228.12 791.035 C 1225.3 790.396 1215.19 786.012 1213.31 783.928 z"/>
<path transform="translate(0,0)" fill="rgb(40,41,42)" d="M 1236.53 684.607 C 1254.76 681.2 1255.75 696.96 1246.09 704.386 C 1241.64 706.322 1238.18 708.543 1234.04 711.028 C 1230.99 706.397 1227.76 702.742 1224.22 698.513 C 1227.02 696.515 1228.69 694.624 1231.07 692.188 C 1232.69 688.86 1234.17 687.392 1236.53 684.607 z"/>
<path transform="translate(0,0)" fill="rgb(59,61,62)" d="M 1231.07 692.188 C 1235.04 695.317 1242.77 701.096 1246.09 704.386 C 1241.64 706.322 1238.18 708.543 1234.04 711.028 C 1230.99 706.397 1227.76 702.742 1224.22 698.513 C 1227.02 696.515 1228.69 694.624 1231.07 692.188 z"/>
<path transform="translate(0,0)" fill="rgb(76,80,81)" d="M 1734.16 1277.86 C 1741.67 1280.65 1755.15 1287.85 1754.99 1296.91 C 1753.19 1299.82 1751.19 1300.13 1747.94 1301.39 C 1734.06 1304.36 1717.8 1291.31 1734.16 1277.86 z"/>
<path transform="translate(0,0)" fill="rgb(59,61,62)" d="M 940.175 1144.12 C 939.61 1131.4 939.37 1121.54 947.186 1110.86 C 949.78 1114.9 954.399 1114.95 958.622 1118.52 C 954.375 1126.15 950.086 1142.86 946.885 1152.28 C 943.948 1149.48 942.591 1147.41 940.175 1144.12 z"/>
<path transform="translate(0,0)" fill="rgb(80,49,36)" d="M 749.601 1371.82 C 750.687 1373.57 752.907 1411.29 753.374 1416.84 C 750.393 1418.48 748.367 1417.72 744.373 1417.63 C 731.497 1404.87 743.918 1384.6 749.601 1371.82 z"/>
<path transform="translate(0,0)" fill="rgb(76,80,81)" d="M 794.843 987.109 C 802.559 986.6 806.686 986.321 811.666 992.711 C 812.875 1000.4 807.342 1001.2 801.22 1003.01 C 794.383 1002.84 784.062 1002.69 786.328 992.967 C 789.011 989.432 790.668 989.094 794.843 987.109 z"/>
<path transform="translate(0,0)" fill="rgb(59,61,62)" d="M 1328.79 766.049 C 1338.95 767.012 1343.69 772.406 1353.63 773.848 C 1348.74 777.633 1346.53 779.212 1342.38 783.987 C 1336.72 782.507 1322.95 777.573 1319.62 772.678 L 1320.03 770.601 C 1322.88 767.739 1324.85 767.449 1328.79 766.049 z"/>
<path transform="translate(0,0)" fill="rgb(76,80,81)" d="M 736.871 1437.65 C 740.751 1438.3 759.015 1445.71 761.784 1448.85 C 760.491 1451.64 757.757 1453.26 755.243 1455.22 C 746.207 1459.97 734.657 1452.04 733.128 1442.46 C 732.927 1441.2 735.877 1438.7 736.871 1437.65 z"/>
<path transform="translate(0,0)" fill="rgb(59,61,62)" d="M 281.822 616.571 C 288.514 616.707 309.55 615.206 311.237 622.739 C 309.714 625.894 308.248 626.18 305.073 627.749 C 298.44 629.133 295.738 629.186 289.036 629.062 L 288.052 628.562 C 284.371 626.66 279.999 624.645 278.695 620.588 C 279.813 617.249 278.829 618.562 281.822 616.571 z"/>
<path transform="translate(0,0)" fill="rgb(76,80,81)" d="M 1346.38 380.632 L 1347.81 382.139 C 1348.02 383.614 1348.68 385.718 1347.94 386.71 C 1335.85 402.85 1323.96 393.851 1314.85 387.367 L 1316.77 395.06 C 1314.78 398.655 1313.73 398.129 1309.06 400.34 C 1303.2 411.449 1313.69 409.229 1296.3 422.875 C 1288.5 425.002 1280.31 416.489 1273.11 421.561 C 1268.21 437.212 1288.85 435.045 1268.43 460.597 L 1266.56 460.856 C 1266.53 461.563 1276.97 444.59 1278.22 442.252 C 1265.76 420.245 1269.84 414.222 1294.38 423.051 C 1297.36 419.364 1303.08 414.881 1305.31 411.627 C 1308.34 407.219 1306.13 394.345 1307.32 388.843 C 1307.82 386.532 1308.29 386.686 1310.06 385.577 C 1318.42 386.451 1322.03 390.787 1328.63 395.821 C 1337.14 393.033 1346.4 391.284 1346.38 380.632 z"/>
<path transform="translate(0,0)" fill="rgb(59,61,62)" d="M 1727.06 1306.07 C 1730.62 1307.48 1734.29 1309.02 1738.1 1309.57 C 1743.65 1310.38 1752.62 1307.29 1757.41 1309.89 C 1758.97 1312.64 1758.17 1315.53 1757.83 1318.85 C 1744.25 1323.42 1729.66 1322.58 1727.06 1306.07 z"/>
<path transform="translate(0,0)" fill="rgb(40,41,42)" d="M 1275.33 679.085 C 1276.59 676.02 1276.62 676.181 1278.88 673.698 C 1286.05 671.188 1293.2 673.879 1296.19 681.02 C 1295.58 683.521 1295.65 683.351 1293.93 685.279 C 1289.55 690.562 1286.26 696.367 1278.65 693.145 L 1277.55 682.962 L 1275.33 679.085 z"/>
<path transform="translate(0,0)" fill="rgb(59,61,62)" d="M 1277.55 682.962 C 1281.55 683.739 1284.77 685.3 1288.07 685.629 C 1291 684.975 1291.05 684.74 1293.93 685.279 C 1289.55 690.562 1286.26 696.367 1278.65 693.145 L 1277.55 682.962 z"/>
<path transform="translate(0,0)" fill="rgb(59,61,62)" d="M 1277.55 682.962 C 1281.55 683.739 1284.77 685.3 1288.07 685.629 C 1285.98 691.132 1284.02 688.171 1278.65 693.145 L 1277.55 682.962 z"/>
<path transform="translate(0,0)" fill="rgb(59,61,62)" d="M 1275.33 679.085 C 1279.94 678.998 1281.47 679.102 1284.88 682.352 C 1285.97 683.412 1287.04 684.505 1288.07 685.629 C 1284.77 685.3 1281.55 683.739 1277.55 682.962 L 1275.33 679.085 z"/>
<path transform="translate(0,0)" fill="rgb(76,80,81)" d="M 947.186 1110.86 C 952.888 1100.83 959.959 1093.14 972.13 1096.28 L 973.485 1098.47 C 967.893 1104.08 962.553 1111.65 958.622 1118.52 C 954.399 1114.95 949.78 1114.9 947.186 1110.86 z"/>
<path transform="translate(0,0)" fill="rgb(59,61,62)" d="M 1125.66 888.666 C 1132.22 890.382 1140.54 891.133 1141.66 898.704 C 1140.44 902.707 1138.18 904.356 1135.15 907.405 L 1132.51 908.638 C 1127.9 907.751 1123.8 904.907 1119.64 902.511 C 1121.03 896.669 1122.84 893.855 1125.66 888.666 z"/>
<path transform="translate(0,0)" fill="rgb(59,61,62)" d="M 1217.31 909.005 C 1221.76 909.871 1224.97 911.973 1229 914.126 C 1233.16 921.544 1237.69 929.871 1237.87 938.442 C 1236.17 941.534 1237.33 940.277 1234.03 942.111 C 1227.54 923.893 1224.42 924.33 1212.66 912.472 C 1214.3 911.065 1215.53 910.236 1217.31 909.005 z"/>
<path transform="translate(0,0)" fill="rgb(76,80,81)" d="M 1187.51 728.62 C 1193.29 731.19 1201.16 732.881 1199.57 740.227 C 1196.48 744.213 1194.49 744.958 1190.09 747.507 C 1185.43 746.668 1179.41 744.158 1174.83 742.464 C 1180.92 737.534 1183.21 734.944 1187.51 728.62 z"/>
<path transform="translate(0,0)" fill="rgb(76,80,81)" d="M 1202.8 695.584 C 1210.05 696.182 1214.36 700.458 1220.01 704.944 L 1209.91 712.311 C 1205.33 711.718 1197.11 705.998 1192.85 703.354 C 1195.88 700.798 1199.62 698.05 1202.8 695.584 z"/>
<path transform="translate(0,0)" fill="rgb(76,80,81)" d="M 1153.83 739.686 C 1161.63 740.623 1164.26 742.936 1170.21 747.7 C 1166.7 751.51 1164.98 753.876 1161.99 758.033 C 1159.01 758.649 1150.65 753.219 1147.13 751.31 C 1150.3 746.761 1151.39 744.695 1153.83 739.686 z"/>
<path transform="translate(0,0)" fill="rgb(59,61,62)" d="M 1122.39 796.723 C 1127.94 797.885 1132.7 802.674 1136.98 806.405 C 1135.22 809.797 1133.31 814.242 1131.66 817.786 C 1126.62 814.919 1121.35 811.349 1116.45 808.182 L 1122.39 796.723 z"/>
<path transform="translate(0,0)" fill="rgb(59,61,62)" d="M 1088.88 997.557 C 1092.39 998.283 1091.37 997.361 1093.13 999.456 C 1092.5 1004.69 1087.34 1010.44 1085.78 1015.96 C 1084.5 1020.5 1083.53 1025.63 1081.76 1029.9 L 1080.36 1030.08 L 1071.14 1025.94 C 1077.38 1018.17 1083.87 1006.4 1088.88 997.557 z"/>
<path transform="translate(0,0)" fill="rgb(59,61,62)" d="M 1227.39 750.651 C 1231.32 751.759 1231.6 756.055 1229.81 759.273 C 1226.49 765.243 1222.68 766.757 1216.42 769.036 C 1208.98 758.895 1219.26 755.154 1227.39 750.651 z"/>
<path transform="translate(0,0)" fill="rgb(59,61,62)" d="M 1210.73 838.421 C 1213.17 839.296 1213.33 839.516 1215.61 840.83 C 1216.66 844.931 1215.66 845.485 1214.33 850.281 C 1210.86 853.98 1207.42 857.697 1204 861.435 L 1201.22 862.492 L 1199.74 861.794 C 1199.4 855.847 1207.41 844.413 1210.73 838.421 z"/>
<path transform="translate(0,0)" fill="rgb(59,61,62)" d="M 1245.92 669.775 C 1251.44 670.13 1266.04 674.624 1264.61 681.616 L 1260.37 683.601 L 1258.06 683.694 C 1253.16 681.137 1245.4 677.645 1243 672.645 L 1245.92 669.775 z"/>
<path transform="translate(0,0)" fill="rgb(59,61,62)" d="M 1050.34 941.161 C 1058.64 941.674 1065.93 945.581 1063.04 955.174 L 1061.58 955.262 C 1056.59 952.905 1046.41 950.103 1046.44 944.638 L 1050.34 941.161 z"/>
<path transform="translate(0,0)" fill="rgb(59,61,62)" d="M 1277.43 732.637 L 1278.78 734.121 C 1280.4 744.124 1277.58 751.83 1273.08 760.527 C 1267.58 752.572 1273.76 740.33 1277.43 732.637 z"/>
<path transform="translate(0,0)" fill="rgb(59,61,62)" d="M 1244.52 827.842 C 1245.05 835.354 1239.06 844.527 1231.71 845.328 C 1230.8 843.768 1229.13 841.933 1229.7 840.335 C 1231.48 835.312 1240.04 831.053 1244.52 827.842 z"/>
<path transform="translate(0,0)" fill="rgb(59,61,62)" d="M 1115.01 979.286 C 1125.46 978.039 1130.59 982.02 1137.44 989.253 C 1130.89 988.252 1119.84 983.882 1115.01 979.286 z"/>
<path transform="translate(0,0)" fill="rgb(59,61,62)" d="M 1288.89 664.992 C 1294.69 665.877 1303.7 670.563 1306.45 675.968 C 1297.49 676.3 1293.14 672.667 1288.89 664.992 z"/>
<path transform="translate(0,0)" fill="rgb(59,61,62)" d="M 1415.04 598.694 L 1416.3 599.557 C 1417.82 604.671 1418.05 606.751 1418.64 612.099 L 1417.61 611.561 C 1413.51 609.533 1411.75 609.505 1409.56 606.052 C 1410.09 602.92 1412.66 601.079 1415.04 598.694 z"/>
<path transform="translate(0,0)" fill="rgb(237,242,240)" fill-opacity="0.0196078" d="M 1326.51 441.267 L 1327.24 443.13 C 1321.1 451.59 1314.81 459.928 1308.35 468.141 C 1313.2 455.618 1317.37 450.788 1326.51 441.267 z"/>
<path transform="translate(0,0)" fill="rgb(59,61,62)" d="M 1252.93 763.386 L 1255.39 764.312 C 1256.31 767.592 1256.16 767.764 1256.05 771.05 L 1253.47 772.936 C 1249.71 772.907 1248.06 773.256 1246.88 769.579 C 1248.1 766.076 1249.8 765.466 1252.93 763.386 z"/>
<path transform="translate(0,0)" fill="url(#Gradient1)" d="M 392.822 632.345 C 390.519 631.294 388.115 629.987 385.848 628.82 L 386.004 627.71 L 390.064 627.478 L 393.862 628.872 L 394.356 630.564 L 392.822 632.345 z"/>
</svg>