<svg version="1.1" xmlns="http://www.w3.org/2000/svg" style="display: block;" viewBox="0 0 2048 2048" width="1024" height="1024" preserveAspectRatio="none">
<path transform="translate(0,0)" fill="rgb(140,62,8)" d="M 1035.13 127.194 C 1060.38 123.915 1063.2 144.336 1057.9 164.484 C 1054.51 178.036 1046.62 188.403 1040.97 200.818 C 1024.07 237.959 983.112 285.32 982.027 326.246 C 981.225 356.511 1010.54 386.037 1031.02 404.621 C 1035.91 397.506 1041.51 387.413 1045.92 379.908 C 1060.64 355.138 1073.6 329.619 1062.73 300.583 C 1055.65 281.672 1039.17 262.265 1042.83 240.882 C 1045.24 228.979 1057.91 225.463 1068.25 228.378 C 1095.03 235.932 1113.01 258.184 1126.61 281.139 C 1146.4 314.529 1154.92 353.35 1140.21 390.46 C 1134.98 403.647 1128.44 415.816 1123.1 428.933 C 1117.97 443.693 1113.11 464.723 1109.17 480.063 C 1121.45 485.11 1134.85 492.672 1140.74 505.195 C 1144.17 512.388 1144.54 520.665 1141.77 528.137 C 1134.96 547.024 1112.15 559.357 1095.24 567.615 C 1092.98 602.913 1089.53 634.021 1088.61 670.24 C 1106 675.312 1130.64 686.84 1138.34 704.337 C 1141.68 711.771 1141.83 720.254 1138.73 727.797 C 1130.63 748.056 1104.56 761.121 1085.86 769.466 C 1087.3 780.173 1086.91 797.12 1086.93 808.378 L 1087.08 868.52 C 1102.8 874.971 1120.74 883.286 1129.8 898.371 C 1148.84 930.051 1110.51 952.36 1088.05 964.681 C 1090.33 996.68 1089.96 1037.52 1090.14 1069.56 C 1146.6 1097.03 1138.71 1129.86 1088.79 1158.25 C 1089.61 1192.23 1086.17 1233.21 1085.73 1268.19 C 1144.67 1297.25 1131.91 1330.29 1081.89 1357.98 C 1082.07 1392.34 1081 1426.92 1081.19 1461.42 C 1137.44 1491.54 1131.95 1519.52 1081.47 1551.19 C 1083.54 1613.4 1083.94 1674.96 1090.22 1737.11 C 1092.09 1755.68 1093.23 1780.15 1096.61 1798.24 C 1098.14 1810.65 1100.16 1823.01 1102.65 1835.27 C 1110.21 1872.82 1112.87 1879.41 1083.29 1909.7 C 1072.41 1920.84 1055.37 1918.93 1040.76 1918.09 C 1023.42 1917.08 1003.2 1916.38 986.757 1911 C 978.456 1907.83 954.948 1878.89 955.276 1870.02 C 956.112 1847.38 963.445 1825.06 966.141 1802.02 C 971.775 1753.87 972.717 1706.1 975.121 1657.84 C 961.359 1651.62 947.334 1645.09 939.804 1630.98 C 935.613 1623.22 934.808 1614.06 937.578 1605.68 C 943.196 1588.54 962.249 1577.57 977.196 1569.75 C 978.958 1536.19 976.791 1499.98 978.815 1466.78 C 962.544 1460.52 941.824 1452.24 933.701 1435.94 C 917.395 1403.23 958.014 1383.07 979.904 1372.25 C 979.664 1339.07 980.009 1305.89 980.938 1272.73 C 979.17 1272.17 977.407 1271.6 975.647 1271.01 C 950.009 1262.47 912.8 1242.26 930.794 1209.65 C 940.008 1192.95 967.698 1180.52 984.401 1173.55 C 983.814 1148.85 984.114 1102.48 985.797 1078.66 C 902.886 1056.98 905.072 1006.19 984.041 977.072 C 983.374 972.596 983.187 968.09 982.93 963.575 C 981.339 935.646 980.636 907.663 978.847 879.746 C 955.805 873.67 915.083 857.401 923.47 825.48 C 928.646 805.783 955.54 793.312 972.471 784.408 C 967.722 756.534 965.847 709.807 963.028 680.155 C 948.956 674.785 931.056 667.337 923.153 653.874 C 906.868 626.135 934.355 607.2 953.934 595.298 C 948.31 556.611 944.314 517.165 938.536 477.781 C 908.215 464.803 889.555 440.43 918.158 412.371 C 917.023 410.04 915.92 407.695 914.849 405.334 C 898.991 370.302 891.899 334.914 906.58 298.4 C 923.643 255.962 995.832 144.788 1035.13 127.194 z M 985.23 1047.1 C 985.4 1040.69 986.716 1012.21 983.775 1008.93 C 976.219 1012.88 948.979 1023.78 958.75 1034.43 C 959.563 1035.32 964.164 1038.34 965.514 1039.2 C 972.991 1043.05 977.153 1044.42 985.23 1047.1 z M 967.564 1235.31 C 972.387 1237.29 977.226 1239.24 982.079 1241.14 C 982.673 1229.81 983.213 1219.05 983.32 1207.68 L 981.725 1206.89 C 969.117 1214.09 945.592 1222.96 967.564 1235.31 z M 1101.76 727.827 C 1105.02 724.871 1107.66 723.067 1109.32 719.043 C 1109.19 708.647 1095.86 705.318 1087.33 702.219 L 1086.72 736.703 C 1092.71 733.577 1096.15 731.58 1101.76 727.827 z M 962.948 841.922 C 967.489 844.09 971.539 846.125 976.285 847.849 C 975.827 837.699 975.203 827.557 974.414 817.427 L 973.289 816.842 C 966.092 821.226 958.454 824.571 954.659 831.795 C 954.415 837.83 957.764 839.469 962.948 841.922 z M 968.024 1430.03 L 978.914 1435.34 C 978.939 1430.16 979.845 1408.66 978.001 1405.89 C 971.183 1410.6 959.189 1416.62 962.508 1425.83 C 964.75 1427.76 965.466 1428.42 968.024 1430.03 z M 1090.83 1104.81 C 1090.74 1109.17 1089.8 1119.91 1090.9 1122.98 C 1092.15 1122 1092.75 1121.64 1093.81 1120.46 C 1096.3 1117.01 1097.95 1114.97 1099.76 1111.15 L 1090.83 1104.81 z M 1088.07 931.775 C 1091.64 928.925 1095.43 926.006 1098.89 923.054 C 1101.45 920.124 1103.51 918.556 1103.81 914.781 C 1102.34 909.05 1100.53 908.287 1095.4 905.269 C 1092.88 903.77 1090.27 902.434 1087.58 901.267 C 1087.64 911.438 1087.81 921.607 1088.07 931.775 z M 1081.9 1495.55 C 1081.75 1500.24 1080.71 1509.78 1082.29 1513.35 L 1083.72 1513.64 L 1087.22 1510.46 C 1089.71 1506.74 1089.57 1508.02 1089.91 1504.01 C 1088.41 1500.06 1086.47 1499.23 1083.03 1496.47 L 1081.9 1495.55 z M 1107.37 526.058 C 1109.78 523.401 1111.8 521.886 1112.23 518.428 C 1110.34 514.178 1108.19 513.56 1103.62 511.328 C 1102.63 517.759 1101.66 523.851 1101.05 530.336 L 1107.37 526.058 z"/>
<path transform="translate(0,0)" fill="rgb(251,224,176)" d="M 1014.78 157.187 C 1021.56 149.852 1035.29 134.082 1046.28 140.744 C 1056.33 153.362 1037.39 184.752 1030.69 196.527 L 996.762 255.566 C 969.191 303.666 957.514 333.315 993.891 382.751 C 1003.36 395.619 1013.1 404.33 1025.24 414.755 C 1013.38 449.476 1010.23 486.579 1016.08 522.801 C 1019.23 489.34 1024.61 449.626 1037.87 418.833 C 1050.21 390.179 1073.53 365.364 1077.46 332.916 C 1078.98 320.843 1077.76 308.585 1073.91 297.044 C 1071.96 291.275 1069.32 285.342 1066.02 279.368 C 1061.1 270.445 1046.92 249.926 1057.77 240.491 C 1060.22 238.361 1065.17 239.775 1068.31 240.545 C 1075.89 243.578 1084.97 247.529 1090.22 253.98 C 1115.04 276.678 1134.14 312.074 1135.89 345.92 C 1138.11 388.99 1113.69 418.369 1093.48 453.408 C 1082.39 472.648 1074.11 493.385 1068.84 515.068 C 1082.14 492.161 1084.64 484.062 1101.94 460.872 C 1096.33 487.009 1091.51 513.306 1087.48 539.73 C 1076.64 545.075 1065.61 550.031 1054.41 554.588 L 1045.54 557.901 C 1035.12 562.081 1024.63 566.1 1014.09 569.957 L 1005.27 573.279 C 993.108 577.316 977.128 584.705 965.468 590.027 C 962.062 574.58 962.068 557.928 959.156 542.435 C 952.678 507.984 952.108 465.433 939.263 433.152 C 928.219 405.401 913.07 380.272 910.346 349.968 C 909.124 337.094 910.422 324.106 914.169 311.729 C 925.235 274.869 973.079 206.277 998.558 176.147 C 1003.32 169.097 1008.66 163.065 1014.78 157.187 z"/>
<path transform="translate(0,0)" fill="rgb(229,173,101)" d="M 1068.31 240.545 C 1075.89 243.578 1084.97 247.529 1090.22 253.98 C 1089.79 257.747 1094.56 267.936 1096.43 271.839 C 1111.18 302.74 1116.83 334.252 1105.83 367.594 C 1106.69 325.285 1101.97 301.651 1081.85 262.777 C 1077.77 254.878 1073.2 249.178 1069.3 242.309 L 1068.31 240.545 z"/>
<path transform="translate(0,0)" fill="rgb(229,173,101)" d="M 1014.78 157.187 C 1014.32 163.221 1008.27 175.324 1005.74 181.091 C 993.438 209.104 978.518 235.349 961.773 260.922 C 953.933 272.896 945.616 287.019 942.691 301.15 C 942.316 303.042 942.157 303.199 940.701 304.439 C 932.275 287.575 1004.46 189.215 998.558 176.147 C 1003.32 169.097 1008.66 163.065 1014.78 157.187 z"/>
<path transform="translate(0,0)" fill="rgb(229,173,101)" d="M 1050.16 521.018 C 1051.26 532.246 1052.68 543.441 1054.41 554.588 L 1045.54 557.901 C 1046.11 544.046 1047.42 534.601 1050.16 521.018 z"/>
<path transform="translate(0,0)" fill="rgb(229,173,101)" d="M 1009.51 542.447 C 1011.44 550.835 1012.79 561.295 1014.09 569.957 L 1005.27 573.279 C 1006.39 561.938 1007.18 553.581 1009.51 542.447 z"/>
<path transform="translate(0,0)" fill="rgb(229,173,101)" d="M 937.088 335.582 L 938.107 336.381 C 941.259 343.783 942.143 364.247 947.443 375.113 C 954.583 389.752 962.056 402.322 970.238 416.254 C 989.289 448.691 991.432 503.922 985.753 541.628 L 984.726 542.363 C 982.875 538.018 981.141 520.9 980.43 515.538 C 977.812 495.788 976.725 469.988 971.849 450.851 C 959.447 402.179 933.793 390.147 937.088 335.582 z"/>
<path transform="translate(0,0)" fill="rgb(229,173,101)" d="M 1109.81 381.922 L 1110.56 383.954 C 1108.15 396.411 1089.7 426.75 1082.94 438.492 L 1081.86 437.404 C 1081.4 429.503 1104.3 389.877 1109.81 381.922 z"/>
<path transform="translate(0,0)" fill="rgb(251,224,176)" d="M 1069.95 1558.04 C 1071.48 1581.56 1071.49 1606.8 1072.53 1630.7 C 1074.45 1675.18 1077.52 1719.59 1081.73 1763.91 C 1084.49 1792.5 1087.86 1820.73 1093.73 1848.84 C 1095.2 1855.84 1096.98 1863.7 1097.48 1870.8 C 1073.12 1926.9 1039.55 1903.65 992.32 1902.67 C 985.423 1895.88 980.571 1890.17 974.34 1882.82 C 972.567 1880.37 972.841 1877.54 969.415 1875.62 C 967.237 1872.41 965.471 1869.74 966.133 1865.71 C 967.695 1856.18 969.818 1846.44 971.656 1836.97 C 974.41 1822.91 976.498 1808.73 977.911 1794.48 C 984.478 1731.12 986.116 1660.11 988.102 1596.27 C 992.867 1593.57 998.925 1590.68 1003.9 1588.16 C 1005.83 1586.98 1013 1583.89 1015.43 1582.78 C 1033.5 1574.69 1052.23 1566.72 1069.95 1558.04 z"/>
<path transform="translate(0,0)" fill="rgb(229,173,101)" d="M 1015.43 1582.78 C 1013.58 1648.09 1001.96 1713.8 1014.75 1779 C 1016.49 1787.87 1017.84 1800.73 1025.64 1806.18 C 1034.08 1800.84 1038.65 1769.25 1040.58 1759.15 L 1041.47 1758.71 C 1042.6 1769.99 1037.49 1810.92 1027 1816.37 C 994.635 1813.7 1000.37 1643.06 1002.84 1616.69 C 1003.65 1608.05 1004.14 1596.78 1003.9 1588.16 C 1005.83 1586.98 1013 1583.89 1015.43 1582.78 z"/>
<path transform="translate(0,0)" fill="rgb(161,90,22)" d="M 969.415 1875.62 C 992.047 1867.75 1011.34 1866.6 1033.19 1877.34 C 1036.9 1879.2 1040.57 1881.11 1044.21 1883.09 C 1012.14 1876.08 1005.84 1874.16 974.34 1882.82 C 972.567 1880.37 972.841 1877.54 969.415 1875.62 z"/>
<path transform="translate(0,0)" fill="rgb(229,173,101)" d="M 1033.05 1636.71 C 1042.24 1637.71 1044.89 1647.28 1047.23 1654.66 C 1054.08 1676.2 1077.92 1866.38 1072.76 1874.31 L 1071.38 1874.19 C 1063.94 1865.61 1061.96 1829.58 1060.72 1816.76 C 1057.76 1797.42 1057.33 1649.03 1034.64 1648.78 C 1028.3 1663.08 1027.56 1681.14 1025.61 1696.58 C 1025.16 1700.18 1024.8 1707.81 1023.61 1710.58 C 1020.46 1695.95 1025.07 1650.05 1033.05 1636.71 z"/>
<path transform="translate(0,0)" fill="rgb(229,173,101)" d="M 1031.8 1714.29 L 1034.45 1715.93 C 1040.05 1725.33 1035.58 1744.55 1033.29 1754.83 C 1024.86 1753.7 1030.68 1721.07 1031.8 1714.29 z"/>
<path transform="translate(0,0)" fill="rgb(251,224,176)" d="M 1054.84 585.445 C 1064.2 581.621 1073.97 577.791 1083.2 573.765 C 1080.17 629.906 1074.4 686.54 1075.65 743.153 L 1052.96 752.827 L 1041.09 757.496 C 1023.03 765.084 1001.88 772.725 983.381 780.089 C 977.393 727.565 974.382 673.242 968.72 620.41 C 979.499 614.394 993.486 608.966 1005.04 604.218 C 1007.02 603.202 1012.43 601.347 1014.76 600.472 C 1022.08 597.275 1032.36 593.944 1040.06 591.205 L 1054.84 585.445 z"/>
<path transform="translate(0,0)" fill="rgb(251,224,176)" d="M 1054.84 585.445 C 1064.2 581.621 1073.97 577.791 1083.2 573.765 C 1080.17 629.906 1074.4 686.54 1075.65 743.153 L 1052.96 752.827 L 1041.09 757.496 L 1040.37 635.489 C 1040.34 628.683 1041.65 595.412 1040.06 591.205 L 1054.84 585.445 z"/>
<path transform="translate(0,0)" fill="rgb(229,173,101)" d="M 1040.06 591.205 L 1054.84 585.445 C 1057.54 631.924 1058.33 676.064 1054.06 722.458 C 1053.58 727.628 1051.63 749.35 1052.96 752.827 L 1041.09 757.496 L 1040.37 635.489 C 1040.34 628.683 1041.65 595.412 1040.06 591.205 z"/>
<path transform="translate(0,0)" fill="rgb(229,173,101)" d="M 1005.04 604.218 C 1007.02 603.202 1012.43 601.347 1014.76 600.472 C 1014.92 624.637 1017.34 651.866 1017.03 674.851 C 1011.56 661.925 1009.84 634.875 1007.63 620.426 C 1006.95 615.979 1006.56 608.305 1005.04 604.218 z"/>
<path transform="translate(0,0)" fill="rgb(251,224,176)" d="M 1050.27 785.267 C 1058.25 781.975 1067.26 778.496 1075.04 774.956 C 1074.68 829.257 1075.31 883.561 1076.93 937.839 C 1053.81 949.474 1019.76 962.888 995.033 972.019 C 991.367 918.916 990.643 864.013 985.73 810.91 C 1000.19 803.074 1025.9 794.924 1041.66 788.392 C 1043.92 787.411 1047.83 786.139 1050.27 785.267 z"/>
<path transform="translate(0,0)" fill="rgb(229,173,101)" d="M 1050.27 785.267 C 1050.03 799.274 1049.67 891.558 1047.43 896.914 C 1045.29 888.512 1045.75 875.039 1045 866.156 C 1043.02 842.498 1044.48 811.225 1041.66 788.392 C 1043.92 787.411 1047.83 786.139 1050.27 785.267 z"/>
<path transform="translate(0,0)" fill="rgb(251,224,176)" d="M 1061.05 1172.71 L 1077.93 1165.1 C 1076.01 1217.9 1072.26 1278.95 1071.74 1331.02 C 1064.65 1334.62 1057.3 1338.49 1050.1 1341.78 C 1047.66 1342.98 1045.54 1344.06 1043.02 1345.12 C 1025.96 1352.7 1008.44 1359.41 991.109 1367.16 C 990.023 1315.59 993.482 1252.83 994.847 1200.67 C 1003.16 1196.31 1016.62 1191.32 1025.63 1187.67 L 1035.25 1183.5 L 1050.21 1177.53 L 1061.05 1172.71 z"/>
<path transform="translate(0,0)" fill="rgb(251,224,176)" d="M 1061.05 1172.71 L 1077.93 1165.1 C 1076.01 1217.9 1072.26 1278.95 1071.74 1331.02 C 1064.65 1334.62 1057.3 1338.49 1050.1 1341.78 C 1047.66 1342.98 1045.54 1344.06 1043.02 1345.12 C 1043.03 1286.98 1048.25 1234.3 1050.21 1177.53 L 1061.05 1172.71 z"/>
<path transform="translate(0,0)" fill="rgb(229,173,101)" d="M 1050.21 1177.53 L 1061.05 1172.71 C 1059.58 1229.42 1053.64 1285.38 1050.1 1341.78 C 1047.66 1342.98 1045.54 1344.06 1043.02 1345.12 C 1043.03 1286.98 1048.25 1234.3 1050.21 1177.53 z"/>
<path transform="translate(0,0)" fill="rgb(229,173,101)" d="M 1025.63 1187.67 L 1035.25 1183.5 C 1035.06 1196.69 1034.88 1209.94 1034.69 1223.13 C 1034.64 1226.68 1033.18 1230.2 1033.38 1230.59 L 1034.13 1228.99 L 1033.32 1230.73 C 1028.11 1223.65 1027.44 1197.51 1025.63 1187.67 z"/>
<path transform="translate(0,0)" fill="rgb(251,224,176)" d="M 996.716 1002.3 C 1023.75 992.068 1050.62 981.378 1077.29 970.238 L 1079.37 1130.93 C 1074.4 1134.1 1069 1136.81 1063.78 1139.58 L 1054.5 1144.06 L 1037.03 1151.6 L 1026.92 1155.78 L 995.908 1168.24 C 996.899 1112.94 997.168 1057.62 996.716 1002.3 z"/>
<path transform="translate(0,0)" fill="rgb(229,173,101)" d="M 1046.39 986.544 C 1047.62 997.764 1046.43 1010.26 1045.95 1021.53 C 1044.56 1053.97 1039.34 1086.14 1037.25 1118.44 C 1036.76 1126.01 1035.8 1144.69 1037.03 1151.6 L 1026.92 1155.78 C 1026.74 1113.76 1029.92 1076.84 1036.67 1035.2 C 1039.42 1018.27 1041.2 1003.04 1046.39 986.544 z"/>
<path transform="translate(0,0)" fill="rgb(229,173,101)" d="M 1054.5 1144.06 C 1054.79 1134.02 1050.75 1092.54 1054.86 1087.66 C 1062.57 1093.94 1063.16 1129.3 1063.78 1139.58 L 1054.5 1144.06 z"/>
<path transform="translate(0,0)" fill="rgb(251,224,176)" d="M 1046.85 1375.3 C 1054.62 1371.68 1062.45 1368.18 1070.33 1364.8 L 1069.14 1467.54 C 1069.07 1484.08 1068.57 1508.48 1069.82 1524.58 C 1051.07 1535.16 1038.5 1541.11 1018.71 1549.76 C 1014.99 1551.42 1011.35 1553.08 1007.55 1554.58 L 988.698 1563.25 C 988.901 1508.5 990.89 1453.85 990.995 1399.13 C 1005.58 1391.65 1026.57 1383.19 1041.97 1377.11 L 1046.85 1375.3 z"/>
<path transform="translate(0,0)" fill="rgb(229,173,101)" d="M 1007.55 1554.58 C 1011.96 1533.04 1013.23 1503.36 1016.74 1480.96 C 1018.05 1472.67 1018.15 1461.12 1020.05 1453.21 C 1023.36 1470.86 1019.43 1528.79 1018.71 1549.76 C 1014.99 1551.42 1011.35 1553.08 1007.55 1554.58 z"/>
<path transform="translate(0,0)" fill="rgb(229,173,101)" d="M 1041.97 1377.11 L 1046.85 1375.3 C 1046.88 1383.1 1045.46 1435.01 1043.88 1438.18 C 1041.03 1427.78 1044.65 1384.27 1041.97 1377.11 z"/>
<path transform="translate(0,0)" fill="rgb(236,136,65)" d="M 1088.12 679.177 C 1092.03 680.634 1095.88 682.249 1099.65 684.018 C 1111.06 689.232 1127.35 697.973 1131.59 710.61 C 1149.22 763.09 962.82 791.051 944.743 829.362 C 943.349 832.316 943.453 835.311 944.803 838.281 C 949.747 849.161 967.387 854.926 977.798 859.222 L 978.14 870.659 C 972.563 870.631 964.128 866.233 959.184 863.644 C 948.448 858.022 935.86 851.826 932.302 839.173 C 918.58 790.373 1095.55 764.452 1117.2 724.254 C 1119.09 720.746 1119.69 716.908 1118.3 713.109 C 1114.21 701.934 1098.13 696.201 1088.04 691.678 L 1088.12 679.177 z"/>
<path transform="translate(0,0)" fill="rgb(236,136,65)" d="M 1087.08 878.548 C 1100.51 884.293 1118.72 892.881 1124.6 907.274 C 1146.44 960.739 962.291 987.665 947.326 1025.71 C 946.083 1028.87 946.058 1032.26 947.465 1035.36 C 952.804 1047.14 974.163 1053.18 985.522 1057.28 L 985.245 1069.7 C 974.786 1065.89 964.054 1062.12 954.335 1056.65 C 945.814 1051.84 935.74 1044.4 933.308 1034.43 C 921.883 987.61 1090.74 961.196 1111.28 922.147 C 1113.12 918.641 1113.82 914.874 1112.58 911.046 C 1109.34 901.009 1096.33 895.75 1087.55 891.611 L 1087.08 878.548 z"/>
<path transform="translate(0,0)" fill="rgb(236,136,65)" d="M 1107.79 488.743 C 1110.84 490.391 1113.93 492.04 1116.82 493.956 C 1124.39 498.969 1133.21 506.299 1134.73 515.739 C 1142.72 565.629 967.491 592.554 942.597 630.168 C 940.514 633.315 939.437 636.981 940.516 640.72 C 942.998 649.324 953.698 653.865 960.947 657.645 C 961.534 661.552 961.803 666.17 962.138 670.159 C 955.265 667.313 948.376 664.305 942.168 660.161 C 935.433 655.665 928.195 649.113 926.897 640.678 C 919.682 593.77 1093.59 565.557 1119.04 526.33 C 1121.18 523.034 1122.31 519.349 1121.23 515.465 C 1119.26 508.31 1111.76 504.979 1105.8 501.7 C 1106.58 497.642 1107.17 492.884 1107.79 488.743 z"/>
<path transform="translate(0,0)" fill="rgb(236,136,65)" d="M 1090.77 1080.16 C 1105.73 1087.02 1116.36 1094.94 1121.62 1111.05 C 1119.71 1118.78 1117.19 1124.65 1111.95 1130.75 C 1081.66 1166.07 961.373 1192.96 949.418 1221 C 948.066 1224.17 947.95 1227.36 949.253 1230.56 C 953.804 1241.76 971.622 1247.55 982.058 1252.06 L 981.498 1263.54 C 973.465 1262.3 963.145 1257.01 956.029 1252.86 C 947.465 1247.86 937.972 1240.72 935.668 1230.52 C 925.485 1185.48 1083 1158.07 1105.53 1119.5 C 1107.53 1116.07 1108.41 1112.31 1107.28 1108.44 C 1105.03 1100.73 1097.41 1096.9 1090.95 1093.24 L 1090.77 1080.16 z"/>
<path transform="translate(0,0)" fill="rgb(236,136,65)" d="M 1085.15 1277.74 L 1086.78 1278.61 C 1097.69 1284.53 1111.9 1293.27 1115.17 1306.12 C 1127.42 1354.35 973.465 1379.63 953.272 1416.27 C 951.459 1419.56 950.775 1423.31 952.051 1426.93 C 955.305 1436.17 970.649 1441.92 978.997 1446.03 L 978.966 1457.46 C 972.538 1457.53 960.102 1449.7 954.62 1446.05 C 947.52 1441.33 940.402 1434.48 938.906 1425.7 C 931.355 1381.4 1075.24 1355.68 1099.35 1320.09 C 1101.88 1316.37 1103.22 1312.09 1102.15 1307.62 C 1100.15 1299.19 1091.57 1294.21 1084.83 1289.85 L 1085.15 1277.74 z"/>
<path transform="translate(0,0)" fill="rgb(236,136,65)" d="M 1081.01 1472.09 C 1085.66 1474.14 1089.99 1476.8 1094.15 1479.73 C 1101.78 1485.1 1110.13 1493.03 1111.43 1502.72 C 1117.42 1547.61 986.022 1573.16 961.531 1606.4 C 958.955 1609.9 957.306 1614.02 958.267 1618.41 C 960.119 1626.86 968.921 1631.38 975.685 1635.5 L 974.979 1646.78 C 974.563 1647.23 973.884 1647.31 973.319 1647.53 C 965.873 1643.6 958.693 1639.44 952.686 1633.54 C 948.424 1629.36 943.752 1621 944.772 1615.03 C 950.758 1579.94 1025.6 1559.52 1053.36 1543.56 C 1065.34 1537.42 1080.08 1530.08 1089.73 1520.94 C 1107.07 1504.53 1099.05 1497.75 1084.24 1485.8 C 1079.87 1482.28 1080.74 1477.48 1081.01 1472.09 z"/>
<path transform="translate(0,0)" fill="rgb(236,136,65)" d="M 921.914 421.585 C 924.898 423.423 926.025 426.698 927.646 429.936 C 927.063 434.657 926.528 439.384 926.04 444.116 C 928.149 447.652 931.912 452.219 934.516 455.587 C 935.109 459.563 936.542 463.919 935.002 466.873 L 932.372 466.111 C 913.723 454.611 904.503 439.621 921.914 421.585 z"/>
</svg>