<svg version="1.1" xmlns="http://www.w3.org/2000/svg" style="display: block;" viewBox="0 0 2048 2048" width="1024" height="1024" preserveAspectRatio="none">
<path transform="translate(0,0)" fill="rgb(140,68,37)" d="M 1543.47 720.47 C 1584.08 719.567 1622.26 728.118 1655.85 751.883 C 1694.45 778.734 1720.58 820.026 1728.32 866.406 C 1736.5 912.616 1725.79 960.174 1698.59 998.416 C 1671.4 1036.67 1630.01 1062.44 1583.68 1069.95 C 1539.72 1076.93 1490.01 1066.75 1453.93 1040.29 C 1413.86 1051.09 1372.34 1059.92 1331.88 1069.42 L 1100.51 1123.64 L 813.741 1190.44 C 754.53 1204.27 693.675 1219.55 634.288 1231.86 C 607.345 1280.57 558.652 1309.75 504.246 1316.86 C 466.319 1319.7 430.259 1313.46 397.3 1293.64 C 356.028 1268.9 326.578 1228.45 315.706 1181.58 C 305.264 1136.72 313.117 1089.55 337.53 1050.49 C 362.205 1010.6 401.791 982.215 447.491 971.648 C 493.884 961.319 540.083 970.94 579.906 996.367 C 603.021 989.628 635.612 983.465 660.057 977.801 L 823.849 939.918 L 1230.68 845.208 L 1347.7 818.25 C 1365.62 814.203 1384.64 810.607 1402.28 806.212 C 1408.12 797.155 1413.23 788.38 1420.5 780.332 C 1453.57 743.758 1494.9 724.188 1543.47 720.47 z"/>
<path transform="translate(0,0)" fill="rgb(221,143,99)" d="M 598.946 1010.7 C 632.77 1001.64 674.414 992.867 708.981 984.87 L 904.071 939.766 L 1392.81 826.281 C 1399 834.749 1405.95 847.022 1410.71 856.337 C 1417.21 869.146 1421.39 880.046 1426.6 893.425 C 1436.44 926.103 1440.84 948.056 1442.06 982.553 L 907.882 1106.81 L 750.723 1143.26 C 721.698 1149.93 686.264 1157.09 657.857 1164.83 C 660.061 1127.68 658.421 1111.14 645.635 1075.45 C 638.901 1060.7 634.981 1053.31 625.628 1039.98 C 615.452 1027.29 611.499 1021.51 598.946 1010.7 z"/>
<path transform="translate(0,0)" fill="rgb(248,199,165)" d="M 598.946 1010.7 C 632.77 1001.64 674.414 992.867 708.981 984.87 L 904.071 939.766 L 1392.81 826.281 C 1399 834.749 1405.95 847.022 1410.71 856.337 C 1417.21 869.146 1421.39 880.046 1426.6 893.425 C 1409.26 899.127 1375.53 905.857 1356.6 910.192 L 1230.15 939.434 L 816.081 1035.78 L 699.004 1062.86 C 684.892 1066.14 658.44 1071.09 645.635 1075.45 C 638.901 1060.7 634.981 1053.31 625.628 1039.98 C 615.452 1027.29 611.499 1021.51 598.946 1010.7 z"/>
<path transform="translate(0,0)" fill="rgb(221,143,99)" d="M 598.946 1010.7 C 632.77 1001.64 674.414 992.867 708.981 984.87 L 904.071 939.766 L 1392.81 826.281 C 1399 834.749 1405.95 847.022 1410.71 856.337 C 1392.23 859.659 1371.11 865.062 1352.65 869.366 L 1257.49 891.58 L 960.008 961.344 L 734.501 1013.92 L 664.193 1030.48 C 652.985 1033.12 636.292 1036.56 625.628 1039.98 C 615.452 1027.29 611.499 1021.51 598.946 1010.7 z"/>
<path transform="translate(0,0)" fill="rgb(221,143,99)" d="M 471.33 987.404 C 557.067 979.726 632.812 1042.96 640.567 1128.69 C 648.322 1214.42 585.153 1290.23 499.431 1298.06 C 413.598 1305.9 337.677 1242.63 329.912 1156.79 C 322.147 1070.95 385.483 995.091 471.33 987.404 z"/>
<path transform="translate(0,0)" fill="rgb(140,68,37)" d="M 343.123 1116.67 C 344.636 1118.18 350.769 1135.48 352.438 1139.21 C 363.907 1164.87 376.744 1184.21 398.25 1202.48 C 430.009 1229.16 471.075 1242.11 512.395 1238.49 C 560.261 1234.38 593.635 1212.58 623.926 1176.74 C 621.087 1189.43 618.419 1196.11 612.856 1207.91 C 604.274 1222.9 596.148 1234.43 582.968 1245.92 C 554.202 1270.61 516.774 1282.8 478.986 1279.79 C 439.633 1277.03 403.002 1258.7 377.199 1228.86 C 349.187 1196.1 340.03 1158.9 343.123 1116.67 z"/>
<path transform="translate(0,0)" fill="rgb(248,199,165)" d="M 515.153 1019.2 C 566.591 1015.11 599.773 1080.9 545.919 1096.02 C 492.473 1104.02 457.412 1032.26 515.153 1019.2 z"/>
<path transform="translate(0,0)" fill="rgb(221,143,99)" d="M 1546.15 738.423 C 1577.64 736.276 1611.67 745.661 1638.35 762.209 C 1673.94 783.867 1699.37 818.887 1708.94 859.435 C 1718.62 900.355 1711.6 943.449 1689.42 979.177 C 1667.03 1015.42 1630.95 1041.08 1589.36 1050.34 C 1540.13 1061.15 1499.63 1049.19 1458.38 1022.59 C 1459.08 1014.09 1459.69 1005.58 1460.21 997.071 C 1496.39 1025.38 1529.16 1038.38 1576.03 1033.64 C 1595.26 1031.41 1613.87 1025.48 1630.84 1016.18 C 1665.49 996.992 1687.18 967.248 1697.85 929.565 C 1660.88 971.389 1622.68 994.345 1565.12 993.21 C 1520.99 992.339 1490.96 977.163 1457.96 949.6 C 1449.42 896.247 1440.06 870.655 1413.78 823.59 C 1419.51 812.66 1426.45 802.402 1434.45 793.002 C 1463.36 759.636 1502.42 741.488 1546.15 738.423 z"/>
<path transform="translate(0,0)" fill="rgb(248,199,165)" d="M 1588.03 771.263 C 1599.29 770.641 1610.49 773.395 1620.18 779.172 C 1652.02 797.94 1657.98 841.82 1614.24 849.76 C 1559.5 852.354 1531.09 782.234 1588.03 771.263 z"/>
<path transform="translate(0,0)" fill="rgb(221,143,99)" d="M 1436.77 1012.27 C 1438.09 1012.11 1437.2 1012.16 1439.42 1012.52 C 1440.5 1016.08 1439.14 1021.71 1438.52 1025.63 C 1416.62 1032.2 1380.11 1039.26 1356.59 1044.74 L 1190.4 1083.67 L 650.234 1209.76 L 648.012 1209.66 C 647.835 1206.43 650.802 1198.85 651.925 1195.05 C 761.134 1171.81 875.102 1143.55 984.018 1118.14 L 1436.77 1012.27 z"/>
</svg>