<svg version="1.1" xmlns="http://www.w3.org/2000/svg" style="display: block;" viewBox="0 0 2048 2048" width="1024" height="1024" preserveAspectRatio="none">
<path transform="translate(0,0)" fill="rgb(51,63,67)" d="M 412.255 0 L 419.336 0 L 439.273 0 L 453.89 0 L 475.165 0 L 486.894 0 L 504.602 0 L 511.018 0 C 507.828 15.9846 505.067 23.2643 491.799 33.3078 C 494.316 42.2226 496.571 49.1669 499.739 57.8743 C 528.356 59.6203 540.213 78.3347 548.419 103.266 C 559.556 137.102 569.951 158.535 543.09 188.268 L 552.584 210.956 C 583.667 210.823 595.111 231.944 605.24 257.359 C 616.493 285.597 629.796 311.942 604.36 338.078 C 606.239 344.628 610.77 354.935 613.976 360.974 C 648.538 360.652 658.394 379.89 671.346 407.354 C 683.512 433.151 698.069 460.619 673.108 485.044 L 685.419 508.319 C 697.874 506.655 709.08 507.088 719.577 515.44 C 729.445 523.29 737.107 535.806 743.028 546.767 C 757.725 573.973 774.762 596.687 752.308 626.146 L 764.948 647.976 C 797.35 641.019 811.578 658.267 828.357 682.38 C 844.14 705.061 863.058 730.676 844.158 758.212 C 848.506 764.996 853.771 771.273 858.823 777.566 C 886.781 769.781 903.571 779.593 921.794 800.078 C 941.824 822.595 964.735 842.689 953.008 875.567 C 957.782 879.739 962.041 883.529 966.598 887.937 C 997.444 853.631 1045.29 854.94 1079.51 883.709 L 1091.66 872.769 C 1081.57 832.68 1110.46 811.247 1135.73 785.121 C 1150.05 770.322 1168.18 768.963 1187.36 773.007 C 1191.67 766.57 1196.07 761.09 1200.34 754.911 C 1186.74 735.726 1192.67 712.042 1204.98 693.993 C 1226.68 662.197 1234.3 639.958 1278 641.163 C 1282.43 634.501 1286.94 627.891 1291.54 621.337 C 1271.26 597.006 1281.21 574.544 1294.67 550.447 C 1311.03 521.17 1320.28 501.411 1358.02 502.072 L 1369.09 481.107 C 1348.49 457.028 1356.46 432.819 1368.81 407.638 C 1383.37 377.932 1391.48 357.268 1428.82 355.136 C 1431.59 348.482 1434.58 340.779 1437.83 334.469 C 1412.1 306.515 1424.58 283.564 1436.54 253.346 C 1447.05 226.83 1456.63 207.434 1488.97 206.775 C 1491.86 198.748 1494.46 191.773 1497.84 183.953 C 1465.87 154.559 1485.92 122.208 1496.61 87.445 C 1502.9 66.9733 1520.22 55.1627 1541.28 53.5475 L 1548.07 31.854 C 1537.3 22.5005 1532.12 13.6576 1528.31 0 L 1535.39 0 L 1555.31 0 L 1563.77 0 L 1585.92 0 L 1600.26 0 L 1619.53 0 L 1625.62 0 C 1621.48 23.0663 1604.92 36.9287 1581.94 39.1132 C 1579.56 47.6126 1577.2 54.5392 1574.22 62.8725 C 1575.71 63.9551 1576.78 64.8084 1578.16 66.0516 C 1587.71 74.5306 1593.34 86.5719 1593.73 99.3363 C 1594.24 116.909 1578.14 168.223 1564.49 181.447 C 1554.68 190.955 1544.58 194.258 1531.31 194.142 C 1528.42 202.049 1525.03 209.959 1521.8 217.751 C 1552.23 247.803 1534.5 276.736 1521.23 309.976 C 1512.34 332.237 1496.09 349.694 1470.09 346.279 C 1466.81 354.976 1463.68 361.133 1459.52 369.364 C 1460.76 370.414 1461.97 371.503 1463.14 372.631 C 1487.54 396.547 1465.89 436.31 1454.07 460.21 C 1441.19 486.228 1428.4 496.463 1399.28 495.843 C 1395.65 503.695 1392.9 509.358 1388.6 516.824 C 1405.6 542.506 1403.23 557.881 1389.59 583.926 C 1375.43 610.977 1358.85 648.506 1320.95 637.819 L 1306.76 658.759 C 1328.2 690.752 1316.05 708.199 1296.96 735.907 C 1280.13 760.34 1263.13 787.394 1227.75 775.028 C 1222.32 782.895 1218.8 787.123 1212.44 794.331 C 1232.85 836.935 1200.97 860.285 1173.66 888.495 C 1158.88 903.771 1135.07 909.759 1116.11 897.842 C 1108.44 903.64 1101.57 909.599 1094.29 915.842 C 1097.27 942.121 1093.08 953.055 1080.74 975.444 C 1114.35 977.749 1152.5 985.824 1184.28 996.699 C 1203.97 1004.1 1238.25 1020.78 1238.32 1045.35 C 1238.46 1088.85 1238.32 1131.91 1238.38 1175.32 C 1238.42 1204.9 1209.48 1218.35 1185.83 1228.85 C 1184.63 1269.69 1184.9 1269.08 1216.54 1293.22 C 1231.04 1304.29 1238.71 1326.37 1238.5 1344.49 C 1238.19 1370.96 1238.15 1398.23 1238.18 1425.1 L 1238.32 1625.87 L 1238.79 1718 C 1238.86 1730.17 1240.07 1760.71 1237.63 1770.95 C 1219.86 1845.63 1096.33 1866.32 1032.26 1866.48 C 964.386 1866.1 882.49 1856.57 830.461 1809.1 C 804.221 1785.15 807.128 1757.95 807.108 1726.06 L 807.154 1649.96 L 807.968 1359.93 C 808.013 1331.64 809.418 1309.56 832.768 1290.95 C 863.635 1266.34 861.626 1267.37 860.999 1227.99 C 841.058 1219.87 811.889 1207.44 808.843 1182.21 C 807.676 1172.92 807.797 1163.25 807.935 1153.85 C 808.488 1116.19 806.884 1078.36 808.497 1040.75 C 808.655 1037.05 812.444 1029.62 814.863 1026.94 C 848.872 989.297 918.807 980.775 965.807 975.23 C 955.516 954.432 952.004 941.315 953.137 918.609 C 945.358 912.649 937.445 906.218 929.734 900.114 C 909.373 910.781 886.788 907.641 871.354 890.595 C 846.572 863.225 810.331 840.039 831.237 798.671 C 826.077 792.431 821.061 786.454 816.277 779.903 C 814.821 780.161 813.363 780.407 811.902 780.64 C 771.609 787.06 759.564 756.545 739.425 729.117 C 725.241 709.801 719.499 686.115 735.529 665.694 C 730.913 658.839 726.373 651.057 722.04 643.953 C 719.868 644.159 717.692 644.329 715.514 644.46 C 688.346 646.019 674.964 629.297 663.137 608.071 C 649.153 582.972 627.86 548.486 653.64 522.815 C 649.571 515.04 645.573 507.227 641.647 499.378 C 639.247 499.589 636.843 499.756 634.436 499.877 C 601.502 501.455 591.358 469.748 579.959 446.078 C 567.545 420.298 559.086 397.822 582.072 374.312 C 578.598 366.369 575.299 358.067 571.987 350.032 C 545.98 349.917 532.334 341.205 522.249 316.778 C 510.522 288.374 487.232 246.279 519.265 222.314 C 516.331 214.238 513.191 206.122 510.154 198.074 C 485.682 196.493 469.772 184.685 462.594 160.984 C 452.369 127.218 432.375 93.9163 465.845 65.9407 C 463.331 58.1376 461.114 50.2421 459.197 42.2714 C 430.667 40.6817 420.416 24.8479 412.255 0 z M 1223.51 723.663 C 1242.66 713.414 1251.28 723.469 1253.26 742.209 C 1264.35 726.946 1275.02 711.385 1285.27 695.542 C 1251.81 711.007 1259.34 680.114 1255.9 675.964 C 1249.48 682.256 1227.46 715.467 1223.51 723.663 z M 1454.11 299.052 C 1463.6 289.977 1468.77 288.261 1480.58 295.319 C 1483.72 301.196 1484.47 302.668 1486.41 309.184 C 1494.35 293.368 1501.52 273.691 1507.5 256.92 C 1494.21 266.603 1485.03 268.207 1476.84 251.91 C 1475.91 250.056 1476.01 248.177 1474.57 246.739 C 1466.45 259.348 1457.29 284.739 1454.11 299.052 z M 1149.7 867.566 C 1163.2 853.73 1174.79 842.136 1186.45 826.689 C 1165.2 834.589 1159.02 825.717 1161.21 805.417 L 1160.74 805.091 C 1151.82 812.427 1132.98 833.714 1125.83 843.378 L 1126.01 844.685 C 1145.39 846.152 1149.46 847.016 1147.45 868.301 C 1149.09 868.42 1148.33 868.636 1149.7 867.566 z M 498.481 149.241 L 499.588 148.313 C 510.521 139.306 518.134 139.19 528.238 148.863 C 529.892 143.91 514.333 99.1783 510.096 95.551 C 507.278 115.215 493.912 118.825 479.204 106.521 L 478.205 105.697 C 478.008 105.529 477.811 105.361 477.614 105.193 C 479.651 113.789 492.705 152.374 496.841 160.661 C 497.373 156.9 497.864 152.973 498.481 149.241 z M 699.413 606.219 L 699.722 604.795 C 703.22 589.334 716.518 581.808 729.992 591.995 L 730.861 590.57 L 729.993 589.183 C 719.877 572.809 715.506 559.512 703.206 542.579 L 703.119 543.91 C 701.648 563.683 690.031 567.022 673.394 559.699 C 673.911 565.182 694.783 601.026 699.413 606.219 z M 921.903 849.347 C 915.22 839.692 894.54 816.769 885.185 809.6 C 886.956 828.65 876.564 837.129 858.538 830.361 C 863.848 837.303 888.759 865.372 895.378 870.225 L 896.796 870.059 L 896.71 868.089 C 895.995 849.459 904.86 845.999 921.903 849.347 z M 630.606 397.827 C 623.431 430.985 607.042 412.385 602.394 415.848 C 603.087 421.781 619.013 457.186 622.782 459.948 L 623.38 457.659 C 628.807 441.179 641.374 438.606 654.625 448.786 C 655.404 444.941 634.346 403.55 630.606 397.827 z M 534.187 259.425 C 536.236 265.977 549.892 305.166 553.234 308.553 L 553.876 307.66 C 562.341 292.811 574.496 288.179 587.469 301.588 C 584.36 292.534 572.436 256.295 567.019 249.963 C 560.379 267.35 548.882 273.347 534.187 259.425 z M 1338.56 539.726 C 1330.4 549.791 1316.3 575.965 1311.3 588.012 C 1327.6 578.828 1336.73 584.82 1341.82 602.13 C 1347.67 595.369 1364.94 565.515 1366.45 557.726 C 1360.25 555.991 1349.17 565.631 1341.78 551.69 C 1339.18 546.779 1338.92 545.533 1338.56 539.726 z M 1411.45 394.683 C 1403.35 407.062 1391.29 432.185 1386.52 445.919 C 1402.5 433.547 1420.24 439.416 1416.34 460.311 C 1424.14 452.689 1437.9 418.908 1443.04 407.629 C 1427.53 418.367 1414.12 413.982 1411.45 394.683 z M 1530.31 91.6638 C 1524.33 102.861 1515.5 133.16 1511.59 146.177 C 1527.04 130.851 1538.26 138.79 1544.82 156.459 C 1550.95 141.22 1558.38 119.748 1562.19 103.691 C 1549.38 114.064 1534.09 112.682 1530.93 95.015 L 1530.56 93.0846 L 1530.31 91.6638 z M 787.131 681.6 C 789.21 704.294 777.975 703.447 760.959 701.6 C 760.744 706.771 785.805 741.13 790.598 746.446 L 792.073 746.477 C 790.783 739.982 791.603 735.366 795.303 729.722 C 800.051 722.479 808.734 724.191 816.462 724.544 C 815.907 717.259 792.97 687.86 787.131 681.6 z"/>
<path transform="translate(0,0)" fill="rgb(208,222,224)" d="M 453.89 0 L 475.165 0 L 493.62 60.7959 C 496.987 71.8534 501.707 83.5831 503.39 94.963 C 503.761 97.4738 503.737 99.5549 502.525 101.893 C 500.991 104.852 497.684 106.635 494.441 107 C 491.591 107.32 489.161 106.443 486.977 104.635 C 480.74 99.4728 455.076 12.0941 453.89 0 z"/>
<path transform="translate(0,0)" fill="rgb(208,222,224)" d="M 1563.77 0 L 1585.92 0 C 1583.68 12.3014 1560.2 95.7198 1554.99 101.075 C 1552.79 103.333 1548.6 104.259 1545.52 103.725 C 1542.77 103.248 1541.14 102.251 1539.55 99.9493 C 1537.98 97.6747 1537.37 94.593 1537.67 91.8939 C 1538.83 81.5046 1543.27 70.6051 1546.24 60.5805 C 1552.24 40.4318 1558.08 20.2377 1563.77 2.27374e-13 z"/>
<path transform="translate(0,0)" fill="rgb(208,222,224)" d="M 419.336 0 L 439.273 0 C 442.242 7.75471 442.706 10.029 449.959 14.0599 C 452.407 21.0497 454.675 29.114 456.856 36.2725 C 434.821 32.1758 425.394 20.8397 419.336 0 z"/>
<path transform="translate(0,0)" fill="rgb(208,222,224)" d="M 1600.26 0 L 1619.53 0 C 1612.82 20.1431 1604.36 27.7374 1584.22 32.8575 L 1590.13 12.7948 C 1595.83 8.11398 1596.94 6.63622 1600.26 0 z"/>
<path transform="translate(0,0)" fill="rgb(208,222,224)" d="M 486.894 0 L 504.602 0 C 503.268 12.2092 498.593 19.0756 490.05 27.1266 C 486.098 16.0127 482.54 10.6823 486.894 0 z"/>
<path transform="translate(0,0)" fill="rgb(208,222,224)" d="M 1535.39 0 L 1555.31 0 C 1557.15 7.08914 1552.51 17.2175 1549.98 24.6017 C 1541.29 16.4445 1538.78 11.1857 1535.39 0 z"/>
<path transform="translate(0,0)" fill="rgb(208,222,224)" d="M 872.163 1232.13 L 884.016 1235.76 L 883.807 1257.42 C 883.763 1267.25 882.018 1285.25 890.088 1291.75 C 923.597 1318.75 987.719 1320.71 1029.26 1320.88 C 1062.21 1321.01 1154.77 1315.51 1162.57 1279.13 C 1163.23 1265.52 1162.87 1249.44 1162.89 1235.65 L 1174.53 1232.62 C 1174.76 1254.88 1173.26 1275.29 1194.2 1289.84 C 1199.58 1293.57 1206.39 1298.41 1211.19 1302.93 C 1223 1314.06 1228.03 1331.54 1228.03 1347.42 C 1227.89 1373.08 1227.76 1398.39 1227.79 1423.89 L 1227.89 1628.24 L 1227.95 1717.87 C 1227.95 1733.83 1228.59 1752.35 1226.79 1767.99 C 1225.41 1779.91 1217.98 1792.32 1209.31 1800.86 C 1163.41 1842.98 1089.97 1854.95 1027.8 1856.04 C 966.515 1857.11 839.156 1840.57 819.825 1769.4 C 817.619 1761.27 818.712 1733.88 818.747 1723.97 L 818.854 1648.87 L 818.738 1356.45 C 818.77 1335.77 821.734 1311.77 839.601 1299.52 C 871.363 1277.72 872.374 1269.85 872.163 1232.13 z"/>
<path transform="translate(0,0)" fill="rgb(254,254,254)" d="M 872.163 1232.13 L 884.016 1235.76 L 883.807 1257.42 C 881.734 1265.53 884.01 1271.79 881.875 1277.93 C 873.986 1300.62 840.157 1312.89 836.41 1338.19 C 834.026 1354.28 835.258 1380.28 835.444 1397.04 L 835.814 1486.09 L 835.818 1666.49 C 835.805 1696.92 835.524 1729.59 836.129 1759.85 C 836.882 1797.58 901.595 1822.29 932.077 1828.8 C 1011.67 1845.81 1105.86 1844 1178.42 1803.57 C 1191.75 1796.15 1206.95 1779.93 1209.91 1764.85 C 1211.74 1750.93 1211.01 1729.42 1210.97 1714.75 L 1210.9 1621.14 L 1210.94 1439.79 C 1210.97 1407.53 1211.43 1374.88 1210.52 1342.75 C 1209.84 1318.8 1182.86 1304.01 1168.5 1288.56 C 1165.79 1285.64 1164.67 1282.25 1162.57 1279.13 C 1163.23 1265.52 1162.87 1249.44 1162.89 1235.65 L 1174.53 1232.62 C 1174.76 1254.88 1173.26 1275.29 1194.2 1289.84 C 1199.58 1293.57 1206.39 1298.41 1211.19 1302.93 C 1223 1314.06 1228.03 1331.54 1228.03 1347.42 C 1227.89 1373.08 1227.76 1398.39 1227.79 1423.89 L 1227.89 1628.24 L 1227.95 1717.87 C 1227.95 1733.83 1228.59 1752.35 1226.79 1767.99 C 1225.41 1779.91 1217.98 1792.32 1209.31 1800.86 C 1163.41 1842.98 1089.97 1854.95 1027.8 1856.04 C 966.515 1857.11 839.156 1840.57 819.825 1769.4 C 817.619 1761.27 818.712 1733.88 818.747 1723.97 L 818.854 1648.87 L 818.738 1356.45 C 818.77 1335.77 821.734 1311.77 839.601 1299.52 C 871.363 1277.72 872.374 1269.85 872.163 1232.13 z"/>
<path transform="translate(0,0)" fill="rgb(254,254,254)" d="M 1144.96 1734.42 L 1144.93 1526.06 L 1144.92 1462.57 C 1144.93 1449.1 1144.62 1436.15 1145.86 1422.66 C 1146.95 1410.91 1155.18 1400 1167.7 1399.73 C 1181.23 1399.43 1188.66 1414.05 1189.37 1425.79 C 1190.39 1442.71 1189.7 1459.68 1189.72 1476.58 C 1190.04 1505.96 1190.15 1535.35 1190.05 1564.74 L 1190.14 1686.68 C 1190.15 1698.18 1191.5 1748.44 1188.38 1755.67 C 1186.01 1759.68 1185 1761.78 1181.76 1765.15 C 1162.16 1774.01 1150.63 1768.68 1145.33 1748 L 1144.96 1734.42 z"/>
<path transform="translate(0,0)" fill="rgb(160,180,183)" d="M 1145.33 1748 C 1130.28 1744.3 1115.33 1739.79 1099.77 1737.07 C 1066.93 1731.31 1032.57 1729.55 998.898 1731 C 957.432 1732.78 903.792 1739.7 868.43 1762.58 C 865.5 1764.47 857.344 1774.74 854.019 1778.28 C 839.265 1771.97 861.186 1751.72 868.796 1747.94 C 927.345 1718.81 1005.44 1713.99 1069.97 1720.45 C 1095.33 1722.9 1120.42 1727.57 1144.96 1734.42 L 1145.33 1748 z"/>
<path transform="translate(0,0)" fill="rgb(254,254,254)" d="M 861.291 1344.72 C 869.945 1344.2 881.65 1353.07 890.106 1356.74 C 901.418 1362.23 913.629 1365.47 925.724 1368.75 C 935.879 1371.51 982.222 1370.54 960.849 1392.97 C 941.647 1394.09 834.303 1374.63 861.291 1344.72 z"/>
<path transform="translate(0,0)" fill="rgb(160,180,183)" d="M 1188.38 1755.67 C 1192.91 1760.85 1201.04 1770.19 1195.54 1777.17 C 1189.7 1777.37 1184.87 1769.82 1181.76 1765.15 C 1185 1761.78 1186.01 1759.68 1188.38 1755.67 z"/>
<path transform="translate(0,0)" fill="rgb(160,180,183)" d="M 818.824 1073.54 C 823.735 1077.47 829.179 1081.42 834.229 1085.23 C 859.145 1098.91 874.17 1104.12 901.818 1110.25 C 915.304 1113.63 932.046 1117.21 945.976 1118.12 C 997.971 1125.9 1051.94 1124.15 1103.98 1117.95 C 1119.55 1115.93 1134.98 1113.05 1150.22 1109.3 C 1179.56 1101.93 1203.72 1093.83 1227.63 1074.41 C 1227.97 1101.04 1227.98 1127.67 1227.66 1154.3 C 1227.5 1169.74 1230.81 1185.05 1218.53 1196.77 C 1200.94 1213.55 1174.44 1220.99 1151.73 1227.44 C 1136.54 1231.07 1121.21 1234.12 1105.79 1236.58 C 1053.28 1244 999.997 1244.23 947.423 1237.24 C 931.624 1234.62 916.633 1232.17 901.004 1228.74 C 879.502 1224.03 849.94 1214.72 832.761 1200.81 C 813.758 1185.15 818.637 1169.04 818.686 1146.5 L 818.824 1073.54 z"/>
<path transform="translate(0,0)" fill="rgb(160,180,183)" d="M 818.824 1073.54 C 823.735 1077.47 829.179 1081.42 834.229 1085.23 C 859.145 1098.91 874.17 1104.12 901.818 1110.25 C 899.129 1118.05 900.848 1214.29 901.004 1228.74 C 879.502 1224.03 849.94 1214.72 832.761 1200.81 C 813.758 1185.15 818.637 1169.04 818.686 1146.5 L 818.824 1073.54 z"/>
<path transform="translate(0,0)" fill="rgb(208,222,224)" d="M 818.824 1073.54 C 823.735 1077.47 829.179 1081.42 834.229 1085.23 C 833.804 1099.62 834.808 1197.64 832.761 1200.81 C 813.758 1185.15 818.637 1169.04 818.686 1146.5 L 818.824 1073.54 z"/>
<path transform="translate(0,0)" fill="rgb(160,180,183)" d="M 1150.22 1109.3 C 1179.56 1101.93 1203.72 1093.83 1227.63 1074.41 C 1227.97 1101.04 1227.98 1127.67 1227.66 1154.3 C 1227.5 1169.74 1230.81 1185.05 1218.53 1196.77 C 1200.94 1213.55 1174.44 1220.99 1151.73 1227.44 C 1150.4 1210.38 1153.56 1117.53 1150.22 1109.3 z"/>
<path transform="translate(0,0)" fill="rgb(254,254,254)" d="M 1150.22 1109.3 C 1153.56 1117.53 1150.4 1210.38 1151.73 1227.44 C 1136.54 1231.07 1121.21 1234.12 1105.79 1236.58 C 1105.37 1236.29 1104.15 1234.87 1104.14 1234.55 C 1103.34 1195.73 1106.1 1156.77 1103.98 1117.95 C 1119.55 1115.93 1134.98 1113.05 1150.22 1109.3 z"/>
<path transform="translate(0,0)" fill="rgb(208,222,224)" d="M 901.818 1110.25 C 915.304 1113.63 932.046 1117.21 945.976 1118.12 C 946.491 1118.75 947.005 1119.39 947.52 1120.02 C 947.854 1152.34 947.803 1207.06 947.423 1237.24 C 931.624 1234.62 916.633 1232.17 901.004 1228.74 C 900.848 1214.29 899.129 1118.05 901.818 1110.25 z"/>
<path transform="translate(0,0)" fill="rgb(208,222,224)" d="M 1075.98 985.622 C 1103.99 987.949 1242.51 1003.78 1226.1 1057.77 C 1220.66 1075.68 1180.06 1087.65 1162.69 1094.65 C 1098.73 1120.45 839.666 1125.24 817.447 1047.59 C 830.108 1001.18 928.364 990.158 969.526 985.86 C 971.63 985.64 973.854 990.23 974.818 991.751 L 984.232 1005.43 C 988.617 1006.97 989.427 1007.12 994.069 1007.45 C 999.139 1008.32 1000.12 1008.9 1004.94 1011 C 1008.01 1013.09 1008.45 1013.54 1012.15 1014.59 C 1016.61 1016.51 1020.32 1019.58 1024.27 1022.47 C 1033.77 1015.44 1041.92 1013.46 1048.35 1008.62 C 1052.38 1008.39 1055 1008.48 1058.81 1007.28 C 1064.73 1000.22 1070.45 992.994 1075.98 985.622 z"/>
<path transform="translate(0,0)" fill="rgb(158,20,24)" d="M 1022.89 1093.35 C 993.418 1076.23 951.857 1072.17 926.071 1047.98 C 916.482 1038.98 916.597 1026.43 926.711 1017.88 C 942.758 1004.3 964.477 1004.36 984.232 1005.43 C 988.617 1006.97 989.427 1007.12 994.069 1007.45 C 999.139 1008.32 1000.12 1008.9 1004.94 1011 C 1008.01 1013.09 1008.45 1013.54 1012.15 1014.59 C 1016.61 1016.51 1020.32 1019.58 1024.27 1022.47 C 1033.77 1015.44 1041.92 1013.46 1048.35 1008.62 C 1052.38 1008.39 1055 1008.48 1058.81 1007.28 C 1076.5 1005.03 1103.51 1003.95 1117.42 1016.05 C 1147.71 1042.4 1098.32 1062.75 1081.61 1069.54 C 1060.89 1078.21 1044.07 1083.57 1022.89 1093.35 z"/>
<path transform="translate(0,0)" fill="rgb(211,55,61)" d="M 964.569 1014.39 C 985.9 1012.26 1008.09 1020.03 1023.23 1035.12 C 1040.62 1018.45 1075.75 1009.11 1097.55 1017.24 C 1140.58 1033.28 1099.29 1051.92 1082.37 1058.98 C 1063.33 1067.94 1045.09 1072.06 1023.05 1083.27 C 1005.39 1074.46 934.693 1053.9 930.533 1035.44 C 929.832 1032.31 930.527 1029.03 932.44 1026.45 C 938.516 1018.23 954.886 1015.41 964.569 1014.39 z"/>
<path transform="translate(0,0)" fill="rgb(160,180,183)" d="M 974.818 991.751 L 984.232 1005.43 C 964.477 1004.36 942.758 1004.3 926.711 1017.88 C 916.597 1026.43 916.482 1038.98 926.071 1047.98 C 951.857 1072.17 993.418 1076.23 1022.89 1093.35 C 1044.07 1083.57 1060.89 1078.21 1081.61 1069.54 C 1091.3 1078.55 1103.69 1085.18 1113.86 1095.38 C 1106 1097.69 1088.83 1100.2 1079.73 1101.05 C 1005.66 1107.47 923.731 1105.42 854.388 1076.35 C 829.546 1065.31 810.785 1044.12 842.412 1025.1 C 874.175 1006 914.302 999.653 950.321 992.964 C 956.459 991.825 971.096 993.512 974.818 991.751 z"/>
<path transform="translate(0,0)" fill="rgb(79,104,108)" d="M 895.115 1238.55 C 983.462 1257.6 1063.62 1258.53 1151.71 1238.33 C 1151.76 1247.4 1152.35 1269.3 1151.17 1277.14 C 1150.59 1282.17 1148.37 1284.75 1144.38 1287.8 C 1109.1 1314.79 999.165 1311.58 955.2 1304.71 C 937.909 1302 907.271 1296.55 896.507 1281.02 C 896.256 1280.66 896.04 1280.28 895.807 1279.9 C 894.158 1273.02 894.995 1246.76 895.115 1238.55 z"/>
<path transform="translate(0,0)" fill="rgb(106,134,139)" d="M 895.904 1266.44 C 964.753 1288.68 1081.37 1292.58 1149.36 1267.42 L 1150.65 1268.4 L 1151.17 1277.14 C 1150.59 1282.17 1148.37 1284.75 1144.38 1287.8 C 1109.1 1314.79 999.165 1311.58 955.2 1304.71 C 937.909 1302 907.271 1296.55 896.507 1281.02 C 896.256 1280.66 896.04 1280.28 895.807 1279.9 C 896.207 1276.17 895.953 1270.36 895.904 1266.44 z"/>
<path transform="translate(0,0)" fill="rgb(208,222,224)" d="M 636.104 450.068 C 640.057 449.666 643.502 449.233 647.079 451.443 C 650.795 453.739 695.432 539.244 696.461 546.236 C 697.074 550.405 693.89 553.732 691.37 556.583 C 688.633 557.198 681.41 557.853 679.869 555.555 C 661.64 528.175 648.027 496.395 632.601 467.162 C 628.788 459.938 630.69 455.307 636.104 450.068 z"/>
<path transform="translate(0,0)" fill="rgb(208,222,224)" d="M 568.792 300.939 C 581.233 300.51 583.45 306.303 588.143 317.193 C 599.443 343.41 611.275 369.431 622.399 395.706 C 625.311 402.584 621.832 406.933 616.497 410.737 C 612.488 410.96 609.505 411.294 606.318 408.348 C 600.41 402.886 562.458 317.168 563.001 310.482 C 563.36 306.056 565.814 303.85 568.792 300.939 z"/>
<path transform="translate(0,0)" fill="rgb(208,222,224)" d="M 1397.31 445.684 C 1401.61 445.605 1406.07 445.965 1409.14 449.518 C 1410.65 451.245 1411.38 453.52 1411.15 455.802 C 1410.07 465.735 1373.11 533.292 1366 546.696 C 1364.77 549.018 1362.05 551.303 1359.88 552.924 L 1358.95 552.984 C 1352.36 553.343 1343.32 549.387 1346.03 542.951 C 1353.92 524.193 1384.18 456.277 1397.31 445.684 z"/>
<path transform="translate(0,0)" fill="rgb(208,222,224)" d="M 509.665 148.979 C 513.67 148.851 518.565 148.352 521.676 151.41 C 525.832 155.494 559.55 245.31 558.996 251.177 C 558.557 255.815 555.916 257.808 552.607 260.67 C 548.508 260.789 545.475 260.995 542.218 258.028 C 536.451 252.773 504.053 167.018 504.152 158.669 C 504.204 154.277 506.585 151.764 509.665 148.979 z"/>
<path transform="translate(0,0)" fill="rgb(208,222,224)" d="M 712.697 594.984 C 716.283 594.63 722.134 593.922 725.01 597.277 C 732.124 605.575 737.725 615.514 743.577 624.828 C 755.493 643.795 768.253 662.437 779.473 681.816 C 783.4 688.598 779.059 692.78 774.275 696.611 C 770.556 697.082 767.736 697.35 764.461 695.049 C 758.508 690.866 707.17 609.994 707.246 604.9 C 707.31 600.602 710.029 597.986 712.697 594.984 z"/>
<path transform="translate(0,0)" fill="rgb(208,222,224)" d="M 806.214 729.876 C 808.425 730.317 813.682 731.577 815.147 733.266 C 835.349 756.574 853.928 781.949 873.594 805.767 C 881.698 815.582 880.743 819.691 870.788 826.934 C 869.364 826.727 867.776 826.534 866.405 826.111 C 857.511 823.367 805.93 757.58 799.036 746.231 C 797.218 743.236 796.296 740.708 797.638 737.225 C 799.19 733.196 802.461 731.455 806.214 729.876 z"/>
<path transform="translate(0,0)" fill="rgb(208,222,224)" d="M 1233.92 725.886 C 1243.71 727.641 1250.18 735.472 1243.91 743.135 C 1230.29 759.773 1194.32 814.754 1178.05 823.897 C 1156.52 820.998 1168.86 803.416 1177.26 794.703 C 1189.98 781.516 1221.39 731.924 1233.92 725.886 z"/>
<path transform="translate(0,0)" fill="rgb(208,222,224)" d="M 1321.26 589.864 C 1329.13 590.092 1337.48 596.644 1333.8 602.83 C 1324.3 618.794 1287.26 686.403 1275.09 693.295 C 1254.16 691.574 1264.08 674.063 1271.55 664.019 C 1282.21 649.689 1308.78 597.647 1321.26 589.864 z"/>
<path transform="translate(0,0)" fill="rgb(208,222,224)" d="M 1127.34 851.081 C 1141.89 849.382 1146.65 862.764 1138.43 869.751 C 1114.7 889.928 1087.73 915.068 1063.14 933.676 C 1050.97 933.746 1043.76 922.049 1052.1 915.317 C 1076.74 895.415 1102.22 869.88 1127.34 851.081 z"/>
<path transform="translate(0,0)" fill="rgb(208,222,224)" d="M 1523.12 144.949 C 1528.69 145.077 1539.3 148.111 1537 154.876 C 1530.54 173.843 1508.36 246.554 1496.85 256.984 C 1477.94 256.863 1482.03 242.069 1487.66 230.01 C 1495.73 212.755 1510.83 154.57 1523.12 144.949 z"/>
<path transform="translate(0,0)" fill="rgb(208,222,224)" d="M 1464.41 297.822 C 1471.55 296.741 1477.05 298.843 1479.04 306.199 C 1477.31 319.5 1445.65 384.643 1438.92 400.297 C 1438.09 402.231 1434.99 405.159 1433.29 406.655 C 1413.06 408.748 1418.91 390.971 1424.81 380.21 C 1434.75 362.087 1451.4 309.783 1464.41 297.822 z"/>
<path transform="translate(0,0)" fill="rgb(208,222,224)" d="M 910.119 854.017 C 923.608 854.558 948.07 880.093 960.236 888.865 C 971.282 896.831 983.993 908.678 994.601 917.682 C 1001.75 923.748 995.615 930.323 990.192 934.603 C 986.546 935.136 983.644 935.526 980.428 933.051 C 969.312 924.322 958.354 915.411 947.471 906.359 C 933.94 894.876 919.221 884.507 906.565 872.05 C 898.794 864.402 902.76 859.029 910.119 854.017 z"/>
<path transform="translate(0,0)" fill="rgb(208,222,224)" d="M 1065.82 938.263 C 1073.28 934.527 1082.36 926.119 1088.93 920.499 C 1089 921.3 1089.07 922.102 1089.12 922.904 C 1091.39 958.142 1070.55 983.455 1048.35 1008.62 C 1041.92 1013.46 1033.77 1015.44 1024.27 1022.47 C 1020.32 1019.58 1016.61 1016.51 1012.15 1014.59 C 1017.95 1003.92 1022.89 1000.46 1031.71 992.418 C 1048.76 976.861 1059.95 960.719 1065.82 938.263 z"/>
<path transform="translate(0,0)" fill="rgb(208,222,224)" d="M 1207.17 801.664 L 1208.24 802.118 C 1223.82 822.886 1201.01 852.34 1185.96 866.758 C 1168.37 883.601 1158.32 900.935 1130.08 897.187 C 1126.81 896.076 1124.4 895.91 1123.39 892.65 C 1125.22 888.493 1133.31 882.754 1137.19 879.332 C 1138.84 879.133 1144.42 878.708 1145.73 877.903 C 1157.52 870.735 1166.97 858.943 1176.31 849.076 C 1185.75 839.103 1192.27 830.596 1196.53 817.406 C 1198.39 811.628 1203.18 806.493 1207.17 801.664 z"/>
<path transform="translate(0,0)" fill="rgb(208,222,224)" d="M 1302.93 666.54 C 1307.69 669.006 1310.46 678.774 1311 683.707 C 1313.04 702.988 1302.18 717.961 1291.69 732.747 C 1277.82 752.299 1268.84 768.976 1242.68 771.706 C 1238.48 771.177 1236.66 771.576 1234.09 769.11 C 1234.93 761.116 1249.79 752.897 1253.53 749.642 C 1266.68 738.206 1280.14 715.142 1289.31 699.942 C 1293.35 693.25 1292.5 687.306 1294.59 680.574 C 1295.42 677.92 1301.2 669.22 1302.93 666.54 z"/>
<path transform="translate(0,0)" fill="rgb(208,222,224)" d="M 836.03 804.421 C 838 806.059 845.714 814.698 846.338 816.471 C 853.997 838.252 869.729 853.269 885.663 869.292 C 891.851 875.514 897.412 880.444 906.866 881.082 C 910.993 884.871 921.583 891.423 922.116 896.412 L 918.72 898.457 C 897.765 902.697 885.339 895.988 871.118 881.06 C 858.341 867.649 842.626 853.832 834.629 836.928 C 829.84 826.806 831.868 814.353 836.03 804.421 z"/>
<path transform="translate(0,0)" fill="rgb(208,222,224)" d="M 738.871 671.554 C 749.972 677.921 750.61 699.688 756.521 708.405 C 768.92 726.691 780.208 748.364 799.77 759.786 C 802.669 761.478 809.972 770.523 810.353 774.009 L 808.153 775.099 C 776.251 775.97 767.897 758.73 751.682 735.39 C 736.839 714.024 724.463 697.63 738.871 671.554 z"/>
<path transform="translate(0,0)" fill="rgb(208,222,224)" d="M 584.372 380.676 C 586.612 383.316 591.788 394.83 593.625 398.75 C 590.396 413.078 600.142 429.456 606.021 442.548 C 611.384 454.49 616.434 468.008 628.652 473.888 C 631.622 479.551 637.059 486.638 637.052 492.448 L 635.746 493.709 L 630.168 493.556 C 604.357 488.869 596.39 466.364 586.478 445.523 C 576.078 423.656 566.81 402.121 584.372 380.676 z"/>
<path transform="translate(0,0)" fill="rgb(208,222,224)" d="M 521.328 228.692 C 530.809 241.982 525.773 253.135 530.251 266.554 C 535.684 282.835 543.1 305.18 552.653 319.487 C 553.89 321.34 557.935 323.599 559.881 324.693 C 562.88 330.527 567.963 337.739 566.412 343.489 C 563.853 344.877 561.158 343.912 558.089 343.391 C 534.212 334.173 530.738 321.624 521.985 299.379 C 511.861 273.654 499.627 252.963 521.328 228.692 z"/>
<path transform="translate(0,0)" fill="rgb(208,222,224)" d="M 467.631 73.7925 C 474.762 83.91 471.684 98.7828 473.929 109.437 C 477.445 126.119 484.476 149.808 492.886 164.586 C 494.107 166.733 498.376 169.831 500.338 171.27 C 502.56 177.382 507.095 184.451 505.627 189.966 C 501.837 191.438 501.524 190.504 496.677 189.477 C 472.046 178.608 469.198 159.842 461.259 136.876 C 453.078 113.209 447.81 93.7048 467.631 73.7925 z"/>
<path transform="translate(0,0)" fill="rgb(208,222,224)" d="M 1519.28 224.466 C 1545.53 245.342 1524.54 285.45 1514.6 309.245 C 1508.19 324.594 1500.81 332.974 1485.26 338.932 C 1482 339.588 1477.19 340.724 1474.25 339.453 C 1476.31 322.778 1485.97 323.073 1492.39 311.434 C 1498.43 296.572 1511.4 272.626 1513.48 256.964 C 1515.76 239.779 1511.62 243.925 1519.28 224.466 z"/>
<path transform="translate(0,0)" fill="rgb(208,222,224)" d="M 656.18 529.558 C 668.191 542.471 663.442 551.039 669.324 565.359 C 674.129 577.057 682.373 589.553 688.165 600.69 C 697.19 618.047 709.776 617.382 717.121 636.654 L 716.427 637.735 L 710.558 638.4 C 682.435 633.58 675.055 615.87 662.159 593.649 C 650.07 572.819 639.901 551.815 656.18 529.558 z"/>
<path transform="translate(0,0)" fill="rgb(208,222,224)" d="M 1457.24 376.561 C 1482.58 401.767 1455.83 441.052 1443.53 466.098 C 1437.56 478.248 1426.36 485.688 1413.53 488.923 C 1411.21 489.086 1409.04 489.053 1406.72 489.048 L 1405.35 487.593 C 1405.39 483.048 1410.23 475.78 1412.68 471.158 C 1425.46 464.224 1429.48 453.015 1435.5 440.375 C 1443.31 423.992 1450.53 409.075 1450.87 390.542 C 1450.9 389.037 1456.23 378.579 1457.24 376.561 z"/>
<path transform="translate(0,0)" fill="rgb(208,222,224)" d="M 1572.99 70.5235 C 1576.62 72.1212 1581.16 78.5276 1582.88 81.9939 C 1591.83 100.019 1585.11 119.809 1578.9 137.495 C 1570.77 160.673 1569.57 173.692 1546.29 185.398 C 1542.54 186.586 1537.28 187.36 1533.3 188.076 C 1535.77 181.478 1538.29 174.9 1540.87 168.345 C 1552.77 160.865 1556.46 144.533 1560.87 131.621 C 1565.58 117.85 1571.35 103.896 1566.8 89.5477 C 1568.69 82.9543 1570.74 77.0046 1572.99 70.5235 z"/>
<path transform="translate(0,0)" fill="rgb(208,222,224)" d="M 1384.94 524.513 C 1385.19 524.63 1385.43 524.748 1385.68 524.865 C 1408.73 549.883 1379.6 588.162 1367.81 609.803 C 1359.32 625.403 1346.69 630.75 1335.56 633.275 C 1332.42 633.257 1327.98 633.666 1325.53 632.137 C 1330.17 615.448 1341.95 614.703 1346.86 607.364 C 1356.03 593.657 1368.26 570.977 1375.27 555.614 C 1375.77 554.511 1375.82 550.681 1375.61 549.454 C 1374.37 542.29 1381.24 531.531 1384.94 524.513 z"/>
<path transform="translate(0,0)" fill="rgb(208,222,224)" d="M 1533.93 60.9163 C 1536.13 60.8382 1536.44 60.9232 1538.64 61.3029 C 1540.53 72.1191 1521.86 90.9857 1518.86 102.418 C 1514.67 118.413 1500.86 140.643 1508.01 156.721 C 1506.08 162.391 1503.52 170.823 1500.25 175.572 L 1498.24 175.363 C 1475.54 151.179 1493.86 116.273 1503.04 89.7193 C 1508.03 75.3025 1520.11 66.2733 1533.93 60.9163 z"/>
<path transform="translate(0,0)" fill="rgb(208,222,224)" d="M 555.049 217.263 C 582.834 219.358 593.108 241.782 601.593 264.652 C 609.76 286.666 619.467 304.121 605.676 326.689 L 602.669 329.847 L 601.131 329.618 C 597.256 325.341 595.003 317.812 592.639 312.072 C 595.201 304.291 593.902 297.251 590.642 289.833 C 583.974 274.666 577.832 245.813 562.461 238.078 C 559.891 231.898 556.402 223.674 555.049 217.263 z"/>
<path transform="translate(0,0)" fill="rgb(208,222,224)" d="M 1485.83 213.347 L 1486.29 213.855 C 1486.44 216.677 1481.49 228.751 1480.18 232.231 C 1463.63 243.606 1450.39 282.942 1448.35 302.907 C 1447.36 312.567 1446.73 318.012 1440.98 326.453 L 1439.66 326.538 L 1436.28 322.777 C 1421.87 300.482 1432.97 279.301 1441.59 257.688 C 1450.48 235.403 1459.15 216.385 1485.83 213.347 z"/>
<path transform="translate(0,0)" fill="rgb(208,222,224)" d="M 1416.81 363.185 C 1418.81 363.028 1420.69 363.028 1422.68 362.993 L 1423.81 364.328 C 1423.84 368.727 1419.37 376.85 1417.41 381.336 C 1409.36 385.297 1404.54 391.206 1400.7 399.371 C 1393.06 415.629 1383.23 432.658 1381.46 450.756 C 1380.46 460.923 1377.21 465.225 1372.15 473.652 C 1368.51 471.646 1365.24 464.506 1364.02 460.535 C 1357.17 438.206 1373.58 412.714 1383.09 392.851 C 1390.62 377.118 1400.23 368.222 1416.81 363.185 z"/>
<path transform="translate(0,0)" fill="rgb(208,222,224)" d="M 687.77 514.097 C 695.264 513.466 699.696 513.437 706.851 516.394 C 712.751 518.84 718.067 522.507 722.449 527.154 C 732.011 537.188 747.174 566.262 753.071 579.69 C 758.345 591.699 757.042 603.44 751.807 615.251 L 748.534 619.535 C 738.299 612.584 738.781 594.908 734.363 585.802 C 726.084 568.743 715.185 540.142 697.562 532.034 C 694.273 526.384 690.925 519.895 687.77 514.097 z"/>
<path transform="translate(0,0)" fill="rgb(208,222,224)" d="M 617.588 367.363 C 654.863 369.641 663.292 405.473 676.364 433.943 C 682.689 447.718 680.187 461.406 673.92 474.503 C 672.704 476.354 672.098 476.937 670.575 478.57 C 656.951 460.381 664.9 457.477 659.006 441.775 C 654.016 428.479 642.288 402.698 633.411 391.381 C 632.13 389.748 627.447 387.417 625.477 386.435 C 623.157 381.268 618.875 372.476 617.588 367.363 z"/>
<path transform="translate(0,0)" fill="rgb(208,222,224)" d="M 1265.99 647.292 C 1269.64 647.632 1269.95 646.977 1271.9 648.987 C 1271.49 654.11 1266.44 660.882 1263.52 665.608 C 1242.74 673.325 1220.19 716.908 1214 737.038 C 1213.3 739.297 1207.28 746.212 1205.47 748.437 L 1204.69 748.614 L 1203.09 747.569 C 1189.21 716.86 1213.88 693.189 1229.8 669.282 C 1238.54 656.154 1250.52 649.327 1265.99 647.292 z"/>
<path transform="translate(0,0)" fill="rgb(208,222,224)" d="M 501.411 64.6324 C 507.004 65.1353 512.432 66.7943 517.35 69.5043 C 539.436 81.8741 543.859 109.929 551.104 132.514 C 556.002 147.786 554.927 159.978 546.925 173.861 C 545.213 176.125 544.783 176.516 542.683 178.458 L 540.807 178.227 C 537.522 174.889 535.352 165.927 533.632 160.857 C 534.964 156.582 536.111 152.185 534.984 147.747 C 529.997 128.11 523.585 95.947 507.11 83.6862 L 501.411 64.6324 z"/>
<path transform="translate(0,0)" fill="rgb(208,222,224)" d="M 1347.72 508.331 C 1350.67 508.211 1350.68 508.025 1353.38 509.035 C 1352.87 520.512 1337.26 530.377 1331.87 538.708 C 1321.64 554.537 1303.38 579.107 1305.3 598.092 C 1302.49 603.333 1298.09 610.635 1294.38 615.136 C 1279.45 593.77 1288.25 574.949 1299.56 554.88 C 1311.49 533.709 1320.92 512.381 1347.72 508.331 z"/>
<path transform="translate(0,0)" fill="rgb(208,222,224)" d="M 1013.05 869.183 C 1017.88 868.921 1022.71 868.792 1027.54 868.798 C 1045.77 868.98 1060.82 875.629 1073.44 888.614 C 1067.59 893.422 1061.91 898.437 1056.42 903.648 C 1047.98 897.021 1043.37 894.966 1033.32 892.274 C 1015.73 888.893 1002.85 893.121 990.508 905.729 C 984.621 900.247 979.533 896.147 973.208 891.134 C 983.937 877.814 996.994 872.652 1013.05 869.183 z"/>
<path transform="translate(0,0)" fill="rgb(208,222,224)" d="M 769.231 653.008 C 790.161 651.417 804.862 659.058 815.968 676.392 C 832.069 701.522 854.016 719.481 841.055 751.291 C 840.119 752.164 840.727 751.812 839.087 752.038 C 833.679 746.662 830.821 742.258 826.445 736.028 C 826.82 731.259 826.695 727.998 824.028 723.365 C 814.607 706.997 802.311 687.114 788.706 674.092 C 787.19 672.64 781.921 670.906 779.961 670.253 L 769.231 653.008 z"/>
<path transform="translate(0,0)" fill="rgb(208,222,224)" d="M 1161.91 778.212 C 1167.41 777.752 1176.69 775.459 1178.46 781.6 C 1177.01 786.285 1172.41 791.071 1169.15 795.059 C 1166.4 795.825 1162.22 796.523 1159.94 798.235 C 1143.88 810.324 1129.39 827.665 1117.55 843.881 C 1112.03 851.432 1117.78 852.204 1107.32 860.226 C 1104.14 862.886 1100.98 865.564 1097.84 868.262 C 1093.24 846.751 1098.1 834.426 1112.87 818.546 C 1128.28 801.988 1139.02 784.521 1161.91 778.212 z"/>
<path transform="translate(0,0)" fill="rgb(208,222,224)" d="M 873.436 781.337 C 893.94 779.936 908.541 795.174 921.175 809.115 C 934.631 823.963 952.456 841.025 949.784 863 C 949.436 865.871 949.265 868.233 947.006 869.839 L 945.484 868.787 C 929.223 856.454 934.766 856.574 923.149 840.809 C 916.028 831.143 903.89 818.008 895.441 809.268 C 885.405 798.887 869.555 798.639 864.805 783.528 C 866.662 781.827 870.469 781.793 873.436 781.337 z"/>
<path transform="translate(0,0)" fill="rgb(208,222,224)" d="M 958.816 923.923 C 967.556 931.209 973.535 937.17 983.828 942.251 C 990.221 964.39 1000.39 979.918 1016.28 996.561 C 1012.34 1000.97 1007.84 1005.85 1004.94 1011 C 1000.12 1008.9 999.139 1008.32 994.069 1007.45 C 974.994 980.699 958.369 957.961 958.816 923.923 z"/>
<path transform="translate(0,0)" fill="rgb(254,254,254)" d="M 1057.07 939.866 L 1058.08 941.102 C 1057.76 948.669 1045.9 966.105 1041.43 972.893 C 1029.62 972.532 1017.22 972.621 1005.36 972.544 C 1003.2 969.474 1001.09 965.967 999.074 962.767 C 995.348 955.138 993.537 950.903 990.73 942.902 C 992.892 943.542 995.067 944.138 997.254 944.688 C 1016.04 949.366 1039.96 950.16 1057.07 939.866 z"/>
<path transform="translate(0,0)" fill="rgb(208,222,224)" d="M 1002.78 917.895 C 1017.55 919.197 1028.38 919.064 1043.03 918.109 L 1043.32 929.556 C 1045.37 932.026 1046.49 933.382 1048.25 936.147 L 1047.66 938.018 L 1044.27 939.607 C 1030.69 943.195 1009.42 940.702 995.827 938.068 C 1004.43 931.022 1003.34 928.411 1002.78 917.895 z"/>
<path transform="translate(0,0)" fill="rgb(254,254,254)" d="M 1017.02 898.23 C 1024.48 897.34 1046.74 899.288 1047.86 908.761 C 1044.15 912.983 1037.51 912.544 1031.79 912.98 C 1024.45 913.133 1001.78 913.992 997.013 908.396 C 999.045 902.9 1011.68 899.197 1017.02 898.23 z"/>
<path transform="translate(0,0)" fill="rgb(208,222,224)" d="M 1015.16 984.378 C 1018.87 984.11 1026.45 982.601 1028.52 985.878 L 1026.71 989.106 C 1022.2 991.095 1024.03 991.031 1019.63 989.981 C 1016.93 987.648 1016.72 987.732 1015.16 984.378 z"/>
</svg>