<svg version="1.1" xmlns="http://www.w3.org/2000/svg" style="display: block;" viewBox="0 0 2048 2048" width="1024" height="1024" preserveAspectRatio="none">
<defs>
	<linearGradient id="Gradient1" gradientUnits="userSpaceOnUse" x1="1071.67" y1="1392.88" x2="1076.61" y2="1499.18">
		<stop class="stop0" offset="0" stop-opacity="1" stop-color="rgb(87,94,35)"/>
		<stop class="stop1" offset="1" stop-opacity="1" stop-color="rgb(123,129,65)"/>
	</linearGradient>
	<linearGradient id="Gradient2" gradientUnits="userSpaceOnUse" x1="934.17" y1="694.216" x2="1043.68" y2="765.961">
		<stop class="stop0" offset="0" stop-opacity="1" stop-color="rgb(62,71,24)"/>
		<stop class="stop1" offset="1" stop-opacity="1" stop-color="rgb(102,110,47)"/>
	</linearGradient>
	<linearGradient id="Gradient3" gradientUnits="userSpaceOnUse" x1="1025.66" y1="1702.54" x2="1118.79" y2="1760.74">
		<stop class="stop0" offset="0" stop-opacity="1" stop-color="rgb(79,85,34)"/>
		<stop class="stop1" offset="1" stop-opacity="1" stop-color="rgb(122,129,64)"/>
	</linearGradient>
	<linearGradient id="Gradient4" gradientUnits="userSpaceOnUse" x1="950.88" y1="1444.37" x2="941.191" y2="1467.35">
		<stop class="stop0" offset="0" stop-opacity="1" stop-color="rgb(100,105,60)"/>
		<stop class="stop1" offset="1" stop-opacity="1" stop-color="rgb(127,135,67)"/>
	</linearGradient>
	<linearGradient id="Gradient5" gradientUnits="userSpaceOnUse" x1="1075.98" y1="991.532" x2="1031.97" y2="922.865">
		<stop class="stop0" offset="0" stop-opacity="1" stop-color="rgb(73,80,30)"/>
		<stop class="stop1" offset="1" stop-opacity="1" stop-color="rgb(108,116,54)"/>
	</linearGradient>
	<linearGradient id="Gradient6" gradientUnits="userSpaceOnUse" x1="967.433" y1="776.622" x2="868.816" y2="774.387">
		<stop class="stop0" offset="0" stop-opacity="1" stop-color="rgb(70,77,29)"/>
		<stop class="stop1" offset="1" stop-opacity="1" stop-color="rgb(131,140,69)"/>
	</linearGradient>
	<linearGradient id="Gradient7" gradientUnits="userSpaceOnUse" x1="1074.44" y1="1156.48" x2="997.671" y2="1064.82">
		<stop class="stop0" offset="0" stop-opacity="1" stop-color="rgb(93,100,44)"/>
		<stop class="stop1" offset="1" stop-opacity="1" stop-color="rgb(116,127,62)"/>
	</linearGradient>
	<linearGradient id="Gradient8" gradientUnits="userSpaceOnUse" x1="1086.53" y1="1432.22" x2="984.705" y2="1250.41">
		<stop class="stop0" offset="0" stop-opacity="1" stop-color="rgb(69,77,29)"/>
		<stop class="stop1" offset="1" stop-opacity="1" stop-color="rgb(118,125,59)"/>
	</linearGradient>
</defs>
<path transform="translate(0,0)" fill="rgb(0,0,0)" d="M 1023.35 109.397 C 1030.78 114.39 1087.52 307.787 1094.41 326.001 C 1096.24 330.845 1097.35 345.327 1097.08 351.414 C 1082.11 340.813 1073.3 333.165 1056.41 326.184 C 1057.06 356.465 1063.04 391.689 1064.38 422.627 C 1066.04 459.958 1066.45 497.36 1072.34 534.352 C 1075.65 555.103 1091.29 569.628 1096.25 589.085 C 1096.39 589.596 1092.72 596.243 1092.09 597.155 C 1083.11 610.281 1074.99 622.852 1075.41 639.541 C 1075.4 656.009 1079.06 677.623 1090.88 689.94 C 1113.63 689.507 1124.44 696.549 1149.37 690.521 C 1146.49 664.899 1146.4 662.651 1167.13 651.735 C 1188.48 640.494 1193.64 628.942 1218.81 644.909 C 1241.36 611.346 1235.51 576.069 1226.8 539.344 C 1221.26 515.973 1216.68 491.07 1212.97 467.356 C 1210.07 448.76 1209.85 429.164 1206.82 410.52 C 1197.71 418.404 1187.22 430.227 1179.05 439.23 C 1176.28 415.498 1177.87 391.461 1183.73 368.298 C 1196.46 317.593 1223.88 271.531 1269.48 244.343 C 1267.47 263.57 1264.59 274.782 1263.79 295.753 C 1261.8 348.222 1280.52 389.179 1289.74 438.751 C 1280.27 430.508 1269.89 421.933 1261.36 412.812 C 1267.87 442.003 1272.05 461.245 1280.86 490.921 C 1301.56 560.673 1326.15 596.147 1305.46 669.521 C 1326.23 700.151 1293.3 724.592 1294.19 757.437 C 1294.75 778.048 1300.79 795.649 1300.15 816.264 C 1299.93 823.508 1293.84 834.409 1283.54 832.016 C 1257.69 818.081 1288.66 767.116 1273.22 745.7 C 1271.1 742.753 1267.88 740.533 1264.64 739.994 C 1260.31 743.194 1260.31 750.573 1253.98 755.98 C 1242.42 765.851 1234.12 755.764 1224.69 755.342 C 1220.68 758.208 1222.05 769.752 1220.13 775.163 C 1218.05 783.898 1203.37 794.593 1200.44 801.366 C 1189.56 826.528 1190.15 842.685 1159.4 851.374 C 1152.51 853.318 1138.63 859.828 1131.22 863.751 C 1135.46 883.576 1137.25 911.838 1115.94 921.821 C 1112.03 923.654 1100.17 931.873 1098.71 935.888 C 1092.66 952.489 1093.52 960.115 1082.96 975.697 C 1087.16 979.868 1092.72 983.719 1097.55 988.422 C 1116.29 1006.67 1125.89 1035.98 1118.37 1061.45 C 1116.95 1067.89 1108.33 1080.84 1107.62 1086.8 C 1103.39 1122.63 1113.96 1125.5 1085.05 1153.56 C 1084.86 1162.51 1085.01 1170.02 1085.4 1178.97 C 1103.4 1190.71 1111.55 1199.17 1120.41 1218.14 C 1134.92 1249.25 1117.84 1268.26 1112.3 1296.96 C 1108.81 1315 1118.92 1335.05 1108.15 1355.81 C 1102.39 1366.92 1084.27 1379.26 1081.92 1385.24 C 1084.85 1389.64 1096.11 1395.8 1099.52 1399.82 C 1105.36 1406.71 1104.27 1421.48 1104.15 1430.15 C 1109.71 1438.42 1117.08 1446.2 1119.6 1455.98 C 1124.71 1475.88 1116.08 1494.17 1106.5 1510.74 C 1115.07 1531.22 1117.39 1550.99 1118.61 1572.56 C 1119.95 1596.36 1106.69 1607.45 1091.21 1621.28 C 1082.69 1628.89 1085.73 1652.34 1086.01 1665.32 C 1092.32 1672.41 1099.06 1678.38 1105.24 1685.41 C 1110.69 1691.6 1114.2 1698.56 1116 1706.61 C 1118.42 1717.47 1114.44 1727.95 1114.24 1738.71 C 1114.02 1750.27 1117.23 1763.36 1115.9 1774.97 C 1113.51 1795.83 1101.59 1809.35 1086.04 1821.86 C 1086.1 1839.82 1087.4 1858.13 1087.31 1876.04 C 1087.2 1898.54 1093.8 1915.86 1069.53 1928.11 C 1044.65 1940.67 1021.68 1942.54 995.269 1934.47 C 955.551 1920.35 959.353 1913.88 960.006 1876.48 L 960.887 1823.11 C 958.243 1820.96 955.672 1818.73 953.178 1816.41 C 935.217 1799.61 935.769 1782.47 930.23 1760.63 C 925.212 1740.86 919.19 1720.96 932.49 1702.84 C 937.606 1695.86 947.624 1688.37 951.348 1681.23 C 954.94 1673.28 954.371 1661.55 956.912 1653.65 C 961.944 1638.01 964.099 1631.13 963.675 1614.66 C 928.863 1584.89 948.551 1583.61 941.135 1547.97 C 937.322 1529.65 917.504 1516.17 921.444 1489.55 C 925.404 1462.8 933.799 1447.82 953.888 1430.52 C 954.323 1411.35 953.627 1401.21 966.036 1386 C 966.112 1379.98 965.981 1373.67 965.949 1367.61 C 946.286 1348.11 958.325 1343.83 947.944 1321.45 C 945.134 1315.39 932.876 1305.12 928.584 1298.19 C 910.033 1273.72 933.544 1252.08 934.428 1231.83 C 936.076 1194.06 929.057 1183.25 966.576 1159.88 C 952.612 1137.4 960.987 1128.37 952.827 1105.97 C 950.831 1100.49 936.01 1090.72 931.56 1084.24 C 917.18 1066.67 931.967 1047.74 931.634 1032.64 C 930.79 994.327 923.217 986.707 958.418 960.601 C 957.303 950.642 956.97 946.427 951.578 937.669 C 940.385 931.666 931.143 927.498 924.894 915.599 C 917.655 901.816 918.714 882.009 923.139 867.465 C 896.758 839.617 892.205 815.679 903.822 779.147 C 885.812 775.678 868.105 770.787 850.869 764.519 C 839.936 760.468 825.103 750.369 814.853 749.95 C 809.117 749.715 812.79 778.063 799.39 777.271 C 780.129 776.133 793.496 750.362 785.148 742.451 C 782.964 741.723 781.218 741.361 779.009 742.367 C 759.206 751.382 787.247 831.048 776.425 854.755 C 774.54 858.885 771.524 862.213 767.182 863.766 C 763.211 865.186 758.233 865.282 754.428 863.32 C 734.15 852.867 749.592 794.344 751.992 775.388 C 752.892 767.736 753.075 760.015 752.538 752.328 C 750.178 718.678 725.064 700.321 741.899 669.343 C 735.123 647.432 732.747 624.397 734.908 601.564 C 737.621 575.149 747.567 549.492 755.641 524.306 C 767.727 486.607 779.536 452.03 787.181 413.094 C 778.292 419.075 768.869 428.669 758.91 435.696 C 761.042 416.677 767.05 398.674 772.233 380.258 C 785.243 334.037 789.809 289.901 776.522 242.981 C 839.104 275.969 878.856 372.533 868.85 440.72 C 861.05 433.604 847.411 417.045 840.07 408.512 C 838.931 437.111 835.325 468.769 829.907 496.87 C 816.383 567.024 789.299 628.476 861.577 677.131 C 870.608 662.302 878.056 661.732 894.128 664.493 C 907.8 658.159 915.434 656.794 928.013 665.633 C 927.668 646.039 927.334 639.482 944.351 628.112 C 948.482 614.922 948.664 612.561 960.05 605.154 C 946.521 588.577 949.679 586.083 960.842 568.033 C 966.41 559.029 973.388 548.236 975.094 537.559 C 982.074 493.858 980.269 449.308 985.024 405.453 C 987.656 381.176 992.68 351.638 985.739 328.005 C 972.575 334.172 961.449 343.792 950.004 352.778 C 949.7 325.422 961.863 295.12 970.222 268.9 C 979.009 240.774 987.969 212.702 997.1 184.686 C 1001.92 169.895 1016.6 120.789 1023.35 109.397 z M 1085.89 825.926 L 1094.23 837.718 L 1096.73 841.698 C 1112.36 844.774 1118.41 810.245 1125.26 802.329 C 1134.3 791.89 1146.96 790.994 1156.5 778.514 L 1155.95 777.439 C 1123.12 786.465 1093.14 784.043 1085.89 825.926 z M 962.253 832.126 C 965.211 827.48 965.382 827.969 964.048 821.513 C 963.204 817.428 960.023 810.242 956.839 807.496 C 955.587 814.147 955.726 827.651 960.092 832.96 L 962.253 832.126 z"/>
<path transform="translate(0,0)" fill="rgb(44,44,47)" d="M 1021.67 243.059 L 1023.48 240.44 L 1025.31 240.61 C 1032.61 249.498 1028.19 270.71 1030.41 282.13 C 1032.74 294.125 1035.58 295.244 1047.47 294.81 C 1050.25 302.505 1048.26 330.996 1049.11 341.177 C 1053.64 395.321 1055.97 449.671 1060.24 503.823 C 1061.3 517.317 1062.52 531.229 1065.65 544.404 C 1069.83 559.662 1081.41 574.437 1088.2 588.509 C 1078.17 603.435 1067.53 616.184 1066.75 635.134 C 1065.84 656.991 1071.3 677.219 1082.58 695.839 C 1077.17 701.594 1069.82 709.331 1070.14 717.708 C 1062.88 727.158 1058.74 732.949 1056.75 745.111 C 1051.77 739.357 1042.39 731.456 1038.72 725.799 C 1026.71 707.335 1028.53 685.007 1021.49 661.189 C 1008.38 637.358 999.433 640.971 980.387 626.344 C 978.185 624.654 971.645 607.322 968.945 602.985 C 965.934 598.147 962.397 593.082 958.886 588.304 C 966.646 573.955 978.34 560.275 982.281 544 C 986.385 527.049 986.213 508.804 987.93 491.506 C 988.982 480.903 987.943 467.479 990.194 457.322 C 994.044 456.88 998.218 457.923 1001.85 455.992 C 1020.09 446.3 1009.9 414.369 1010.59 398.849 C 1012.55 354.469 1005.34 283.393 1021.67 243.059 z"/>
<path transform="translate(0,0)" fill="rgb(85,95,109)" d="M 1021.67 243.059 C 1023.04 245.534 1023.43 246.94 1023.48 249.868 C 1024.05 281.411 1024.33 319.442 1023.79 350.657 C 1023.43 371.39 1025.53 440.672 1021.37 455.026 C 1019.58 465.344 1017.32 475.193 1022.12 485.098 C 1024.77 496.48 1021.82 522.223 1021.24 534.831 C 1019.71 553.497 1017.09 576.183 1021.14 594.23 C 1021.76 605.704 1023.15 651.04 1021.49 661.189 C 1008.38 637.358 999.433 640.971 980.387 626.344 C 978.185 624.654 971.645 607.322 968.945 602.985 C 965.934 598.147 962.397 593.082 958.886 588.304 C 966.646 573.955 978.34 560.275 982.281 544 C 986.385 527.049 986.213 508.804 987.93 491.506 C 988.982 480.903 987.943 467.479 990.194 457.322 C 994.044 456.88 998.218 457.923 1001.85 455.992 C 1020.09 446.3 1009.9 414.369 1010.59 398.849 C 1012.55 354.469 1005.34 283.393 1021.67 243.059 z"/>
<path transform="translate(0,0)" fill="rgb(0,0,0)" d="M 1021.24 534.831 C 1022.99 542.778 1020.48 549.919 1022.14 555.08 L 1023.32 555.105 C 1024.02 551.795 1024.13 550.795 1024.35 547.398 C 1026.54 558.177 1028.03 585.757 1021.14 594.23 C 1017.09 576.183 1019.71 553.497 1021.24 534.831 z"/>
<path transform="translate(0,0)" fill="rgb(0,0,0)" d="M 1021.37 455.026 C 1024.32 461.663 1026.04 478.574 1022.12 485.098 C 1017.32 475.193 1019.58 465.344 1021.37 455.026 z"/>
<path transform="translate(0,0)" fill="rgb(0,0,0)" d="M 1043.42 464.78 C 1045.25 466.605 1045.34 473.886 1045.2 476.737 C 1044.19 497.148 1055.09 523.681 1054.84 543.073 C 1044.83 526.448 1039.14 484.643 1043.42 464.78 z"/>
<path transform="translate(0,0)" fill="rgb(85,95,109)" d="M 772.659 413.876 C 774.258 407.282 777.46 385.985 784.598 384.819 C 797.741 382.671 796.491 367.343 802.594 362.524 C 811.168 369.384 808.512 398.414 806.805 408.457 C 804.091 424.43 797.247 438.679 804.379 454.315 C 813.757 462.037 821.236 460.824 826.698 449.857 C 829.071 452.327 825.066 468.086 824.657 472.655 C 821.674 505.985 809.786 538.74 805.577 571.591 C 801.428 603.972 810.02 641.394 833.134 665.22 C 850.586 683.353 864.827 688.965 888.18 695.572 C 889.004 698.319 890.821 704.54 892.245 706.722 C 902.297 722.129 914.902 722.934 915.333 743.205 C 913.03 752.133 909.255 762.57 906.296 771.44 C 873.132 763.509 857.789 760.271 827.086 744.373 C 820.653 731.866 817.651 732.307 810.359 722.04 C 807.032 717.357 807.764 709.324 800.339 703.231 C 787.037 692.316 773.018 701.613 763.127 688.382 C 718.048 628.086 756.454 555.957 774.895 493.747 C 786.783 453.645 793.265 434.339 796.334 393.782 C 788.29 399.874 780.287 407.186 772.659 413.876 z"/>
<path transform="translate(0,0)" fill="rgb(44,44,47)" d="M 804.379 454.315 C 813.757 462.037 821.236 460.824 826.698 449.857 C 829.071 452.327 825.066 468.086 824.657 472.655 C 821.674 505.985 809.786 538.74 805.577 571.591 C 801.428 603.972 810.02 641.394 833.134 665.22 C 850.586 683.353 864.827 688.965 888.18 695.572 C 889.004 698.319 890.821 704.54 892.245 706.722 C 902.297 722.129 914.902 722.934 915.333 743.205 C 887.306 735.01 863.551 732.967 837.673 715.46 C 827.887 709.636 822.592 706.291 814.348 698.505 C 790.772 681.518 775.053 647.169 772.376 618.81 C 769.396 587.236 779.41 559.831 786.293 529.75 C 785.194 526.182 782.482 518.403 783.656 515.048 C 786.517 516.104 786.492 517.165 788.688 520.116 C 792.608 513.455 802.815 463.585 804.379 454.315 z"/>
<path transform="translate(0,0)" fill="rgb(0,0,0)" d="M 786.293 529.75 C 785.194 526.182 782.482 518.403 783.656 515.048 C 786.517 516.104 786.492 517.165 788.688 520.116 C 791.438 528.847 802.053 565.656 802.138 573.465 L 801.242 573.923 C 791.892 562.926 792.114 541.402 786.293 529.75 z"/>
<path transform="translate(0,0)" fill="rgb(0,0,0)" d="M 814.348 698.505 C 816.053 697.93 815.794 697.593 817.077 698.439 C 822.922 702.291 837.135 708.088 837.673 715.46 C 827.887 709.636 822.592 706.291 814.348 698.505 z"/>
<path transform="translate(0,0)" fill="rgb(44,44,47)" d="M 1025.23 1691.92 C 1056.31 1710.7 1035.53 1727.05 1058.21 1748.69 C 1064 1754.22 1066.7 1756.08 1071.68 1762.71 C 1073.74 1776.37 1074.31 1810.67 1074.63 1825.77 C 1075.18 1851.2 1077.45 1881.55 1076.95 1906.54 C 1068.15 1915.87 1061.16 1919.47 1049.21 1924.14 C 1027.04 1932.79 985.366 1927.33 970.301 1906.89 C 969.486 1893.48 970.601 1874.29 970.963 1860.37 C 971.594 1833.73 972.488 1807.09 973.643 1780.47 C 973.451 1749.67 990.787 1754.76 1004.82 1736.1 C 1014.23 1723.56 1013.79 1707.26 1025.23 1691.92 z"/>
<path transform="translate(0,0)" fill="rgb(69,69,73)" d="M 1004.27 1754.06 C 1005.66 1749.91 1014.3 1740.85 1017.63 1737.1 C 1018.14 1767.71 1018.3 1798.33 1018.13 1828.95 C 1018.11 1841.25 1017.95 1881.93 1015.65 1892.8 C 1008.65 1900.46 1006.58 1901.34 997.146 1905.33 L 995.504 1906.04 C 994.621 1898.57 994.602 1892.41 991.549 1885.65 L 990.642 1884.94 C 987.085 1887.77 985.818 1902.18 985.727 1906.96 C 980.803 1906.94 975.164 1907.05 970.301 1906.89 C 969.486 1893.48 970.601 1874.29 970.963 1860.37 C 971.594 1833.73 972.488 1807.09 973.643 1780.47 C 983.459 1769.84 988.069 1764.89 999.92 1756.89 L 1001.6 1757.27 L 1004.27 1754.06 z"/>
<path transform="translate(0,0)" fill="rgb(0,0,0)" d="M 1004.27 1754.06 C 1006.9 1786.07 1006.09 1808.73 994.737 1839.62 C 991.914 1816.03 996.637 1781.04 1001.6 1757.27 L 1004.27 1754.06 z"/>
<path transform="translate(0,0)" fill="rgb(0,0,0)" d="M 1052.57 1792.87 C 1056.12 1796.57 1054.07 1831.28 1052.97 1838.15 C 1051.23 1849.02 1045.13 1867.28 1037.34 1875.16 L 1036.69 1874.12 C 1036.26 1864.19 1045.73 1848.86 1047.21 1839.87 C 1049.78 1824.25 1049.72 1808.64 1052.57 1792.87 z"/>
<path transform="translate(0,0)" fill="rgb(97,106,45)" d="M 1083.95 1492.49 C 1086.14 1494.03 1089.32 1497.94 1091.18 1500.32 C 1107.72 1521.39 1110.71 1555.4 1108.97 1581.14 C 1107.66 1600.5 1089.05 1607.31 1080.57 1621.48 C 1073.65 1633.04 1073.11 1647.58 1062.11 1657.69 C 1050.2 1668.63 1036.1 1672.31 1022.69 1681.82 C 1003.22 1695.64 1007.59 1713.77 996.556 1729.35 C 985.321 1743.15 971.694 1745.2 965.131 1763.45 C 958.989 1780.52 963.263 1796.46 960.348 1813.21 C 943.541 1795.68 942.037 1778.99 937.085 1756.27 C 934.761 1745.61 933.144 1739.69 933.205 1728.91 C 933.342 1704.87 952.592 1699.64 960.667 1683.5 C 967.89 1669.07 961.758 1650.49 978.433 1636.88 C 995.87 1622.64 1014.3 1625.35 1029.81 1607.31 C 1041.92 1593.21 1039.88 1581.54 1049.1 1566.6 C 1054.32 1558.13 1062.09 1552.32 1069.28 1545.57 C 1082.81 1532.85 1083.67 1509.87 1083.95 1492.49 z"/>
<path transform="translate(0,0)" fill="rgb(0,0,0)" d="M 1077.74 1578.6 L 1079.12 1580.36 C 1073.54 1590.15 1045.21 1633.69 1038.64 1638.76 C 989.893 1676.39 964.661 1692.38 952.693 1759.05 C 951.936 1714.04 978.957 1671.59 1016.52 1648.1 C 1043.14 1631.46 1059.36 1603.47 1077.74 1578.6 z"/>
<path transform="translate(0,0)" fill="rgb(161,172,85)" d="M 1011.16 1629.09 L 1012.77 1630.02 C 1014.72 1637.65 1001.71 1645.95 996.081 1650.23 C 988.827 1655.74 983.906 1665.1 975.775 1666.87 C 957.703 1652.76 996.862 1631.3 1011.16 1629.09 z"/>
<path transform="translate(0,0)" fill="rgb(161,172,85)" d="M 1060.22 1579.08 C 1058.24 1585.85 1057.56 1593.66 1049.62 1594.72 C 1038.9 1588.59 1045.8 1575.62 1055.87 1571.72 L 1060.22 1579.08 z"/>
<path transform="translate(0,0)" fill="rgb(84,91,38)" d="M 1055.87 1571.72 C 1060.07 1570.14 1062.25 1568.82 1066.34 1570.03 C 1068.98 1574.84 1064.72 1578.29 1060.22 1579.08 L 1055.87 1571.72 z"/>
<path transform="translate(0,0)" fill="rgb(65,72,29)" d="M 1077.74 1578.6 C 1079.64 1576.17 1080.98 1573.67 1083.79 1572.94 C 1083.9 1575.85 1081.13 1578.26 1079.12 1580.36 L 1077.74 1578.6 z"/>
<path transform="translate(0,0)" fill="rgb(44,44,47)" d="M 1249.59 491.289 C 1251.56 486.329 1254.21 479.784 1254.56 474.567 C 1256.49 445.953 1233.59 401.995 1249.57 375.11 C 1272.63 399.06 1265.99 381.024 1275.58 415.097 C 1268.1 407.907 1260.33 399.931 1251.69 394.262 C 1254.43 432.069 1259.79 450.905 1270.82 487.229 C 1276.21 504.664 1281.69 522.071 1287.26 539.447 C 1303.17 588.858 1319.45 642.511 1284.21 688.389 C 1267.85 709.68 1247.89 682.673 1238.4 723.525 C 1227.03 733.889 1225.41 735.19 1220.45 749.812 C 1220 736.108 1220.5 719.066 1216.77 706.394 C 1211.04 695.92 1206.11 688.378 1202 677.052 C 1208.62 668.633 1217.99 662.505 1225.28 651.609 C 1259.84 599.939 1234.68 542.678 1224.3 486.947 C 1233.88 496.27 1237.86 499.048 1249.59 491.289 z"/>
<path transform="translate(0,0)" fill="rgb(85,95,109)" d="M 1224.3 486.947 C 1233.88 496.27 1237.86 499.048 1249.59 491.289 C 1254.65 511.877 1259.31 532.56 1263.57 553.327 C 1266.88 569.531 1270.61 584.998 1271.16 601.609 C 1272.59 644.776 1253.64 683.541 1216.77 706.394 C 1211.04 695.92 1206.11 688.378 1202 677.052 C 1208.62 668.633 1217.99 662.505 1225.28 651.609 C 1259.84 599.939 1234.68 542.678 1224.3 486.947 z"/>
<path transform="translate(0,0)" fill="rgb(0,0,0)" d="M 1242.71 646.826 C 1244.14 657.419 1229.02 672.672 1221.79 679.468 C 1221.14 673.09 1238.01 652.881 1242.71 646.826 z"/>
<path transform="translate(0,0)" fill="rgb(0,0,0)" d="M 1252.59 545.246 C 1252.6 545.377 1252.94 547.796 1252.94 547.983 C 1252.93 558.337 1258.03 568.782 1258.13 578.797 C 1250.8 567.04 1250.22 558.86 1252.59 545.246 z"/>
<path transform="translate(0,0)" fill="url(#Gradient8)" d="M 1085.85 1188.79 C 1112.18 1204 1124.7 1241.57 1111.24 1268.54 C 1108.44 1274.16 1103.68 1288.52 1103.17 1294.06 C 1100.78 1319.83 1110.98 1344.12 1089.06 1365.07 C 1072.8 1382.91 1051.52 1386.66 1036.11 1404.48 C 1026.01 1414.09 1025.99 1441.36 1016.35 1449.31 C 991.18 1470.06 986.683 1461.7 979.996 1497.11 L 971.31 1482.53 C 975.262 1466.47 976.219 1455.94 983.583 1440.19 C 990.789 1424.57 1000.79 1410.4 1013.09 1398.38 C 1046.52 1366.3 1066.84 1362.81 1078.87 1313.23 C 1081.76 1298.7 1085.81 1285.21 1090.03 1271.04 C 1075.92 1294.88 1078.46 1317.69 1063.63 1341.15 C 1055.4 1354.19 1044.29 1363.48 1032.32 1372.94 C 996.28 1401.41 975.244 1423.57 965.706 1469.74 C 959.48 1447.34 961.141 1445.57 962.256 1423.33 C 964.218 1384.19 984.845 1392.61 1004.53 1367.04 C 1012.03 1357.28 1012.66 1336.98 1022.48 1327.59 C 1031.55 1318.76 1042.21 1320.31 1050.43 1309.31 C 1057.84 1299.39 1053.16 1283.42 1057.79 1274.46 C 1061.96 1266.39 1074.15 1255.06 1079.93 1246.81 C 1092.34 1229.1 1089.71 1208.93 1085.85 1188.79 z"/>
<path transform="translate(0,0)" fill="rgb(161,172,85)" d="M 1032.44 1327.9 C 1035.2 1327.89 1035.27 1327.96 1037.97 1328.64 L 1039 1330.54 C 1038.17 1334.8 1022.72 1363.87 1020.08 1367.08 C 1018.26 1366.47 1014.48 1365.58 1014.04 1363.52 C 1011.2 1350.17 1020.65 1333.17 1032.44 1327.9 z"/>
<path transform="translate(0,0)" fill="rgb(70,203,217)" d="M 985.404 248.591 C 989.999 237.026 995.255 218.378 999.099 206.149 C 1006.76 181.458 1014.99 156.947 1023.78 132.633 L 1027.88 144.68 C 1034.33 158.727 1048.76 206.682 1053.86 223.791 C 1064.24 258.626 1079.66 300.213 1088.13 334.58 C 1076.25 325.978 1070.74 323.018 1057.26 317.138 L 1057.05 315.729 C 1055.13 302.56 1058.93 288.693 1053.68 277.906 L 1051.74 276.76 C 1046.11 278.815 1045.34 286.39 1039.78 288.613 C 1033.17 283.297 1042.85 229.811 1024 232.787 C 1010.41 234.932 1008.31 269.774 1006.37 281.368 C 997.698 333.292 1007.61 389.11 1005.09 440.049 C 1003.61 444.135 1002.9 446.545 999.143 448.948 C 989.831 449.55 988.894 436.617 988.443 429.781 C 987.917 423.09 990.445 410.141 991.608 402.589 C 995.186 378.696 999.338 350.555 992.735 327.005 C 988.248 311.003 966.304 329.634 959.058 334.567 C 963.309 313.763 978.306 270.69 985.404 248.591 z"/>
<path transform="translate(0,0)" fill="rgb(166,243,248)" d="M 985.404 248.591 C 989.999 237.026 995.255 218.378 999.099 206.149 C 1006.76 181.458 1014.99 156.947 1023.78 132.633 L 1027.88 144.68 C 1027.2 147.812 1022.37 180.036 1022.73 179.346 C 1015.25 193.831 1003 237.427 995.062 248.531 C 991.182 250.214 989.428 250.263 985.404 248.591 z"/>
<path transform="translate(0,0)" fill="rgb(199,243,251)" d="M 988.443 429.781 C 993.05 429.411 992.976 428.669 997.045 432.29 C 999.099 434.118 1003.91 438.046 1005.09 440.049 C 1003.61 444.135 1002.9 446.545 999.143 448.948 C 989.831 449.55 988.894 436.617 988.443 429.781 z"/>
<path transform="translate(0,0)" fill="url(#Gradient7)" d="M 1085.06 987.081 C 1100.91 1001.85 1111.28 1017.44 1112.85 1039.52 C 1114.2 1058.52 1102.29 1071.95 1097.99 1089.46 C 1093.75 1108.13 1103.79 1122.14 1087.69 1138.26 C 1070.08 1155.89 1046.74 1162.96 1039.67 1189.33 L 1038.13 1188.79 C 1033.92 1183.76 1028.11 1179.4 1022.82 1175.49 C 1034.68 1164.18 1046.86 1154.19 1057.86 1141.93 C 1072.98 1125.1 1074.52 1107.9 1081.21 1087.07 C 1084.48 1076.88 1089.05 1066.66 1093.46 1056.79 C 1072.64 1082.65 1076.72 1102.41 1060.63 1128.66 C 1055.28 1137.4 1042.73 1149.18 1035.02 1155.99 C 1005.74 1181.88 993.163 1194.91 978.801 1231.35 C 973.787 1209.02 977.568 1185.85 996.606 1171.72 C 1023.02 1152.1 1021.97 1133.95 1029.34 1105.06 C 1033.31 1095.45 1034.42 1092.73 1041.81 1085.43 C 1048.41 1079.06 1055.22 1077.08 1061.75 1071.69 C 1086.93 1050.88 1083.64 1015.86 1085.06 987.081 z"/>
<path transform="translate(0,0)" fill="rgb(161,172,85)" d="M 1041.81 1085.43 C 1049.55 1084.15 1057.77 1079.51 1065.23 1080.87 C 1074.63 1088.84 1054.77 1098.13 1050.16 1103.68 C 1045.05 1109.81 1039.94 1128.78 1034.13 1131.56 C 1030.05 1127.97 1030.32 1111.32 1029.34 1105.06 C 1033.31 1095.45 1034.42 1092.73 1041.81 1085.43 z"/>
<path transform="translate(0,0)" fill="url(#Gradient6)" d="M 895.457 689.257 C 886.041 680.25 875.173 685.65 869.712 678.737 C 870.105 676.047 870.041 675.992 873.197 673.782 C 882.039 667.593 889.015 673.359 899.441 670.421 C 905.294 668.772 917.365 665.763 922.234 669.876 C 929.072 675.651 935.281 687.542 940.823 695.076 C 945.471 701.395 953.061 708.257 956.749 714.238 C 958.805 717.513 960.106 721.205 960.558 725.045 C 962.396 740.95 953.314 750.066 952.427 756.488 L 956.279 753.398 C 959.223 760.271 960.93 780.408 956.851 786.849 C 941.169 811.614 952.197 839.179 958.39 865.2 C 959.766 870.979 968.983 880.544 967.598 886.688 C 961.496 887.239 940.625 872.04 935.112 867.531 C 906.651 844.254 900.883 816.513 910.953 782.328 C 912.311 785.406 914.478 791.493 916.89 793.279 C 918.229 790.929 917.66 789.112 917.358 786.351 C 913.007 771.155 917.271 763.848 921.861 748.846 L 926.471 750.442 C 926.854 751.893 927.032 752.25 927.147 753.742 L 928.147 754.146 L 928.795 745.006 L 929.122 743.982 C 932.751 738.186 930.999 733.753 929.691 727.041 C 929.408 727.865 928.669 729.281 928.267 730.117 L 926.52 729.734 C 923.955 726.301 923.465 725.434 919.633 723.573 L 914.043 717.22 C 901.95 708.289 900.803 703.081 895.457 689.257 z"/>
<path transform="translate(0,0)" fill="rgb(0,0,0)" d="M 935.949 722.597 C 931.031 707.304 922.019 695.621 913.279 682.051 C 941.163 709.863 951.387 734.556 937.066 772.472 C 927.734 797.18 925.962 809.778 930.992 835.794 C 923.441 819.477 924.139 808.191 926.709 790.549 C 934.402 765.498 941.324 748.502 935.949 722.597 z"/>
<path transform="translate(0,0)" fill="rgb(161,172,85)" d="M 895.457 689.257 C 916.589 693.028 921.218 703.618 928.837 721.544 L 929.691 727.041 C 929.408 727.865 928.669 729.281 928.267 730.117 L 926.52 729.734 C 923.955 726.301 923.465 725.434 919.633 723.573 L 914.043 717.22 C 901.95 708.289 900.803 703.081 895.457 689.257 z"/>
<path transform="translate(0,0)" fill="rgb(142,151,79)" d="M 914.043 717.22 C 919.725 719.574 922.589 721.095 928.837 721.544 L 929.691 727.041 C 929.408 727.865 928.669 729.281 928.267 730.117 L 926.52 729.734 C 923.955 726.301 923.465 725.434 919.633 723.573 L 914.043 717.22 z"/>
<path transform="translate(0,0)" fill="rgb(97,106,45)" d="M 928.795 745.006 L 929.262 748.438 L 930.328 749.058 C 932.194 747.045 933.839 729.721 935.949 722.597 C 941.324 748.502 934.402 765.498 926.709 790.549 C 925.034 781.317 934.564 767.303 932.316 757.759 L 930.763 757.216 C 927.635 764.737 931.215 767.519 925.201 773.144 C 925.994 770.713 925.874 769.959 926.003 767.372 C 927.965 761.234 928.355 760.688 928.147 754.146 L 928.795 745.006 z"/>
<path transform="translate(0,0)" fill="rgb(142,151,79)" d="M 921.861 748.846 L 926.471 750.442 C 926.854 751.893 927.032 752.25 927.147 753.742 L 928.147 754.146 C 928.355 760.688 927.965 761.234 926.003 767.372 C 925.874 769.959 925.994 770.713 925.201 773.144 L 924.892 775.655 L 923.488 776.569 C 922.146 771.969 921.607 769.802 919.541 765.554 C 914.754 771.048 918.8 780.558 917.358 786.351 C 913.007 771.155 917.271 763.848 921.861 748.846 z"/>
<path transform="translate(0,0)" fill="rgb(161,172,85)" d="M 927.147 753.742 L 928.147 754.146 C 928.355 760.688 927.965 761.234 926.003 767.372 C 920.155 763.719 922.439 757.056 927.147 753.742 z"/>
<path transform="translate(0,0)" fill="url(#Gradient5)" d="M 1074.45 893.929 C 1092.36 885.397 1109.28 873.362 1124.44 866.61 C 1126.2 877.644 1128.64 897.248 1121.67 906.602 C 1114.29 916.51 1101.91 917.164 1093.2 928.839 C 1084.31 940.747 1088.07 950.045 1081.52 961.795 C 1075.5 972.587 1059.49 972.804 1051.61 981.798 C 1044 990.485 1045 1003.08 1036.46 1010.93 C 1027.71 1018.96 1012.73 1018.03 1004.62 1025.91 C 999.065 1031.3 995.432 1048.08 990.198 1052.69 C 979.516 1049.32 991.202 1022.86 994.461 1016.55 C 1003.96 998.138 1023.74 990.736 1037.52 976.663 C 1043.93 970.08 1050.73 956.598 1055.36 948.122 C 1066.34 928.026 1083.3 917.249 1101.62 904.494 C 1080.23 912.69 1057.46 930.104 1047.76 951.047 C 1032.84 983.268 1000.42 986.936 986.714 1017.39 C 983.508 1024.51 981.718 1031.46 979.214 1038.66 C 974.711 1023.52 974.109 1009.83 981.836 995.284 C 985.396 988.586 1010.96 961.085 1016.23 957.709 L 1030.66 945.36 C 1039.18 934.178 1040.66 925.841 1047.4 914.452 C 1050.43 909.681 1051.15 908.621 1055.18 904.704 C 1061.02 899.048 1066.99 897.131 1074.45 893.929 z"/>
<path transform="translate(0,0)" fill="rgb(161,172,85)" d="M 1055.18 904.704 C 1061.02 899.048 1066.99 897.131 1074.45 893.929 C 1078.12 895.572 1084.55 897.7 1086.94 900.063 C 1085.77 902.812 1058.7 926.915 1053.47 926.782 C 1049.81 923.004 1049.59 918.993 1047.4 914.452 C 1050.43 909.681 1051.15 908.621 1055.18 904.704 z"/>
<path transform="translate(0,0)" fill="rgb(97,106,45)" d="M 1055.18 904.704 C 1061.02 899.048 1066.99 897.131 1074.45 893.929 C 1078.12 895.572 1084.55 897.7 1086.94 900.063 L 1085.28 900.283 C 1078.87 901.097 1072.47 900.861 1065.95 902.045 C 1062 902.763 1058.91 904.081 1055.18 904.704 z"/>
<path transform="translate(0,0)" fill="rgb(121,130,61)" d="M 1030.66 945.36 C 1034.72 953.007 1035.47 962.992 1024.19 963.119 C 1021.28 961.983 1018.09 960.325 1016.23 957.709 L 1030.66 945.36 z"/>
<path transform="translate(0,0)" fill="rgb(44,44,47)" d="M 1070.14 717.708 C 1078.21 709.701 1087.61 698.028 1099.83 698.525 C 1108.8 698.891 1117.56 700.512 1126.49 701.282 C 1133.63 701.751 1142.39 699.498 1150.3 700.392 C 1152.73 706.646 1147.55 722.275 1148.34 731.317 C 1148.76 732.604 1148.96 733.732 1149.28 734.961 C 1152.51 747.11 1158.23 754.316 1160.14 767.125 C 1120.24 781.189 1095.28 771.136 1078.29 818.76 C 1062.84 795.184 1063.2 791.809 1064.47 763.917 C 1062.86 755.391 1061.06 752.257 1056.75 745.111 C 1058.74 732.949 1062.88 727.158 1070.14 717.708 z"/>
<path transform="translate(0,0)" fill="rgb(85,95,109)" d="M 1070.14 717.708 C 1078.21 709.701 1087.61 698.028 1099.83 698.525 C 1108.8 698.891 1117.56 700.512 1126.49 701.282 C 1133.63 701.751 1142.39 699.498 1150.3 700.392 C 1152.73 706.646 1147.55 722.275 1148.34 731.317 L 1147.64 734.27 C 1144.16 736.276 1137.88 736.481 1133.49 737.236 C 1103.52 742.387 1086.33 740.573 1064.47 763.917 C 1062.86 755.391 1061.06 752.257 1056.75 745.111 C 1058.74 732.949 1062.88 727.158 1070.14 717.708 z"/>
<path transform="translate(0,0)" fill="rgb(97,106,45)" d="M 966.491 1169.85 C 969.955 1172.39 968.025 1199.94 967.952 1205.85 C 966.776 1228.73 970.302 1252.98 990.704 1267.33 C 1013.03 1283.02 1004.88 1300.17 1013.67 1323.46 C 1008.12 1330.76 1006.38 1335.2 1002.79 1343.52 C 960.008 1299.96 977.268 1279.29 955.487 1238.4 C 959.121 1253.16 962.985 1269.85 965.438 1284.76 C 972.344 1317.38 980.805 1330.26 1000.03 1355.57 C 995.83 1361.88 991.992 1367.64 986.053 1372.41 C 968.372 1361.13 960.464 1354.14 959.493 1332.19 C 958.662 1313.41 946.302 1306.82 936.433 1292.98 C 921.782 1272.43 941.449 1253.92 943.087 1235.61 C 945.682 1206.61 936.127 1189.22 966.491 1169.85 z"/>
<path transform="translate(0,0)" fill="rgb(161,172,85)" d="M 943.406 1255.39 L 946.537 1255.97 C 953.201 1260.12 951.674 1281.54 950.102 1288.65 C 949.813 1289.96 948.127 1290.07 946.897 1290.51 C 935.036 1280.69 934.048 1267.46 943.406 1255.39 z"/>
<path transform="translate(0,0)" fill="rgb(84,91,38)" d="M 958.26 657.537 C 954.444 647.14 947.828 619.528 960.119 612.92 L 962.798 613.057 C 964.629 617.096 970.444 630.29 973.23 632.623 C 984.902 642.4 1002.07 645.219 1010.32 659.51 C 1020.53 677.186 1017.84 699.878 1024.69 719.075 C 1029.24 734.178 1044.41 742.959 1051.51 755.969 C 1057.75 767.39 1053.24 783.843 1056.09 796.452 C 1059.2 810.163 1066.43 819.086 1073.02 831.094 C 1080.78 845.245 1076.25 867.064 1070.72 881.907 C 1066.86 883.986 1062.97 885.994 1059.04 887.929 C 1058.53 871.211 1058.32 854.179 1053.81 837.944 C 1047.24 814.344 1032.21 793.691 1023.76 770.846 C 1013.22 742.315 1012.29 715.071 989.659 692.435 C 989.014 691.606 984.151 687.708 982.883 686.516 C 973.085 677.303 963.634 670.122 958.26 657.537 z"/>
<path transform="translate(0,0)" fill="rgb(161,172,85)" d="M 992.082 656.593 C 1007.67 659.217 1017.91 676.162 1009.41 689.677 C 1000.26 686.869 992.782 671.923 989.53 663.354 C 988.439 660.48 990.51 658.755 992.082 656.593 z"/>
<path transform="translate(0,0)" fill="rgb(44,44,47)" d="M 1033.11 1441.15 C 1043.81 1465.96 1056.14 1458.47 1071.85 1473.23 C 1072.26 1488.62 1074.64 1528.69 1064.32 1536.87 C 1043.42 1553.42 1040.33 1554 1030.04 1581.8 C 1028.04 1575.51 1025.22 1559.66 1023.22 1555.16 L 1021.83 1551.75 C 1014.52 1540.94 1003.43 1536.63 991.964 1530.67 C 988.031 1523.56 987.397 1519.83 985.255 1511.9 C 985.766 1501.33 991.359 1482.16 999.568 1475.52 C 1016.6 1461.73 1024.04 1463.39 1033.11 1441.15 z"/>
<path transform="translate(0,0)" fill="rgb(69,69,73)" d="M 1006.79 1486.81 C 1007.39 1498.57 1007.55 1522.46 1011.52 1532.22 L 1012.68 1532.54 C 1017.05 1521.34 1013.16 1482.11 1017.22 1476.39 L 1019.16 1476.43 C 1020.66 1478.76 1020.83 1479.04 1021.82 1481.62 C 1022.32 1493.56 1023.63 1504.89 1024.17 1516.38 C 1025.42 1519.45 1025.64 1522.51 1026.11 1525.8 C 1025.99 1531.18 1025.72 1551.27 1023.22 1555.16 L 1021.83 1551.75 C 1014.52 1540.94 1003.43 1536.63 991.964 1530.67 C 988.031 1523.56 987.397 1519.83 985.255 1511.9 C 992.68 1509.32 1001.95 1493.83 1006.79 1486.81 z"/>
<path transform="translate(0,0)" fill="rgb(67,64,63)" d="M 1024.17 1516.38 C 1025.42 1519.45 1025.64 1522.51 1026.11 1525.8 C 1025.99 1531.18 1025.72 1551.27 1023.22 1555.16 L 1021.83 1551.75 L 1023.16 1549.37 C 1022.67 1544.23 1021.59 1519.55 1024.17 1516.38 z"/>
<path transform="translate(0,0)" fill="rgb(0,0,0)" d="M 1021.82 1481.62 C 1027.68 1486.88 1032.61 1527.32 1030.61 1535.82 L 1029.22 1536.09 C 1026.84 1533.04 1026.73 1529.66 1026.11 1525.8 C 1025.64 1522.51 1025.42 1519.45 1024.17 1516.38 C 1023.63 1504.89 1022.32 1493.56 1021.82 1481.62 z"/>
<path transform="translate(0,0)" fill="rgb(97,106,45)" d="M 933.362 1473.81 C 935.641 1466.12 945.762 1447.03 951.996 1441.81 L 952.78 1442.21 L 953.487 1448.25 C 955.692 1474.92 957.584 1480.08 972.632 1502.49 C 977.903 1510.34 976.883 1531.81 987.353 1538.63 C 992.214 1542.71 1005.55 1547.55 1008.82 1551.35 C 1020.77 1565.21 1013.84 1575.94 1026.73 1593.27 C 1022.72 1599.85 1020.77 1601.95 1015.15 1607.35 C 997.608 1590.93 981.354 1577.11 972.18 1554.07 C 968.079 1543.77 963.723 1530.16 957.699 1521.12 C 972.692 1569.07 973.011 1573.04 1005.19 1612.72 L 984.247 1621.89 L 983.137 1620.53 C 973.693 1609.06 959.308 1601.1 952.314 1588.7 C 946.529 1578.45 953.426 1559.4 950.7 1547.81 C 944.806 1522.73 922.409 1511.57 930.923 1482.77 L 933.362 1473.81 z"/>
<path transform="translate(0,0)" fill="rgb(161,172,85)" d="M 933.362 1473.81 C 937.806 1472.99 940.575 1471.91 944.807 1470.25 C 944.911 1478.74 947.031 1506 944.136 1510.59 C 933.045 1515.1 931.27 1488.52 930.923 1482.77 L 933.362 1473.81 z"/>
<path transform="translate(0,0)" fill="url(#Gradient4)" d="M 933.362 1473.81 C 935.641 1466.12 945.762 1447.03 951.996 1441.81 L 952.78 1442.21 L 953.487 1448.25 C 951.225 1460.09 943.705 1452.48 944.807 1470.25 C 940.575 1471.91 937.806 1472.99 933.362 1473.81 z"/>
<path transform="translate(0,0)" fill="rgb(161,172,85)" d="M 959.14 1570.7 C 969.034 1571.96 975.664 1583.33 970.193 1592.23 C 957.917 1592.29 951.41 1580.54 959.14 1570.7 z"/>
<path transform="translate(0,0)" fill="rgb(70,203,217)" d="M 1213.29 315.945 C 1225.61 294.14 1239.62 274.936 1259.56 259.411 C 1256.3 279.894 1254.49 302.551 1256.47 323.276 C 1257.92 344.066 1261.69 361.585 1266.3 381.663 C 1262.82 377.646 1256.33 369.366 1252.01 367.246 C 1234.21 367.273 1238.21 408.568 1239.17 419.17 C 1240.96 438.891 1250 461.825 1246.76 481.332 C 1244.14 486.308 1242.81 488.492 1237.1 487.696 C 1231.57 483.967 1230.94 480.415 1228.91 474.1 C 1226.02 458.438 1228.48 441.294 1228.96 425.418 C 1229.34 413.047 1231.38 345.923 1226.5 338.75 C 1224.91 336.412 1223.56 336.142 1220.91 335.704 C 1216.53 337.195 1215.96 338.335 1212.62 341.831 C 1212.43 339.84 1215.45 320.411 1216.07 318.914 L 1213.29 315.945 z"/>
<path transform="translate(0,0)" fill="rgb(166,243,248)" d="M 1213.29 315.945 C 1225.61 294.14 1239.62 274.936 1259.56 259.411 C 1256.3 279.894 1254.49 302.551 1256.47 323.276 L 1255.74 325.818 L 1254.51 326.233 C 1248.23 322.476 1247.18 298.762 1246.35 291.264 C 1231.46 300.07 1225.06 316.957 1218.46 320.577 L 1216.07 318.914 L 1213.29 315.945 z"/>
<path transform="translate(0,0)" fill="rgb(166,243,248)" d="M 1228.91 474.1 C 1231.15 471.411 1232.01 470.053 1235.02 468.167 C 1242.7 467.917 1244.07 474.999 1246.76 481.332 C 1244.14 486.308 1242.81 488.492 1237.1 487.696 C 1231.57 483.967 1230.94 480.415 1228.91 474.1 z"/>
<path transform="translate(0,0)" fill="rgb(70,203,217)" d="M 788.362 259.3 C 806.83 273.697 828.362 300.514 837.803 321.882 C 846.693 337.225 856.236 367.586 858.657 384.728 C 845.433 372.686 841.566 354.729 830.03 352.039 C 806.18 358.692 834.164 444.459 814.735 452.261 C 795.401 448.394 830.937 367.926 803.503 355.698 C 800.56 355.849 799.837 355.907 796.971 356.526 C 795.336 362.215 790.199 377.617 784.016 379.052 C 780.793 375.786 785.624 364.92 786.712 359.563 C 793.789 324.687 794.743 294.218 788.362 259.3 z"/>
<path transform="translate(0,0)" fill="rgb(166,243,248)" d="M 788.362 259.3 C 806.83 273.697 828.362 300.514 837.803 321.882 C 828.203 320.243 818.342 297.723 802.799 289.081 C 798.883 307.335 799.35 317.273 798.896 335.834 C 798.762 341.301 796.525 351.655 796.971 356.526 C 795.336 362.215 790.199 377.617 784.016 379.052 C 780.793 375.786 785.624 364.92 786.712 359.563 C 793.789 324.687 794.743 294.218 788.362 259.3 z"/>
<path transform="translate(0,0)" fill="rgb(84,91,38)" d="M 1182.62 650.992 C 1189.84 642.964 1204.51 642.95 1212.69 648.615 C 1215.35 654.305 1202.11 662.355 1197.74 666.573 C 1193.22 681.898 1195.71 686.623 1203.32 700.895 C 1201.73 706.213 1196.5 720.95 1198.43 725.197 C 1202.6 722.426 1205.7 715.278 1208.15 710.608 C 1209.07 713.333 1210.09 716.181 1210.39 719.053 C 1211.05 725.403 1210.04 731.968 1210.31 738.364 C 1210.69 747.169 1212.8 755.828 1212.64 764.686 C 1212.57 768.739 1212.2 773.114 1210.31 776.778 C 1207.67 781.924 1197.2 790.645 1192.36 798.828 C 1187.03 807.848 1186.35 818.723 1180.92 827.413 C 1172.21 841.355 1123.63 857.277 1106.25 864.564 C 1118.2 854.769 1129.98 844.76 1141.56 834.541 C 1166.61 812.801 1185.46 798.319 1189.5 762.749 C 1192.67 734.726 1181.79 717.689 1177.5 691.556 C 1175.9 681.774 1180.22 673.384 1180.22 665.981 C 1181.38 662.577 1181.91 662.948 1180.97 660.235 L 1176.18 659.51 L 1175.93 658.385 C 1180.37 655.443 1181.17 655.61 1182.62 650.992 z"/>
<path transform="translate(0,0)" fill="url(#Gradient3)" d="M 1072.69 1661.79 C 1075.83 1664.34 1079.26 1671.92 1082.36 1675.18 C 1088.81 1681.97 1095.81 1687.77 1101.41 1695.36 C 1112.03 1708.64 1105.17 1726.2 1106.41 1740.29 C 1109.52 1775.69 1110.32 1785.77 1086.12 1812.79 C 1086.09 1799.26 1086.65 1785.94 1084.96 1772.49 C 1082.48 1752.9 1066.74 1746.97 1058.11 1731.31 C 1050.7 1709.16 1056.62 1703.86 1032.98 1686.11 C 1038.7 1682.68 1046.4 1679.05 1052.49 1675.99 C 1079.39 1702.33 1080.01 1714.47 1094.69 1745.24 C 1088.93 1715.97 1077.87 1695.33 1061.41 1671.13 L 1072.69 1661.79 z"/>
<path transform="translate(0,0)" fill="rgb(70,203,217)" d="M 745.724 674.645 C 754.811 685.673 759.905 704.791 775.458 703.936 C 797.121 702.745 795.271 711.238 805.783 726.955 C 808.725 731.354 813.588 737.354 817.066 742.348 C 814.547 746.271 809.114 743.599 807.151 748.487 C 803.879 756.637 805.556 763.44 800.127 771.441 L 798.594 771.579 C 790.188 761.47 800.331 736.958 781.806 733.775 C 779.21 733.329 775.46 736.065 773.839 738.292 C 763.026 753.145 765.18 772.389 766.998 788.941 C 768.811 805.436 777.793 836.808 770.95 850.917 C 769.313 853.878 765.116 860.143 761.279 858.755 C 743.833 852.443 751.991 814.748 754.29 801.643 C 757.522 782.263 758.692 769.278 758.293 749.263 C 754.873 720.551 748.651 720.147 742.512 698.063 C 739.735 688.971 741.821 683.207 745.724 674.645 z"/>
<path transform="translate(0,0)" fill="rgb(166,243,248)" d="M 754.29 801.643 C 761.817 807.128 758.488 819.432 758.816 828.331 C 759.383 843.705 760.793 842.622 770.95 850.917 C 769.313 853.878 765.116 860.143 761.279 858.755 C 743.833 852.443 751.991 814.748 754.29 801.643 z"/>
<path transform="translate(0,0)" fill="rgb(166,243,248)" d="M 742.512 698.063 L 744.09 697.989 C 750.133 705.763 766.547 740.416 759.478 748.943 L 758.293 749.263 C 754.873 720.551 748.651 720.147 742.512 698.063 z"/>
<path transform="translate(0,0)" fill="url(#Gradient2)" d="M 941.21 674.21 C 933.926 658.862 931.372 648.854 945.699 637.249 C 946.796 641.879 948.147 646.546 949.412 651.141 C 951.905 654.558 953.978 657.222 957.917 659.037 L 958.26 657.537 C 963.634 670.122 973.085 677.303 982.883 686.516 C 984.151 687.708 989.014 691.606 989.659 692.435 C 994.19 703.249 1002.04 713.131 1005.43 724.697 C 1012.54 748.933 1015.94 770.506 1027.68 793.303 C 1025.28 799.387 1024.71 798.731 1018.24 799.692 C 1014.14 798.41 1011.88 798.395 1007.55 798.019 C 999.715 790.455 992.516 783.304 992.641 771.858 C 993.67 764.279 993.355 750.018 991.497 742.61 C 982.539 714.1 958.682 709.89 946.029 681.833 C 944.173 678.292 943.632 677.359 941.21 674.21 z"/>
<path transform="translate(0,0)" fill="rgb(161,172,85)" d="M 991.497 742.61 C 994.645 741.132 996.615 739.743 1000.01 740.133 C 1003.71 743.838 1004.5 760.999 1006.5 767.074 C 1008.36 772.687 1010.42 779.828 1011.69 785.62 C 1011.95 787.107 1008.82 789.375 1007.76 790.208 C 1012.23 790.586 1010.64 789.657 1013.41 791.939 C 1015.44 797.562 1014.16 796.535 1018.24 799.692 C 1014.14 798.41 1011.88 798.395 1007.55 798.019 C 999.715 790.455 992.516 783.304 992.641 771.858 C 993.67 764.279 993.355 750.018 991.497 742.61 z"/>
<path transform="translate(0,0)" fill="rgb(84,91,38)" d="M 992.641 771.858 C 997.58 781.278 998.581 785.029 1007.76 790.208 C 1012.23 790.586 1010.64 789.657 1013.41 791.939 C 1015.44 797.562 1014.16 796.535 1018.24 799.692 C 1014.14 798.41 1011.88 798.395 1007.55 798.019 C 999.715 790.455 992.516 783.304 992.641 771.858 z"/>
<path transform="translate(0,0)" fill="rgb(142,151,79)" d="M 941.21 674.21 C 933.926 658.862 931.372 648.854 945.699 637.249 C 946.796 641.879 948.147 646.546 949.412 651.141 C 948.552 659.766 945.786 666.883 941.21 674.21 z"/>
<path transform="translate(0,0)" fill="rgb(24,29,4)" d="M 949.412 651.141 C 951.905 654.558 953.978 657.222 957.917 659.037 C 950.087 666.225 948.195 671.314 946.029 681.833 C 944.173 678.292 943.632 677.359 941.21 674.21 C 945.786 666.883 948.552 659.766 949.412 651.141 z"/>
<path transform="translate(0,0)" fill="url(#Gradient1)" d="M 1070.44 1390.86 C 1100.73 1406.24 1090.84 1406.64 1098.51 1435.7 C 1099.63 1439.94 1109.06 1449.01 1110.86 1454.32 C 1116.21 1470.16 1109.36 1487.89 1103.52 1502.26 C 1094.08 1490.77 1086.02 1487.7 1081.97 1474.22 C 1078.23 1461.75 1059.9 1454.91 1048.32 1449.81 C 1044.63 1445.05 1043.25 1442.02 1040.57 1436.73 L 1035.85 1426.5 C 1039.72 1418.8 1041.56 1415.5 1046.51 1408.52 C 1074.64 1429.18 1083.37 1442.46 1097.11 1472.42 L 1097.85 1471.57 C 1096.2 1448.53 1069.21 1417.96 1054.42 1401.72 C 1060.13 1397.31 1064.29 1394.67 1070.44 1390.86 z"/>
<path transform="translate(0,0)" fill="rgb(97,106,45)" d="M 1182.62 650.992 C 1181.17 655.61 1180.37 655.443 1175.93 658.385 L 1176.18 659.51 L 1180.97 660.235 C 1181.91 662.948 1181.38 662.577 1180.22 665.981 C 1160.11 707.714 1205.84 750.211 1168.68 800.474 C 1161.89 809.655 1153.15 816.893 1144.71 824.474 C 1136.16 832.148 1127.52 842.011 1117.99 848.262 C 1112.21 848.607 1113.45 849.012 1107.97 852.981 L 1107.5 852.297 C 1108.6 850.197 1109.73 848.109 1110.88 846.031 C 1110.97 845.862 1116.74 838.703 1117.4 837.804 C 1124.04 828.823 1125.63 823.949 1129.07 813.547 C 1132.64 804.84 1139.08 802.347 1147.04 798.023 C 1168.18 785.12 1173.54 772.179 1164.26 749.037 C 1160.14 742.181 1158.66 737.834 1156.31 730.364 C 1156.02 725.794 1158.91 705.611 1159.51 699.733 C 1156.73 686.359 1151.94 673.808 1162.16 662.584 C 1170.49 658.606 1175.56 657.014 1182.62 650.992 z"/>
<path transform="translate(0,0)" fill="rgb(161,172,85)" d="M 1162.16 662.584 L 1163.13 662.626 C 1170.12 662.886 1170.99 661.384 1177.92 662.822 C 1177.2 663.237 1177.59 663.125 1176.73 663.135 C 1176.42 667.041 1164.39 680.41 1168.35 690.972 C 1169.05 692.856 1171.96 706.346 1171.58 707.68 L 1170.88 708.152 C 1166.9 710.587 1167.97 710.709 1163.9 710.834 C 1160.61 708.093 1160.22 704.107 1159.51 699.733 C 1156.73 686.359 1151.94 673.808 1162.16 662.584 z"/>
<path transform="translate(0,0)" fill="rgb(161,172,85)" d="M 1159.51 699.733 C 1160.22 704.107 1160.61 708.093 1163.9 710.834 C 1167.97 710.709 1166.9 710.587 1170.88 708.152 C 1166.65 713.705 1167.87 716.686 1166.64 724.532 C 1169.2 731.027 1170.49 734.568 1172.26 741.317 L 1164.26 749.037 C 1160.14 742.181 1158.66 737.834 1156.31 730.364 C 1156.02 725.794 1158.91 705.611 1159.51 699.733 z"/>
<path transform="translate(0,0)" fill="rgb(121,130,61)" d="M 1159.51 699.733 C 1160.22 704.107 1160.61 708.093 1163.9 710.834 C 1167.97 710.709 1166.9 710.587 1170.88 708.152 C 1166.65 713.705 1167.87 716.686 1166.64 724.532 L 1165.2 721.905 C 1161.58 722.699 1158.85 727.161 1156.31 730.364 C 1156.02 725.794 1158.91 705.611 1159.51 699.733 z"/>
<path transform="translate(0,0)" fill="rgb(161,172,85)" d="M 1129.07 813.547 C 1132.64 804.84 1139.08 802.347 1147.04 798.023 C 1158 807.538 1140.67 824.745 1131.11 819.023 C 1130.05 818.389 1129.4 814.948 1129.07 813.547 z"/>
<path transform="translate(0,0)" fill="rgb(97,106,45)" d="M 949.442 978.887 C 953.182 974.184 955.666 972.145 960.102 968.248 L 966.954 977.662 C 966.78 1022.86 957.917 1049.44 1000.97 1073.5 C 1006.79 1076.76 1013.49 1097.84 1017.34 1105.29 C 1015.49 1115.37 1013.76 1125.41 1011.29 1135.35 C 996.445 1117.73 998.389 1107.71 988.162 1090.84 C 974.05 1067.56 959.694 1066.1 954.51 1035.25 C 953.783 1037.18 952.944 1039.19 952.418 1041.17 L 951.566 1032.63 C 947.12 1031.47 946.67 1031.77 942.003 1032.68 L 940.569 1033.93 C 940.484 1026.89 939.361 1018.53 938.588 1011.42 C 937.141 997.81 940.792 989.044 949.442 978.887 z"/>
<path transform="translate(0,0)" fill="rgb(161,172,85)" d="M 949.442 978.887 C 955.943 986.751 949.926 1010.66 945.976 1019.3 C 943.601 1016.64 941.21 1013.82 938.588 1011.42 C 937.141 997.81 940.792 989.044 949.442 978.887 z"/>
<path transform="translate(0,0)" fill="rgb(24,29,4)" d="M 951.566 1032.63 C 952.056 1030.11 951.749 1028.94 953.277 1027.73 C 954.082 1031.05 954.222 1031.85 954.51 1035.25 C 953.783 1037.18 952.944 1039.19 952.418 1041.17 L 951.566 1032.63 z"/>
<path transform="translate(0,0)" fill="rgb(70,203,217)" d="M 1245.33 726.44 C 1249.64 709.912 1250.56 705.827 1268.54 705.1 C 1286.47 704.375 1292.59 687.551 1302.77 675.469 C 1303.79 678.223 1306.47 685.212 1306.37 687.756 C 1305.44 712.337 1291.48 720.758 1289.1 748.244 C 1286.73 775.681 1293.96 792.228 1294.1 816.207 C 1292.96 820.321 1292.09 822.529 1288.68 825.028 C 1279.25 826.192 1279.54 813.631 1279.76 807.373 C 1280.93 795.025 1293.95 715.311 1257.85 738.052 C 1253.65 740.696 1253.9 751.042 1244.62 753.646 C 1237.72 752.912 1235.58 749.308 1227.97 747.365 C 1233.38 737.198 1236.93 734.248 1245.33 726.44 z"/>
<path transform="translate(0,0)" fill="rgb(199,243,251)" d="M 1279.76 807.373 C 1284.81 810.809 1288.59 813.532 1294.1 816.207 C 1292.96 820.321 1292.09 822.529 1288.68 825.028 C 1279.25 826.192 1279.54 813.631 1279.76 807.373 z"/>
<path transform="translate(0,0)" fill="rgb(44,44,47)" d="M 996.16 1259.42 C 995.016 1256.55 995.419 1257.32 996.932 1253.5 C 1004.54 1234.27 1016.58 1232.35 1034.1 1224.62 C 1043.08 1244.83 1044.81 1240.22 1058.52 1253.64 C 1054.28 1259.07 1050.57 1263.57 1048.54 1270.3 C 1043 1288.69 1047.62 1312.84 1021.1 1314.53 C 1019.38 1312.36 1019.1 1309.84 1019.05 1306.91 C 1018.16 1282.21 1015.09 1274.79 996.16 1259.42 z"/>
<path transform="translate(0,0)" fill="rgb(69,69,73)" d="M 996.16 1259.42 C 1007.1 1253.14 1005.05 1248.01 1022.17 1241.32 C 1021.85 1247.14 1021.13 1251.88 1021.17 1257.89 C 1020.74 1266.34 1020.27 1271.93 1021.29 1280.27 C 1022.91 1289.43 1022.57 1297.59 1021.44 1306.83 L 1020.36 1308.21 L 1019.05 1306.91 C 1018.16 1282.21 1015.09 1274.79 996.16 1259.42 z"/>
<path transform="translate(0,0)" fill="rgb(0,0,0)" d="M 1021.17 1257.89 C 1023.8 1262.42 1024.24 1276.02 1021.29 1280.27 C 1020.27 1271.93 1020.74 1266.34 1021.17 1257.89 z"/>
<path transform="translate(0,0)" fill="rgb(97,106,45)" d="M 928.426 872.374 C 936.048 878.835 949.253 890.277 958.365 894.25 C 972.937 900.604 998.325 897.952 1004.67 918.092 C 1011.17 928.547 1011.87 932.96 1020.42 942.709 L 1007.51 951.758 C 997.152 939.75 994.365 936.864 980.826 928.993 C 973.027 924.527 965.278 918.842 958.218 913.304 L 956.755 916.292 L 964.818 923.937 C 960.876 925.856 954.276 925.31 949.229 926.171 C 935.476 920.568 932.412 914.988 929.01 901.107 C 926.515 890.632 926.86 882.956 928.426 872.374 z"/>
<path transform="translate(0,0)" fill="rgb(84,91,38)" d="M 1001.9 924.541 C 1002.12 922.121 1002.06 920.439 1003.18 918.281 C 1003.2 918.682 1003.22 919.083 1003.24 919.484 L 1004.34 919.783 L 1004.67 918.092 C 1011.17 928.547 1011.87 932.96 1020.42 942.709 L 1007.51 951.758 C 997.152 939.75 994.365 936.864 980.826 928.993 C 984.969 929.027 989.386 929.967 993.509 930.664 L 993.445 929.773 C 989.297 927.886 988.04 927.431 984.457 924.756 C 987.429 924.519 990.665 927.484 995.846 927.86 C 999.401 927 999.275 926.86 1001.9 924.541 z"/>
<path transform="translate(0,0)" fill="rgb(121,130,61)" d="M 929.01 901.107 L 929.028 895.53 L 930.327 894.481 C 936.815 896.207 940.712 907.475 950.563 910.198 C 952.866 912.325 954.608 914.009 956.755 916.292 L 964.818 923.937 C 960.876 925.856 954.276 925.31 949.229 926.171 C 935.476 920.568 932.412 914.988 929.01 901.107 z"/>
<path transform="translate(0,0)" fill="rgb(161,172,85)" d="M 995.846 927.86 C 989.585 924.507 983.005 921.914 982.834 913.791 C 983.884 911.817 984.527 910.057 987.023 909.786 C 997.377 908.659 1000.64 917.447 1001.9 924.541 C 999.275 926.86 999.401 927 995.846 927.86 z"/>
<path transform="translate(0,0)" fill="rgb(24,29,4)" d="M 950.563 910.198 L 948.613 905.664 L 949.389 905.154 C 952.3 907.906 955.243 910.623 958.218 913.304 L 956.755 916.292 C 954.608 914.009 952.866 912.325 950.563 910.198 z"/>
<path transform="translate(0,0)" fill="rgb(65,72,29)" d="M 1027.68 793.303 C 1047.66 823.226 1051.81 859.481 1049.11 894.349 C 1045.32 898.776 1041.9 902.701 1038.5 907.445 C 1034.89 884.137 1033.93 880.607 1021.36 860.824 C 1023.48 830.405 1026.92 822.449 1007.55 798.019 C 1011.88 798.395 1014.14 798.41 1018.24 799.692 C 1024.71 798.731 1025.28 799.387 1027.68 793.303 z"/>
<path transform="translate(0,0)" fill="rgb(44,44,47)" d="M 999.3 1055.43 C 1003.14 1046.89 1013.1 1024.27 1024.7 1027.3 C 1028.05 1030.54 1031.77 1036.05 1033.51 1037.67 C 1045.82 1049.15 1050.94 1046.56 1055.12 1064.26 C 1035.95 1074.51 1035.46 1073.24 1022.49 1090.9 C 1020.39 1089.4 1021.33 1090.32 1020.38 1087.17 C 1015.61 1074.38 1013.55 1071.3 1003.09 1063.32 C 998.459 1060.16 998.058 1060.76 999.3 1055.43 z"/>
<path transform="translate(0,0)" fill="rgb(67,64,63)" d="M 1004.54 1052.84 C 1007.72 1048.44 1014.64 1039.62 1019.86 1038.44 L 1021.52 1039.72 L 1022.03 1045.89 C 1021.27 1050.77 1021.47 1054.66 1023.28 1059.36 C 1027.1 1068.69 1027.5 1079.29 1020.38 1087.17 C 1015.61 1074.38 1013.55 1071.3 1003.09 1063.32 C 998.459 1060.16 998.058 1060.76 999.3 1055.43 L 1004.54 1052.84 z"/>
<path transform="translate(0,0)" fill="rgb(0,0,0)" d="M 1022.03 1045.89 C 1025.83 1049.71 1026.73 1054.9 1023.28 1059.36 C 1021.47 1054.66 1021.27 1050.77 1022.03 1045.89 z"/>
<path transform="translate(0,0)" fill="rgb(85,95,109)" d="M 965.62 758.17 C 969.077 759.165 981.638 770.584 982.804 773.831 C 984.399 787.163 995.083 797.802 1003.84 807.404 C 1010.79 816.723 1011.06 819.558 1013.02 831.113 C 1010.02 831.051 1003.8 831.175 1001.21 830.462 C 992.264 829.909 982.908 828.709 973.961 827.709 C 970.353 814.718 968.505 810.642 961.846 798.803 C 968.989 781.06 968.706 776.238 965.62 758.17 z"/>
<path transform="translate(0,0)" fill="rgb(69,69,73)" d="M 1003.84 807.404 C 1010.79 816.723 1011.06 819.558 1013.02 831.113 C 1010.02 831.051 1003.8 831.175 1001.21 830.462 C 1002.81 829.885 1001.94 830.322 1003.69 828.912 C 1004.46 824.308 1003.79 813.069 1003.84 807.404 z"/>
<path transform="translate(0,0)" fill="rgb(44,44,47)" d="M 978.765 876.182 C 978.655 872.515 978.147 869.832 979.798 866.634 C 986.522 865.987 1008.44 870.071 1016.22 871.668 C 1028.66 885.802 1030.89 902.009 1030.78 920.193 C 1030.75 924.771 1029.53 934.313 1023.56 933.625 C 1021.37 931.581 1019.32 928.156 1018.4 925.345 C 1015.04 919.116 1012.34 912.917 1008.72 906.418 C 1006.9 904.717 1007.2 904.875 1005.78 902.744 C 996.826 893.931 991.148 892.574 979.318 890.065 L 978.765 876.182 z"/>
<path transform="translate(0,0)" fill="rgb(69,69,73)" d="M 978.765 876.182 C 985.136 877.939 997.394 881.496 1003.92 881.515 L 1007.09 880.744 L 1008.78 881.971 C 1009.04 885.002 1009.1 887.338 1009.13 890.384 L 1008.72 906.418 C 1006.9 904.717 1007.2 904.875 1005.78 902.744 C 996.826 893.931 991.148 892.574 979.318 890.065 L 978.765 876.182 z"/>
<path transform="translate(0,0)" fill="rgb(0,0,0)" d="M 1003.92 881.515 L 1007.09 880.744 L 1008.78 881.971 C 1009.04 885.002 1009.1 887.338 1009.13 890.384 L 1008.72 906.418 C 1006.9 904.717 1007.2 904.875 1005.78 902.744 C 1005.51 896.447 1004.22 889.204 1003.92 881.515 z"/>
<path transform="translate(0,0)" fill="rgb(69,69,73)" d="M 1009.13 890.384 C 1009.6 887.223 1009.85 885.4 1010.73 882.264 L 1012.62 881.575 C 1022.97 886.801 1020.47 915.767 1018.4 925.345 C 1015.04 919.116 1012.34 912.917 1008.72 906.418 L 1009.13 890.384 z"/>
<path transform="translate(0,0)" fill="rgb(84,91,38)" d="M 981.928 1093.88 C 992.214 1118.72 990.329 1124.2 1007.76 1146.22 C 1001.76 1154.29 998.796 1157.75 990.723 1164.15 C 953.006 1146.27 972.823 1128.89 961.493 1103.45 C 967.189 1104.89 978.106 1098.1 981.928 1093.88 z"/>
<path transform="translate(0,0)" fill="rgb(65,72,29)" d="M 982.27 1241.07 C 991.013 1213.34 1001.59 1196.09 1022.82 1175.49 C 1028.11 1179.4 1033.92 1183.76 1038.13 1188.79 L 1039.67 1189.33 C 1038.41 1213.76 1025.92 1217.55 1006.65 1225.86 C 995.283 1230.76 991.787 1241.59 988.555 1252.68 C 985.442 1248.12 984.531 1246.02 982.27 1241.07 z"/>
<path transform="translate(0,0)" fill="rgb(161,172,85)" d="M 940.569 1033.93 L 942.003 1032.68 C 946.67 1031.77 947.12 1031.47 951.566 1032.63 L 952.418 1041.17 C 954.943 1053.33 957.422 1058.16 963.416 1069.09 C 968.973 1075.88 978.016 1086.48 981.928 1093.88 C 978.106 1098.1 967.189 1104.89 961.493 1103.45 C 957.061 1095.48 950.775 1090.57 944.27 1084.14 C 930.845 1070.11 934.555 1060 938.964 1043.03 C 939.689 1040.26 940.117 1036.82 940.569 1033.93 z"/>
<path transform="translate(0,0)" fill="rgb(97,106,45)" d="M 963.416 1069.09 C 968.973 1075.88 978.016 1086.48 981.928 1093.88 C 978.106 1098.1 967.189 1104.89 961.493 1103.45 C 957.061 1095.48 950.775 1090.57 944.27 1084.14 C 952.828 1086.96 957.979 1088.94 967.211 1087.33 C 968.11 1078.13 966.319 1079.12 963.961 1071 L 963.416 1069.09 z"/>
<path transform="translate(0,0)" fill="rgb(121,130,61)" d="M 940.569 1033.93 L 942.003 1032.68 C 946.67 1031.77 947.12 1031.47 951.566 1032.63 L 952.418 1041.17 C 954.943 1053.33 957.422 1058.16 963.416 1069.09 L 963.961 1071 C 966.319 1079.12 968.11 1078.13 967.211 1087.33 C 964.126 1079.86 957.356 1079.4 954.327 1071.94 C 949.372 1059.75 955.708 1045.71 938.964 1043.03 C 939.689 1040.26 940.117 1036.82 940.569 1033.93 z"/>
<path transform="translate(0,0)" fill="rgb(85,95,109)" d="M 1219.28 343.455 L 1221.56 345.239 C 1225.91 355.597 1222.47 443.196 1219.98 456.694 C 1218.55 440.115 1215.97 423.933 1215.09 407.249 L 1214.55 391.761 C 1202.91 401.439 1195.67 408.599 1185.65 419.749 C 1186.07 410.3 1186.78 400.866 1187.78 391.46 C 1209.32 370.779 1205.31 365.932 1219.28 343.455 z"/>
<path transform="translate(0,0)" fill="rgb(65,72,29)" d="M 964.818 923.937 C 980.445 934.147 991.824 941.896 1000.22 959.428 C 995.909 965.147 991.372 971.417 986.792 976.844 C 951.037 964.104 977.526 944.396 949.229 926.171 C 954.276 925.31 960.876 925.856 964.818 923.937 z"/>
<path transform="translate(0,0)" fill="rgb(44,44,47)" d="M 831.024 357.58 C 842.145 371.427 840.45 379.039 859.197 393.396 C 860.94 402.499 861.691 412.094 862.241 421.33 C 856.693 414.586 842.535 396.463 834.372 394.072 L 833.267 394.856 L 832.454 403.756 C 831.269 416.45 832.55 437.929 827.617 447.658 C 833.664 419.668 817.429 382.735 831.024 357.58 z"/>
<path transform="translate(0,0)" fill="rgb(69,69,73)" d="M 969.84 834.957 C 977.527 835.237 1006.61 836.956 1012.14 840.203 C 1013 842.887 1013.03 841.576 1011.91 844.262 C 1006.97 845.202 985.667 840.939 973.739 842.397 L 972.289 842.583 C 981.397 845.235 986.431 845.735 995.922 846.865 C 1002.24 847.216 1006.29 846.321 1012.52 845.289 L 1012.56 861.181 C 1000.35 861.052 942.996 858.747 969.84 834.957 z"/>
<path transform="translate(0,0)" fill="rgb(84,91,38)" d="M 1061.83 1170.5 C 1069.07 1174.3 1078.85 1199.86 1079.03 1208.57 C 1079.18 1215.65 1079.74 1227.89 1075.11 1233.46 L 1073.45 1230.43 C 1067.49 1214.94 1059.39 1203.02 1049.62 1189.82 C 1052.92 1180.65 1055.66 1177.64 1061.83 1170.5 z"/>
<path transform="translate(0,0)" fill="rgb(65,72,29)" d="M 1048.56 1197.49 C 1058.85 1204.62 1068.19 1229.83 1071.54 1241.43 L 1065.48 1249.58 C 1053.83 1232.53 1048.29 1239.91 1042.2 1215.73 C 1044.86 1209.96 1046.64 1203.58 1048.56 1197.49 z"/>
<path transform="translate(0,0)" fill="rgb(84,91,38)" d="M 1050.21 1007.66 C 1062.47 1021.24 1064 1029.98 1067.45 1047 C 1065.91 1050.49 1065.18 1052.39 1063.06 1055.53 L 1061.64 1055.15 L 1059.75 1049.92 C 1052.22 1036.05 1041.11 1035.77 1034.38 1025.49 C 1036.19 1022.46 1042.13 1018.6 1044.61 1015.81 C 1046.72 1013.44 1048.54 1010.36 1050.21 1007.66 z"/>
<path transform="translate(0,0)" fill="rgb(44,44,47)" d="M 969.606 723.075 C 984.318 741.782 985.227 750.016 982.804 773.831 C 981.638 770.584 969.077 759.165 965.62 758.17 C 962.941 749.45 969.137 734.607 969.606 723.075 z"/>
<path transform="translate(0,0)" fill="rgb(84,91,38)" d="M 1061.49 986.553 C 1064.62 988.578 1069.17 998.289 1070.68 1002.1 C 1075.33 1013.86 1075.97 1026.73 1071.11 1038.51 L 1069.86 1037.76 C 1065.35 1020.87 1062.28 1015.47 1052.12 1001.07 C 1055.75 994.126 1056.32 992.637 1061.49 986.553 z"/>
<path transform="translate(0,0)" fill="rgb(166,243,248)" d="M 1189.07 382.71 C 1195.2 355.493 1200.35 340.58 1213.29 315.945 L 1216.07 318.914 C 1215.45 320.411 1212.43 339.84 1212.62 341.831 C 1203.49 359.315 1203.79 367.709 1189.07 382.71 z"/>
<path transform="translate(0,0)" fill="rgb(121,130,61)" d="M 919.633 723.573 C 923.465 725.434 923.955 726.301 926.52 729.734 L 928.267 730.117 C 928.669 729.281 929.408 727.865 929.691 727.041 C 930.999 733.753 932.751 738.186 929.122 743.982 L 928.795 745.006 L 928.147 754.146 L 927.147 753.742 C 927.032 752.25 926.854 751.893 926.471 750.442 L 921.861 748.846 C 922.36 747.218 922.909 744.386 923.311 742.627 C 923.066 733.826 922.408 731.602 919.633 723.573 z"/>
<path transform="translate(0,0)" fill="rgb(121,130,61)" d="M 923.311 742.627 C 925.991 739.415 924.444 739.999 927.632 739.436 C 929.193 741.512 929.073 741.366 929.122 743.982 L 928.795 745.006 L 928.147 754.146 L 927.147 753.742 C 927.032 752.25 926.854 751.893 926.471 750.442 L 921.861 748.846 C 922.36 747.218 922.909 744.386 923.311 742.627 z"/>
<path transform="translate(0,0)" fill="rgb(65,72,29)" d="M 1089.62 875.259 C 1094.23 865.981 1102.67 852.491 1110.88 846.031 C 1109.73 848.109 1108.6 850.197 1107.5 852.297 L 1107.97 852.981 C 1113.45 849.012 1112.21 848.607 1117.99 848.262 C 1104.94 858.967 1106 864.614 1089.62 875.259 z"/>
<path transform="translate(0,0)" fill="rgb(65,72,29)" d="M 1090.59 852.688 L 1091.37 853.438 C 1092.23 858.527 1086.56 868.883 1084.1 874.236 L 1083.9 874.17 L 1083.3 872.56 C 1084.67 864.928 1085.33 858.634 1090.59 852.688 z"/>
<path transform="translate(0,0)" fill="rgb(0,0,0)" d="M 1285.57 864.701 C 1286.88 865.817 1288.11 867.346 1288.74 868.962 C 1296.4 888.483 1313.44 937.903 1287.81 949.538 C 1255.8 946.66 1276.1 880.09 1285.57 864.701 z"/>
<path transform="translate(0,0)" fill="rgb(70,203,217)" d="M 1277.1 916.221 C 1278.88 902.026 1281.06 892.331 1285.85 878.688 C 1293.5 899.942 1295.9 912.151 1295.1 934.069 C 1292.81 938.937 1290.47 942.215 1284.95 943.031 C 1275.51 939.294 1276.65 924.314 1277.1 916.221 z"/>
<path transform="translate(0,0)" fill="rgb(166,243,248)" d="M 1277.1 916.221 C 1283.7 918.998 1283.63 923.74 1288.37 929.144 C 1290.31 931.358 1293.34 932.439 1295.1 934.069 C 1292.81 938.937 1290.47 942.215 1284.95 943.031 C 1275.51 939.294 1276.65 924.314 1277.1 916.221 z"/>
<path transform="translate(0,0)" fill="rgb(0,0,0)" d="M 762.141 893.462 C 769.66 899.9 776.218 928.495 777.078 938.261 C 778.275 951.844 779.106 965.87 764.394 971.183 C 762.554 970.732 757.842 969.811 756.503 968.945 C 736.172 955.792 753.918 909.199 762.141 893.462 z"/>
<path transform="translate(0,0)" fill="rgb(70,203,217)" d="M 753.211 940.927 C 755.261 927.999 757.66 918.189 762.782 905.986 C 769.04 921.336 775.636 943.961 769.681 960.209 C 766.5 963.363 765.995 963.957 761.921 964.829 C 751.937 962.131 752.789 949.324 753.211 940.927 z"/>
<path transform="translate(0,0)" fill="rgb(166,243,248)" d="M 753.211 940.927 C 754.054 941.157 754.898 941.386 755.742 941.616 C 760.253 949.048 763.855 954.052 769.681 960.209 C 766.5 963.363 765.995 963.957 761.921 964.829 C 751.937 962.131 752.789 949.324 753.211 940.927 z"/>
<path transform="translate(0,0)" fill="rgb(0,0,0)" d="M 1187.07 475.551 C 1192.29 479.146 1197.92 500.017 1198.96 506.645 C 1200.93 519.199 1202.36 531.294 1189.02 536.87 C 1181.26 535.074 1176.92 531.307 1175.8 523.264 C 1173.97 510.205 1180.08 486.167 1187.07 475.551 z"/>
<path transform="translate(0,0)" fill="rgb(70,203,217)" d="M 1187.35 488.929 C 1191.94 502.651 1193.63 507.377 1194.69 521.5 C 1193.48 525.935 1193.19 527.932 1188.79 530.121 C 1181.66 529.488 1181.43 524.724 1180.68 518.709 C 1181.76 507.114 1183.75 500.031 1187.35 488.929 z"/>
<path transform="translate(0,0)" fill="rgb(199,243,251)" d="M 1180.68 518.709 C 1187.43 519.023 1188.52 519.401 1194.69 521.5 C 1193.48 525.935 1193.19 527.932 1188.79 530.121 C 1181.66 529.488 1181.43 524.724 1180.68 518.709 z"/>
<path transform="translate(0,0)" fill="rgb(0,0,0)" d="M 858.759 463.467 C 861.472 464.793 862.998 467.591 864.063 470.334 C 869.603 484.599 879.905 515.389 861.427 523.388 C 834.975 521.476 852.925 476.852 858.759 463.467 z"/>
<path transform="translate(0,0)" fill="rgb(70,203,217)" d="M 853.273 500.43 C 855.003 492.322 856.769 484.612 859.759 476.843 C 865.237 489.937 866.616 497.296 866.024 511.37 C 864.4 513.897 864.078 514.059 861.858 516.156 C 857.974 517.228 859.759 517.431 856.298 515.767 C 852.385 510.183 852.772 507.24 853.273 500.43 z"/>
<path transform="translate(0,0)" fill="rgb(199,243,251)" d="M 853.273 500.43 C 859.214 501.386 862.695 506.734 866.024 511.37 C 864.4 513.897 864.078 514.059 861.858 516.156 C 857.974 517.228 859.759 517.431 856.298 515.767 C 852.385 510.183 852.772 507.24 853.273 500.43 z"/>
<path transform="translate(0,0)" fill="rgb(0,0,0)" d="M 1088.43 365.454 C 1097.21 372.655 1103.94 402.936 1100.02 413.796 C 1098.1 419.114 1096.26 420.723 1091.53 423.309 C 1090.22 423.074 1087.01 422.565 1085.92 422.106 C 1067.41 414.314 1084.06 375.531 1088.43 365.454 z"/>
<path transform="translate(0,0)" fill="rgb(70,203,217)" d="M 1089.24 377.347 C 1093.49 389.035 1095.12 395.83 1096.05 408.27 C 1094.86 412.372 1094.39 415.028 1090.17 416.919 C 1082.91 415.549 1083.02 408.449 1082.86 402.476 C 1084.54 392.841 1085.9 386.603 1089.24 377.347 z"/>
<path transform="translate(0,0)" fill="rgb(199,243,251)" d="M 1082.86 402.476 C 1088.38 402.35 1093.33 402.533 1096.05 408.27 C 1094.86 412.372 1094.39 415.028 1090.17 416.919 C 1082.91 415.549 1083.02 408.449 1082.86 402.476 z"/>
<path transform="translate(0,0)" fill="rgb(0,0,0)" d="M 955.698 360.495 C 963.341 364.645 969.798 391.237 966.765 398.875 C 964.527 404.509 963.828 405.557 958.789 408.516 C 934.323 406.466 949.071 373.087 955.698 360.495 z"/>
<path transform="translate(0,0)" fill="rgb(70,203,217)" d="M 956.819 371.309 C 960.214 379.356 961.707 383.342 962.476 392.403 C 962.243 397.053 962.297 399.202 958.253 402.162 C 950.555 402.485 950.673 396.563 950.422 390.575 C 951.724 382.686 953.334 378.609 956.819 371.309 z"/>
<path transform="translate(0,0)" fill="rgb(166,243,248)" d="M 950.422 390.575 L 962.476 392.403 C 962.243 397.053 962.297 399.202 958.253 402.162 C 950.555 402.485 950.673 396.563 950.422 390.575 z"/>
</svg>