<svg version="1.1" xmlns="http://www.w3.org/2000/svg" style="display: block;" viewBox="0 0 2048 2048" width="1024" height="1024" preserveAspectRatio="none">
<defs>
	<linearGradient id="Gradient1" gradientUnits="userSpaceOnUse" x1="1330.93" y1="746.047" x2="1322.06" y2="711.917">
		<stop class="stop0" offset="0" stop-opacity="1" stop-color="rgb(61,61,62)"/>
		<stop class="stop1" offset="1" stop-opacity="1" stop-color="rgb(88,87,87)"/>
	</linearGradient>
</defs>
<path transform="translate(0,0)" fill="rgb(0,0,0)" d="M 1450.91 525.118 C 1481.15 523.511 1559.87 550.058 1577.1 576.134 C 1597.55 611.271 1601.88 664.886 1597.62 704.519 C 1593.48 743.109 1549.41 776.728 1522.4 800.639 C 1500.54 819.994 1466.61 810.548 1439.85 805.828 C 1411.78 820.684 1324.72 895.373 1310.7 927.759 C 1296.22 959.631 1291.02 1002.02 1268.95 1029.4 C 1247.72 1055.74 1176.66 1055.97 1153.88 1070.58 C 1135.16 1082.58 1123.06 1165.39 1106.85 1183.63 C 1086.58 1206.42 1046.26 1234.27 1019.86 1251.1 C 981.157 1271.35 980.7 1261.76 956.745 1300.57 C 934.844 1332.93 914.443 1384.24 887.591 1411.36 C 857.417 1441.83 783.283 1442.53 748.578 1461.82 C 730.594 1471.82 703.39 1525.01 689.451 1543.06 C 679.334 1556.16 668.567 1578.93 654.539 1590.48 C 629.688 1608.14 594.489 1622.18 565.4 1632.67 C 529.005 1645.78 517.069 1661.71 489 1687.29 L 402.718 1765.25 C 373.65 1791.14 348.789 1775.37 317.729 1762.42 C 283.617 1748.2 245.648 1665.14 266.931 1633.05 C 280.632 1612.39 330.699 1578.43 351.014 1558.93 C 369.897 1540.8 388.876 1517.77 410.435 1503.05 C 442.813 1482.16 482.46 1472.43 512.885 1449.4 C 525.972 1436.4 530.873 1417.29 539.744 1402.22 C 559.432 1368.78 573.256 1311.8 604.779 1288.56 C 617.794 1278.96 648.483 1273.84 664.604 1268.59 C 685.789 1259.8 749.803 1250.6 766.482 1237.99 C 806.283 1207.88 816.787 1115.84 840.181 1074.28 C 861.759 1035.95 888.478 1023.16 928.718 1018.15 C 953.8 1015.02 980.461 1008.06 1005.46 1003.55 C 1042.54 993.182 1065.87 941.759 1080.12 912.269 L 1102.29 866.725 C 1108.89 853.185 1112.33 844.702 1121.74 831.784 C 1136.09 812.084 1191.93 795.338 1203.71 785.685 C 1233.18 761.54 1279.78 713.004 1305.71 685.474 C 1324.22 658.904 1331.45 611.393 1345.4 584.636 C 1356.97 562.463 1426.96 531.244 1450.91 525.118 z"/>
<path transform="translate(0,0)" fill="rgb(76,76,76)" d="M 1443.69 576.627 C 1447.59 573.255 1454.8 571.036 1459.77 572.327 C 1447.11 580.852 1419.9 660.11 1415.54 677.317 C 1426.51 687.98 1453.6 706.444 1466.95 714.576 C 1494.75 707.336 1525.04 700.774 1552.04 692.704 C 1556.53 705.283 1560.86 717.921 1565.02 730.612 C 1553.11 744.709 1509.66 792.519 1490.07 791.557 C 1451.28 789.653 1426.73 780.344 1387.99 796.169 C 1394.88 796.721 1404.23 797.213 1410.83 798.35 C 1377.42 828.233 1324.66 869.386 1299.25 906.696 C 1283.91 929.201 1271.87 1001.95 1249.72 1019.32 C 1240.6 1026.46 1199.4 1036.21 1186.2 1039.65 C 1145.54 1049.83 1105.17 1061.13 1065.14 1073.55 C 1039.67 1081.28 1004.67 1091.96 981.42 1104.91 C 959.349 1117.21 930.702 1145.72 916.035 1166.83 C 930.783 1154.37 961.894 1128.39 978.371 1119.84 C 1016.93 1099.83 1082.83 1083.81 1125.68 1075.28 C 1119.59 1092.02 1113.84 1108.89 1108.43 1125.86 C 1103.95 1139.69 1100.07 1155.26 1093.01 1168.01 C 1085.19 1182.16 1031.54 1220.19 1015.4 1229.67 C 1001.59 1237.78 986.487 1244.57 972 1251.44 C 897.227 1286.38 821.281 1318.76 744.295 1348.51 C 741.764 1349.46 742.353 1348.77 741.667 1350.43 C 749.594 1350.49 768.548 1344.24 777.014 1342.32 C 834.29 1329.3 887.451 1306.85 942.04 1285.71 C 932.602 1305.9 889.134 1381.83 874.964 1395.74 C 867.615 1402.95 858.033 1407.68 848.433 1411.14 C 818.606 1421.88 786.35 1427.95 755.724 1436.32 C 679.484 1457.14 603.255 1479.88 530.243 1510.31 C 509.172 1519.09 487.758 1527.73 467.924 1539.12 C 485.092 1534.59 508.083 1524.79 527.225 1519.07 C 561.62 1508.92 596.173 1499.31 630.87 1490.24 C 658.312 1482.82 687.704 1474.5 715.271 1468.07 C 704.692 1485 693.195 1501.34 682.273 1518.05 C 670.435 1536.16 658.452 1558.92 642.652 1573.83 C 626.134 1589.42 543.991 1619 517.505 1630.57 C 506.475 1635.38 496.003 1641.34 485.501 1647.2 C 492.441 1647.1 497.359 1647.07 504.248 1646.16 C 475.923 1673.36 446.676 1698.47 417.948 1725.15 C 408.648 1733.79 397.013 1743.35 388.291 1752.15 L 386.715 1720.37 C 407.128 1697.3 428.248 1674.86 450.043 1653.08 C 434.241 1660.8 394.496 1692.65 380.535 1704.1 C 367.18 1684.17 358.264 1671.47 342.084 1653.38 C 362.098 1635.67 381.57 1616.55 400.237 1597.46 C 408.144 1589.37 417.266 1581.66 424.976 1573.53 C 411.085 1580.95 331.193 1643.11 324.711 1641.26 C 324.143 1641.1 323.656 1640.73 323.128 1640.46 C 315.875 1636.58 302.875 1634.7 294.847 1633.48 C 309.838 1617.64 341.023 1595.51 358.439 1580.09 C 378.317 1562.49 393.322 1544.1 412.228 1526.83 C 419.7 1520.01 449.141 1506.03 459.415 1500.92 L 538.102 1462.32 C 542.796 1458.36 571.244 1445.95 577.857 1442.72 C 609.208 1427.36 640.178 1411.71 671.865 1397.1 C 681.849 1392.5 714.184 1380.14 720.404 1375.98 C 675.995 1385.71 609.695 1409.2 568.439 1428 C 562.42 1430.17 550.442 1436.12 544.267 1438.98 C 558.882 1409.35 589.944 1335.6 611.772 1308.08 C 617.001 1301.48 663.107 1290.16 676.07 1286.48 L 784.187 1255.91 C 832.281 1242.08 887.6 1226.3 934.235 1209.41 C 950.225 1201.37 967.116 1192.69 981.366 1181.69 L 979.778 1182.25 C 969.043 1186.1 955.539 1194.26 945.751 1196.94 C 904.457 1208.23 859.709 1221.28 817.614 1228.93 C 811.425 1230.47 805.15 1231.68 798.9 1232.96 C 820.266 1201.26 830.064 1156.29 843.899 1120.33 C 848.048 1109.55 851.617 1094.98 857.499 1085.17 C 864.92 1072.8 882.938 1052.61 895.818 1046.18 C 901.238 1043.47 924.51 1039.73 931.309 1038.46 C 949.726 1035.01 968.119 1031.44 986.489 1027.74 C 1040.64 1016.97 1094.46 1004.61 1147.88 990.678 C 1149.95 989.615 1159.41 986.809 1162.31 985.972 C 1181.34 980.489 1190.68 978.1 1206.96 966.701 C 1237.79 945.11 1240.13 917.99 1245.18 882.501 C 1239.16 895.454 1228.82 929.908 1222.12 938.889 C 1197.59 971.741 1125.2 981.652 1087.32 988.742 C 1076.26 990.6 1065.24 992.646 1054.25 994.881 C 1076.98 967.96 1089.2 940.397 1104.56 909.111 C 1112.99 891.944 1126.61 857.481 1138.15 844.138 C 1153.24 826.676 1267.37 779.079 1296.01 765.396 C 1302.85 761.116 1309.01 759.021 1314.91 753.582 L 1312.93 752.579 C 1311.64 753.169 1307.57 755.134 1306.46 755.476 C 1302.23 756.864 1294.9 759.521 1290.8 760.409 C 1278.04 765.621 1258.8 770.997 1245.19 775.159 C 1281.11 739.633 1330.45 694.493 1360.72 656.624 C 1351.93 662.476 1343.14 668.923 1334.52 675.07 C 1343.26 647.871 1353.3 617.147 1364.49 590.971 C 1374.97 591.893 1386.98 593.344 1397.25 595.368 L 1409.68 597.209 C 1416.52 593.118 1441.4 581.57 1443.69 576.627 z"/>
<path transform="translate(0,0)" fill="rgb(133,132,131)" d="M 1147.88 990.678 L 1147.93 991.885 C 1133.76 1000.45 1127.34 1001.85 1111.62 1007.28 L 1028.21 1036.16 C 1017.72 1039.83 994.073 1047.04 986.274 1052.19 C 964.942 1056.27 899.557 1062.38 889.02 1078.88 C 865.98 1114.96 852.106 1161.33 832.488 1198.98 C 829.095 1202.98 818.859 1223.96 817.614 1228.93 C 811.425 1230.47 805.15 1231.68 798.9 1232.96 C 820.266 1201.26 830.064 1156.29 843.899 1120.33 C 848.048 1109.55 851.617 1094.98 857.499 1085.17 C 864.92 1072.8 882.938 1052.61 895.818 1046.18 C 901.238 1043.47 924.51 1039.73 931.309 1038.46 C 949.726 1035.01 968.119 1031.44 986.489 1027.74 C 1040.64 1016.97 1094.46 1004.61 1147.88 990.678 z"/>
<path transform="translate(0,0)" fill="rgb(133,132,131)" d="M 934.235 1209.41 C 932.935 1213.4 932.268 1213.82 927.311 1216.07 C 895.832 1230.32 864.118 1244.31 832.154 1257.38 C 819.013 1262.75 785.533 1275.69 774.924 1282.47 C 732.058 1295.78 680.616 1302.62 638.802 1315.98 C 626.104 1320.04 581.646 1392.2 572.415 1408.51 L 572.895 1409.32 L 576.136 1406.77 C 578.252 1413.1 570.507 1421.95 568.439 1428 C 562.42 1430.17 550.442 1436.12 544.267 1438.98 C 558.882 1409.35 589.944 1335.6 611.772 1308.08 C 617.001 1301.48 663.107 1290.16 676.07 1286.48 L 784.187 1255.91 C 832.281 1242.08 887.6 1226.3 934.235 1209.41 z"/>
<path transform="translate(0,0)" fill="rgb(133,132,131)" d="M 1296.01 765.396 L 1296.38 767.511 C 1285.77 780.753 1249.83 805.553 1239.15 818.796 C 1220.58 827.386 1182.08 842.965 1166.06 853.546 L 1160.62 864.896 C 1157.22 866.972 1146.34 873.619 1144.88 876.487 C 1125.74 914.119 1108.17 951.912 1087.32 988.742 C 1076.26 990.6 1065.24 992.646 1054.25 994.881 C 1076.98 967.96 1089.2 940.397 1104.56 909.111 C 1112.99 891.944 1126.61 857.481 1138.15 844.138 C 1153.24 826.676 1267.37 779.079 1296.01 765.396 z"/>
<path transform="translate(0,0)" fill="rgb(133,132,131)" d="M 1364.49 590.971 C 1374.97 591.893 1386.98 593.344 1397.25 595.368 C 1390.07 604.4 1388.17 612.327 1383.56 622.06 C 1373.02 644.319 1362.24 679.343 1347.43 698.073 C 1347.59 702.246 1347.55 702.054 1346.09 706.025 L 1347.08 709.391 C 1340.65 717.794 1328.17 735.387 1321.61 742.001 L 1325.5 746.138 C 1320.99 751.826 1321.4 752.504 1314.91 753.582 L 1312.93 752.579 C 1311.64 753.169 1307.57 755.134 1306.46 755.476 C 1302.23 756.864 1294.9 759.521 1290.8 760.409 C 1278.04 765.621 1258.8 770.997 1245.19 775.159 C 1281.11 739.633 1330.45 694.493 1360.72 656.624 C 1351.93 662.476 1343.14 668.923 1334.52 675.07 C 1343.26 647.871 1353.3 617.147 1364.49 590.971 z"/>
<path transform="translate(0,0)" fill="url(#Gradient1)" d="M 1307.61 741.039 C 1320.7 725.973 1334.39 712.735 1347.43 698.073 C 1347.59 702.246 1347.55 702.054 1346.09 706.025 L 1347.08 709.391 C 1340.65 717.794 1328.17 735.387 1321.61 742.001 L 1325.5 746.138 C 1320.99 751.826 1321.4 752.504 1314.91 753.582 L 1312.93 752.579 C 1311.64 753.169 1307.57 755.134 1306.46 755.476 C 1305.9 750.708 1307.52 746.921 1307.61 741.039 z"/>
<path transform="translate(0,0)" fill="rgb(42,42,42)" d="M 1321.61 742.001 L 1325.5 746.138 C 1320.99 751.826 1321.4 752.504 1314.91 753.582 L 1312.93 752.579 C 1317.1 748.575 1318.38 746.616 1321.61 742.001 z"/>
<path transform="translate(0,0)" fill="rgb(76,76,76)" d="M 1307.61 741.039 C 1307.52 746.921 1305.9 750.708 1306.46 755.476 C 1302.23 756.864 1294.9 759.521 1290.8 760.409 C 1293.74 755.915 1303.6 745.496 1307.61 741.039 z"/>
<path transform="translate(0,0)" fill="rgb(133,132,131)" d="M 538.102 1462.32 L 539.006 1464.44 C 534.529 1470.08 512.405 1480.48 506 1485.39 C 492.674 1495.6 471.339 1507.5 459.236 1517.85 C 431.441 1541.63 404.091 1566.9 377.358 1591.79 C 363.131 1605.03 338.014 1631.64 323.128 1640.46 C 315.875 1636.58 302.875 1634.7 294.847 1633.48 C 309.838 1617.64 341.023 1595.51 358.439 1580.09 C 378.317 1562.49 393.322 1544.1 412.228 1526.83 C 419.7 1520.01 449.141 1506.03 459.415 1500.92 L 538.102 1462.32 z"/>
<path transform="translate(0,0)" fill="rgb(0,0,0)" d="M 986.274 1052.19 C 1015.62 1050.24 1050.67 1039.82 1078.76 1038.6 C 1064.55 1043.77 1044.54 1048.83 1029.7 1053.04 C 1003.63 1060.61 977.489 1067.91 951.273 1074.93 C 938.037 1078.44 918.146 1082.81 905.813 1087.15 C 895.995 1101.71 839.333 1197.65 833.66 1199.41 L 832.488 1198.98 C 852.106 1161.33 865.98 1114.96 889.02 1078.88 C 899.557 1062.38 964.942 1056.27 986.274 1052.19 z"/>
<path transform="translate(0,0)" fill="rgb(0,0,0)" d="M 774.924 1282.47 C 785.424 1281.93 804.01 1275.42 817.814 1273.77 L 816.522 1274.37 C 803.254 1280.41 778.808 1287.77 764.042 1292.83 L 681.412 1321.77 C 676.088 1323.59 647.806 1332.26 644.647 1334.84 C 631.069 1345.91 615.737 1364.45 602.933 1377.65 C 595.794 1385.01 582.472 1398.15 576.409 1405.48 L 576.136 1406.77 L 572.895 1409.32 L 572.415 1408.51 C 581.646 1392.2 626.104 1320.04 638.802 1315.98 C 680.616 1302.62 732.058 1295.78 774.924 1282.47 z"/>
<path transform="translate(0,0)" fill="rgb(0,0,0)" d="M 1259.08 811.851 C 1246.82 823.667 1217.44 839.892 1203.01 850.86 C 1185.11 864.463 1177.84 864.489 1170.56 889.292 C 1161.41 910.254 1145.7 938.541 1128.82 953.665 C 1139.27 924.02 1149.87 894.43 1160.62 864.896 L 1166.06 853.546 C 1182.08 842.965 1220.58 827.386 1239.15 818.796 C 1246.03 816.872 1252.4 814.364 1259.08 811.851 z"/>
<path transform="translate(0,0)" fill="rgb(0,0,0)" d="M 1347.08 709.391 C 1353.16 702.264 1356.2 698.57 1363.51 692.616 C 1356.63 703.76 1333.83 738.144 1325.5 746.138 L 1321.61 742.001 C 1328.17 735.387 1340.65 717.794 1347.08 709.391 z"/>
<path transform="translate(0,0)" fill="rgb(0,0,0)" d="M 906.612 1316.06 C 906.427 1322.06 884.463 1348.67 879.882 1354.52 C 872.68 1363.72 860.973 1381.01 851.118 1386.79 C 841.806 1392.24 690.6 1436.33 678.202 1437.85 C 680.583 1434.46 787.191 1392.62 800.051 1387.31 C 826.192 1376.52 838.922 1376.78 861.959 1353.64 C 871.296 1344.26 895.911 1324.52 906.612 1316.06 z"/>
<path transform="translate(0,0)" fill="rgb(0,0,0)" d="M 1106.2 1091.05 L 1106.42 1092.1 C 1093.99 1118.72 1041.58 1183.97 1021.5 1205.44 C 1017.77 1209.44 932.848 1250.95 921.984 1255.91 L 921.898 1255.43 C 924.668 1251.14 997.976 1202.49 1007.65 1194.97 C 1016.95 1187.73 1027.92 1171.82 1036.37 1162.54 C 1050.88 1146.59 1065.33 1130.43 1080.94 1115.43 C 1089.17 1107.53 1097.27 1098.12 1106.2 1091.05 z"/>
<path transform="translate(0,0)" fill="rgb(0,0,0)" d="M 677.792 1498.13 L 677.896 1498.19 L 678.198 1499.48 C 664.972 1516.97 628.513 1554.97 609.545 1567.53 C 605.441 1570.24 574.919 1578.44 567.642 1580.49 C 540.889 1587.92 514.186 1595.53 487.533 1603.31 L 486.818 1602.53 C 493.696 1597.72 505.632 1593.99 513.49 1590.13 C 542.517 1575.87 572.903 1564.2 602.392 1551.17 C 609.568 1548 624.296 1535.24 631.6 1529.9 C 646.793 1519.01 662.193 1508.42 677.792 1498.13 z"/>
<path transform="translate(0,0)" fill="rgb(0,0,0)" d="M 1542.49 721.111 C 1542.61 724.88 1508.22 763.101 1502.88 769.206 C 1474.33 768.655 1442.14 761.706 1413.38 762.825 C 1402.94 763.232 1360.65 787.386 1351.81 784.662 C 1361.11 776.297 1404.29 753.571 1415.71 748.288 C 1442.88 751.379 1470.48 756.64 1497.27 759.365 C 1505.36 750.756 1532.34 728.736 1542.49 721.111 z"/>
<path transform="translate(0,0)" fill="rgb(0,0,0)" d="M 1259.6 949.733 C 1261.34 957.925 1242.84 999.698 1237.56 1007.87 C 1218.72 1012.23 1199.82 1016.28 1180.84 1020 C 1172.98 1021.54 1159.63 1024.51 1152.06 1025.09 L 1152.05 1024.96 C 1154.25 1022.07 1221.37 998.677 1230.78 995.122 C 1240.9 980.322 1250.51 965.183 1259.6 949.733 z"/>
<path transform="translate(0,0)" fill="rgb(0,0,0)" d="M 1355.5 814.178 C 1355.54 816.271 1301.77 868.856 1294.78 874.936 C 1283.26 884.964 1276.79 896.727 1267.48 908.236 C 1266.59 904.235 1279.55 871.977 1282.9 868.785 C 1301.95 850.617 1333.21 827.473 1355.5 814.178 z"/>
<path transform="translate(0,0)" fill="rgb(76,76,76)" d="M 1508.05 585.544 C 1558.33 597.95 1549.72 640.336 1559.85 647.868 C 1557.78 658.862 1553.77 675.141 1550.3 685.596 C 1530 692.858 1491.67 698.06 1469.27 702.485 C 1457.24 697.325 1435.92 683.232 1426 674.623 C 1435.2 643.134 1450.28 614.652 1467.74 587.108 C 1476.66 586.502 1503.07 588.515 1508.05 585.544 z"/>
<path transform="translate(0,0)" fill="rgb(133,132,131)" d="M 1382.98 577.722 C 1399.62 568.278 1438.44 548.183 1456.14 546.222 C 1481.41 543.423 1552.66 569.98 1564.09 593.845 C 1579.73 626.504 1583.18 680.33 1575.27 715.308 C 1557.11 684.404 1566.05 673.988 1561.86 646.384 C 1560.27 646.647 1561.02 646.272 1559.85 647.868 C 1549.72 640.336 1558.33 597.95 1508.05 585.544 C 1492.21 580.262 1476.09 575.849 1459.77 572.327 C 1454.8 571.036 1447.59 573.255 1443.69 576.627 C 1434.65 580.448 1418.37 586.764 1408.8 589.14 C 1400.65 585.481 1391.18 580.938 1382.98 577.722 z"/>
<path transform="translate(0,0)" fill="rgb(76,76,76)" d="M 282.692 1646.49 C 289.864 1647.66 312.85 1654.68 319.56 1658.95 C 338.636 1672.45 353.301 1697.04 365.639 1716.57 C 370.062 1723.57 378.684 1752.42 374.699 1759.12 C 368.906 1758.9 363.145 1758.14 357.487 1756.88 C 317.499 1747.59 301.068 1725.98 286.248 1689.17 C 279.845 1673.27 278.754 1663.18 282.692 1646.49 z"/>
<path transform="translate(0,0)" fill="rgb(21,249,249)" d="M 1485.9 290.824 C 1494.15 290.414 1529.4 318.437 1538.87 325.255 C 1558.83 323.599 1585.05 316.832 1603.61 316.376 C 1612.22 325.988 1636.55 368.111 1644.39 381.603 C 1662.49 384.434 1707.67 390.796 1723.25 395.444 C 1728.21 421.606 1731.58 447.334 1736.25 473.283 C 1757.1 486.68 1782.51 499.632 1802.29 514.286 C 1800.05 535.552 1794.6 559.566 1791.37 581.132 C 1800.64 593.508 1820.11 618.637 1826.64 631.114 C 1819.61 650.237 1808.06 672.131 1799.41 691.195 C 1807.88 713.374 1815.76 735.77 1823.06 758.361 L 1763.51 811.7 C 1762.08 836.42 1762.87 869.073 1762.77 894.386 C 1744.79 902.699 1710.22 913.205 1690.04 920.832 C 1687.28 925.634 1682.87 937.353 1680.54 942.91 C 1675.04 956.033 1670 968.025 1663.61 980.756 C 1643.6 981.307 1623.58 981.667 1603.57 981.836 C 1553.67 1041.75 1567.23 1029.77 1497.31 1008.44 C 1475.39 1018.29 1450.53 1033.71 1429.23 1042.4 C 1411.58 1027.27 1391.15 1006.96 1372.36 993.376 C 1370.98 992.377 1365.38 991.952 1363.41 991.805 C 1367.5 978.164 1372.52 961.351 1378.53 948.647 C 1383.72 947.993 1388.92 947.454 1394.14 947.031 C 1400.94 951.187 1427.1 976.622 1437.85 985.073 C 1498.84 955.517 1482.01 952.943 1547.77 974.046 C 1554.14 964.721 1574.07 943.024 1582.67 935.446 C 1595.86 934.307 1618.24 935.028 1632.11 935.112 C 1634.43 927.378 1649.97 889.907 1654.39 883.1 C 1668.43 877.674 1703.27 865.699 1716.88 862.776 C 1715.17 847.425 1715.56 806.877 1716.09 790.859 C 1733.7 775.44 1749.43 759.788 1767.91 744.826 C 1761.15 728.579 1753.15 703.875 1747.16 686.762 C 1750.26 679.521 1755.61 669.828 1759.31 662.632 C 1763.75 654.432 1768.26 646.272 1772.85 638.152 C 1763.97 625.014 1750.08 608.941 1742.75 596.266 C 1743.46 580.657 1748.48 552.648 1751.75 537.38 C 1738.06 530.603 1705.12 510.853 1692.44 502.098 C 1689.64 480.289 1685.77 457.225 1682.45 435.387 C 1665.9 434.114 1642.4 428.32 1625.58 425.793 C 1609.5 423.378 1589.57 381.53 1581.39 367.271 C 1569.23 369.946 1537.21 375.034 1525.3 375.289 C 1513.58 367.843 1496.84 354.698 1485.92 345.691 C 1472.68 351.184 1451.27 363.05 1437.51 369.993 C 1420.61 365.092 1396.12 355.103 1379.01 348.667 C 1365 365.521 1348.99 385.693 1333.67 400.858 C 1309.02 401.266 1284.37 401.447 1259.72 401.4 C 1257.15 415.692 1244.25 456.668 1239.01 470.288 C 1224.32 477.814 1188.21 491.492 1172.18 497.774 C 1175.08 521.174 1177.13 546.486 1179.23 570.03 C 1163.65 587.479 1148.2 605.05 1132.9 622.742 C 1143.11 638.092 1156.45 664.915 1165.48 681.946 C 1161.3 701.817 1155.89 720.942 1150.73 740.562 C 1151.93 743.572 1153.71 747.244 1155.07 750.27 C 1144.46 756.513 1123.63 764.517 1110.3 771.462 C 1104.19 767.075 1101.61 764.914 1096.17 759.721 C 1101.64 737.906 1108.92 709.943 1115.92 688.97 C 1103.99 665.725 1088.15 641.019 1075.38 617.48 C 1093.86 596.868 1111.47 575.437 1130.09 554.824 C 1129.22 550.569 1128.83 545.541 1128.49 541.176 C 1126.61 516.987 1123.66 492.459 1122.9 468.224 C 1147.28 456.804 1175.23 447.199 1200.6 435.625 C 1208.42 410.897 1217.64 378.798 1226.68 355.202 C 1255.18 354.772 1284.42 355.404 1312.77 354.034 C 1321.4 343.714 1356.8 301.25 1365.53 296.409 C 1374.8 295.367 1422.51 312.78 1434.57 316.824 C 1450.76 308.755 1470.64 299.824 1485.9 290.824 z"/>
<path transform="translate(0,0)" fill="rgb(21,249,249)" d="M 1475.07 412.937 C 1481.22 414.381 1495.08 421.113 1500.24 424.595 C 1518.23 436.721 1539 433.216 1561.43 432.9 C 1572.71 443.913 1584.93 463.904 1598.75 469.672 C 1610.12 474.416 1622.27 477.854 1633.95 483.303 L 1635.43 484 C 1642.03 498.056 1645.14 519.919 1655.55 530.747 C 1664.21 539.745 1675.34 546.527 1683.9 556.562 C 1684 607.741 1688.65 587.293 1707.49 626.939 C 1705.29 640.141 1700.6 653.42 1698.37 665.337 C 1697.07 672.253 1705.02 699.892 1707.16 708.862 C 1700.28 719.6 1684.42 738.572 1682.82 749.425 C 1681.3 759.667 1680.72 772.488 1678.75 783.553 L 1678.5 784.868 C 1669.83 793.165 1645.71 809.083 1641.9 816.872 C 1636.88 827.158 1631.7 842.857 1625.47 854.873 C 1614.19 860.282 1587.39 866.073 1581 871.854 C 1575.08 877.205 1560.67 892.85 1553.7 899.727 C 1541.17 900.341 1515.16 897.907 1506.43 900.468 C 1497.37 903.126 1480.99 912.424 1469.89 916.305 L 1468.44 916.801 C 1453.92 913.857 1438.29 903.437 1421.05 899.587 C 1424.05 886.167 1427.92 868.582 1431.81 855.7 C 1442.52 858.358 1456.53 865.232 1466.85 869.974 C 1500.66 853.999 1497.79 854.342 1534.8 857.195 C 1565.21 825.621 1552.08 832.879 1594.29 819.532 C 1598.06 810.468 1602.2 797.565 1606.85 789.286 C 1612.04 780.024 1628.92 771.638 1637.15 763.78 C 1641.64 724.388 1636.76 733.905 1659.68 700.251 C 1658.3 694.066 1656.82 687.903 1655.25 681.764 C 1649.8 662.71 1654.72 654.502 1660.72 635.67 C 1642.72 603.564 1641.28 619.151 1641.91 575.695 C 1631.6 566.44 1615.96 558.32 1610.59 545.685 C 1607.06 537.403 1603.72 526.78 1600.69 518.13 C 1562.88 500.384 1571.88 511.21 1543.11 476.076 C 1530.55 476.72 1517.97 477.028 1505.4 477 C 1494.87 470.487 1485.55 465.243 1474.66 459.347 C 1433.26 471.947 1447.16 474.266 1401.35 465.812 C 1392.08 472.773 1383.18 482.12 1374.35 488.937 C 1365.68 495.638 1343.11 499.262 1331.22 501.972 C 1326.67 510.595 1322.36 520.223 1318.25 528.617 C 1312.58 540.207 1290.41 551.525 1278.25 558.87 C 1277.08 597.094 1276.27 595.662 1253.46 624.94 C 1256.01 634.402 1260.94 653.588 1259.83 662.591 C 1258.04 677.167 1252.84 683.287 1255.26 698.984 C 1244.23 702.395 1223.97 707.961 1212.96 709.849 C 1210.36 705.923 1207.74 701.594 1205.21 697.582 C 1218.7 654.584 1215.99 658.13 1208.34 614.021 C 1214.02 602.656 1226.4 590.034 1230.94 580.516 C 1235.69 570.588 1237.13 545.993 1240.2 532.452 C 1245.3 528.678 1273.89 511.724 1279.72 508.728 C 1288.3 494.31 1294.4 476.747 1302.43 463.819 C 1317.08 459.642 1345.93 456.416 1356.43 447.888 C 1365.57 440.465 1375.82 429.37 1386.07 421.622 L 1387 420.929 C 1397.9 421.711 1412.78 425.311 1424.07 426.569 C 1439.25 428.26 1460.08 418.536 1475.07 412.937 z"/>
</svg>