<svg version="1.1" xmlns="http://www.w3.org/2000/svg" style="display: block;" viewBox="0 0 2048 2048" width="1024" height="1024" preserveAspectRatio="none">
<path transform="translate(0,0)" fill="rgb(196,196,196)" d="M 1007.88 467.431 C 1011.86 467.203 1016.57 467.21 1020.62 467.161 C 1167.82 466.682 1309.3 524.131 1414.49 627.097 C 1519.84 730.466 1579.47 871.689 1580.07 1019.29 C 1581.79 1165.74 1525.38 1306.91 1423.21 1411.85 C 1372.06 1464 1297.36 1518.29 1226.96 1539.24 C 1171.54 1555.72 1093.65 1566.68 1035.75 1567.25 C 908.738 1574.21 739.872 1515.88 645.369 1430.98 C 422.617 1230.86 408.787 878.426 605.332 656.058 C 689.376 561.149 803.081 497.494 927.924 475.464 C 955.681 470.613 979.965 469.127 1007.88 467.431 z M 1040.45 1450.62 C 1275.9 1441.42 1459.39 1243.22 1450.44 1007.76 C 1441.48 772.303 1243.47 588.612 1008 597.327 C 772.189 606.053 588.174 804.416 597.142 1040.22 C 606.11 1276.02 804.661 1459.83 1040.45 1450.62 z"/>
<path transform="translate(0,0)" fill="rgb(134,135,135)" d="M 500.282 875.532 L 501.498 875.917 C 501.724 881.497 496.94 885.769 499.219 891.587 C 506.016 896.56 513.745 891.154 523.686 890.797 C 544.55 890.047 564.412 889.259 585.093 892.91 C 592.501 894.218 596.922 897.291 604.24 897.839 C 608.551 895.775 607.103 890.52 611.154 882.828 L 612.247 882.668 C 612.082 889.204 604.326 911.533 602.275 920.252 C 588.116 980.441 586.816 1038.43 595.825 1099.54 C 597.418 1110.35 617.281 1176.19 616.583 1179.36 C 613.715 1171.13 610.768 1162.93 607.743 1154.76 L 606.366 1154.57 C 600.743 1158.5 564.472 1151.35 556.137 1150.17 C 541.762 1147.89 529.355 1149.87 515.572 1153.83 C 510.05 1155.42 499.53 1152.54 498.128 1160.12 C 500.04 1163.04 501.277 1167.19 500.487 1170.67 C 489.891 1155.28 477.838 1049.52 478.52 1028.47 C 479.768 989.923 484.788 910.102 500.282 875.532 z"/>
<path transform="translate(0,0)" fill="rgb(134,135,135)" d="M 1544.75 873.503 C 1550.03 876.967 1550.15 885.444 1551.66 890.96 C 1574.35 973.744 1573.03 1064.68 1554.67 1148.26 C 1554.01 1151.25 1547.19 1173 1545.86 1174.95 L 1544.72 1174.8 C 1544.86 1169.14 1551.12 1156.81 1551.56 1147.82 C 1544.56 1148.9 1534.8 1150.76 1527.19 1150.6 C 1500.35 1150.03 1471.33 1144.6 1444.72 1145.99 C 1443.45 1146.05 1443.36 1147.04 1442.72 1148.36 C 1441.49 1151.87 1440.43 1156.4 1437.53 1158.31 C 1436.91 1155.48 1442.81 1139.06 1444.12 1133.69 C 1449.82 1110.52 1453.82 1086.96 1456.09 1063.2 C 1459.35 1026.61 1458.55 991.615 1452.01 955.529 C 1448.49 936.115 1443.2 916.777 1439.99 897.577 L 1440.82 897.251 C 1443.52 900.831 1441.99 903.622 1444.59 908.944 C 1451.35 912.958 1459.25 904.635 1466.31 904.651 C 1483.1 904.689 1539.5 908.109 1550.1 896.566 C 1550.63 892.619 1546.05 877.884 1544.75 873.503 z"/>
<path transform="translate(0,0)" fill="rgb(240,240,239)" d="M 1008.75 480.495 C 1110.76 479.42 1208.43 501.926 1296.81 554.134 L 1296.52 554.766 C 1291.74 552.156 1289.78 552.826 1286.28 550.876 C 1282.17 548.587 1281.61 546.357 1276.06 543.694 C 1238.2 525.515 1195.12 505.624 1153.52 498.848 C 1146.59 497.719 1149.86 498.704 1143.02 495.068 C 1141.21 495.933 1141.26 495.982 1140.01 497.461 C 1138.18 495.852 1134.61 493.027 1132.16 493.136 C 1121.8 492.98 1107 497.367 1097.13 496.874 C 1073.31 495.684 1064.89 489.662 1040.56 495.178 C 1039.89 496.332 1039.23 497.492 1038.58 498.658 C 1031.4 497.81 1015.7 496.965 1009.31 500.196 L 1007.8 499.109 L 1007.52 494.562 L 1006.41 494.49 C 990.019 493.612 964.173 500.428 945.849 497.266 C 943.499 496.86 932.944 491.943 930.194 490.681 L 926.008 494.574 C 921.602 495.402 920.653 491.819 919.726 492.302 C 914.957 494.787 908.645 500.659 902.848 499.428 C 900.973 499.029 891.907 497.774 890.091 498.207 C 885.67 499.263 880.633 501.166 875.856 502.435 C 839.974 511.975 807.814 526.043 774.703 542.341 C 757.194 550.96 739.682 564.083 723.379 572.43 L 723.106 571.851 C 732.323 564.772 751.953 553.656 762.464 547.787 C 840.799 504.048 919.858 485.086 1008.75 480.495 z"/>
</svg>