<svg version="1.1" xmlns="http://www.w3.org/2000/svg" style="display: block;" viewBox="0 0 2048 2048" width="1024" height="1024" preserveAspectRatio="none">
<defs>
	<linearGradient id="Gradient1" gradientUnits="userSpaceOnUse" x1="1234.89" y1="1013.24" x2="1219.21" y2="1022.93">
		<stop class="stop0" offset="0" stop-opacity="1" stop-color="rgb(19,0,0)"/>
		<stop class="stop1" offset="1" stop-opacity="1" stop-color="rgb(53,25,26)"/>
	</linearGradient>
	<linearGradient id="Gradient2" gradientUnits="userSpaceOnUse" x1="803.126" y1="1011.02" x2="817.203" y2="1018.83">
		<stop class="stop0" offset="0" stop-opacity="1" stop-color="rgb(11,0,0)"/>
		<stop class="stop1" offset="1" stop-opacity="1" stop-color="rgb(49,28,29)"/>
	</linearGradient>
	<linearGradient id="Gradient3" gradientUnits="userSpaceOnUse" x1="878.001" y1="751.253" x2="869.926" y2="742.31">
		<stop class="stop0" offset="0" stop-opacity="1" stop-color="rgb(31,23,24)"/>
		<stop class="stop1" offset="1" stop-opacity="1" stop-color="rgb(50,8,12)"/>
	</linearGradient>
	<linearGradient id="Gradient4" gradientUnits="userSpaceOnUse" x1="574.969" y1="1035.61" x2="589.06" y2="1053.69">
		<stop class="stop0" offset="0" stop-opacity="1" stop-color="rgb(42,4,6)"/>
		<stop class="stop1" offset="1" stop-opacity="1" stop-color="rgb(37,24,26)"/>
	</linearGradient>
	<linearGradient id="Gradient5" gradientUnits="userSpaceOnUse" x1="1045.79" y1="607.25" x2="1037.44" y2="612.487">
		<stop class="stop0" offset="0" stop-opacity="1" stop-color="rgb(73,14,19)"/>
		<stop class="stop1" offset="1" stop-opacity="1" stop-color="rgb(49,24,23)"/>
	</linearGradient>
	<linearGradient id="Gradient6" gradientUnits="userSpaceOnUse" x1="968.145" y1="457.52" x2="962.581" y2="447.703">
		<stop class="stop0" offset="0" stop-opacity="1" stop-color="rgb(8,3,6)"/>
		<stop class="stop1" offset="1" stop-opacity="1" stop-color="rgb(37,15,15)"/>
	</linearGradient>
</defs>
<path transform="translate(0,0)" fill="rgb(37,24,25)" d="M 997.527 440.572 C 1019.71 439.804 1098.68 441.868 1075.34 483.603 C 1078.83 490.618 1079.61 492.299 1081.77 499.722 L 1082.28 501.458 L 1082.58 502.503 C 1104.54 503.883 1110.4 515.318 1117.01 534.227 C 1138.01 544.367 1132.35 539.661 1140.39 558.422 C 1145.23 569.705 1150.15 562.558 1152.58 581.001 C 1192.46 604.508 1248.35 636.64 1296.36 655.993 C 1518.24 745.415 1753.85 837.715 1918.06 1019.53 C 1930.32 1033.11 1910.18 1058.98 1893.13 1057.58 C 1890.74 1057.62 1895 1087.42 1882.67 1089.69 C 1872.06 1095.16 1877.57 1094.9 1863.14 1095.39 C 1860.57 1098.92 1864.44 1108.03 1863.57 1112.49 C 1860.59 1127.7 1845.51 1134.64 1831.54 1132.55 C 1830.13 1140.6 1832.35 1142.32 1829.49 1152.12 C 1866.17 1173.92 1905.75 1191.58 1907.33 1239.66 C 1922.12 1250.49 1929.52 1269.96 1916.94 1286.27 C 1905.93 1300.55 1893.03 1298.24 1877.59 1294.64 C 1877.72 1301.65 1879.42 1304.37 1877.98 1312.13 C 1874.72 1329.68 1848.51 1343.49 1833.73 1331.18 L 1832.2 1331.71 C 1835.77 1343.49 1837.41 1349.52 1830.79 1361.73 C 1826.41 1369.81 1819.76 1374.03 1811.31 1376.48 C 1803.31 1378.8 1791.84 1374.17 1789.55 1375.67 C 1788.02 1388.07 1786.34 1401.38 1773.8 1407.73 C 1761.94 1413.73 1754.48 1413.06 1742.56 1408.35 C 1742.05 1420.18 1741.66 1430.32 1731.3 1438.71 C 1717.61 1449.79 1702.32 1447.1 1689.37 1436.53 L 1688.78 1436.03 C 1689.89 1446.64 1689.7 1454.51 1682.24 1463.49 C 1677 1469.87 1669.3 1473.72 1661.05 1474.09 C 1652.63 1474.5 1643.88 1471.22 1637.91 1465.27 C 1636.33 1463.66 1634.84 1461.97 1633.44 1460.21 C 1631.16 1480.85 1620.72 1495.68 1596.98 1493.09 C 1587.93 1492.1 1581.9 1486.43 1575.98 1479.99 C 1575.28 1484 1574.58 1489.26 1572.49 1492.62 C 1554.72 1521.1 1528.42 1513.51 1514.56 1488.26 C 1514.37 1500.58 1514.33 1512.89 1504.24 1521.43 C 1483.57 1538.93 1463.96 1526.33 1453.58 1506.51 C 1453.2 1518.19 1453.16 1526.81 1443.53 1535.65 C 1437.72 1541.03 1429.98 1543.82 1422.07 1543.4 C 1406.23 1542.6 1398.17 1532.58 1392.53 1519.19 C 1390.72 1531.05 1389.43 1540.06 1378.72 1547.91 C 1371.69 1552.98 1362.87 1554.9 1354.36 1553.23 C 1336.91 1549.73 1331.67 1535.28 1330.21 1519.62 C 1317.41 1534.01 1299.5 1540.17 1283.98 1525.43 C 1277.64 1519.45 1274.03 1511.14 1273.97 1502.43 C 1273.95 1497.5 1274.98 1493.73 1276.2 1489.04 C 1271.44 1476.73 1269.54 1470.37 1267.33 1457.39 C 1253.65 1449.05 1250.97 1443.01 1247.03 1427.72 C 1228.11 1452.73 1198.94 1441.29 1190 1413.24 C 1179.06 1428.79 1161.1 1433.59 1145.06 1421.57 C 1139.13 1417.13 1136.59 1411.45 1133.29 1405.02 C 1128.73 1413.12 1123.92 1419.06 1114.27 1421.67 C 1106.19 1423.82 1097.59 1422.51 1090.51 1418.06 C 1082.31 1412.93 1080.42 1409.05 1075.98 1401 C 1072.69 1409.39 1068.05 1415.43 1059.54 1419.22 C 1051.7 1422.65 1042.78 1422.66 1034.94 1419.24 C 1025.2 1415.03 1020.96 1408.69 1016.78 1399.7 C 1013 1407.73 1008.16 1413.02 999.527 1416.09 C 991.951 1418.75 983.631 1418.3 976.386 1414.84 C 968.791 1411.19 965.465 1407.02 961.334 1400.05 C 957.586 1409.56 953.204 1416.67 943.155 1420.93 C 935.929 1423.94 927.794 1423.93 920.581 1420.88 C 913.896 1418.08 907.342 1412.4 903.938 1405.99 C 891.761 1432.74 864.653 1435.42 845.849 1413.2 C 843.407 1422.89 840.544 1430.84 831.562 1436.28 C 817.237 1444.97 799.167 1439.02 789.985 1426.32 C 786.625 1441.23 784.703 1447.29 771.541 1456.79 C 768.806 1468.09 766.402 1476.66 762.021 1487.49 C 764.614 1498.91 766.197 1509.77 758.964 1519.84 C 744.537 1539.92 723.497 1535.49 708.022 1520.88 C 707.161 1539.55 695.007 1554.52 675.307 1553.44 C 667.279 1553.07 659.731 1549.51 654.344 1543.55 C 647.473 1535.88 646.162 1528.29 645.432 1518.46 C 640.775 1528.83 636.893 1537.43 625.084 1541.8 C 617.199 1544.69 608.471 1544.17 600.983 1540.37 C 587.274 1533.29 584.307 1521 583.125 1507 C 578.672 1516.54 574.351 1523.78 563.535 1527.63 C 555.518 1530.44 546.69 1529.74 539.214 1525.71 C 524.189 1517.72 521.537 1504.09 523.035 1488.59 C 503.27 1525.55 460.141 1509.15 462.573 1478.52 C 439.181 1505.4 403.2 1492.63 404.305 1459.47 C 401.926 1461.95 395.335 1469.16 392.634 1470.6 C 381.551 1476.52 367.868 1476.18 358.063 1467.57 C 348.517 1459.19 346.06 1450.43 345.777 1437.99 C 337.206 1443.76 329.661 1447.45 318.708 1445.44 C 310.858 1443.91 303.956 1439.29 299.565 1432.6 C 293.778 1423.93 293.717 1417.92 293.596 1407.93 C 268.823 1419.45 244.829 1403.24 246.771 1376.51 L 246.872 1375.02 C 246.899 1374.72 246.925 1374.42 246.952 1374.13 C 214.773 1382.6 196.842 1365.54 203.043 1332.99 C 173.195 1341.98 154.863 1324.42 159.383 1294.09 C 150.976 1297.73 142.119 1298.81 133.4 1295.41 C 125.968 1292.48 120.043 1286.66 116.983 1279.29 C 113.66 1271.35 113.767 1262.39 117.279 1254.53 C 120.45 1247.46 124.336 1244.32 130.57 1240.1 C 129.317 1193.25 171.758 1172 207.901 1152.16 C 206.584 1147.42 206.574 1135.19 205.256 1133.56 C 180.779 1130.87 170.502 1122.26 175.07 1095.73 C 164.881 1091.74 152.953 1093.11 146.6 1078.75 C 143.819 1072.47 144.101 1063.63 145.628 1057.01 C 128.42 1054.53 114.045 1045.98 117.394 1025.09 C 119.275 1013.36 136.779 1000.71 144.349 991.671 C 207.714 927.69 286.274 871.696 364.404 826.971 C 424.654 792.686 486.653 761.569 550.147 733.747 C 639.176 695.792 730.364 664.66 814.947 617.522 C 829.776 609.258 857.496 594.237 870.337 583.711 C 871.585 578.812 869.677 572.863 874.407 568.603 C 891.264 553.418 878.066 543.329 904.454 535.643 C 910.363 517.639 916.526 505.211 937.831 503.628 L 938.204 502.403 C 941.093 493.156 946.154 488.088 943.915 480.916 L 942.704 480.491 C 940.964 478.082 940.417 476.737 940.139 473.827 C 937.577 447.034 979.413 442.099 997.527 440.572 z"/>
<path transform="translate(0,0)" fill="rgb(135,37,40)" d="M 943.915 480.916 L 942.704 480.491 C 940.964 478.082 940.417 476.737 940.139 473.827 C 937.577 447.034 979.413 442.099 997.527 440.572 C 994.238 442.694 994.439 442.77 992.834 446.164 C 1013.12 443.994 1068.12 444.907 1074.04 470.003 C 1077.92 486.46 1029.75 503.742 1022.14 513.053 C 1019.77 516.003 1018.93 517.415 1014.81 517.609 C 995.039 514.484 958.67 491.98 945.597 476.795 L 944.329 477.032 C 943.463 473.692 943.148 472.854 943.098 469.297 L 941.812 469.798 C 940.961 473.699 942.425 476.416 944.341 479.899 L 943.915 480.916 z"/>
<path transform="translate(0,0)" fill="rgb(45,15,17)" d="M 1014.81 517.609 C 1004.52 501.457 977.643 492.589 965.982 478.418 C 948.431 457.088 994.261 449.263 1007.36 452.552 C 1003.52 457.566 932.604 454.502 990.735 490.957 C 996.513 494.581 1002.29 498.937 1007.74 503.024 C 1018.51 495.498 1052.37 480.541 1051.31 466.828 C 1046.7 459.989 1030.69 455.382 1022.7 452.458 C 1035.35 453.192 1064.4 456.812 1054.37 475.79 C 1048.48 486.922 1022.23 501.177 1011.41 506.708 L 1019.08 513.554 L 1022.14 513.053 C 1019.77 516.003 1018.93 517.415 1014.81 517.609 z"/>
<path transform="translate(0,0)" fill="url(#Gradient6)" d="M 943.915 480.916 L 942.704 480.491 C 940.964 478.082 940.417 476.737 940.139 473.827 C 937.577 447.034 979.413 442.099 997.527 440.572 C 994.238 442.694 994.439 442.77 992.834 446.164 C 976.258 448.273 941.469 453.213 945.597 476.795 L 944.329 477.032 C 943.463 473.692 943.148 472.854 943.098 469.297 L 941.812 469.798 C 940.961 473.699 942.425 476.416 944.341 479.899 L 943.915 480.916 z"/>
<path transform="translate(0,0)" fill="rgb(173,47,52)" d="M 1010.41 651.485 C 1013.81 654.546 1018.51 664.272 1020.96 668.697 C 1031.34 687.2 1042.36 705.341 1053.98 723.085 C 1078.54 760.8 1075.45 748.925 1083.3 792.659 C 1086.18 808.128 1089.36 823.539 1092.84 838.883 C 1107.14 903.881 1125.33 969.079 1151.42 1030.38 C 1203.79 1153.41 1299.94 1251.28 1387.91 1349.3 C 1391.54 1353.35 1395.68 1357.92 1398.75 1362.36 L 1399.29 1363.16 L 1395.28 1362.96 C 1368.04 1361.6 1357.71 1375.75 1357.88 1401.44 C 1337.56 1386.66 1316.63 1394.83 1307.87 1417.65 C 1293.93 1392.47 1272.4 1389.74 1252.88 1410.93 C 1251.46 1400.84 1248.35 1392.55 1240.2 1385.89 C 1233.73 1380.55 1225.32 1378.16 1217.01 1379.3 C 1207.23 1380.69 1200.45 1386.19 1194.72 1393.84 C 1191.37 1382.82 1187.69 1374.56 1176.61 1369.21 C 1169.53 1365.87 1161.41 1365.45 1154.03 1368.06 C 1145.14 1371.16 1139.87 1377.31 1135.76 1385.4 C 1131.92 1376.89 1128.4 1370.55 1120.15 1365.5 C 1113.53 1361.41 1105.51 1360.22 1097.98 1362.21 C 1087.24 1365.05 1081.86 1371.86 1076.61 1380.76 C 1063.96 1359.11 1041.68 1351.77 1023.35 1371.66 C 1022.02 1373.57 1020.11 1376.91 1018.84 1378.99 C 1014.99 1369.78 1011.36 1363.17 1001.64 1358.54 C 994.668 1355.28 986.687 1354.97 979.486 1357.66 C 968.209 1361.83 963.885 1369.46 959.29 1379.44 C 954.974 1372.33 951.153 1367.64 943.392 1364.17 C 936.249 1361.01 928.13 1360.9 920.905 1363.86 C 911.157 1367.82 906.086 1375.02 902.098 1384.27 C 881.643 1357.24 852.024 1361.16 842.608 1394.49 C 836.798 1386.41 829.567 1380.73 819.384 1379.44 C 811.404 1378.39 803.344 1380.67 797.094 1385.74 C 789.035 1392.22 785.648 1400.63 784.455 1410.61 C 765.711 1389.77 743.59 1392.11 729.449 1416.28 C 717.387 1393.33 702.535 1388.55 679.72 1400.26 C 681.258 1372.68 664.04 1360.05 637.867 1363.4 C 665.895 1329.21 695.958 1298.93 724.618 1265.73 C 786.912 1193.24 847.6 1115.36 884.722 1026.53 C 913.848 956.845 931.558 882.553 945.684 808.569 C 949.489 788.642 951.537 767.338 956.871 747.947 C 959.395 738.772 972.881 722.175 976.987 712.872 C 989.537 691.985 999.651 673.369 1010.41 651.485 z"/>
<path transform="translate(0,0)" fill="rgb(37,24,25)" d="M 1027.01 821.053 L 1029.82 820.548 C 1033.65 849.052 1038.75 873.306 1049.26 900.397 C 1058.16 923.363 1074.42 952.653 1079 976.247 C 1085.44 1009.4 1084.65 1046.01 1088.39 1080.47 C 1091.91 1112.82 1098.13 1125.51 1105.14 1154.44 C 1088.5 1119.85 1079.82 1077.44 1079.53 1039.7 C 1079.13 987.891 1069.1 955.983 1046.98 910.253 C 1035.25 886.023 1029.97 848.753 1027.01 821.053 z"/>
<path transform="translate(0,0)" fill="rgb(37,24,25)" d="M 1001.17 692.638 L 1002.27 693.698 C 1006.43 704.264 989.96 771.74 988.241 792.166 C 984.995 830.733 986.452 864.103 986.01 902.21 C 985.738 945.178 979.443 987.896 967.311 1029.12 C 966.305 1026.84 975.486 980.31 976.476 972.616 C 986.866 891.8 970.814 810.422 993.348 730.985 C 996.685 719.223 996.989 703.941 1001.17 692.638 z"/>
<path transform="translate(0,0)" fill="rgb(37,24,25)" d="M 899.381 1126.75 C 902.287 1142.76 841.037 1223 830.436 1239.32 C 821.518 1253.1 813.484 1267.43 806.382 1282.22 C 806.179 1278.03 809.744 1270.21 811.363 1266.23 C 827.916 1225.58 857.669 1193.57 881.747 1157.53 C 888.001 1148.17 893.397 1136.66 899.381 1126.75 z"/>
<path transform="translate(0,0)" fill="rgb(45,15,17)" d="M 1136.97 1126.67 C 1140.89 1129.24 1151.53 1151.8 1155.36 1157.56 C 1182.05 1197.71 1218.45 1234.86 1232.09 1282.28 C 1229.33 1279.1 1224.05 1267.92 1221.69 1263.52 C 1195.18 1214.22 1156.49 1180.42 1136.97 1126.67 z"/>
<path transform="translate(0,0)" fill="rgb(37,24,25)" d="M 1052.62 766.582 L 1054.22 767.6 C 1058.03 773.569 1068.23 835.879 1068.73 844.663 C 1062.47 833.068 1052.73 780.298 1052.62 766.582 z"/>
<path transform="translate(0,0)" fill="rgb(37,24,25)" d="M 1022.72 724.406 C 1026.84 727.45 1025.08 759.669 1024.74 766.187 C 1021.87 756.784 1021.96 734.45 1022.72 724.406 z"/>
<path transform="translate(0,0)" fill="rgb(45,15,17)" d="M 1027.01 821.053 C 1026.34 810.56 1025.73 802.661 1026.39 792.095 C 1027.97 800.388 1028.89 811.932 1029.82 820.548 L 1027.01 821.053 z"/>
<path transform="translate(0,0)" fill="rgb(173,47,52)" d="M 1021.19 616.076 C 1018.19 606.529 998.974 562.143 1003.6 555.619 L 1006.27 555.771 L 1008.03 558.24 C 1011.21 558.938 1011.01 558.877 1014.24 558.308 C 1036.48 570.434 1039.09 576.616 1056.97 592.999 C 1096.15 628.889 1148.3 654.907 1193.61 682.624 C 1243.34 712.531 1290.72 746.166 1335.36 783.238 C 1380.91 821.417 1417.05 858.991 1459.17 900.382 C 1504.97 945.382 1555.57 990.643 1607.01 1028.74 C 1652.24 1062.07 1699.82 1092.07 1749.39 1118.51 C 1791.14 1141.03 1840.62 1162.36 1877.62 1191.38 C 1892.28 1202.87 1900.01 1218.11 1901.34 1236.89 C 1873.78 1214.68 1842.48 1200.19 1810.38 1186.44 C 1711.29 1144 1625.19 1089.55 1539.7 1024.87 C 1517.86 1008.35 1377.79 895.685 1368.48 895.234 C 1369.97 897.708 1400.28 920.552 1405.15 924.581 C 1501.87 1004.64 1600.99 1086.85 1712.2 1146.35 C 1742.51 1162.21 1773.29 1177.16 1804.5 1191.17 C 1829.15 1202.46 1868.3 1218.62 1888.99 1235.52 C 1866.64 1243.83 1859.56 1253.2 1861.62 1277 C 1839.78 1271.38 1820.2 1277.98 1817.28 1303.34 C 1816.77 1307.79 1818.24 1314.23 1819.04 1318.76 C 1790.56 1307.75 1775.02 1325.53 1772.69 1352.87 C 1753.6 1345.05 1734.6 1353.59 1728.92 1373.9 C 1727.68 1378.37 1727.98 1383.57 1728.03 1388.21 C 1709.32 1380.29 1696.13 1383.68 1684.57 1400.32 C 1680.29 1393.2 1651.84 1362.39 1643.93 1353.44 C 1615.8 1321.61 1584.56 1287.79 1553.11 1259.28 C 1493.37 1205.12 1431.56 1155.85 1373.6 1099.44 C 1305.06 1032.73 1245.11 960.005 1183.7 886.932 C 1139.12 833.877 1097.54 779.553 1060.52 720.984 C 1040.05 689.171 1020.26 657.575 1005.98 622.309 C 999.555 606.455 993.149 582.145 990.975 564.692 C 990.725 562.688 992.652 561.272 994.242 560.449 C 995.991 561.488 996.831 562.442 997.569 564.527 C 1004.5 584.105 1010.05 598.301 1021.19 616.076 z"/>
<path transform="translate(0,0)" fill="url(#Gradient5)" d="M 1008.03 558.24 C 1011.21 558.938 1011.01 558.877 1014.24 558.308 C 1015.86 572.735 1046.71 619.316 1057.94 632.971 C 1063.75 640.046 1077.69 656.571 1081.35 663.521 C 1053.55 639.932 1034.86 614.774 1018.36 582.176 C 1014.88 575.294 1009.92 565.413 1008.03 558.24 z"/>
<path transform="translate(0,0)" fill="rgb(45,15,17)" d="M 1249.27 884.744 C 1255.67 886.525 1420.84 1025.53 1436.92 1039.68 C 1514.68 1108.11 1580.95 1146.13 1670.44 1197.18 C 1664.48 1196.18 1634.54 1179.92 1628.16 1176.56 C 1586.77 1154.75 1543.96 1130.16 1506.16 1102.47 C 1449.94 1061.27 1395.24 1013.21 1342.6 967.306 L 1294.28 924.801 C 1279.88 912.341 1262.62 898.048 1249.27 884.744 z"/>
<path transform="translate(0,0)" fill="rgb(45,15,17)" d="M 1065.98 665.545 C 1070.8 667.059 1107.98 707.752 1114.96 714.381 C 1144.64 742.33 1176.08 768.344 1209.09 792.26 C 1223.63 802.842 1238.88 812.727 1253.56 823.263 C 1247.28 822.03 1222.52 805.18 1216.73 801.037 C 1171.36 768.521 1091.78 715.854 1065.98 665.545 z"/>
<path transform="translate(0,0)" fill="rgb(173,47,52)" d="M 984.522 573.655 C 987.262 576.26 990.002 589.725 991 593.813 C 979.313 618.714 958.854 640.693 944.567 663.991 C 965.959 645.683 978.462 627.031 992.977 603.756 C 997.898 618.924 1000.95 628.091 1007.45 642.424 C 981.361 694.751 951.593 745.162 918.369 793.276 C 893.031 829.497 866.175 862.738 839.089 897.566 C 772.784 982.819 702.567 1063.84 622.282 1136.28 C 578.557 1178.32 528.263 1215.53 484.765 1257.48 C 440.998 1299.68 389.479 1352.28 352.228 1400.73 C 340.109 1384.31 328.084 1379.57 309.073 1387.44 C 307.187 1359.51 291.635 1343.39 263.056 1352.9 C 263.694 1332.41 253.126 1314.45 230.084 1314.59 C 226.912 1314.61 221.178 1317.21 218.882 1316.26 C 219.974 1308.53 221.144 1304.26 218.923 1296.54 C 216.743 1288.73 211.475 1282.14 204.333 1278.3 C 194.024 1272.71 186.136 1273.88 175.806 1276.89 C 177.667 1253.95 170.602 1241.45 147.41 1236.42 C 171.702 1218.32 193.421 1209.11 220.748 1196.51 C 245.055 1185.56 269.164 1174.18 293.063 1162.37 C 369.257 1123.71 441.331 1077.42 508.178 1024.21 C 555.138 989.317 598.62 948.499 644.79 912.567 C 651.684 907.202 660.217 901.273 666.478 895.41 C 654.595 900.713 637.863 913.51 627.004 921.621 C 595.093 945.454 564.405 971.206 533.258 996.059 C 495.05 1026.46 455.732 1055.45 415.384 1082.95 C 368.518 1114.44 319.385 1142.43 268.389 1166.67 C 229.412 1185.54 187.126 1201.81 150.66 1225.42 C 146.107 1228.37 143.051 1232.11 138.014 1234.96 L 137.11 1234.14 C 133.966 1195.95 197.882 1164.41 226.633 1150.26 C 349.27 1089.92 459.45 1015.47 557.398 919.681 C 615.6 862.76 672.237 802.415 737.249 752.329 C 767.792 728.743 799.316 706.455 831.736 685.525 C 880.856 654.023 950.177 619.713 984.522 573.655 z"/>
<path transform="translate(0,0)" fill="url(#Gradient4)" d="M 783.757 884.995 L 784.198 885.31 L 784.15 886.489 C 695.667 961.053 610.804 1045.55 515.626 1112.3 C 473.854 1141.59 419.103 1171.8 373.473 1195.03 L 373.096 1194.83 L 372.939 1193.98 C 391.142 1182.66 411.66 1172.27 430.344 1161.19 C 560.177 1084.15 665.192 977.485 783.757 884.995 z"/>
<path transform="translate(0,0)" fill="url(#Gradient3)" d="M 957.163 666.844 L 957.515 668.271 C 944.808 706.879 820.862 800.645 783.938 822.264 L 783.901 821.627 C 784.367 820.901 835.007 781.929 840.622 777.321 C 861.804 759.936 883.031 742.536 902.865 723.603 C 921.819 705.509 939.415 686.1 957.163 666.844 z"/>
<path transform="translate(0,0)" fill="rgb(173,47,52)" d="M 852.494 892.018 C 867.117 872.614 892.684 842.927 904.856 823.636 C 894.005 916.426 849.65 1012.43 793.922 1086.42 C 779.294 1105.84 761.953 1128.36 744.342 1145.07 C 735.086 1158.59 717.313 1176.31 705.688 1188.17 C 656.841 1237.98 602.1 1300.69 617.001 1376.02 C 620.056 1391.46 613.801 1402.4 625.095 1414.39 C 650.202 1441.03 688.35 1454.77 716.096 1476.33 C 710.321 1482.25 708.639 1484.27 704.152 1491.62 L 703.929 1496.59 C 703.965 1499.6 704.176 1500.3 703.22 1503.18 C 699.465 1503.4 693.097 1495.55 688.518 1493.56 C 684.191 1491.68 682.481 1491.46 677.808 1490.67 C 659.571 1492.91 653.664 1499.82 646.091 1515.39 C 643.887 1502.11 639.721 1490.65 626.736 1484.39 C 619.615 1480.97 611.395 1480.66 604.033 1483.52 C 592.934 1487.85 588.822 1495.97 584.312 1505.85 C 584.006 1492.24 581.459 1480.41 569.179 1472.44 C 562.199 1467.85 553.612 1466.4 545.511 1468.45 C 535.555 1471.04 529.555 1477.78 524.571 1486.28 C 524.495 1485.13 524.408 1483.97 524.311 1482.82 C 523.384 1471.53 520.246 1462.32 511.109 1454.92 C 504.928 1449.85 496.977 1447.47 489.029 1448.31 C 479.292 1449.41 472.524 1455.1 466.757 1462.54 C 459.173 1431.96 429.013 1419.47 409.136 1445.99 C 404.7 1416.2 380.906 1401.01 355.822 1421.36 C 355.29 1414.8 354.534 1409.5 353.535 1402.99 C 362.458 1394.79 370.481 1385.67 378.701 1376.79 C 407.652 1345.5 436.176 1313.84 466.824 1284.19 C 503.138 1249.05 542.04 1216.75 580.132 1183.58 C 618.033 1151.03 654.658 1117.03 689.924 1081.64 C 729.136 1041.32 766.479 999.223 801.834 955.48 C 818.243 935.348 835.883 911.021 852.494 892.018 z"/>
<path transform="translate(0,0)" fill="rgb(135,37,40)" d="M 852.494 892.018 C 867.117 872.614 892.684 842.927 904.856 823.636 C 894.005 916.426 849.65 1012.43 793.922 1086.42 C 779.294 1105.84 761.953 1128.36 744.342 1145.07 C 745.383 1139.63 763.024 1104.43 766.599 1098.12 C 774.798 1079.37 792.263 1053.56 803.165 1036.27 C 825.092 1001.51 837.053 971.584 847.115 932.095 C 848.7 924.674 850.179 917.632 851.445 910.154 C 851.357 906.655 852.336 896.536 852.494 892.018 z"/>
<path transform="translate(0,0)" fill="url(#Gradient2)" d="M 847.115 932.095 L 849.175 932.594 C 844.465 954.512 840.567 972.476 829.732 997.96 C 817.418 1026.92 787.278 1071.29 767.461 1097.71 C 767.174 1097.85 766.887 1097.99 766.599 1098.12 C 774.798 1079.37 792.263 1053.56 803.165 1036.27 C 825.092 1001.51 837.053 971.584 847.115 932.095 z"/>
<path transform="translate(0,0)" fill="rgb(45,15,17)" d="M 851.445 910.154 C 853.598 914.404 850.262 927.477 849.175 932.594 L 847.115 932.095 C 848.7 924.674 850.179 917.632 851.445 910.154 z"/>
<path transform="translate(0,0)" fill="rgb(45,15,17)" d="M 680.996 1488.33 C 641.907 1474.21 575.866 1446.18 547.476 1416.09 L 546.619 1412.83 L 547.558 1411.23 C 550.374 1412.24 557.437 1418.89 560.72 1421.27 C 605.144 1453.54 653.141 1471.56 704.152 1491.62 L 703.929 1496.59 C 703.965 1499.6 704.176 1500.3 703.22 1503.18 C 699.465 1503.4 693.097 1495.55 688.518 1493.56 C 684.191 1491.68 682.481 1491.46 677.808 1490.67 L 680.996 1488.33 z"/>
<path transform="translate(0,0)" fill="rgb(135,37,40)" d="M 680.996 1488.33 L 703.929 1496.59 C 703.965 1499.6 704.176 1500.3 703.22 1503.18 C 699.465 1503.4 693.097 1495.55 688.518 1493.56 C 684.191 1491.68 682.481 1491.46 677.808 1490.67 L 680.996 1488.33 z"/>
<path transform="translate(0,0)" fill="rgb(173,47,52)" d="M 1294.77 1148.77 C 1277.72 1134.48 1256.87 1106.14 1243.02 1088.57 C 1194.87 1027.52 1159.4 956.451 1140.32 881.051 C 1136.88 867.477 1129.49 843.979 1129.48 830.401 C 1147.71 853.61 1166.31 876.531 1185.26 899.153 C 1249.78 975.83 1305.33 1042.94 1377.73 1112.8 C 1436.78 1169.77 1501.47 1219.07 1559.83 1274.45 C 1587.26 1300.75 1613.74 1328.01 1639.23 1356.18 C 1651.04 1369 1670.88 1391.95 1683.18 1403.13 C 1681.1 1410.54 1680.92 1413.33 1681.26 1421.01 C 1672.86 1414.89 1665.54 1410.73 1654.44 1412.49 C 1646.52 1413.76 1639.46 1418.19 1634.86 1424.77 C 1629.72 1431.97 1629.09 1437.28 1628.19 1445.61 C 1621.33 1437.95 1615.02 1432.64 1603.95 1431.93 C 1596.06 1431.42 1588.3 1434.11 1582.42 1439.39 C 1575.35 1445.66 1572.51 1452.7 1570.22 1461.62 C 1544.47 1435.14 1513.49 1451.3 1514.18 1487.25 C 1507.14 1477.82 1500.69 1469.68 1487.93 1467.75 C 1480.28 1466.58 1472.48 1468.58 1466.33 1473.28 C 1455.39 1481.69 1453.95 1492.79 1453.69 1505.57 C 1448.11 1495.09 1442.97 1486.55 1430.49 1482.86 C 1422.97 1480.63 1414.85 1481.64 1408.11 1485.64 C 1399.87 1490.45 1394.51 1498.9 1392.38 1508.07 C 1391.86 1510.42 1391.37 1512.78 1390.9 1515.14 C 1378.47 1486.47 1358.47 1485.42 1335.68 1503.12 L 1334.78 1502.33 C 1334.74 1499.09 1334.52 1499.23 1335.24 1496.15 L 1333.78 1491.88 C 1330.58 1485.06 1326.13 1480.92 1320.76 1475.91 C 1335.69 1465.18 1354.19 1456.77 1368.98 1447.19 C 1380.62 1439.65 1420.01 1415.1 1419.28 1400.17 C 1418.39 1381.8 1423.41 1359.83 1421.94 1342.42 C 1414.95 1259.82 1344.76 1208.19 1295.42 1149.75 C 1295.2 1149.42 1294.99 1149.09 1294.77 1148.77 z"/>
<path transform="translate(0,0)" fill="rgb(135,37,40)" d="M 1294.77 1148.77 C 1277.72 1134.48 1256.87 1106.14 1243.02 1088.57 C 1194.87 1027.52 1159.4 956.451 1140.32 881.051 C 1136.88 867.477 1129.49 843.979 1129.48 830.401 C 1147.71 853.61 1166.31 876.531 1185.26 899.153 C 1182.55 903.924 1186.34 917.204 1186.62 923.302 C 1187.5 928.297 1188.53 933.265 1189.7 938.2 C 1200.23 975.229 1209.63 999.43 1230.01 1032.58 C 1238.42 1046.26 1266.68 1085.62 1270.5 1098.78 C 1277.01 1107.02 1291.31 1138.5 1294.77 1148.77 z"/>
<path transform="translate(0,0)" fill="url(#Gradient1)" d="M 1187.96 939.017 L 1189.7 938.2 C 1200.23 975.229 1209.63 999.43 1230.01 1032.58 C 1238.42 1046.26 1266.68 1085.62 1270.5 1098.78 L 1269.44 1098.55 C 1261.82 1089.28 1254.38 1077.6 1247.32 1067.75 C 1217.32 1025.93 1197.28 990.885 1187.96 939.017 z"/>
<path transform="translate(0,0)" fill="rgb(45,15,17)" d="M 1187.96 939.017 C 1186.61 934.46 1185.37 928.742 1185.36 923.998 L 1186.62 923.302 C 1187.5 928.297 1188.53 933.265 1189.7 938.2 L 1187.96 939.017 z"/>
<path transform="translate(0,0)" fill="rgb(37,24,25)" d="M 1333.78 1491.88 C 1381.17 1472.68 1429.32 1454.88 1470.95 1424.63 C 1474.82 1421.82 1485.45 1413.33 1489.95 1413.74 C 1482.44 1431.56 1410.71 1467.54 1390.14 1475.59 C 1384.57 1477.77 1340.36 1495.54 1335.24 1496.15 L 1333.78 1491.88 z"/>
<path transform="translate(0,0)" fill="rgb(135,37,40)" d="M 1048.26 576.688 C 1053.66 577.302 1060.83 580.879 1066.12 581.58 C 1099.72 586.027 1112.06 601.559 1138.45 620.382 C 1163.1 637.825 1189.16 653.183 1216.36 666.296 C 1252.32 684.011 1292.96 698.596 1330.38 713.562 C 1368.51 728.831 1406.1 745.416 1443.08 763.285 C 1522.28 801.409 1595.96 849.901 1673.2 888.677 C 1751.75 928.109 1813.84 949.509 1887.53 1003.28 C 1870.36 1011.03 1864.68 1021.87 1868.51 1040.09 C 1845.09 1044.62 1835.84 1056.01 1841.33 1079.86 C 1840.7 1079.9 1840.07 1079.94 1839.44 1080 C 1803.1 1083.15 1817.31 1110.09 1810.16 1113.93 C 1808.92 1114.6 1805.41 1114.74 1803.93 1115.03 C 1793.69 1117.04 1788.58 1119.69 1781.85 1127.78 C 1667.19 1070.36 1568.86 998.275 1477.64 908.865 C 1420.56 852.569 1365.31 795.361 1301.04 747.012 C 1246.64 706.084 1188.87 670.774 1129.95 636.786 C 1100.35 619.716 1073.11 600.155 1048.26 576.688 z"/>
<path transform="translate(0,0)" fill="rgb(135,37,40)" d="M 973.31 576.108 L 974.205 576.338 C 971.761 583.114 933.648 613.204 927.131 617.652 C 897.696 637.742 866.114 655.347 835.946 674.448 C 816.603 686.592 797.627 699.312 779.045 712.591 C 742.092 738.396 706.76 766.447 673.248 796.586 C 637.847 828.751 606.34 861.71 572.338 895.141 C 545.966 920.792 518.921 945.742 491.231 969.966 C 434.684 1019.07 375.355 1059.75 310.671 1097.07 C 292.338 1107.65 273.764 1117.37 255.379 1127.82 C 254.635 1126.9 253.865 1126 253.071 1125.12 C 244.63 1115.88 238.567 1115.03 226.993 1114.66 C 227.699 1092.62 219.071 1080.99 196.434 1079.62 C 195.758 1071.66 199.768 1069.23 195.395 1057.79 C 190.486 1044.95 181.524 1042.67 169.41 1041.17 C 172.603 1020.8 168.632 1013.02 150.8 1003.33 C 163.64 992.846 175.902 985.584 189.678 976.644 C 250.899 936.916 320.019 912.304 383.751 878.177 C 457.282 838.804 527.916 793.92 603.533 758.067 C 644.984 738.414 685.953 721.391 728.475 704.313 C 764.635 689.79 801.372 675.046 835.495 656.218 C 857.421 644.121 878.612 629.765 898.294 614.312 C 906.38 607.963 920.316 597.942 926.442 590.113 C 942.765 584.771 955.526 582.544 973.31 576.108 z"/>
<path transform="translate(0,0)" fill="rgb(173,47,52)" d="M 1150.15 587.216 C 1152.85 587.37 1241.86 639.856 1252.44 642.471 C 1253.79 642.804 1274.26 653.267 1277.94 654.942 C 1336.49 681.56 1397.07 703.197 1456.33 728.128 C 1580.17 780.748 1701.33 842.74 1807.78 925.762 C 1825.43 939.538 1873.01 977.546 1885.71 994.834 C 1876.49 987.953 1866.98 981.711 1857.42 975.317 C 1792.84 932.915 1732.82 912.009 1665.9 877.229 C 1582.1 833.672 1502.55 781.498 1415.7 742.737 C 1379.39 726.464 1342.21 709.929 1304.86 696.127 C 1233.17 669.637 1168.73 638.209 1108.25 590.753 C 1121.87 591.54 1138.39 594.328 1150.15 587.216 z"/>
<path transform="translate(0,0)" fill="rgb(173,47,52)" d="M 872.802 589.745 C 891.729 592.892 898.46 593.11 918.325 590.716 C 857.466 639.472 802.998 668.823 730.136 696.034 C 690.951 711.807 651.813 728.194 613.348 745.567 C 532.632 782.023 458.208 830.876 380.337 872.206 C 314.62 907.085 248.588 931.38 185.007 971.925 C 175.184 977.818 163.961 985.582 154.074 991.9 C 165.257 979.501 186.969 960.478 199.943 949.484 C 311.806 854.692 446.09 785.985 580.205 728.449 C 626.822 708.45 674.412 691.225 720.752 671.004 C 773.711 648.41 824.589 621.22 872.802 589.745 z"/>
<path transform="translate(0,0)" fill="rgb(173,47,52)" d="M 1086.11 772.839 C 1092.47 778.461 1114.24 809.708 1121.52 818.491 C 1123.49 842.196 1130.83 870.679 1136.94 893.621 C 1162.93 991.214 1211.86 1066.53 1277.99 1141.87 C 1306.25 1175.48 1340.13 1205.03 1367.73 1239.09 C 1400.2 1279.14 1419.59 1319.16 1413.89 1371.09 L 1412.66 1370.82 C 1400.82 1351.6 1372.76 1321.59 1357.36 1305.12 C 1338.78 1285.63 1320.72 1265.66 1303.2 1245.23 C 1199.83 1124.21 1146.68 1036.75 1109.9 881.481 C 1101.94 847.89 1090.57 806.864 1086.11 772.839 z"/>
<path transform="translate(0,0)" fill="rgb(173,47,52)" d="M 945.735 763.991 C 948.81 767.353 929.159 854.765 926.978 865.497 C 902.908 983.952 860.699 1078.25 788.625 1175.03 C 770.253 1200.2 750.82 1224.59 730.378 1248.11 C 696.534 1287.11 651.944 1331.22 623.861 1372.47 C 610.063 1329.03 644.962 1265.64 672.512 1234.69 C 693.607 1210.98 716.803 1186.78 738.659 1163.49 C 821.123 1075.65 884.8 972.392 906.306 852.47 C 907.335 846.738 911.368 818.426 912.852 815.548 C 921.445 798.894 935.119 780.081 945.735 763.991 z"/>
<path transform="translate(0,0)" fill="rgb(173,47,52)" d="M 1070.64 488.178 L 1071.44 489.457 C 1078.29 500.537 1076.57 507.814 1079.83 513.539 L 1081.09 513.469 C 1082.86 510.178 1082.7 508.947 1085.35 507.851 C 1101.32 512.899 1105.68 518.17 1111.37 533.9 C 1094.19 530.997 1066 528.81 1049.11 533.631 L 1050.65 533.831 C 1071.16 536.405 1131.91 531.721 1134.17 559.908 C 1130.82 564.921 1128.66 560.446 1128.06 564.827 C 1133.54 568.823 1145.15 568.248 1146.6 575.988 C 1148.49 587.13 1131.77 585.942 1124.9 585.358 C 1091.13 582.488 1055.67 575.875 1026.2 558.361 C 1021.84 555.771 1013.88 552.186 1011.49 547.831 C 1012.29 544.553 1012.24 545.493 1015.82 542.909 L 1018.45 537.908 C 1019.25 534.174 1019.74 532.004 1020.05 528.225 C 1026.69 526.539 1064.39 518.292 1067.11 515.069 C 1055.79 512.505 1029.8 519.554 1017.96 522.408 C 1032.23 508.691 1050.42 503.829 1067.04 490.959 L 1070.64 488.178 z"/>
<path transform="translate(0,0)" fill="rgb(45,15,17)" d="M 1015.82 542.909 L 1018.45 537.908 C 1034.16 547.689 1062.78 555.447 1081.02 559.023 C 1091.6 561.099 1101.85 562.111 1112.34 565.325 C 1085.14 568.297 1038.12 558.017 1015.82 542.909 z"/>
<path transform="translate(0,0)" fill="rgb(173,47,52)" d="M 950.174 489.601 C 959.95 496.979 984.486 509.62 989.716 515.351 C 984.209 526.572 966.753 510.884 954.357 514.19 L 953.517 515.8 C 957.74 521.244 973.296 521.747 979.969 524.613 C 980.509 524.845 982.84 526.16 982.87 526.521 C 983.366 532.43 984.787 537.439 986.621 542.836 C 969.579 554.411 937.035 559.911 915.985 564.513 L 915.399 566.134 C 925.323 571.076 969.247 557.413 981.589 553.253 C 982.312 556.622 983.45 560.366 984.391 563.73 C 975.856 568.763 965.571 572.207 956.238 575.388 C 943.109 579.697 886.952 592.48 877.43 582.453 C 871.583 567.083 890.63 568.826 894.793 565.377 L 894.332 564.006 L 888.572 561.604 C 887.962 559.572 888.115 560.075 888.343 558.113 C 891.382 531.908 958.453 538.379 965.798 533.333 C 952.242 528.288 925.634 532.527 911.445 534.692 C 914.148 525.212 925.003 505.233 937.246 509.701 C 938.984 512.113 940.243 514.647 942.892 515.54 L 944.023 514.055 C 942.454 504.371 944.119 499.22 949.487 490.672 L 950.174 489.601 z"/>
<path transform="translate(0,0)" fill="rgb(83,82,83)" d="M 672.351 1497.61 C 685.902 1495.22 698.884 1504.07 701.612 1517.56 C 704.339 1531.05 695.817 1544.25 682.404 1547.31 C 673.421 1549.37 664.032 1546.39 657.878 1539.53 C 651.723 1532.67 649.77 1523.02 652.777 1514.31 C 655.784 1505.6 663.277 1499.21 672.351 1497.61 z"/>
<path transform="translate(0,0)" fill="rgb(83,82,83)" d="M 1357.21 1497.83 C 1370.97 1495.94 1383.67 1505.5 1385.67 1519.24 C 1387.67 1532.99 1378.2 1545.76 1364.47 1547.86 C 1350.6 1549.98 1337.65 1540.4 1335.64 1526.51 C 1333.62 1512.62 1343.31 1499.74 1357.21 1497.83 z"/>
<path transform="translate(0,0)" fill="rgb(83,82,83)" d="M 229.406 1320.59 C 243.173 1319.39 255.353 1329.47 256.744 1343.22 C 258.135 1356.97 248.22 1369.28 234.491 1370.86 C 225.444 1371.9 216.537 1367.99 211.179 1360.62 C 205.821 1353.26 204.842 1343.58 208.616 1335.29 C 212.391 1327 220.334 1321.39 229.406 1320.59 z"/>
<path transform="translate(0,0)" fill="rgb(83,82,83)" d="M 372.733 1418.62 C 386.472 1416.18 399.582 1425.35 402.004 1439.1 C 404.425 1452.84 395.238 1465.94 381.493 1468.34 C 367.771 1470.74 354.698 1461.58 352.281 1447.86 C 349.864 1434.14 359.017 1421.05 372.733 1418.62 z"/>
<path transform="translate(0,0)" fill="rgb(83,82,83)" d="M 1335.21 1400.42 C 1348.84 1398.8 1361.26 1408.38 1363.17 1421.97 C 1365.08 1435.57 1355.77 1448.19 1342.22 1450.38 C 1333.19 1451.85 1324.08 1448.31 1318.41 1441.15 C 1312.73 1433.98 1311.37 1424.3 1314.86 1415.85 C 1318.35 1407.4 1326.13 1401.5 1335.21 1400.42 z"/>
<path transform="translate(0,0)" fill="rgb(83,82,83)" d="M 641.811 1369.32 C 650.578 1366.89 659.973 1369.38 666.393 1375.82 C 672.814 1382.27 675.264 1391.67 672.803 1400.43 C 670.342 1409.19 663.353 1415.94 654.515 1418.09 C 641.139 1421.36 627.619 1413.29 624.148 1399.96 C 620.678 1386.64 628.542 1373 641.811 1369.32 z"/>
<path transform="translate(0,0)" fill="rgb(83,82,83)" d="M 317.859 1390.88 C 326.875 1388.45 336.493 1391.21 342.852 1398.05 C 349.21 1404.88 351.266 1414.68 348.194 1423.49 C 345.272 1431.88 338.148 1438.11 329.446 1439.89 C 316.107 1442.61 303.017 1434.25 299.885 1421 C 296.753 1407.75 304.713 1394.41 317.859 1390.88 z"/>
<path transform="translate(0,0)" fill="rgb(83,82,83)" d="M 1654.27 1418.67 C 1667.75 1415.76 1681.06 1424.24 1684.12 1437.68 C 1687.18 1451.12 1678.86 1464.53 1665.45 1467.74 C 1656.65 1469.85 1647.38 1467.07 1641.2 1460.45 C 1635.02 1453.83 1632.87 1444.4 1635.57 1435.75 C 1638.28 1427.11 1645.42 1420.59 1654.27 1418.67 z"/>
<path transform="translate(0,0)" fill="rgb(83,82,83)" d="M 751.351 1403.68 C 764.81 1399.94 778.741 1407.87 782.382 1421.36 C 786.023 1434.85 777.98 1448.72 764.466 1452.26 C 751.096 1455.76 737.404 1447.82 733.801 1434.48 C 730.199 1421.13 738.035 1407.38 751.351 1403.68 z"/>
<path transform="translate(0,0)" fill="rgb(83,82,83)" d="M 694.706 1400.32 C 708.351 1397.97 721.328 1407.09 723.741 1420.73 C 726.153 1434.36 717.094 1447.38 703.472 1449.86 C 689.758 1452.35 676.631 1443.22 674.203 1429.49 C 671.774 1415.77 680.969 1402.68 694.706 1400.32 z"/>
<path transform="translate(0,0)" fill="rgb(83,82,83)" d="M 1216.5 1385.57 C 1229.88 1382.95 1242.9 1391.47 1245.87 1404.77 C 1248.84 1418.07 1240.66 1431.32 1227.44 1434.63 C 1218.58 1436.85 1209.21 1434.09 1202.97 1427.41 C 1196.73 1420.74 1194.6 1411.2 1197.41 1402.51 C 1200.23 1393.81 1207.53 1387.33 1216.5 1385.57 z"/>
<path transform="translate(0,0)" fill="rgb(83,82,83)" d="M 1884.48 1243.56 C 1893.11 1240.76 1902.57 1242.83 1909.25 1248.97 C 1915.93 1255.11 1918.78 1264.37 1916.71 1273.2 C 1914.65 1282.03 1907.98 1289.06 1899.28 1291.6 C 1886.09 1295.45 1872.26 1288 1868.21 1274.87 C 1864.17 1261.74 1871.41 1247.8 1884.48 1243.56 z"/>
<path transform="translate(0,0)" fill="rgb(83,82,83)" d="M 984.624 1362.65 C 993.521 1360.96 1002.64 1364.18 1008.5 1371.09 C 1014.35 1378 1016.04 1387.53 1012.91 1396.02 C 1009.79 1404.52 1002.33 1410.68 993.392 1412.15 C 986.052 1413.35 978.556 1411.25 972.92 1406.39 C 967.284 1401.54 964.087 1394.44 964.19 1387 C 964.354 1375.06 972.894 1364.89 984.624 1362.65 z"/>
<path transform="translate(0,0)" fill="rgb(83,82,83)" d="M 1299.49 1477.7 C 1313.18 1475.16 1326.34 1484.23 1328.82 1497.94 C 1331.3 1511.64 1322.16 1524.75 1308.45 1527.17 C 1294.82 1529.57 1281.82 1520.51 1279.35 1506.89 C 1276.89 1493.28 1285.89 1480.23 1299.49 1477.7 z"/>
<path transform="translate(0,0)" fill="rgb(83,82,83)" d="M 488.207 1454.82 C 501.787 1452.37 514.799 1461.34 517.336 1474.91 C 519.874 1488.47 510.985 1501.54 497.437 1504.16 C 488.866 1505.82 480.049 1502.91 474.153 1496.47 C 468.258 1490.03 466.132 1480.99 468.539 1472.6 C 471.175 1463.41 478.8 1456.52 488.207 1454.82 z"/>
<path transform="translate(0,0)" fill="rgb(83,82,83)" d="M 729.353 1477.71 C 742.898 1475.36 755.811 1484.35 758.313 1497.86 C 760.815 1511.38 751.974 1524.4 738.485 1527.05 C 729.624 1528.79 720.509 1525.64 714.62 1518.79 C 708.73 1511.95 706.975 1502.46 710.023 1493.96 C 713.072 1485.46 720.454 1479.25 729.353 1477.71 z"/>
<path transform="translate(0,0)" fill="rgb(83,82,83)" d="M 184.92 1280.5 C 198.519 1278.23 211.401 1287.36 213.763 1300.94 C 216.125 1314.53 207.081 1327.47 193.514 1329.92 C 179.817 1332.4 166.723 1323.25 164.338 1309.54 C 161.954 1295.82 171.191 1282.79 184.92 1280.5 z"/>
<path transform="translate(0,0)" fill="rgb(83,82,83)" d="M 1797.5 1322.61 C 1810.81 1318.74 1824.73 1326.4 1828.58 1339.71 C 1832.44 1353.02 1824.77 1366.93 1811.45 1370.77 C 1798.16 1374.61 1784.28 1366.95 1780.43 1353.66 C 1776.58 1340.37 1784.22 1326.48 1797.5 1322.61 z"/>
<path transform="translate(0,0)" fill="rgb(83,82,83)" d="M 1157.22 1373.56 C 1170.58 1369.86 1184.41 1377.71 1188.07 1391.09 C 1191.74 1404.46 1183.85 1418.26 1170.47 1421.9 C 1157.14 1425.52 1143.39 1417.66 1139.74 1404.34 C 1136.09 1391.02 1143.91 1377.25 1157.22 1373.56 z"/>
<path transform="translate(0,0)" fill="rgb(83,82,83)" d="M 1754.23 1356.82 C 1767.91 1354.48 1780.88 1363.7 1783.18 1377.38 C 1785.47 1391.07 1776.21 1404.01 1762.51 1406.25 C 1748.89 1408.49 1736.02 1399.28 1733.74 1385.66 C 1731.46 1372.05 1740.63 1359.15 1754.23 1356.82 z"/>
<path transform="translate(0,0)" fill="rgb(83,82,83)" d="M 1381.56 1369.78 C 1394.77 1365.67 1408.82 1373.06 1412.92 1386.28 C 1417.02 1399.5 1409.62 1413.53 1396.4 1417.62 C 1388.34 1420.12 1379.58 1418.39 1373.07 1413.03 C 1366.56 1407.67 1363.19 1399.4 1364.09 1391.02 C 1365.16 1381.09 1372.02 1372.74 1381.56 1369.78 z"/>
<path transform="translate(0,0)" fill="rgb(83,82,83)" d="M 608.732 1488.77 C 622.15 1485.63 635.579 1493.93 638.785 1507.33 C 641.991 1520.73 633.771 1534.2 620.388 1537.48 C 606.901 1540.79 593.3 1532.49 590.068 1518.99 C 586.837 1505.48 595.21 1491.92 608.732 1488.77 z"/>
<path transform="translate(0,0)" fill="rgb(83,82,83)" d="M 1704.35 1391.69 C 1712.97 1388.94 1722.41 1391.06 1729.02 1397.24 C 1735.64 1403.41 1738.4 1412.68 1736.25 1421.47 C 1734.1 1430.26 1727.38 1437.2 1718.66 1439.63 C 1705.52 1443.29 1691.87 1435.75 1687.97 1422.68 C 1684.07 1409.61 1691.36 1395.83 1704.35 1391.69 z"/>
<path transform="translate(0,0)" fill="rgb(83,82,83)" d="M 547.504 1474.56 C 561.036 1471.4 574.551 1479.87 577.601 1493.43 C 580.65 1506.99 572.066 1520.43 558.484 1523.37 C 545.059 1526.27 531.804 1517.81 528.79 1504.41 C 525.775 1491.01 534.129 1477.68 547.504 1474.56 z"/>
<path transform="translate(0,0)" fill="rgb(83,82,83)" d="M 271.731 1356.83 C 285.141 1353.67 298.578 1361.95 301.786 1375.35 C 304.993 1388.75 296.764 1402.21 283.379 1405.47 C 269.921 1408.75 256.362 1400.47 253.137 1387 C 249.911 1373.53 258.248 1360 271.731 1356.83 z"/>
<path transform="translate(0,0)" fill="rgb(83,82,83)" d="M 138.311 1243.34 C 151.669 1239.51 165.589 1247.31 169.292 1260.7 C 172.995 1274.1 165.058 1287.94 151.627 1291.51 C 138.381 1295.04 124.771 1287.23 121.119 1274.02 C 117.467 1260.81 125.137 1247.12 138.311 1243.34 z"/>
<path transform="translate(0,0)" fill="rgb(83,82,83)" d="M 1043.11 1366.53 C 1051.99 1365.09 1060.96 1368.53 1066.59 1375.54 C 1072.23 1382.56 1073.66 1392.06 1070.34 1400.42 C 1067.01 1408.78 1059.45 1414.71 1050.54 1415.95 C 1036.98 1417.83 1024.44 1408.45 1022.4 1394.91 C 1020.36 1381.38 1029.6 1368.72 1043.11 1366.53 z"/>
<path transform="translate(0,0)" fill="rgb(83,82,83)" d="M 1098.65 1368.72 C 1111.93 1364.87 1125.81 1372.55 1129.62 1385.84 C 1133.43 1399.13 1125.72 1412.99 1112.41 1416.76 C 1099.16 1420.52 1085.37 1412.84 1081.58 1399.6 C 1077.78 1386.36 1085.42 1372.55 1098.65 1368.72 z"/>
<path transform="translate(0,0)" fill="rgb(83,82,83)" d="M 1598.26 1438.61 C 1611.69 1436.33 1624.48 1445.24 1626.99 1458.64 C 1629.49 1472.03 1620.8 1484.96 1607.45 1487.7 C 1598.61 1489.51 1589.49 1486.42 1583.57 1479.6 C 1577.66 1472.78 1575.88 1463.31 1578.93 1454.81 C 1581.97 1446.32 1589.36 1440.13 1598.26 1438.61 z"/>
<path transform="translate(0,0)" fill="rgb(83,82,83)" d="M 431.995 1438.65 C 445.483 1436.86 457.918 1446.21 459.958 1459.66 C 461.997 1473.11 452.889 1485.72 439.478 1488.01 C 430.824 1489.49 422.029 1486.31 416.316 1479.65 C 410.603 1472.98 408.812 1463.8 411.598 1455.48 C 414.624 1446.43 422.54 1439.9 431.995 1438.65 z"/>
<path transform="translate(0,0)" fill="rgb(83,82,83)" d="M 1482.08 1473.72 C 1495.63 1472.5 1507.66 1482.36 1509.12 1495.88 C 1510.59 1509.4 1500.96 1521.6 1487.47 1523.32 C 1478.51 1524.46 1469.64 1520.68 1464.27 1513.43 C 1458.89 1506.18 1457.85 1496.59 1461.55 1488.36 C 1465.24 1480.12 1473.09 1474.52 1482.08 1473.72 z"/>
<path transform="translate(0,0)" fill="rgb(83,82,83)" d="M 811.44 1385.64 C 824.915 1383.08 837.922 1391.89 840.552 1405.35 C 843.182 1418.81 834.447 1431.87 821.002 1434.57 C 807.45 1437.3 794.267 1428.48 791.616 1414.91 C 788.965 1401.35 797.859 1388.21 811.44 1385.64 z"/>
<path transform="translate(0,0)" fill="rgb(83,82,83)" d="M 867.805 1373.6 C 876.648 1371.59 885.885 1374.54 891.924 1381.31 C 897.964 1388.07 899.852 1397.58 896.856 1406.14 C 893.86 1414.7 886.452 1420.96 877.512 1422.48 C 864.203 1424.75 851.508 1416.01 848.878 1402.76 C 846.248 1389.52 854.639 1376.59 867.805 1373.6 z"/>
<path transform="translate(0,0)" fill="rgb(83,82,83)" d="M 1274.47 1403.63 C 1287.82 1401.22 1300.65 1409.94 1303.33 1423.25 C 1306 1436.56 1297.54 1449.56 1284.29 1452.5 C 1277.35 1454.04 1270.09 1452.55 1264.32 1448.4 C 1256.2 1442.55 1252.36 1432.41 1254.57 1422.65 C 1256.78 1412.89 1264.62 1405.4 1274.47 1403.63 z"/>
<path transform="translate(0,0)" fill="rgb(83,82,83)" d="M 925.423 1368.6 C 938.81 1365.19 952.419 1373.31 955.763 1386.72 C 959.107 1400.12 950.911 1413.69 937.49 1416.97 C 924.164 1420.22 910.713 1412.09 907.393 1398.78 C 904.072 1385.48 912.13 1371.98 925.423 1368.6 z"/>
<path transform="translate(0,0)" fill="rgb(83,82,83)" d="M 1418.86 1488.61 C 1432.31 1486.45 1445.01 1495.5 1447.36 1508.93 C 1449.7 1522.35 1440.83 1535.17 1427.43 1537.7 C 1418.61 1539.37 1409.57 1536.15 1403.77 1529.29 C 1397.98 1522.42 1396.33 1512.97 1399.45 1504.55 C 1402.57 1496.13 1409.99 1490.04 1418.86 1488.61 z"/>
<path transform="translate(0,0)" fill="rgb(83,82,83)" d="M 1538.4 1455.77 C 1547.03 1453.31 1556.32 1455.69 1562.71 1461.99 C 1569.1 1468.28 1571.61 1477.53 1569.28 1486.2 C 1566.95 1494.86 1560.14 1501.61 1551.45 1503.85 C 1538.24 1507.26 1524.75 1499.42 1521.18 1486.25 C 1517.6 1473.09 1525.28 1459.5 1538.4 1455.77 z"/>
<path transform="translate(0,0)" fill="rgb(83,82,83)" d="M 1846.16 1280.58 C 1859.76 1279.54 1871.66 1289.64 1872.85 1303.23 C 1874.04 1316.82 1864.08 1328.83 1850.5 1330.17 C 1841.58 1331.05 1832.88 1327.07 1827.72 1319.76 C 1822.55 1312.44 1821.72 1302.9 1825.53 1294.8 C 1829.35 1286.69 1837.22 1281.26 1846.16 1280.58 z"/>
<path transform="translate(0,0)" fill="rgb(83,82,83)" d="M 167.328 1047.42 C 178.734 1045.34 189.646 1052.95 191.644 1064.37 C 193.641 1075.79 185.959 1086.66 174.527 1088.58 C 163.2 1090.48 152.459 1082.89 150.481 1071.57 C 148.502 1060.26 156.027 1049.47 167.328 1047.42 z"/>
<path transform="translate(0,0)" fill="rgb(83,82,83)" d="M 194.804 1086.6 C 205.976 1083.56 217.487 1090.2 220.448 1101.39 C 223.409 1112.58 216.687 1124.05 205.473 1126.93 C 194.371 1129.78 183.049 1123.14 180.118 1112.06 C 177.187 1100.98 183.745 1089.61 194.804 1086.6 z"/>
<path transform="translate(0,0)" fill="rgb(83,82,83)" d="M 1865.15 1047.44 C 1876.56 1046.88 1886.28 1055.63 1886.92 1067.03 C 1887.57 1078.44 1878.89 1088.22 1867.5 1088.96 C 1855.97 1089.7 1846.05 1080.91 1845.4 1069.38 C 1844.75 1057.85 1853.62 1048 1865.15 1047.44 z"/>
<path transform="translate(0,0)" fill="rgb(83,82,83)" d="M 1887.06 1010.25 C 1896.8 1008.72 1907.38 1011.82 1912.41 1020.89 C 1915.03 1025.61 1915.59 1031.2 1913.96 1036.34 C 1911.57 1043.97 1906.72 1047.25 1900 1050.63 C 1890.32 1052.42 1879.84 1048.13 1875.27 1039.22 C 1872.76 1034.32 1872.35 1028.62 1874.12 1023.41 C 1876.52 1016.2 1880.73 1013.54 1887.06 1010.25 z"/>
<path transform="translate(0,0)" fill="rgb(83,82,83)" d="M 143.476 1009.02 C 147.787 1009.43 151.889 1010.36 155.549 1012.84 C 160.444 1016.14 163.701 1021.37 164.505 1027.22 C 165.245 1032.54 163.808 1037.94 160.518 1042.19 C 156.417 1047.43 151.034 1049.81 144.602 1050.61 C 129.603 1050.4 119.235 1037.85 123.449 1022.73 C 125.68 1014.73 136.134 1012.43 143.476 1009.02 z"/>
<path transform="translate(0,0)" fill="rgb(83,82,83)" d="M 1833.66 1086.59 C 1844.75 1084.41 1855.5 1091.64 1857.65 1102.74 C 1859.8 1113.83 1852.54 1124.56 1841.44 1126.68 C 1830.39 1128.8 1819.7 1121.57 1817.56 1110.52 C 1815.41 1099.47 1822.61 1088.76 1833.66 1086.59 z"/>
<path transform="translate(0,0)" fill="rgb(135,37,40)" d="M 1308.47 1435.8 C 1309.1 1436.46 1312.45 1441.66 1313.36 1442.84 C 1321.59 1453.46 1326.96 1454.61 1338.98 1457.5 C 1331.17 1462.28 1323.06 1466.98 1315.87 1472.61 C 1307.74 1471.25 1304.76 1470.66 1296.55 1471.74 C 1288.39 1474.49 1286.11 1476.28 1280.03 1481.91 C 1276.34 1473.83 1274.9 1467.63 1273.34 1459.01 C 1293.94 1459.98 1300.48 1453.58 1308.47 1435.8 z"/>
<path transform="translate(0,0)" fill="rgb(135,37,40)" d="M 727.764 1436.86 C 730.278 1439.65 731.71 1445.05 737.405 1450.39 C 746.619 1459.03 752.059 1458.98 764.113 1459.13 C 762.245 1467.32 760.254 1473.7 757.687 1481.74 C 752.445 1477.09 748.713 1475.16 742.517 1472.41 C 733.307 1470.55 731.03 1470.95 722.345 1473.3 C 715.548 1467.44 706.038 1461.93 698.269 1457.18 C 700.497 1456.77 702.706 1456.28 704.892 1455.69 C 716.549 1452.56 721.863 1446.87 727.764 1436.86 z"/>
<path transform="translate(0,0)" fill="rgb(83,82,83)" d="M 1804.69 1120.21 C 1824.56 1122.37 1825.87 1133.72 1826.21 1150.77 L 1814.5 1144.64 C 1805.33 1140.06 1796.19 1135.43 1787.07 1130.76 C 1792.82 1123.96 1796.18 1121.98 1804.69 1120.21 z"/>
<path transform="translate(0,0)" fill="rgb(83,82,83)" d="M 225.89 1121.12 C 238.666 1120.46 240.38 1121.19 250.221 1129.72 C 243.33 1133.99 234.744 1138.26 227.474 1142.11 C 223.582 1144.26 216.419 1149.1 212.864 1148.4 C 207.065 1136.89 217.384 1126.81 225.89 1121.12 z"/>
<path transform="translate(0,0)" fill="rgb(83,82,83)" d="M 999.501 517.705 C 1015.49 521.992 1019.7 534.548 1004.75 543.999 C 986.231 544.366 984.026 526.344 999.501 517.705 z"/>
<path transform="translate(0,0)" fill="rgb(135,37,40)" d="M 667.892 1419.1 C 669.989 1427.8 666.435 1427.87 672.517 1442.2 C 669.152 1440.14 665.1 1437.04 661.829 1434.69 L 647.908 1425.45 C 655.916 1423.54 660.142 1422.05 667.892 1419.1 z"/>
<path transform="translate(0,0)" fill="rgb(135,37,40)" d="M 1368.83 1417.9 C 1377.52 1422.66 1380.13 1423.43 1389.45 1425.48 L 1379.72 1432.43 L 1366.79 1440.84 C 1370.19 1430.13 1370.64 1428.88 1368.83 1417.9 z"/>
<path transform="translate(0,0)" fill="rgb(135,37,40)" d="M 989.041 548.316 C 994.12 549.411 997.099 549.278 1002.25 549.642 L 1002.3 550.618 L 997.499 553.203 C 994.953 555.356 992.994 557.391 989.898 558.55 C 988.361 556.185 988.959 551.441 989.041 548.316 z"/>
</svg>