<svg version="1.1" xmlns="http://www.w3.org/2000/svg" style="display: block;" viewBox="0 0 2048 2048" width="1024" height="1024" preserveAspectRatio="none">
<path transform="translate(0,0)" fill="rgb(85,87,88)" d="M 779.007 482.166 C 781.112 482.102 785.153 481.931 786.763 483.237 C 801.316 495.039 815.236 511.141 828.151 524.646 C 848.54 513.6 864.784 511.349 887.944 511.232 C 899.644 517.319 929.524 548.712 939 559.645 C 1040.82 539.974 1143.94 534.971 1247.52 538.346 C 1350.33 541.696 1452.27 562.485 1551.11 590.09 C 1584.74 599.51 1618.12 609.792 1651.23 620.925 C 1659.96 623.831 1668.93 626.967 1677.42 629.736 C 1709.13 640.071 1740.6 653.781 1774.44 644.632 C 1788.04 640.954 1815.45 630.281 1826.62 641.979 C 1835.2 650.966 1829.67 678.151 1830.18 689.96 C 1830.5 696.779 1832.83 704.466 1831.89 711.246 C 1827.91 740.048 1799.49 749.727 1774.56 752.232 C 1757.21 753.975 1744.62 752.385 1727.86 749.995 C 1680.57 846.203 1633.8 942.666 1587.55 1039.38 L 1535.68 1146.83 C 1524.78 1169.4 1513.74 1193.37 1502.29 1215.49 C 1526.1 1243.44 1550.55 1270.78 1573.28 1299.63 C 1579.46 1307.47 1591.37 1322.94 1594.15 1332.42 C 1602.09 1359.52 1597.95 1410.73 1594.8 1438.46 C 1602.2 1446.89 1617.46 1461.51 1620.92 1471.61 C 1624.37 1481.67 1622.87 1515.41 1618.1 1525.33 C 1612.93 1536.07 1593.49 1540.42 1582.44 1543.54 C 1580.51 1558.81 1574.9 1579.1 1558.25 1584.57 C 1511.18 1600.03 1446.28 1619.51 1397.27 1610.08 C 1382.75 1607.29 1361.96 1557.11 1355.9 1543.36 C 1347.29 1524.12 1339.11 1504.69 1331.35 1485.08 C 1325.72 1470.79 1318.75 1451.71 1311.86 1438.16 C 1305.36 1425.36 1293.27 1408.06 1285.04 1395.63 C 1276.71 1392.41 1261.73 1389 1252.56 1386.53 L 1192.7 1370.26 L 961.474 1307.98 L 296.739 1130.59 C 289.544 1146.15 278.077 1158.56 260.168 1165.56 C 233.701 1175.9 185.469 1169.89 170.995 1141.71 C 168.545 1136.94 171.071 1123.59 173.799 1118.35 C 164.643 1058.12 181.928 1071.27 229.364 1061.24 C 252.056 1056.45 263.804 1025.95 271.284 1006.57 C 281.983 978.838 291.729 950.775 305.052 923.969 C 357.485 818.468 447.534 741.25 549.788 685.798 C 585.311 666.526 625.728 645.279 664.965 632.365 C 654.558 622.096 644.247 610.537 634.297 599.718 C 633.565 580.004 633.188 578.77 652.507 575.591 C 639.256 549.741 636.721 550.139 638.452 520.439 C 648.313 514.88 664.997 511.338 676.08 509.374 C 694.776 517.293 716.743 528.446 735.501 537.231 C 738.207 523.883 741.673 505.047 746.221 492.601 C 757.145 486.863 767.11 484.959 779.007 482.166 z M 317.98 1114.53 C 394.922 1132.98 475.205 1156.35 551.695 1177.36 L 809.952 1246.31 L 1269.79 1369.18 C 1254.61 1344.87 1239.19 1320.71 1223.53 1296.71 C 1215.58 1284.45 1195.69 1254.13 1190.46 1241.09 C 1182.03 1256.7 1173.34 1270.24 1154.66 1275.74 C 1140.28 1279.97 1122.84 1282.24 1107.8 1281.94 C 1072.93 1278.29 1043.62 1231.83 1034.52 1202.1 C 1023.83 1167.13 1035.8 1134.38 1037.79 1099.58 C 1038.5 1086.16 1032.43 1054.62 1028.58 1040.92 C 1011.18 1023.65 993.91 1006.26 976.757 988.747 C 971.458 983.292 954.866 964.791 949.89 961.425 C 939.703 962.918 926.784 966.543 916.626 969.076 L 860.8 983.113 L 717.812 1017.35 C 584.864 1049.84 450.301 1079.56 317.98 1114.53 z M 314.295 1093.76 C 358.604 1081.99 403.507 1072.57 447.703 1061.22 L 749.948 988.482 C 791.631 978.839 833.239 968.872 874.767 958.582 C 893.612 953.978 916.791 948.941 935.147 943.564 L 858.469 862.782 C 846.375 850.042 831.766 835.462 820.954 821.702 C 818.532 818.621 816.627 807.501 815.74 803.092 C 804.275 797.649 785.15 772.309 775.38 762.921 C 774.814 762.951 774.248 762.98 773.683 763.009 C 745.387 771.604 716.76 778.09 687.857 787.403 C 517.967 842.141 409.088 915.624 324.352 1074.58 C 320.965 1080.96 317.612 1087.35 314.295 1093.76 z M 1249.85 676.457 C 1204.09 678.799 1159.28 680.006 1113.63 685.749 C 1092.91 688.356 1066.62 691.115 1046.5 696.225 C 1056.83 706.463 1066.52 717.611 1076.14 728.525 C 1121.46 779.909 1167.84 830.21 1211.84 882.744 L 1388.65 822.912 C 1450.74 801.413 1512.96 780.283 1575.3 759.522 C 1599.99 751.189 1629.01 742.348 1653 733.186 C 1508.46 695.235 1400.62 672.858 1249.85 676.457 z M 1707.48 746.248 C 1702.81 745.378 1691.61 742.705 1687.75 743.064 C 1649.69 756.745 1610.55 768.756 1572.18 781.951 L 1226.72 898.809 C 1236.76 911.467 1248.48 924.268 1259.38 936.275 C 1299.01 979.944 1336.74 1025.95 1376.62 1069.34 C 1413.09 1112.96 1451.78 1155.73 1488.48 1199.42 C 1493.33 1185.69 1508.42 1155.62 1515.26 1141.24 L 1575.9 1016.18 L 1663.67 835.303 L 1690.79 779.629 C 1695.66 769.6 1701.96 755.735 1707.48 746.248 z"/>
<path transform="translate(0,0)" fill="rgb(204,204,192)" d="M 782.765 489.822 C 794.576 500.188 812.882 520.96 823.791 532.843 C 826.424 533.915 826.989 534.258 829.807 534.89 C 831.58 532.709 833.8 531.136 836.004 529.371 C 854.212 521.192 865.505 518.781 885.52 518.505 C 900.128 528.524 921.978 553.137 934.473 566.586 L 943.609 566.453 C 954.713 579.927 965.76 590.623 977.075 605.016 C 978.099 607.304 979.043 609.55 980.268 611.738 C 981.897 618.064 982.855 622.049 983.8 628.501 C 993.153 636.341 1033.04 678.699 1039.51 688.804 C 1039.23 693.32 1039.14 694.494 1039.7 698.925 L 1043.77 703.33 C 1062.17 723.671 1082.55 745.994 1099.85 767.073 C 1105.49 774.551 1108.59 778.395 1115.56 784.724 C 1147.41 819.534 1177.27 855.48 1208.44 890.704 C 1286.71 978.523 1364.2 1067.04 1440.9 1156.24 L 1530.99 1261.11 C 1543.78 1276.15 1569.66 1305.55 1579.56 1321.71 C 1581.68 1325.02 1583.78 1328.22 1585.7 1331.65 C 1586.69 1334.61 1587.95 1338.08 1588.74 1341.03 C 1589.31 1345.13 1590.12 1350 1590.37 1354.07 C 1592.13 1378.16 1589.51 1406.15 1587.68 1430.39 C 1578.74 1420.32 1561.65 1396.67 1547.62 1397.5 C 1530.98 1398.48 1504.2 1404.46 1490.93 1415.58 C 1481.34 1423.62 1477.81 1473.2 1484.28 1483.31 C 1493.78 1498.18 1516.18 1515.46 1528.85 1528.29 C 1545.06 1542.92 1551.96 1551.25 1574.27 1545.72 C 1571.43 1556.91 1567.83 1571.2 1556.7 1576.56 C 1526.44 1591.12 1437.64 1608.96 1407.06 1604.69 C 1398.83 1602.26 1397.17 1600.93 1391.41 1594.54 C 1380.65 1579.95 1372.72 1560.95 1365.2 1544.4 C 1348.47 1507.6 1334.99 1469.09 1318.2 1432.37 C 1311.26 1421.27 1304.25 1410.22 1297.18 1399.2 C 1306.09 1401.25 1315.14 1403.85 1323.98 1406.26 L 1343.61 1411.59 C 1348.56 1412.74 1353.66 1413.85 1358.54 1415.23 L 1367.23 1418.08 C 1380.45 1421.93 1386.6 1402.29 1369.49 1396.98 L 1360.25 1394.14 C 1357.9 1393.16 1349.89 1391.38 1346.99 1390.67 L 1328.99 1385.61 C 1320.18 1382.86 1310.02 1380.34 1301.03 1377.89 L 1282.43 1372.91 C 1261.58 1342.12 1240.59 1308.13 1220.46 1276.58 C 1214.8 1268.63 1208.85 1258.35 1203.67 1249.92 C 1187.31 1222.9 1172.52 1197.26 1155.38 1170.21 C 1150.01 1162.86 1145.4 1155.83 1140.43 1148.23 C 1137.23 1143.92 1134.4 1139.58 1131.44 1135.11 C 1125.15 1127.96 1118.75 1121.25 1112.49 1113.96 L 1099.32 1100.62 L 1085.75 1086.87 L 1077.69 1079.23 C 1071.19 1073.13 1065.4 1067.53 1059.23 1061.11 C 1025.47 1027.99 992.554 992.117 958.893 959.726 C 969.275 957.084 979.701 954.616 990.166 952.323 C 998.053 950.707 1009.21 946.663 1002.17 933.639 C 1000.82 931.145 996.9 929.808 993.977 929.466 L 984.732 931.613 L 969.915 935.57 C 965.605 936.506 961.261 937.35 957.045 938.623 C 951.358 939.543 944.888 942.96 940.692 938.821 C 924.89 922.873 907.175 902.767 891.491 886.093 L 886.306 881.28 C 881.474 876.813 879.722 874.98 875.581 869.882 C 860.383 853.755 843.21 836.817 829.781 819.165 C 825.06 812.959 824.123 807.104 824.083 799.46 C 821.362 797.678 818.698 796.291 815.848 794.747 C 806.614 786.745 791.209 769.364 782.681 760.194 C 789.839 758.844 794.45 758.005 801.333 755.754 L 796.827 749.623 C 804.066 743.281 802.757 669.121 800.861 656.703 L 796.835 650.391 C 787.593 638.645 769.569 619.649 758.39 610.552 C 758.047 608.319 756.053 605.395 754.837 603.228 C 746.236 606.968 736.48 608.201 727.777 611.396 L 720.668 613.714 L 721.294 605.718 C 721.644 603.538 721.889 599.634 722.102 597.306 C 723.49 585.989 725.106 570.579 729.956 560.112 C 731.693 556.363 737.829 551.354 739.25 546.423 L 740.829 545.845 C 745.086 533.767 749.755 511.008 752.72 498.104 C 763.129 494.906 772.239 492.461 782.765 489.822 z"/>
<path transform="translate(0,0)" fill="rgb(232,233,222)" d="M 972.594 827.691 C 1019.37 815.294 1067.66 797.348 1115.56 784.724 C 1147.41 819.534 1177.27 855.48 1208.44 890.704 C 1286.71 978.523 1364.2 1067.04 1440.9 1156.24 L 1530.99 1261.11 C 1543.78 1276.15 1569.66 1305.55 1579.56 1321.71 C 1578.19 1326.66 1577.15 1331.98 1573.09 1335.45 C 1562.87 1344.18 1472.61 1365.85 1454.74 1368.74 C 1449.38 1369.61 1443.84 1370 1438.42 1369.53 C 1433.85 1369.13 1430.75 1368.37 1427.09 1365.58 C 1413.95 1355.56 1402.9 1340.11 1392.39 1327.36 C 1377.53 1308.98 1362.52 1290.71 1347.39 1272.55 C 1379.87 1261.17 1420.85 1246.12 1453.56 1237.91 C 1463.38 1248.25 1492.38 1287.11 1500.25 1298.83 C 1486.18 1305.19 1459.89 1312.84 1444.65 1317.44 C 1435.66 1307.92 1428.46 1297.45 1422.05 1286.09 C 1427.14 1283.87 1432.66 1281.72 1437.83 1279.6 C 1442.18 1286.65 1446.37 1291.59 1452.08 1297.48 C 1458.16 1295.34 1463.97 1292.78 1469.89 1290.25 C 1462.5 1279.66 1454.7 1269.08 1445.91 1259.6 C 1437.18 1260.69 1390.37 1273.16 1388.95 1279.72 C 1393.43 1290.04 1428.47 1333.1 1438.41 1339.38 C 1444.35 1339.63 1462.23 1334.01 1467.51 1331.82 C 1477.58 1327.66 1530.35 1312.9 1532.86 1305.81 C 1530.53 1295.37 1509.82 1272.85 1502.12 1262.94 C 1489.68 1246.93 1476.56 1228.71 1462.27 1214.55 C 1449.2 1215.67 1416.34 1225.99 1402.28 1230.31 C 1378.6 1237.66 1354.86 1244.85 1331.07 1251.87 C 1307.2 1224 1284.05 1193.14 1259.62 1165.86 C 1240.84 1144.89 1226.11 1124.33 1208.74 1102.3 C 1204.52 1096.95 1200.65 1092.8 1197.15 1086.9 C 1217.53 1081.46 1242.91 1071.89 1262.97 1064.91 C 1277.27 1059.93 1299.5 1051.99 1312.56 1045.35 C 1307.34 1034.92 1290.9 1017.46 1283.14 1007.97 C 1268.42 989.955 1253.42 971.814 1237.85 954.55 C 1214.96 958.804 1161.84 975.908 1140.72 985.689 C 1146.49 996.874 1182.51 1041.99 1192.72 1048.73 C 1205.08 1047.2 1238.21 1036.1 1248.93 1029.72 C 1242.94 1019.97 1229.96 1005.71 1222.08 996.627 C 1213.63 998.573 1210.29 999.597 1202.63 1003.32 L 1214.76 1020.2 C 1209.51 1023.29 1205.6 1024.56 1199.95 1026.64 C 1191.96 1018.64 1180.65 1004.66 1175.09 994.904 C 1188.75 987.893 1213.99 980.444 1229.16 975.714 C 1240.57 986.65 1269.91 1024.57 1279.44 1037.68 C 1254.95 1048.82 1208.65 1062.71 1182 1070.68 C 1160.54 1047.86 1141.23 1022.47 1120.83 998.997 C 1071.57 942.302 1023.23 882.95 972.594 827.691 z"/>
<path transform="translate(0,0)" fill="rgb(204,204,192)" d="M 1329.15 1064.52 C 1331.97 1064.86 1334.33 1064.57 1336.01 1066.54 C 1346.4 1078.7 1356.69 1091.55 1367.13 1103.58 L 1397.9 1138.77 C 1402.07 1143.51 1406.77 1148.67 1410.93 1153.49 C 1412.67 1155.52 1411.84 1157.9 1411.54 1160.67 C 1399.15 1159.2 1346 1142.62 1332.1 1138.14 C 1331.63 1125.04 1327.09 1073.04 1329.15 1064.52 z"/>
<path transform="translate(0,0)" fill="rgb(232,233,222)" d="M 1347.87 1100.8 C 1352.44 1104.35 1372.21 1128.68 1376.04 1134.32 C 1371.66 1134.53 1355.79 1129.72 1350.7 1128.32 L 1347.87 1100.8 z"/>
<path transform="translate(0,0)" fill="rgb(204,204,192)" d="M 1261.9 1132.76 C 1268.67 1132.66 1330.49 1154.12 1339.68 1157.91 C 1341.04 1179.02 1343.26 1208.11 1342.87 1228.99 C 1340.71 1229.08 1336.95 1229.07 1335.42 1227.71 C 1323.08 1216.73 1264.36 1141.08 1261.9 1132.76 z"/>
<path transform="translate(0,0)" fill="rgb(232,233,222)" d="M 1292.45 1158.57 C 1297.25 1158.88 1314.69 1164.99 1319.91 1166.71 C 1320.54 1175.82 1320.94 1183.46 1320.98 1192.58 C 1315.82 1189.65 1296.15 1164.75 1292.45 1158.57 z"/>
<path transform="translate(0,0)" fill="rgb(204,204,192)" d="M 1129.26 900.847 C 1150.46 904.475 1195.2 917.664 1215.83 926.091 C 1218.5 927.179 1222.13 931.46 1224.06 933.732 C 1216.04 938.546 1211.48 940.064 1202.6 943.345 C 1184.26 948.658 1162.37 956.72 1144 962.929 C 1139.96 952.078 1128.64 911.366 1129.26 900.847 z"/>
<path transform="translate(0,0)" fill="rgb(232,233,222)" d="M 1149.76 921.421 C 1156.03 922.317 1181.21 929.238 1186.18 932.016 C 1185.27 933.783 1183.35 933.795 1180.76 934.656 C 1172.66 936.889 1163.78 940.132 1155.75 942.864 C 1153.58 936.603 1151.52 927.992 1149.76 921.421 z"/>
<path transform="translate(0,0)" fill="rgb(204,204,192)" d="M 1078.21 812.035 C 1084.06 814.691 1094.47 866.948 1095.24 875.002 C 1081.3 872.129 1054.65 861.727 1040.25 856.493 C 1031.87 852.919 1011.45 846.707 1006.08 841.274 L 1006.23 839.463 C 1013.06 832.333 1065.87 815.712 1078.21 812.035 z"/>
<path transform="translate(0,0)" fill="rgb(232,233,222)" d="M 1065.77 831.141 C 1069.36 834.096 1071.84 848.888 1072.63 853.862 L 1050.23 846.043 C 1047.14 844.706 1038.84 842.116 1035.33 840.914 C 1045.51 837.774 1055.66 834.516 1065.77 831.141 z"/>
<path transform="translate(0,0)" fill="rgb(204,204,192)" d="M 1106.11 808.621 C 1116.66 812.534 1170.18 880.209 1182.43 891.721 C 1183.99 893.188 1183.61 895.643 1183.54 897.611 C 1171.11 896.316 1134.37 885.82 1120.75 882.239 C 1116.22 858.997 1109.57 836.981 1105.12 813.852 C 1104.77 812.036 1105.43 810.28 1106.11 808.621 z"/>
<path transform="translate(0,0)" fill="rgb(204,204,192)" d="M 1042.92 878.726 C 1051.8 878.213 1095.02 892.514 1106.42 895.8 C 1109.2 904.773 1122.21 957.832 1122.27 964.72 C 1117.02 964.86 1111.43 959.939 1108.75 955.934 C 1098.31 940.301 1047 892.88 1042.92 878.726 z"/>
<path transform="translate(0,0)" fill="rgb(204,204,192)" d="M 1300.88 1068.12 L 1303.51 1069.42 C 1306.71 1075.12 1308.46 1117.77 1303.82 1123.21 C 1296.88 1124 1264.75 1111.18 1255.28 1107.96 C 1248.52 1105.69 1233.55 1101.61 1229.37 1096.65 L 1229.69 1095.26 C 1236.78 1089.75 1289.95 1071.14 1300.88 1068.12 z"/>
<path transform="translate(0,0)" fill="rgb(204,204,192)" d="M 1366.42 1168.68 C 1376.3 1168.93 1428.12 1186.93 1440.71 1191.01 C 1444.23 1192.15 1443.68 1191.99 1444.66 1194.26 C 1441.93 1199.48 1432.03 1201.96 1426.25 1204.06 C 1409.64 1209.93 1387.29 1218.45 1370.4 1222.32 C 1368.11 1207.65 1366.81 1183.68 1366.42 1168.68 z"/>
<path transform="translate(0,0)" fill="rgb(146,144,137)" d="M 782.765 489.822 C 794.576 500.188 812.882 520.96 823.791 532.843 C 826.424 533.915 826.989 534.258 829.807 534.89 C 831.58 532.709 833.8 531.136 836.004 529.371 C 854.212 521.192 865.505 518.781 885.52 518.505 C 900.128 528.524 921.978 553.137 934.473 566.586 L 943.609 566.453 C 954.713 579.927 965.76 590.623 977.075 605.016 C 978.099 607.304 979.043 609.55 980.268 611.738 C 981.897 618.064 982.855 622.049 983.8 628.501 C 993.153 636.341 1033.04 678.699 1039.51 688.804 C 1039.23 693.32 1039.14 694.494 1039.7 698.925 C 1035.42 695.26 1030.96 689.198 1027.06 684.75 C 1017.05 672.954 987.792 639.546 976.187 633.284 C 949.311 635.185 858.147 654.562 840.253 671.777 C 838.113 675.532 837.443 676.871 836.001 680.933 C 830.931 710.08 828.749 737.74 826.199 767.147 C 825.38 776.593 825.197 790.879 824.083 799.46 C 821.362 797.678 818.698 796.291 815.848 794.747 C 806.614 786.745 791.209 769.364 782.681 760.194 C 789.839 758.844 794.45 758.005 801.333 755.754 L 796.827 749.623 C 804.066 743.281 802.757 669.121 800.861 656.703 L 796.835 650.391 C 787.593 638.645 769.569 619.649 758.39 610.552 C 758.047 608.319 756.053 605.395 754.837 603.228 C 746.236 606.968 736.48 608.201 727.777 611.396 L 720.668 613.714 L 721.294 605.718 C 721.644 603.538 721.889 599.634 722.102 597.306 C 723.49 585.989 725.106 570.579 729.956 560.112 C 731.693 556.363 737.829 551.354 739.25 546.423 L 740.829 545.845 C 745.086 533.767 749.755 511.008 752.72 498.104 C 763.129 494.906 772.239 492.461 782.765 489.822 z"/>
<path transform="translate(0,0)" fill="rgb(232,233,222)" d="M 747.58 552.233 C 761.795 545.807 781.579 540.733 797.196 539.611 C 813.774 546.938 872.37 610.626 882.674 626.946 C 886.044 632.823 887.783 636.886 890.442 643.097 C 874.114 647.804 837.484 656.774 830.999 673.463 C 821.155 698.793 821.519 743.382 818.067 771.312 C 817.313 777.407 818.002 790.29 815.848 794.747 C 806.614 786.745 791.209 769.364 782.681 760.194 C 789.839 758.844 794.45 758.005 801.333 755.754 L 796.827 749.623 C 804.066 743.281 802.757 669.121 800.861 656.703 L 796.835 650.391 C 787.593 638.645 769.569 619.649 758.39 610.552 C 758.047 608.319 756.053 605.395 754.837 603.228 C 746.236 606.968 736.48 608.201 727.777 611.396 C 729.736 591.882 729.729 563.872 747.58 552.233 z"/>
<path transform="translate(0,0)" fill="rgb(232,233,222)" d="M 747.58 552.233 C 761.795 545.807 781.579 540.733 797.196 539.611 C 813.774 546.938 872.37 610.626 882.674 626.946 C 881.123 627.436 871.065 628.694 867.949 629.335 C 853.932 632.217 845.774 635.312 832.889 641.13 C 804.266 613.708 777.602 577.963 747.58 552.233 z"/>
<path transform="translate(0,0)" fill="rgb(146,144,137)" d="M 754.837 603.228 C 760.24 602.666 764.059 605.901 768.084 609.167 C 779.56 618.478 799.956 637.999 805.985 651.342 C 807.824 655.414 808.219 660.545 808.632 664.976 C 809.943 679.048 811.86 746.11 802.929 754.518 C 802.439 754.979 801.865 755.342 801.333 755.754 L 796.827 749.623 C 804.066 743.281 802.757 669.121 800.861 656.703 L 796.835 650.391 C 787.593 638.645 769.569 619.649 758.39 610.552 C 758.047 608.319 756.053 605.395 754.837 603.228 z"/>
<path transform="translate(0,0)" fill="rgb(232,233,222)" d="M 836.004 529.371 C 854.212 521.192 865.505 518.781 885.52 518.505 C 900.128 528.524 921.978 553.137 934.473 566.586 C 944.508 578.441 960.045 594.477 968.761 606.244 C 950.805 605.907 935.495 610.864 919.33 617.953 C 899.608 594.381 858.324 549.369 836.004 529.371 z"/>
<path transform="translate(0,0)" fill="rgb(204,204,192)" d="M 829.807 534.89 C 831.58 532.709 833.8 531.136 836.004 529.371 C 858.324 549.369 899.608 594.381 919.33 617.953 C 935.495 610.864 950.805 605.907 968.761 606.244 C 971.424 609.415 971.53 609.342 973.068 613.09 C 964.759 613.053 956.173 613.189 948.064 615.167 C 935.6 618.206 919.653 619.806 919.876 635.828 C 911.903 637.58 905.055 639.505 897.198 641.774 C 895.152 634.867 892.788 628.198 888.486 622.302 C 869.465 596.23 845.923 573.358 823.497 550.235 C 823.469 549.474 823.441 548.713 823.412 547.951 C 821.35 546.411 820.307 546.025 818.029 544.877 L 823.791 532.843 C 826.424 533.915 826.989 534.258 829.807 534.89 z"/>
<path transform="translate(0,0)" fill="rgb(131,128,121)" d="M 823.791 532.843 C 826.424 533.915 826.989 534.258 829.807 534.89 C 827.647 539.769 826.084 543.247 823.412 547.951 C 821.35 546.411 820.307 546.025 818.029 544.877 L 823.791 532.843 z"/>
<path transform="translate(0,0)" fill="rgb(232,233,222)" d="M 782.765 489.822 C 794.576 500.188 812.882 520.96 823.791 532.843 L 818.029 544.877 C 806.498 535.382 803.562 532.775 788.071 533.161 C 777.686 533.421 746.581 545.883 740.829 545.845 C 745.086 533.767 749.755 511.008 752.72 498.104 C 763.129 494.906 772.239 492.461 782.765 489.822 z"/>
<path transform="translate(0,0)" fill="rgb(232,233,222)" d="M 973.068 613.09 C 974.332 617.346 975.716 621.665 976.662 625.993 C 955.618 627.318 940.287 630.367 919.876 635.828 C 919.653 619.806 935.6 618.206 948.064 615.167 C 956.173 613.189 964.759 613.053 973.068 613.09 z"/>
<path transform="translate(0,0)" fill="rgb(232,233,222)" d="M 1407.06 1604.69 C 1405.21 1602.55 1402.21 1600.98 1399.74 1599.45 C 1400.51 1598.53 1402.34 1596.87 1402.75 1595.86 C 1405.87 1588.14 1407.68 1566.61 1408.94 1557.68 C 1413.66 1524.21 1425.35 1408.31 1440.56 1386.74 C 1444.43 1381.24 1451.29 1377.76 1457.44 1375.42 C 1478.69 1367.34 1503.12 1364.35 1525.22 1358.51 C 1539.12 1354.84 1553.28 1347.87 1567.45 1345.95 C 1577.7 1344.55 1582.7 1348.09 1590.37 1354.07 C 1592.13 1378.16 1589.51 1406.15 1587.68 1430.39 C 1578.74 1420.32 1561.65 1396.67 1547.62 1397.5 C 1530.98 1398.48 1504.2 1404.46 1490.93 1415.58 C 1481.34 1423.62 1477.81 1473.2 1484.28 1483.31 C 1493.78 1498.18 1516.18 1515.46 1528.85 1528.29 C 1545.06 1542.92 1551.96 1551.25 1574.27 1545.72 C 1571.43 1556.91 1567.83 1571.2 1556.7 1576.56 C 1526.44 1591.12 1437.64 1608.96 1407.06 1604.69 z"/>
<path transform="translate(0,0)" fill="rgb(232,233,222)" d="M 1346.81 1281.09 C 1367.84 1304.99 1386.64 1331.51 1408 1355.27 C 1414.47 1362.46 1424.77 1373.03 1429.08 1381.14 C 1429.52 1394.67 1424.51 1412.56 1421.63 1426.17 C 1418.78 1439.49 1416.36 1452.89 1414.37 1466.37 C 1410.82 1490.58 1407.54 1514.82 1404.53 1539.1 C 1402.59 1554.21 1401.29 1583.52 1391.41 1594.54 C 1380.65 1579.95 1372.72 1560.95 1365.2 1544.4 C 1348.47 1507.6 1334.99 1469.09 1318.2 1432.37 C 1311.26 1421.27 1304.25 1410.22 1297.18 1399.2 C 1306.09 1401.25 1315.14 1403.85 1323.98 1406.26 L 1343.61 1411.59 C 1348.56 1412.74 1353.66 1413.85 1358.54 1415.23 L 1367.23 1418.08 C 1380.45 1421.93 1386.6 1402.29 1369.49 1396.98 L 1360.25 1394.14 C 1357.9 1393.16 1349.89 1391.38 1346.99 1390.67 L 1328.99 1385.61 C 1332.2 1370.89 1334.34 1354.58 1336.92 1339.57 C 1340.23 1320.25 1344.06 1300.45 1346.81 1281.09 z"/>
<path transform="translate(0,0)" fill="rgb(204,204,192)" d="M 1362.18 1316.59 C 1372.87 1323.14 1407.11 1368.15 1413.02 1379.77 C 1413.09 1385.31 1412.96 1390.72 1412.2 1396.22 C 1410.18 1410.93 1390.26 1524.78 1385.22 1531.65 C 1384.58 1532.52 1384.1 1532.75 1383.27 1533.29 C 1377.64 1531.92 1361.13 1492.95 1357.37 1485.05 C 1351.31 1472.28 1343.43 1458.28 1337.55 1445.59 C 1339 1432.22 1340.82 1424.64 1343.61 1411.59 C 1348.56 1412.74 1353.66 1413.85 1358.54 1415.23 L 1367.23 1418.08 C 1380.45 1421.93 1386.6 1402.29 1369.49 1396.98 L 1360.25 1394.14 C 1357.9 1393.16 1349.89 1391.38 1346.99 1390.67 C 1350.58 1373.09 1356.55 1330.91 1362.18 1316.59 z"/>
<path transform="translate(0,0)" fill="rgb(232,233,222)" d="M 1369.46 1354.85 C 1379.11 1364.11 1391.61 1379.55 1398.72 1391.16 C 1397.44 1408.76 1393.36 1425.96 1389.54 1443.16 C 1386.41 1457.21 1383.67 1472.84 1379.86 1486.64 C 1372.67 1476.19 1359.04 1452.48 1354.02 1440.84 C 1355.3 1431.71 1357.26 1423.68 1358.54 1415.23 L 1367.23 1418.08 C 1380.45 1421.93 1386.6 1402.29 1369.49 1396.98 L 1360.25 1394.14 C 1364.13 1383.52 1365.77 1367.21 1369.46 1354.85 z"/>
<path transform="translate(0,0)" fill="rgb(204,204,192)" d="M 1369.49 1396.98 C 1373.34 1393.48 1372.35 1393.21 1376.39 1392.97 C 1379.66 1394.82 1381.76 1398.81 1383.93 1402.05 C 1384.47 1411.18 1384.33 1430.59 1372.79 1433.05 C 1367.24 1430.77 1366.8 1423.39 1367.23 1418.08 C 1380.45 1421.93 1386.6 1402.29 1369.49 1396.98 z"/>
<path transform="translate(0,0)" fill="rgb(204,204,192)" d="M 1297.18 1399.2 C 1306.09 1401.25 1315.14 1403.85 1323.98 1406.26 C 1322.08 1414.7 1321.35 1424.6 1318.2 1432.37 C 1311.26 1421.27 1304.25 1410.22 1297.18 1399.2 z"/>
<path transform="translate(0,0)" fill="rgb(232,233,222)" d="M 969.561 833.867 C 997.014 864.037 1023.95 894.678 1050.34 925.775 C 1059.25 936.226 1067.45 946.98 1076.55 957.34 C 1073.08 980.71 1069.43 1004.05 1065.62 1027.37 C 1063.95 1037.05 1061.68 1052.02 1059.23 1061.11 C 1025.47 1027.99 992.554 992.117 958.893 959.726 C 969.275 957.084 979.701 954.616 990.166 952.323 C 998.053 950.707 1009.21 946.663 1002.17 933.639 C 1000.82 931.145 996.9 929.808 993.977 929.466 L 984.732 931.613 L 969.915 935.57 C 965.605 936.506 961.261 937.35 957.045 938.623 C 959.376 908.227 965.468 864.467 969.561 833.867 z"/>
<path transform="translate(0,0)" fill="rgb(204,204,192)" d="M 993.977 929.466 C 999.542 924.805 997.234 900.545 1000.27 891.97 C 1001.29 891.145 1001.68 890.28 1003.1 890.564 C 1009.23 891.798 1056.69 946.958 1062.75 955.874 C 1060.65 974.217 1054.44 1015.42 1048.92 1031.87 C 1039.16 1024.44 995.994 983.016 990.041 973.857 C 990.513 968.666 993.087 956.487 992.501 953.293 C 991.828 952.987 990.834 952.466 990.166 952.323 C 998.053 950.707 1009.21 946.663 1002.17 933.639 C 1000.82 931.145 996.9 929.808 993.977 929.466 z"/>
<path transform="translate(0,0)" fill="rgb(232,233,222)" d="M 1010.73 920.674 C 1020.92 928.888 1039.1 946.897 1046.38 958.007 C 1050.54 964.35 1042.85 995.441 1040.35 1003.68 C 1039.25 1004.18 1039.22 1003.83 1037.52 1003.49 C 1028.22 995.613 1011.42 980.524 1005.02 970.644 C 1004.9 963.886 1007.89 925.394 1010.73 920.674 z"/>
<path transform="translate(0,0)" fill="rgb(204,204,192)" d="M 1018.64 944.443 C 1025.71 947.282 1032.76 956.37 1037.35 962.327 C 1036.09 970.163 1035.04 977.982 1032.81 985.599 C 1027.24 982.541 1018.64 973.169 1013.86 968.247 C 1014.05 960.009 1015.1 951.958 1018.64 944.443 z"/>
<path transform="translate(0,0)" fill="rgb(204,204,192)" d="M 977.824 861.823 C 983.486 866.483 985.447 868.566 990.322 874.051 C 988.326 883.866 982.733 921.317 983.281 930.356 L 984.732 931.613 L 969.915 935.57 C 969.348 918.211 975.401 880.722 977.824 861.823 z"/>
<path transform="translate(0,0)" fill="rgb(232,233,222)" d="M 1245.93 1160.42 C 1250.68 1166.87 1262.35 1177.49 1268.65 1185.47 C 1287.24 1209.02 1308.96 1233.14 1326.98 1256.93 C 1318.59 1277.68 1312.41 1326.6 1306.88 1349.98 C 1305.18 1357.2 1303.57 1371.63 1301.03 1377.89 L 1282.43 1372.91 C 1261.58 1342.12 1240.59 1308.13 1220.46 1276.58 C 1223.8 1267.74 1229.3 1241.4 1231.55 1230.98 C 1236.05 1210.17 1244.65 1180.93 1245.93 1160.42 z"/>
<path transform="translate(0,0)" fill="rgb(204,204,192)" d="M 1253.33 1187.14 C 1262.61 1189.87 1303.75 1244.27 1308.92 1256.14 C 1305.39 1275.11 1301.66 1294.05 1297.73 1312.94 C 1295.46 1324.1 1292.83 1338.99 1289.52 1349.62 L 1287.58 1349.76 C 1278.8 1345.88 1238.89 1286.5 1234.35 1276.66 C 1236.38 1262.01 1241.25 1242.97 1244.15 1228 C 1246.05 1218.17 1250.27 1195.34 1253.33 1187.14 z"/>
<path transform="translate(0,0)" fill="rgb(232,233,222)" d="M 1259.68 1219.25 C 1267.39 1223.66 1288.66 1250.97 1294.39 1259.08 C 1291.6 1277.11 1287.01 1298.9 1282.56 1316.59 C 1276.15 1312.7 1252.98 1279.6 1248.48 1272.01 C 1252.71 1254.31 1254.44 1237.46 1259.68 1219.25 z"/>
<path transform="translate(0,0)" fill="rgb(204,204,192)" d="M 1265.84 1242.63 C 1273.65 1247.61 1277.59 1254.01 1283.1 1261.43 C 1281.28 1271.49 1279.86 1279.88 1276.93 1289.73 C 1270.01 1287.17 1263.74 1276.28 1260.01 1270.09 C 1261.03 1258.78 1261.58 1253.1 1265.84 1242.63 z"/>
<path transform="translate(0,0)" fill="rgb(232,233,222)" d="M 1018.93 708.949 C 1028.33 706.077 1033.99 705.019 1043.77 703.33 C 1062.17 723.671 1082.55 745.994 1099.85 767.073 C 1088.48 768.667 1062.93 777.058 1050.82 780.697 C 1019.42 789.881 988.183 799.602 957.12 809.857 C 939.218 788.697 919.654 766.427 902.468 744.806 C 926.477 735.165 969.749 722.493 994.487 716.147 C 1002.5 724.011 1023.12 748.13 1028.78 757.326 C 1017.6 761.678 989.648 769.991 978.182 772.874 C 972.495 767.078 968.962 761.823 964.6 755.068 C 969.205 753.421 974.806 751.776 979.533 750.269 L 985.527 759.626 C 992.146 757.566 997.665 755.419 1004.12 752.881 C 998.512 744.268 995.992 741.559 988.704 734.452 C 975.132 737.367 951.173 744.51 938.981 750.533 C 945.958 762.553 959.944 779.942 970.32 789.236 C 986.143 785.932 1047.34 767.415 1059.58 760.039 C 1053.66 749.82 1028.02 720.444 1018.93 708.949 z"/>
<path transform="translate(0,0)" fill="rgb(232,233,222)" d="M 1093.37 978.697 C 1101.72 985.356 1149.83 1041.21 1156.7 1052.28 C 1156.36 1058.52 1142.3 1144.26 1140.43 1148.23 C 1137.23 1143.92 1134.4 1139.58 1131.44 1135.11 C 1125.15 1127.96 1118.75 1121.25 1112.49 1113.96 L 1099.32 1100.62 L 1085.75 1086.87 L 1077.69 1079.23 C 1082.41 1055.05 1092.22 1001.39 1093.37 978.697 z"/>
<path transform="translate(0,0)" fill="rgb(204,204,192)" d="M 1105.65 1070.23 C 1102.62 1057.4 1090.11 1013.43 1094.97 1002.5 C 1098.03 1000.08 1096.27 1000.86 1100.68 1000.7 C 1104.98 1003.39 1105.98 1007.99 1107.09 1013.11 C 1110.53 1028.98 1113.64 1045.01 1116.96 1060.92 C 1123.9 1055.79 1133.37 1046.71 1141.14 1045.95 C 1147.07 1048.16 1148.29 1056.06 1145.67 1061.04 C 1140.7 1070.47 1129.02 1077.44 1121.24 1084.8 C 1123.77 1093.43 1131.09 1126.56 1131.44 1135.11 C 1125.15 1127.96 1118.75 1121.25 1112.49 1113.96 L 1099.32 1100.62 L 1085.75 1086.87 C 1094.34 1080 1094.66 1077.24 1105.65 1070.23 z"/>
<path transform="translate(0,0)" fill="rgb(232,233,222)" d="M 1099.32 1100.62 C 1101.92 1097.77 1103.07 1095.81 1106.78 1095.03 C 1113.09 1097.3 1113.73 1108.46 1112.49 1113.96 L 1099.32 1100.62 z"/>
<path transform="translate(0,0)" fill="rgb(232,233,222)" d="M 840.253 671.777 C 858.147 654.562 949.311 635.185 976.187 633.284 C 987.792 639.546 1017.05 672.954 1027.06 684.75 C 1024.14 686.07 1008.93 689.692 1003.15 691.672 C 989.52 678.755 978.436 663.273 963.492 649.366 C 943.414 652.526 893.389 667.5 875.162 675.694 C 881.493 684.696 893.522 699.82 901.564 706.96 C 910.271 705.157 938.464 697.748 944.562 692.591 L 944.678 690.106 C 937.266 678.878 920.829 688.439 910.172 691.857 C 905.751 687.672 904.921 686.321 901.634 681.368 C 918.193 674.78 933.348 670.396 950.529 665.867 C 959.349 675.767 970.836 687.995 978.058 698.73 C 950.916 708.617 916.299 717.784 887.593 727.09 C 874.175 713.65 852.933 687.08 840.253 671.777 z"/>
<path transform="translate(0,0)" fill="rgb(232,233,222)" d="M 901.529 751.75 C 913.041 770.807 940.501 796.42 953.602 815.984 L 953.952 816.496 C 954.67 842.531 945.645 844.812 934.614 864.654 C 939.677 887.191 946.158 907.095 941.683 929.744 C 940.91 933.655 942.568 935.811 940.692 938.821 C 924.89 922.873 907.175 902.767 891.491 886.093 L 892.046 875.432 C 892.964 870.891 895.987 828.073 895.224 822.668 C 891.52 796.447 900.974 775.406 901.529 751.75 z"/>
<path transform="translate(0,0)" fill="rgb(204,204,192)" d="M 908.401 798.625 C 912.108 801.947 920.228 848.662 922.425 857.175 C 917.623 864.329 912.457 871.2 907.339 878.13 C 904.999 880.64 905.145 880.57 902.146 882.204 C 900.573 881.915 899.569 882.173 899.098 880.693 C 891.858 857.933 903.995 818.636 908.401 798.625 z"/>
<path transform="translate(0,0)" fill="rgb(204,204,192)" d="M 922.787 793.648 C 924.696 794.959 943.506 815.352 946.861 818.721 C 943.757 824.215 940.857 828.393 937.28 833.575 L 931.371 842.847 C 927.744 827.641 922.793 808.953 922.787 793.648 z"/>
<path transform="translate(0,0)" fill="rgb(232,233,222)" d="M 1186.88 1136.46 C 1184.71 1123.1 1182.56 1109.71 1180.4 1096.34 C 1179 1087.61 1179.5 1086.92 1170.98 1084.37 C 1168.73 1081.29 1168.83 1075.06 1171.92 1072.38 C 1180.32 1072.49 1222.12 1128 1229.6 1138.42 L 1210.85 1220.96 C 1209.48 1226.9 1205.93 1245.82 1203.67 1249.92 C 1187.31 1222.9 1172.52 1197.26 1155.38 1170.21 C 1156.55 1167.22 1156.37 1166.01 1160.09 1164.81 C 1165.96 1162.93 1173.08 1161.53 1179.13 1160.22 C 1181.67 1172.17 1187.64 1214.76 1196.09 1220.64 C 1199.86 1220.99 1198.11 1221.4 1201.42 1218.95 C 1204.44 1212.45 1193.42 1166.54 1191.44 1155.44 C 1199.29 1152.61 1211.6 1148.58 1218.78 1145.04 C 1213.06 1120.95 1205.68 1130.08 1186.88 1136.46 z"/>
<path transform="translate(0,0)" fill="rgb(232,233,222)" d="M 836.001 680.933 C 845.418 683.151 874.894 723.605 885.103 733.928 C 884.493 739.133 883.865 744.25 883.447 749.479 C 871.181 739.047 861.336 728.797 849.688 717.776 C 847.627 715.827 847.004 716.166 844.874 716.225 C 844.324 716.743 843.774 717.261 843.224 717.778 C 840.702 740.521 836.506 775.313 835.744 797.04 C 835.686 798.569 835.664 800.1 835.679 801.63 C 840.675 810.03 869.201 840.025 876.848 847.731 C 876.945 853.756 877.663 864.489 875.581 869.882 C 860.383 853.755 843.21 836.817 829.781 819.165 C 825.06 812.959 824.123 807.104 824.083 799.46 C 825.197 790.879 825.38 776.593 826.199 767.147 C 828.749 737.74 830.931 710.08 836.001 680.933 z"/>
<path transform="translate(0,0)" fill="rgb(232,233,222)" d="M 1588.74 1341.03 C 1585.18 1342.23 1580.3 1342.13 1579.42 1337.69 C 1580.96 1334.64 1582.92 1333.66 1585.7 1331.65 C 1586.69 1334.61 1587.95 1338.08 1588.74 1341.03 z"/>
<path transform="translate(0,0)" fill="rgb(210,212,206)" d="M 886.306 881.28 C 886.41 877.271 885.638 876.582 887.725 874.59 L 892.046 875.432 L 891.491 886.093 L 886.306 881.28 z"/>
<path transform="translate(0,0)" fill="rgb(232,233,222)" d="M 852.863 740.886 C 857.689 743.282 877.805 765.613 882.925 770.87 C 883.204 784.249 881.028 818.909 878.88 831.85 C 869.11 823.994 853.101 807.225 847.182 796.343 C 847.062 785.016 849.201 750.799 852.863 740.886 z"/>
<path transform="translate(0,0)" fill="rgb(204,204,192)" d="M 857.904 764.414 C 862.049 766.958 870.226 774.917 873.887 778.387 C 872.759 789.893 872.826 795.547 870.243 807.043 C 865.203 806.338 858.1 796.984 854.998 792.866 C 854.743 780.719 854.836 776.074 857.904 764.414 z"/>
<path transform="translate(0,0)" fill="rgb(232,233,222)" d="M 1166.41 1103.18 C 1166.36 1114.13 1175.06 1125.04 1172.62 1138.31 C 1169.86 1141.48 1170.11 1140.57 1165.21 1141.91 C 1161.67 1142.85 1161.97 1143.42 1159.18 1142.33 C 1157.95 1135.29 1164.07 1110.81 1166.41 1103.18 z"/>
<path transform="translate(0,0)" fill="rgb(232,233,222)" d="M 943.609 566.453 C 1163.11 531.475 1324.66 536.703 1539.96 595.629 C 1575.69 605.728 1611.18 616.623 1646.42 628.306 C 1685.02 641.15 1726.25 659.557 1767.51 654.848 C 1783.35 653.04 1807.92 639.012 1821.22 647.052 C 1823.3 652.118 1823.48 652.977 1824.04 658.435 C 1823.95 665.812 1824.33 682.007 1821.57 688.09 L 1823.82 698.829 C 1823.94 702.587 1824.4 709.905 1823.27 713.251 C 1811.2 748.831 1760.77 746.351 1732.22 742.458 C 1735.82 735.121 1739.82 727.356 1743.23 719.98 C 1744.63 717.162 1744.98 714.452 1745.62 711.366 C 1742.17 704.106 1736.17 697.961 1728.62 705.732 C 1727.97 706.4 1725.69 708.856 1725 709.09 C 1707.77 714.977 1685.7 722.939 1668.75 728.172 C 1597.24 710.472 1517.36 690.145 1445.01 679.628 C 1321.09 661.613 1162.65 665.695 1039.51 688.804 C 1033.04 678.699 993.153 636.341 983.8 628.501 C 982.855 622.049 981.897 618.064 980.268 611.738 C 979.043 609.55 978.099 607.304 977.075 605.016 C 965.76 590.623 954.713 579.927 943.609 566.453 z"/>
<path transform="translate(0,0)" fill="rgb(232,233,222)" d="M 943.609 566.453 C 1163.11 531.475 1324.66 536.703 1539.96 595.629 C 1575.69 605.728 1611.18 616.623 1646.42 628.306 C 1685.02 641.15 1726.25 659.557 1767.51 654.848 C 1783.35 653.04 1807.92 639.012 1821.22 647.052 C 1823.3 652.118 1823.48 652.977 1824.04 658.435 C 1823.54 657.762 1822.57 656.785 1821.97 656.136 C 1816 660.093 1808.49 664.98 1802.26 668.348 C 1790.89 674.519 1778.28 678.085 1765.37 678.788 C 1733.95 680.215 1663.66 656.992 1631.3 646.797 C 1446.19 588.471 1260.95 569.252 1068.37 595.675 C 1057.65 597.145 987.985 607.597 980.268 611.738 C 979.043 609.55 978.099 607.304 977.075 605.016 C 965.76 590.623 954.713 579.927 943.609 566.453 z"/>
<path transform="translate(0,0)" fill="rgb(204,204,192)" d="M 977.075 605.016 C 1166.48 564.423 1362.76 568.656 1550.24 617.377 C 1586.67 626.869 1622.88 637.185 1658.85 648.317 C 1689.57 657.555 1723.92 669.219 1755.65 672.594 C 1776.55 674.817 1807 662.607 1821.22 647.052 C 1823.3 652.118 1823.48 652.977 1824.04 658.435 C 1823.54 657.762 1822.57 656.785 1821.97 656.136 C 1816 660.093 1808.49 664.98 1802.26 668.348 C 1790.89 674.519 1778.28 678.085 1765.37 678.788 C 1733.95 680.215 1663.66 656.992 1631.3 646.797 C 1446.19 588.471 1260.95 569.252 1068.37 595.675 C 1057.65 597.145 987.985 607.597 980.268 611.738 C 979.043 609.55 978.099 607.304 977.075 605.016 z"/>
<path transform="translate(0,0)" fill="rgb(232,233,222)" d="M 1821.57 688.09 L 1823.82 698.829 C 1823.94 702.587 1824.4 709.905 1823.27 713.251 C 1811.2 748.831 1760.77 746.351 1732.22 742.458 C 1735.82 735.121 1739.82 727.356 1743.23 719.98 C 1744.63 717.162 1744.98 714.452 1745.62 711.366 C 1746.11 713.391 1745.92 712.693 1747.21 714.497 C 1770.42 719.636 1806.87 707.497 1821.57 688.09 z"/>
<path transform="translate(0,0)" fill="rgb(146,144,137)" d="M 1821.57 688.09 L 1823.82 698.829 C 1818.83 700.319 1813.55 707.331 1808.24 710.155 C 1790.37 719.645 1763.1 727.381 1743.23 719.98 C 1744.63 717.162 1744.98 714.452 1745.62 711.366 C 1746.11 713.391 1745.92 712.693 1747.21 714.497 C 1770.42 719.636 1806.87 707.497 1821.57 688.09 z"/>
<path transform="translate(0,0)" fill="rgb(232,233,222)" d="M 758.39 610.552 C 769.569 619.649 787.593 638.645 796.835 650.391 L 800.861 656.703 C 802.757 669.121 804.066 743.281 796.827 749.623 C 699.423 773.533 586.528 806.158 501.956 861.648 C 475.364 879.37 450.414 899.441 427.407 921.619 C 393.914 953.065 364.81 988.88 340.879 1028.1 C 328.109 1049.2 315.161 1073.74 303.299 1095.54 C 288.865 1098.93 259.485 1099.02 266.014 1119.77 L 270.696 1123.72 C 277.157 1125.9 282.879 1127.2 289.5 1128.77 C 286.423 1133.73 282.362 1139.18 278.207 1143.29 C 265.239 1155.92 247.809 1162.92 229.708 1162.77 C 211.812 1162.62 191.607 1154.38 179.012 1141.63 C 178.667 1133.71 178.46 1129.25 181.186 1121.82 C 183.12 1118.14 182.454 1119.02 182.051 1114.12 C 178.839 1105.76 180.135 1093.51 180.743 1084.65 L 182.287 1080.39 C 198.944 1066.15 237.025 1080.86 256.544 1053.52 C 275.986 1026.29 283.397 997.818 295.445 967.334 C 302.682 948.685 311.127 930.528 320.728 912.978 C 371.315 821.07 439.481 761.705 528.245 708.71 C 609.063 660.459 668.479 636.666 758.39 610.552 z"/>
<path transform="translate(0,0)" fill="rgb(232,233,222)" d="M 758.39 610.552 C 769.569 619.649 787.593 638.645 796.835 650.391 C 673.807 679.687 542.026 723.646 445.217 808.141 C 391.973 856.237 350.946 915.876 320.608 980.626 C 306.144 1011.5 292.705 1048.92 270.134 1074.31 C 248.477 1098.67 208.02 1094.97 182.287 1080.39 C 198.944 1066.15 237.025 1080.86 256.544 1053.52 C 275.986 1026.29 283.397 997.818 295.445 967.334 C 302.682 948.685 311.127 930.528 320.728 912.978 C 371.315 821.07 439.481 761.705 528.245 708.71 C 609.063 660.459 668.479 636.666 758.39 610.552 z"/>
<path transform="translate(0,0)" fill="rgb(204,204,192)" d="M 796.835 650.391 L 800.861 656.703 C 613.447 701.592 460.102 759.358 355.556 929.507 C 346.173 944.87 337.596 960.71 329.86 976.965 C 317.088 1003.88 293.81 1058.75 275.317 1078.52 C 267.418 1086.98 257.217 1092.95 245.969 1095.7 C 229.504 1099.77 202.104 1098.23 187.159 1089.7 C 184.794 1088.33 182.635 1086.62 180.743 1084.65 L 182.287 1080.39 C 208.02 1094.97 248.477 1098.67 270.134 1074.31 C 292.705 1048.92 306.144 1011.5 320.608 980.626 C 350.946 915.876 391.973 856.237 445.217 808.141 C 542.026 723.646 673.807 679.687 796.835 650.391 z"/>
<path transform="translate(0,0)" fill="rgb(232,233,222)" d="M 182.051 1114.12 C 205.593 1126.14 225.023 1133.84 252 1125.3 C 256.794 1123.78 261.476 1121.93 266.014 1119.77 L 270.696 1123.72 C 277.157 1125.9 282.879 1127.2 289.5 1128.77 C 286.423 1133.73 282.362 1139.18 278.207 1143.29 C 265.239 1155.92 247.809 1162.92 229.708 1162.77 C 211.812 1162.62 191.607 1154.38 179.012 1141.63 C 178.667 1133.71 178.46 1129.25 181.186 1121.82 C 183.12 1118.14 182.454 1119.02 182.051 1114.12 z"/>
<path transform="translate(0,0)" fill="rgb(146,144,137)" d="M 182.051 1114.12 C 205.593 1126.14 225.023 1133.84 252 1125.3 C 256.794 1123.78 261.476 1121.93 266.014 1119.77 L 270.696 1123.72 C 265.944 1128.46 256.968 1132.7 250.406 1134.15 C 223.72 1140.03 203.87 1135.01 181.186 1121.82 C 183.12 1118.14 182.454 1119.02 182.051 1114.12 z"/>
<path transform="translate(0,0)" fill="rgb(232,233,222)" d="M 1038.98 1051.57 C 1049.25 1060.69 1062.63 1074.78 1072.7 1084.85 C 1074.62 1086.59 1077.81 1089.32 1079.4 1091.15 C 1091.39 1103.42 1104.22 1116.05 1115.26 1129.08 C 1108.51 1154.26 1106.84 1178.37 1122.41 1200.56 C 1125.22 1203.19 1125.48 1203.02 1129.05 1204.17 C 1134.08 1188.61 1135.81 1173.92 1138.2 1157.8 L 1151.61 1178.67 C 1152.85 1180.51 1154.75 1182.99 1155.47 1184.96 L 1184.1 1231.92 C 1170.65 1265.56 1156.06 1270.24 1121.27 1273.52 C 1115.36 1274.62 1107.95 1273.72 1101.96 1273.09 C 1082.33 1265.27 1074.58 1254.54 1062.03 1238.82 C 1029.21 1197.72 1038.75 1155.41 1044.78 1107.85 C 1046.95 1090.77 1043.37 1068.66 1038.98 1051.57 z"/>
<path transform="translate(0,0)" fill="rgb(232,233,222)" d="M 1079.4 1091.15 C 1091.39 1103.42 1104.22 1116.05 1115.26 1129.08 C 1108.51 1154.26 1106.84 1178.37 1122.41 1200.56 C 1116.77 1206.89 1116.55 1244.97 1096.33 1238.75 C 1087.13 1235.92 1077.21 1221.46 1073.02 1212.96 C 1057.99 1182.46 1064.42 1149.71 1073.15 1118.49 C 1075.38 1110.23 1076.73 1098.9 1079.4 1091.15 z"/>
<path transform="translate(0,0)" fill="rgb(232,233,222)" d="M 1121.27 1273.52 C 1118.67 1272.97 1119.52 1273.42 1117.4 1271.99 C 1117.47 1271.44 1127.15 1255.27 1127.9 1254.29 C 1135.33 1244.41 1148.85 1190.47 1155.47 1184.96 L 1184.1 1231.92 C 1170.65 1265.56 1156.06 1270.24 1121.27 1273.52 z"/>
<path transform="translate(0,0)" fill="rgb(204,204,192)" d="M 1072.7 1084.85 C 1074.62 1086.59 1077.81 1089.32 1079.4 1091.15 C 1076.73 1098.9 1075.38 1110.23 1073.15 1118.49 C 1064.42 1149.71 1057.99 1182.46 1073.02 1212.96 C 1077.21 1221.46 1087.13 1235.92 1096.33 1238.75 C 1116.55 1244.97 1116.77 1206.89 1122.41 1200.56 C 1125.22 1203.19 1125.48 1203.02 1129.05 1204.17 C 1128.12 1212.18 1117.05 1238.29 1110.1 1242.91 C 1096.32 1252.07 1082.18 1239.04 1073.66 1227.28 C 1042.35 1184.03 1064.55 1132.12 1072.7 1084.85 z"/>
<path transform="translate(0,0)" fill="rgb(204,204,192)" d="M 1151.61 1178.67 C 1152.85 1180.51 1154.75 1182.99 1155.47 1184.96 C 1148.85 1190.47 1135.33 1244.41 1127.9 1254.29 C 1127.15 1255.27 1117.47 1271.44 1117.4 1271.99 C 1119.52 1273.42 1118.67 1272.97 1121.27 1273.52 C 1115.36 1274.62 1107.95 1273.72 1101.96 1273.09 C 1132.58 1262.92 1136.97 1187.84 1151.61 1178.67 z"/>
<path transform="translate(0,0)" fill="rgb(232,233,222)" d="M 1551.42 1403.09 C 1560.52 1409.56 1605.56 1461.28 1612.65 1471.6 L 1615.28 1476.57 C 1615.76 1488.52 1616.58 1515.92 1608.39 1524.38 C 1600.37 1532.68 1571.93 1539.33 1560.74 1540.44 C 1556.93 1539.6 1556.71 1539.47 1553.14 1537.8 C 1541.62 1531.06 1494.82 1487.72 1488.31 1476.31 C 1487.59 1462.81 1489.25 1440.99 1491.55 1428.09 C 1492.17 1425.25 1492.96 1424 1494.16 1421.35 C 1506.33 1411.3 1535.95 1404.52 1551.42 1403.09 z"/>
<path transform="translate(0,0)" fill="rgb(232,233,222)" d="M 1491.55 1428.09 C 1504.06 1439.54 1516.69 1453.75 1528.28 1466.37 C 1536.08 1474.88 1546.62 1484.5 1553.78 1492.56 C 1554.28 1507.98 1552.41 1521.11 1553.14 1537.8 C 1541.62 1531.06 1494.82 1487.72 1488.31 1476.31 C 1487.59 1462.81 1489.25 1440.99 1491.55 1428.09 z"/>
<path transform="translate(0,0)" fill="rgb(232,233,222)" d="M 1562.73 1496.09 C 1580.24 1485.55 1598.64 1485.52 1615.28 1476.57 C 1615.76 1488.52 1616.58 1515.92 1608.39 1524.38 C 1600.37 1532.68 1571.93 1539.33 1560.74 1540.44 C 1557.21 1530.11 1558.8 1506.47 1562.73 1496.09 z"/>
<path transform="translate(0,0)" fill="rgb(204,204,192)" d="M 1494.16 1421.35 C 1504.31 1431.68 1550.96 1486.16 1560.94 1486.67 C 1570.9 1487.18 1603.17 1476.09 1612.65 1471.6 L 1615.28 1476.57 C 1598.64 1485.52 1580.24 1485.55 1562.73 1496.09 C 1558.8 1506.47 1557.21 1530.11 1560.74 1540.44 C 1556.93 1539.6 1556.71 1539.47 1553.14 1537.8 C 1552.41 1521.11 1554.28 1507.98 1553.78 1492.56 C 1546.62 1484.5 1536.08 1474.88 1528.28 1466.37 C 1516.69 1453.75 1504.06 1439.54 1491.55 1428.09 C 1492.17 1425.25 1492.96 1424 1494.16 1421.35 z"/>
<path transform="translate(0,0)" fill="rgb(232,233,222)" d="M 652.77 523.751 C 660.185 521.839 667.574 519.824 674.934 517.708 C 688.456 524.289 726.124 543.296 739.25 546.423 C 737.829 551.354 731.693 556.363 729.956 560.112 C 725.106 570.579 723.49 585.989 722.102 597.306 C 721.889 599.634 721.644 603.538 721.294 605.718 L 720.668 613.714 C 715.057 615.379 709.464 617.103 703.889 618.885 L 695.011 621.593 C 687.088 624.002 680.466 626.503 672.716 629.478 C 664.732 620.958 656.637 612.43 648.848 603.734 C 644.469 598.845 640.244 593.281 642.906 586.729 C 645.916 584.612 653.028 583.797 656.988 583.072 C 660.886 581.096 660.348 581.05 661.843 577.799 C 652.756 556.515 643.603 549.421 645.999 526.194 L 652.77 523.751 z"/>
<path transform="translate(0,0)" fill="rgb(232,233,222)" d="M 652.77 523.751 C 660.185 521.839 667.574 519.824 674.934 517.708 C 688.456 524.289 726.124 543.296 739.25 546.423 C 737.829 551.354 731.693 556.363 729.956 560.112 C 725.106 570.579 723.49 585.989 722.102 597.306 C 699.284 575.726 677.661 546.882 652.77 523.751 z"/>
<path transform="translate(0,0)" fill="rgb(232,233,222)" d="M 672.716 629.478 C 664.732 620.958 656.637 612.43 648.848 603.734 C 644.469 598.845 640.244 593.281 642.906 586.729 C 645.916 584.612 653.028 583.797 656.988 583.072 C 670.803 599.156 679.695 607.118 695.011 621.593 C 687.088 624.002 680.466 626.503 672.716 629.478 z"/>
<path transform="translate(0,0)" fill="rgb(204,204,192)" d="M 645.999 526.194 L 652.77 523.751 C 677.661 546.882 699.284 575.726 722.102 597.306 C 721.889 599.634 721.644 603.538 721.294 605.718 C 706.085 589.671 691.081 573.43 676.287 556.999 C 667.338 547.186 656.332 533.907 645.999 526.194 z"/>
<path transform="translate(0,0)" fill="rgb(204,204,192)" d="M 661.843 577.799 C 676.185 587.545 693.408 611.462 703.889 618.885 L 695.011 621.593 C 679.695 607.118 670.803 599.156 656.988 583.072 C 660.886 581.096 660.348 581.05 661.843 577.799 z"/>
<path transform="translate(0,0)" fill="rgb(232,233,222)" d="M 1121.84 1138.27 C 1125.67 1140.93 1128.23 1145.48 1130.88 1149.4 C 1129.74 1161.26 1127.52 1172.92 1125.48 1184.65 L 1124.57 1185.69 C 1115.89 1175.32 1119.5 1150.35 1121.84 1138.27 z"/>
</svg>