<svg version="1.1" xmlns="http://www.w3.org/2000/svg" style="display: block;" viewBox="0 0 2048 2048" width="1024" height="1024" preserveAspectRatio="none">
<path transform="translate(0,0)" fill="rgb(0,0,0)" d="M 1115.59 524.362 C 1167.53 413.762 1150.16 270.642 1204.71 158.585 C 1207.53 152.781 1211.9 141.504 1217.36 138.597 C 1220.32 143.047 1213.53 160.337 1211.85 165.663 C 1203.01 193.665 1197.32 222.397 1191.38 251.107 C 1179.12 310.328 1175.31 370.768 1165.88 430.272 C 1191.17 369.261 1208.06 333.336 1222.35 268.706 C 1235.07 324.017 1176.36 427.829 1170.59 483.281 C 1169.25 485.998 1166.05 502.875 1165.23 506.962 C 1169.04 498.128 1173.54 489 1177.67 480.263 C 1201.85 429.249 1227.61 375.763 1242.3 321.21 C 1246.86 304.583 1250.58 287.741 1253.47 270.744 C 1254.7 263.864 1256.76 248.01 1258.47 242.173 C 1264.04 244.341 1263.02 273.806 1262.44 279.383 C 1256.79 334.003 1238.21 387.163 1217.02 437.524 C 1205.11 465.681 1191.63 493.585 1182.33 522.428 C 1209.9 481.517 1235.48 444.882 1256.04 399.804 C 1261.3 388.11 1266.03 376.181 1270.21 364.056 C 1271.82 359.219 1276.71 339.95 1278.37 337.346 C 1285.74 356.575 1270.79 399.643 1262.42 417.952 C 1241.11 464.597 1208.28 504.679 1188.17 552.038 C 1171.13 592.161 1170.11 633.404 1157.77 674.46 C 1153.44 688.863 1138.6 699.599 1133.54 713.542 C 1130.66 721.102 1133.02 738.434 1134.28 746.766 C 1141.26 792.986 1146.23 825.775 1127.58 870.499 C 1118.07 893.289 1105.56 901.857 1097 917.451 L 1096.96 919.064 C 1096.72 932.955 1103.21 959.201 1105.4 974.786 C 1113.31 1031.06 1107.3 1081.89 1075.08 1130.02 C 1067.23 1141.75 1059.47 1148.49 1051.65 1158.58 C 1048.96 1183.01 1051.68 1206.08 1052.82 1230.4 C 1054.08 1257.12 1053.01 1283.78 1046.77 1309.89 C 1041.76 1330.99 1033.2 1351.1 1021.46 1369.34 C 1015.36 1378.79 1002.89 1393.64 1000.45 1404.04 C 987.767 1458.13 964.809 1508.29 947.426 1560.75 C 940.813 1580.7 942.145 1604.27 936.546 1624.58 C 931.968 1641.93 924.161 1660.25 917.658 1677.07 C 910.56 1695.14 904.309 1713.53 898.925 1732.18 C 890.882 1759.8 883.698 1787.67 877.384 1815.73 C 872.841 1835.2 868.539 1855.13 862.728 1873.65 C 849.99 1914.25 788.641 1925.23 764.375 1889.06 C 757.627 1880.04 751.763 1864.81 754.725 1853.37 C 760.114 1832.56 768.95 1811.99 775.264 1791.34 C 798.103 1716.63 827.46 1644.07 838.575 1566.39 C 842.833 1536.63 853.308 1503.05 861.502 1474.05 C 870.987 1442.25 892.849 1413.05 902.665 1383.08 C 909.886 1361.04 901.204 1322.81 901.43 1299.64 C 900.723 1280.14 901.905 1258.78 906.582 1240.05 C 911.119 1222.28 918.957 1205.51 929.688 1190.63 C 944.178 1170.17 959.467 1161.32 962.596 1134.71 C 968.296 1086.23 951.698 1039.16 962.395 990.726 C 967.458 961.229 984.619 936.245 1003.44 913.72 C 1006.61 909.928 1013.96 901.145 1014.43 896.091 C 1015.46 884.98 1014.15 872.115 1012.03 861.005 C 1002.62 811.632 994.656 759.159 1026.86 715.806 C 1037.65 701.289 1052.7 686.165 1055.14 667.422 C 1060.32 641.999 1052.56 616.793 1054.91 591.436 C 1056.05 579.166 1061.39 568.326 1065.03 556.78 C 1080.12 508.964 1064.39 457.061 1057.49 409.267 C 1051.81 369.91 1049.9 316.665 1072.11 282.104 C 1052.12 373.916 1084.48 425.74 1090.71 512.345 C 1095.8 482.132 1093.74 449.237 1093.36 418.961 C 1092.71 367.744 1090.53 264.124 1124.53 223.992 L 1125.58 222.733 C 1125.8 222.485 1126.02 222.238 1126.24 221.991 C 1121.36 251.926 1113.95 280.042 1111.08 310.613 C 1106.66 357.694 1110.48 404.9 1112.35 452.09 C 1120.24 409.019 1121.84 364.133 1130 324.421 C 1138.19 377.735 1127.2 471.304 1115.59 524.362 z M 1116.45 619.048 C 1124.08 602.814 1143.6 545.433 1140.55 529.62 L 1139.6 528.665 C 1126.78 556.822 1118.67 586.892 1115.59 617.677 C 1115.88 618.134 1116.17 618.591 1116.45 619.048 z"/>
<path transform="translate(0,0)" fill="rgb(253,252,252)" d="M 1080.9 942.563 C 1088.07 946.162 1088.08 1005.81 1087.03 1014.24 C 1082.87 998.708 1081.42 981.414 1076.45 963.396 C 1067.76 972.656 1064.23 978.417 1058.01 989.574 C 1058.41 994.13 1058.67 998.699 1058.78 1003.27 C 1060.93 1089.52 1018.77 1126.89 964.117 1184.39 C 955.695 1193.57 945.219 1207.48 936.772 1215.24 C 961.431 1170.86 1011.74 1131.58 1033.83 1084.04 C 1045.92 1058 1044.16 1041.47 1045.77 1014.72 C 1047.15 991.873 1065.55 959.272 1080.9 942.563 z"/>
<path transform="translate(0,0)" fill="rgb(253,252,252)" d="M 874.601 1570.71 C 876.373 1580.38 788.482 1835.02 778.02 1862.84 C 776.872 1865.89 775.975 1869.4 772.924 1870.77 C 769.023 1863.34 768.839 1860.06 771.204 1851.97 C 774.718 1839.95 779.4 1828.41 783.791 1816.7 C 789.846 1800.69 795.619 1784.59 801.109 1768.38 C 816.298 1724.65 831.96 1681.08 848.092 1637.69 C 855.588 1617.74 865.575 1589.51 874.601 1570.71 z"/>
<path transform="translate(0,0)" fill="rgb(253,252,252)" d="M 1032.69 1182.91 L 1033.7 1184.48 C 1035.62 1217.25 1036.52 1282.88 1023.16 1312.26 C 1024.26 1300.39 1026.79 1288.26 1027.87 1276.08 C 1029.96 1252.41 1028.34 1229.76 1024.87 1206.36 C 1011.87 1218.78 1003.12 1231.04 1000.71 1248.86 C 995.778 1276.6 983.314 1302.67 963.306 1322.64 C 978.625 1294.69 979.797 1282.53 987.66 1252.71 C 993.877 1229.13 1015.37 1199.86 1032.69 1182.91 z"/>
<path transform="translate(0,0)" fill="rgb(253,252,252)" d="M 965.936 1339.94 L 966.481 1340.55 C 965.187 1347.67 932.191 1388.98 925.582 1398.33 C 920.775 1405.26 916.308 1412.42 912.198 1419.78 C 891.716 1456.24 885.127 1483.94 871.54 1522.1 L 870.674 1521.25 C 871.533 1511.24 877.506 1490.65 880.386 1480.17 C 898.135 1415.6 918.095 1384.5 965.936 1339.94 z"/>
<path transform="translate(0,0)" fill="rgb(253,252,252)" d="M 980.124 1025.68 C 983.811 1031.14 992.041 1084.66 993.55 1094.44 C 1013.91 1075.11 1017.67 1055.34 1030.75 1034.93 C 1028.6 1045.66 1026.49 1053.06 1022.68 1063.27 C 1013.54 1086.78 997.031 1109.73 980.179 1128.5 C 981.463 1114.73 982.345 1101.84 982.118 1088 C 981.789 1067.93 979.147 1045.63 980.124 1025.68 z"/>
<path transform="translate(0,0)" fill="rgb(253,252,252)" d="M 1058.16 768.573 C 1059.18 770.659 1058.94 789.938 1061.75 800.181 C 1065.04 791.997 1067.43 786.732 1071.52 778.928 L 1071.49 780.397 C 1070.88 809.599 1062.43 833.727 1047.11 858.405 C 1044.45 862.677 1034.76 879.82 1029.97 879.619 L 1029.64 876.25 C 1029.97 856.275 1028.63 838.608 1029.69 818.143 C 1032.81 830.27 1034.53 842.938 1037.8 855.663 C 1046.02 845.834 1051.88 835.312 1057.05 823.657 C 1053.37 805.263 1051.37 786.357 1058.16 768.573 z"/>
<path transform="translate(0,0)" fill="rgb(253,252,252)" d="M 1096.73 641.811 L 1097.22 642.318 C 1098.61 645.91 1096.18 652.729 1095.25 656.497 C 1086 693.999 1058.15 710.427 1039.91 741.23 C 1031.06 756.177 1027.41 775.773 1023.84 792.869 L 1023.53 792.948 C 1021.77 787.729 1022.67 777.857 1023.04 772.359 C 1025.96 729.703 1055.56 706.69 1079.65 675.148 C 1086.69 665.917 1092.47 652.833 1096.73 641.811 z"/>
<path transform="translate(0,0)" fill="rgb(253,252,252)" d="M 969.498 1436.9 C 969.998 1446.47 918.437 1586.25 911.393 1605.26 C 911.411 1605.41 911.102 1603.19 911.18 1602.87 C 922.996 1554.9 937.433 1506.93 952.615 1459.88 C 954.828 1453.02 964.389 1441.95 969.498 1436.9 z"/>
<path transform="translate(0,0)" fill="rgb(253,252,252)" d="M 1015.58 1327.86 L 1016.03 1328.35 C 1016.59 1332 1014.07 1336.8 1012.55 1340.59 C 998.512 1375.48 970.236 1397.6 948.837 1426.99 C 939.63 1439.64 930.898 1458.78 924.022 1473.18 L 923.132 1472.84 C 923.189 1463.58 937.361 1433.19 942.331 1425.5 C 964.782 1390.74 993.283 1363.15 1015.58 1327.86 z"/>
<path transform="translate(0,0)" fill="rgb(253,252,252)" d="M 876.397 1722.7 C 878.397 1732.27 845.586 1856.08 840.003 1871.86 C 836.591 1881.5 838.545 1880.93 829.472 1885.82 C 828.563 1879.41 870.403 1735.93 876.397 1722.7 z"/>
<path transform="translate(0,0)" fill="rgb(253,252,252)" d="M 1019.74 1154.96 L 1020.33 1155.71 C 1019.58 1159.77 981.703 1207.41 975.252 1216.52 C 970.039 1223.74 965.419 1231.38 961.435 1239.35 C 951.632 1259.42 950.974 1272.36 946.785 1293.36 C 944.807 1291.65 945.146 1290.1 945.006 1287.68 C 941.422 1225.73 981.057 1196.15 1019.74 1154.96 z"/>
<path transform="translate(0,0)" fill="rgb(253,252,252)" d="M 1052.5 889.897 L 1052.97 890.252 C 1054.06 899.174 1014.23 936.675 1010.94 948.894 C 1006.57 965.085 1002.74 981.492 997.28 997.41 L 996.576 997.176 C 994.462 993.145 997.219 964.364 998.968 958.192 C 1006.45 931.786 1033.46 908.852 1052.5 889.897 z"/>
<path transform="translate(0,0)" fill="rgb(253,252,252)" d="M 1079.1 909.981 C 1080.12 913.444 1070.2 926.011 1067.73 929.327 C 1044.82 960.092 1031.62 986.917 1019.74 1023.34 C 1019.27 1021.64 1019.14 1020.94 1019.23 1019.11 C 1021.25 974.561 1048.06 938.966 1079.1 909.981 z"/>
<path transform="translate(0,0)" fill="rgb(253,252,252)" d="M 1148.46 618.669 C 1149.25 620.965 1149.07 623.422 1148.85 625.824 C 1144.1 679.061 1126.79 696.5 1088.38 729.002 C 1088.06 724.443 1104.23 707.404 1108.1 703.245 C 1135.16 674.112 1136.5 652.298 1148.46 618.669 z"/>
<path transform="translate(0,0)" fill="rgb(253,252,252)" d="M 821.481 1782.7 C 823.075 1789.87 796.615 1886.5 792.525 1889.89 L 789.742 1889.62 C 788.186 1887.76 787.867 1887.05 786.676 1884.91 C 786.93 1876.27 816.797 1792.37 821.481 1782.7 z"/>
<path transform="translate(0,0)" fill="rgb(253,252,252)" d="M 1093.72 750.869 C 1095.52 753.526 1095.8 761.849 1095.97 765.269 C 1097.46 794.421 1090.17 819.744 1076.34 845.199 C 1074.35 842.763 1078.19 834.391 1079.5 830.702 C 1087.57 807.964 1086.46 783.862 1084.86 760.153 C 1087.97 756.291 1090.18 754.253 1093.72 750.869 z"/>
<path transform="translate(0,0)" fill="rgb(253,252,252)" d="M 1119.44 778.645 C 1124.3 782.763 1123.07 803.234 1123.24 810.048 C 1123.94 838.515 1112.17 865.339 1092.08 885.36 C 1090.81 885.795 1091.52 885.76 1089.96 885.077 C 1090.49 882.339 1101.15 865.684 1103.89 859.692 C 1116.12 832.908 1117.91 807.403 1119.44 778.645 z"/>
<path transform="translate(0,0)" fill="rgb(253,252,252)" d="M 1088.41 1033.7 C 1089.62 1039.25 1087.47 1050.16 1086.43 1055.9 C 1081.76 1081.63 1070.67 1102.31 1052.89 1121.35 C 1051.99 1117.99 1058.4 1108.05 1060.42 1104.29 C 1070.48 1085.6 1078.98 1050.39 1088.41 1033.7 z"/>
<path transform="translate(0,0)" fill="rgb(253,252,252)" d="M 925.365 1282.73 C 927.811 1286.33 930.208 1339.48 929.982 1347.68 C 929.937 1349.33 927.356 1353.01 926.255 1354.51 L 924.018 1355.56 C 920.537 1348.91 923.026 1292.73 925.365 1282.73 z"/>
<path transform="translate(0,0)" fill="rgb(253,252,252)" d="M 1083.56 557.627 C 1085.65 564.279 1078.96 590.32 1079.13 599.153 C 1079.23 604.263 1078.72 624.181 1076.83 627.654 L 1075.69 626.718 C 1067.92 596.919 1072.3 586.033 1083.56 557.627 z"/>
<path transform="translate(0,0)" fill="rgb(253,252,252)" d="M 1086.78 858.944 C 1092.11 867.656 1060.27 905.934 1050.99 911.713 C 1050.64 911.159 1050.3 910.605 1049.95 910.052 C 1054.63 901.019 1079.84 867.443 1086.78 858.944 z"/>
<path transform="translate(0,0)" fill="rgb(253,252,252)" fill-opacity="0.0117647" d="M 1170.59 483.281 L 1171.42 484.137 C 1172.44 481.344 1172.21 481.267 1174.45 479.424 L 1177.67 480.263 C 1173.54 489 1169.04 498.128 1165.23 506.962 C 1166.05 502.875 1169.25 485.998 1170.59 483.281 z"/>
</svg>